<svg width="72" height="72" viewBox="0 0 72 72" fill="none" xmlns="http://www.w3.org/2000/svg">
<rect width="72" height="72" fill="white"/>
<g style="mix-blend-mode:luminosity">
<path d="M25.6227 56.518H26.9142C27.2882 56.518 27.5778 56.4189 27.7829 56.2214C27.9873 56.0239 28.0896 55.7522 28.0896 55.4061C28.0896 55.0601 27.9835 54.7832 27.7721 54.5749C27.56 54.3667 27.2673 54.2625 26.8933 54.2625H25.6227V56.518ZM24.2568 57.6933V50.1758H28.8731V51.3512H25.6227V53.0872H27.1263C27.8248 53.0872 28.3912 53.2974 28.8255 53.7177C29.2598 54.1374 29.477 54.7007 29.477 55.4061C29.477 56.0836 29.2611 56.6342 28.8306 57.0577C28.4001 57.4812 27.8425 57.6933 27.158 57.6933H24.2568Z" fill="#0A6B4F"/>
<path d="M31.6478 56.0839C31.6478 56.2744 31.7202 56.4401 31.865 56.5817C32.0091 56.7227 32.2091 56.7932 32.4631 56.7932C32.8232 56.7932 33.1197 56.6452 33.3527 56.3487C33.5851 56.0522 33.702 55.7277 33.702 55.3747V55.2261H33.4689C32.2548 55.2261 31.6478 55.5124 31.6478 56.0839ZM30.3137 56.2001C30.3137 55.8191 30.4179 55.4947 30.6261 55.2261C30.8344 54.9581 31.1093 54.7619 31.4522 54.6387C31.7945 54.5155 32.1259 54.4285 32.4472 54.379C32.7685 54.3301 33.1051 54.3054 33.4581 54.3054H33.6912V54.2311C33.6912 53.5954 33.3527 53.278 32.6752 53.278C32.1806 53.278 31.6796 53.4513 31.1716 53.7967L30.6738 52.8335C30.9068 52.65 31.2205 52.4931 31.6161 52.3623C32.011 52.2315 32.4028 52.1661 32.7914 52.1661C33.4969 52.1661 34.0474 52.3553 34.443 52.7325C34.8379 53.1103 35.036 53.638 35.036 54.3155V57.693H33.7864V57.2377L33.8182 56.8459H33.7972C33.6277 57.1354 33.3915 57.3704 33.0879 57.5501C32.7844 57.7304 32.4523 57.8199 32.0923 57.8199C31.5913 57.8199 31.1697 57.6701 30.8274 57.3704C30.4845 57.0707 30.3137 56.6802 30.3137 56.2001Z" fill="#0A6B4F"/>
<path d="M36.3728 57.6932V52.2933H37.717V54.3792H40.0258V52.2933H41.3701V57.6932H40.0258V55.512H37.717V57.6932H36.3728Z" fill="#0A6B4F"/>
<path d="M42.7219 57.6979V52.2981H44.0662V54.363H44.7227L46.0359 52.2981H47.5287L45.8136 54.871V54.892L47.7408 57.6979H46.1845L44.7653 55.506H44.0662V57.6979H42.7219Z" fill="#0A6B4F"/>
<path d="M29.249 16.6494V20.2491C30.7399 20.2491 31.9489 21.4581 31.9489 22.949C31.9489 24.4406 30.7399 25.649 29.249 25.649V29.2493C32.7281 29.2493 35.5486 26.4287 35.5486 22.949C35.5486 19.47 32.7281 16.6494 29.249 16.6494Z" fill="#F26C3A"/>
<path d="M37.3488 11.2496H29.249V14.8492H37.3488C40.3313 14.8492 42.7486 17.2672 42.7486 20.2491C42.7486 23.2316 40.3313 25.6489 37.3488 25.6489H36.449V29.2486H37.3488C42.3194 29.2486 46.3483 25.2197 46.3483 20.2491C46.3483 15.2791 42.3194 11.2496 37.3488 11.2496Z" fill="#F26C3A"/>
<path d="M28.7991 16.1994V19.799C30.29 19.799 31.499 21.008 31.499 22.499C31.499 23.9905 30.29 25.1989 28.7991 25.1989V28.7992C32.2781 28.7992 35.0987 25.9786 35.0987 22.499C35.0987 19.0199 32.2781 16.1994 28.7991 16.1994Z" fill="#FFDF31"/>
<path d="M36.8986 10.7996H28.7988V14.3993H36.8986C39.8811 14.3993 42.2984 16.8173 42.2984 19.7991C42.2984 22.7816 39.8811 25.199 36.8986 25.199H35.9988V28.7986H36.8986C41.8692 28.7986 45.8981 24.7697 45.8981 19.7991C45.8981 14.8292 41.8692 10.7996 36.8986 10.7996Z" fill="#FFDF31"/>
<path d="M11.1344 43.1721H15.6129V35.4216H12.5955V36.2636C12.5955 39.2918 12.1085 41.5948 11.1344 43.1721ZM7.87891 43.1721H9.02186C10.1128 41.5206 10.6582 39.1699 10.6582 36.1207V33.6589H17.662V43.1721H18.9167V47.1585H17.0899V44.9348H9.7686V47.1585H7.87891V43.1721Z" fill="#0A6B4F"/>
<path d="M22.2556 42.521C22.2556 42.8067 22.3642 43.0556 22.5813 43.2677C22.7979 43.4792 23.0976 43.5846 23.4786 43.5846C24.0183 43.5846 24.4634 43.363 24.8126 42.9179C25.1619 42.4734 25.3365 41.9863 25.3365 41.4568V41.2345H24.9873C23.1662 41.2345 22.2556 41.6631 22.2556 42.521ZM20.2542 42.6956C20.2542 42.1241 20.4104 41.6371 20.7228 41.2345C21.0352 40.832 21.4479 40.5386 21.9616 40.3532C22.4753 40.1678 22.9725 40.0382 23.4544 39.9639C23.9364 39.8897 24.4418 39.8528 24.9714 39.8528H25.3206V39.7417C25.3206 38.7886 24.8126 38.3124 23.7961 38.3124C23.055 38.3124 22.3032 38.5721 21.5412 39.0902L20.7945 37.645C21.1438 37.3701 21.6149 37.1345 22.208 36.9383C22.801 36.7427 23.3884 36.6449 23.9707 36.6449C25.0292 36.6449 25.8553 36.9281 26.4483 37.4939C27.0414 38.0609 27.3379 38.8521 27.3379 39.8687V44.9352H25.4635V44.2519L25.5118 43.664H25.4794C25.2254 44.0983 24.8704 44.4507 24.4158 44.7206C23.9605 44.9904 23.4627 45.1257 22.923 45.1257C22.1705 45.1257 21.5381 44.9003 21.0244 44.4507C20.5107 44.0005 20.2542 43.4157 20.2542 42.6956Z" fill="#0A6B4F"/>
<path d="M28.9155 45.0143V43.2357C29.4661 43.1614 29.8864 42.8357 30.1779 42.2591C30.4693 41.6819 30.6147 40.7212 30.6147 39.3763V36.8352H36.5225V44.9349H34.5059V38.4709H32.5362V39.3763C32.5362 41.2184 32.2555 42.6084 31.6948 43.5449C31.1335 44.4822 30.2071 44.9717 28.9155 45.0143Z" fill="#0A6B4F"/>
<path d="M40.3197 39.8844H43.8934C43.8826 39.3548 43.7264 38.937 43.4247 38.6297C43.1231 38.323 42.739 38.1693 42.2735 38.1693C41.7649 38.1693 41.3363 38.3255 40.9871 38.6379C40.6372 38.9503 40.4149 39.3662 40.3197 39.8844ZM38.1919 40.8851C38.1919 39.6361 38.5754 38.617 39.3431 37.8277C40.1108 37.0391 41.1033 36.6447 42.3212 36.6447C43.4432 36.6447 44.322 37.0073 44.9569 37.7325C45.5926 38.4576 45.91 39.3764 45.91 40.4883C45.91 40.668 45.8891 40.9277 45.8465 41.2661H40.2721C40.3356 41.9443 40.5953 42.4707 41.0506 42.8466C41.5052 43.2225 42.0564 43.4104 42.7021 43.4104C43.5067 43.4104 44.2794 43.1139 45.0211 42.5208L45.8148 43.966C45.4122 44.3261 44.9176 44.6093 44.3296 44.8156C43.7422 45.0226 43.1517 45.1255 42.5593 45.1255C41.2569 45.1255 40.2029 44.7153 39.3984 43.8949C38.5938 43.0745 38.1919 42.0713 38.1919 40.8851Z" fill="#0A6B4F"/>
<path d="M47.7773 44.9349V36.8352H49.794V39.9643H53.2566V36.8352H55.2732V44.9349H53.2566V41.6635H49.794V44.9349H47.7773Z" fill="#0A6B4F"/>
<path d="M59.0366 42.5281C59.0366 42.8138 59.1452 43.0627 59.3623 43.2748C59.5789 43.4863 59.8786 43.5917 60.2596 43.5917C60.7993 43.5917 61.2444 43.3701 61.5937 42.9249C61.9429 42.4805 62.1175 41.9934 62.1175 41.4639V41.2416H61.7683C59.9472 41.2416 59.0366 41.6702 59.0366 42.5281ZM57.0352 42.7027C57.0352 42.1312 57.1914 41.6442 57.5044 41.2416C57.8162 40.839 58.2289 40.5457 58.7426 40.3603C59.2563 40.1749 59.7535 40.0453 60.2354 39.971C60.7174 39.8967 61.2228 39.8599 61.7524 39.8599H62.1016V39.7488C62.1016 38.7957 61.5937 38.3195 60.5771 38.3195C59.836 38.3195 59.0842 38.5792 58.3223 39.0973L57.5755 37.6521C57.9248 37.3771 58.3959 37.1416 58.989 36.9454C59.582 36.7498 60.1694 36.652 60.7517 36.652C61.8102 36.652 62.6363 36.9352 63.2293 37.501C63.8224 38.068 64.119 38.8592 64.119 39.8758V44.9423H62.2445V44.259L62.2928 43.671H62.2604C62.0064 44.1054 61.6514 44.4578 61.1968 44.7276C60.7415 44.9975 60.2437 45.1328 59.704 45.1328C58.9515 45.1328 58.3191 44.9073 57.8054 44.4578C57.2917 44.0076 57.0352 43.4228 57.0352 42.7027Z" fill="#0A6B4F"/>
</g>
</svg>
