<svg width="72" height="72" viewBox="0 0 72 72" fill="none" xmlns="http://www.w3.org/2000/svg">
<g style="mix-blend-mode:luminosity">
<rect width="72" height="72" fill="white"/>
<path fill-rule="evenodd" clip-rule="evenodd" d="M34.7002 11.9001C43.4184 11.9001 50.4892 18.5335 50.4892 26.7132C50.4892 34.8928 43.4184 41.5269 34.7002 41.5269C25.9813 41.5269 18.9106 34.8928 18.9106 26.7132C18.9106 18.5335 25.9813 11.9001 34.7002 11.9001Z" fill="#334646"/>
<path d="M34.537 38.0665H33.7665C31.4447 38.0665 29.1064 38.2054 26.8574 37.5446C24.8748 36.9617 23.1646 35.8966 21.7387 34.3392C11.4988 23.1577 22.6674 6.35835 37.6611 12.1624C23.5729 11.1461 22.2345 29.8501 30.7196 30.8096V16.3088L34.537 15.3454V38.0665Z" fill="white"/>
<path d="M34.5369 15.3452H35.3074C37.629 15.3452 39.9678 15.2058 42.2159 15.8666C44.1988 16.4493 45.9087 17.5151 47.3348 19.0724C57.5751 30.254 46.4064 47.0532 31.4131 41.2491C45.5005 42.2653 46.8395 23.561 38.3543 22.6019V37.1029L34.5369 38.0663V15.3452Z" fill="#5EC7D1"/>
<path d="M50.909 49.3868H48.878V53.2751H47.5026V49.3868H45.4717V48.0905H50.909V49.3868Z" fill="#373535"/>
<path d="M41.2387 51.9788H39.1744V53.2751H37.7979V49.0375C37.7979 48.7817 37.8989 48.5606 38.101 48.373C38.3021 48.1849 38.5385 48.0905 38.8085 48.0905H41.2387V49.3868H39.1744V50.6826H41.2387V51.9788ZM44.6781 53.2751H43.3023V51.9788H41.2387V50.6826H43.3023V49.3868H41.2387V48.0905H43.674C43.9407 48.0905 44.1747 48.1862 44.3763 48.3761C44.5772 48.5649 44.6781 48.7856 44.6781 49.0375V53.2751Z" fill="#373535"/>
<path d="M36.422 53.2751H35.0454V49.3861H32.9741V53.2751H31.6052V49.3861H29.5399V53.2751H28.1631V49.0367C28.1631 48.7809 28.2648 48.5597 28.4662 48.3721C28.6674 48.184 28.9045 48.0895 29.1744 48.0895H35.4168C35.6882 48.0895 35.9223 48.1853 36.1218 48.3752C36.3221 48.5641 36.422 48.7849 36.422 49.0367V53.2751Z" fill="#373535"/>
<path d="M23.3434 53.2752H21.2792V54.5711H19.9031V49.0376C19.9031 48.7858 20.0031 48.565 20.203 48.3762C20.4026 48.1863 20.6366 48.0906 20.9079 48.0906H23.3434V49.3869H21.2792V51.9789H23.3434V53.2752ZM26.7837 52.3289C26.7837 52.5837 26.6823 52.8048 26.4812 52.9927C26.2801 53.1806 26.043 53.2752 25.773 53.2752H23.3434V51.9789H25.4077V49.3869H23.3434V48.0906H25.773C26.043 48.0906 26.2801 48.185 26.4812 48.3731C26.6823 48.5607 26.7837 48.7818 26.7837 49.0376V52.3289Z" fill="#373535"/>
<path d="M15.0855 53.2751H12.6498C12.3832 53.2751 12.149 53.1794 11.9479 52.9899C11.7466 52.8004 11.6453 52.5799 11.6453 52.3288V49.0375C11.6453 48.7817 11.7466 48.5606 11.9479 48.373C12.149 48.1849 12.3832 48.0905 12.6498 48.0905H15.0855V49.3868H13.0215V51.9788H15.0855V53.2751ZM18.5262 52.3288C18.5262 52.5799 18.4259 52.8004 18.226 52.9899C18.0262 53.1794 17.7921 53.2751 17.5213 53.2751H15.0855V51.9788H17.1498V49.3868H15.0855V48.0905H17.5213C17.7879 48.0905 18.022 48.1862 18.2231 48.3761C18.4246 48.5649 18.5262 48.7857 18.5262 49.0375V52.3288Z" fill="#373535"/>
<path d="M5.76637 52.8034C5.38031 52.6901 5.04767 52.4828 4.77006 52.1803C2.77792 50.0045 4.95099 46.7364 7.86778 47.8648C5.12691 47.6676 4.86658 51.3065 6.51752 51.4932V48.485C7.22751 48.485 8.05225 48.3873 8.72867 48.5855C9.11506 48.699 9.4477 48.907 9.72531 49.2089C11.7174 51.3849 9.54438 54.6532 6.62743 53.5244C9.36846 53.7215 9.62895 50.0832 7.97769 49.8961V52.9044C7.29223 52.9044 6.39469 52.9881 5.76637 52.8034Z" fill="#373535"/>
<path d="M64.5592 48.0896V49.3862H62.4945V49.9943H64.5592V51.2893H62.4945V51.7824V51.8975H64.5592V53.1942H62.1226C61.8512 53.1942 61.617 53.0983 61.4175 52.9091C61.2179 52.72 61.1183 52.4989 61.1183 52.2477V51.7824V50.4938V49.0367C61.1183 48.7848 61.2179 48.5641 61.4175 48.375C61.617 48.1853 61.8512 48.0896 62.1226 48.0896H64.5592ZM60.3332 49.3862H58.3018V53.2751H56.9256V49.3862H54.895V48.0896H60.3332V49.3862ZM64.5592 53.1942V51.8975H66.6237V51.2893H64.5592V49.9943H66.6237V49.3862H64.5592V48.0896H66.9888C67.2589 48.0896 67.4955 48.184 67.6971 48.3721C67.8988 48.5597 67.9998 48.7809 67.9998 49.0367V49.8478C67.9998 50.1028 67.8988 50.3239 67.6971 50.5119C67.6439 50.562 67.5882 50.6052 67.5301 50.6416C67.5882 50.6786 67.6439 50.7216 67.6971 50.7717C67.8988 50.9597 67.9998 51.1808 67.9998 51.4358V52.2477C67.9998 52.5027 67.8988 52.7239 67.6971 52.9118C67.4955 53.0998 67.2589 53.1942 66.9888 53.1942H64.5592Z" fill="#5EC7D1"/>
<path d="M25.7278 58.8442H27.4936V59.401H26.3203V60.6539H27.3426V61.2107H26.3203V62.9739H25.7278V58.8442Z" fill="#373535"/>
<path d="M28.435 61.9996C28.435 62.1427 28.4747 62.2481 28.5541 62.3156C28.6334 62.3833 28.7273 62.4171 28.8358 62.4171C28.9442 62.4171 29.0382 62.3833 29.1176 62.3156C29.1968 62.2481 29.2365 62.1427 29.2365 61.9996V59.8187C29.2365 59.6756 29.1968 59.5702 29.1176 59.5026C29.0382 59.435 28.9442 59.401 28.8358 59.401C28.7273 59.401 28.6334 59.435 28.5541 59.5026C28.4747 59.5702 28.435 59.6756 28.435 59.8187V61.9996ZM27.8425 59.8187C27.8425 59.6526 27.8716 59.5055 27.9297 59.3778C27.9878 59.2502 28.0641 59.1449 28.1592 59.0618C28.2539 58.9786 28.3605 58.9158 28.4786 58.8732C28.5966 58.8307 28.7157 58.8094 28.8358 58.8094C28.9558 58.8094 29.0748 58.8307 29.1931 58.8732C29.3111 58.9158 29.4176 58.9786 29.5125 59.0618C29.6074 59.1449 29.6839 59.2502 29.742 59.3778C29.8001 59.5055 29.8292 59.6526 29.8292 59.8187V61.9996C29.8292 62.1697 29.8001 62.3177 29.742 62.4432C29.6839 62.5689 29.6074 62.6734 29.5125 62.7564C29.4176 62.8397 29.3111 62.9025 29.1931 62.9449C29.0748 62.9875 28.9558 63.0087 28.8358 63.0087C28.7157 63.0087 28.5966 62.9875 28.4786 62.9449C28.3605 62.9025 28.2539 62.8397 28.1592 62.7564C28.0641 62.6734 27.9878 62.5689 27.9297 62.4432C27.8716 62.3177 27.8425 62.1697 27.8425 61.9996V59.8187Z" fill="#373535"/>
<path d="M30.9443 60.6887H31.2811C31.3857 60.6887 31.469 60.6742 31.531 60.645C31.593 60.6162 31.6402 60.5746 31.6733 60.5205C31.7061 60.4663 31.7285 60.3996 31.7401 60.3203C31.7516 60.2412 31.7576 60.1491 31.7576 60.0449C31.7576 59.9404 31.7516 59.8486 31.7401 59.7693C31.7285 59.6902 31.7042 59.6225 31.6675 59.5662C31.6306 59.5103 31.5794 59.4687 31.5135 59.4417C31.4477 59.4147 31.3605 59.401 31.2522 59.401H30.9443V60.6887ZM30.3518 58.8442H31.3044C32.0015 58.8442 32.3499 59.2483 32.3499 60.0565C32.3499 60.2961 32.3123 60.5022 32.2368 60.6742C32.1612 60.8463 32.0286 60.9844 31.8388 61.0889L32.4777 62.9739H31.8504L31.2986 61.2105H30.9443V62.9739H30.3518V58.8442Z" fill="#373535"/>
<path d="M32.8274 58.8442H33.3966L34.1576 61.0308H34.1691L34.9243 58.8442H35.4993V62.9739H34.9068V60.4624H34.8954L34.3085 62.2374H34.0124L33.4315 60.4624H33.4199V62.9739H32.8274V58.8442Z" fill="#373535"/>
<path d="M36.9636 60.0333H36.9522L36.6617 61.5296H37.2542L36.9636 60.0333ZM36.714 58.8442H37.2077L38.1312 62.9739H37.5387L37.3644 62.0864H36.5571L36.3828 62.9739H35.7903L36.714 58.8442Z" fill="#373535"/>
<path d="M38.4917 59.401H37.8064V58.8442H39.7697V59.401H39.0842V62.9739H38.4917V59.401Z" fill="#373535"/>
<path d="M41.5007 59.401H40.8154V58.8442H42.7786V59.401H42.0932V62.9739H41.5007V59.401Z" fill="#373535"/>
<path d="M44.2023 62.9739H43.6795L42.8372 58.8442H43.4647L43.935 61.7269H43.9466L44.4229 58.8442H45.0502L44.2023 62.9739Z" fill="#373535"/>
</g>
</svg>
