<svg width="56" height="56" viewBox="0 0 56 56" fill="none" xmlns="http://www.w3.org/2000/svg">
<path d="M7.17881 9.37911L16.425 2.89729L11.6075 14.4433L4.61694 13.7124L7.17881 9.37911Z" fill="#8E3733"/>
<path d="M0.0349121 26.4893L6.65039 24.2301L4.61677 13.7125L1.69764 19.2448L0.0349121 26.4893Z" fill="#612D2D"/>
<path d="M1.88828 40.1678L3.21866 35.0337L6.65039 24.2301L0.0349121 26.4893L1.88828 40.1678Z" fill="#5A2F2E"/>
<path d="M9.44678 43.5495L18.9794 40.4538L13.955 31.1601L9.44678 43.5495Z" fill="#883531"/>
<path d="M54.4539 20.1425L46.7507 20.6866L49.1675 10.237L54.4539 20.1425Z" fill="#D95E39"/>
<path d="M54.8217 35.415L55.9656 31.0935L54.8217 20.0357L46.7507 20.6866L43.4482 36.8281L54.8217 35.415Z" fill="#DC6039"/>
<path d="M49.7069 43.5495L43.4482 36.8282L54.8216 35.415L49.7069 43.5495Z" fill="#D3583A"/>
<path d="M46.7507 49.5233L49.7069 43.5495L54.8216 35.415L46.7507 49.5233Z" fill="#8D3F35"/>
<path d="M34.4856 49.2691C35.2832 51.0541 37.1547 55.2428 37.1547 55.2428L49.707 43.5495L34.4856 49.2691Z" fill="#9B3A35"/>
<path d="M29.2456 34.0639L43.4484 36.8282L34.4857 49.269L29.2456 34.0639Z" fill="#C64A3B"/>
<path d="M35.2986 8.37827L46.7511 20.6866L35.3463 23.2893L35.2986 8.37827Z" fill="#F06D37"/>
<path d="M35.2986 8.37826L21.1084 9.89943V19.0507L35.2986 8.37826Z" fill="#D75D39"/>
<path d="M35.3462 23.2892C36.756 22.9675 46.751 20.6865 46.751 20.6865L43.4485 36.8281L29.2456 34.0638L35.3462 23.2892Z" fill="#F26B36"/>
<path d="M21.1401 19.0189L35.2986 8.37822L35.3462 23.2893L29.2457 34.0638L21.1401 19.0189Z" fill="#E16139"/>
<path d="M35.2986 8.37823L46.7511 20.6866L49.1678 10.237L35.2986 8.37823Z" fill="#F4783B"/>
<path d="M38.9208 1.41976L35.2986 8.37817L49.1678 10.2369L38.9208 1.41976Z" fill="#D05A3A"/>
<path d="M28.0006 1.89644L38.9208 1.41984L35.2986 8.37826L21.1084 9.89948L28.0006 1.89644Z" fill="#C54F3A"/>
<path d="M25.0037 -4.59485e-05L38.9206 1.48331L16.4248 2.91315L25.0037 -4.59485e-05Z" fill="#A33E37"/>
<path d="M27.8024 2.12646L16.425 2.89725L21.1084 9.89941L27.8024 2.12646Z" fill="#BE4839"/>
<path d="M11.6074 14.4432L21.1082 9.8994L16.4248 2.89723L11.6074 14.4432Z" fill="#9C3B35"/>
<path d="M21.1082 9.89941L21.14 19.0189L11.5635 14.4591L21.1082 9.89941Z" fill="#B64738"/>
<path d="M21.1483 18.9713L13.9548 31.16L18.9792 40.4537L29.2455 34.0638L21.1483 18.9713Z" fill="#CC553A"/>
<path d="M29.2455 34.0639L18.9792 40.4538L22.1135 50.54L34.4856 49.269L29.2455 34.0639Z" fill="#B54838"/>
<path d="M6.65039 24.2301L11.6073 14.4433L21.1399 19.0189L13.9548 31.16L6.65039 24.2301Z" fill="#A74037"/>
<path d="M3.21899 35.0337L6.65072 24.2301L13.9551 31.1601L9.44694 43.5494L3.21899 35.0337Z" fill="#78312F"/>
<path d="M4.6167 13.7125L6.65032 24.2301L11.6072 14.4433L4.6167 13.7125Z" fill="#7E3230"/>
<path d="M43.4484 36.8281L49.707 43.5494L34.4856 49.269L43.4484 36.8281Z" fill="#BB4A39"/>
<path d="M24.3173 55.9999L37.1545 55.2427L34.4854 49.269L22.1133 50.54L24.3173 55.9999Z" fill="#722E2D"/>
<path d="M49.7068 43.5495L37.1545 55.2428L46.7506 49.5232L49.7068 43.5495Z" fill="#803030"/>
<path d="M9.44678 43.5494L18.9794 40.4538L22.1136 50.54L9.44678 43.5494Z" fill="#7E3030"/>
<path d="M9.44678 43.5494L12.243 51.6839L24.3176 56L22.1136 50.54L9.44678 43.5494Z" fill="#722F2D"/>
<path d="M1.88843 40.1678L3.2188 35.0337L9.44674 43.5495L12.243 51.6839L1.88843 40.1678Z" fill="#6F2E2D"/>
<path d="M55.9656 20.0357L49.1675 10.237L54.4538 20.1425L55.9656 20.0357Z" fill="#C54F3A"/>
<path d="M55.9659 20.0358V31.0936L54.822 20.0358H55.9659Z" fill="#BB4A39"/>
<path d="M15.8423 23.5192V27.9358C15.8423 29.9418 15.9232 31.3494 18.6573 31.3494C21.3914 31.3494 21.4723 29.9904 21.4723 27.9358V23.5192C21.4723 21.3999 21.3914 20.1056 18.6573 20.1056C15.9232 20.1056 15.8423 21.3513 15.8423 23.5192ZM15.0334 27.9843V23.4707C15.0334 20.6071 15.6482 19.3614 18.6573 19.3614C21.6664 19.3614 22.2812 20.6071 22.2812 23.4868V27.9682C22.2812 30.7831 21.6179 32.0936 18.6573 32.0936C15.6968 32.0936 15.0334 30.7831 15.0334 27.9843" fill="#7E3230"/>
<path d="M25.2415 20.2189V31.1876H27.4579C30.192 31.1876 30.2729 30.0067 30.2729 27.855V23.6972C30.2729 21.5293 30.192 20.2189 27.4579 20.2189H25.2415ZM24.4326 19.4909H27.4903C30.5318 19.4909 31.0818 20.7851 31.0818 23.7296V27.855C31.0818 30.7023 30.4185 31.9803 27.4579 31.9803H24.4326V19.4909Z" fill="#7E3230"/>
<path d="M33.9287 31.9803H33.0713V19.4909H33.9287V31.9803Z" fill="#7E3230"/>
<path d="M42.2121 31.9642H41.2738L36.9543 21.3675H36.9219L37.0351 25.2826V31.9642H36.1777V19.4909H37.0351L41.4679 30.2008H41.5003L41.3547 25.7518V19.4909H42.2121V31.9642Z" fill="#7E3230"/>
<path d="M15.2771 34.8511H15.5057L15.5305 35.0846C15.6845 34.876 15.928 34.7965 16.2459 34.7965C16.6732 34.7965 16.9216 34.9753 17.0259 35.2238C17.2644 34.8611 17.5426 34.7965 17.8606 34.7965C18.5711 34.7965 18.7499 35.1741 18.7499 35.8597V37.7377H18.5015V35.8547C18.5015 35.2386 18.3823 35.025 17.8358 35.025C17.2942 35.025 17.1352 35.3629 17.1352 35.7802V37.7377H16.8868V35.8547C16.8868 35.3132 16.7676 35.025 16.2211 35.025C15.6795 35.025 15.5255 35.2784 15.5255 35.6858V37.7377H15.2771V34.8511Z" fill="#7E3230"/>
<path d="M21.9694 36.0982V35.8995C21.9694 35.343 21.87 35.0052 21.2937 35.0052C20.7571 35.0052 20.613 35.2735 20.613 35.8845V36.0982H21.9694ZM22.1532 36.9478C22.1532 37.4744 21.8849 37.7526 21.2937 37.7526C20.6677 37.7526 20.3745 37.4645 20.3745 36.6745V35.8945C20.3745 35.0996 20.6677 34.7965 21.2937 34.7965C21.9644 34.7965 22.188 35.1294 22.188 35.8945V36.3267H20.613V36.6546C20.613 37.2459 20.7521 37.529 21.2937 37.529C21.8253 37.529 21.9296 37.2906 21.9296 36.9478H22.1532Z" fill="#7E3230"/>
<path d="M24.6121 37.5191C25.1189 37.5092 25.3027 37.2359 25.3027 36.764V35.805C25.3077 35.2536 25.1686 35.025 24.632 35.025C24.0955 35.025 23.9613 35.2884 23.9613 35.7753V36.6993C23.9613 37.3502 24.1749 37.5191 24.6121 37.5191ZM23.7129 36.7043V35.7653C23.7129 35.0797 24.0557 34.7965 24.632 34.7965C24.9351 34.7965 25.1438 34.871 25.3027 35.0549V33.7035H25.5512V37.7377H25.3326L25.3077 37.4197C25.1686 37.6234 24.945 37.7526 24.5873 37.7526C23.9762 37.7526 23.7129 37.4645 23.7129 36.7043" fill="#7E3230"/>
<path d="M27.5533 37.7377H27.3098V34.8064H27.5533V37.7377ZM27.6079 34.0711C27.6079 34.3046 27.2402 34.3096 27.2402 34.0711C27.2402 33.8376 27.6079 33.8326 27.6079 34.0711Z" fill="#7E3230"/>
<path d="M30.7628 36.441C29.8139 36.3466 29.3717 36.4907 29.3717 36.9974C29.3717 37.37 29.5854 37.5291 30.0226 37.5291C30.574 37.5291 30.7628 37.1117 30.7628 36.8136V36.441ZM30.7926 37.7377L30.7877 37.3502C30.5889 37.6732 30.3206 37.7626 29.9331 37.7626C29.4562 37.7626 29.1233 37.544 29.1233 36.9925C29.1233 36.2721 29.7443 36.123 30.7628 36.2025V35.7852C30.7678 35.2685 30.5889 35.0499 30.1318 35.0499C29.7195 35.0499 29.5009 35.1791 29.5009 35.7305H29.2624C29.2624 35.1194 29.5059 34.8263 30.1318 34.8263C30.7181 34.8263 31.0013 35.1045 31.0013 35.7802V37.7377H30.7926Z" fill="#7E3230"/>
<path d="M15.5245 23.2968V27.7134C15.5245 29.7194 15.6054 31.127 18.3395 31.127C21.0735 31.127 21.1544 29.768 21.1544 27.7134V23.2968C21.1544 21.1774 21.0735 19.8832 18.3395 19.8832C15.6054 19.8832 15.5245 21.1289 15.5245 23.2968ZM14.7156 27.7619V23.2482C14.7156 20.3847 15.3303 19.139 18.3395 19.139C21.3486 19.139 21.9633 20.3847 21.9633 23.2644V27.7457C21.9633 30.5607 21.3001 31.8712 18.3395 31.8712C15.3789 31.8712 14.7156 30.5607 14.7156 27.7619" fill="white"/>
<path d="M24.9239 19.9964V30.9652H27.1403C29.8744 30.9652 29.9553 29.7842 29.9553 27.6325V23.4747C29.9553 21.3069 29.8744 19.9964 27.1403 19.9964H24.9239ZM24.115 19.2684H27.1726C30.2141 19.2684 30.7642 20.5627 30.7642 23.5071V27.6325C30.7642 30.4798 30.1008 31.7579 27.1403 31.7579H24.115V19.2684Z" fill="white"/>
<path d="M33.6111 31.7579H32.7537V19.2684H33.6111V31.7579Z" fill="white"/>
<path d="M41.8943 31.7418H40.9559L36.6364 21.1451H36.604L36.7173 25.0602V31.7418H35.8599V19.2684H36.7173L41.1501 29.9783H41.1824L41.0368 25.5294V19.2684H41.8943V31.7418Z" fill="white"/>
<path d="M14.9592 34.6287H15.1878L15.2126 34.8622C15.3666 34.6536 15.6101 34.574 15.9281 34.574C16.3553 34.574 16.6038 34.7529 16.7081 35.0014C16.9465 34.6386 17.2247 34.574 17.5427 34.574C18.2532 34.574 18.4321 34.9517 18.4321 35.6373V37.5153H18.1836V35.6323C18.1836 35.0162 18.0644 34.8026 17.5179 34.8026C16.9764 34.8026 16.8174 35.1405 16.8174 35.5578V37.5153H16.5689V35.6323C16.5689 35.0908 16.4497 34.8026 15.9032 34.8026C15.3617 34.8026 15.2077 35.056 15.2077 35.4634V37.5153H14.9592V34.6287Z" fill="white"/>
<path d="M21.6517 35.8758V35.677C21.6517 35.1206 21.5524 34.7828 20.976 34.7828C20.4395 34.7828 20.2954 35.051 20.2954 35.6621V35.8758H21.6517ZM21.8356 36.7254C21.8356 37.252 21.5673 37.5302 20.976 37.5302C20.35 37.5302 20.0569 37.2421 20.0569 36.4521V35.6721C20.0569 34.8772 20.35 34.5741 20.976 34.5741C21.6468 34.5741 21.8703 34.907 21.8703 35.6721V36.1043H20.2954V36.4322C20.2954 37.0235 20.4345 37.3067 20.976 37.3067C21.5076 37.3067 21.612 37.0682 21.612 36.7254H21.8356Z" fill="white"/>
<path d="M24.2943 37.2966C24.801 37.2867 24.9849 37.0134 24.9849 36.5415V35.5826C24.9898 35.0311 24.8507 34.8026 24.3141 34.8026C23.7776 34.8026 23.6434 35.0659 23.6434 35.5528V36.4769C23.6434 37.1277 23.857 37.2966 24.2943 37.2966ZM23.395 36.4819V35.5428C23.395 34.8572 23.7378 34.574 24.3141 34.574C24.6172 34.574 24.8259 34.6485 24.9849 34.8324V33.481H25.2333V37.5152H25.0147L24.9898 37.1973C24.8507 37.401 24.6271 37.5302 24.2694 37.5302C23.6583 37.5302 23.395 37.242 23.395 36.4819" fill="white"/>
<path d="M27.2356 37.5153H26.9921V34.584H27.2356V37.5153ZM27.2903 33.8486C27.2903 34.0821 26.9226 34.0872 26.9226 33.8486C26.9226 33.6152 27.2903 33.6102 27.2903 33.8486Z" fill="white"/>
<path d="M30.4449 36.2185C29.496 36.1241 29.0538 36.2682 29.0538 36.775C29.0538 37.1476 29.2675 37.3066 29.7047 37.3066C30.2561 37.3066 30.4449 36.8892 30.4449 36.5912V36.2185ZM30.4748 37.5152L30.4698 37.1277C30.2711 37.4507 30.0028 37.5401 29.6152 37.5401C29.1383 37.5401 28.8054 37.3215 28.8054 36.77C28.8054 36.0496 29.4265 35.9005 30.4449 35.98V35.5627C30.4499 35.046 30.2711 34.8274 29.814 34.8274C29.4016 34.8274 29.183 34.9566 29.183 35.5081H28.9446C28.9446 34.897 29.188 34.6039 29.814 34.6039C30.4002 34.6039 30.6835 34.8821 30.6835 35.5577V37.5152H30.4748Z" fill="white"/>
</svg>
