<svg width="72" height="72" viewBox="0 0 72 72" fill="none" xmlns="http://www.w3.org/2000/svg">
<g style="mix-blend-mode:luminosity">
<rect width="72" height="72" fill="white"/>
<path d="M25.7386 59.5715V57.8689C25.7386 57.4453 25.5553 57.2336 25.1887 57.2336C25.0731 57.2336 24.9652 57.2696 24.8647 57.3415C24.7643 57.4119 24.6956 57.4922 24.6588 57.5826V59.5715H24.1817V57.6605C24.1817 57.5282 24.1315 57.4244 24.031 57.3491C23.9322 57.2721 23.8008 57.2336 23.6368 57.2336C23.5413 57.2336 23.4392 57.2704 23.3304 57.3441C23.2232 57.4177 23.1471 57.4989 23.1019 57.5876V59.5715H22.6248V56.882H22.9361L23.0943 57.1934C23.2785 56.9523 23.5087 56.8318 23.7849 56.8318C24.17 56.8318 24.4395 56.9515 24.5935 57.1909C24.6471 57.0888 24.7467 57.0034 24.8923 56.9347C25.038 56.8661 25.1878 56.8318 25.3418 56.8318C25.6197 56.8318 25.8349 56.9146 25.9872 57.0804C26.1395 57.2444 26.2157 57.4755 26.2157 57.7735V59.5715H25.7386Z" fill="#4C4C4C"/>
<path d="M26.7179 58.2205C26.7179 57.8053 26.8293 57.4705 27.0519 57.216C27.2763 56.9598 27.5709 56.8318 27.9359 56.8318C28.3209 56.8318 28.6197 56.9548 28.8323 57.2009C29.045 57.4453 29.1513 57.7852 29.1513 58.2205C29.1513 58.654 29.0424 58.9964 28.8248 59.2475C28.6072 59.497 28.3109 59.6217 27.9359 59.6217C27.5525 59.6217 27.2537 59.4953 27.0394 59.2425C26.8251 58.9897 26.7179 58.649 26.7179 58.2205ZM27.2202 58.2205C27.2202 58.8951 27.4587 59.2324 27.9359 59.2324C28.1585 59.2324 28.3326 59.142 28.4582 58.9612C28.5854 58.7804 28.649 58.5335 28.649 58.2205C28.649 57.5542 28.4113 57.221 27.9359 57.221C27.7182 57.221 27.5441 57.3097 27.4135 57.4872C27.2846 57.6646 27.2202 57.9091 27.2202 58.2205Z" fill="#4C4C4C"/>
<path d="M31.3611 59.5689V59.3706C31.1953 59.5363 30.9543 59.6192 30.6379 59.6192C30.3014 59.6192 30.0285 59.4986 29.8192 59.2576C29.61 59.0165 29.5053 58.6951 29.5053 58.2933C29.5053 57.8898 29.6259 57.5458 29.8669 57.2612C30.108 56.9749 30.3951 56.8318 30.7283 56.8318C31.0062 56.8318 31.2171 56.8971 31.3611 57.0276V55.7796H31.8382V59.5689H31.3611ZM31.3611 57.5048C31.2405 57.324 31.0756 57.2336 30.8664 57.2336C30.6102 57.2336 30.4027 57.329 30.2436 57.5198C30.0863 57.7107 30.0076 57.9534 30.0076 58.2481C30.0076 58.896 30.3022 59.2199 30.8915 59.2199C30.9668 59.2199 31.0572 59.1965 31.1627 59.1496C31.2682 59.101 31.3343 59.05 31.3611 58.9964V57.5048Z" fill="#4C4C4C"/>
<path d="M34.7888 58.2732H32.8502C32.8502 58.5879 32.9364 58.8298 33.1089 58.9989C33.2612 59.1462 33.4571 59.2199 33.6965 59.2199C33.9693 59.2199 34.197 59.1404 34.3795 58.9813L34.5804 59.3254C34.5067 59.399 34.3937 59.4626 34.2414 59.5162C34.0505 59.5865 33.8379 59.6217 33.6036 59.6217C33.2654 59.6217 32.9783 59.507 32.7422 59.2776C32.4794 59.0249 32.348 58.685 32.348 58.2581C32.348 57.8145 32.4827 57.4587 32.7523 57.1909C32.9933 56.9515 33.2788 56.8318 33.6086 56.8318C33.9919 56.8318 34.2924 56.9398 34.5101 57.1557C34.721 57.3633 34.8265 57.6387 34.8265 57.9819C34.8265 58.0874 34.8139 58.1845 34.7888 58.2732ZM33.6312 57.2336C33.4186 57.2336 33.2403 57.3022 33.0963 57.4395C32.959 57.5701 32.8812 57.7324 32.8628 57.9266H34.3519C34.3519 57.7341 34.2916 57.5734 34.1711 57.4445C34.0388 57.3039 33.8589 57.2336 33.6312 57.2336Z" fill="#4C4C4C"/>
<path d="M35.3689 58.8106V55.7796H35.846V58.7302C35.846 58.8742 35.887 58.988 35.9691 59.0717C36.0528 59.1538 36.1616 59.1948 36.2955 59.1948V59.6217C35.6778 59.6217 35.3689 59.3513 35.3689 58.8106Z" fill="#4C4C4C"/>
<path d="M36.6722 59.4107L36.8404 58.9587C37.1066 59.1328 37.3209 59.2199 37.4833 59.2199C37.7779 59.2199 37.9253 59.096 37.9253 58.8482C37.9253 58.6708 37.783 58.5184 37.4984 58.3912C37.2791 58.2908 37.1309 58.2146 37.0539 58.1627C36.9786 58.1108 36.9124 58.0522 36.8555 57.9869C36.8003 57.9199 36.7584 57.8496 36.7299 57.776C36.7032 57.7006 36.6898 57.6203 36.6898 57.5349C36.6898 57.3139 36.7701 57.1415 36.9308 57.0176C37.0916 56.8937 37.3017 56.8318 37.5611 56.8318C37.757 56.8318 38.0039 56.8937 38.3019 57.0176L38.1663 57.4596C37.9772 57.3089 37.7871 57.2336 37.5963 57.2336C37.4825 57.2336 37.3862 57.2603 37.3075 57.3139C37.2305 57.3675 37.192 57.4353 37.192 57.5173C37.192 57.6898 37.2899 57.8203 37.4858 57.9091L37.8273 58.0648C38.0366 58.1602 38.1889 58.269 38.2844 58.3912C38.3798 58.5134 38.4275 58.6666 38.4275 58.8508C38.4275 59.0918 38.3429 59.281 38.1739 59.4183C38.0048 59.5539 37.7704 59.6217 37.4707 59.6217C37.1878 59.6217 36.9216 59.5514 36.6722 59.4107Z" fill="#4C4C4C"/>
<path d="M25.7386 65.5715V63.8689C25.7386 63.4453 25.5553 63.2336 25.1887 63.2336C25.0731 63.2336 24.9652 63.2696 24.8647 63.3415C24.7643 63.4119 24.6956 63.4922 24.6588 63.5826V65.5715H24.1817V63.6605C24.1817 63.5282 24.1315 63.4244 24.031 63.3491C23.9322 63.2721 23.8008 63.2336 23.6368 63.2336C23.5413 63.2336 23.4392 63.2704 23.3304 63.3441C23.2232 63.4177 23.1471 63.4989 23.1019 63.5876V65.5715H22.6248V62.882H22.9361L23.0943 63.1934C23.2785 62.9523 23.5087 62.8318 23.7849 62.8318C24.17 62.8318 24.4395 62.9515 24.5935 63.1909C24.6471 63.0888 24.7467 63.0034 24.8923 62.9347C25.038 62.8661 25.1878 62.8318 25.3418 62.8318C25.6197 62.8318 25.8349 62.9146 25.9872 63.0804C26.1395 63.2444 26.2157 63.4755 26.2157 63.7735V65.5715H25.7386Z" fill="#4C4C4C"/>
<path d="M28.413 65.2626C28.2221 65.502 27.93 65.6217 27.5366 65.6217C27.3256 65.6217 27.1423 65.5455 26.9866 65.3932C26.8326 65.2391 26.7556 65.0483 26.7556 64.8206C26.7556 64.5477 26.8745 64.3175 27.1122 64.13C27.3516 63.9409 27.6563 63.8463 28.0263 63.8463C28.1267 63.8463 28.2405 63.8681 28.3678 63.9116C28.3678 63.4763 28.1736 63.2587 27.7852 63.2587C27.4872 63.2587 27.2578 63.339 27.0971 63.4997L26.8962 63.1005C26.9866 63.0268 27.1114 62.964 27.2704 62.9121C27.4311 62.8586 27.5843 62.8318 27.7299 62.8318C28.12 62.8318 28.4029 62.9205 28.5787 63.098C28.7562 63.2754 28.8449 63.5575 28.8449 63.9442V64.9085C28.8449 65.1446 28.9152 65.3019 29.0558 65.3806V65.6192C28.8616 65.6192 28.716 65.5915 28.6189 65.5363C28.5235 65.4811 28.4548 65.3898 28.413 65.2626ZM28.3678 64.2506C28.2171 64.2171 28.1116 64.2004 28.0514 64.2004C27.8103 64.2004 27.6136 64.2623 27.4613 64.3862C27.3089 64.5101 27.2327 64.6566 27.2327 64.8256C27.2327 65.1052 27.3976 65.245 27.7274 65.245C27.9685 65.245 28.182 65.1303 28.3678 64.901V64.2506Z" fill="#4C4C4C"/>
<path d="M31.2506 65.5715V64.007C31.2506 63.7207 31.2071 63.5207 31.12 63.4068C31.0346 63.2913 30.8907 63.2336 30.6881 63.2336C30.5793 63.2336 30.4654 63.2662 30.3466 63.3315C30.2277 63.3968 30.1365 63.4771 30.0729 63.5726V65.5715H29.5957V62.882H29.9222L30.0729 63.2285C30.2302 62.964 30.4872 62.8318 30.8438 62.8318C31.4331 62.8318 31.7277 63.19 31.7277 63.9066V65.5715H31.2506Z" fill="#4C4C4C"/>
<path d="M33.9275 65.2626C33.7366 65.502 33.4445 65.6217 33.0511 65.6217C32.8402 65.6217 32.6568 65.5455 32.5012 65.3932C32.3471 65.2391 32.2701 65.0483 32.2701 64.8206C32.2701 64.5477 32.389 64.3175 32.6267 64.13C32.8661 63.9409 33.1708 63.8463 33.5408 63.8463C33.6412 63.8463 33.7551 63.8681 33.8823 63.9116C33.8823 63.4763 33.6881 63.2587 33.2997 63.2587C33.0017 63.2587 32.7724 63.339 32.6116 63.4997L32.4107 63.1005C32.5012 63.0268 32.6259 62.964 32.7849 62.9121C32.9456 62.8586 33.0988 62.8318 33.2445 62.8318C33.6345 62.8318 33.9174 62.9205 34.0932 63.098C34.2707 63.2754 34.3594 63.5575 34.3594 63.9442V64.9085C34.3594 65.1446 34.4297 65.3019 34.5703 65.3806V65.6192C34.3762 65.6192 34.2305 65.5915 34.1334 65.5363C34.038 65.4811 33.9693 65.3898 33.9275 65.2626ZM33.8823 64.2506C33.7316 64.2171 33.6262 64.2004 33.5659 64.2004C33.3248 64.2004 33.1281 64.2623 32.9758 64.3862C32.8234 64.5101 32.7472 64.6566 32.7472 64.8256C32.7472 65.1052 32.9121 65.245 33.2419 65.245C33.483 65.245 33.6965 65.1303 33.8823 64.901V64.2506Z" fill="#4C4C4C"/>
<path d="M35.0123 66.3072L35.271 65.9255C35.5489 66.1114 35.805 66.2043 36.0394 66.2043C36.2553 66.2043 36.4253 66.1666 36.5491 66.0913C36.6747 66.0176 36.7375 65.9255 36.7375 65.815C36.7375 65.5974 36.5801 65.4886 36.2654 65.4886C36.2118 65.4886 36.1147 65.502 35.9741 65.5288C35.8335 65.5556 35.7238 65.5689 35.6451 65.5689C35.2634 65.5689 35.0726 65.425 35.0726 65.137C35.0726 65.0483 35.1169 64.9679 35.2057 64.896C35.2961 64.824 35.4074 64.7721 35.5397 64.7403C35.1613 64.5628 34.9721 64.2548 34.9721 63.8162C34.9721 63.5349 35.0701 63.3005 35.2659 63.113C35.4618 62.9255 35.7037 62.8318 35.9917 62.8318C36.2562 62.8318 36.4629 62.8862 36.6119 62.995L36.8505 62.7087L37.1619 63.0025L36.8756 63.2185C36.9978 63.3775 37.0589 63.5851 37.0589 63.8413C37.0589 64.1125 36.9744 64.3401 36.8053 64.5243C36.6362 64.7085 36.4144 64.8139 36.1398 64.8407L35.7456 64.8809C35.6987 64.8859 35.6359 64.9043 35.5572 64.9361C35.4786 64.9663 35.4392 65.0064 35.4392 65.0567C35.4392 65.1253 35.5212 65.1596 35.6853 65.1596C35.7573 65.1596 35.8695 65.1471 36.0218 65.122C36.1741 65.0952 36.2871 65.0818 36.3608 65.0818C36.6253 65.0818 36.8312 65.1454 36.9786 65.2726C37.1275 65.3982 37.202 65.5731 37.202 65.7975C37.202 66.0452 37.0907 66.2453 36.8681 66.3976C36.6471 66.55 36.3667 66.6261 36.0268 66.6261C35.8527 66.6261 35.6694 66.5952 35.4769 66.5332C35.2844 66.4713 35.1295 66.396 35.0123 66.3072ZM36.0243 63.216C35.8586 63.216 35.723 63.2746 35.6175 63.3918C35.5137 63.509 35.4618 63.6513 35.4618 63.8187C35.4618 64.0062 35.512 64.1619 35.6125 64.2857C35.7146 64.408 35.8519 64.4691 36.0243 64.4691C36.1934 64.4691 36.3256 64.4096 36.4211 64.2908C36.5165 64.1702 36.5642 64.0129 36.5642 63.8187C36.5642 63.6513 36.5123 63.509 36.4085 63.3918C36.3064 63.2746 36.1783 63.216 36.0243 63.216Z" fill="#4C4C4C"/>
<path d="M39.9568 64.2732H38.0182C38.0182 64.5879 38.1044 64.8298 38.2768 64.9989C38.4292 65.1462 38.625 65.2199 38.8644 65.2199C39.1373 65.2199 39.365 65.1404 39.5475 64.9813L39.7484 65.3254C39.6747 65.399 39.5617 65.4626 39.4094 65.5162C39.2185 65.5865 39.0059 65.6217 38.7715 65.6217C38.4333 65.6217 38.1462 65.507 37.9102 65.2776C37.6474 65.0249 37.5159 64.685 37.5159 64.2581C37.5159 63.8145 37.6507 63.4587 37.9202 63.1909C38.1613 62.9515 38.4467 62.8318 38.7765 62.8318C39.1599 62.8318 39.4604 62.9398 39.678 63.1557C39.889 63.3633 39.9945 63.6387 39.9945 63.9819C39.9945 64.0874 39.9819 64.1845 39.9568 64.2732ZM38.7991 63.2336C38.5865 63.2336 38.4082 63.3022 38.2643 63.4395C38.127 63.5701 38.0491 63.7324 38.0307 63.9266H39.5198C39.5198 63.7341 39.4596 63.5734 39.339 63.4445C39.2068 63.3039 39.0268 63.2336 38.7991 63.2336Z" fill="#4C4C4C"/>
<path d="M43.613 65.5715V63.8689C43.613 63.4453 43.4297 63.2336 43.0631 63.2336C42.9476 63.2336 42.8396 63.2696 42.7392 63.3415C42.6387 63.4119 42.5701 63.4922 42.5332 63.5826V65.5715H42.0561V63.6605C42.0561 63.5282 42.0059 63.4244 41.9054 63.3491C41.8067 63.2721 41.6753 63.2336 41.5112 63.2336C41.4158 63.2336 41.3137 63.2704 41.2048 63.3441C41.0977 63.4177 41.0215 63.4989 40.9763 63.5876V65.5715H40.4992V62.882H40.8106L40.9688 63.1934C41.1529 62.9523 41.3831 62.8318 41.6594 62.8318C42.0444 62.8318 42.3139 62.9515 42.4679 63.1909C42.5215 63.0888 42.6211 63.0034 42.7668 62.9347C42.9124 62.8661 43.0623 62.8318 43.2163 62.8318C43.4942 62.8318 43.7093 62.9146 43.8616 63.0804C44.014 63.2444 44.0902 63.4755 44.0902 63.7735V65.5715H43.613Z" fill="#4C4C4C"/>
<path d="M47.0332 64.2732H45.0946C45.0946 64.5879 45.1808 64.8298 45.3533 64.9989C45.5056 65.1462 45.7015 65.2199 45.9409 65.2199C46.2138 65.2199 46.4414 65.1404 46.6239 64.9813L46.8248 65.3254C46.7512 65.399 46.6381 65.4626 46.4858 65.5162C46.295 65.5865 46.0823 65.6217 45.848 65.6217C45.5098 65.6217 45.2227 65.507 44.9866 65.2776C44.7238 65.0249 44.5924 64.685 44.5924 64.2581C44.5924 63.8145 44.7272 63.4587 44.9967 63.1909C45.2378 62.9515 45.5232 62.8318 45.853 62.8318C46.2364 62.8318 46.5369 62.9398 46.7545 63.1557C46.9654 63.3633 47.0709 63.6387 47.0709 63.9819C47.0709 64.0874 47.0583 64.1845 47.0332 64.2732ZM45.8756 63.2336C45.663 63.2336 45.4847 63.3022 45.3407 63.4395C45.2034 63.5701 45.1256 63.7324 45.1072 63.9266H46.5963C46.5963 63.7341 46.536 63.5734 46.4155 63.4445C46.2832 63.3039 46.1033 63.2336 45.8756 63.2336Z" fill="#4C4C4C"/>
<path d="M49.2305 65.5715V64.007C49.2305 63.7207 49.187 63.5207 49.0999 63.4068C49.0145 63.2913 48.8706 63.2336 48.668 63.2336C48.5592 63.2336 48.4453 63.2662 48.3265 63.3315C48.2076 63.3968 48.1164 63.4771 48.0528 63.5726V65.5715H47.5756V62.882H47.9021L48.0528 63.2285C48.2101 62.964 48.4671 62.8318 48.8237 62.8318C49.413 62.8318 49.7076 63.19 49.7076 63.9066V65.5715H49.2305Z" fill="#4C4C4C"/>
<path d="M50.5589 63.2587H50.2475V62.882H50.5589V62.3195L51.036 62.1362V62.882H51.7743V63.2587H51.036V64.5946C51.036 64.8206 51.0737 64.9813 51.149 65.0768C51.226 65.1722 51.3491 65.2199 51.5182 65.2199C51.6404 65.2199 51.7668 65.1889 51.8974 65.127L51.9677 65.5463C51.7701 65.5966 51.5533 65.6217 51.3173 65.6217C51.1047 65.6217 50.9247 65.543 50.7774 65.3856C50.6317 65.2266 50.5589 65.0265 50.5589 64.7855V63.2587Z" fill="#4C4C4C"/>
<path d="M21.0234 46.8826C21.0234 45.973 21.3569 45.1917 22.0237 44.5388C22.6878 43.8859 23.4858 43.5594 24.4177 43.5594C25.3384 43.5594 26.1281 43.8887 26.7866 44.5472C27.4478 45.2057 27.7785 45.9967 27.7785 46.9202C27.7785 47.8493 27.4464 48.6376 26.7824 49.2849C26.1155 49.935 25.3105 50.2601 24.3675 50.2601C23.5332 50.2601 22.784 49.9713 22.12 49.3937C21.389 48.7548 21.0234 47.9177 21.0234 46.8826ZM22.007 46.8951C22.007 47.6094 22.2469 48.1967 22.7268 48.6571C23.204 49.1175 23.755 49.3477 24.38 49.3477C25.058 49.3477 25.63 49.1133 26.096 48.6445C26.5619 48.1702 26.7949 47.5927 26.7949 46.9118C26.7949 46.2227 26.5647 45.6451 26.1044 45.1791C25.6468 44.7104 25.0804 44.476 24.4051 44.476C23.7327 44.476 23.1649 44.7104 22.7017 45.1791C22.2386 45.6423 22.007 46.2143 22.007 46.8951Z" fill="#FF6600"/>
<path d="M28.8248 46.0664H29.7665V46.4305C29.9395 46.2492 30.0929 46.125 30.2268 46.0581C30.3636 45.9883 30.5254 45.9534 30.7123 45.9534C30.9607 45.9534 31.2201 46.0343 31.4908 46.1962L31.0597 47.0583C30.8811 46.93 30.7068 46.8658 30.5366 46.8658C30.0232 46.8658 29.7665 47.2536 29.7665 48.0293V50.1429H28.8248V46.0664Z" fill="#FF6600"/>
<path d="M34.9771 46.0664H35.923V50.1429H34.9771V49.716C34.5893 50.0787 34.1722 50.2601 33.7257 50.2601C33.1621 50.2601 32.6961 50.0564 32.3278 49.649C31.9623 49.2333 31.7796 48.7143 31.7796 48.0921C31.7796 47.481 31.9623 46.9718 32.3278 46.5645C32.6934 46.1571 33.1509 45.9534 33.7006 45.9534C34.1749 45.9534 34.6004 46.1487 34.9771 46.5394V46.0664ZM32.7422 48.0921C32.7422 48.4827 32.8468 48.8008 33.0561 49.0463C33.2709 49.2947 33.5416 49.4188 33.868 49.4188C34.2168 49.4188 34.4986 49.2988 34.7134 49.0589C34.9283 48.8106 35.0357 48.4953 35.0357 48.113C35.0357 47.7308 34.9283 47.4155 34.7134 47.1671C34.4986 46.9244 34.2196 46.803 33.8764 46.803C33.5527 46.803 33.2821 46.9258 33.0645 47.1713C32.8496 47.4197 32.7422 47.7266 32.7422 48.0921Z" fill="#FF6600"/>
<path d="M37.1116 46.0664H38.0575V46.4431C38.3867 46.1166 38.7578 45.9534 39.1708 45.9534C39.6451 45.9534 40.0148 46.1027 40.2799 46.4012C40.5086 46.6552 40.623 47.0695 40.623 47.6443V50.1429H39.6772V47.8661C39.6772 47.4643 39.6214 47.1867 39.5098 47.0332C39.4009 46.877 39.2028 46.7988 38.9155 46.7988C38.603 46.7988 38.3811 46.9021 38.25 47.1086C38.1217 47.3122 38.0575 47.668 38.0575 48.1758V50.1429H37.1116V46.0664Z" fill="#FF6600"/>
<path d="M45.7584 50.0466C45.7584 50.2391 45.7514 50.4079 45.7374 50.553C45.7263 50.7009 45.7095 50.8307 45.6872 50.9423C45.6203 51.2492 45.4891 51.5129 45.2938 51.7333C44.9255 52.1574 44.4191 52.3694 43.7746 52.3694C43.2305 52.3694 42.7826 52.223 42.4311 51.93C42.0684 51.6286 41.8591 51.2115 41.8033 50.6786H42.7492C42.7854 50.8795 42.8454 51.0343 42.9291 51.1432C43.1244 51.3971 43.409 51.524 43.7829 51.524C44.4721 51.524 44.8167 51.1013 44.8167 50.2559V49.6867C44.4428 50.0689 44.0117 50.2601 43.5234 50.2601C42.9682 50.2601 42.5134 50.0592 42.159 49.6574C41.8019 49.25 41.6233 48.7408 41.6233 48.1298C41.6233 47.5355 41.7893 47.0304 42.1214 46.6147C42.4785 46.1738 42.9501 45.9534 43.536 45.9534C44.0494 45.9534 44.4763 46.1445 44.8167 46.5268V46.0664H45.7584V50.0466ZM44.8544 48.113C44.8544 47.7168 44.7483 47.4001 44.5363 47.163C44.3214 46.9202 44.0466 46.7988 43.7118 46.7988C43.3546 46.7988 43.0728 46.9314 42.8664 47.1964C42.6794 47.4336 42.5859 47.7405 42.5859 48.1172C42.5859 48.4883 42.6794 48.7924 42.8664 49.0296C43.07 49.2891 43.3518 49.4188 43.7118 49.4188C44.0717 49.4188 44.3563 49.2877 44.5656 49.0254C44.7581 48.7882 44.8544 48.4841 44.8544 48.113Z" fill="#FF6600"/>
<path d="M50.6593 48.3265H47.738C47.7631 48.6613 47.8719 48.9278 48.0645 49.1259C48.257 49.3212 48.5039 49.4188 48.8052 49.4188C49.0396 49.4188 49.2335 49.363 49.387 49.2514C49.5377 49.1398 49.7093 48.9333 49.9018 48.632L50.697 49.0756C50.5742 49.2849 50.4445 49.4649 50.3078 49.6155C50.171 49.7634 50.0246 49.8862 49.8683 49.9838C49.7121 50.0787 49.5432 50.1485 49.3619 50.1931C49.1805 50.2377 48.9838 50.2601 48.7718 50.2601C48.1635 50.2601 47.6752 50.0647 47.3069 49.6741C46.9386 49.2807 46.7545 48.7589 46.7545 48.1088C46.7545 47.4643 46.933 46.9425 47.2902 46.5435C47.6501 46.1501 48.1272 45.9534 48.7215 45.9534C49.3214 45.9534 49.7958 46.1445 50.1445 46.5268C50.4905 46.9063 50.6635 47.4322 50.6635 48.1046L50.6593 48.3265ZM49.6925 47.5564C49.5614 47.0541 49.2447 46.803 48.7425 46.803C48.6281 46.803 48.5206 46.8212 48.4202 46.8574C48.3198 46.8909 48.2277 46.9411 48.144 47.0081C48.0631 47.0723 47.9933 47.1504 47.9347 47.2425C47.8761 47.3346 47.8315 47.4392 47.8008 47.5564H49.6925Z" fill="#FF6600"/>
<mask id="mask0" mask-type="alpha" maskUnits="userSpaceOnUse" x="17" y="6" width="31" height="32">
<path d="M48 22.2857C48 18.0262 46.4995 14.3838 43.4985 11.3586C40.4732 8.35762 36.8309 6.85712 32.5714 6.85712C28.3119 6.85712 24.6695 8.35762 21.6443 11.3586C18.6433 14.3838 17.1428 18.0262 17.1428 22.2857C17.1428 26.5452 18.6433 30.1875 21.6443 33.2127C24.6695 36.2138 28.3119 37.7143 32.5714 37.7143C36.8309 37.7143 40.4732 36.2138 43.4985 33.2127C46.4995 30.1875 48 26.5452 48 22.2857ZM32.5714 30.0181C30.4416 30.0181 28.6265 29.2558 27.126 27.7311C25.6255 26.2306 24.8753 24.4154 24.8753 22.2857C24.8753 20.1559 25.6255 18.3408 27.126 16.8403C28.6265 15.3156 30.4416 14.5533 32.5714 14.5533C34.7011 14.5533 36.5284 15.3156 38.0531 16.8403C39.5536 18.3408 40.3038 20.1559 40.3038 22.2857C40.3038 24.4154 39.5536 26.2306 38.0531 27.7311C36.5284 29.2558 34.7011 30.0181 32.5714 30.0181Z" fill="white"/>
</mask>
<g mask="url(#mask0)">
<path d="M48 22.2857C48 18.0262 46.4995 14.3838 43.4985 11.3586C40.4732 8.35762 36.8309 6.85712 32.5714 6.85712C28.3119 6.85712 24.6695 8.35762 21.6443 11.3586C18.6433 14.3838 17.1428 18.0262 17.1428 22.2857C17.1428 26.5452 18.6433 30.1875 21.6443 33.2127C24.6695 36.2138 28.3119 37.7143 32.5714 37.7143C36.8309 37.7143 40.4732 36.2138 43.4985 33.2127C46.4995 30.1875 48 26.5452 48 22.2857ZM32.5714 30.0181C30.4416 30.0181 28.6265 29.2558 27.126 27.7311C25.6255 26.2306 24.8753 24.4154 24.8753 22.2857C24.8753 20.1559 25.6255 18.3408 27.126 16.8403C28.6265 15.3156 30.4416 14.5533 32.5714 14.5533C34.7011 14.5533 36.5284 15.3156 38.0531 16.8403C39.5536 18.3408 40.3038 20.1559 40.3038 22.2857C40.3038 24.4154 39.5536 26.2306 38.0531 27.7311C36.5284 29.2558 34.7011 30.0181 32.5714 30.0181Z" fill="#FFDFB3"/>
<path d="M58.5641 13.9724C58.5641 9.71294 57.0515 6.07059 54.0263 3.04538C51.0011 0.0201734 47.3587 -1.49243 43.0992 -1.49243C38.8397 -1.49243 35.2095 0.0201734 32.2085 3.04538C29.1833 6.07059 27.6707 9.71294 27.6707 13.9724C27.6707 18.2319 29.1833 21.8622 32.2085 24.8632C35.2337 27.8884 38.8639 29.401 43.0992 29.401C47.3587 29.401 51.0011 27.8884 54.0263 24.8632C57.0515 21.8622 58.5641 18.2319 58.5641 13.9724Z" fill="#FFD45D" fill-opacity="0.6"/>
<path d="M35.7663 15.2793C32.7653 12.2783 29.135 10.7778 24.8755 10.7778C20.616 10.7778 16.9737 12.2783 13.9485 15.2793C10.9232 18.3046 9.41064 21.9469 9.41064 26.2064C9.41064 30.4659 10.9232 34.1083 13.9485 37.1335C16.9737 40.1345 20.616 41.635 24.8755 41.635C29.135 41.635 32.7653 40.1345 35.7663 37.1335C38.7915 34.1083 40.3041 30.4659 40.3041 26.2064C40.3041 21.9469 38.7915 18.3046 35.7663 15.2793Z" fill="#FFD45D" fill-opacity="0.6"/>
<path d="M46.9112 16.5136C43.886 13.5126 40.2437 12.0121 35.9842 12.0121C31.7247 12.0121 28.0823 13.5126 25.0571 16.5136C22.0319 19.5388 20.5193 23.1812 20.5193 27.4407C20.5193 31.7002 22.0319 35.3425 25.0571 38.3677C28.0823 41.3687 31.7247 42.8692 35.9842 42.8692C40.2437 42.8692 43.886 41.3687 46.9112 38.3677C49.9122 35.3425 51.4127 31.7002 51.4127 27.4407C51.4127 23.1812 49.9122 19.5388 46.9112 16.5136Z" fill="#FFD45D" fill-opacity="0.6"/>
<path d="M38.8155 40.6911C38.8155 37.8353 37.8111 35.4151 35.8024 33.4306C33.7936 31.4219 31.3613 30.4175 28.5055 30.4175C25.674 30.4175 23.2538 31.4219 21.245 33.4306C19.2363 35.4151 18.2319 37.8353 18.2319 40.6911C18.2319 43.5469 19.2363 45.9671 21.245 47.9516C23.2538 49.9603 25.674 50.9647 28.5055 50.9647C31.3613 50.9647 33.7936 49.9603 35.8024 47.9516C37.8111 45.9671 38.8155 43.5469 38.8155 40.6911Z" fill="#FBB433" fill-opacity="0.6"/>
<path d="M48 12.7381C48 9.88234 46.9957 7.45007 44.9869 5.44133C43.0024 3.43259 40.5822 2.42822 37.7264 2.42822C34.8706 2.42822 32.4384 3.43259 30.4296 5.44133C28.4209 7.45007 27.4165 9.88234 27.4165 12.7381C27.4165 15.5697 28.4209 17.9899 30.4296 19.9986C32.4384 22.0074 34.8706 23.0118 37.7264 23.0118C40.5822 23.0118 43.0024 22.0074 44.9869 19.9986C46.9957 17.9899 48 15.5697 48 12.7381Z" fill="#FBBA5D" fill-opacity="0.6"/>
<path d="M35.9839 24.246C35.9839 21.3902 34.9796 18.9701 32.9708 16.9855C30.9621 14.9768 28.5298 13.9724 25.674 13.9724C22.8424 13.9724 20.4222 14.9768 18.4135 16.9855C16.4048 18.9701 15.4004 21.3902 15.4004 24.246C15.4004 27.1018 16.4048 29.522 18.4135 31.5065C20.4222 33.5153 22.8424 34.5196 25.674 34.5196C28.5298 34.5196 30.9621 33.5153 32.9708 31.5065C34.9796 29.522 35.9839 27.1018 35.9839 24.246Z" fill="#F69531" fill-opacity="0.6"/>
<path d="M30.8289 34.6285C30.8289 31.7969 29.8245 29.3768 27.8158 27.368C25.807 25.3593 23.3748 24.3549 20.519 24.3549C17.6874 24.3549 15.2672 25.3593 13.2585 27.368C11.2497 29.3768 10.2454 31.7969 10.2454 34.6285C10.2454 37.4843 11.2497 39.9166 13.2585 41.9253C15.2672 43.9341 17.6874 44.9384 20.519 44.9384C23.3748 44.9384 25.807 43.9341 27.8158 41.9253C29.8245 39.9166 30.8289 37.4843 30.8289 34.6285Z" fill="#F38130" fill-opacity="0.6"/>
<path d="M40.0499 30.9257C40.0499 29.9335 39.699 29.0864 38.9971 28.3846C38.2953 27.6827 37.4482 27.3318 36.4559 27.3318C35.4637 27.3318 34.6045 27.6827 33.8785 28.3846C33.1766 29.0864 32.8257 29.9335 32.8257 30.9257C32.8257 31.918 33.1766 32.7651 33.8785 33.4669C34.6045 34.1688 35.4637 34.5197 36.4559 34.5197C37.4482 34.5197 38.2953 34.1688 38.9971 33.4669C39.699 32.7651 40.0499 31.918 40.0499 30.9257Z" fill="#FBB533" fill-opacity="0.6"/>
<path d="M45.2048 30.6716C45.35 29.6794 45.1322 28.7839 44.5513 27.9852C43.9463 27.1866 43.1597 26.7147 42.1916 26.5694C41.1994 26.4242 40.3039 26.642 39.5053 27.2229C38.7066 27.8037 38.2347 28.5903 38.0895 29.5826C37.9443 30.5748 38.1621 31.4703 38.7429 32.2689C39.3237 33.0676 40.1103 33.5395 41.1026 33.6847C42.0948 33.8299 42.9903 33.6121 43.789 33.0313C44.5876 32.4505 45.0595 31.6639 45.2048 30.6716Z" fill="#F38130" fill-opacity="0.6"/>
<path d="M47.4919 34.5197C47.4919 33.5274 47.1409 32.6803 46.4391 31.9785C45.7372 31.2766 44.8902 30.9257 43.8979 30.9257C42.9056 30.9257 42.0586 31.2766 41.3567 31.9785C40.6549 32.6803 40.304 33.5274 40.304 34.5197C40.304 35.5119 40.6549 36.3711 41.3567 37.0971C42.0586 37.799 42.9056 38.1499 43.8979 38.1499C44.8902 38.1499 45.7372 37.799 46.4391 37.0971C47.1409 36.3711 47.4919 35.5119 47.4919 34.5197Z" fill="#F79E35" fill-opacity="0.6"/>
<path d="M53.482 12.0121C53.482 9.88235 52.7318 8.05513 51.2313 6.53042C49.7308 5.02992 47.9036 4.27966 45.7496 4.27966C43.6199 4.27966 41.8047 5.02992 40.3042 6.53042C38.8037 8.05513 38.0535 9.88235 38.0535 12.0121C38.0535 14.1418 38.8037 15.957 40.3042 17.4575C41.8047 18.958 43.6199 19.7082 45.7496 19.7082C47.8793 19.7082 49.7066 18.958 51.2313 17.4575C52.7318 15.957 53.482 14.1418 53.482 12.0121Z" fill="#F9A934" fill-opacity="0.6"/>
<path d="M20.519 18.2925C20.519 16.8646 20.0228 15.6545 19.0306 14.6622C18.0141 13.6457 16.804 13.1375 15.4003 13.1375C13.9724 13.1375 12.7502 13.6457 11.7338 14.6622C10.7415 15.6545 10.2454 16.8646 10.2454 18.2925C10.2454 19.7204 10.7415 20.9305 11.7338 21.9227C12.7502 22.9392 13.9724 23.4474 15.4003 23.4474C16.804 23.4474 18.0141 22.9392 19.0306 21.9227C20.0228 20.9305 20.519 19.7204 20.519 18.2925Z" fill="#F38130" fill-opacity="0.6"/>
<path d="M34.3866 24.9721C34.3866 23.5684 33.8783 22.3583 32.8619 21.3419C31.8696 20.3496 30.6595 19.8535 29.2316 19.8535C27.8037 19.8535 26.5936 20.3496 25.6014 21.3419C24.5849 22.3583 24.0767 23.5684 24.0767 24.9721C24.0767 26.4 24.5849 27.6222 25.6014 28.6387C26.5936 29.6309 27.8037 30.1271 29.2316 30.1271C30.6595 30.1271 31.8696 29.6309 32.8619 28.6387C33.8783 27.6222 34.3866 26.4 34.3866 24.9721Z" fill="#FECC30" fill-opacity="0.6"/>
<path d="M37.7264 19.0911C37.7264 16.2595 36.722 13.8394 34.7132 11.8306C32.7045 9.82187 30.2722 8.8175 27.4164 8.8175C24.5848 8.8175 22.1647 9.82187 20.1559 11.8306C18.1472 13.8394 17.1428 16.2595 17.1428 19.0911C17.1428 21.9469 18.1472 24.3792 20.1559 26.3879C22.1647 28.3967 24.5848 29.401 27.4164 29.401C30.2722 29.401 32.7045 28.3967 34.7132 26.3879C36.722 24.3792 37.7264 21.9469 37.7264 19.0911Z" fill="#FAB131" fill-opacity="0.6"/>
<path d="M43.8979 19.8535C43.8979 18.8612 43.5469 18.002 42.8451 17.276C42.1432 16.5741 41.2962 16.2232 40.3039 16.2232C39.3116 16.2232 38.4646 16.5741 37.7627 17.276C37.0609 18.002 36.71 18.8612 36.71 19.8535C36.71 20.8457 37.0609 21.6928 37.7627 22.3946C38.4646 23.0965 39.3116 23.4474 40.3039 23.4474C41.2962 23.4474 42.1432 23.0965 42.8451 22.3946C43.5469 21.6928 43.8979 20.8457 43.8979 19.8535Z" fill="#F79E35" fill-opacity="0.6"/>
<path d="M56.3858 14.5533C56.3858 12.4235 55.6356 10.6084 54.1351 9.10787C52.6104 7.60737 50.7832 6.85712 48.6534 6.85712C46.5237 6.85712 44.7085 7.60737 43.208 9.10787C41.7075 10.6084 40.9573 12.4235 40.9573 14.5533C40.9573 16.683 41.7075 18.5102 43.208 20.0349C44.7085 21.5354 46.5237 22.2857 48.6534 22.2857C50.8074 22.2857 52.6346 21.5354 54.1351 20.0349C55.6356 18.5344 56.3858 16.7072 56.3858 14.5533Z" fill="#FBBF31" fill-opacity="0.6"/>
</g>
</g>
</svg>
