<svg width="72" height="72" viewBox="0 0 72 72" fill="none" xmlns="http://www.w3.org/2000/svg">
<g style="mix-blend-mode:luminosity">
<rect width="72" height="72" fill="white"/>
<g filter="url(#filter0_d)">
<path d="M6.53523 42.7576C5.16279 42.7576 4.06381 42.4981 3.23829 41.9792C2.41276 41.45 2 40.6457 2 39.5663C2 38.9956 2.09803 38.5597 2.29409 38.2587C2.49016 37.9577 2.77909 37.8073 3.16089 37.8073C3.43951 37.8073 3.66653 37.8799 3.84195 38.0252C4.01738 38.1705 4.10509 38.3573 4.10509 38.5856C4.10509 38.7932 4.08961 38.9748 4.05865 39.1305C4.05865 39.172 4.04833 39.2446 4.0277 39.3484C4.01738 39.4522 4.01222 39.5612 4.01222 39.6753C4.01222 40.1423 4.2444 40.49 4.70875 40.7183C5.18343 40.9466 5.84385 41.0608 6.69001 41.0608C7.56713 41.0608 8.25335 40.9051 8.74867 40.5938C9.24398 40.2721 9.49164 39.8258 9.49164 39.255C9.49164 38.9022 9.37813 38.6012 9.15111 38.3521C8.92409 38.0927 8.64032 37.8799 8.29979 37.7139C7.95926 37.5374 7.47942 37.3247 6.86028 37.0756C6.06571 36.7643 5.41561 36.4685 4.90998 36.1883C4.41466 35.9081 3.98642 35.5293 3.62525 35.0519C3.2744 34.5641 3.09898 33.9622 3.09898 33.2461C3.09898 32.4989 3.29504 31.8347 3.68717 31.2535C4.08961 30.6723 4.66232 30.2209 5.40529 29.8992C6.15858 29.5775 7.04086 29.4166 8.05213 29.4166C8.80542 29.4166 9.4968 29.5308 10.1263 29.7591C10.7557 29.977 11.2562 30.3143 11.6277 30.7709C12.0095 31.2276 12.2004 31.788 12.2004 32.4522C12.2004 33.106 12.1024 33.599 11.9063 33.9311C11.7102 34.2632 11.4213 34.4292 11.0395 34.4292C10.7712 34.4292 10.5442 34.3462 10.3584 34.1801C10.183 34.0141 10.0953 33.8169 10.0953 33.5886C10.0953 33.3914 10.1108 33.2098 10.1417 33.0437C10.1727 32.7324 10.1882 32.5352 10.1882 32.4522C10.1882 32.0163 9.97664 31.6842 9.55355 31.4559C9.13047 31.2276 8.6042 31.1134 7.97474 31.1134C7.0873 31.1134 6.40624 31.2795 5.93156 31.6116C5.46721 31.9333 5.23503 32.3899 5.23503 32.9815C5.23503 33.3758 5.3537 33.7131 5.59103 33.9933C5.83869 34.2735 6.1431 34.507 6.50427 34.6938C6.86544 34.8807 7.37107 35.1038 8.02117 35.3632C8.80542 35.685 9.43489 35.9755 9.90956 36.235C10.3842 36.4944 10.7867 36.8473 11.1169 37.2936C11.4574 37.7398 11.6277 38.2898 11.6277 38.9437C11.6277 40.1683 11.1633 41.1127 10.2346 41.7769C9.31622 42.4307 8.08309 42.7576 6.53523 42.7576Z" fill="#00E5E2"/>
<path d="M21.6324 39.6442C21.8698 39.6442 21.9884 39.805 21.9884 40.1268C21.9884 40.5315 21.8956 40.848 21.7098 41.0764C21.5344 41.3047 21.2919 41.4188 20.9823 41.4188L20.4096 41.4033C20.3064 41.3929 20.1568 41.3877 19.9607 41.3877C20.002 41.9792 20.0226 42.5708 20.0226 43.1623C20.0226 44.7294 19.8163 46.0941 19.4035 47.2565C19.0011 48.4188 18.3664 49 17.4996 49C16.9115 49 16.4626 48.6575 16.153 47.9726C15.8537 47.298 15.7041 46.4729 15.7041 45.4974C15.7041 44.2832 15.8383 43.0845 16.1066 41.9014C15.7557 42.4411 15.2965 42.7109 14.729 42.7109C14.1614 42.7109 13.6867 42.4722 13.3049 41.9948C12.9334 41.5174 12.7477 40.8999 12.7477 40.1423C12.7477 39.3225 12.9386 38.5441 13.3204 37.8073C13.7125 37.0704 14.2285 36.4789 14.8683 36.0326C15.5184 35.576 16.2098 35.3477 16.9424 35.3477C17.1901 35.3477 17.381 35.4307 17.5151 35.5967C17.608 35.2646 17.7473 35.0415 17.933 34.9274C18.1188 34.8132 18.3768 34.7561 18.707 34.7561C19.0578 34.7561 19.29 34.808 19.4035 34.9118C19.5273 35.0156 19.5841 35.166 19.5738 35.3632C19.5738 35.4878 19.5067 35.7784 19.3725 36.235C19.2487 36.6812 19.1662 36.977 19.1249 37.1223C18.9598 37.7035 18.7792 38.3469 18.5831 39.0526C18.3974 39.7583 18.2478 40.4018 18.1343 40.9829C17.804 42.6434 17.6389 44.1119 17.6389 45.3884C17.6389 45.8658 17.6751 46.2706 17.7473 46.6027C17.8298 46.9451 17.933 47.1164 18.0569 47.1164C18.1601 47.1164 18.2684 46.94 18.3819 46.5871C18.5057 46.2342 18.6089 45.762 18.6915 45.1705C18.774 44.5789 18.8153 43.9511 18.8153 43.2869C18.8153 42.4981 18.7792 41.7976 18.707 41.1853C18.6966 41.1334 18.6915 41.0504 18.6915 40.9362C18.6915 40.5938 18.774 40.3084 18.9391 40.0801C19.1146 39.8517 19.3571 39.7376 19.6666 39.7376C19.7079 39.7376 20.1 39.722 20.843 39.6909C21.1526 39.6597 21.4157 39.6442 21.6324 39.6442ZM15.3481 41.1386C15.5855 41.1386 15.8125 40.9933 16.0292 40.7027C16.2459 40.4018 16.4007 40.0437 16.4935 39.6286L17.1591 36.7954C16.7051 36.8058 16.2871 36.9666 15.9053 37.278C15.5339 37.5893 15.2346 38.0044 15.0076 38.5234C14.7909 39.0319 14.6825 39.5715 14.6825 40.1423C14.6825 40.464 14.7393 40.7131 14.8528 40.8895C14.9766 41.0556 15.1417 41.1386 15.3481 41.1386Z" fill="#00E5E2"/>
<path d="M22.267 42.7109C21.8027 42.7109 21.4209 42.4981 21.1216 42.0726C20.8327 41.6368 20.6882 41.0971 20.6882 40.4537C20.6882 39.6753 20.7398 38.9644 20.843 38.321C20.9462 37.6672 21.1165 36.977 21.3538 36.2506C21.457 35.9392 21.6015 35.7161 21.7872 35.5812C21.9729 35.4463 22.267 35.3788 22.6695 35.3788C22.8965 35.3788 23.0513 35.4151 23.1338 35.4878C23.2267 35.5604 23.2732 35.6694 23.2732 35.8147C23.2732 35.8977 23.2164 36.1779 23.1029 36.6553C22.9997 37.0393 22.9171 37.387 22.8552 37.6983C22.6488 38.788 22.5457 39.5145 22.5457 39.8777C22.5457 40.0956 22.5715 40.2513 22.623 40.3447C22.6746 40.4277 22.7572 40.4692 22.8707 40.4692C23.0255 40.4692 23.2164 40.3136 23.4434 40.0022C23.6808 39.6909 23.9284 39.2187 24.1864 38.5856C24.4547 37.9526 24.7127 37.1742 24.9603 36.2506C25.0429 35.9392 25.1667 35.7161 25.3318 35.5812C25.5072 35.4463 25.7652 35.3788 26.1057 35.3788C26.3431 35.3788 26.5082 35.4099 26.601 35.4722C26.6939 35.5241 26.7404 35.6279 26.7404 35.7835C26.7404 36.043 26.6114 36.7539 26.3534 37.9162C26.0645 39.2446 25.92 40.0645 25.92 40.3758C25.92 40.573 25.9613 40.7287 26.0438 40.8428C26.1264 40.9466 26.2347 40.9985 26.3689 40.9985C26.5753 40.9985 26.8178 40.874 27.0964 40.6249C27.3853 40.3655 27.7671 39.9503 28.2418 39.3795C28.3656 39.2342 28.5049 39.1616 28.6597 39.1616C28.7938 39.1616 28.897 39.2239 28.9693 39.3484C29.0518 39.4729 29.0931 39.6442 29.0931 39.8621C29.0931 40.2772 28.9951 40.599 28.799 40.8273C28.3553 41.3773 27.8755 41.8288 27.3595 42.1816C26.8539 42.5345 26.276 42.7109 25.6259 42.7109C25.1306 42.7109 24.7643 42.5189 24.5269 42.1349C24.2999 41.7509 24.1864 41.2113 24.1864 40.5159C24.011 41.2216 23.7478 41.7665 23.397 42.1505C23.0461 42.5241 22.6695 42.7109 22.267 42.7109Z" fill="#00E5E2"/>
<path d="M29.7419 42.7109C29.1021 42.7109 28.5913 42.4774 28.2095 42.0104C27.8277 41.5434 27.6368 40.9311 27.6368 40.1735C27.6368 39.3432 27.8277 38.5597 28.2095 37.8228C28.5913 37.0756 29.0969 36.4789 29.7264 36.0326C30.3662 35.576 31.0421 35.3477 31.7541 35.3477C31.9811 35.3477 32.1307 35.3944 32.203 35.4878C32.2855 35.5708 32.3526 35.7265 32.4042 35.9548C32.6209 35.9133 32.8479 35.8925 33.0852 35.8925C33.5909 35.8925 33.8437 36.0741 33.8437 36.4374C33.8437 36.6553 33.7663 37.1742 33.6115 37.9941C33.3742 39.1875 33.2555 40.0178 33.2555 40.4848C33.2555 40.6405 33.2916 40.765 33.3639 40.8584C33.4464 40.9518 33.5496 40.9985 33.6734 40.9985C33.8695 40.9985 34.1068 40.874 34.3855 40.6249C34.6641 40.3655 35.0407 39.9503 35.5154 39.3795C35.6392 39.2342 35.7785 39.1616 35.9333 39.1616C36.0675 39.1616 36.1707 39.2239 36.2429 39.3484C36.3254 39.4729 36.3667 39.6442 36.3667 39.8621C36.3667 40.2772 36.2687 40.599 36.0726 40.8273C35.6495 41.3566 35.2007 41.8028 34.726 42.166C34.2513 42.5293 33.7921 42.7109 33.3484 42.7109C33.0079 42.7109 32.6931 42.5967 32.4042 42.3684C32.1256 42.1297 31.914 41.808 31.7696 41.4033C31.233 42.275 30.5571 42.7109 29.7419 42.7109ZM30.2991 41.1386C30.5261 41.1386 30.7428 41.0037 30.9492 40.7339C31.1556 40.464 31.3052 40.106 31.3981 39.6597L31.9708 36.7954C31.5374 36.8058 31.1349 36.9718 30.7635 37.2936C30.4023 37.6049 30.1134 38.02 29.8967 38.5389C29.68 39.0578 29.5716 39.6079 29.5716 40.189C29.5716 40.5107 29.6335 40.7494 29.7574 40.9051C29.8915 41.0608 30.0721 41.1386 30.2991 41.1386Z" fill="#00E5E2"/>
<path d="M43.9006 39.1616C44.0347 39.1616 44.1379 39.2239 44.2101 39.3484C44.2927 39.4729 44.334 39.6442 44.334 39.8621C44.334 40.2772 44.2359 40.599 44.0399 40.8273C43.6168 41.3462 43.1524 41.7924 42.6468 42.166C42.1412 42.5293 41.6407 42.7109 41.1454 42.7109C40.3611 42.7109 39.7626 42.2491 39.3498 41.3254C38.9165 41.8755 38.5346 42.2439 38.2044 42.4307C37.8845 42.6175 37.5079 42.7109 37.0745 42.7109C36.445 42.7109 35.9239 42.4774 35.5112 42.0104C35.1087 41.533 34.9075 40.9155 34.9075 40.1579C34.9075 39.3277 35.0829 38.5597 35.4338 37.854C35.7846 37.1379 36.2645 36.5567 36.8733 36.1105C37.4924 35.6538 38.1838 35.384 38.9474 35.301C39.1435 33.2876 39.5149 31.5701 40.0619 30.1483C40.6191 28.7161 41.3466 28 42.2443 28C42.6881 28 43.0544 28.2024 43.3433 28.6071C43.6426 29.0119 43.7922 29.6242 43.7922 30.444C43.7922 31.6064 43.5084 32.9659 42.9409 34.5226C42.3733 36.0793 41.6149 37.6775 40.6655 39.3173C40.7068 39.9192 40.7945 40.3499 40.9287 40.6093C41.0731 40.8688 41.2537 40.9985 41.4704 40.9985C41.749 40.9985 42.0328 40.874 42.3217 40.6249C42.6107 40.3758 42.9976 39.9607 43.4826 39.3795C43.6065 39.2342 43.7458 39.1616 43.9006 39.1616ZM42.0741 29.5256C41.878 29.5256 41.682 29.8784 41.4859 30.5841C41.2898 31.2795 41.1196 32.1927 40.9751 33.3239C40.841 34.4552 40.7429 35.6382 40.681 36.8732C41.8367 34.341 42.4146 32.3069 42.4146 30.7709C42.4146 30.3766 42.3785 30.0704 42.3063 29.8525C42.2443 29.6345 42.167 29.5256 42.0741 29.5256ZM37.6162 41.1386C37.8123 41.1386 38.0084 41.0608 38.2044 40.9051C38.4005 40.7391 38.6482 40.4381 38.9474 40.0022C38.8442 39.4418 38.7926 38.8139 38.7926 38.1186C38.7926 37.8695 38.8029 37.4648 38.8236 36.9044C38.256 37.0808 37.7814 37.4648 37.3995 38.0563C37.0281 38.6375 36.8423 39.2861 36.8423 40.0022C36.8423 40.7598 37.1003 41.1386 37.6162 41.1386Z" fill="#00E5E2"/>
<path d="M44.1737 42.7109C43.7816 42.7109 43.503 42.5033 43.3379 42.0882C43.1831 41.6731 43.1057 41.0089 43.1057 40.0956C43.1057 38.7465 43.2966 37.4648 43.6784 36.2506C43.7713 35.9496 43.9209 35.7317 44.1273 35.5967C44.344 35.4514 44.6432 35.3788 45.025 35.3788C45.2314 35.3788 45.3759 35.4047 45.4585 35.4566C45.541 35.5085 45.5823 35.6071 45.5823 35.7524C45.5823 35.9185 45.5049 36.2921 45.3501 36.8732C45.2469 37.2884 45.1644 37.6516 45.1024 37.9629C45.0405 38.2743 44.9889 38.6583 44.9477 39.1149C45.2882 38.2224 45.67 37.4959 46.0931 36.9355C46.5162 36.3751 46.9289 35.9755 47.3314 35.7368C47.7441 35.4981 48.1208 35.3788 48.4613 35.3788C49.132 35.3788 49.4674 35.7161 49.4674 36.3907C49.4674 36.5256 49.421 36.8525 49.3281 37.3714C49.2455 37.7865 49.2043 38.046 49.2043 38.1497C49.2043 38.513 49.3333 38.6946 49.5912 38.6946C49.8802 38.6946 50.2517 38.4663 50.7057 38.0096C50.8398 37.8747 50.9791 37.8073 51.1236 37.8073C51.2578 37.8073 51.361 37.8695 51.4332 37.9941C51.5157 38.1082 51.557 38.2639 51.557 38.4611C51.557 38.8451 51.4538 39.146 51.2474 39.364C50.9585 39.6649 50.618 39.9244 50.2259 40.1423C49.8441 40.3499 49.4365 40.4537 49.003 40.4537C48.4561 40.4537 48.0382 40.3136 47.7493 40.0334C47.4707 39.7531 47.3314 39.3744 47.3314 38.897C47.3314 38.7413 47.3468 38.5856 47.3778 38.4299C47.3984 38.2224 47.4088 38.0823 47.4088 38.0096C47.4088 37.8436 47.352 37.7606 47.2385 37.7606C47.0837 37.7606 46.8773 37.937 46.6193 38.2898C46.3717 38.6323 46.124 39.089 45.8764 39.6597C45.6287 40.2305 45.4275 40.8325 45.2727 41.4655C45.1592 41.9533 45.0251 42.2854 44.8703 42.4618C44.7258 42.6279 44.4936 42.7109 44.1737 42.7109Z" fill="#00E5E2"/>
<path d="M52.1464 34.3514C51.713 34.3514 51.388 34.2528 51.1713 34.0556C50.9546 33.848 50.8462 33.5626 50.8462 33.1994C50.8462 32.8362 50.9855 32.5352 51.2641 32.2965C51.5531 32.0474 51.9091 31.9229 52.3322 31.9229C52.714 31.9229 53.0235 32.0163 53.2609 32.2031C53.4982 32.3899 53.6169 32.6546 53.6169 32.997C53.6169 33.4122 53.4827 33.7443 53.2144 33.9933C52.9461 34.232 52.5901 34.3514 52.1464 34.3514ZM52.0226 42.7109C51.3518 42.7109 50.8617 42.4722 50.5521 41.9948C50.2529 41.5174 50.1032 40.8844 50.1032 40.0956C50.1032 39.6286 50.16 39.0319 50.2735 38.3054C50.3973 37.5686 50.5521 36.8836 50.7379 36.2506C50.8307 35.9185 50.9546 35.6901 51.1093 35.5656C51.2641 35.4411 51.5118 35.3788 51.8523 35.3788C52.3786 35.3788 52.6417 35.5552 52.6417 35.9081C52.6417 36.1675 52.5437 36.7695 52.3476 37.7139C52.1 38.8554 51.9761 39.6286 51.9761 40.0334C51.9761 40.3447 52.0174 40.5834 52.1 40.7494C52.1825 40.9155 52.3218 40.9985 52.5179 40.9985C52.7036 40.9985 52.9358 40.8688 53.2144 40.6093C53.493 40.3499 53.8645 39.94 54.3289 39.3795C54.4527 39.2342 54.592 39.1616 54.7468 39.1616C54.881 39.1616 54.9842 39.2239 55.0564 39.3484C55.1389 39.4729 55.1802 39.6442 55.1802 39.8621C55.1802 40.2772 55.0822 40.599 54.8861 40.8273C53.8645 42.083 52.91 42.7109 52.0226 42.7109Z" fill="#00E5E2"/>
<path d="M59.7943 39.1616C59.9284 39.1616 60.0316 39.2239 60.1039 39.3484C60.1864 39.4729 60.2277 39.6442 60.2277 39.8621C60.2277 40.2772 60.1297 40.599 59.9336 40.8273C59.4899 41.3773 59.0049 41.8288 58.4786 42.1816C57.9627 42.5345 57.3745 42.7109 56.7141 42.7109C55.806 42.7109 55.1301 42.2958 54.6864 41.4655C54.253 40.6353 54.0363 39.5612 54.0363 38.2431C54.0363 36.977 54.1962 35.5345 54.5161 33.9155C54.8463 32.2965 55.3261 30.9059 55.9556 29.7435C56.5954 28.5812 57.3538 28 58.231 28C58.7263 28 59.1132 28.2335 59.3918 28.7005C59.6808 29.1572 59.8252 29.8162 59.8252 30.6775C59.8252 31.9125 59.4847 33.3447 58.8037 34.9741C58.1226 36.6034 57.199 38.2172 56.033 39.8154C56.1052 40.2409 56.2239 40.5471 56.389 40.7339C56.5541 40.9103 56.7708 40.9985 57.0391 40.9985C57.4622 40.9985 57.8337 40.8792 58.1536 40.6405C58.4734 40.3914 58.8811 39.9711 59.3764 39.3795C59.5002 39.2342 59.6395 39.1616 59.7943 39.1616ZM57.8904 29.5411C57.6531 29.5411 57.3848 29.9718 57.0855 30.8332C56.7863 31.6946 56.5231 32.7635 56.2961 34.04C56.0691 35.3165 55.9453 36.5411 55.9246 37.7139C56.6573 36.4996 57.2403 35.2854 57.6737 34.0712C58.1071 32.8466 58.3238 31.7309 58.3238 30.7242C58.3238 29.9355 58.1794 29.5411 57.8904 29.5411Z" fill="#00E5E2"/>
<path d="M64.843 39.1616C64.9771 39.1616 65.0803 39.2239 65.1525 39.3484C65.2351 39.4729 65.2764 39.6442 65.2764 39.8621C65.2764 40.2772 65.1783 40.599 64.9823 40.8273C64.5386 41.3773 64.0536 41.8288 63.5273 42.1816C63.0113 42.5345 62.4231 42.7109 61.7627 42.7109C60.8547 42.7109 60.1788 42.2958 59.735 41.4655C59.3016 40.6353 59.0849 39.5612 59.0849 38.2431C59.0849 36.977 59.2449 35.5345 59.5648 33.9155C59.895 32.2965 60.3748 30.9059 61.0043 29.7435C61.6441 28.5812 62.4025 28 63.2796 28C63.7749 28 64.1619 28.2335 64.4405 28.7005C64.7295 29.1572 64.8739 29.8162 64.8739 30.6775C64.8739 31.9125 64.5334 33.3447 63.8523 34.9741C63.1713 36.6034 62.2477 38.2172 61.0817 39.8154C61.1539 40.2409 61.2726 40.5471 61.4377 40.7339C61.6028 40.9103 61.8195 40.9985 62.0878 40.9985C62.5109 40.9985 62.8824 40.8792 63.2022 40.6405C63.5221 40.3914 63.9297 39.9711 64.425 39.3795C64.5489 39.2342 64.6882 39.1616 64.843 39.1616ZM62.9391 29.5411C62.7018 29.5411 62.4335 29.9718 62.1342 30.8332C61.835 31.6946 61.5718 32.7635 61.3448 34.04C61.1178 35.3165 60.994 36.5411 60.9733 37.7139C61.706 36.4996 62.289 35.2854 62.7224 34.0712C63.1558 32.8466 63.3725 31.7309 63.3725 30.7242C63.3725 29.9355 63.228 29.5411 62.9391 29.5411Z" fill="#00E5E2"/>
<path d="M69.5666 39.6286C69.7008 39.6286 69.8039 39.6909 69.8762 39.8154C69.9587 39.94 70 40.1112 70 40.3291C70 40.7027 69.9123 41.0245 69.7369 41.2943C69.4479 41.7405 69.0661 42.0882 68.5915 42.3373C68.1271 42.5864 67.5699 42.7109 66.9198 42.7109C65.9291 42.7109 65.1604 42.4151 64.6135 41.8236C64.0665 41.2216 63.7931 40.4122 63.7931 39.3951C63.7931 38.679 63.9427 38.0148 64.242 37.4025C64.5412 36.7798 64.954 36.2869 65.4803 35.9236C66.0168 35.5604 66.6205 35.3788 67.2913 35.3788C67.8898 35.3788 68.3696 35.5604 68.7308 35.9236C69.0919 36.2765 69.2725 36.7591 69.2725 37.3714C69.2725 38.0875 69.0145 38.705 68.4986 39.2239C67.993 39.7324 67.1261 40.1371 65.8982 40.4381C66.1458 40.9155 66.5638 41.1542 67.1519 41.1542C67.575 41.1542 67.9207 41.0556 68.189 40.8584C68.4676 40.6612 68.7875 40.3291 69.1487 39.8621C69.2725 39.7064 69.4118 39.6286 69.5666 39.6286ZM67.0281 36.9044C66.6463 36.9044 66.3213 37.1275 66.053 37.5738C65.795 38.02 65.666 38.5597 65.666 39.1927V39.2239C66.2748 39.0786 66.7547 38.8606 67.1055 38.5701C67.4564 38.2795 67.6318 37.9422 67.6318 37.5582C67.6318 37.361 67.575 37.2053 67.4615 37.0912C67.3583 36.9666 67.2139 36.9044 67.0281 36.9044Z" fill="#00E5E2"/>
</g>
</g>
<defs>
<filter id="filter0_d" x="2" y="28" width="68" height="22" filterUnits="userSpaceOnUse" color-interpolation-filters="sRGB">
<feFlood flood-opacity="0" result="BackgroundImageFix"/>
<feColorMatrix in="SourceAlpha" type="matrix" values="0 0 0 0 0 0 0 0 0 0 0 0 0 0 0 0 0 0 127 0"/>
<feOffset dy="1"/>
<feColorMatrix type="matrix" values="0 0 0 0 0 0 0 0 0 0.580392 0 0 0 0 0.6 0 0 0 1 0"/>
<feBlend mode="normal" in2="BackgroundImageFix" result="effect1_dropShadow"/>
<feBlend mode="normal" in="SourceGraphic" in2="effect1_dropShadow" result="shape"/>
</filter>
</defs>
</svg>
