<svg width="72" height="72" viewBox="0 0 72 72" fill="none" xmlns="http://www.w3.org/2000/svg">
<g style="mix-blend-mode:luminosity">
<path fill-rule="evenodd" clip-rule="evenodd" d="M3.42871 32.1917V34.9477H6.92888V44.9872H10.3317V34.9477H13.443V32.1917H3.42871Z" fill="#336655"/>
<path fill-rule="evenodd" clip-rule="evenodd" d="M18.5955 40.7664L20.2212 35.3414L22.0151 40.7664H18.5955ZM23.4108 44.9872H27.099L22.1151 32.1917H18.726L13.4431 44.9872H17.3305L17.8059 43.4008H22.8863L23.4108 44.9872Z" fill="#336655"/>
<path fill-rule="evenodd" clip-rule="evenodd" d="M60.1487 32.1917L54.8657 44.9872H58.7532L59.2286 43.4008H64.3089L64.8334 44.9872H68.5216L63.5376 32.1917H60.1487ZM61.6438 35.3414L63.4377 40.7665H60.0181L61.6438 35.3414Z" fill="#336655"/>
<path fill-rule="evenodd" clip-rule="evenodd" d="M28.4644 44.9872H31.719V43.8061L36.9462 37.6052V44.9872H40.2994V32.1917H36.9462L36.8475 33.6682L31.8176 39.5737V32.1917H28.4644V44.9872Z" fill="#336655"/>
<path fill-rule="evenodd" clip-rule="evenodd" d="M33.0164 34.9336L35.2923 32.8255V28.9928L33.0164 31.4841V34.9336Z" fill="#336655"/>
<path fill-rule="evenodd" clip-rule="evenodd" d="M50.7179 31.7834V36.308H45.8128V31.7347H42.5754V44.4816H45.8128V39.0325H50.7179V44.5302H53.9553V31.7834H50.7179Z" fill="#336655"/>
<path fill-rule="evenodd" clip-rule="evenodd" d="M7.53738 29.0851C7.95022 29.0851 8.29755 29.0467 8.57914 28.9704C8.86103 28.8939 9.08903 28.7865 9.2631 28.6479C9.43722 28.5097 9.56328 28.3436 9.64058 28.1494C9.71795 27.9552 9.75679 27.7384 9.75679 27.4986C9.75679 27.2591 9.71795 27.0423 9.64058 26.8481C9.56328 26.654 9.43722 26.4878 9.2631 26.3493C9.08903 26.211 8.86103 26.1036 8.57914 26.0271C8.29755 25.9508 7.95022 25.9125 7.53738 25.9125H4.98887V29.0851H7.53738ZM7.35659 24.9211C7.77377 24.9211 8.1104 24.8831 8.36648 24.8065C8.62231 24.73 8.82017 24.6268 8.9598 24.4966C9.09974 24.3666 9.19331 24.2128 9.24053 24.035C9.28775 23.8575 9.31148 23.6675 9.31148 23.4649C9.31148 23.2504 9.2782 23.0592 9.21154 22.8918C9.14493 22.7246 9.03399 22.5832 8.87925 22.4675C8.72458 22.3518 8.52207 22.263 8.2729 22.2009C8.02318 22.1392 7.71787 22.108 7.35659 22.108H4.98887V24.9211H7.35659ZM3.72437 21.0424H7.11788C7.49218 21.0424 7.81897 21.0516 8.09853 21.0702C8.3781 21.0889 8.64054 21.1292 8.88561 21.191C9.11796 21.2531 9.33612 21.3429 9.54065 21.4606C9.74486 21.5783 9.92449 21.7271 10.0792 21.9066C10.2342 22.0863 10.3556 22.295 10.4439 22.5326C10.532 22.7702 10.576 23.0376 10.576 23.335C10.576 23.4919 10.5546 23.6614 10.5115 23.843C10.4686 24.0247 10.3976 24.2033 10.2985 24.3789C10.1997 24.5544 10.0696 24.7178 9.90828 24.8686C9.74694 25.0193 9.54786 25.1421 9.31148 25.2372C9.50499 25.299 9.70291 25.3858 9.9051 25.4973C10.1073 25.609 10.291 25.7525 10.4567 25.9281C10.6221 26.1036 10.7588 26.3164 10.8663 26.5663C10.9738 26.8162 11.0277 27.1147 11.0277 27.4616C11.0277 27.6597 11.0028 27.8653 10.9535 28.0782C10.904 28.2907 10.8243 28.4963 10.7148 28.6944C10.605 28.8928 10.4642 29.0809 10.2921 29.2584C10.12 29.4361 9.91146 29.5909 9.66639 29.723C9.42132 29.8554 9.13827 29.9595 8.81785 30.036C8.49742 30.1126 8.13303 30.1507 7.72453 30.1507H3.72437V21.0424Z" fill="#336655"/>
<path fill-rule="evenodd" clip-rule="evenodd" d="M20.1313 25.5964C20.1313 25.0556 20.0559 24.5567 19.9053 24.1001C19.755 23.6439 19.5365 23.2513 19.2506 22.9229C18.9644 22.5944 18.613 22.3384 18.1958 22.1545C17.7786 21.9709 17.3055 21.8788 16.7762 21.8788C16.2429 21.8788 15.7678 21.9709 15.3506 22.1545C14.9332 22.3384 14.5818 22.5944 14.2955 22.9229C14.0096 23.2513 13.7915 23.6439 13.6408 24.1001C13.4902 24.5567 13.4151 25.0556 13.4151 25.5964C13.4151 26.1501 13.4838 26.655 13.6214 27.1114C13.759 27.5679 13.9676 27.9594 14.2472 28.2857C14.5267 28.6121 14.8764 28.865 15.2956 29.0447C15.7151 29.2245 16.2087 29.3143 16.7762 29.3143C17.3397 29.3143 17.8322 29.2245 18.2537 29.0447C18.6752 28.865 19.0249 28.6121 19.3022 28.2857C19.5797 27.9594 19.7871 27.5679 19.9247 27.1114C20.0623 26.655 20.1313 26.1501 20.1313 25.5964ZM21.3958 25.5964C21.3958 25.989 21.355 26.3804 21.2733 26.7708C21.1916 27.1612 21.0667 27.5329 20.899 27.8859C20.7313 28.2392 20.5215 28.5676 20.2701 28.8711C20.0183 29.1747 19.7205 29.4393 19.3763 29.6643C19.0322 29.8894 18.6443 30.065 18.212 30.191C17.7795 30.3168 17.3012 30.3799 16.7762 30.3799C16.2516 30.3799 15.7722 30.3168 15.3376 30.191C14.9031 30.065 14.5152 29.8894 14.173 29.6643C13.8312 29.4393 13.5334 29.1747 13.2796 28.8711C13.0258 28.5676 12.8149 28.2392 12.6472 27.8859C12.4794 27.5329 12.3549 27.1612 12.2732 26.7708C12.1915 26.3804 12.1506 25.989 12.1506 25.5964C12.1506 24.8903 12.2546 24.2437 12.4635 23.6572C12.6721 23.0707 12.9742 22.5666 13.37 22.1453C13.7654 21.7238 14.2495 21.3966 14.8217 21.1632C15.3935 20.9298 16.0451 20.8132 16.7762 20.8132C17.5031 20.8132 18.1538 20.9298 18.728 21.1632C19.3022 21.3966 19.786 21.7238 20.1797 22.1453C20.5731 22.5666 20.8741 23.0707 21.0829 23.6572C21.2915 24.2437 21.3958 24.8903 21.3958 25.5964Z" fill="#336655"/>
<path fill-rule="evenodd" clip-rule="evenodd" d="M22.6021 21.0424H29.5247V22.108H23.8666V24.9211H29.0861V25.9868H23.8666V29.085H29.6151V30.1506H22.6021V21.0424Z" fill="#336655"/>
<path fill-rule="evenodd" clip-rule="evenodd" d="M30.5815 21.0424H31.8461V24.7974H36.8912V21.0424H38.1624V30.1506H36.8912V25.8629H31.8461V30.1506H30.5815V21.0424Z" fill="#336655"/>
<path fill-rule="evenodd" clip-rule="evenodd" d="M40.4294 21.0424H41.694V24.7974H46.7391V21.0424H48.0103V30.1506H46.7391V25.8629H41.694V30.1506H40.4294V21.0424Z" fill="#336655"/>
<path fill-rule="evenodd" clip-rule="evenodd" d="M54.7647 26.3958L53.3197 22.3435L51.7197 26.3958H54.7647ZM48.9971 30.1507L52.552 20.9H54.0938L57.5325 30.1507H56.1261L55.126 27.3623H51.397L50.339 30.1507H48.9971Z" fill="#336655"/>
<path fill-rule="evenodd" clip-rule="evenodd" d="M63.921 22.1206H61.1766C61.0709 22.1206 60.9633 22.1217 60.8535 22.1236C60.7437 22.1259 60.6339 22.1328 60.5243 22.1453C60.4145 22.1576 60.3086 22.1774 60.207 22.2041C60.1054 22.231 60.012 22.2691 59.9265 22.3187C59.8047 22.389 59.7009 22.4758 59.6155 22.5791C59.53 22.6823 59.4599 22.7958 59.4051 22.9199C59.3504 23.0437 59.3107 23.1717 59.2863 23.3039C59.262 23.4363 59.2496 23.5662 59.2496 23.6942C59.2496 23.781 59.2557 23.877 59.268 23.9824C59.28 24.0879 59.3066 24.1973 59.3471 24.3108C59.3879 24.4245 59.4449 24.5361 59.518 24.6455C59.5911 24.7548 59.6889 24.8552 59.8107 24.9459C59.9164 25.0286 60.0232 25.0914 60.1308 25.1348C60.2385 25.1782 60.3534 25.2092 60.4753 25.2278C60.5974 25.2464 60.7286 25.2559 60.8688 25.2559C61.009 25.2559 61.1646 25.2537 61.3351 25.2495H63.921V22.1206ZM65.1223 30.1507H63.921V26.2781H61.689C61.4408 26.2781 61.2325 26.2811 61.0638 26.2875C60.8951 26.2936 60.7508 26.3059 60.6309 26.3245C60.5109 26.3432 60.4093 26.3679 60.326 26.3988C60.2426 26.43 60.1623 26.4701 60.0851 26.5199C59.9914 26.5816 59.9104 26.6509 59.8411 26.7274C59.7721 26.8039 59.7121 26.8999 59.6612 27.0154C59.6103 27.1311 59.5686 27.2736 59.5363 27.443C59.5037 27.6125 59.4794 27.8208 59.4633 28.0687L59.4022 29.0601C59.394 29.18 59.3838 29.2884 59.3715 29.3856C59.3595 29.4827 59.343 29.5726 59.3228 29.6549C59.3025 29.7378 59.2792 29.8193 59.2527 29.8997C59.2261 29.9804 59.1927 30.0639 59.1522 30.1507H57.7739C57.8227 30.097 57.8692 30.0372 57.9142 29.9709C57.9588 29.905 57.9996 29.8254 58.036 29.7325C58.0727 29.6396 58.1053 29.5292 58.1338 29.4008C58.162 29.2729 58.1844 29.1202 58.2008 28.9424L58.3044 27.7031C58.3205 27.4967 58.3449 27.2983 58.3775 27.1083C58.4101 26.9185 58.469 26.7408 58.5544 26.5755C58.6398 26.4102 58.765 26.2617 58.9295 26.1295C59.0941 25.9974 59.3187 25.8877 59.6034 25.8009C59.4731 25.7514 59.3208 25.6854 59.1458 25.6028C58.9712 25.5202 58.8033 25.3983 58.6428 25.2372C58.4821 25.0761 58.346 24.8644 58.2343 24.6021C58.1225 24.3397 58.0667 24.0064 58.0667 23.6013C58.0667 23.3122 58.099 23.0499 58.1642 22.8145C58.2291 22.5791 58.3145 22.3693 58.4202 22.1856C58.5259 22.0018 58.6469 21.8449 58.783 21.7147C58.9194 21.5844 59.0585 21.4782 59.2009 21.3955C59.3512 21.3087 59.5251 21.2405 59.7223 21.191C59.9194 21.1415 60.1196 21.1065 60.3231 21.0859C60.5262 21.0653 60.7223 21.0527 60.9115 21.0486C61.1005 21.0444 61.2662 21.0425 61.4085 21.0425H65.1223V30.1507Z" fill="#336655"/>
<path fill-rule="evenodd" clip-rule="evenodd" d="M6.72137 50.3986C6.57868 50.5828 6.39257 50.7346 6.16322 50.854C5.93386 50.9733 5.66115 51.033 5.34513 51.033C5.06996 51.033 4.81511 50.9862 4.58068 50.8924C4.34619 50.7985 4.14393 50.6672 3.97414 50.4985C3.80418 50.3296 3.67085 50.1275 3.57403 49.8921C3.47721 49.6569 3.42871 49.3994 3.42871 49.1196C3.42871 48.8366 3.47795 48.5782 3.57654 48.3446C3.67507 48.111 3.81011 47.9105 3.98173 47.7434C4.15328 47.5763 4.35634 47.4467 4.59083 47.3546C4.82532 47.2624 5.0784 47.2164 5.35026 47.2164C5.61185 47.2164 5.86255 47.2651 6.10205 47.3622C6.34168 47.4594 6.53098 47.595 6.67036 47.769L6.21159 48.1935C6.13349 48.0778 6.01961 47.9822 5.87019 47.9071C5.72066 47.8322 5.55411 47.7946 5.37063 47.7946C5.18036 47.7946 5.0088 47.8295 4.85584 47.8994C4.703 47.9694 4.57218 48.064 4.46337 48.1834C4.35463 48.3028 4.27047 48.4427 4.21114 48.6029C4.15169 48.7633 4.12197 48.9354 4.12197 49.1196C4.12197 49.3072 4.15169 49.482 4.21114 49.644C4.27047 49.806 4.35383 49.9467 4.46086 50.0661C4.56796 50.1856 4.69786 50.2793 4.85076 50.3474C5.00367 50.4158 5.17522 50.4498 5.36549 50.4498C5.5524 50.4498 5.72402 50.4114 5.88029 50.3347C6.03655 50.2579 6.16401 50.1479 6.2626 50.0047L6.72137 50.3986Z" fill="#336655"/>
<path fill-rule="evenodd" clip-rule="evenodd" d="M9.13707 50.0354L10.9108 47.3137H11.6549V50.9358H11.0178V48.2141H11.0076L9.22888 50.9358H8.48975V47.3137H9.12692V50.0354H9.13707Z" fill="#336655"/>
<path fill-rule="evenodd" clip-rule="evenodd" d="M13.1432 50.9359H12.501V47.3137H14.6672V47.8764H13.1432V50.9359Z" fill="#336655"/>
<path fill-rule="evenodd" clip-rule="evenodd" d="M18.2096 49.1145C18.2096 48.9338 18.1807 48.7633 18.123 48.603C18.0651 48.4427 17.9819 48.3028 17.8732 48.1834C17.7645 48.0641 17.6337 47.9694 17.4807 47.8994C17.3278 47.8295 17.1562 47.7946 16.966 47.7946C16.7757 47.7946 16.604 47.8295 16.4512 47.8994C16.2982 47.9694 16.1674 48.0641 16.0587 48.1834C15.95 48.3028 15.8667 48.4427 15.809 48.603C15.7512 48.7633 15.7223 48.9338 15.7223 49.1145C15.7223 49.2987 15.752 49.4727 15.8115 49.6364C15.8709 49.8001 15.9543 49.9416 16.0612 50.061C16.1683 50.1804 16.2982 50.2751 16.4512 50.3449C16.604 50.4149 16.7757 50.4498 16.966 50.4498C17.1528 50.4498 17.3236 50.4149 17.4782 50.3449C17.6328 50.2751 17.7637 50.1804 17.8707 50.061C17.9777 49.9416 18.0609 49.8001 18.1203 49.6364C18.1798 49.4727 18.2096 49.2987 18.2096 49.1145ZM18.8926 49.1145C18.8926 49.3977 18.8441 49.6561 18.7473 49.8896C18.6505 50.1232 18.5162 50.3253 18.3447 50.4958C18.1731 50.6665 17.9692 50.7985 17.733 50.8924C17.4968 50.9862 17.2412 51.033 16.966 51.033C16.6907 51.033 16.4359 50.9862 16.2014 50.8924C15.9669 50.7985 15.7631 50.6665 15.5898 50.4958C15.4165 50.3253 15.2814 50.1232 15.1846 49.8896C15.0878 49.6561 15.0393 49.3977 15.0393 49.1145C15.0393 48.8315 15.0878 48.5731 15.1846 48.3395C15.2814 48.1059 15.4165 47.9063 15.5898 47.7408C15.7631 47.5754 15.9669 47.4467 16.2014 47.3546C16.4359 47.2625 16.6907 47.2165 16.966 47.2165C17.2412 47.2165 17.4968 47.2625 17.733 47.3546C17.9692 47.4467 18.1731 47.5754 18.3447 47.7408C18.5162 47.9063 18.6505 48.1059 18.7473 48.3395C18.8441 48.5731 18.8926 48.8315 18.8926 49.1145Z" fill="#336655"/>
<path fill-rule="evenodd" clip-rule="evenodd" d="M20.1975 48.9099H20.6816C20.7904 48.9099 20.8906 48.8996 20.9824 48.8791C21.0741 48.8585 21.1531 48.826 21.2194 48.7813C21.2856 48.7368 21.3366 48.6803 21.3723 48.6117C21.4079 48.5431 21.4258 48.4609 21.4258 48.3649C21.4258 48.2656 21.4071 48.1824 21.3697 48.1156C21.3323 48.0488 21.2813 47.9948 21.2168 47.9537C21.1523 47.9127 21.0749 47.8835 20.9849 47.8664C20.8948 47.8492 20.7972 47.8406 20.6919 47.8406H20.1975V48.9099ZM19.5603 47.3137H20.7428C20.9331 47.3137 21.1098 47.3333 21.2729 47.3725C21.436 47.4118 21.5761 47.474 21.6934 47.5592C21.8106 47.6445 21.9023 47.7529 21.9686 47.8841C22.0349 48.0154 22.068 48.1749 22.068 48.3624C22.068 48.5501 22.0331 48.7112 21.9635 48.8459C21.8939 48.9807 21.7987 49.0908 21.6781 49.1759C21.5575 49.2612 21.4156 49.3235 21.2524 49.3627C21.0894 49.4019 20.9143 49.4215 20.7276 49.4215H20.1975V50.9359H19.5603V47.3137Z" fill="#336655"/>
<path fill-rule="evenodd" clip-rule="evenodd" d="M23.3013 50.3833H25.0954V50.9359H22.6794V47.3137H25.019V47.8662H23.3013V48.8076H24.9119V49.3345H23.3013V50.3833Z" fill="#336655"/>
<path fill-rule="evenodd" clip-rule="evenodd" d="M27.6693 49.9485H27.6795L28.6632 47.3137H29.601V50.9358H28.969L28.9792 48.1067H28.969L27.863 50.9358H27.445L26.3492 48.1067H26.339L26.3492 50.9358H25.7375V47.3137H26.6602L27.6693 49.9485Z" fill="#336655"/>
<path fill-rule="evenodd" clip-rule="evenodd" d="M34.5605 47.3137V50.9359H33.9233V47.8662H32.3535V50.9359H31.7163V47.3137H34.5605Z" fill="#336655"/>
<path fill-rule="evenodd" clip-rule="evenodd" d="M36.0434 48.9099H36.5276C36.6363 48.9099 36.7366 48.8996 36.8284 48.8791C36.92 48.8585 36.9991 48.826 37.0654 48.7813C37.1315 48.7368 37.1826 48.6803 37.2182 48.6117C37.2539 48.5431 37.2717 48.4609 37.2717 48.3649C37.2717 48.2656 37.2531 48.1824 37.2157 48.1156C37.1783 48.0488 37.1273 47.9948 37.0627 47.9537C36.9982 47.9127 36.9208 47.8835 36.8309 47.8664C36.7408 47.8492 36.6431 47.8406 36.5379 47.8406H36.0434V48.9099ZM35.4062 47.3137H36.5887C36.7791 47.3137 36.9557 47.3333 37.1188 47.3725C37.282 47.4118 37.4221 47.474 37.5394 47.5592C37.6565 47.6445 37.7483 47.7529 37.8145 47.8841C37.8808 48.0154 37.914 48.1749 37.914 48.3624C37.914 48.5501 37.879 48.7112 37.8094 48.8459C37.7398 48.9807 37.6446 49.0908 37.524 49.1759C37.4034 49.2612 37.2616 49.3235 37.0984 49.3627C36.9353 49.4019 36.7603 49.4215 36.5735 49.4215H36.0434V50.9359H35.4062V47.3137Z" fill="#336655"/>
<path fill-rule="evenodd" clip-rule="evenodd" d="M41.5126 49.1145C41.5126 48.9338 41.4837 48.7633 41.426 48.603C41.3681 48.4427 41.2849 48.3028 41.1762 48.1834C41.0674 48.0641 40.9367 47.9694 40.7838 47.8994C40.6308 47.8295 40.4592 47.7946 40.269 47.7946C40.0786 47.7946 39.907 47.8295 39.7542 47.8994C39.6012 47.9694 39.4704 48.0641 39.3617 48.1834C39.253 48.3028 39.1697 48.4427 39.1119 48.603C39.0541 48.7633 39.0253 48.9338 39.0253 49.1145C39.0253 49.2987 39.055 49.4727 39.1144 49.6364C39.1739 49.8001 39.2573 49.9416 39.3642 50.061C39.4713 50.1804 39.6012 50.2751 39.7542 50.3449C39.907 50.4149 40.0786 50.4498 40.269 50.4498C40.4558 50.4498 40.6266 50.4149 40.7812 50.3449C40.9358 50.2751 41.0666 50.1804 41.1737 50.061C41.2806 49.9416 41.3639 49.8001 41.4233 49.6364C41.4828 49.4727 41.5126 49.2987 41.5126 49.1145ZM42.1955 49.1145C42.1955 49.3977 42.1471 49.6561 42.0503 49.8896C41.9535 50.1232 41.8192 50.3253 41.6477 50.4958C41.476 50.6665 41.2721 50.7985 41.036 50.8924C40.7998 50.9862 40.5442 51.033 40.269 51.033C39.9937 51.033 39.7389 50.9862 39.5044 50.8924C39.2699 50.7985 39.0661 50.6665 38.8928 50.4958C38.7195 50.3253 38.5844 50.1232 38.4876 49.8896C38.3908 49.6561 38.3423 49.3977 38.3423 49.1145C38.3423 48.8315 38.3908 48.5731 38.4876 48.3395C38.5844 48.1059 38.7195 47.9063 38.8928 47.7408C39.0661 47.5754 39.2699 47.4467 39.5044 47.3546C39.7389 47.2625 39.9937 47.2165 40.269 47.2165C40.5442 47.2165 40.7998 47.2625 41.036 47.3546C41.2721 47.4467 41.476 47.5754 41.6477 47.7408C41.8192 47.9063 41.9535 48.1059 42.0503 48.3395C42.1471 48.5731 42.1955 48.8315 42.1955 49.1145Z" fill="#336655"/>
<path fill-rule="evenodd" clip-rule="evenodd" d="M42.863 50.9359V47.3137H43.5002V48.7309C43.5681 48.7309 43.6344 48.7334 43.699 48.7386C43.7635 48.7436 43.828 48.7496 43.8927 48.7564L45.1159 47.3137H45.8142L44.5247 48.9047C44.8882 49.048 45.1796 49.2834 45.3988 49.6108C45.6179 49.9382 45.7751 50.3799 45.8703 50.9359H45.172C45.1176 50.646 45.0471 50.3953 44.9604 50.1838C44.8738 49.9724 44.7642 49.7984 44.6318 49.662C44.4992 49.5256 44.3394 49.4266 44.1526 49.3652C43.9657 49.3038 43.7482 49.2765 43.5002 49.2834V50.9359H42.863Z" fill="#336655"/>
<path fill-rule="evenodd" clip-rule="evenodd" d="M49.433 49.1145C49.433 48.9338 49.4041 48.7633 49.3464 48.603C49.2885 48.4427 49.2053 48.3028 49.0966 48.1834C48.9878 48.0641 48.8571 47.9694 48.7042 47.8994C48.5512 47.8295 48.3796 47.7946 48.1894 47.7946C47.9991 47.7946 47.8274 47.8295 47.6746 47.8994C47.5216 47.9694 47.3908 48.0641 47.2821 48.1834C47.1734 48.3028 47.0901 48.4427 47.0323 48.603C46.9745 48.7633 46.9457 48.9338 46.9457 49.1145C46.9457 49.2987 46.9754 49.4727 47.0349 49.6364C47.0944 49.8001 47.1777 49.9416 47.2846 50.061C47.3917 50.1804 47.5216 50.2751 47.6746 50.3449C47.8274 50.4149 47.9991 50.4498 48.1894 50.4498C48.3762 50.4498 48.547 50.4149 48.7016 50.3449C48.8562 50.2751 48.987 50.1804 49.0941 50.061C49.2011 49.9416 49.2843 49.8001 49.3438 49.6364C49.4032 49.4727 49.433 49.2987 49.433 49.1145ZM50.116 49.1145C50.116 49.3977 50.0675 49.6561 49.9707 49.8896C49.8739 50.1232 49.7396 50.3253 49.5681 50.4958C49.3965 50.6665 49.1926 50.7985 48.9564 50.8924C48.7202 50.9862 48.4646 51.033 48.1894 51.033C47.9141 51.033 47.6593 50.9862 47.4248 50.8924C47.1903 50.7985 46.9865 50.6665 46.8132 50.4958C46.6399 50.3253 46.5048 50.1232 46.408 49.8896C46.3112 49.6561 46.2627 49.3977 46.2627 49.1145C46.2627 48.8315 46.3112 48.5731 46.408 48.3395C46.5048 48.1059 46.6399 47.9063 46.8132 47.7408C46.9865 47.5754 47.1903 47.4467 47.4248 47.3546C47.6593 47.2625 47.9141 47.2165 48.1894 47.2165C48.4646 47.2165 48.7202 47.2625 48.9564 47.3546C49.1926 47.4467 49.3965 47.5754 49.5681 47.7408C49.7396 47.9063 49.8739 48.1059 49.9707 48.3395C50.0675 48.5731 50.116 48.8315 50.116 49.1145Z" fill="#336655"/>
<path fill-rule="evenodd" clip-rule="evenodd" d="M53.6276 47.3137V50.9359H52.9904V47.8662H51.4207V50.9359H50.7834V47.3137H53.6276Z" fill="#336655"/>
<path fill-rule="evenodd" clip-rule="evenodd" d="M55.0955 50.3833H56.8896V50.9359H54.4736V47.3137H56.8132V47.8662H55.0955V48.8076H56.7061V49.3345H55.0955V50.3833Z" fill="#336655"/>
<path fill-rule="evenodd" clip-rule="evenodd" d="M57.532 47.3137H58.1692V48.7769H59.8359V47.3137H60.473V50.9359H59.8359V49.3294H58.1692V50.9359H57.532V47.3137Z" fill="#336655"/>
<path fill-rule="evenodd" clip-rule="evenodd" d="M61.3186 50.9359V47.3137H61.9558V48.7309C62.0237 48.7309 62.09 48.7334 62.1546 48.7386C62.219 48.7436 62.2836 48.7496 62.3482 48.7564L63.5715 47.3137H64.2697L62.9802 48.9047C63.3438 49.048 63.6352 49.2834 63.8543 49.6108C64.0735 49.9382 64.2307 50.3799 64.3258 50.9359H63.6276C63.5732 50.646 63.5027 50.3953 63.416 50.1838C63.3293 49.9724 63.2198 49.7984 63.0873 49.662C62.9547 49.5256 62.795 49.4266 62.6082 49.3652C62.4213 49.3038 62.2038 49.2765 61.9558 49.2834V50.9359H61.3186Z" fill="#336655"/>
<mask id="mask0" mask-type="alpha" maskUnits="userSpaceOnUse" x="64" y="47" width="5" height="5">
<path d="M68.5715 47.2165V51.033H64.7183V47.2165H68.5715Z" fill="#336655"/>
</mask>
<g mask="url(#mask0)">
<path fill-rule="evenodd" clip-rule="evenodd" d="M67.8886 49.1145C67.8886 48.9338 67.8597 48.7633 67.8019 48.603C67.7441 48.4427 67.6608 48.3028 67.5522 48.1834C67.4434 48.0641 67.3126 47.9694 67.1597 47.8994C67.0068 47.8295 66.8352 47.7946 66.645 47.7946C66.4546 47.7946 66.283 47.8295 66.1302 47.8994C65.9772 47.9694 65.8464 48.0641 65.7377 48.1834C65.6289 48.3028 65.5456 48.4427 65.4879 48.603C65.4301 48.7633 65.4012 48.9338 65.4012 49.1145C65.4012 49.2987 65.431 49.4727 65.4904 49.6364C65.5499 49.8001 65.6332 49.9416 65.7402 50.061C65.8472 50.1804 65.9772 50.2751 66.1302 50.3449C66.283 50.4149 66.4546 50.4498 66.645 50.4498C66.8317 50.4498 67.0026 50.4149 67.1572 50.3449C67.3117 50.2751 67.4426 50.1804 67.5496 50.061C67.6566 49.9416 67.7399 49.8001 67.7994 49.6364C67.8588 49.4727 67.8886 49.2987 67.8886 49.1145ZM68.5715 49.1145C68.5715 49.3977 68.5231 49.6561 68.4263 49.8896C68.3294 50.1232 68.1952 50.3253 68.0236 50.4958C67.852 50.6665 67.6481 50.7986 67.412 50.8924C67.1758 50.9862 66.9202 51.033 66.645 51.033C66.3697 51.033 66.1149 50.9862 65.8804 50.8924C65.6459 50.7986 65.442 50.6665 65.2688 50.4958C65.0954 50.3253 64.9604 50.1232 64.8636 49.8896C64.7668 49.6561 64.7183 49.3977 64.7183 49.1145C64.7183 48.8315 64.7668 48.5731 64.8636 48.3395C64.9604 48.1059 65.0954 47.9063 65.2688 47.7408C65.442 47.5754 65.6459 47.4467 65.8804 47.3546C66.1149 47.2625 66.3697 47.2165 66.645 47.2165C66.9202 47.2165 67.1758 47.2625 67.412 47.3546C67.6481 47.4467 67.852 47.5754 68.0236 47.7408C68.1952 47.9063 68.3294 48.1059 68.4263 48.3395C68.5231 48.5731 68.5715 48.8315 68.5715 49.1145Z" fill="#336655"/>
</g>
</g>
</svg>
