<svg width="168" height="120" viewBox="0 0 168 120" fill="none" xmlns="http://www.w3.org/2000/svg">
<path d="M49.3183 96.128L48.8223 97.728H51.9743L51.4783 96.128C51.2863 95.5413 51.105 94.96 50.9343 94.384C50.7636 93.7973 50.593 93.2 50.4223 92.592H50.3583C50.1983 93.2 50.033 93.7973 49.8623 94.384C49.6916 94.96 49.5103 95.5413 49.3183 96.128ZM46.1183 102L49.6703 91.504H51.1743L54.7263 102H53.3023L52.3103 98.8H48.4863L47.4783 102H46.1183ZM56.1532 102V95.296H55.0972V94.304L56.1532 94.224V92.992C56.1532 92.192 56.3345 91.5627 56.6972 91.104C57.0705 90.6453 57.6465 90.416 58.4252 90.416C58.6705 90.416 58.8999 90.4427 59.1132 90.496C59.3372 90.5387 59.5399 90.5973 59.7212 90.672L59.4332 91.68C59.1452 91.552 58.8519 91.488 58.5532 91.488C57.8279 91.488 57.4652 91.9893 57.4652 92.992V94.224H60.3132L60.4732 92.048H61.5612V94.224H63.6732V95.296H61.5612V99.616C61.5612 100.096 61.6519 100.469 61.8332 100.736C62.0145 100.992 62.3292 101.12 62.7772 101.12C62.9159 101.12 63.0652 101.099 63.2252 101.056C63.3852 101.013 63.5292 100.965 63.6572 100.912L63.9132 101.904C63.6999 101.979 63.4652 102.043 63.2092 102.096C62.9639 102.16 62.7185 102.192 62.4732 102.192C62.0572 102.192 61.7052 102.128 61.4172 102C61.1399 101.872 60.9105 101.696 60.7292 101.472C60.5585 101.248 60.4359 100.976 60.3612 100.656C60.2865 100.336 60.2492 99.984 60.2492 99.6V95.296H57.4652V102H56.1532ZM68.3624 102.192C67.8398 102.192 67.3491 102.101 66.8904 101.92C66.4424 101.728 66.0478 101.461 65.7064 101.12C65.3758 100.768 65.1144 100.341 64.9224 99.84C64.7304 99.3387 64.6344 98.768 64.6344 98.128C64.6344 97.488 64.7304 96.9173 64.9224 96.416C65.1251 95.904 65.3864 95.472 65.7064 95.12C66.0371 94.768 66.4104 94.5013 66.8264 94.32C67.2424 94.128 67.6744 94.032 68.1224 94.032C68.6131 94.032 69.0504 94.1173 69.4344 94.288C69.8291 94.4587 70.1544 94.704 70.4104 95.024C70.6771 95.344 70.8798 95.728 71.0184 96.176C71.1571 96.624 71.2264 97.1253 71.2264 97.68C71.2264 97.8187 71.2211 97.9573 71.2104 98.096C71.2104 98.224 71.1998 98.336 71.1784 98.432H65.9304C65.9838 99.264 66.2398 99.9253 66.6984 100.416C67.1678 100.896 67.7758 101.136 68.5224 101.136C68.8958 101.136 69.2371 101.083 69.5464 100.976C69.8664 100.859 70.1704 100.709 70.4584 100.528L70.9224 101.392C70.5811 101.605 70.2024 101.792 69.7864 101.952C69.3704 102.112 68.8958 102.192 68.3624 102.192ZM65.9144 97.488H70.0744C70.0744 96.6987 69.9038 96.1013 69.5624 95.696C69.2318 95.28 68.7624 95.072 68.1544 95.072C67.8771 95.072 67.6104 95.1253 67.3544 95.232C67.1091 95.3387 66.8851 95.4987 66.6824 95.712C66.4798 95.9147 66.3091 96.1653 66.1704 96.464C66.0424 96.7627 65.9571 97.104 65.9144 97.488ZM73.1479 102V94.224H74.2359L74.3479 95.632H74.3959C74.6626 95.1413 74.9826 94.752 75.3559 94.464C75.7399 94.176 76.1559 94.032 76.6039 94.032C76.9133 94.032 77.1906 94.0853 77.4359 94.192L77.1799 95.344C77.0519 95.3013 76.9346 95.2693 76.8279 95.248C76.7213 95.2267 76.5879 95.216 76.4279 95.216C76.0973 95.216 75.7506 95.3493 75.3879 95.616C75.0359 95.8827 74.7266 96.3467 74.4599 97.008V102H73.1479ZM78.8228 102V91.504H84.8708V92.624H80.1508V95.92H84.1348V97.056H80.1508V100.864H85.0308V102H78.8228ZM91.9163 102V95.296H88.6683V102H87.3563V95.296H86.3003V94.304L87.3563 94.224V93.2C87.3563 92.3893 87.5536 91.7493 87.9483 91.28C88.3536 90.8107 88.9616 90.576 89.7723 90.576C90.0283 90.576 90.279 90.6027 90.5243 90.656C90.7803 90.7093 91.0043 90.7787 91.1963 90.864L90.9243 91.856C90.6043 91.7173 90.2576 91.648 89.8843 91.648C89.5003 91.648 89.2016 91.7867 88.9883 92.064C88.775 92.3307 88.6683 92.72 88.6683 93.232V94.224H91.9163V92.992C91.9163 92.192 92.0976 91.5627 92.4603 91.104C92.8336 90.6453 93.4096 90.416 94.1883 90.416C94.4336 90.416 94.663 90.4427 94.8763 90.496C95.1003 90.5387 95.303 90.5973 95.4843 90.672L95.1963 91.68C94.9083 91.552 94.615 91.488 94.3163 91.488C93.591 91.488 93.2283 91.9893 93.2283 92.992V94.224H94.8763V95.296H93.2283V102H91.9163ZM99.3624 102.192C98.8398 102.192 98.3491 102.101 97.8904 101.92C97.4424 101.728 97.0478 101.461 96.7064 101.12C96.3758 100.768 96.1144 100.341 95.9224 99.84C95.7304 99.3387 95.6344 98.768 95.6344 98.128C95.6344 97.488 95.7304 96.9173 95.9224 96.416C96.1251 95.904 96.3864 95.472 96.7064 95.12C97.0371 94.768 97.4104 94.5013 97.8264 94.32C98.2424 94.128 98.6744 94.032 99.1224 94.032C99.6131 94.032 100.05 94.1173 100.434 94.288C100.829 94.4587 101.154 94.704 101.41 95.024C101.677 95.344 101.88 95.728 102.018 96.176C102.157 96.624 102.226 97.1253 102.226 97.68C102.226 97.8187 102.221 97.9573 102.21 98.096C102.21 98.224 102.2 98.336 102.178 98.432H96.9304C96.9838 99.264 97.2398 99.9253 97.6984 100.416C98.1678 100.896 98.7758 101.136 99.5224 101.136C99.8958 101.136 100.237 101.083 100.546 100.976C100.866 100.859 101.17 100.709 101.458 100.528L101.922 101.392C101.581 101.605 101.202 101.792 100.786 101.952C100.37 102.112 99.8958 102.192 99.3624 102.192ZM96.9144 97.488H101.074C101.074 96.6987 100.904 96.1013 100.562 95.696C100.232 95.28 99.7624 95.072 99.1544 95.072C98.8771 95.072 98.6104 95.1253 98.3544 95.232C98.1091 95.3387 97.8851 95.4987 97.6824 95.712C97.4798 95.9147 97.3091 96.1653 97.1704 96.464C97.0424 96.7627 96.9571 97.104 96.9144 97.488ZM107.22 102.192C106.708 102.192 106.228 102.101 105.78 101.92C105.332 101.739 104.943 101.477 104.612 101.136C104.292 100.784 104.036 100.357 103.844 99.856C103.663 99.344 103.572 98.768 103.572 98.128C103.572 97.4773 103.673 96.9013 103.876 96.4C104.079 95.888 104.351 95.456 104.692 95.104C105.033 94.752 105.428 94.4853 105.876 94.304C106.335 94.1227 106.815 94.032 107.316 94.032C107.828 94.032 108.265 94.1227 108.628 94.304C108.991 94.4853 109.311 94.6987 109.588 94.944L108.916 95.808C108.692 95.6053 108.452 95.44 108.196 95.312C107.951 95.184 107.673 95.12 107.364 95.12C107.012 95.12 106.687 95.1947 106.388 95.344C106.089 95.4827 105.833 95.6853 105.62 95.952C105.407 96.2187 105.236 96.5387 105.108 96.912C104.991 97.2747 104.932 97.68 104.932 98.128C104.932 98.576 104.991 98.9813 105.108 99.344C105.225 99.7067 105.385 100.021 105.588 100.288C105.801 100.544 106.057 100.747 106.356 100.896C106.655 101.035 106.98 101.104 107.332 101.104C107.695 101.104 108.025 101.029 108.324 100.88C108.633 100.72 108.911 100.533 109.156 100.32L109.732 101.2C109.38 101.509 108.991 101.755 108.564 101.936C108.137 102.107 107.689 102.192 107.22 102.192ZM113.737 102.192C113.321 102.192 112.969 102.128 112.681 102C112.403 101.872 112.174 101.696 111.993 101.472C111.822 101.248 111.699 100.976 111.625 100.656C111.55 100.336 111.513 99.984 111.513 99.6V95.296H110.361V94.304L111.577 94.224L111.737 92.048H112.841V94.224H114.937V95.296H112.841V99.616C112.841 100.096 112.926 100.469 113.097 100.736C113.278 100.992 113.593 101.12 114.041 101.12C114.179 101.12 114.329 101.099 114.489 101.056C114.649 101.013 114.793 100.965 114.921 100.912L115.177 101.904C114.963 101.979 114.729 102.043 114.473 102.096C114.227 102.16 113.982 102.192 113.737 102.192ZM118.571 102.192C118.016 102.192 117.488 102.091 116.987 101.888C116.485 101.685 116.048 101.429 115.675 101.12L116.331 100.24C116.672 100.517 117.019 100.741 117.371 100.912C117.733 101.083 118.149 101.168 118.619 101.168C119.131 101.168 119.515 101.051 119.771 100.816C120.027 100.581 120.155 100.293 120.155 99.952C120.155 99.7493 120.101 99.5733 119.995 99.424C119.888 99.2747 119.749 99.1467 119.579 99.04C119.419 98.9227 119.232 98.8213 119.019 98.736C118.805 98.6507 118.592 98.5653 118.379 98.48C118.101 98.384 117.824 98.2773 117.547 98.16C117.269 98.032 117.019 97.8827 116.795 97.712C116.581 97.5307 116.405 97.3227 116.267 97.088C116.128 96.8533 116.059 96.5707 116.059 96.24C116.059 95.9307 116.117 95.6427 116.235 95.376C116.363 95.0987 116.539 94.864 116.763 94.672C116.997 94.4693 117.28 94.3147 117.611 94.208C117.941 94.0907 118.315 94.032 118.731 94.032C119.221 94.032 119.669 94.1173 120.075 94.288C120.491 94.4587 120.848 94.6667 121.147 94.912L120.523 95.744C120.256 95.5413 119.979 95.376 119.691 95.248C119.403 95.12 119.088 95.056 118.747 95.056C118.256 95.056 117.893 95.168 117.659 95.392C117.435 95.616 117.323 95.8773 117.323 96.176C117.323 96.3573 117.371 96.5173 117.467 96.656C117.563 96.784 117.691 96.9013 117.851 97.008C118.011 97.104 118.192 97.1947 118.395 97.28C118.608 97.3547 118.827 97.4347 119.051 97.52C119.328 97.6267 119.605 97.7387 119.883 97.856C120.171 97.9733 120.427 98.1227 120.651 98.304C120.875 98.4747 121.056 98.688 121.195 98.944C121.344 99.2 121.419 99.5093 121.419 99.872C121.419 100.192 121.355 100.491 121.227 100.768C121.109 101.045 120.928 101.291 120.683 101.504C120.448 101.717 120.149 101.883 119.787 102C119.435 102.128 119.029 102.192 118.571 102.192Z" fill="black"/>
<g filter="url(#filter0_d)">
<rect x="52" y="4" width="64" height="64" fill="#D8A1FF" stroke="white" stroke-width="8" stroke-linejoin="round"/>
<path d="M58.3333 10.3931H109.667V61.6067H58.3333V10.3931Z" fill="url(#paint0_radial)"/>
<path d="M58.3333 10.3931H109.667V61.6068H58.3333V10.3931ZM56 64H112V8H56V64ZM95.6199 34.9949C96.8099 34.9949 97.2299 34.9949 97.3466 34.947C97.3466 34.7795 97.3932 34.6598 97.3932 34.5401C97.3932 33.2478 96.7865 30.8547 94.3599 30.8547C92.1198 30.8547 91.1633 32.8649 90.9299 34.9949H95.6199V34.9949ZM90.8833 38.2734C90.93 41.5042 92.4233 43.682 95.97 43.682C97.3467 43.682 98.5366 43.4907 99.7734 42.9402C99.9367 42.8685 100.053 42.8924 100.053 43.1077V46.0992C100.053 46.3385 99.9834 46.4582 99.8201 46.5778C98.5834 47.2 97.0434 47.4872 95.1301 47.4872C88.9702 47.4872 86.6601 42.8206 86.6601 37.6275C86.6601 31.9796 89.5069 27.3608 94.5235 27.3608C99.6102 27.3608 101.384 31.7403 101.384 35.3061C101.384 36.4549 101.314 37.3882 101.197 37.8429C101.15 38.0343 101.08 38.1062 100.894 38.1541C100.427 38.2259 99.0501 38.3215 96.9968 38.3215H90.8833V38.2734ZM78.3768 35.8325C77.7234 33.176 76.1367 27.3846 75.5533 24.5846H75.5067C75.0167 27.3846 73.7333 32.123 72.7767 35.8325H78.3768V35.8325ZM71.8199 39.7094L69.9767 46.865C69.93 47.0563 69.86 47.1282 69.6266 47.1282H66.1966C65.9633 47.1282 65.9166 47.0564 65.9633 46.7693L72.5899 23.0051C72.7066 22.5744 72.7766 22.2393 72.8232 21.0428C72.8232 20.8753 72.8932 20.8035 73.0099 20.8035H77.9099C78.0732 20.8035 78.1432 20.8514 78.1899 21.0428L85.6099 46.8171C85.6565 47.0084 85.6099 47.1282 85.4232 47.1282H81.5733C81.3866 47.1282 81.2699 47.0564 81.2232 46.889L79.3099 39.7095H71.8199V39.7094Z" fill="#D8A1FF"/>
</g>
<defs>
<filter id="filter0_d" x="48" y="0" width="72" height="76" filterUnits="userSpaceOnUse" color-interpolation-filters="sRGB">
<feFlood flood-opacity="0" result="BackgroundImageFix"/>
<feColorMatrix in="SourceAlpha" type="matrix" values="0 0 0 0 0 0 0 0 0 0 0 0 0 0 0 0 0 0 127 0"/>
<feOffset dy="4"/>
<feColorMatrix type="matrix" values="0 0 0 0 0 0 0 0 0 0 0 0 0 0 0 0 0 0 0.2 0"/>
<feBlend mode="normal" in2="BackgroundImageFix" result="effect1_dropShadow"/>
<feBlend mode="normal" in="SourceGraphic" in2="effect1_dropShadow" result="shape"/>
</filter>
<radialGradient id="paint0_radial" cx="0" cy="0" r="1" gradientUnits="userSpaceOnUse" gradientTransform="translate(75.24 21.8701) scale(39.0133 38.7404)">
<stop stop-color="#442F55" stop-opacity="0.98"/>
<stop offset="1" stop-color="#12002C"/>
</radialGradient>
</defs>
</svg>
