<svg width="168" height="120" viewBox="0 0 168 120" fill="none" xmlns="http://www.w3.org/2000/svg">
<path d="M59.4355 96.128L58.9395 97.728H62.0915L61.5955 96.128C61.4035 95.5413 61.2222 94.96 61.0515 94.384C60.8808 93.7973 60.7102 93.2 60.5395 92.592H60.4755C60.3155 93.2 60.1502 93.7973 59.9795 94.384C59.8088 94.96 59.6275 95.5413 59.4355 96.128ZM56.2355 102L59.7875 91.504H61.2915L64.8435 102H63.4195L62.4275 98.8H58.6035L57.5955 102H56.2355ZM66.2026 102V94.224H67.2906L67.4026 95.344H67.4506C67.824 94.9707 68.2133 94.6613 68.6186 94.416C69.0346 94.16 69.5146 94.032 70.0586 94.032C70.88 94.032 71.4773 94.288 71.8506 94.8C72.2346 95.312 72.4266 96.0693 72.4266 97.072V102H71.1146V97.248C71.1146 96.512 70.9973 95.984 70.7626 95.664C70.528 95.3333 70.1546 95.168 69.6426 95.168C69.2373 95.168 68.88 95.2693 68.5706 95.472C68.2613 95.6747 67.9093 95.9733 67.5146 96.368V102H66.2026ZM74.9526 102V94.224H76.2646V102H74.9526ZM75.6246 92.624C75.3686 92.624 75.15 92.544 74.9686 92.384C74.798 92.224 74.7126 92.0213 74.7126 91.776C74.7126 91.52 74.798 91.3173 74.9686 91.168C75.15 91.008 75.3686 90.928 75.6246 90.928C75.8806 90.928 76.094 91.008 76.2646 91.168C76.446 91.3173 76.5366 91.52 76.5366 91.776C76.5366 92.0213 76.446 92.224 76.2646 92.384C76.094 92.544 75.8806 92.624 75.6246 92.624ZM78.8901 102V94.224H79.9781L80.0901 95.344H80.1381C80.4795 94.9707 80.8475 94.6613 81.2421 94.416C81.6475 94.16 82.0848 94.032 82.5541 94.032C83.1515 94.032 83.6155 94.1653 83.9461 94.432C84.2875 94.688 84.5381 95.0507 84.6981 95.52C85.1035 95.072 85.5088 94.7147 85.9141 94.448C86.3301 94.1707 86.7781 94.032 87.2581 94.032C88.0581 94.032 88.6501 94.288 89.0341 94.8C89.4288 95.312 89.6261 96.0693 89.6261 97.072V102H88.3141V97.248C88.3141 96.512 88.1968 95.984 87.9621 95.664C87.7275 95.3333 87.3648 95.168 86.8741 95.168C86.2875 95.168 85.6368 95.568 84.9221 96.368V102H83.6101V97.248C83.6101 96.512 83.4928 95.984 83.2581 95.664C83.0235 95.3333 82.6555 95.168 82.1541 95.168C81.5675 95.168 80.9168 95.568 80.2021 96.368V102H78.8901ZM93.9478 102.192C93.2971 102.192 92.7531 102 92.3158 101.616C91.8891 101.232 91.6758 100.688 91.6758 99.984C91.6758 99.1307 92.0544 98.48 92.8118 98.032C93.5691 97.5733 94.7798 97.2533 96.4438 97.072C96.4438 96.8267 96.4171 96.5867 96.3638 96.352C96.3211 96.1173 96.2411 95.9093 96.1238 95.728C96.0064 95.5467 95.8411 95.4027 95.6278 95.296C95.4251 95.1787 95.1638 95.12 94.8438 95.12C94.3958 95.12 93.9744 95.2053 93.5798 95.376C93.1851 95.5467 92.8331 95.7387 92.5238 95.952L92.0118 95.04C92.3744 94.8053 92.8171 94.5813 93.3398 94.368C93.8624 94.144 94.4384 94.032 95.0677 94.032C96.0171 94.032 96.7051 94.3253 97.1318 94.912C97.5584 95.488 97.7718 96.2613 97.7718 97.232V102H96.6838L96.5718 101.072H96.5238C96.1504 101.381 95.7504 101.648 95.3238 101.872C94.8971 102.085 94.4384 102.192 93.9478 102.192ZM94.3318 101.136C94.7051 101.136 95.0571 101.051 95.3878 100.88C95.7184 100.699 96.0704 100.437 96.4438 100.096V97.936C95.7931 98.0213 95.2438 98.1227 94.7958 98.24C94.3584 98.3573 94.0011 98.496 93.7238 98.656C93.4571 98.816 93.2598 99.0027 93.1318 99.216C93.0144 99.4187 92.9557 99.6427 92.9557 99.888C92.9557 100.336 93.0891 100.656 93.3558 100.848C93.6224 101.04 93.9478 101.136 94.3318 101.136ZM102.448 102.192C102.032 102.192 101.68 102.128 101.392 102C101.114 101.872 100.885 101.696 100.704 101.472C100.533 101.248 100.41 100.976 100.336 100.656C100.261 100.336 100.224 99.984 100.224 99.6V95.296H99.0715V94.304L100.288 94.224L100.448 92.048H101.552V94.224H103.648V95.296H101.552V99.616C101.552 100.096 101.637 100.469 101.808 100.736C101.989 100.992 102.304 101.12 102.752 101.12C102.89 101.12 103.04 101.099 103.2 101.056C103.36 101.013 103.504 100.965 103.632 100.912L103.888 101.904C103.674 101.979 103.44 102.043 103.184 102.096C102.938 102.16 102.693 102.192 102.448 102.192ZM108.339 102.192C107.816 102.192 107.326 102.101 106.867 101.92C106.419 101.728 106.024 101.461 105.683 101.12C105.352 100.768 105.091 100.341 104.899 99.84C104.707 99.3387 104.611 98.768 104.611 98.128C104.611 97.488 104.707 96.9173 104.899 96.416C105.102 95.904 105.363 95.472 105.683 95.12C106.014 94.768 106.387 94.5013 106.803 94.32C107.219 94.128 107.651 94.032 108.099 94.032C108.59 94.032 109.027 94.1173 109.411 94.288C109.806 94.4587 110.131 94.704 110.387 95.024C110.654 95.344 110.856 95.728 110.995 96.176C111.134 96.624 111.203 97.1253 111.203 97.68C111.203 97.8187 111.198 97.9573 111.187 98.096C111.187 98.224 111.176 98.336 111.155 98.432H105.907C105.96 99.264 106.216 99.9253 106.675 100.416C107.144 100.896 107.752 101.136 108.499 101.136C108.872 101.136 109.214 101.083 109.523 100.976C109.843 100.859 110.147 100.709 110.435 100.528L110.899 101.392C110.558 101.605 110.179 101.792 109.763 101.952C109.347 102.112 108.872 102.192 108.339 102.192ZM105.891 97.488H110.051C110.051 96.6987 109.88 96.1013 109.539 95.696C109.208 95.28 108.739 95.072 108.131 95.072C107.854 95.072 107.587 95.1253 107.331 95.232C107.086 95.3387 106.862 95.4987 106.659 95.712C106.456 95.9147 106.286 96.1653 106.147 96.464C106.019 96.7627 105.934 97.104 105.891 97.488Z" fill="black"/>
<g filter="url(#filter0_d)">
<rect x="52" y="4" width="64" height="64" fill="#FF401F" stroke="white" stroke-width="8" stroke-linejoin="round"/>
<path d="M58 10H110V62H58V10Z" fill="#260600"/>
<path d="M105.047 49.31V33.0241C105.047 28.1004 97.5266 24.7999 88.1121 28.6415V49.31H93.685V31.5091C96.6068 30.5352 100.015 30.968 100.015 33.4569V49.31H105.047ZM77.0744 19.1729H71.0145L62.6821 48.9854L67.3353 49.2559L69.6077 40.8695H78.5353L80.7536 49.2559H86.1102L77.0744 19.1729ZM70.7981 36.1622L73.9362 23.6637L77.2367 36.1622H70.7981Z" fill="#FF401F"/>
</g>
<defs>
<filter id="filter0_d" x="48" y="0" width="72" height="76" filterUnits="userSpaceOnUse" color-interpolation-filters="sRGB">
<feFlood flood-opacity="0" result="BackgroundImageFix"/>
<feColorMatrix in="SourceAlpha" type="matrix" values="0 0 0 0 0 0 0 0 0 0 0 0 0 0 0 0 0 0 127 0"/>
<feOffset dy="4"/>
<feColorMatrix type="matrix" values="0 0 0 0 0 0 0 0 0 0 0 0 0 0 0 0 0 0 0.2 0"/>
<feBlend mode="normal" in2="BackgroundImageFix" result="effect1_dropShadow"/>
<feBlend mode="normal" in="SourceGraphic" in2="effect1_dropShadow" result="shape"/>
</filter>
</defs>
</svg>
