<svg width="168" height="120" viewBox="0 0 168 120" fill="none" xmlns="http://www.w3.org/2000/svg">
<path d="M70.7056 102V91.504H73.8256C74.359 91.504 74.8443 91.552 75.2816 91.648C75.7296 91.744 76.1083 91.8933 76.4176 92.096C76.7376 92.2987 76.983 92.5653 77.1536 92.896C77.335 93.216 77.4256 93.6053 77.4256 94.064C77.4256 94.5867 77.2923 95.0613 77.0256 95.488C76.7696 95.904 76.391 96.192 75.8896 96.352V96.416C76.5296 96.5333 77.047 96.8 77.4416 97.216C77.8363 97.632 78.0336 98.2027 78.0336 98.928C78.0336 99.44 77.9376 99.888 77.7456 100.272C77.5536 100.656 77.2816 100.976 76.9296 101.232C76.5776 101.488 76.1563 101.68 75.6656 101.808C75.175 101.936 74.6363 102 74.0496 102H70.7056ZM72.0336 95.968H73.5856C74.4816 95.968 75.127 95.8133 75.5216 95.504C75.9163 95.1947 76.1136 94.7733 76.1136 94.24C76.1136 93.632 75.9056 93.2 75.4896 92.944C75.0843 92.688 74.471 92.56 73.6496 92.56H72.0336V95.968ZM72.0336 100.944H73.8576C74.7643 100.944 75.4683 100.779 75.9696 100.448C76.471 100.107 76.7216 99.584 76.7216 98.88C76.7216 98.2293 76.4763 97.7547 75.9856 97.456C75.495 97.1467 74.7856 96.992 73.8576 96.992H72.0336V100.944ZM80.1119 102V91.504H86.1599V92.624H81.4399V95.92H85.4239V97.056H81.4399V100.864H86.3199V102H80.1119ZM88.5494 102V91.504H90.1494L92.1654 97.104C92.2934 97.4667 92.416 97.8347 92.5334 98.208C92.6614 98.5707 92.7894 98.9333 92.9174 99.296H92.9814C93.1094 98.9333 93.2267 98.5707 93.3334 98.208C93.4507 97.8347 93.5734 97.4667 93.7014 97.104L95.6854 91.504H97.3014V102H96.0534V96.224C96.0534 95.7547 96.0747 95.2373 96.1174 94.672C96.16 94.1067 96.1974 93.5893 96.2294 93.12H96.1654L95.3334 95.504L93.3494 100.944H92.4694L90.4854 95.504L89.6534 93.12H89.5894C89.6214 93.5893 89.6534 94.1067 89.6854 94.672C89.728 95.2373 89.7494 95.7547 89.7494 96.224V102H88.5494Z" fill="black"/>
<g filter="url(#filter0_d)">
<mask id="path-2-outside-1" maskUnits="userSpaceOnUse" x="43" y="0" width="81" height="73" fill="black">
<rect fill="white" x="43" width="81" height="73"/>
<path fill-rule="evenodd" clip-rule="evenodd" d="M68.5269 24.6841H79.0619L79.0622 24.6844C84.7246 24.6844 88.6095 28.8363 88.6095 34.24V42.0158H71.8192V42.016H84.5928V56.3822H71.7534V56.3821H52V9H60.4938L68.5269 24.6841ZM79.3253 37.5349H82.2222V37.5347V36.0849H76.033V36.8099L79.3253 37.5349ZM88.6749 56.3816H116V64.2896H88.6749V56.3816Z"/>
</mask>
<path fill-rule="evenodd" clip-rule="evenodd" d="M68.5269 24.6841H79.0619L79.0622 24.6844C84.7246 24.6844 88.6095 28.8363 88.6095 34.24V42.0158H71.8192V42.016H84.5928V56.3822H71.7534V56.3821H52V9H60.4938L68.5269 24.6841ZM79.3253 37.5349H82.2222V37.5347V36.0849H76.033V36.8099L79.3253 37.5349ZM88.6749 56.3816H116V64.2896H88.6749V56.3816Z" fill="#010101"/>
<path d="M79.0619 24.6841L84.7188 19.0273C83.2185 17.527 81.1836 16.6841 79.0619 16.6841V24.6841ZM68.5269 24.6841L61.4065 28.331C62.7751 31.0032 65.5246 32.6841 68.5269 32.6841V24.6841ZM79.0622 24.6844L73.4053 30.3412C74.9056 31.8415 76.9404 32.6844 79.0622 32.6844V24.6844ZM88.6095 42.0158V50.0158C93.0277 50.0158 96.6095 46.4341 96.6095 42.0158H88.6095ZM71.8192 42.0158V34.0158C67.4009 34.0158 63.8192 37.5976 63.8192 42.0158H71.8192ZM71.8192 42.016H63.8192C63.8192 46.4343 67.4009 50.016 71.8192 50.016V42.016ZM84.5928 42.016H92.5928C92.5928 37.5977 89.0111 34.016 84.5928 34.016V42.016ZM84.5928 56.3822V64.3822C89.0111 64.3822 92.5928 60.8005 92.5928 56.3822H84.5928ZM71.7534 56.3822H63.7534C63.7534 60.8005 67.3352 64.3822 71.7534 64.3822V56.3822ZM71.7534 56.3821H79.7534C79.7534 51.9638 76.1717 48.3821 71.7534 48.3821V56.3821ZM52 56.3821H44C44 60.8004 47.5817 64.3821 52 64.3821V56.3821ZM52 9V1C47.5817 1 44 4.58172 44 9L52 9ZM60.4938 9L67.6142 5.35308C66.2456 2.68093 63.4961 1 60.4938 1V9ZM82.2222 37.5349V45.5349C86.6404 45.5349 90.2222 41.9532 90.2222 37.5349H82.2222ZM79.3253 37.5349L77.6047 45.3477C78.1698 45.4722 78.7467 45.5349 79.3253 45.5349V37.5349ZM82.2222 36.0849H90.2222C90.2222 31.6666 86.6404 28.0849 82.2222 28.0849V36.0849ZM76.033 36.0849V28.0849C71.6147 28.0849 68.033 31.6666 68.033 36.0849H76.033ZM76.033 36.8099H68.033C68.033 40.5652 70.645 43.8151 74.3124 44.6227L76.033 36.8099ZM116 56.3816H124C124 51.9633 120.418 48.3816 116 48.3816V56.3816ZM88.6749 56.3816V48.3816C84.2566 48.3816 80.6749 51.9633 80.6749 56.3816H88.6749ZM116 64.2896V72.2896C120.418 72.2896 124 68.7079 124 64.2896H116ZM88.6749 64.2896H80.6749C80.6749 68.7079 84.2566 72.2896 88.6749 72.2896V64.2896ZM79.0619 16.6841H68.5269V32.6841H79.0619V16.6841ZM84.719 19.0275L84.7188 19.0273L73.405 30.341L73.4053 30.3412L84.719 19.0275ZM96.6095 34.24C96.6095 24.5719 89.2952 16.6844 79.0622 16.6844V32.6844C79.8635 32.6844 80.1529 32.9407 80.2453 33.035C80.3608 33.1529 80.6095 33.4872 80.6095 34.24H96.6095ZM96.6095 42.0158V34.24H80.6095V42.0158H96.6095ZM71.8192 50.0158H88.6095V34.0158H71.8192V50.0158ZM79.8192 42.016V42.0158H63.8192V42.016H79.8192ZM71.8192 50.016H84.5928V34.016H71.8192V50.016ZM76.5928 42.016V56.3822H92.5928V42.016H76.5928ZM84.5928 48.3822H71.7534V64.3822H84.5928V48.3822ZM79.7534 56.3822V56.3821H63.7534V56.3822H79.7534ZM52 64.3821H71.7534V48.3821H52V64.3821ZM44 9V56.3821H60V9H44ZM60.4938 1H52V17H60.4938V1ZM75.6473 21.0372L67.6142 5.35308L53.3734 12.6469L61.4065 28.331L75.6473 21.0372ZM82.2222 29.5349H79.3253V45.5349H82.2222V29.5349ZM74.2222 37.5347V37.5349H90.2222V37.5347H74.2222ZM74.2222 36.0849V37.5347H90.2222V36.0849H74.2222ZM76.033 44.0849H82.2222V28.0849H76.033V44.0849ZM84.033 36.8099V36.0849H68.033V36.8099H84.033ZM81.0458 29.7222L77.7535 28.9971L74.3124 44.6227L77.6047 45.3477L81.0458 29.7222ZM116 48.3816H88.6749V64.3816H116V48.3816ZM124 64.2896V56.3816H108V64.2896H124ZM88.6749 72.2896H116V56.2896H88.6749V72.2896ZM80.6749 56.3816V64.2896H96.6749V56.3816H80.6749Z" fill="white" mask="url(#path-2-outside-1)"/>
<path d="M88.6748 56.3816H116V64.2896H88.6748V56.3816Z" fill="#010101"/>
<path d="M84.5928 56.3821V42.0159H71.7534V56.3821H84.5928Z" fill="#F7B334"/>
<path d="M79.0619 24.6841H68.5269L60.4938 9H52V56.3821H71.8192V42.0158H88.6095V34.24C88.6095 28.8363 84.7246 24.6844 79.0622 24.6844L79.0619 24.6841ZM82.2222 37.5349H79.3253L76.033 36.8099V36.0849H82.2222V37.5347V37.5349Z" fill="#010101"/>
</g>
<defs>
<filter id="filter0_d" x="44" y="1" width="79.9999" height="75.2896" filterUnits="userSpaceOnUse" color-interpolation-filters="sRGB">
<feFlood flood-opacity="0" result="BackgroundImageFix"/>
<feColorMatrix in="SourceAlpha" type="matrix" values="0 0 0 0 0 0 0 0 0 0 0 0 0 0 0 0 0 0 127 0"/>
<feOffset dy="4"/>
<feColorMatrix type="matrix" values="0 0 0 0 0 0 0 0 0 0 0 0 0 0 0 0 0 0 0.2 0"/>
<feBlend mode="normal" in2="BackgroundImageFix" result="effect1_dropShadow"/>
<feBlend mode="normal" in="SourceGraphic" in2="effect1_dropShadow" result="shape"/>
</filter>
</defs>
</svg>
