<svg width="168" height="120" viewBox="0 0 168 120" fill="none" xmlns="http://www.w3.org/2000/svg">
<path d="M51.8697 102V91.504H54.8617C55.4484 91.504 55.9817 91.5573 56.4617 91.664C56.9524 91.7707 57.3684 91.9467 57.7097 92.192C58.051 92.4267 58.3177 92.7413 58.5097 93.136C58.7017 93.5307 58.7977 94.016 58.7977 94.592C58.7977 95.1467 58.7017 95.6267 58.5097 96.032C58.3284 96.4373 58.067 96.7733 57.7257 97.04C57.3844 97.3067 56.9737 97.5093 56.4937 97.648C56.0244 97.776 55.5017 97.84 54.9257 97.84H53.1977V102H51.8697ZM53.1977 96.752H54.7657C55.683 96.752 56.3604 96.5813 56.7977 96.24C57.2457 95.888 57.4697 95.3387 57.4697 94.592C57.4697 93.8347 57.235 93.312 56.7657 93.024C56.307 92.7253 55.619 92.576 54.7017 92.576H53.1977V96.752ZM60.9322 102V91.504H62.2602V95.904H67.1402V91.504H68.4842V102H67.1402V97.056H62.2602V102H60.9322ZM71.3697 102V91.504H74.3617C74.9484 91.504 75.4817 91.5573 75.9617 91.664C76.4524 91.7707 76.8684 91.9467 77.2097 92.192C77.551 92.4267 77.8177 92.7413 78.0097 93.136C78.2017 93.5307 78.2977 94.016 78.2977 94.592C78.2977 95.1467 78.2017 95.6267 78.0097 96.032C77.8284 96.4373 77.567 96.7733 77.2257 97.04C76.8844 97.3067 76.4737 97.5093 75.9937 97.648C75.5244 97.776 75.0017 97.84 74.4257 97.84H72.6977V102H71.3697ZM72.6977 96.752H74.2657C75.183 96.752 75.8604 96.5813 76.2977 96.24C76.7457 95.888 76.9697 95.3387 76.9697 94.592C76.9697 93.8347 76.735 93.312 76.2657 93.024C75.807 92.7253 75.119 92.576 74.2017 92.576H72.6977V96.752ZM83.6353 102V91.504H86.7553C87.2886 91.504 87.774 91.552 88.2113 91.648C88.6593 91.744 89.038 91.8933 89.3473 92.096C89.6673 92.2987 89.9126 92.5653 90.0833 92.896C90.2646 93.216 90.3553 93.6053 90.3553 94.064C90.3553 94.5867 90.222 95.0613 89.9553 95.488C89.6993 95.904 89.3206 96.192 88.8193 96.352V96.416C89.4593 96.5333 89.9766 96.8 90.3713 97.216C90.766 97.632 90.9633 98.2027 90.9633 98.928C90.9633 99.44 90.8673 99.888 90.6753 100.272C90.4833 100.656 90.2113 100.976 89.8593 101.232C89.5073 101.488 89.086 101.68 88.5953 101.808C88.1046 101.936 87.566 102 86.9793 102H83.6353ZM84.9633 95.968H86.5153C87.4113 95.968 88.0566 95.8133 88.4513 95.504C88.846 95.1947 89.0433 94.7733 89.0433 94.24C89.0433 93.632 88.8353 93.2 88.4193 92.944C88.014 92.688 87.4006 92.56 86.5793 92.56H84.9633V95.968ZM84.9633 100.944H86.7873C87.694 100.944 88.398 100.779 88.8993 100.448C89.4006 100.107 89.6513 99.584 89.6513 98.88C89.6513 98.2293 89.406 97.7547 88.9153 97.456C88.4246 97.1467 87.7153 96.992 86.7873 96.992H84.9633V100.944ZM92.9136 102V94.224H94.2256V102H92.9136ZM93.5856 92.624C93.3296 92.624 93.1109 92.544 92.9296 92.384C92.7589 92.224 92.6736 92.0213 92.6736 91.776C92.6736 91.52 92.7589 91.3173 92.9296 91.168C93.1109 91.008 93.3296 90.928 93.5856 90.928C93.8416 90.928 94.0549 91.008 94.2256 91.168C94.4069 91.3173 94.4976 91.52 94.4976 91.776C94.4976 92.0213 94.4069 92.224 94.2256 92.384C94.0549 92.544 93.8416 92.624 93.5856 92.624ZM99.2991 102.192C98.8831 102.192 98.5311 102.128 98.2431 102C97.9657 101.872 97.7364 101.696 97.5551 101.472C97.3844 101.248 97.2617 100.976 97.1871 100.656C97.1124 100.336 97.0751 99.984 97.0751 99.6V95.296H95.9231V94.304L97.1391 94.224L97.2991 92.048H98.4031V94.224H100.499V95.296H98.4031V99.616C98.4031 100.096 98.4884 100.469 98.6591 100.736C98.8404 100.992 99.1551 101.12 99.6031 101.12C99.7417 101.12 99.8911 101.099 100.051 101.056C100.211 101.013 100.355 100.965 100.483 100.912L100.739 101.904C100.526 101.979 100.291 102.043 100.035 102.096C99.7897 102.16 99.5444 102.192 99.2991 102.192ZM102.257 102V94.224H103.345L103.457 95.632H103.505C103.772 95.1413 104.092 94.752 104.465 94.464C104.849 94.176 105.265 94.032 105.713 94.032C106.023 94.032 106.3 94.0853 106.545 94.192L106.289 95.344C106.161 95.3013 106.044 95.2693 105.937 95.248C105.831 95.2267 105.697 95.216 105.537 95.216C105.207 95.216 104.86 95.3493 104.497 95.616C104.145 95.8827 103.836 96.3467 103.569 97.008V102H102.257ZM107.804 102V94.224H109.116V102H107.804ZM108.476 92.624C108.22 92.624 108.002 92.544 107.82 92.384C107.65 92.224 107.564 92.0213 107.564 91.776C107.564 91.52 107.65 91.3173 107.82 91.168C108.002 91.008 108.22 90.928 108.476 90.928C108.732 90.928 108.946 91.008 109.116 91.168C109.298 91.3173 109.388 91.52 109.388 91.776C109.388 92.0213 109.298 92.224 109.116 92.384C108.946 92.544 108.732 92.624 108.476 92.624ZM110.654 102L113.198 97.936L110.846 94.224H112.27L113.31 95.936C113.427 96.1493 113.55 96.368 113.678 96.592C113.806 96.8053 113.939 97.0187 114.078 97.232H114.142C114.259 97.0187 114.376 96.8053 114.494 96.592C114.611 96.368 114.728 96.1493 114.846 95.936L115.79 94.224H117.166L114.814 98.08L117.342 102H115.918L114.782 100.192C114.643 99.9573 114.504 99.7227 114.366 99.488C114.227 99.2533 114.083 99.024 113.934 98.8H113.87C113.731 99.024 113.598 99.2533 113.47 99.488C113.342 99.712 113.214 99.9467 113.086 100.192L112.03 102H110.654Z" fill="black"/>
<g filter="url(#filter0_d)">
<path d="M70.1466 7.24848C70.436 7.09907 70.7357 6.95455 71.0008 6.83779C71.1281 6.7817 71.2894 6.71343 71.4587 6.65123C71.5399 6.62139 71.6723 6.57466 71.831 6.53003C71.8329 6.52949 71.8355 6.52872 71.8389 6.52774C71.9164 6.50536 72.3787 6.37183 72.9599 6.37183C73.5305 6.37183 74.0234 6.48512 74.4401 6.65206C74.9764 5.79291 75.8338 5.1439 76.8713 4.88662L77.5123 4.72764C77.5123 4.72764 77.5123 4.72764 77.5123 4.72764C78.1409 4.57176 79.828 4.32801 81.1363 4.16131C86.8238 3.43662 94.66 5.22542 99.9898 8.27027C107.312 12.4533 112.799 19.5943 115.085 27.8266C115.448 29.1318 115.711 30.1892 115.852 31.5161C115.984 32.7547 116 34.1481 116 36.1192C116 38.0834 115.984 39.4751 115.854 40.7075C115.715 42.03 115.455 43.0785 115.098 44.364C111.987 55.5565 103.988 63.6155 92.7498 66.986C90.1538 67.7645 88.76 67.8982 84.9162 67.9801C81.9057 68.0442 79.5829 67.9659 77.7858 67.5943C72.2334 66.4463 67.0193 63.8824 62.885 60.2161C52.3719 50.8931 49.1338 36.2188 54.667 23.2356C56.0794 19.9215 58.3194 16.671 61.0259 13.8915L63.1481 11.7119C64.2 10.6315 65.7619 10.241 67.186 10.6779C67.3644 9.40461 68.1488 8.28001 69.3122 7.67931L70.1466 7.24848ZM70.1466 7.24848L71.9818 10.8027L70.1466 7.24848ZM71.2464 41.6404L72.2096 41.3041L71.2464 41.6404C71.2464 41.6404 71.2464 41.6404 71.2464 41.6404Z" fill="#C60C30" stroke="white" stroke-width="8" stroke-linejoin="round"/>
</g>
<defs>
<filter id="filter0_d" x="48.0004" y="0.000976562" width="71.9997" height="75.9995" filterUnits="userSpaceOnUse" color-interpolation-filters="sRGB">
<feFlood flood-opacity="0" result="BackgroundImageFix"/>
<feColorMatrix in="SourceAlpha" type="matrix" values="0 0 0 0 0 0 0 0 0 0 0 0 0 0 0 0 0 0 127 0"/>
<feOffset dy="4"/>
<feColorMatrix type="matrix" values="0 0 0 0 0 0 0 0 0 0 0 0 0 0 0 0 0 0 0.2 0"/>
<feBlend mode="normal" in2="BackgroundImageFix" result="effect1_dropShadow"/>
<feBlend mode="normal" in="SourceGraphic" in2="effect1_dropShadow" result="shape"/>
</filter>
</defs>
</svg>
