<svg width="168" height="124" viewBox="0 0 168 124" fill="none" xmlns="http://www.w3.org/2000/svg">
<path d="M61.9713 106V95.504H64.5953C66.2166 95.504 67.4486 95.952 68.2913 96.848C69.1339 97.744 69.5553 99.0293 69.5553 100.704C69.5553 101.536 69.4486 102.283 69.2353 102.944C69.0219 103.595 68.7073 104.149 68.2913 104.608C67.8753 105.056 67.3633 105.403 66.7553 105.648C66.1473 105.883 65.4486 106 64.6593 106H61.9713ZM63.2993 104.912H64.4993C65.7259 104.912 66.6433 104.544 67.2513 103.808C67.8699 103.072 68.1793 102.037 68.1793 100.704C68.1793 99.3707 67.8699 98.352 67.2513 97.648C66.6433 96.944 65.7259 96.592 64.4993 96.592H63.2993V104.912ZM74.711 106.192C74.231 106.192 73.7723 106.101 73.335 105.92C72.9083 105.739 72.5297 105.477 72.199 105.136C71.8683 104.784 71.6017 104.357 71.399 103.856C71.207 103.344 71.111 102.768 71.111 102.128C71.111 101.477 71.207 100.901 71.399 100.4C71.6017 99.888 71.8683 99.456 72.199 99.104C72.5297 98.752 72.9083 98.4853 73.335 98.304C73.7723 98.1227 74.231 98.032 74.711 98.032C75.191 98.032 75.6443 98.1227 76.071 98.304C76.5083 98.4853 76.8923 98.752 77.223 99.104C77.5537 99.456 77.815 99.888 78.007 100.4C78.2097 100.901 78.311 101.477 78.311 102.128C78.311 102.768 78.2097 103.344 78.007 103.856C77.815 104.357 77.5537 104.784 77.223 105.136C76.8923 105.477 76.5083 105.739 76.071 105.92C75.6443 106.101 75.191 106.192 74.711 106.192ZM74.711 105.104C75.0417 105.104 75.3457 105.035 75.623 104.896C75.9003 104.747 76.135 104.544 76.327 104.288C76.5297 104.021 76.6843 103.707 76.791 103.344C76.8977 102.981 76.951 102.576 76.951 102.128C76.951 101.68 76.8977 101.275 76.791 100.912C76.6843 100.539 76.5297 100.219 76.327 99.952C76.135 99.6853 75.9003 99.4827 75.623 99.344C75.3457 99.1947 75.0417 99.12 74.711 99.12C74.3803 99.12 74.0763 99.1947 73.799 99.344C73.5217 99.4827 73.2817 99.6853 73.079 99.952C72.887 100.219 72.7377 100.539 72.631 100.912C72.5243 101.275 72.471 101.68 72.471 102.128C72.471 102.576 72.5243 102.981 72.631 103.344C72.7377 103.707 72.887 104.021 73.079 104.288C73.2817 104.544 73.5217 104.747 73.799 104.896C74.0763 105.035 74.3803 105.104 74.711 105.104ZM83.4309 106.192C82.9189 106.192 82.4389 106.101 81.9909 105.92C81.5429 105.739 81.1535 105.477 80.8229 105.136C80.5029 104.784 80.2469 104.357 80.0549 103.856C79.8735 103.344 79.7829 102.768 79.7829 102.128C79.7829 101.477 79.8842 100.901 80.0869 100.4C80.2895 99.888 80.5615 99.456 80.9029 99.104C81.2442 98.752 81.6389 98.4853 82.0869 98.304C82.5455 98.1227 83.0255 98.032 83.5269 98.032C84.0389 98.032 84.4762 98.1227 84.8389 98.304C85.2015 98.4853 85.5215 98.6987 85.7989 98.944L85.1269 99.808C84.9029 99.6053 84.6629 99.44 84.4069 99.312C84.1615 99.184 83.8842 99.12 83.5749 99.12C83.2229 99.12 82.8975 99.1947 82.5989 99.344C82.3002 99.4827 82.0442 99.6853 81.8309 99.952C81.6175 100.219 81.4469 100.539 81.3189 100.912C81.2015 101.275 81.1429 101.68 81.1429 102.128C81.1429 102.576 81.2015 102.981 81.3189 103.344C81.4362 103.707 81.5962 104.021 81.7989 104.288C82.0122 104.544 82.2682 104.747 82.5669 104.896C82.8655 105.035 83.1909 105.104 83.5429 105.104C83.9055 105.104 84.2362 105.029 84.5349 104.88C84.8442 104.72 85.1215 104.533 85.3669 104.32L85.9429 105.2C85.5909 105.509 85.2015 105.755 84.7749 105.936C84.3482 106.107 83.9002 106.192 83.4309 106.192ZM87.6558 106V94.608H88.9518V102.32H88.9998L92.3118 98.224H93.7678L91.1598 101.344L94.1198 106H92.6798L90.4078 102.256L88.9518 103.952V106H87.6558ZM98.4484 106.192C97.9257 106.192 97.435 106.101 96.9764 105.92C96.5284 105.728 96.1337 105.461 95.7924 105.12C95.4617 104.768 95.2004 104.341 95.0084 103.84C94.8164 103.339 94.7204 102.768 94.7204 102.128C94.7204 101.488 94.8164 100.917 95.0084 100.416C95.211 99.904 95.4724 99.472 95.7924 99.12C96.123 98.768 96.4964 98.5013 96.9124 98.32C97.3284 98.128 97.7604 98.032 98.2084 98.032C98.699 98.032 99.1364 98.1173 99.5204 98.288C99.915 98.4587 100.24 98.704 100.496 99.024C100.763 99.344 100.966 99.728 101.104 100.176C101.243 100.624 101.312 101.125 101.312 101.68C101.312 101.819 101.307 101.957 101.296 102.096C101.296 102.224 101.286 102.336 101.264 102.432H96.0164C96.0697 103.264 96.3257 103.925 96.7844 104.416C97.2537 104.896 97.8617 105.136 98.6084 105.136C98.9817 105.136 99.323 105.083 99.6324 104.976C99.9524 104.859 100.256 104.709 100.544 104.528L101.008 105.392C100.667 105.605 100.288 105.792 99.8724 105.952C99.4564 106.112 98.9817 106.192 98.4484 106.192ZM96.0004 101.488H100.16C100.16 100.699 99.9897 100.101 99.6484 99.696C99.3177 99.28 98.8484 99.072 98.2404 99.072C97.963 99.072 97.6964 99.1253 97.4404 99.232C97.195 99.3387 96.971 99.4987 96.7684 99.712C96.5657 99.9147 96.395 100.165 96.2564 100.464C96.1284 100.763 96.043 101.104 96.0004 101.488ZM103.234 106V98.224H104.322L104.434 99.632H104.482C104.749 99.1413 105.069 98.752 105.442 98.464C105.826 98.176 106.242 98.032 106.69 98.032C106.999 98.032 107.277 98.0853 107.522 98.192L107.266 99.344C107.138 99.3013 107.021 99.2693 106.914 99.248C106.807 99.2267 106.674 99.216 106.514 99.216C106.183 99.216 105.837 99.3493 105.474 99.616C105.122 99.8827 104.813 100.347 104.546 101.008V106H103.234Z" fill="black"/>
<g filter="url(#filter0_d)">
<mask id="path-2-outside-1" maskUnits="userSpaceOnUse" x="26" y="0" width="118" height="72" fill="black">
<rect fill="white" x="26" width="118" height="72"/>
<path fill-rule="evenodd" clip-rule="evenodd" d="M91.0317 25.684H99.8737V34.7228H104.344C106.409 34.7228 108.532 34.355 110.487 33.6926C111.448 33.3667 112.526 32.9135 113.474 32.3431C112.226 30.7136 111.589 28.656 111.402 26.6279C111.146 23.8689 111.703 20.2781 113.57 18.1188L114.5 17.0438L115.607 17.9344C118.396 20.1745 120.741 23.3051 121.154 26.8738C124.512 25.8862 128.454 26.1198 131.413 27.8278L132.628 28.5284L131.989 29.7759C129.486 34.6605 124.253 36.174 119.137 35.906C118.318 37.9448 117.397 39.8688 116.379 41.6793C119.909 42.0485 124.06 41.4128 126.334 38.7808C125.651 41.2918 129.288 42.1437 131.595 42.6841L131.595 42.6842C131.867 42.7478 132.12 42.8071 132.345 42.8642H115.689C107.068 57.1768 92.1762 64 74.6072 64C64.1666 64 54.5884 60.0972 49.1338 50.8345L49.0445 50.6837L48.2498 49.0665C47.35 47.0766 46.7434 44.994 46.4065 42.8642H34.0015C34.2268 42.8071 34.4797 42.7478 34.7509 42.6843L34.7511 42.6843L34.7512 42.6842C37.0588 42.1436 40.695 41.2916 40.0114 38.7812C41.5121 40.5175 43.8291 41.385 46.246 41.6682C46.0414 39.8175 46.0341 37.9382 46.2089 36.0596L46.3338 34.7228H53.8951V25.684H62.7367V16.842H80.421V8H91.0317V25.684ZM34.0015 42.8642L34 42.8646V42.8642H34.0015Z"/>
</mask>
<path fill-rule="evenodd" clip-rule="evenodd" d="M91.0317 25.684H99.8737V34.7228H104.344C106.409 34.7228 108.532 34.355 110.487 33.6926C111.448 33.3667 112.526 32.9135 113.474 32.3431C112.226 30.7136 111.589 28.656 111.402 26.6279C111.146 23.8689 111.703 20.2781 113.57 18.1188L114.5 17.0438L115.607 17.9344C118.396 20.1745 120.741 23.3051 121.154 26.8738C124.512 25.8862 128.454 26.1198 131.413 27.8278L132.628 28.5284L131.989 29.7759C129.486 34.6605 124.253 36.174 119.137 35.906C118.318 37.9448 117.397 39.8688 116.379 41.6793C119.909 42.0485 124.06 41.4128 126.334 38.7808C125.651 41.2918 129.288 42.1437 131.595 42.6841L131.595 42.6842C131.867 42.7478 132.12 42.8071 132.345 42.8642H115.689C107.068 57.1768 92.1762 64 74.6072 64C64.1666 64 54.5884 60.0972 49.1338 50.8345L49.0445 50.6837L48.2498 49.0665C47.35 47.0766 46.7434 44.994 46.4065 42.8642H34.0015C34.2268 42.8071 34.4797 42.7478 34.7509 42.6843L34.7511 42.6843L34.7512 42.6842C37.0588 42.1436 40.695 41.2916 40.0114 38.7812C41.5121 40.5175 43.8291 41.385 46.246 41.6682C46.0414 39.8175 46.0341 37.9382 46.2089 36.0596L46.3338 34.7228H53.8951V25.684H62.7367V16.842H80.421V8H91.0317V25.684ZM34.0015 42.8642L34 42.8646V42.8642H34.0015Z" fill="white"/>
<path d="M99.8737 25.684H107.874V17.684H99.8737V25.684ZM91.0317 25.684H83.0317V33.684H91.0317V25.684ZM99.8737 34.7228H91.8737V42.7228H99.8737V34.7228ZM110.487 33.6926L113.055 41.2696L113.057 41.2686L110.487 33.6926ZM113.474 32.3431L117.599 39.1976L125.267 34.5829L119.825 27.4782L113.474 32.3431ZM111.402 26.6279L119.368 25.8928L119.368 25.891L111.402 26.6279ZM113.57 18.1188L107.519 12.886L107.518 12.8865L113.57 18.1188ZM114.5 17.0438L119.513 10.8094L113.497 5.97231L108.448 11.811L114.5 17.0438ZM115.607 17.9344L110.594 24.1688L110.597 24.1711L115.607 17.9344ZM121.154 26.8738L113.207 27.7943L114.3 37.2287L123.412 34.5487L121.154 26.8738ZM131.413 27.8278L127.414 34.7565L127.415 34.7568L131.413 27.8278ZM132.628 28.5284L139.748 32.1749L143.216 25.4024L136.626 21.5994L132.628 28.5284ZM131.989 29.7759L139.108 33.4242L139.109 33.4223L131.989 29.7759ZM119.137 35.906L119.555 27.917L113.844 27.6178L111.713 32.9254L119.137 35.906ZM116.379 41.6793L109.405 37.7585L103.439 48.3696L115.547 49.6359L116.379 41.6793ZM126.334 38.7808L134.053 40.8823L120.281 33.5498L126.334 38.7808ZM131.595 42.6841L133.535 34.923L133.477 34.9085L133.419 34.895L131.595 42.6841ZM131.595 42.6842L129.655 50.4454L129.713 50.4598L129.771 50.4734L131.595 42.6842ZM132.345 42.8642V50.8642L134.311 35.1096L132.345 42.8642ZM115.689 42.8642V34.8642H111.169L108.836 38.7366L115.689 42.8642ZM49.1338 50.8345L56.0273 46.775L56.0222 46.7662L56.017 46.7575L49.1338 50.8345ZM49.0445 50.6837L41.8645 54.2118L42.0022 54.492L42.1613 54.7606L49.0445 50.6837ZM48.2498 49.0665L40.9605 52.3628L41.0133 52.4796L41.0698 52.5947L48.2498 49.0665ZM46.4065 42.8642L54.3082 41.6141L53.2403 34.8642H46.4065V42.8642ZM34.7509 42.6843L33.0561 34.8659L32.9908 34.88L32.9258 34.8953L34.7509 42.6843ZM34.7511 42.6843L36.4458 50.5027L36.6594 50.4564L36.87 50.3985L34.7511 42.6843ZM34.7512 42.6842L32.9261 34.8952L32.7785 34.9298L32.6322 34.97L34.7512 42.6842ZM40.0114 38.7812L46.064 33.5499L32.2925 40.883L40.0114 38.7812ZM46.246 41.6682L45.3149 49.6138L55.3024 50.7842L54.1975 40.7891L46.246 41.6682ZM46.2089 36.0596L38.2436 35.3153L38.2433 35.3183L46.2089 36.0596ZM46.3338 34.7228V26.7228H39.0464L38.3685 33.9786L46.3338 34.7228ZM53.8951 34.7228V42.7228H61.8951V34.7228H53.8951ZM53.8951 25.684V17.684H45.8951V25.684H53.8951ZM62.7367 25.684V33.684H70.7367V25.684H62.7367ZM62.7367 16.842V8.84198H54.7367V16.842H62.7367ZM80.421 16.842V24.842H88.421V16.842H80.421ZM80.421 8V0H72.421V8H80.421ZM91.0317 8H99.0317V0H91.0317V8ZM34 42.8646H26V53.1467L35.9666 50.6191L34 42.8646ZM34 42.8642V34.8642H26V42.8642H34ZM99.8737 17.684H91.0317V33.684H99.8737V17.684ZM107.874 34.7228V25.684H91.8737V34.7228H107.874ZM104.344 26.7228H99.8737V42.7228H104.344V26.7228ZM107.92 26.1157C106.749 26.5126 105.491 26.7228 104.344 26.7228V42.7228C107.327 42.7228 110.316 42.1974 113.055 41.2696L107.92 26.1157ZM109.349 25.4886C109.036 25.677 108.522 25.9117 107.917 26.1167L113.057 41.2686C114.375 40.8216 116.017 40.1499 117.599 39.1976L109.349 25.4886ZM103.435 27.363C103.721 30.4525 104.722 34.0736 107.123 37.208L119.825 27.4782C119.73 27.3536 119.457 26.8596 119.368 25.8928L103.435 27.363ZM107.518 12.8865C103.626 17.3888 103.084 23.5689 103.436 27.3647L119.368 25.891C119.312 25.2946 119.349 24.5516 119.495 23.9063C119.651 23.2097 119.817 23.1253 119.622 23.3512L107.518 12.8865ZM108.448 11.811L107.519 12.886L119.621 23.3516L120.551 22.2766L108.448 11.811ZM120.62 11.7L119.513 10.8094L109.487 23.2782L110.594 24.1688L120.62 11.7ZM129.101 25.9533C128.356 19.521 124.316 14.6693 120.617 11.6976L110.597 24.1711C112.475 25.6797 113.126 27.0891 113.207 27.7943L129.101 25.9533ZM135.412 20.899C130.218 17.9008 123.945 17.7139 118.897 19.1989L123.412 34.5487C125.078 34.0585 126.69 34.3387 127.414 34.7565L135.412 20.899ZM136.626 21.5994L135.412 20.8987L127.415 34.7568L128.629 35.4575L136.626 21.5994ZM139.109 33.4223L139.748 32.1749L125.507 24.882L124.868 26.1295L139.109 33.4223ZM118.718 43.8951C125.284 44.239 134.526 42.3667 139.108 33.4242L124.869 26.1276C124.571 26.7095 124.164 27.0934 123.428 27.4043C122.568 27.7679 121.256 28.0061 119.555 27.917L118.718 43.8951ZM123.352 45.6C124.546 43.4765 125.617 41.2377 126.561 38.8867L111.713 32.9254C111.02 34.652 110.247 36.2611 109.405 37.7585L123.352 45.6ZM120.281 33.5498C120.528 33.2645 120.575 33.422 119.883 33.5954C119.204 33.7656 118.247 33.831 117.211 33.7227L115.547 49.6359C119.914 50.0926 127.5 49.6666 132.387 44.0118L120.281 33.5498ZM133.419 34.895C132.813 34.7529 132.379 34.6492 131.988 34.5325C131.576 34.4098 131.499 34.3544 131.614 34.4159C131.659 34.4399 132.535 34.888 133.293 36.0792C133.708 36.7319 134.049 37.5513 134.186 38.4947C134.322 39.4322 134.224 40.2551 134.053 40.8823L118.615 36.6793C117.871 39.414 118.267 42.2695 119.794 44.6688C121.114 46.7429 122.915 47.9085 124.072 48.527C126.288 49.7115 128.881 50.2649 129.77 50.4733L133.419 34.895ZM133.535 34.9231L133.535 34.923L129.654 50.4453L129.655 50.4454L133.535 34.9231ZM134.311 35.1096C134.001 35.031 133.672 34.9542 133.42 34.895L129.771 50.4734C130.061 50.5414 130.238 50.5831 130.379 50.6188L134.311 35.1096ZM115.689 50.8642H132.345V34.8642H115.689V50.8642ZM74.6072 72C94.3275 72 112.166 64.2192 122.542 46.9918L108.836 38.7366C101.971 50.1344 90.025 56 74.6072 56V72ZM42.2402 54.8939C49.5209 67.2575 62.1922 72 74.6072 72V56C66.1411 56 59.6559 52.9368 56.0273 46.775L42.2402 54.8939ZM42.1613 54.7606L42.2506 54.9114L56.017 46.7575L55.9276 46.6067L42.1613 54.7606ZM41.0698 52.5947L41.8645 54.2118L56.2244 47.1555L55.4298 45.5384L41.0698 52.5947ZM38.5047 44.1143C38.9479 46.9151 39.7516 49.6895 40.9605 52.3628L55.5392 45.7703C54.9484 44.4638 54.539 43.0728 54.3082 41.6141L38.5047 44.1143ZM34.0015 50.8642H46.4065V34.8642H34.0015V50.8642ZM32.9258 34.8953C32.6735 34.9544 32.345 35.0311 32.0353 35.1096L35.9678 50.6188C36.1087 50.5831 36.2858 50.5413 36.5759 50.4734L32.9258 34.8953ZM33.0563 34.8658L33.0561 34.8659L36.4456 50.5027L36.4458 50.5027L33.0563 34.8658ZM32.6322 34.97L32.6321 34.97L36.87 50.3985L36.8701 50.3985L32.6322 34.97ZM32.2925 40.883C32.1217 40.2557 32.0233 39.4326 32.1597 38.4951C32.2971 37.5516 32.6376 36.7321 33.0529 36.0794C33.811 34.888 34.687 34.4399 34.732 34.4159C34.847 34.3544 34.7695 34.4098 34.3577 34.5326C33.9662 34.6493 33.5329 34.753 32.9261 34.8952L36.5762 50.4733C37.4659 50.2648 40.0579 49.7113 42.274 48.5268C43.431 47.9084 45.2322 46.7428 46.5519 44.6688C48.0786 42.2695 48.475 39.4141 47.7304 36.6794L32.2925 40.883ZM47.177 33.7225C46.5869 33.6534 46.2018 33.5326 46.0012 33.4445C45.8144 33.3625 45.9007 33.361 46.064 33.5499L33.9589 44.0125C37.2659 47.8387 41.8273 49.2051 45.3149 49.6138L47.177 33.7225ZM38.2433 35.3183C38.0211 37.7066 38.0271 40.1296 38.2944 42.5472L54.1975 40.7891C54.0556 39.5055 54.0471 38.1699 54.1745 36.8008L38.2433 35.3183ZM38.3685 33.9786L38.2436 35.3153L54.1742 36.8038L54.2991 35.467L38.3685 33.9786ZM53.8951 26.7228H46.3338V42.7228H53.8951V26.7228ZM45.8951 25.684V34.7228H61.8951V25.684H45.8951ZM62.7367 17.684H53.8951V33.684H62.7367V17.684ZM54.7367 16.842V25.684H70.7367V16.842H54.7367ZM80.421 8.84198H62.7367V24.842H80.421V8.84198ZM72.421 8V16.842H88.421V8H72.421ZM91.0317 0H80.421V16H91.0317V0ZM99.0317 25.684V8H83.0317V25.684H99.0317ZM35.9666 50.6191L35.9681 50.6187L32.0349 35.1097L32.0334 35.1101L35.9666 50.6191ZM26 42.8642V42.8646H42V42.8642H26ZM34.0015 34.8642H34V50.8642H34.0015V34.8642Z" fill="white" mask="url(#path-2-outside-1)"/>
<path fill-rule="evenodd" clip-rule="evenodd" d="M119.811 29.028C120.404 24.4202 116.956 20.8012 114.818 19.0828C112.353 21.9319 111.971 29.3988 115.837 32.5426C113.679 34.459 109.133 36.196 104.477 36.196H47.8104C47.3579 41.0555 48.211 45.5306 50.1595 49.3607L50.8041 50.5401C51.2122 51.2324 51.6583 51.9016 52.1401 52.5447C54.4699 52.6944 56.6179 52.7458 58.5831 52.7025H58.5838C62.4457 52.6174 65.5968 52.1611 67.985 51.3336C68.1538 51.2811 68.3364 51.2963 68.4943 51.376C68.6521 51.4557 68.7727 51.5937 68.8306 51.7608C68.8885 51.9278 68.8792 52.1109 68.8046 52.2712C68.73 52.4315 68.5959 52.5565 68.4308 52.6197C68.113 52.7303 67.782 52.8332 67.4401 52.931H67.439C65.5585 53.4681 63.5419 53.8293 60.9403 53.9898C61.095 53.9925 60.7795 54.013 60.7787 54.013C60.6901 54.0188 60.5788 54.0315 60.4898 54.0362C59.4659 54.0938 58.3607 54.1058 57.2308 54.1058C55.995 54.1058 54.7781 54.0826 53.4173 54.013L53.3825 54.0362C58.104 59.343 65.4866 62.5259 74.7408 62.5259C94.3257 62.5259 110.938 53.844 118.294 34.353C123.513 34.8886 128.529 33.5576 130.81 29.1038C127.176 27.0068 122.502 27.6753 119.811 29.028" fill="#22A0C8"/>
<path fill-rule="evenodd" clip-rule="evenodd" d="M119.811 29.028C120.404 24.4202 116.956 20.8012 114.818 19.0828C112.353 21.9319 111.97 29.3988 115.836 32.5426C113.679 34.459 109.132 36.196 104.477 36.196H51.1658C50.9346 43.6382 53.6963 49.2873 58.5824 52.7025H58.5836C62.4454 52.6174 65.5966 52.1611 67.9847 51.3336C68.1536 51.2811 68.3362 51.2963 68.494 51.376C68.6519 51.4558 68.7725 51.5937 68.8304 51.7608C68.8883 51.9279 68.879 52.1109 68.8044 52.2712C68.7297 52.4315 68.5957 52.5565 68.4306 52.6197C68.1127 52.7303 67.7817 52.8332 67.4399 52.931H67.4387C65.5583 53.4681 63.3685 53.8757 60.7668 54.0362C60.7661 54.0362 60.7038 53.9762 60.703 53.9762C67.3684 57.3953 77.0328 57.3829 88.1133 53.1267C100.538 48.3534 112.099 39.2601 120.166 28.8594C120.044 28.9143 119.926 28.9703 119.811 29.028" fill="#37B1D9"/>
<path fill-rule="evenodd" clip-rule="evenodd" d="M47.9165 42.1001C48.2684 44.7033 49.0302 47.1406 50.1593 49.3605L50.8039 50.5399C51.212 51.2322 51.658 51.9014 52.1399 52.5445C54.4701 52.6942 56.6181 52.7456 58.5836 52.7023C62.4455 52.6172 65.5966 52.1609 67.9848 51.3334C68.1536 51.2809 68.3363 51.2961 68.4941 51.3758C68.6519 51.4556 68.7725 51.5935 68.8304 51.7606C68.8883 51.9277 68.879 52.1107 68.8044 52.271C68.7298 52.4313 68.5957 52.5563 68.4306 52.6195C68.1128 52.7301 67.7818 52.833 67.4399 52.9308H67.4388C65.5583 53.4679 63.3801 53.8523 60.7785 54.0132C60.6892 54.0186 60.5333 54.0197 60.4432 54.0248C59.4201 54.082 58.3261 54.1172 57.1958 54.1172C55.9604 54.1172 54.6967 54.0936 53.3367 54.0244C58.0581 59.3313 65.4864 62.5257 74.7406 62.5257C91.5073 62.5257 106.095 56.1616 114.561 42.1001H47.9165Z" fill="#1B81A5"/>
<path fill-rule="evenodd" clip-rule="evenodd" d="M51.676 42.1001C52.6783 46.6707 55.087 50.2588 58.5838 52.7023C62.4456 52.6172 65.5968 52.1609 67.9849 51.3334C68.1538 51.2809 68.3364 51.2961 68.4942 51.3758C68.652 51.4556 68.7727 51.5935 68.8306 51.7606C68.8885 51.9277 68.8792 52.1107 68.8045 52.271C68.7299 52.4313 68.5959 52.5563 68.4308 52.6195C68.1129 52.7301 67.7819 52.833 67.4401 52.9308H67.4389C65.5585 53.4679 63.3343 53.8523 60.7322 54.0132C67.3972 57.4315 77.0338 57.3824 88.1135 53.1265C94.8164 50.5511 101.267 46.7175 107.055 42.1001H51.676Z" fill="#1D91B4"/>
<path fill-rule="evenodd" clip-rule="evenodd" d="M55.5015 27.1584H63.1648V34.8217H55.5015V27.1584ZM56.1399 27.7972H56.7447V34.1833H56.1399V27.7972ZM57.2767 27.7972H57.9059V34.1833H57.2771V27.7972H57.2767ZM58.4376 27.7972H59.0667V34.1833H58.4376V27.7972ZM59.5992 27.7972H60.2279V34.1833H59.5992V27.7972ZM60.7604 27.7972H61.3892V34.1833H60.7604V27.7972ZM61.9212 27.7972H62.5264V34.1833H61.9212V27.7972ZM64.3434 18.3164H72.0072V25.9794H64.3431V18.3164H64.3434ZM64.9823 18.9552H65.5866V25.341H64.9823V18.9552ZM66.1191 18.9552H66.7479V25.341H66.1195V18.9552H66.1191ZM67.2799 18.9552H67.9087V25.341H67.2799V18.9552ZM68.4412 18.9552H69.0699V25.341H68.4412V18.9552ZM69.6024 18.9552H70.2315V25.341H69.6024V18.9552ZM70.7632 18.9552H71.3688V25.341H70.7632V18.9552Z" fill="#23A3C2"/>
<path fill-rule="evenodd" clip-rule="evenodd" d="M64.3436 27.1575H72.0074V34.8208H64.3433V27.1575H64.3436ZM64.9825 27.7963H65.5868V34.1824H64.9825V27.7963ZM66.1193 27.7963H66.7481V34.1824H66.1197V27.7963H66.1193ZM67.2801 27.7963H67.9089V34.1824H67.2801V27.7963ZM68.4414 27.7963H69.0701V34.1824H68.4414V27.7963ZM69.6026 27.7963H70.2317V34.1824H69.6026V27.7963ZM70.7634 27.7963H71.369V34.1824H70.7634V27.7963Z" fill="#34BBDE"/>
<path fill-rule="evenodd" clip-rule="evenodd" d="M73.1858 27.1575H80.8492V34.8208H73.1858V27.1575ZM73.8242 27.7963H74.4286V34.1824H73.8242V27.7963ZM74.9611 27.7963H75.5898V34.1824H74.9611V27.7963ZM76.1223 27.7963H76.751V34.1824H76.1223V27.7963ZM77.2835 27.7963H77.9123V34.1824H77.2835V27.7963ZM78.4443 27.7963H79.0739V34.1824H78.4443V27.7963ZM79.6056 27.7963H80.2103V34.1824H79.6056V27.7963V27.7963Z" fill="#23A3C2"/>
<path fill-rule="evenodd" clip-rule="evenodd" d="M73.1858 18.3164H80.8492V25.9794H73.1858V18.3164ZM73.8242 18.9552H74.4286V25.341H73.8242V18.9552ZM74.9611 18.9552H75.5898V25.341H74.9611V18.9552ZM76.1223 18.9552H76.751V25.341H76.1223V18.9552ZM77.2835 18.9552H77.9123V25.341H77.2835V18.9552ZM78.4443 18.9552H79.0739V25.341H78.4443V18.9552ZM79.6056 18.9552H80.2103V25.341H79.6056V18.9552V18.9552ZM82.0278 27.1584H89.6911V34.8217H82.0278V27.1584ZM82.6666 27.7972H83.271V34.1833H82.6666V27.7972ZM83.8034 27.7972H84.4322V34.1833H83.8034V27.7972ZM84.9643 27.7972H85.593V34.1833H84.9643V27.7972ZM86.1255 27.7972H86.7546V34.1833H86.1255V27.7972ZM87.2867 27.7972H87.9159V34.1833H87.2867V27.7972ZM88.4479 27.7972H89.0527V34.1833H88.4479V27.7972Z" fill="#34BBDE"/>
<path fill-rule="evenodd" clip-rule="evenodd" d="M82.0278 18.3164H89.6912V25.9794H82.0278V18.3164ZM82.6666 18.9552H83.271V25.341H82.6666V18.9552ZM83.8035 18.9552H84.4322V25.341H83.8035V18.9552ZM84.9643 18.9552H85.5931V25.341H84.9643V18.9552ZM86.1256 18.9552H86.7547V25.341H86.1256V18.9552ZM87.2868 18.9552H87.9159V25.341H87.2868V18.9552ZM88.448 18.9552H89.0528V25.341H88.448V18.9552Z" fill="#23A3C2"/>
<path fill-rule="evenodd" clip-rule="evenodd" d="M82.0278 9.4729H89.6912V17.137H82.0278V9.4729ZM82.6666 10.1113H83.271V16.4978H82.6666V10.1109V10.1113ZM83.8035 10.1113H84.4322V16.4978H83.8035V10.1109V10.1113ZM84.9643 10.1113H85.5931V16.4978H84.9643V10.1109V10.1113ZM86.1256 10.1113H86.7547V16.4978H86.1256V10.1109V10.1113ZM87.2868 10.1113H87.9159V16.4978H87.2868V10.1109V10.1113ZM88.448 10.1113H89.0528V16.4978H88.448V10.1109V10.1113Z" fill="#34BBDE"/>
<path fill-rule="evenodd" clip-rule="evenodd" d="M90.8699 27.1575H98.5332V34.8208H90.8699V27.1575ZM91.5079 27.7963H92.1131V34.1824H91.5083V27.7963H91.5079ZM92.6448 27.7963H93.2739V34.1824H92.6451V27.7963H92.6448ZM93.8064 27.7963H94.4355V34.1824H93.8064V27.7963ZM94.9672 27.7963H95.5963V34.1824H94.9672V27.7963ZM96.1288 27.7963H96.7576V34.1824H96.1288V27.7963ZM97.2896 27.7963H97.8944V34.1824H97.2896V27.7963Z" fill="#23A3C2"/>
<path fill-rule="evenodd" clip-rule="evenodd" d="M71.5274 47.2458C71.8074 47.2421 72.0854 47.294 72.3452 47.3986C72.605 47.5032 72.8415 47.6584 73.0408 47.8551C73.2401 48.0518 73.3984 48.2862 73.5064 48.5446C73.6144 48.803 73.67 49.0803 73.67 49.3604C73.6699 49.6405 73.6142 49.9177 73.5061 50.1761C73.398 50.4345 73.2397 50.6688 73.0403 50.8655C72.8408 51.0621 72.6043 51.2172 72.3445 51.3217C72.0847 51.4262 71.8066 51.4781 71.5266 51.4742C70.9708 51.4666 70.4404 51.2404 70.0501 50.8447C69.6598 50.449 69.4411 49.9154 69.4412 49.3596C69.4413 48.8038 69.6602 48.2704 70.0507 47.8748C70.4411 47.4792 70.9716 47.2532 71.5274 47.2458Z" fill="#D3ECEC"/>
<path fill-rule="evenodd" clip-rule="evenodd" d="M71.5275 47.8448C71.7208 47.8448 71.9053 47.8812 72.0754 47.9473C71.958 48.0155 71.8663 48.1204 71.8145 48.2459C71.7627 48.3714 71.7536 48.5104 71.7887 48.6416C71.8239 48.7727 71.9012 48.8886 72.0088 48.9714C72.1164 49.0542 72.2482 49.0993 72.384 49.0996C72.6179 49.0996 72.8209 48.9701 72.9261 48.7783C73.0506 49.0783 73.0754 49.4104 72.9967 49.7255C72.918 50.0407 72.74 50.3221 72.4891 50.5283C72.2381 50.7346 71.9275 50.8546 71.6031 50.8707C71.2787 50.8869 70.9577 50.7982 70.6875 50.6179C70.4174 50.4376 70.2124 50.1752 70.1028 49.8694C69.9932 49.5636 69.9849 49.2307 70.079 48.9199C70.1732 48.609 70.3648 48.3367 70.6257 48.1431C70.8865 47.9495 71.2027 47.8449 71.5275 47.8448V47.8448ZM34.1333 42.8639H132.478C130.337 42.321 125.703 41.5871 126.468 38.7805C122.574 43.2862 113.184 41.9417 110.814 39.7202C108.175 43.5476 92.8119 42.0925 91.7404 39.1107C88.4319 42.9935 78.1804 42.9935 74.8719 39.1107C73.7996 42.0925 58.437 43.5476 55.7978 39.7198C53.4282 41.9417 44.0387 43.2862 40.1447 38.7809C40.9088 41.5871 36.2752 42.321 34.1333 42.8643" fill="#364548"/>
<path fill-rule="evenodd" clip-rule="evenodd" d="M77.147 62.4802C71.9113 59.9958 69.0378 56.6181 67.4388 52.9314C65.4938 53.4863 63.1563 53.8413 60.4398 53.9936C59.4166 54.0509 58.3401 54.0802 57.211 54.0802C55.9086 54.0802 54.5363 54.0416 53.0955 53.9654C57.8969 58.7642 63.8036 62.4586 74.7406 62.5259C75.548 62.5259 76.3493 62.5104 77.147 62.4802" fill="#BDD9D7"/>
<path fill-rule="evenodd" clip-rule="evenodd" d="M69.3836 56.3335C68.6594 55.3502 67.9567 54.1143 67.4401 52.9307C65.4951 53.4863 63.1568 53.8413 60.4399 53.9941C62.3061 55.0068 64.9746 55.9453 69.384 56.3335" fill="#D3ECEC"/>
</g>
<defs>
<filter id="filter0_d" x="26" y="0" width="117.216" height="76" filterUnits="userSpaceOnUse" color-interpolation-filters="sRGB">
<feFlood flood-opacity="0" result="BackgroundImageFix"/>
<feColorMatrix in="SourceAlpha" type="matrix" values="0 0 0 0 0 0 0 0 0 0 0 0 0 0 0 0 0 0 127 0"/>
<feOffset dy="4"/>
<feColorMatrix type="matrix" values="0 0 0 0 0 0 0 0 0 0 0 0 0 0 0 0 0 0 0.2 0"/>
<feBlend mode="normal" in2="BackgroundImageFix" result="effect1_dropShadow"/>
<feBlend mode="normal" in="SourceGraphic" in2="effect1_dropShadow" result="shape"/>
</filter>
</defs>
</svg>
