<svg width="168" height="126" viewBox="0 0 168 126" fill="none" xmlns="http://www.w3.org/2000/svg">
<path d="M40.7759 106.474V95.9776H46.8239V97.0976H42.1039V100.394H46.0879V101.53H42.1039V105.338H46.9839V106.474H40.7759ZM50.4774 106.666C49.9761 106.666 49.6188 106.516 49.4054 106.218C49.1921 105.919 49.0854 105.482 49.0854 104.906V95.0816H50.3974V105.002C50.3974 105.215 50.4348 105.364 50.5094 105.45C50.5841 105.535 50.6694 105.578 50.7654 105.578C50.8081 105.578 50.8454 105.578 50.8774 105.578C50.9201 105.578 50.9788 105.567 51.0534 105.546L51.2294 106.538C51.1441 106.58 51.0428 106.612 50.9254 106.634C50.8081 106.655 50.6588 106.666 50.4774 106.666ZM54.9556 106.666C54.3049 106.666 53.7609 106.474 53.3236 106.09C52.8969 105.706 52.6836 105.162 52.6836 104.458C52.6836 103.604 53.0622 102.954 53.8196 102.506C54.5769 102.047 55.7876 101.727 57.4516 101.546C57.4516 101.3 57.4249 101.06 57.3716 100.826C57.3289 100.591 57.2489 100.383 57.1316 100.202C57.0142 100.02 56.8489 99.8763 56.6356 99.7696C56.4329 99.6523 56.1716 99.5936 55.8516 99.5936C55.4036 99.5936 54.9822 99.679 54.5876 99.8496C54.1929 100.02 53.8409 100.212 53.5316 100.426L53.0196 99.5136C53.3822 99.279 53.8249 99.055 54.3476 98.8416C54.8702 98.6176 55.4462 98.5056 56.0756 98.5056C57.0249 98.5056 57.7129 98.799 58.1396 99.3856C58.5662 99.9616 58.7796 100.735 58.7796 101.706V106.474H57.6916L57.5796 105.546H57.5316C57.1582 105.855 56.7582 106.122 56.3316 106.346C55.9049 106.559 55.4462 106.666 54.9556 106.666ZM55.3396 105.61C55.7129 105.61 56.0649 105.524 56.3956 105.354C56.7262 105.172 57.0782 104.911 57.4516 104.57V102.41C56.8009 102.495 56.2516 102.596 55.8036 102.714C55.3662 102.831 55.0089 102.97 54.7316 103.13C54.4649 103.29 54.2676 103.476 54.1396 103.69C54.0222 103.892 53.9636 104.116 53.9636 104.362C53.9636 104.81 54.0969 105.13 54.3636 105.322C54.6302 105.514 54.9556 105.61 55.3396 105.61ZM63.2581 106.666C62.7034 106.666 62.1754 106.564 61.6741 106.362C61.1727 106.159 60.7354 105.903 60.3621 105.594L61.0181 104.714C61.3594 104.991 61.7061 105.215 62.0581 105.386C62.4207 105.556 62.8367 105.642 63.3061 105.642C63.8181 105.642 64.2021 105.524 64.4581 105.29C64.7141 105.055 64.8421 104.767 64.8421 104.426C64.8421 104.223 64.7887 104.047 64.6821 103.898C64.5754 103.748 64.4367 103.62 64.2661 103.514C64.1061 103.396 63.9194 103.295 63.7061 103.21C63.4927 103.124 63.2794 103.039 63.0661 102.954C62.7887 102.858 62.5114 102.751 62.2341 102.634C61.9567 102.506 61.7061 102.356 61.4821 102.186C61.2687 102.004 61.0927 101.796 60.9541 101.562C60.8154 101.327 60.7461 101.044 60.7461 100.714C60.7461 100.404 60.8047 100.116 60.9221 99.8496C61.0501 99.5723 61.2261 99.3376 61.4501 99.1456C61.6847 98.943 61.9674 98.7883 62.2981 98.6816C62.6287 98.5643 63.0021 98.5056 63.4181 98.5056C63.9087 98.5056 64.3567 98.591 64.7621 98.7616C65.1781 98.9323 65.5354 99.1403 65.8341 99.3856L65.2101 100.218C64.9434 100.015 64.6661 99.8496 64.3781 99.7216C64.0901 99.5936 63.7754 99.5296 63.4341 99.5296C62.9434 99.5296 62.5807 99.6416 62.3461 99.8656C62.1221 100.09 62.0101 100.351 62.0101 100.65C62.0101 100.831 62.0581 100.991 62.1541 101.13C62.2501 101.258 62.3781 101.375 62.5381 101.482C62.6981 101.578 62.8794 101.668 63.0821 101.754C63.2954 101.828 63.5141 101.908 63.7381 101.994C64.0154 102.1 64.2927 102.212 64.5701 102.33C64.8581 102.447 65.1141 102.596 65.3381 102.778C65.5621 102.948 65.7434 103.162 65.8821 103.418C66.0314 103.674 66.1061 103.983 66.1061 104.346C66.1061 104.666 66.0421 104.964 65.9141 105.242C65.7967 105.519 65.6154 105.764 65.3701 105.978C65.1354 106.191 64.8367 106.356 64.4741 106.474C64.1221 106.602 63.7167 106.666 63.2581 106.666ZM70.0647 106.666C69.6487 106.666 69.2967 106.602 69.0087 106.474C68.7314 106.346 68.502 106.17 68.3207 105.946C68.15 105.722 68.0274 105.45 67.9527 105.13C67.878 104.81 67.8407 104.458 67.8407 104.074V99.7696H66.6887V98.7776L67.9047 98.6976L68.0647 96.5216H69.1687V98.6976H71.2647V99.7696H69.1687V104.09C69.1687 104.57 69.254 104.943 69.4247 105.21C69.606 105.466 69.9207 105.594 70.3687 105.594C70.5074 105.594 70.6567 105.572 70.8167 105.53C70.9767 105.487 71.1207 105.439 71.2487 105.386L71.5047 106.378C71.2914 106.452 71.0567 106.516 70.8007 106.57C70.5554 106.634 70.31 106.666 70.0647 106.666ZM73.0229 106.474V98.6976H74.3349V106.474H73.0229ZM73.6949 97.0976C73.4389 97.0976 73.2203 97.0176 73.0389 96.8576C72.8683 96.6976 72.7829 96.495 72.7829 96.2496C72.7829 95.9936 72.8683 95.791 73.0389 95.6416C73.2203 95.4816 73.4389 95.4016 73.6949 95.4016C73.9509 95.4016 74.1643 95.4816 74.3349 95.6416C74.5163 95.791 74.6069 95.9936 74.6069 96.2496C74.6069 96.495 74.5163 96.6976 74.3349 96.8576C74.1643 97.0176 73.9509 97.0976 73.6949 97.0976ZM80.0324 106.666C79.5204 106.666 79.0404 106.575 78.5924 106.394C78.1444 106.212 77.7551 105.951 77.4244 105.61C77.1044 105.258 76.8484 104.831 76.6564 104.33C76.4751 103.818 76.3844 103.242 76.3844 102.602C76.3844 101.951 76.4858 101.375 76.6884 100.874C76.8911 100.362 77.1631 99.9296 77.5044 99.5776C77.8458 99.2256 78.2404 98.959 78.6884 98.7776C79.1471 98.5963 79.6271 98.5056 80.1284 98.5056C80.6404 98.5056 81.0778 98.5963 81.4404 98.7776C81.8031 98.959 82.1231 99.1723 82.4004 99.4176L81.7284 100.282C81.5044 100.079 81.2644 99.9136 81.0084 99.7856C80.7631 99.6576 80.4858 99.5936 80.1764 99.5936C79.8244 99.5936 79.4991 99.6683 79.2004 99.8176C78.9018 99.9563 78.6458 100.159 78.4324 100.426C78.2191 100.692 78.0484 101.012 77.9204 101.386C77.8031 101.748 77.7444 102.154 77.7444 102.602C77.7444 103.05 77.8031 103.455 77.9204 103.818C78.0378 104.18 78.1978 104.495 78.4004 104.762C78.6138 105.018 78.8698 105.22 79.1684 105.37C79.4671 105.508 79.7924 105.578 80.1444 105.578C80.5071 105.578 80.8378 105.503 81.1364 105.354C81.4458 105.194 81.7231 105.007 81.9684 104.794L82.5444 105.674C82.1924 105.983 81.8031 106.228 81.3764 106.41C80.9498 106.58 80.5018 106.666 80.0324 106.666ZM87.2973 106.666C86.5613 106.666 85.8786 106.527 85.2493 106.25C84.62 105.972 84.076 105.594 83.6173 105.114L84.4173 104.186C84.7906 104.58 85.228 104.9 85.7293 105.146C86.2413 105.38 86.7693 105.498 87.3133 105.498C88.0066 105.498 88.5453 105.343 88.9293 105.034C89.3133 104.714 89.5053 104.298 89.5053 103.786C89.5053 103.519 89.4573 103.295 89.3613 103.114C89.276 102.922 89.1533 102.762 88.9933 102.634C88.844 102.495 88.6626 102.372 88.4493 102.266C88.236 102.159 88.0066 102.047 87.7613 101.93L86.2573 101.274C86.012 101.167 85.7613 101.039 85.5053 100.89C85.2493 100.74 85.02 100.559 84.8173 100.346C84.6146 100.132 84.4493 99.8816 84.3213 99.5936C84.1933 99.295 84.1293 98.9536 84.1293 98.5696C84.1293 98.175 84.2093 97.807 84.3693 97.4656C84.54 97.1243 84.7693 96.831 85.0573 96.5856C85.356 96.3296 85.7026 96.1323 86.0973 95.9936C86.5026 95.855 86.9453 95.7856 87.4253 95.7856C88.0546 95.7856 88.636 95.9083 89.1693 96.1536C89.7026 96.3883 90.156 96.6976 90.5293 97.0816L89.8093 97.9456C89.4893 97.6363 89.132 97.3963 88.7373 97.2256C88.3533 97.0443 87.916 96.9536 87.4253 96.9536C86.8386 96.9536 86.364 97.0923 86.0013 97.3696C85.6493 97.6363 85.4733 98.0096 85.4733 98.4896C85.4733 98.7456 85.5213 98.9643 85.6173 99.1456C85.724 99.3163 85.8626 99.471 86.0333 99.6096C86.204 99.7376 86.3906 99.855 86.5933 99.9616C86.796 100.058 87.004 100.148 87.2173 100.234L88.7053 100.874C89.004 101.002 89.2866 101.151 89.5533 101.322C89.82 101.482 90.0493 101.674 90.2413 101.898C90.4333 102.111 90.5826 102.367 90.6893 102.666C90.8066 102.954 90.8653 103.29 90.8653 103.674C90.8653 104.09 90.78 104.479 90.6093 104.842C90.4493 105.204 90.2146 105.524 89.9053 105.802C89.596 106.068 89.2226 106.282 88.7853 106.442C88.348 106.591 87.852 106.666 87.2973 106.666ZM95.9562 106.666C95.4335 106.666 94.9429 106.575 94.4842 106.394C94.0362 106.202 93.6415 105.935 93.3002 105.594C92.9695 105.242 92.7082 104.815 92.5162 104.314C92.3242 103.812 92.2282 103.242 92.2282 102.602C92.2282 101.962 92.3242 101.391 92.5162 100.89C92.7189 100.378 92.9802 99.9456 93.3002 99.5936C93.6309 99.2416 94.0042 98.975 94.4202 98.7936C94.8362 98.6016 95.2682 98.5056 95.7162 98.5056C96.2069 98.5056 96.6442 98.591 97.0282 98.7616C97.4229 98.9323 97.7482 99.1776 98.0042 99.4976C98.2709 99.8176 98.4735 100.202 98.6122 100.65C98.7509 101.098 98.8202 101.599 98.8202 102.154C98.8202 102.292 98.8149 102.431 98.8042 102.57C98.8042 102.698 98.7935 102.81 98.7722 102.906H93.5242C93.5775 103.738 93.8335 104.399 94.2922 104.89C94.7615 105.37 95.3695 105.61 96.1162 105.61C96.4895 105.61 96.8309 105.556 97.1402 105.45C97.4602 105.332 97.7642 105.183 98.0522 105.002L98.5162 105.866C98.1749 106.079 97.7962 106.266 97.3802 106.426C96.9642 106.586 96.4895 106.666 95.9562 106.666ZM93.5082 101.962H97.6682C97.6682 101.172 97.4975 100.575 97.1562 100.17C96.8255 99.7536 96.3562 99.5456 95.7482 99.5456C95.4709 99.5456 95.2042 99.599 94.9482 99.7056C94.7029 99.8123 94.4789 99.9723 94.2762 100.186C94.0735 100.388 93.9029 100.639 93.7642 100.938C93.6362 101.236 93.5509 101.578 93.5082 101.962ZM102.315 106.666C101.664 106.666 101.12 106.474 100.683 106.09C100.256 105.706 100.043 105.162 100.043 104.458C100.043 103.604 100.422 102.954 101.179 102.506C101.936 102.047 103.147 101.727 104.811 101.546C104.811 101.3 104.784 101.06 104.731 100.826C104.688 100.591 104.608 100.383 104.491 100.202C104.374 100.02 104.208 99.8763 103.995 99.7696C103.792 99.6523 103.531 99.5936 103.211 99.5936C102.763 99.5936 102.342 99.679 101.947 99.8496C101.552 100.02 101.2 100.212 100.891 100.426L100.379 99.5136C100.742 99.279 101.184 99.055 101.707 98.8416C102.23 98.6176 102.806 98.5056 103.435 98.5056C104.384 98.5056 105.072 98.799 105.499 99.3856C105.926 99.9616 106.139 100.735 106.139 101.706V106.474H105.051L104.939 105.546H104.891C104.518 105.855 104.118 106.122 103.691 106.346C103.264 106.559 102.806 106.666 102.315 106.666ZM102.699 105.61C103.072 105.61 103.424 105.524 103.755 105.354C104.086 105.172 104.438 104.911 104.811 104.57V102.41C104.16 102.495 103.611 102.596 103.163 102.714C102.726 102.831 102.368 102.97 102.091 103.13C101.824 103.29 101.627 103.476 101.499 103.69C101.382 103.892 101.323 104.116 101.323 104.362C101.323 104.81 101.456 105.13 101.723 105.322C101.99 105.514 102.315 105.61 102.699 105.61ZM108.585 106.474V98.6976H109.673L109.785 100.106H109.833C110.1 99.615 110.42 99.2256 110.793 98.9376C111.177 98.6496 111.593 98.5056 112.041 98.5056C112.351 98.5056 112.628 98.559 112.873 98.6656L112.617 99.8176C112.489 99.775 112.372 99.743 112.265 99.7216C112.159 99.7003 112.025 99.6896 111.865 99.6896C111.535 99.6896 111.188 99.823 110.825 100.09C110.473 100.356 110.164 100.82 109.897 101.482V106.474H108.585ZM117.048 106.666C116.536 106.666 116.056 106.575 115.608 106.394C115.16 106.212 114.771 105.951 114.44 105.61C114.12 105.258 113.864 104.831 113.672 104.33C113.491 103.818 113.4 103.242 113.4 102.602C113.4 101.951 113.501 101.375 113.704 100.874C113.907 100.362 114.179 99.9296 114.52 99.5776C114.861 99.2256 115.256 98.959 115.704 98.7776C116.163 98.5963 116.643 98.5056 117.144 98.5056C117.656 98.5056 118.093 98.5963 118.456 98.7776C118.819 98.959 119.139 99.1723 119.416 99.4176L118.744 100.282C118.52 100.079 118.28 99.9136 118.024 99.7856C117.779 99.6576 117.501 99.5936 117.192 99.5936C116.84 99.5936 116.515 99.6683 116.216 99.8176C115.917 99.9563 115.661 100.159 115.448 100.426C115.235 100.692 115.064 101.012 114.936 101.386C114.819 101.748 114.76 102.154 114.76 102.602C114.76 103.05 114.819 103.455 114.936 103.818C115.053 104.18 115.213 104.495 115.416 104.762C115.629 105.018 115.885 105.22 116.184 105.37C116.483 105.508 116.808 105.578 117.16 105.578C117.523 105.578 117.853 105.503 118.152 105.354C118.461 105.194 118.739 105.007 118.984 104.794L119.56 105.674C119.208 105.983 118.819 106.228 118.392 106.41C117.965 106.58 117.517 106.666 117.048 106.666ZM121.273 106.474V95.0816H122.585V98.1856L122.537 99.7856C122.91 99.4336 123.3 99.135 123.705 98.8896C124.11 98.6336 124.585 98.5056 125.129 98.5056C125.95 98.5056 126.548 98.7616 126.921 99.2736C127.305 99.7856 127.497 100.543 127.497 101.546V106.474H126.185V101.722C126.185 100.986 126.068 100.458 125.833 100.138C125.598 99.807 125.225 99.6416 124.713 99.6416C124.308 99.6416 123.95 99.743 123.641 99.9456C123.332 100.148 122.98 100.447 122.585 100.842V106.474H121.273Z" fill="black"/>
<g filter="url(#filter0_d)">
<path d="M117.246 39.1225C117.246 39.1084 117.246 39.0943 117.246 39.0801C117.246 33.3924 114.308 28.2926 109.663 25.5708C109.702 25.0176 109.722 24.4628 109.721 23.9075C109.719 12.5116 100.897 3 89.705 3C84.1616 3 78.9535 5.38379 75.2248 9.51035C73.724 8.83407 72.0954 8.48742 70.4262 8.48742C63.6693 8.48742 58.3771 14.2115 58.3771 21.0129C58.3771 21.5618 58.4121 22.1083 58.4789 22.6465C53.8731 25.373 51 30.5438 51 36.0775C51 41.7617 53.9376 46.9119 58.6311 49.6454C58.5928 50.1895 58.5738 50.7403 58.5738 51.2975C58.5738 62.6436 67.3966 72.1579 78.541 72.1579C84.136 72.1579 89.2999 69.7308 93.0064 65.6502C94.5187 66.3457 96.1748 66.7223 97.8689 66.7223C104.626 66.7223 109.918 60.9979 109.918 54.1968C109.918 53.6353 109.881 53.0764 109.812 52.5263C114.319 49.7793 117.231 44.6533 117.246 39.1225Z" fill="white" stroke="white" stroke-width="6" stroke-linejoin="round"/>
<path d="M77.5572 33.1265L90.9836 39.5978L104.557 27.0697C104.755 26.03 104.854 24.9721 104.852 23.9117C104.852 15.1112 98.0655 7.96704 89.7048 7.96704C84.6883 7.96704 80.0164 10.5554 77.2131 14.9039L74.9507 27.2251L77.5572 33.1267V33.1265Z" fill="#F4BD19"/>
<path d="M63.6392 48.0877C63.4426 49.1231 63.3442 50.2102 63.3442 51.2974C63.3442 60.0979 70.1802 67.2939 78.5409 67.2939C83.6066 67.2939 88.2788 64.6537 91.131 60.305L93.3442 47.9841L90.3442 41.9788L76.8688 35.5078L63.6392 48.0877V48.0877Z" fill="#3CBEB1"/>
<path d="M63.5411 23.6013L72.7379 25.8792L74.8033 14.8523C73.5247 13.8169 72 13.2993 70.3771 13.2993C66.3934 13.2993 63.0984 16.716 63.0984 20.9611C63.0984 21.8412 63.246 22.773 63.5409 23.6013H63.5411Z" fill="#E9478C"/>
<path d="M62.754 25.9307C58.623 27.3285 55.7705 31.5219 55.7705 36.0775C55.7705 40.5298 58.377 44.516 62.3115 46.069L75.246 33.7478L72.8852 28.416L62.754 25.9309V25.9307Z" fill="#2C458F"/>
<path d="M93.4919 60.2539C94.7705 61.2896 96.2952 61.8589 97.869 61.8589C101.853 61.8589 105.148 58.4423 105.148 54.1971C105.148 53.2653 105 52.385 104.705 51.5567L95.5084 49.2791L93.4919 60.2539V60.2539Z" fill="#95C63D"/>
<path d="M95.3609 46.7421L105.492 49.2272C109.623 47.7778 112.476 43.6362 112.476 39.0803C112.476 34.6281 109.869 30.6939 105.935 29.0891L92.656 41.3065L95.3609 46.7424V46.7421Z" fill="#176655"/>
</g>
<defs>
<filter id="filter0_d" x="48" y="0" width="72.2462" height="79.1579" filterUnits="userSpaceOnUse" color-interpolation-filters="sRGB">
<feFlood flood-opacity="0" result="BackgroundImageFix"/>
<feColorMatrix in="SourceAlpha" type="matrix" values="0 0 0 0 0 0 0 0 0 0 0 0 0 0 0 0 0 0 127 0"/>
<feOffset dy="4"/>
<feColorMatrix type="matrix" values="0 0 0 0 0 0 0 0 0 0 0 0 0 0 0 0 0 0 0.2 0"/>
<feBlend mode="normal" in2="BackgroundImageFix" result="effect1_dropShadow"/>
<feBlend mode="normal" in="SourceGraphic" in2="effect1_dropShadow" result="shape"/>
</filter>
</defs>
</svg>
