<svg width="168" height="128" viewBox="0 0 168 128" fill="none" xmlns="http://www.w3.org/2000/svg">
<path d="M64.8228 110V99.504H70.8708V100.624H66.1508V104.176H70.1508V105.296H66.1508V110H64.8228ZM72.6011 110V102.224H73.9131V110H72.6011ZM73.2731 100.624C73.0171 100.624 72.7984 100.544 72.6171 100.384C72.4464 100.224 72.3611 100.021 72.3611 99.776C72.3611 99.52 72.4464 99.3173 72.6171 99.168C72.7984 99.008 73.0171 98.928 73.2731 98.928C73.5291 98.928 73.7424 99.008 73.9131 99.168C74.0944 99.3173 74.1851 99.52 74.1851 99.776C74.1851 100.021 74.0944 100.224 73.9131 100.384C73.7424 100.544 73.5291 100.624 73.2731 100.624ZM79.1626 113.584C78.6826 113.584 78.2452 113.536 77.8506 113.44C77.4559 113.355 77.1146 113.221 76.8266 113.04C76.5492 112.859 76.3306 112.64 76.1706 112.384C76.0212 112.128 75.9466 111.829 75.9466 111.488C75.9466 111.157 76.0479 110.843 76.2506 110.544C76.4532 110.245 76.7306 109.973 77.0826 109.728V109.664C76.8906 109.547 76.7252 109.387 76.5866 109.184C76.4586 108.971 76.3946 108.709 76.3946 108.4C76.3946 108.069 76.4852 107.781 76.6666 107.536C76.8479 107.291 77.0399 107.099 77.2426 106.96V106.896C76.9866 106.683 76.7519 106.4 76.5386 106.048C76.3359 105.685 76.2346 105.269 76.2346 104.8C76.2346 104.373 76.3092 103.989 76.4586 103.648C76.6186 103.307 76.8319 103.019 77.0986 102.784C77.3652 102.539 77.6746 102.352 78.0266 102.224C78.3892 102.096 78.7679 102.032 79.1626 102.032C79.3759 102.032 79.5732 102.053 79.7546 102.096C79.9466 102.128 80.1172 102.171 80.2666 102.224H82.9706V103.232H81.3706C81.5519 103.413 81.7012 103.643 81.8186 103.92C81.9466 104.197 82.0106 104.501 82.0106 104.832C82.0106 105.248 81.9359 105.627 81.7866 105.968C81.6372 106.299 81.4346 106.581 81.1786 106.816C80.9226 107.04 80.6186 107.216 80.2666 107.344C79.9252 107.472 79.5572 107.536 79.1626 107.536C78.9706 107.536 78.7732 107.515 78.5706 107.472C78.3679 107.419 78.1759 107.349 77.9946 107.264C77.8559 107.381 77.7386 107.515 77.6426 107.664C77.5466 107.803 77.4986 107.979 77.4986 108.192C77.4986 108.437 77.5946 108.64 77.7866 108.8C77.9786 108.96 78.3412 109.04 78.8746 109.04H80.3786C81.2852 109.04 81.9626 109.189 82.4106 109.488C82.8692 109.776 83.0986 110.245 83.0986 110.896C83.0986 111.259 83.0079 111.6 82.8266 111.92C82.6452 112.251 82.3839 112.539 82.0426 112.784C81.7012 113.029 81.2852 113.221 80.7946 113.36C80.3146 113.509 79.7706 113.584 79.1626 113.584ZM79.1626 106.656C79.3866 106.656 79.5946 106.613 79.7866 106.528C79.9892 106.443 80.1652 106.32 80.3146 106.16C80.4746 106 80.5972 105.808 80.6826 105.584C80.7679 105.349 80.8106 105.088 80.8106 104.8C80.8106 104.224 80.6506 103.781 80.3306 103.472C80.0106 103.152 79.6212 102.992 79.1626 102.992C78.7039 102.992 78.3146 103.152 77.9946 103.472C77.6746 103.781 77.5146 104.224 77.5146 104.8C77.5146 105.088 77.5572 105.349 77.6426 105.584C77.7279 105.808 77.8452 106 77.9946 106.16C78.1546 106.32 78.3306 106.443 78.5226 106.528C78.7252 106.613 78.9386 106.656 79.1626 106.656ZM79.3546 112.672C79.7279 112.672 80.0639 112.624 80.3626 112.528C80.6719 112.443 80.9332 112.325 81.1466 112.176C81.3599 112.037 81.5252 111.872 81.6426 111.68C81.7599 111.488 81.8186 111.291 81.8186 111.088C81.8186 110.725 81.6852 110.475 81.4186 110.336C81.1519 110.197 80.7626 110.128 80.2506 110.128H78.9066C78.7572 110.128 78.5919 110.117 78.4106 110.096C78.2399 110.085 78.0692 110.053 77.8986 110C77.6212 110.203 77.4186 110.416 77.2906 110.64C77.1626 110.864 77.0986 111.088 77.0986 111.312C77.0986 111.728 77.2959 112.059 77.6906 112.304C78.0959 112.549 78.6506 112.672 79.3546 112.672ZM84.6011 110V102.224H85.6891L85.8011 103.344H85.8491C86.1904 102.971 86.5584 102.661 86.9531 102.416C87.3584 102.16 87.7957 102.032 88.2651 102.032C88.8624 102.032 89.3264 102.165 89.6571 102.432C89.9984 102.688 90.2491 103.051 90.4091 103.52C90.8144 103.072 91.2197 102.715 91.6251 102.448C92.0411 102.171 92.4891 102.032 92.9691 102.032C93.7691 102.032 94.3611 102.288 94.7451 102.8C95.1397 103.312 95.3371 104.069 95.3371 105.072V110H94.0251V105.248C94.0251 104.512 93.9077 103.984 93.6731 103.664C93.4384 103.333 93.0757 103.168 92.5851 103.168C91.9984 103.168 91.3477 103.568 90.6331 104.368V110H89.3211V105.248C89.3211 104.512 89.2037 103.984 88.9691 103.664C88.7344 103.333 88.3664 103.168 87.8651 103.168C87.2784 103.168 86.6277 103.568 85.9131 104.368V110H84.6011ZM99.6587 110.192C99.008 110.192 98.464 110 98.0267 109.616C97.6 109.232 97.3867 108.688 97.3867 107.984C97.3867 107.131 97.7654 106.48 98.5227 106.032C99.28 105.573 100.491 105.253 102.155 105.072C102.155 104.827 102.128 104.587 102.075 104.352C102.032 104.117 101.952 103.909 101.835 103.728C101.717 103.547 101.552 103.403 101.339 103.296C101.136 103.179 100.875 103.12 100.555 103.12C100.107 103.12 99.6854 103.205 99.2907 103.376C98.896 103.547 98.544 103.739 98.2347 103.952L97.7227 103.04C98.0854 102.805 98.528 102.581 99.0507 102.368C99.5734 102.144 100.149 102.032 100.779 102.032C101.728 102.032 102.416 102.325 102.843 102.912C103.269 103.488 103.483 104.261 103.483 105.232V110H102.395L102.283 109.072H102.235C101.861 109.381 101.461 109.648 101.035 109.872C100.608 110.085 100.149 110.192 99.6587 110.192ZM100.043 109.136C100.416 109.136 100.768 109.051 101.099 108.88C101.429 108.699 101.781 108.437 102.155 108.096V105.936C101.504 106.021 100.955 106.123 100.507 106.24C100.069 106.357 99.712 106.496 99.4347 106.656C99.168 106.816 98.9707 107.003 98.8427 107.216C98.7254 107.419 98.6667 107.643 98.6667 107.888C98.6667 108.336 98.8 108.656 99.0667 108.848C99.3334 109.04 99.6587 109.136 100.043 109.136Z" fill="black"/>
<g filter="url(#filter0_d)">
<mask id="path-2-outside-1" maskUnits="userSpaceOnUse" x="56" y="0" width="59" height="80" fill="black">
<rect fill="white" x="56" width="59" height="80"/>
<path fill-rule="evenodd" clip-rule="evenodd" d="M74.6666 8C68.7786 8 64 12.7787 64 18.6667C64 24.5547 68.7786 29.3333 74.6666 29.3333H85.3332V8H74.6666ZM64 39.9999C64 34.112 68.7786 29.3333 74.6666 29.3333H85.3332V50.6666H74.6666C68.7786 50.6666 64 45.8879 64 39.9999ZM74.6666 71.9999C80.5546 71.9999 85.3332 67.2212 85.3332 61.3333V50.6667H74.6666C68.7786 50.6667 64 55.4453 64 61.3333C64 67.2212 68.7786 71.9999 74.6666 71.9999ZM85.3334 8H96.0001C101.888 8 106.667 12.7787 106.667 18.6667C106.667 24.5547 101.888 29.3333 96.0001 29.3333H85.3334V8ZM96.0001 50.6666C101.888 50.6666 106.667 45.8879 106.667 39.9999C106.667 34.112 101.888 29.3333 96.0001 29.3333C90.112 29.3333 85.3334 34.112 85.3334 39.9999C85.3334 45.8879 90.112 50.6666 96.0001 50.6666Z"/>
</mask>
<path fill-rule="evenodd" clip-rule="evenodd" d="M74.6666 8C68.7786 8 64 12.7787 64 18.6667C64 24.5547 68.7786 29.3333 74.6666 29.3333H85.3332V8H74.6666ZM64 39.9999C64 34.112 68.7786 29.3333 74.6666 29.3333H85.3332V50.6666H74.6666C68.7786 50.6666 64 45.8879 64 39.9999ZM74.6666 71.9999C80.5546 71.9999 85.3332 67.2212 85.3332 61.3333V50.6667H74.6666C68.7786 50.6667 64 55.4453 64 61.3333C64 67.2212 68.7786 71.9999 74.6666 71.9999ZM85.3334 8H96.0001C101.888 8 106.667 12.7787 106.667 18.6667C106.667 24.5547 101.888 29.3333 96.0001 29.3333H85.3334V8ZM96.0001 50.6666C101.888 50.6666 106.667 45.8879 106.667 39.9999C106.667 34.112 101.888 29.3333 96.0001 29.3333C90.112 29.3333 85.3334 34.112 85.3334 39.9999C85.3334 45.8879 90.112 50.6666 96.0001 50.6666Z" fill="#2BBDFB"/>
<path d="M85.3332 29.3333V37.3333H93.3332V29.3333H85.3332ZM85.3332 8H93.3332V0H85.3332V8ZM85.3332 29.3333H93.3332V21.3333H85.3332V29.3333ZM85.3332 50.6666V58.6666H93.3332V50.6666H85.3332ZM85.3332 50.6667H93.3332V42.6667H85.3332V50.6667ZM85.3334 8V0H77.3334V8H85.3334ZM85.3334 29.3333H77.3334V37.3333H85.3334V29.3333ZM72 18.6667C72 17.1969 73.197 16 74.6666 16V0C64.3603 0 56 8.36042 56 18.6667H72ZM74.6666 21.3333C73.197 21.3333 72 20.1364 72 18.6667H56C56 28.9729 64.3603 37.3333 74.6666 37.3333V21.3333ZM85.3332 21.3333H74.6666V37.3333H85.3332V21.3333ZM77.3332 8V29.3333H93.3332V8H77.3332ZM74.6666 16H85.3332V0H74.6666V16ZM74.6666 21.3333C64.3604 21.3333 56 29.6937 56 39.9999H72C72 38.5303 73.1969 37.3333 74.6666 37.3333V21.3333ZM85.3332 21.3333H74.6666V37.3333H85.3332V21.3333ZM93.3332 50.6666V29.3333H77.3332V50.6666H93.3332ZM74.6666 58.6666H85.3332V42.6666H74.6666V58.6666ZM56 39.9999C56 50.3062 64.3604 58.6666 74.6666 58.6666V42.6666C73.1969 42.6666 72 41.4696 72 39.9999H56ZM77.3332 61.3333C77.3332 62.803 76.1363 63.9999 74.6666 63.9999V79.9999C84.9729 79.9999 93.3332 71.6395 93.3332 61.3333H77.3332ZM77.3332 50.6667V61.3333H93.3332V50.6667H77.3332ZM74.6666 58.6667H85.3332V42.6667H74.6666V58.6667ZM72 61.3333C72 59.8636 73.1969 58.6667 74.6666 58.6667V42.6667C64.3604 42.6667 56 51.027 56 61.3333H72ZM74.6666 63.9999C73.1969 63.9999 72 62.803 72 61.3333H56C56 71.6395 64.3604 79.9999 74.6666 79.9999V63.9999ZM96.0001 0H85.3334V16H96.0001V0ZM114.667 18.6667C114.667 8.36035 106.306 0 96.0001 0V16C97.4698 16 98.6668 17.197 98.6668 18.6667H114.667ZM96.0001 37.3333C106.306 37.3333 114.667 28.973 114.667 18.6667H98.6668C98.6668 20.1363 97.4698 21.3333 96.0001 21.3333V37.3333ZM85.3334 37.3333H96.0001V21.3333H85.3334V37.3333ZM77.3334 8V29.3333H93.3334V8H77.3334ZM98.6668 39.9999C98.6668 41.4696 97.4699 42.6666 96.0001 42.6666V58.6666C106.306 58.6666 114.667 50.3063 114.667 39.9999H98.6668ZM96.0001 37.3333C97.4699 37.3333 98.6668 38.5303 98.6668 39.9999H114.667C114.667 29.6936 106.306 21.3333 96.0001 21.3333V37.3333ZM93.3334 39.9999C93.3334 38.5303 94.5303 37.3333 96.0001 37.3333V21.3333C85.6938 21.3333 77.3334 29.6936 77.3334 39.9999H93.3334ZM96.0001 42.6666C94.5303 42.6666 93.3334 41.4696 93.3334 39.9999H77.3334C77.3334 50.3063 85.6938 58.6666 96.0001 58.6666V42.6666Z" fill="white" mask="url(#path-2-outside-1)"/>
<path d="M74.6666 72C80.5546 72 85.3332 67.2213 85.3332 61.3334V50.6667H74.6666C68.7786 50.6667 64 55.4454 64 61.3334C64 67.2213 68.7786 72 74.6666 72Z" fill="#24CE85"/>
<path d="M64 39.9999C64 34.1119 68.7786 29.3333 74.6666 29.3333H85.3332V50.6665H74.6666C68.7786 50.6665 64 45.8878 64 39.9999Z" fill="#A160FB"/>
<path d="M64 18.6667C64 12.7787 68.7786 8 74.6666 8H85.3332V29.3333H74.6666C68.7786 29.3333 64 24.5547 64 18.6667Z" fill="#F04F2B"/>
<path d="M85.3335 8.00049H96.0002C101.888 8.00049 106.667 12.7792 106.667 18.6671C106.667 24.5551 101.888 29.3338 96.0002 29.3338H85.3335V8.00049Z" fill="#FD7366"/>
<path d="M106.667 39.9999C106.667 45.8878 101.888 50.6665 96.0002 50.6665C90.1122 50.6665 85.3335 45.8878 85.3335 39.9999C85.3335 34.1119 90.1122 29.3333 96.0002 29.3333C101.888 29.3333 106.667 34.1119 106.667 39.9999Z" fill="#2BBDFB"/>
</g>
<defs>
<filter id="filter0_d" x="56" y="0" width="58.6668" height="84.9999" filterUnits="userSpaceOnUse" color-interpolation-filters="sRGB">
<feFlood flood-opacity="0" result="BackgroundImageFix"/>
<feColorMatrix in="SourceAlpha" type="matrix" values="0 0 0 0 0 0 0 0 0 0 0 0 0 0 0 0 0 0 127 0"/>
<feOffset dy="5"/>
<feColorMatrix type="matrix" values="0 0 0 0 0 0 0 0 0 0 0 0 0 0 0 0 0 0 0.2 0"/>
<feBlend mode="normal" in2="BackgroundImageFix" result="effect1_dropShadow"/>
<feBlend mode="normal" in="SourceGraphic" in2="effect1_dropShadow" result="shape"/>
</filter>
</defs>
</svg>
