<svg width="168" height="120" viewBox="0 0 168 120" fill="none" xmlns="http://www.w3.org/2000/svg">
<path d="M78.2399 102.192C77.5465 102.192 76.9065 102.069 76.3199 101.824C75.7439 101.579 75.2479 101.227 74.8319 100.768C74.4159 100.299 74.0905 99.728 73.8559 99.056C73.6212 98.3733 73.5039 97.6053 73.5039 96.752C73.5039 95.9093 73.6212 95.152 73.8559 94.48C74.1012 93.808 74.4372 93.2373 74.8639 92.768C75.2905 92.2987 75.7972 91.9413 76.3839 91.696C76.9812 91.44 77.6265 91.312 78.3199 91.312C78.6825 91.312 79.0132 91.3493 79.3119 91.424C79.6212 91.4987 79.8985 91.6 80.1439 91.728C80.3999 91.8453 80.6239 91.984 80.8159 92.144C81.0185 92.2933 81.1945 92.448 81.3439 92.608L80.6079 93.472C80.3412 93.1947 80.0319 92.96 79.6799 92.768C79.3279 92.576 78.8852 92.48 78.3519 92.48C77.8185 92.48 77.3385 92.5813 76.9119 92.784C76.4852 92.976 76.1225 93.2587 75.8239 93.632C75.5252 93.9947 75.2905 94.4373 75.1199 94.96C74.9599 95.4827 74.8799 96.0693 74.8799 96.72C74.8799 97.3813 74.9545 97.9787 75.1039 98.512C75.2639 99.0347 75.4879 99.4827 75.7759 99.856C76.0745 100.229 76.4372 100.517 76.8639 100.72C77.3012 100.923 77.8025 101.024 78.3679 101.024C78.7412 101.024 79.0932 100.971 79.4239 100.864C79.7652 100.747 80.0425 100.592 80.2559 100.4V97.664H78.0319V96.56H81.4719V100.976C81.1305 101.328 80.6825 101.621 80.1279 101.856C79.5732 102.08 78.9439 102.192 78.2399 102.192ZM83.9869 102V91.504H85.3149V102H83.9869ZM90.366 102V92.624H87.198V91.504H94.878V92.624H91.71V102H90.366Z" fill="black"/>
<g filter="url(#filter0_d)">
<path d="M88.077 21.601L86.706 22.9676L87.7446 24.0091L89.2373 25.506C89.3628 24.9024 89.3574 24.2766 89.2189 23.6716C89.0395 22.8876 88.6438 22.1701 88.077 21.601ZM88.077 21.601C87.5132 21.0355 86.8028 20.6395 86.0261 20.4581C85.4283 20.3184 84.8097 20.3102 84.2122 20.4312L86.7054 22.967L88.077 21.601ZM114.625 30.6822L114.624 30.6812L90.2419 6.23248C90.2418 6.2323 90.2416 6.23213 90.2414 6.23195C89.5366 5.52515 88.6994 4.96387 87.7771 4.5807C86.8545 4.19742 85.8653 4 84.8661 4C83.8668 4 82.8776 4.19742 81.9551 4.5807C81.0327 4.96391 80.1953 5.52528 79.4905 6.23219C79.4904 6.23229 79.4903 6.23238 79.4902 6.23248L74.7726 10.9637L74.7724 10.9636L71.9398 13.8038L55.2215 30.5677L55.2215 30.5677C54.5165 31.2746 53.9578 32.1133 53.5769 33.0355C53.1959 33.9576 53 34.9457 53 35.9432C53 36.9407 53.1959 37.9287 53.5769 38.8509C53.9578 39.7731 54.5165 40.6118 55.2215 41.3187L79.6044 65.7684L79.6048 65.7688C81.0285 67.1961 82.9617 68 84.9798 68C86.9979 68 88.9311 67.1961 90.3549 65.7688L90.3552 65.7684L114.624 41.4328L114.625 41.4318C116.048 40.0041 116.845 38.0707 116.845 36.057C116.845 34.0433 116.048 32.1098 114.625 30.6822ZM84.9477 47.6805L85.0583 47.635L85.1683 47.6895C85.1975 47.704 85.2246 47.723 85.2488 47.7463C85.2735 47.772 85.2937 47.8028 85.308 47.8372C85.3229 47.8733 85.3307 47.9125 85.3307 47.9523C85.3307 47.9921 85.3229 48.0312 85.308 48.0674C85.293 48.1036 85.2714 48.1357 85.2449 48.1623L85.2446 48.1626C85.1342 48.2733 84.9646 48.2701 84.8598 48.1648L84.8566 48.1616C84.8233 48.1282 84.7979 48.0863 84.7836 48.0389C84.7693 47.9915 84.7668 47.941 84.7766 47.8922C84.7863 47.8434 84.8078 47.7987 84.838 47.762C84.8683 47.7252 84.9061 47.6976 84.9477 47.6805ZM96.418 36.1812L96.4661 36.0641L96.5866 36.0225C96.6373 36.005 96.6942 36.0019 96.745 36.0131C96.788 36.0226 96.8268 36.0415 96.8675 36.0823L96.8709 36.0857C96.8972 36.1121 96.9187 36.1441 96.9336 36.18C96.9484 36.216 96.9562 36.255 96.9562 36.2946C96.9562 36.3342 96.9484 36.3731 96.9336 36.4091C96.9187 36.4451 96.8972 36.4771 96.8709 36.5035L96.8687 36.5057C96.8222 36.5523 96.7628 36.5797 96.7014 36.5859C96.6401 36.592 96.5775 36.5768 96.5242 36.5411C96.4706 36.5053 96.4287 36.4503 96.4085 36.3838C96.3882 36.3171 96.3917 36.2452 96.418 36.1812Z" stroke="white" stroke-width="8"/>
<path d="M111.792 33.5058L87.4091 9.05654C87.0752 8.72158 86.6788 8.45587 86.2424 8.27459C85.8061 8.09331 85.3384 8 84.8661 8C84.3938 8 83.9261 8.09331 83.4897 8.27459C83.0534 8.45587 82.6569 8.72158 82.323 9.05654L77.2599 14.1343L83.6827 20.5744C84.4377 20.317 85.2495 20.2767 86.0261 20.4581C86.8028 20.6395 87.5132 21.0355 88.077 21.601C88.6438 22.1701 89.0395 22.8876 89.2189 23.6716C89.3984 24.4555 89.3543 25.2743 89.0918 26.0343L95.2808 32.2416C96.7784 31.7244 98.5067 32.0592 99.7023 33.2603C100.1 33.6587 100.415 34.1317 100.63 34.6523C100.846 35.173 100.956 35.731 100.956 36.2946C100.956 36.8581 100.846 37.4162 100.63 37.9368C100.415 38.4575 100.1 38.9305 99.7023 39.3289C99.0029 40.0308 98.0826 40.4681 97.0979 40.5662C96.1132 40.6642 95.125 40.4171 94.3016 39.8668C93.4782 39.3165 92.8704 38.497 92.5816 37.5479C92.2929 36.5988 92.3411 35.5786 92.7181 34.6611L86.9458 28.8728L86.9452 44.1059C87.3637 44.3134 87.7459 44.5875 88.077 44.9175C88.4745 45.316 88.7898 45.7891 89.0049 46.3098C89.22 46.8305 89.3307 47.3887 89.3307 47.9523C89.3307 48.5159 89.22 49.074 89.0049 49.5948C88.7898 50.1155 88.4745 50.5886 88.077 50.9871C86.4048 52.6639 83.6948 52.6639 82.0252 50.9871C81.5265 50.4873 81.1586 49.8717 80.9543 49.1949C80.75 48.5182 80.7156 47.8013 80.8542 47.108C80.9928 46.4147 81.3001 45.7665 81.7488 45.221C82.1974 44.6756 82.7735 44.2497 83.4259 43.9813V28.6063C82.9011 28.3914 82.4248 28.0728 82.0252 27.6696C80.7588 26.4012 80.4543 24.5378 81.1032 22.9782L74.7721 16.6284L58.0537 33.3922C57.7197 33.7272 57.4547 34.1249 57.2739 34.5626C57.0931 35.0003 57 35.4694 57 35.9432C57 36.4169 57.0931 36.8861 57.2739 37.3238C57.4547 37.7614 57.7197 38.1591 58.0537 38.4941L82.4367 62.9439C83.1113 63.6201 84.026 64 84.9798 64C85.9336 64 86.8484 63.6201 87.5229 62.9439L111.792 38.6082C112.467 37.9314 112.845 37.0138 112.845 36.057C112.845 35.1002 112.467 34.1825 111.792 33.5058" fill="#DE4C36"/>
</g>
<defs>
<filter id="filter0_d" x="49" y="0" width="71.8455" height="77" filterUnits="userSpaceOnUse" color-interpolation-filters="sRGB">
<feFlood flood-opacity="0" result="BackgroundImageFix"/>
<feColorMatrix in="SourceAlpha" type="matrix" values="0 0 0 0 0 0 0 0 0 0 0 0 0 0 0 0 0 0 127 0"/>
<feOffset dy="5"/>
<feColorMatrix type="matrix" values="0 0 0 0 0 0 0 0 0 0 0 0 0 0 0 0 0 0 0.2 0"/>
<feBlend mode="normal" in2="BackgroundImageFix" result="effect1_dropShadow"/>
<feBlend mode="normal" in="SourceGraphic" in2="effect1_dropShadow" result="shape"/>
</filter>
</defs>
</svg>
