<svg width="168" height="120" viewBox="0 0 168 120" fill="none" xmlns="http://www.w3.org/2000/svg">
<path d="M47.1305 102.192C46.4372 102.192 45.7972 102.069 45.2105 101.824C44.6345 101.579 44.1385 101.227 43.7225 100.768C43.3065 100.299 42.9812 99.728 42.7465 99.056C42.5118 98.3733 42.3945 97.6053 42.3945 96.752C42.3945 95.9093 42.5118 95.152 42.7465 94.48C42.9918 93.808 43.3278 93.2373 43.7545 92.768C44.1812 92.2987 44.6878 91.9413 45.2745 91.696C45.8718 91.44 46.5172 91.312 47.2105 91.312C47.5732 91.312 47.9038 91.3493 48.2025 91.424C48.5118 91.4987 48.7892 91.6 49.0345 91.728C49.2905 91.8453 49.5145 91.984 49.7065 92.144C49.9092 92.2933 50.0852 92.448 50.2345 92.608L49.4985 93.472C49.2318 93.1947 48.9225 92.96 48.5705 92.768C48.2185 92.576 47.7758 92.48 47.2425 92.48C46.7092 92.48 46.2292 92.5813 45.8025 92.784C45.3758 92.976 45.0132 93.2587 44.7145 93.632C44.4158 93.9947 44.1812 94.4373 44.0105 94.96C43.8505 95.4827 43.7705 96.0693 43.7705 96.72C43.7705 97.3813 43.8452 97.9787 43.9945 98.512C44.1545 99.0347 44.3785 99.4827 44.6665 99.856C44.9652 100.229 45.3278 100.517 45.7545 100.72C46.1918 100.923 46.6932 101.024 47.2585 101.024C47.6318 101.024 47.9838 100.971 48.3145 100.864C48.6558 100.747 48.9332 100.592 49.1465 100.4V97.664H46.9225V96.56H50.3625V100.976C50.0212 101.328 49.5732 101.621 49.0185 101.856C48.4638 102.08 47.8345 102.192 47.1305 102.192ZM52.7495 102V94.224H54.0615V102H52.7495ZM53.4215 92.624C53.1655 92.624 52.9468 92.544 52.7655 92.384C52.5948 92.224 52.5095 92.0213 52.5095 91.776C52.5095 91.52 52.5948 91.3173 52.7655 91.168C52.9468 91.008 53.1655 90.928 53.4215 90.928C53.6775 90.928 53.8908 91.008 54.0615 91.168C54.2428 91.3173 54.3335 91.52 54.3335 91.776C54.3335 92.0213 54.2428 92.224 54.0615 92.384C53.8908 92.544 53.6775 92.624 53.4215 92.624ZM59.135 102.192C58.719 102.192 58.367 102.128 58.079 102C57.8017 101.872 57.5723 101.696 57.391 101.472C57.2203 101.248 57.0977 100.976 57.023 100.656C56.9483 100.336 56.911 99.984 56.911 99.6V95.296H55.759V94.304L56.975 94.224L57.135 92.048H58.239V94.224H60.335V95.296H58.239V99.616C58.239 100.096 58.3243 100.469 58.495 100.736C58.6763 100.992 58.991 101.12 59.439 101.12C59.5777 101.12 59.727 101.099 59.887 101.056C60.047 101.013 60.191 100.965 60.319 100.912L60.575 101.904C60.3617 101.979 60.127 102.043 59.871 102.096C59.6257 102.16 59.3803 102.192 59.135 102.192ZM62.2213 102V91.504H63.5493V100.864H68.1413V102H62.2213ZM71.6665 102.192C71.0158 102.192 70.4718 102 70.0345 101.616C69.6078 101.232 69.3945 100.688 69.3945 99.984C69.3945 99.1307 69.7732 98.48 70.5305 98.032C71.2878 97.5733 72.4985 97.2533 74.1625 97.072C74.1625 96.8267 74.1358 96.5867 74.0825 96.352C74.0398 96.1173 73.9598 95.9093 73.8425 95.728C73.7252 95.5467 73.5598 95.4027 73.3465 95.296C73.1438 95.1787 72.8825 95.12 72.5625 95.12C72.1145 95.12 71.6932 95.2053 71.2985 95.376C70.9038 95.5467 70.5518 95.7387 70.2425 95.952L69.7305 95.04C70.0932 94.8053 70.5358 94.5813 71.0585 94.368C71.5812 94.144 72.1572 94.032 72.7865 94.032C73.7358 94.032 74.4238 94.3253 74.8505 94.912C75.2772 95.488 75.4905 96.2613 75.4905 97.232V102H74.4025L74.2905 101.072H74.2425C73.8692 101.381 73.4692 101.648 73.0425 101.872C72.6158 102.085 72.1572 102.192 71.6665 102.192ZM72.0505 101.136C72.4238 101.136 72.7758 101.051 73.1065 100.88C73.4372 100.699 73.7892 100.437 74.1625 100.096V97.936C73.5118 98.0213 72.9625 98.1227 72.5145 98.24C72.0772 98.3573 71.7198 98.496 71.4425 98.656C71.1758 98.816 70.9785 99.0027 70.8505 99.216C70.7332 99.4187 70.6745 99.6427 70.6745 99.888C70.6745 100.336 70.8078 100.656 71.0745 100.848C71.3412 101.04 71.6665 101.136 72.0505 101.136ZM81.377 102.192C81.0143 102.192 80.6357 102.107 80.241 101.936C79.857 101.755 79.4943 101.509 79.153 101.2H79.105L78.993 102H77.937V90.608H79.249V93.712L79.217 95.12C79.569 94.8107 79.953 94.5547 80.369 94.352C80.785 94.1387 81.2117 94.032 81.649 94.032C82.1503 94.032 82.593 94.128 82.977 94.32C83.361 94.5013 83.681 94.768 83.937 95.12C84.2037 95.4613 84.401 95.8773 84.529 96.368C84.6677 96.848 84.737 97.3867 84.737 97.984C84.737 98.6453 84.6463 99.2373 84.465 99.76C84.2837 100.283 84.0383 100.725 83.729 101.088C83.4197 101.451 83.0623 101.728 82.657 101.92C82.2517 102.101 81.825 102.192 81.377 102.192ZM81.153 101.088C81.473 101.088 81.7663 101.019 82.033 100.88C82.3103 100.731 82.545 100.528 82.737 100.272C82.9397 100.005 83.0943 99.68 83.201 99.296C83.3183 98.912 83.377 98.48 83.377 98C83.377 97.5733 83.3397 97.184 83.265 96.832C83.1903 96.48 83.0677 96.1813 82.897 95.936C82.737 95.68 82.5237 95.4827 82.257 95.344C82.001 95.2053 81.6917 95.136 81.329 95.136C80.6997 95.136 80.0063 95.488 79.249 96.192V100.272C79.5903 100.571 79.9263 100.784 80.257 100.912C80.5983 101.029 80.897 101.088 81.153 101.088ZM94.0799 102.192C93.4185 102.192 92.8105 102.069 92.2559 101.824C91.7012 101.579 91.2159 101.227 90.7999 100.768C90.3945 100.299 90.0745 99.728 89.8399 99.056C89.6159 98.3733 89.5039 97.6053 89.5039 96.752C89.5039 95.9093 89.6212 95.152 89.8559 94.48C90.0905 93.808 90.4159 93.2373 90.8319 92.768C91.2479 92.2987 91.7385 91.9413 92.3039 91.696C92.8692 91.44 93.4879 91.312 94.1599 91.312C94.7999 91.312 95.3599 91.4453 95.8399 91.712C96.3305 91.968 96.7305 92.2667 97.0399 92.608L96.3199 93.472C96.0425 93.1733 95.7279 92.9333 95.3759 92.752C95.0239 92.5707 94.6239 92.48 94.1759 92.48C93.6745 92.48 93.2212 92.5813 92.8159 92.784C92.4105 92.976 92.0639 93.2587 91.7759 93.632C91.4879 93.9947 91.2639 94.4373 91.1039 94.96C90.9545 95.4827 90.8799 96.0693 90.8799 96.72C90.8799 97.3813 90.9545 97.9787 91.1039 98.512C91.2639 99.0347 91.4825 99.4827 91.7599 99.856C92.0372 100.229 92.3732 100.517 92.7679 100.72C93.1732 100.923 93.6265 101.024 94.1279 101.024C94.6399 101.024 95.0879 100.923 95.4719 100.72C95.8559 100.507 96.2185 100.213 96.5599 99.84L97.2959 100.672C96.8799 101.152 96.4105 101.525 95.8879 101.792C95.3652 102.059 94.7625 102.192 94.0799 102.192ZM99.2525 102V91.504H100.581V102H99.2525ZM102.176 104.56L106.448 90.64H107.408L103.136 104.56H102.176ZM112.861 102.192C112.2 102.192 111.592 102.069 111.037 101.824C110.482 101.579 109.997 101.227 109.581 100.768C109.176 100.299 108.856 99.728 108.621 99.056C108.397 98.3733 108.285 97.6053 108.285 96.752C108.285 95.9093 108.402 95.152 108.637 94.48C108.872 93.808 109.197 93.2373 109.613 92.768C110.029 92.2987 110.52 91.9413 111.085 91.696C111.65 91.44 112.269 91.312 112.941 91.312C113.581 91.312 114.141 91.4453 114.621 91.712C115.112 91.968 115.512 92.2667 115.821 92.608L115.101 93.472C114.824 93.1733 114.509 92.9333 114.157 92.752C113.805 92.5707 113.405 92.48 112.957 92.48C112.456 92.48 112.002 92.5813 111.597 92.784C111.192 92.976 110.845 93.2587 110.557 93.632C110.269 93.9947 110.045 94.4373 109.885 94.96C109.736 95.4827 109.661 96.0693 109.661 96.72C109.661 97.3813 109.736 97.9787 109.885 98.512C110.045 99.0347 110.264 99.4827 110.541 99.856C110.818 100.229 111.154 100.517 111.549 100.72C111.954 100.923 112.408 101.024 112.909 101.024C113.421 101.024 113.869 100.923 114.253 100.72C114.637 100.507 115 100.213 115.341 99.84L116.077 100.672C115.661 101.152 115.192 101.525 114.669 101.792C114.146 102.059 113.544 102.192 112.861 102.192ZM118.034 102V91.504H120.658C122.279 91.504 123.511 91.952 124.354 92.848C125.196 93.744 125.618 95.0293 125.618 96.704C125.618 97.536 125.511 98.2827 125.298 98.944C125.084 99.5947 124.77 100.149 124.354 100.608C123.938 101.056 123.426 101.403 122.818 101.648C122.21 101.883 121.511 102 120.722 102H118.034ZM119.362 100.912H120.562C121.788 100.912 122.706 100.544 123.314 99.808C123.932 99.072 124.242 98.0373 124.242 96.704C124.242 95.3707 123.932 94.352 123.314 93.648C122.706 92.944 121.788 92.592 120.562 92.592H119.362V100.912Z" fill="black"/>
<g filter="url(#filter0_d)">
<mask id="path-2-outside-1" maskUnits="userSpaceOnUse" x="47" y="4" width="74" height="68" fill="black">
<rect fill="white" x="47" y="4" width="74" height="68"/>
<path fill-rule="evenodd" clip-rule="evenodd" d="M73.6911 31.8545H59.2434L65.444 12.739C65.7623 11.7537 67.1571 11.7537 67.4754 12.739L73.6911 31.8545ZM73.691 31.8547H73.6911H94.3089H108.757L111.895 41.4958C112.183 42.375 111.864 43.3452 111.122 43.8758L84 63.5825H84L83.9999 63.5823L59.2434 31.8547H73.691ZM108.757 31.8545H94.309L100.525 12.739C100.843 11.7537 102.238 11.7537 102.556 12.739L108.757 31.8545ZM59.2434 31.8547L56.1052 41.4958C55.8171 42.375 56.1355 43.3452 56.8784 43.8758L84 63.5825L59.2434 31.8547H59.2434Z"/>
</mask>
<path d="M59.2434 31.8545L51.6338 29.3862C50.8438 31.8214 51.2671 34.4876 52.7725 36.5584C54.2778 38.6292 56.6833 39.8545 59.2434 39.8545V31.8545ZM73.6911 31.8545V39.8545C76.2523 39.8545 78.6586 38.6283 80.1638 36.5561C81.669 34.4839 82.091 31.8163 81.299 29.3807L73.6911 31.8545ZM65.444 12.739L73.0537 15.2074L73.0565 15.1986L65.444 12.739ZM67.4754 12.739L59.8629 15.1986C59.8645 15.2034 59.866 15.2081 59.8675 15.2128L67.4754 12.739ZM108.757 31.8547L116.364 29.3786C115.292 26.0844 112.221 23.8547 108.757 23.8547V31.8547ZM111.895 41.4958L104.288 43.9719C104.289 43.9768 104.291 43.9816 104.292 43.9865L111.895 41.4958ZM111.122 43.8758L106.472 37.3657C106.454 37.3784 106.437 37.3911 106.419 37.4038L111.122 43.8758ZM84 63.5825V71.5825C85.6896 71.5825 87.3358 71.0476 88.7026 70.0544L84 63.5825ZM84 63.5825L79.2974 70.0544C80.6642 71.0476 82.3104 71.5825 84 71.5825V63.5825ZM83.9999 63.5823L91.6047 61.0991C91.3168 60.2173 90.8777 59.3923 90.3071 58.6609L83.9999 63.5823ZM94.309 31.8545L86.701 29.3807C85.9091 31.8163 86.3311 34.4839 87.8363 36.5561C89.3415 38.6283 91.7478 39.8545 94.309 39.8545V31.8545ZM108.757 31.8545V39.8545C111.317 39.8545 113.722 38.6292 115.228 36.5584C116.733 34.4876 117.156 31.8214 116.366 29.3862L108.757 31.8545ZM100.525 12.739L108.133 15.2128C108.134 15.2081 108.136 15.2034 108.137 15.1986L100.525 12.739ZM102.556 12.739L94.9436 15.1986L94.9464 15.2074L102.556 12.739ZM56.1052 41.4958L63.7076 43.9865C63.7092 43.9816 63.7108 43.9768 63.7124 43.9719L56.1052 41.4958ZM59.2434 31.8547V23.8547C55.7791 23.8547 52.7084 26.0844 51.6362 29.3786L59.2434 31.8547ZM56.8784 43.8758L61.5809 37.4038C61.5633 37.3911 61.5457 37.3784 61.528 37.3657L56.8784 43.8758ZM59.2434 39.8545H73.6911V23.8545H59.2434V39.8545ZM57.8343 10.2706L51.6338 29.3862L66.8531 34.3229L73.0536 15.2074L57.8343 10.2706ZM75.0879 10.2794C72.3828 1.90687 60.5366 1.90687 57.8315 10.2794L73.0565 15.1986C70.988 21.6005 61.9314 21.6005 59.8629 15.1986L75.0879 10.2794ZM81.299 29.3807L75.0833 10.2652L59.8675 15.2128L66.0832 34.3283L81.299 29.3807ZM73.691 39.8547H73.6911V23.8547H73.691V39.8547ZM73.6911 39.8547H94.3089V23.8547H73.6911V39.8547ZM94.3089 39.8547H108.757V23.8547H94.3089V39.8547ZM101.15 34.3308L104.288 43.9719L119.502 39.0197L116.364 29.3786L101.15 34.3308ZM104.292 43.9865C103.5 41.568 104.347 38.8831 106.472 37.3657L115.771 50.3858C119.382 47.8073 120.866 43.182 119.497 39.0052L104.292 43.9865ZM106.419 37.4038L79.2975 57.1105L88.7026 70.0544L115.824 50.3477L106.419 37.4038ZM84 55.5825H84V71.5825H84V55.5825ZM91.6048 61.0993L91.6047 61.0991L76.3951 66.0655L76.3951 66.0657L91.6048 61.0993ZM52.9363 36.776L77.6927 68.5037L90.3071 58.6609L65.5506 26.9333L52.9363 36.776ZM73.691 23.8547H59.2434V39.8547H73.691V23.8547ZM94.309 39.8545H108.757V23.8545H94.309V39.8545ZM92.9167 10.2652L86.701 29.3807L101.917 34.3283L108.133 15.2128L92.9167 10.2652ZM110.169 10.2794C107.463 1.90687 95.6173 1.90687 92.9121 10.2794L108.137 15.1986C106.069 21.6005 97.012 21.6005 94.9436 15.1986L110.169 10.2794ZM116.366 29.3862L110.166 10.2706L94.9464 15.2074L101.147 34.3229L116.366 29.3862ZM63.7124 43.9719L66.8505 34.3308L51.6362 29.3786L48.498 39.0197L63.7124 43.9719ZM61.528 37.3657C63.6526 38.8832 64.4999 41.5681 63.7076 43.9865L48.5028 39.0052C47.1344 43.182 48.6184 47.8073 52.2287 50.3858L61.528 37.3657ZM88.7025 57.1105L61.5809 37.4038L52.1758 50.3477L79.2974 70.0544L88.7025 57.1105ZM52.9362 36.776L77.6928 68.5038L90.3071 58.6611L65.5506 26.9333L52.9362 36.776ZM59.2434 39.8547H59.2434V23.8547H59.2434V39.8547Z" fill="white" mask="url(#path-2-outside-1)"/>
<path d="M84 63.5825L94.3089 31.8547H73.691L84 63.5825Z" fill="#E24329"/>
<path d="M84 63.5825L73.6911 31.8547H59.2434L84 63.5825Z" fill="#FC6D26"/>
<path d="M59.2434 31.8547L56.1052 41.4959C55.8171 42.3751 56.1355 43.3453 56.8784 43.8758L84 63.5825L59.2434 31.8547Z" fill="#FCA326"/>
<path d="M59.2434 31.8545H73.6911L67.4754 12.739C67.157 11.7537 65.7623 11.7537 65.4439 12.739L59.2434 31.8545Z" fill="#E24329"/>
<path d="M84 63.5825L94.309 31.8547H108.757L84 63.5825Z" fill="#FC6D26"/>
<path d="M108.757 31.8547L111.895 41.4959C112.183 42.3751 111.864 43.3453 111.122 43.8758L84 63.5825L108.757 31.8547V31.8547Z" fill="#FCA326"/>
<path d="M108.757 31.8545H94.309L100.525 12.739C100.843 11.7537 102.238 11.7537 102.556 12.739L108.757 31.8545V31.8545Z" fill="#E24329"/>
</g>
<defs>
<filter id="filter0_d" x="47.9999" y="4" width="72.0001" height="71.5825" filterUnits="userSpaceOnUse" color-interpolation-filters="sRGB">
<feFlood flood-opacity="0" result="BackgroundImageFix"/>
<feColorMatrix in="SourceAlpha" type="matrix" values="0 0 0 0 0 0 0 0 0 0 0 0 0 0 0 0 0 0 127 0"/>
<feOffset dy="4"/>
<feColorMatrix type="matrix" values="0 0 0 0 0 0 0 0 0 0 0 0 0 0 0 0 0 0 0.2 0"/>
<feBlend mode="normal" in2="BackgroundImageFix" result="effect1_dropShadow"/>
<feBlend mode="normal" in="SourceGraphic" in2="effect1_dropShadow" result="shape"/>
</filter>
</defs>
</svg>
