<svg width="168" height="120" viewBox="0 0 168 120" fill="none" xmlns="http://www.w3.org/2000/svg">
<path d="M52.2358 102.192C50.9238 102.192 49.9584 101.632 49.3398 100.512L50.2998 99.84C50.5344 100.256 50.8011 100.56 51.0998 100.752C51.3984 100.933 51.7344 101.024 52.1078 101.024C52.6731 101.024 53.0944 100.853 53.3718 100.512C53.6491 100.16 53.7878 99.584 53.7878 98.784V91.504H55.1318V98.912C55.1318 99.36 55.0731 99.7867 54.9558 100.192C54.8491 100.587 54.6784 100.933 54.4438 101.232C54.2198 101.531 53.9211 101.765 53.5477 101.936C53.1851 102.107 52.7478 102.192 52.2358 102.192ZM59.6353 102.192C58.9846 102.192 58.4406 102 58.0033 101.616C57.5766 101.232 57.3633 100.688 57.3633 99.984C57.3633 99.1307 57.7419 98.48 58.4993 98.032C59.2566 97.5733 60.4673 97.2533 62.1313 97.072C62.1313 96.8267 62.1046 96.5867 62.0513 96.352C62.0086 96.1173 61.9286 95.9093 61.8113 95.728C61.6939 95.5467 61.5286 95.4027 61.3153 95.296C61.1126 95.1787 60.8513 95.12 60.5312 95.12C60.0833 95.12 59.6619 95.2053 59.2673 95.376C58.8726 95.5467 58.5206 95.7387 58.2113 95.952L57.6993 95.04C58.0619 94.8053 58.5046 94.5813 59.0273 94.368C59.5499 94.144 60.1259 94.032 60.7552 94.032C61.7046 94.032 62.3926 94.3253 62.8193 94.912C63.2459 95.488 63.4593 96.2613 63.4593 97.232V102H62.3713L62.2593 101.072H62.2113C61.8379 101.381 61.4379 101.648 61.0113 101.872C60.5846 102.085 60.1259 102.192 59.6353 102.192ZM60.0193 101.136C60.3926 101.136 60.7446 101.051 61.0753 100.88C61.4059 100.699 61.7579 100.437 62.1313 100.096V97.936C61.4806 98.0213 60.9313 98.1227 60.4833 98.24C60.0459 98.3573 59.6886 98.496 59.4113 98.656C59.1446 98.816 58.9473 99.0027 58.8193 99.216C58.7019 99.4187 58.6432 99.6427 58.6432 99.888C58.6432 100.336 58.7766 100.656 59.0433 100.848C59.3099 101.04 59.6353 101.136 60.0193 101.136ZM67.5858 102L64.7858 94.224H66.1458L67.6178 98.64C67.7351 99.024 67.8524 99.408 67.9698 99.792C68.0978 100.176 68.2204 100.555 68.3378 100.928H68.4018C68.5191 100.555 68.6364 100.176 68.7538 99.792C68.8711 99.408 68.9884 99.024 69.1058 98.64L70.5778 94.224H71.8738L69.1218 102H67.5858ZM74.854 102.192C74.2033 102.192 73.6593 102 73.222 101.616C72.7953 101.232 72.582 100.688 72.582 99.984C72.582 99.1307 72.9607 98.48 73.718 98.032C74.4753 97.5733 75.686 97.2533 77.35 97.072C77.35 96.8267 77.3233 96.5867 77.27 96.352C77.2273 96.1173 77.1473 95.9093 77.03 95.728C76.9127 95.5467 76.7473 95.4027 76.534 95.296C76.3313 95.1787 76.07 95.12 75.75 95.12C75.302 95.12 74.8807 95.2053 74.486 95.376C74.0913 95.5467 73.7393 95.7387 73.43 95.952L72.918 95.04C73.2807 94.8053 73.7233 94.5813 74.246 94.368C74.7687 94.144 75.3447 94.032 75.974 94.032C76.9233 94.032 77.6113 94.3253 78.038 94.912C78.4647 95.488 78.678 96.2613 78.678 97.232V102H77.59L77.478 101.072H77.43C77.0567 101.381 76.6567 101.648 76.23 101.872C75.8033 102.085 75.3447 102.192 74.854 102.192ZM75.238 101.136C75.6113 101.136 75.9633 101.051 76.294 100.88C76.6247 100.699 76.9767 100.437 77.35 100.096V97.936C76.6993 98.0213 76.15 98.1227 75.702 98.24C75.2647 98.3573 74.9073 98.496 74.63 98.656C74.3633 98.816 74.166 99.0027 74.038 99.216C73.9207 99.4187 73.862 99.6427 73.862 99.888C73.862 100.336 73.9953 100.656 74.262 100.848C74.5287 101.04 74.854 101.136 75.238 101.136ZM84.1645 102.192C83.4285 102.192 82.7458 102.053 82.1165 101.776C81.4872 101.499 80.9432 101.12 80.4845 100.64L81.2845 99.712C81.6578 100.107 82.0952 100.427 82.5965 100.672C83.1085 100.907 83.6365 101.024 84.1805 101.024C84.8738 101.024 85.4125 100.869 85.7965 100.56C86.1805 100.24 86.3725 99.824 86.3725 99.312C86.3725 99.0453 86.3245 98.8213 86.2285 98.64C86.1432 98.448 86.0205 98.288 85.8605 98.16C85.7112 98.0213 85.5298 97.8987 85.3165 97.792C85.1032 97.6853 84.8738 97.5733 84.6285 97.456L83.1245 96.8C82.8792 96.6933 82.6285 96.5653 82.3725 96.416C82.1165 96.2667 81.8872 96.0853 81.6845 95.872C81.4818 95.6587 81.3165 95.408 81.1885 95.12C81.0605 94.8213 80.9965 94.48 80.9965 94.096C80.9965 93.7013 81.0765 93.3333 81.2365 92.992C81.4072 92.6507 81.6365 92.3573 81.9245 92.112C82.2232 91.856 82.5698 91.6587 82.9645 91.52C83.3698 91.3813 83.8125 91.312 84.2925 91.312C84.9218 91.312 85.5032 91.4347 86.0365 91.68C86.5698 91.9147 87.0232 92.224 87.3965 92.608L86.6765 93.472C86.3565 93.1627 85.9992 92.9227 85.6045 92.752C85.2205 92.5707 84.7832 92.48 84.2925 92.48C83.7058 92.48 83.2312 92.6187 82.8685 92.896C82.5165 93.1627 82.3405 93.536 82.3405 94.016C82.3405 94.272 82.3885 94.4907 82.4845 94.672C82.5912 94.8427 82.7298 94.9973 82.9005 95.136C83.0712 95.264 83.2578 95.3813 83.4605 95.488C83.6632 95.584 83.8712 95.6747 84.0845 95.76L85.5725 96.4C85.8712 96.528 86.1538 96.6773 86.4205 96.848C86.6872 97.008 86.9165 97.2 87.1085 97.424C87.3005 97.6373 87.4498 97.8933 87.5565 98.192C87.6738 98.48 87.7325 98.816 87.7325 99.2C87.7325 99.616 87.6472 100.005 87.4765 100.368C87.3165 100.731 87.0818 101.051 86.7725 101.328C86.4632 101.595 86.0898 101.808 85.6525 101.968C85.2152 102.117 84.7192 102.192 84.1645 102.192ZM92.7434 102.192C92.2314 102.192 91.7514 102.101 91.3034 101.92C90.8554 101.739 90.466 101.477 90.1354 101.136C89.8154 100.784 89.5594 100.357 89.3674 99.856C89.186 99.344 89.0954 98.768 89.0954 98.128C89.0954 97.4773 89.1967 96.9013 89.3994 96.4C89.602 95.888 89.874 95.456 90.2154 95.104C90.5567 94.752 90.9514 94.4853 91.3994 94.304C91.858 94.1227 92.338 94.032 92.8394 94.032C93.3514 94.032 93.7887 94.1227 94.1514 94.304C94.514 94.4853 94.834 94.6987 95.1114 94.944L94.4394 95.808C94.2154 95.6053 93.9754 95.44 93.7194 95.312C93.474 95.184 93.1967 95.12 92.8874 95.12C92.5354 95.12 92.21 95.1947 91.9114 95.344C91.6127 95.4827 91.3567 95.6853 91.1434 95.952C90.93 96.2187 90.7594 96.5387 90.6314 96.912C90.514 97.2747 90.4554 97.68 90.4554 98.128C90.4554 98.576 90.514 98.9813 90.6314 99.344C90.7487 99.7067 90.9087 100.021 91.1114 100.288C91.3247 100.544 91.5807 100.747 91.8794 100.896C92.178 101.035 92.5034 101.104 92.8554 101.104C93.218 101.104 93.5487 101.029 93.8474 100.88C94.1567 100.72 94.434 100.533 94.6794 100.32L95.2554 101.2C94.9034 101.509 94.514 101.755 94.0874 101.936C93.6607 102.107 93.2127 102.192 92.7434 102.192ZM96.9683 102V94.224H98.0563L98.1683 95.632H98.2163C98.4829 95.1413 98.8029 94.752 99.1763 94.464C99.5603 94.176 99.9763 94.032 100.424 94.032C100.734 94.032 101.011 94.0853 101.256 94.192L101 95.344C100.872 95.3013 100.755 95.2693 100.648 95.248C100.542 95.2267 100.408 95.216 100.248 95.216C99.9176 95.216 99.5709 95.3493 99.2083 95.616C98.8563 95.8827 98.5469 96.3467 98.2803 97.008V102H96.9683ZM102.515 102V94.224H103.827V102H102.515ZM103.187 92.624C102.931 92.624 102.712 92.544 102.531 92.384C102.36 92.224 102.275 92.0213 102.275 91.776C102.275 91.52 102.36 91.3173 102.531 91.168C102.712 91.008 102.931 90.928 103.187 90.928C103.443 90.928 103.656 91.008 103.827 91.168C104.008 91.3173 104.099 91.52 104.099 91.776C104.099 92.0213 104.008 92.224 103.827 92.384C103.656 92.544 103.443 92.624 103.187 92.624ZM106.453 105.28V94.224H107.541L107.653 95.12H107.701C108.053 94.8213 108.437 94.5653 108.853 94.352C109.279 94.1387 109.722 94.032 110.181 94.032C110.682 94.032 111.125 94.128 111.509 94.32C111.893 94.5013 112.213 94.768 112.469 95.12C112.725 95.4613 112.917 95.8773 113.045 96.368C113.183 96.848 113.253 97.392 113.253 98C113.253 98.6613 113.162 99.2533 112.981 99.776C112.799 100.288 112.554 100.725 112.245 101.088C111.935 101.451 111.578 101.728 111.173 101.92C110.767 102.101 110.341 102.192 109.893 102.192C109.53 102.192 109.167 102.112 108.805 101.952C108.453 101.792 108.095 101.573 107.733 101.296L107.765 102.656V105.28H106.453ZM109.669 101.088C109.989 101.088 110.282 101.019 110.549 100.88C110.826 100.731 111.061 100.528 111.253 100.272C111.455 100.005 111.61 99.68 111.717 99.296C111.834 98.912 111.893 98.48 111.893 98C111.893 97.5733 111.855 97.184 111.781 96.832C111.706 96.48 111.583 96.1813 111.413 95.936C111.253 95.68 111.039 95.4827 110.773 95.344C110.517 95.2053 110.207 95.136 109.845 95.136C109.514 95.136 109.178 95.2267 108.837 95.408C108.506 95.5893 108.149 95.8507 107.765 96.192V100.272C108.117 100.571 108.458 100.784 108.789 100.912C109.119 101.029 109.413 101.088 109.669 101.088ZM117.51 102.192C117.094 102.192 116.742 102.128 116.454 102C116.177 101.872 115.947 101.696 115.766 101.472C115.595 101.248 115.473 100.976 115.398 100.656C115.323 100.336 115.286 99.984 115.286 99.6V95.296H114.134V94.304L115.35 94.224L115.51 92.048H116.614V94.224H118.71V95.296H116.614V99.616C116.614 100.096 116.699 100.469 116.87 100.736C117.051 100.992 117.366 101.12 117.814 101.12C117.953 101.12 118.102 101.099 118.262 101.056C118.422 101.013 118.566 100.965 118.694 100.912L118.95 101.904C118.737 101.979 118.502 102.043 118.246 102.096C118.001 102.16 117.755 102.192 117.51 102.192Z" fill="black"/>
<g filter="url(#filter0_d)">
<path d="M56 4C53.7909 4 52 5.79086 52 8V64C52 66.2091 53.7909 68 56 68H112C114.209 68 116 66.2091 116 64V8C116 5.79086 114.209 4 112 4H56Z" fill="#F7DF1E" stroke="white" stroke-width="8" stroke-linejoin="round"/>
<path d="M70.7246 54.7976L75.0099 52.2041C75.8368 53.6699 76.5888 54.9103 78.3929 54.9103C80.1221 54.9103 81.2126 54.2339 81.2126 51.6028V33.7094H86.475V51.6771C86.475 57.1277 83.28 59.6088 78.6184 59.6088C74.4086 59.6088 71.9649 57.4285 70.7244 54.7972L70.7246 54.7976ZM89.3334 54.2337L93.6183 51.7528C94.7464 53.5949 96.2125 54.9481 98.806 54.9481C100.987 54.9481 102.377 53.8579 102.377 52.3542C102.377 50.5499 100.949 49.9107 98.5428 48.8585L97.2275 48.2942C93.4306 46.6783 90.9121 44.6483 90.9121 40.3629C90.9121 36.4158 93.9193 33.4084 98.6183 33.4084C101.964 33.4084 104.37 34.5739 106.099 37.6187L102.001 40.2503C101.099 38.6339 100.122 37.995 98.618 37.995C97.0767 37.995 96.0994 38.9724 96.0994 40.2503C96.0994 41.829 97.0767 42.4684 99.3321 43.4458L100.648 44.0095C105.121 45.9269 107.64 47.8814 107.64 52.2791C107.64 57.016 103.918 59.6094 98.9186 59.6094C94.032 59.6094 90.8743 57.2789 89.3332 54.2339" fill="black"/>
</g>
<defs>
<filter id="filter0_d" x="48" y="0" width="72" height="76" filterUnits="userSpaceOnUse" color-interpolation-filters="sRGB">
<feFlood flood-opacity="0" result="BackgroundImageFix"/>
<feColorMatrix in="SourceAlpha" type="matrix" values="0 0 0 0 0 0 0 0 0 0 0 0 0 0 0 0 0 0 127 0"/>
<feOffset dy="4"/>
<feColorMatrix type="matrix" values="0 0 0 0 0 0 0 0 0 0 0 0 0 0 0 0 0 0 0.2 0"/>
<feBlend mode="normal" in2="BackgroundImageFix" result="effect1_dropShadow"/>
<feBlend mode="normal" in="SourceGraphic" in2="effect1_dropShadow" result="shape"/>
</filter>
</defs>
</svg>
