<svg width="168" height="120" viewBox="0 0 168 120" fill="none" xmlns="http://www.w3.org/2000/svg">
<path d="M45.315 102V91.504H48.307C48.8937 91.504 49.427 91.5573 49.907 91.664C50.3977 91.7707 50.8137 91.9467 51.155 92.192C51.4963 92.4267 51.763 92.7413 51.955 93.136C52.147 93.5307 52.243 94.016 52.243 94.592C52.243 95.1467 52.147 95.6267 51.955 96.032C51.7737 96.4373 51.5123 96.7733 51.171 97.04C50.8297 97.3067 50.419 97.5093 49.939 97.648C49.4697 97.776 48.947 97.84 48.371 97.84H46.643V102H45.315ZM46.643 96.752H48.211C49.1283 96.752 49.8057 96.5813 50.243 96.24C50.691 95.888 50.915 95.3387 50.915 94.592C50.915 93.8347 50.6803 93.312 50.211 93.024C49.7523 92.7253 49.0643 92.576 48.147 92.576H46.643V96.752ZM54.3775 102V91.504H55.7055V95.904H60.5855V91.504H61.9295V102H60.5855V97.056H55.7055V102H54.3775ZM64.815 102V91.504H67.807C68.3937 91.504 68.927 91.5573 69.407 91.664C69.8977 91.7707 70.3137 91.9467 70.655 92.192C70.9963 92.4267 71.263 92.7413 71.455 93.136C71.647 93.5307 71.743 94.016 71.743 94.592C71.743 95.1467 71.647 95.6267 71.455 96.032C71.2737 96.4373 71.0123 96.7733 70.671 97.04C70.3297 97.3067 69.919 97.5093 69.439 97.648C68.9697 97.776 68.447 97.84 67.871 97.84H66.143V102H64.815ZM66.143 96.752H67.711C68.6283 96.752 69.3057 96.5813 69.743 96.24C70.191 95.888 70.415 95.3387 70.415 94.592C70.415 93.8347 70.1803 93.312 69.711 93.024C69.2523 92.7253 68.5643 92.576 67.647 92.576H66.143V96.752ZM77.0806 102V91.504H78.4086V100.864H83.0006V102H77.0806ZM86.5259 102.192C85.8752 102.192 85.3312 102 84.8939 101.616C84.4672 101.232 84.2539 100.688 84.2539 99.984C84.2539 99.1307 84.6325 98.48 85.3899 98.032C86.1472 97.5733 87.3579 97.2533 89.0219 97.072C89.0219 96.8267 88.9952 96.5867 88.9419 96.352C88.8992 96.1173 88.8192 95.9093 88.7019 95.728C88.5845 95.5467 88.4192 95.4027 88.2059 95.296C88.0032 95.1787 87.7419 95.12 87.4219 95.12C86.9739 95.12 86.5525 95.2053 86.1579 95.376C85.7632 95.5467 85.4112 95.7387 85.1019 95.952L84.5899 95.04C84.9525 94.8053 85.3952 94.5813 85.9179 94.368C86.4405 94.144 87.0165 94.032 87.6459 94.032C88.5952 94.032 89.2832 94.3253 89.7099 94.912C90.1365 95.488 90.3499 96.2613 90.3499 97.232V102H89.2619L89.1499 101.072H89.1019C88.7285 101.381 88.3285 101.648 87.9019 101.872C87.4752 102.085 87.0165 102.192 86.5259 102.192ZM86.9099 101.136C87.2832 101.136 87.6352 101.051 87.9659 100.88C88.2965 100.699 88.6485 100.437 89.0219 100.096V97.936C88.3712 98.0213 87.8219 98.1227 87.3739 98.24C86.9365 98.3573 86.5792 98.496 86.3019 98.656C86.0352 98.816 85.8379 99.0027 85.7099 99.216C85.5925 99.4187 85.5339 99.6427 85.5339 99.888C85.5339 100.336 85.6672 100.656 85.9339 100.848C86.2005 101.04 86.5259 101.136 86.9099 101.136ZM92.7964 102V94.224H93.8844L93.9964 95.632H94.0444C94.311 95.1413 94.631 94.752 95.0044 94.464C95.3884 94.176 95.8044 94.032 96.2524 94.032C96.5617 94.032 96.839 94.0853 97.0844 94.192L96.8284 95.344C96.7004 95.3013 96.583 95.2693 96.4764 95.248C96.3697 95.2267 96.2364 95.216 96.0764 95.216C95.7457 95.216 95.399 95.3493 95.0364 95.616C94.6844 95.8827 94.375 96.3467 94.1084 97.008V102H92.7964ZM99.7446 102.192C99.094 102.192 98.55 102 98.1126 101.616C97.686 101.232 97.4726 100.688 97.4726 99.984C97.4726 99.1307 97.8513 98.48 98.6086 98.032C99.366 97.5733 100.577 97.2533 102.241 97.072C102.241 96.8267 102.214 96.5867 102.161 96.352C102.118 96.1173 102.038 95.9093 101.921 95.728C101.803 95.5467 101.638 95.4027 101.425 95.296C101.222 95.1787 100.961 95.12 100.641 95.12C100.193 95.12 99.7713 95.2053 99.3766 95.376C98.982 95.5467 98.63 95.7387 98.3206 95.952L97.8086 95.04C98.1713 94.8053 98.614 94.5813 99.1366 94.368C99.6593 94.144 100.235 94.032 100.865 94.032C101.814 94.032 102.502 94.3253 102.929 94.912C103.355 95.488 103.569 96.2613 103.569 97.232V102H102.481L102.369 101.072H102.321C101.947 101.381 101.547 101.648 101.121 101.872C100.694 102.085 100.235 102.192 99.7446 102.192ZM100.129 101.136C100.502 101.136 100.854 101.051 101.185 100.88C101.515 100.699 101.867 100.437 102.241 100.096V97.936C101.59 98.0213 101.041 98.1227 100.593 98.24C100.155 98.3573 99.798 98.496 99.5206 98.656C99.254 98.816 99.0566 99.0027 98.9286 99.216C98.8113 99.4187 98.7526 99.6427 98.7526 99.888C98.7526 100.336 98.886 100.656 99.1526 100.848C99.4193 101.04 99.7446 101.136 100.129 101.136ZM107.695 102L104.895 94.224H106.255L107.727 98.64C107.844 99.024 107.962 99.408 108.079 99.792C108.207 100.176 108.33 100.555 108.447 100.928H108.511C108.628 100.555 108.746 100.176 108.863 99.792C108.98 99.408 109.098 99.024 109.215 98.64L110.687 94.224H111.983L109.231 102H107.695ZM116.573 102.192C116.051 102.192 115.56 102.101 115.101 101.92C114.653 101.728 114.259 101.461 113.917 101.12C113.587 100.768 113.325 100.341 113.133 99.84C112.941 99.3387 112.845 98.768 112.845 98.128C112.845 97.488 112.941 96.9173 113.133 96.416C113.336 95.904 113.597 95.472 113.917 95.12C114.248 94.768 114.621 94.5013 115.037 94.32C115.453 94.128 115.885 94.032 116.333 94.032C116.824 94.032 117.261 94.1173 117.645 94.288C118.04 94.4587 118.365 94.704 118.621 95.024C118.888 95.344 119.091 95.728 119.229 96.176C119.368 96.624 119.437 97.1253 119.437 97.68C119.437 97.8187 119.432 97.9573 119.421 98.096C119.421 98.224 119.411 98.336 119.389 98.432H114.141C114.195 99.264 114.451 99.9253 114.909 100.416C115.379 100.896 115.987 101.136 116.733 101.136C117.107 101.136 117.448 101.083 117.757 100.976C118.077 100.859 118.381 100.709 118.669 100.528L119.133 101.392C118.792 101.605 118.413 101.792 117.997 101.952C117.581 102.112 117.107 102.192 116.573 102.192ZM114.125 97.488H118.285C118.285 96.6987 118.115 96.1013 117.773 95.696C117.443 95.28 116.973 95.072 116.365 95.072C116.088 95.072 115.821 95.1253 115.565 95.232C115.32 95.3387 115.096 95.4987 114.893 95.712C114.691 95.9147 114.52 96.1653 114.381 96.464C114.253 96.7627 114.168 97.104 114.125 97.488ZM122.751 102.192C122.25 102.192 121.892 102.043 121.679 101.744C121.466 101.445 121.359 101.008 121.359 100.432V90.608H122.671V100.528C122.671 100.741 122.708 100.891 122.783 100.976C122.858 101.061 122.943 101.104 123.039 101.104C123.082 101.104 123.119 101.104 123.151 101.104C123.194 101.104 123.252 101.093 123.327 101.072L123.503 102.064C123.418 102.107 123.316 102.139 123.199 102.16C123.082 102.181 122.932 102.192 122.751 102.192Z" fill="black"/>
<g filter="url(#filter0_d)">
<path d="M118.781 34.4688H118.672C119.109 35.0156 119 35.3438 118.234 35.5625L108.719 38.0781L117.359 49.7812C117.578 50.2188 117.688 50.5469 117.469 50.7656C117.25 50.9844 116.922 51.2031 116.484 51.4219L105.328 55.4688C98.2188 57.9844 94.3906 59.2969 93.7344 59.5156H93.625C92.6406 59.9531 91.9844 60.0625 91.5469 59.9531C91 59.9531 90.4531 59.5156 90.0156 58.75C89.25 57.875 86.625 53.1719 82.0312 44.8594C74.1562 46.9375 69.3438 48.1406 67.375 48.5781C65.625 49.0156 64.4219 48.5781 63.7656 47.0469L60.9219 40.7031C53.4844 24.9531 49.6562 16.5312 49.3281 15.5469C48.6719 14.125 48.8906 13.3594 50.2031 13.1406L64.3125 12.0469C64.9688 12.0469 65.4062 12.1562 65.625 12.2656C65.8438 12.4844 66.1719 12.7031 66.5 13.1406L83.4531 41.4688L104.672 36.4375L97.6719 26.4844C97.125 25.8281 97.4531 25.3906 98.6562 25.1719L108.5 23.5312C108.938 23.5312 109.266 23.5312 109.594 23.6406C109.812 23.75 110.25 24.0781 110.688 24.5156L114.953 29.7656C117.25 32.7188 118.562 34.25 118.781 34.4688ZM80.1719 42.3438C80.5 42.3438 80.5 42.0156 80.2812 41.5781L64.4219 14.2344C64.3125 14.125 64.2031 14.0156 63.9844 14.0156L52.3906 15C52.2812 15 52.2812 15.1094 52.2812 15.2188C52.2812 15.4375 52.2812 15.5469 52.3906 15.6562L66.7188 45.1875C66.7188 45.4062 66.8281 45.4062 66.9375 45.4062C66.9375 45.4062 67.1562 45.4062 67.4844 45.2969L75.25 43.4375C78.4219 42.7812 80.0625 42.3438 80.1719 42.3438ZM113.641 48.5781L106.641 38.9531C106.422 38.7344 106.312 38.625 106.203 38.625C106.094 38.625 105.984 38.625 105.766 38.625L84.9844 44.0938L91.875 55.6875C92.0938 56.125 92.2031 56.3438 92.4219 56.3438C92.5312 56.3438 92.75 56.3438 92.9688 56.2344L113.422 49.2344C113.641 49.2344 113.859 49.125 113.859 49.0156C113.859 49.0156 113.75 48.9062 113.75 48.7969L113.641 48.5781ZM114.953 33.9219C115.5 33.8125 115.719 33.5938 115.609 33.375C112 29 110.031 26.4844 109.594 25.8281C109.375 25.5 109.047 25.3906 108.719 25.3906L100.844 26.8125C100.516 26.9219 100.516 27.1406 100.734 27.3594L106.969 35.8906C109.594 35.2344 112.328 34.5781 114.953 33.9219Z" fill="#F05340"/>
<path d="M118.781 34.4688V42.4688C122.017 42.4688 124.934 40.5196 126.172 37.5302C127.411 34.5408 126.726 31.0999 124.438 28.8119L118.781 34.4688ZM118.672 34.4688V26.4688C115.597 26.4688 112.794 28.2315 111.461 31.0032C110.129 33.775 110.504 37.065 112.425 39.4663L118.672 34.4688ZM118.234 35.5625L120.279 43.2968C120.33 43.2833 120.381 43.2692 120.432 43.2547L118.234 35.5625ZM108.719 38.0781L106.674 30.3438C104.112 31.0212 102.051 32.9237 101.172 35.424C100.293 37.9242 100.709 40.6977 102.283 42.8299L108.719 38.0781ZM117.359 49.7812L124.515 46.2035C124.309 45.7922 124.068 45.3994 123.795 45.0295L117.359 49.7812ZM116.484 51.4219L119.212 58.9424C119.502 58.8372 119.786 58.7153 120.062 58.5773L116.484 51.4219ZM105.328 55.4688L107.997 63.0105C108.017 63.0035 108.036 62.9964 108.056 62.9892L105.328 55.4688ZM93.7344 59.5156V67.5156C94.5942 67.5156 95.4485 67.377 96.2642 67.1051L93.7344 59.5156ZM93.625 59.5156V51.5156C92.5057 51.5156 91.3988 51.7505 90.3759 52.2051L93.625 59.5156ZM91.5469 59.9531L93.4872 52.192C92.8526 52.0333 92.201 51.9531 91.5469 51.9531V59.9531ZM90.0156 58.75L96.9616 54.7809C96.6972 54.3182 96.3872 53.883 96.0362 53.482L90.0156 58.75ZM82.0312 44.8594L89.0332 40.9899C87.2603 37.7818 83.534 36.1889 79.99 37.1242L82.0312 44.8594ZM67.375 48.5781L65.6396 40.7686C65.5711 40.7838 65.5028 40.8 65.4347 40.817L67.375 48.5781ZM63.7656 47.0469L71.1188 43.8955C71.1014 43.855 71.0837 43.8146 71.0657 43.7744L63.7656 47.0469ZM60.9219 40.7031L68.2219 37.4307C68.2004 37.3826 68.1784 37.3347 68.1559 37.2871L60.9219 40.7031ZM49.3281 15.5469L56.9176 13.0171C56.8243 12.737 56.7155 12.4624 56.5918 12.1944L49.3281 15.5469ZM50.2031 13.1406L49.5848 5.16455C49.3514 5.18265 49.1189 5.21098 48.8879 5.24947L50.2031 13.1406ZM64.3125 12.0469V4.04688C64.1062 4.04688 63.8999 4.05486 63.6942 4.0708L64.3125 12.0469ZM65.625 12.2656L71.2819 6.60877C70.6738 6.00076 69.9718 5.49475 69.2027 5.11021L65.625 12.2656ZM66.5 13.1406L73.3646 9.03246C73.2219 8.79393 73.0668 8.56301 72.9 8.34062L66.5 13.1406ZM83.4531 41.4688L76.5885 45.5769C78.3799 48.5703 81.9045 50.0578 85.2989 49.2529L83.4531 41.4688ZM104.672 36.4375L106.518 44.2217C109.1 43.6093 111.211 41.7561 112.152 39.2746C113.093 36.793 112.742 34.0062 111.216 31.8353L104.672 36.4375ZM97.6719 26.4844L104.216 21.8822C104.09 21.7038 103.957 21.5305 103.818 21.3629L97.6719 26.4844ZM98.6562 25.1719L97.3411 17.2807C97.3024 17.2872 97.2637 17.2939 97.2252 17.3009L98.6562 25.1719ZM108.5 23.5312V15.5312C108.059 15.5312 107.619 15.5677 107.185 15.6401L108.5 23.5312ZM109.594 23.6406L113.171 16.4852C112.833 16.3159 112.483 16.1709 112.124 16.0512L109.594 23.6406ZM110.688 24.5156L116.896 19.4709C116.723 19.2575 116.539 19.0532 116.344 18.8588L110.688 24.5156ZM114.953 29.7656L121.268 24.8541C121.233 24.8093 121.198 24.7649 121.162 24.7209L114.953 29.7656ZM80.2812 41.5781L87.4367 38.0004C87.3628 37.8527 87.2844 37.7073 87.2015 37.5644L80.2812 41.5781ZM64.4219 14.2344L71.3421 10.2206C70.994 9.62046 70.5693 9.06812 70.0787 8.57752L64.4219 14.2344ZM63.9844 14.0156V6.01562C63.7585 6.01562 63.5327 6.02519 63.3076 6.04431L63.9844 14.0156ZM52.3906 15V23C52.6165 23 52.8423 22.9904 53.0674 22.9713L52.3906 15ZM52.3906 15.6562L59.5882 12.1641C59.1989 11.3617 58.6781 10.63 58.0475 9.9994L52.3906 15.6562ZM66.7188 45.1875H74.7188C74.7188 43.9778 74.4444 42.7838 73.9163 41.6953L66.7188 45.1875ZM67.4844 45.2969L65.6215 37.5168C65.3966 37.5707 65.174 37.6343 64.9546 37.7074L67.4844 45.2969ZM75.25 43.4375L73.6292 35.6034C73.5482 35.6202 73.4675 35.6382 73.3872 35.6574L75.25 43.4375ZM113.641 48.5781L120.796 45.0004C120.599 44.6063 120.37 44.2291 120.111 43.8728L113.641 48.5781ZM106.641 38.9531L113.111 34.2478C112.865 33.9098 112.593 33.5917 112.297 33.2963L106.641 38.9531ZM105.766 38.625V30.625C105.078 30.625 104.394 30.7135 103.73 30.8884L105.766 38.625ZM84.9844 44.0938L82.9484 36.3572C80.5199 36.9962 78.5324 38.7386 77.5809 41.0625C76.6294 43.3865 76.8243 46.0223 78.1073 48.1811L84.9844 44.0938ZM91.875 55.6875L99.0304 52.1098C98.9438 51.9366 98.851 51.7666 98.7521 51.6002L91.875 55.6875ZM92.9688 56.2344L90.3783 48.6654C90.0403 48.7811 89.7105 48.9192 89.391 49.079L92.9688 56.2344ZM113.422 49.2344V41.2344C112.541 41.2344 111.665 41.38 110.831 41.6654L113.422 49.2344ZM113.859 49.0156H121.859C121.859 46.8939 121.017 44.8591 119.516 43.3588L113.859 49.0156ZM113.75 48.7969H121.75C121.75 47.5549 121.461 46.33 120.905 45.2192L113.75 48.7969ZM114.953 33.9219L113.384 26.0772C113.26 26.1021 113.136 26.13 113.013 26.1607L114.953 33.9219ZM115.609 33.375L122.765 29.7973C122.495 29.2573 122.165 28.7496 121.78 28.2839L115.609 33.375ZM108.719 25.3906V17.3906C108.242 17.3906 107.766 17.4332 107.297 17.5179L108.719 25.3906ZM100.844 26.8125L99.4223 18.9398C99.0466 19.0076 98.6761 19.1023 98.3139 19.223L100.844 26.8125ZM100.734 27.3594L107.194 22.6392C106.951 22.3068 106.682 21.9937 106.391 21.7025L100.734 27.3594ZM106.969 35.8906L100.51 40.6108C102.43 43.2388 105.751 44.4412 108.909 43.6518L106.969 35.8906ZM118.781 26.4688H118.672V42.4688H118.781V26.4688ZM112.425 39.4663C112.253 39.2519 111.732 38.5768 111.354 37.5082C110.932 36.317 110.62 34.3919 111.438 32.2668C112.218 30.2389 113.612 29.1191 114.419 28.6098C115.201 28.1167 115.85 27.9235 116.037 27.8703L120.432 43.2547C121.001 43.0921 121.951 42.7759 122.955 42.1426C123.985 41.4932 125.523 40.2162 126.371 38.0105C128.145 33.3992 125.259 29.8962 124.919 29.4712L112.425 39.4663ZM116.19 27.8282L106.674 30.3438L110.763 45.8124L120.279 43.2968L116.19 27.8282ZM102.283 42.8299L110.923 54.533L123.795 45.0295L115.155 33.3264L102.283 42.8299ZM110.204 53.359C110.203 53.3565 110.187 53.3253 110.163 53.2734C110.14 53.2221 110.1 53.1329 110.053 53.0141C109.973 52.8082 109.797 52.3304 109.687 51.6707C109.575 50.998 109.494 49.9182 109.814 48.6408C110.155 47.2762 110.861 46.06 111.812 45.1088L123.126 56.4225C125.579 53.969 125.785 50.9337 125.469 49.0403C125.226 47.5793 124.634 46.4425 124.515 46.2035L110.204 53.359ZM111.812 45.1088C112.16 44.7605 112.46 44.5448 112.621 44.4373C112.789 44.3252 112.896 44.2718 112.907 44.2665L120.062 58.5773C120.876 58.1703 122.051 57.4968 123.126 56.4225L111.812 45.1088ZM113.756 43.9014L102.6 47.9483L108.056 62.9892L119.212 58.9424L113.756 43.9014ZM102.659 47.927C95.5538 50.4413 91.7855 51.7325 91.2046 51.9262L96.2642 67.1051C96.9958 66.8612 100.884 65.5275 107.997 63.0105L102.659 47.927ZM93.7344 51.5156H93.625V67.5156H93.7344V51.5156ZM90.3759 52.2051C90.2213 52.2738 90.3938 52.1784 90.8119 52.0948C91.2132 52.0146 92.2044 51.8713 93.4872 52.192L89.6066 67.7143C92.7908 68.5103 95.5818 67.4005 96.8741 66.8261L90.3759 52.2051ZM91.5469 51.9531C93.4958 51.9531 94.9181 52.7444 95.6974 53.3596C96.4519 53.9553 96.8232 54.5388 96.9616 54.7809L83.0697 62.7191C83.956 64.2701 86.5934 67.9531 91.5469 67.9531V51.9531ZM96.0362 53.482C96.362 53.8543 96.3904 53.9791 95.9107 53.1969C95.5511 52.6107 95.0566 51.7667 94.4074 50.629C93.1133 48.361 91.336 45.1568 89.0332 40.9899L75.0293 48.7289C77.3203 52.8744 79.1523 56.178 80.5105 58.5585C81.1876 59.7451 81.7799 60.7604 82.2715 61.5619C82.6428 62.1673 83.2864 63.2082 83.995 64.018L96.0362 53.482ZM79.99 37.1242C72.0981 39.2068 67.432 40.3703 65.6396 40.7686L69.1104 56.3876C71.2555 55.9109 76.2144 54.6682 84.0725 52.5946L79.99 37.1242ZM65.4347 40.817C65.468 40.8087 66.6283 40.5078 68.1892 41.1464C69.9729 41.8761 70.8288 43.2188 71.1188 43.8955L56.4125 50.1982C57.3587 52.4062 59.1443 54.7333 62.1311 55.9552C64.8951 57.0859 67.532 56.7851 69.3153 56.3393L65.4347 40.817ZM71.0657 43.7744L68.2219 37.4307L53.6218 43.9756L56.4656 50.3193L71.0657 43.7744ZM68.1559 37.2871C64.4445 29.4277 61.6409 23.4121 59.7289 19.2489C57.6655 14.7562 56.903 12.9733 56.9176 13.0171L41.7387 18.0767C42.0814 19.1048 43.397 22.025 45.1891 25.9268C47.1325 30.1582 49.9617 36.2285 53.6879 44.1192L68.1559 37.2871ZM56.5918 12.1944C56.6 12.2122 56.6382 12.2961 56.6869 12.4376C56.7348 12.5764 56.8081 12.8148 56.868 13.1363C56.9802 13.7384 57.1104 14.9923 56.5903 16.5005C55.2961 20.2538 51.9597 20.9582 51.5183 21.0318L48.8879 5.24947C47.134 5.54179 43.032 6.7384 41.4644 11.2847C40.2376 14.8422 41.6229 17.9426 42.0644 18.8993L56.5918 12.1944ZM50.8214 21.1167L64.9308 20.0229L63.6942 4.0708L49.5848 5.16455L50.8214 21.1167ZM64.3125 20.0469C64.2055 20.0469 63.9811 20.0387 63.6585 19.9782C63.3931 19.9284 62.7949 19.7948 62.0473 19.421L69.2027 5.11021C67.4625 4.24012 65.6514 4.04688 64.3125 4.04688V20.0469ZM59.9681 17.9225C60.1106 18.0649 60.237 18.1826 60.3306 18.2676C60.3783 18.311 60.4215 18.3496 60.4576 18.3815C60.4935 18.4133 60.5258 18.4415 60.5508 18.4633C60.5744 18.4839 60.5989 18.5052 60.6126 18.517C60.6291 18.5314 60.6384 18.5395 60.646 18.5461C60.6605 18.5588 60.655 18.5542 60.6401 18.5406C60.607 18.5105 60.5272 18.4364 60.4266 18.3294C60.3242 18.2204 60.2123 18.0903 60.1 17.9406L72.9 8.34063C72.3371 7.59005 71.7877 7.0514 71.4029 6.70157C71.2463 6.55925 71.0696 6.40701 71.0649 6.40292C71.007 6.35238 71.1263 6.45322 71.2819 6.60877L59.9681 17.9225ZM59.6354 17.2488L76.5885 45.5769L90.3177 37.3606L73.3646 9.03246L59.6354 17.2488ZM85.2989 49.2529L106.518 44.2217L102.826 28.6533L81.6074 33.6846L85.2989 49.2529ZM111.216 31.8353L104.216 21.8822L91.1282 31.0865L98.1282 41.0397L111.216 31.8353ZM103.818 21.3629C104.12 21.7255 104.933 22.7794 105.27 24.4643C105.679 26.5089 105.222 28.7118 103.908 30.4641C102.821 31.9137 101.546 32.5259 101.069 32.7301C100.517 32.9667 100.13 33.0351 100.087 33.0428L97.2252 17.3009C96.5811 17.418 95.7015 17.6231 94.7666 18.0238C93.9072 18.3921 92.3591 19.1957 91.1078 20.8641C89.6296 22.835 89.1175 25.2841 89.5811 27.6021C89.9728 29.5605 90.9505 30.9151 91.5261 31.6059L103.818 21.3629ZM99.9714 33.063L109.815 31.4224L107.185 15.6401L97.3411 17.2807L99.9714 33.063ZM108.5 31.5312C108.558 31.5312 108.594 31.5313 108.626 31.5314C108.641 31.5315 108.651 31.5315 108.658 31.5316C108.666 31.5317 108.669 31.5317 108.669 31.5317C108.669 31.5317 108.664 31.5316 108.657 31.5314C108.649 31.5312 108.636 31.5308 108.62 31.5301C108.589 31.5288 108.539 31.5263 108.474 31.5214C108.202 31.5004 107.687 31.4378 107.064 31.2301L112.124 16.0512C110.342 15.4572 108.654 15.5312 108.5 15.5312V31.5312ZM106.016 30.796C105.815 30.6958 105.661 30.6066 105.563 30.5478C105.461 30.4861 105.38 30.4336 105.325 30.3961C105.216 30.3229 105.147 30.2697 105.116 30.2456C105.057 30.1995 105.037 30.1793 105.031 30.1725L116.344 18.8588C115.656 18.1703 114.509 17.1538 113.171 16.4852L106.016 30.796ZM104.479 29.5604L108.744 34.8104L121.162 24.7209L116.896 19.4709L104.479 29.5604ZM108.638 34.6771C110.858 37.5312 112.485 39.4867 113.124 40.1256L124.438 28.8119C124.629 29.0033 124.697 29.0939 124.478 28.8389C124.333 28.6709 124.114 28.4111 123.819 28.0531C123.231 27.3398 122.376 26.2787 121.268 24.8541L108.638 34.6771ZM80.1719 50.3438C81.5449 50.3438 83.7137 49.9893 85.6432 48.2914C87.6036 46.5662 88.244 44.4009 88.3919 42.921C88.6391 40.449 87.7133 38.5536 87.4367 38.0004L73.1258 45.1558C73.068 45.0401 72.2515 43.5275 72.4713 41.329C72.6057 39.9858 73.1982 37.9299 75.0731 36.2799C76.9171 34.6572 78.9629 34.3438 80.1719 34.3438V50.3438ZM87.2015 37.5644L71.3421 10.2206L57.5016 18.2481L73.361 45.5919L87.2015 37.5644ZM70.0787 8.57752C69.8853 8.3841 67.7206 6.01562 63.9844 6.01562V22.0156C62.613 22.0156 61.2764 21.6329 60.1282 20.9439C59.2174 20.3975 58.6053 19.7315 58.765 19.8912L70.0787 8.57752ZM63.3076 6.04431L51.7138 7.02868L53.0674 22.9713L64.6612 21.9869L63.3076 6.04431ZM52.3906 7C50.9799 7 49.1188 7.37951 47.4159 8.70398C45.7821 9.97466 45.0385 11.5393 44.7055 12.5385C44.388 13.4909 44.322 14.2863 44.3007 14.6063C44.2877 14.8002 44.2839 14.9584 44.2825 15.051C44.2811 15.1387 44.2812 15.2164 44.2812 15.2188H60.2812C60.2812 15.1345 60.2845 15.3821 60.2652 15.6706C60.2473 15.9392 60.1882 16.6868 59.8844 17.5982C59.565 18.5564 58.8419 20.0869 57.2389 21.3336C55.5668 22.6342 53.7467 23 52.3906 23V7ZM44.2812 15.2188C44.2812 15.2281 44.28 15.4488 44.2894 15.6838C44.2993 15.933 44.3278 16.4349 44.4503 17.0474C44.7638 18.615 45.5271 20.1064 46.7338 21.3131L58.0475 9.9994C58.5068 10.4587 58.9921 11.0632 59.3977 11.8294C59.8031 12.5952 60.0216 13.3198 60.1396 13.9096C60.2484 14.4538 60.27 14.8805 60.2766 15.0443C60.2825 15.1937 60.2812 15.3188 60.2812 15.2188H44.2812ZM45.1931 19.1484L59.5212 48.6797L73.9163 41.6953L59.5882 12.1641L45.1931 19.1484ZM58.7188 45.1875C58.7188 46.3534 59.0092 49.8084 62.3495 52.0353C63.7476 52.9674 65.0877 53.2377 65.7999 53.3327C66.1694 53.3819 66.4703 53.3963 66.6429 53.4018C66.7333 53.4047 66.8076 53.4056 66.8543 53.406C66.8977 53.4063 66.936 53.4062 66.9375 53.4062V37.4062C66.7985 37.4062 67.3189 37.3936 67.9145 37.473C68.5754 37.5611 69.8677 37.8178 71.2247 38.7225C74.483 40.8947 74.7188 44.2404 74.7188 45.1875H58.7188ZM66.9375 45.4062C66.9375 53.4062 66.9395 53.4062 66.9414 53.4062C66.9421 53.4062 66.944 53.4062 66.9453 53.4062C66.9479 53.4062 66.9506 53.4062 66.9532 53.4062C66.9585 53.4062 66.9637 53.4062 66.969 53.4062C66.9796 53.4061 66.9903 53.4061 67.0011 53.406C67.0227 53.4058 67.0447 53.4056 67.067 53.4052C67.1117 53.4045 67.1578 53.4034 67.2055 53.4019C67.3007 53.3988 67.402 53.394 67.509 53.3868C67.7226 53.3726 67.9606 53.3491 68.2193 53.3122C68.7353 53.2385 69.3452 53.1093 70.0142 52.8863L64.9546 37.7074C65.2954 37.5938 65.6319 37.5194 65.9565 37.473C66.1195 37.4497 66.2823 37.4331 66.4447 37.4223C66.526 37.4168 66.6076 37.4128 66.6896 37.4102C66.7306 37.4089 66.7718 37.4079 66.8131 37.4072C66.8337 37.4069 66.8544 37.4067 66.8751 37.4065C66.8855 37.4064 66.8959 37.4064 66.9063 37.4063C66.9115 37.4063 66.9167 37.4063 66.9219 37.4063C66.9245 37.4063 66.9271 37.4063 66.9297 37.4063C66.931 37.4063 66.9329 37.4063 66.9336 37.4063C66.9355 37.4063 66.9375 37.4062 66.9375 45.4062ZM69.3472 53.077L77.1128 51.2176L73.3872 35.6574L65.6215 37.5168L69.3472 53.077ZM76.8708 51.2716C78.5368 50.9269 79.8073 50.6382 80.6772 50.4353C81.0533 50.3475 81.494 50.2428 81.6283 50.2113C81.7374 50.1857 81.7596 50.181 81.7427 50.1847C81.7392 50.1854 81.6592 50.2029 81.5428 50.2237C81.4857 50.2339 81.3641 50.2551 81.2063 50.2759C81.1178 50.2876 80.7054 50.3438 80.1719 50.3438V34.3438C79.6316 34.3438 79.2092 34.4007 79.1079 34.4141C78.9373 34.4367 78.7999 34.4604 78.724 34.474C78.5701 34.5015 78.4405 34.529 78.3754 34.543C78.2355 34.5731 78.0868 34.6077 77.9772 34.6334C77.674 34.7045 77.4858 34.7501 77.0415 34.8538C76.2709 35.0336 75.135 35.2919 73.6292 35.6034L76.8708 51.2716ZM120.111 43.8728L113.111 34.2478L100.171 43.6585L107.171 53.2835L120.111 43.8728ZM112.297 33.2963C112.26 33.2588 112.149 33.1477 112.036 33.0385C111.927 32.9343 111.689 32.7088 111.378 32.4601C110.926 32.0985 109.062 30.625 106.203 30.625V46.625C103.454 46.625 101.699 45.2062 101.383 44.954C101.022 44.6647 100.736 44.3624 100.984 44.61L112.297 33.2963ZM106.203 30.625C106.203 30.625 106.203 30.625 106.202 30.625C106.202 30.625 106.202 30.625 106.202 30.625C106.202 30.625 106.201 30.625 106.201 30.625C106.201 30.625 106.201 30.625 106.201 30.625C106.2 30.625 106.2 30.625 106.2 30.625C106.2 30.625 106.199 30.625 106.199 30.625C106.199 30.625 106.199 30.625 106.199 30.625C106.198 30.625 106.198 30.625 106.198 30.625C106.198 30.625 106.198 30.625 106.197 30.625C106.197 30.625 106.197 30.625 106.197 30.625C106.197 30.625 106.196 30.625 106.196 30.625C106.196 30.625 106.196 30.625 106.195 30.625C106.195 30.625 106.195 30.625 106.195 30.625C106.195 30.625 106.194 30.625 106.194 30.625C106.194 30.625 106.194 30.625 106.194 30.625C106.193 30.625 106.193 30.625 106.193 30.625C106.193 30.625 106.192 30.625 106.192 30.625C106.192 30.625 106.192 30.625 106.192 30.625C106.191 30.625 106.191 30.625 106.191 30.625C106.191 30.625 106.191 30.625 106.19 30.625C106.19 30.625 106.19 30.625 106.19 30.625C106.189 30.625 106.189 30.625 106.189 30.625C106.189 30.625 106.189 30.625 106.188 30.625C106.188 30.625 106.188 30.625 106.188 30.625C106.188 30.625 106.187 30.625 106.187 30.625C106.187 30.625 106.187 30.625 106.186 30.625C106.186 30.625 106.186 30.625 106.186 30.625C106.186 30.625 106.185 30.625 106.185 30.625C106.185 30.625 106.185 30.625 106.185 30.625C106.184 30.625 106.184 30.625 106.184 30.625C106.184 30.625 106.183 30.625 106.183 30.625C106.183 30.625 106.183 30.625 106.183 30.625C106.182 30.625 106.182 30.625 106.182 30.625C106.182 30.625 106.182 30.625 106.181 30.625C106.181 30.625 106.181 30.625 106.181 30.625C106.18 30.625 106.18 30.625 106.18 30.625C106.18 30.625 106.18 30.625 106.179 30.625C106.179 30.625 106.179 30.625 106.179 30.625C106.179 30.625 106.178 30.625 106.178 30.625C106.178 30.625 106.178 30.625 106.177 30.625C106.177 30.625 106.177 30.625 106.177 30.625C106.177 30.625 106.176 30.625 106.176 30.625C106.176 30.625 106.176 30.625 106.176 30.625C106.175 30.625 106.175 30.625 106.175 30.625C106.175 30.625 106.174 30.625 106.174 30.625C106.174 30.625 106.174 30.625 106.174 30.625C106.173 30.625 106.173 30.625 106.173 30.625C106.173 30.625 106.172 30.625 106.172 30.625C106.172 30.625 106.172 30.625 106.172 30.625C106.171 30.625 106.171 30.625 106.171 30.625C106.171 30.625 106.171 30.625 106.17 30.625C106.17 30.625 106.17 30.625 106.17 30.625C106.169 30.625 106.169 30.625 106.169 30.625C106.169 30.625 106.169 30.625 106.168 30.625C106.168 30.625 106.168 30.625 106.168 30.625C106.168 30.625 106.167 30.625 106.167 30.625C106.167 30.625 106.167 30.625 106.166 30.625C106.166 30.625 106.166 30.625 106.166 30.625C106.166 30.625 106.165 30.625 106.165 30.625C106.165 30.625 106.165 30.625 106.164 30.625C106.164 30.625 106.164 30.625 106.164 30.625C106.164 30.625 106.163 30.625 106.163 30.625C106.163 30.625 106.163 30.625 106.163 30.625C106.162 30.625 106.162 30.625 106.162 30.625C106.162 30.625 106.161 30.625 106.161 30.625C106.161 30.625 106.161 30.625 106.161 30.625C106.16 30.625 106.16 30.625 106.16 30.625C106.16 30.625 106.16 30.625 106.159 30.625C106.159 30.625 106.159 30.625 106.159 30.625C106.158 30.625 106.158 30.625 106.158 30.625C106.158 30.625 106.158 30.625 106.157 30.625C106.157 30.625 106.157 30.625 106.157 30.625C106.156 30.625 106.156 30.625 106.156 30.625C106.156 30.625 106.156 30.625 106.155 30.625C106.155 30.625 106.155 30.625 106.155 30.625C106.154 30.625 106.154 30.625 106.154 30.625C106.154 30.625 106.154 30.625 106.153 30.625C106.153 30.625 106.153 30.625 106.153 30.625C106.153 30.625 106.152 30.625 106.152 30.625C106.152 30.625 106.152 30.625 106.151 30.625C106.151 30.625 106.151 30.625 106.151 30.625C106.151 30.625 106.15 30.625 106.15 30.625C106.15 30.625 106.15 30.625 106.149 30.625C106.149 30.625 106.149 30.625 106.149 30.625C106.149 30.625 106.148 30.625 106.148 30.625C106.148 30.625 106.148 30.625 106.147 30.625C106.147 30.625 106.147 30.625 106.147 30.625C106.147 30.625 106.146 30.625 106.146 30.625C106.146 30.625 106.146 30.625 106.146 30.625C106.145 30.625 106.145 30.625 106.145 30.625C106.145 30.625 106.144 30.625 106.144 30.625C106.144 30.625 106.144 30.625 106.144 30.625C106.143 30.625 106.143 30.625 106.143 30.625C106.143 30.625 106.142 30.625 106.142 30.625C106.142 30.625 106.142 30.625 106.142 30.625C106.141 30.625 106.141 30.625 106.141 30.625C106.141 30.625 106.14 30.625 106.14 30.625C106.14 30.625 106.14 30.625 106.14 30.625C106.139 30.625 106.139 30.625 106.139 30.625C106.139 30.625 106.138 30.625 106.138 30.625C106.138 30.625 106.138 30.625 106.138 30.625C106.137 30.625 106.137 30.625 106.137 30.625C106.137 30.625 106.136 30.625 106.136 30.625C106.136 30.625 106.136 30.625 106.136 30.625C106.135 30.625 106.135 30.625 106.135 30.625C106.135 30.625 106.134 30.625 106.134 30.625C106.134 30.625 106.134 30.625 106.134 30.625C106.133 30.625 106.133 30.625 106.133 30.625C106.133 30.625 106.132 30.625 106.132 30.625C106.132 30.625 106.132 30.625 106.132 30.625C106.131 30.625 106.131 30.625 106.131 30.625C106.131 30.625 106.13 30.625 106.13 30.625C106.13 30.625 106.13 30.625 106.13 30.625C106.129 30.625 106.129 30.625 106.129 30.625C106.129 30.625 106.128 30.625 106.128 30.625C106.128 30.625 106.128 30.625 106.128 30.625C106.127 30.625 106.127 30.625 106.127 30.625C106.127 30.625 106.126 30.625 106.126 30.625C106.126 30.625 106.126 30.625 106.125 30.625C106.125 30.625 106.125 30.625 106.125 30.625C106.125 30.625 106.124 30.625 106.124 30.625C106.124 30.625 106.124 30.625 106.123 30.625C106.123 30.625 106.123 30.625 106.123 30.625C106.123 30.625 106.122 30.625 106.122 30.625C106.122 30.625 106.122 30.625 106.121 30.625C106.121 30.625 106.121 30.625 106.121 30.625C106.121 30.625 106.12 30.625 106.12 30.625C106.12 30.625 106.12 30.625 106.119 30.625C106.119 30.625 106.119 30.625 106.119 30.625C106.118 30.625 106.118 30.625 106.118 30.625C106.118 30.625 106.118 30.625 106.117 30.625C106.117 30.625 106.117 30.625 106.117 30.625C106.116 30.625 106.116 30.625 106.116 30.625C106.116 30.625 106.116 30.625 106.115 30.625C106.115 30.625 106.115 30.625 106.115 30.625C106.114 30.625 106.114 30.625 106.114 30.625C106.114 30.625 106.113 30.625 106.113 30.625C106.113 30.625 106.113 30.625 106.113 30.625C106.112 30.625 106.112 30.625 106.112 30.625C106.112 30.625 106.111 30.625 106.111 30.625C106.111 30.625 106.111 30.625 106.11 30.625C106.11 30.625 106.11 30.625 106.11 30.625C106.11 30.625 106.109 30.625 106.109 30.625C106.109 30.625 106.109 30.625 106.108 30.625C106.108 30.625 106.108 30.625 106.108 30.625C106.107 30.625 106.107 30.625 106.107 30.625C106.107 30.625 106.107 30.625 106.106 30.625C106.106 30.625 106.106 30.625 106.106 30.625C106.105 30.625 106.105 30.625 106.105 30.625C106.105 30.625 106.104 30.625 106.104 30.625C106.104 30.625 106.104 30.625 106.104 30.625C106.103 30.625 106.103 30.625 106.103 30.625C106.103 30.625 106.102 30.625 106.102 30.625C106.102 30.625 106.102 30.625 106.101 30.625C106.101 30.625 106.101 30.625 106.101 30.625C106.101 30.625 106.1 30.625 106.1 30.625C106.1 30.625 106.1 30.625 106.099 30.625C106.099 30.625 106.099 30.625 106.099 30.625C106.098 30.625 106.098 30.625 106.098 30.625C106.098 30.625 106.097 30.625 106.097 30.625C106.097 30.625 106.097 30.625 106.097 30.625C106.096 30.625 106.096 30.625 106.096 30.625C106.096 30.625 106.095 30.625 106.095 30.625C106.095 30.625 106.095 30.625 106.094 30.625C106.094 30.625 106.094 30.625 106.094 30.625C106.093 30.625 106.093 30.625 106.093 30.625C106.093 30.625 106.093 30.625 106.092 30.625C106.092 30.625 106.092 30.625 106.092 30.625C106.091 30.625 106.091 30.625 106.091 30.625C106.091 30.625 106.09 30.625 106.09 30.625C106.09 30.625 106.09 30.625 106.089 30.625C106.089 30.625 106.089 30.625 106.089 30.625C106.089 30.625 106.088 30.625 106.088 30.625C106.088 30.625 106.088 30.625 106.087 30.625C106.087 30.625 106.087 30.625 106.087 30.625C106.086 30.625 106.086 30.625 106.086 30.625C106.086 30.625 106.085 30.625 106.085 30.625C106.085 30.625 106.085 30.625 106.084 30.625C106.084 30.625 106.084 30.625 106.084 30.625C106.083 30.625 106.083 30.625 106.083 30.625C106.083 30.625 106.083 30.625 106.082 30.625C106.082 30.625 106.082 30.625 106.082 30.625C106.081 30.625 106.081 30.625 106.081 30.625C106.081 30.625 106.08 30.625 106.08 30.625C106.08 30.625 106.08 30.625 106.079 30.625C106.079 30.625 106.079 30.625 106.079 30.625C106.078 30.625 106.078 30.625 106.078 30.625C106.078 30.625 106.077 30.625 106.077 30.625C106.077 30.625 106.077 30.625 106.076 30.625C106.076 30.625 106.076 30.625 106.076 30.625C106.076 30.625 106.075 30.625 106.075 30.625C106.075 30.625 106.075 30.625 106.074 30.625C106.074 30.625 106.074 30.625 106.074 30.625C106.073 30.625 106.073 30.625 106.073 30.625C106.073 30.625 106.072 30.625 106.072 30.625C106.072 30.625 106.072 30.625 106.071 30.625C106.071 30.625 106.071 30.625 106.071 30.625C106.07 30.625 106.07 30.625 106.07 30.625C106.07 30.625 106.069 30.625 106.069 30.625C106.069 30.625 106.069 30.625 106.068 30.625C106.068 30.625 106.068 30.625 106.068 30.625C106.067 30.625 106.067 30.625 106.067 30.625C106.067 30.625 106.066 30.625 106.066 30.625C106.066 30.625 106.066 30.625 106.065 30.625C106.065 30.625 106.065 30.625 106.065 30.625C106.064 30.625 106.064 30.625 106.064 30.625C106.064 30.625 106.063 30.625 106.063 30.625C106.063 30.625 106.063 30.625 106.062 30.625C106.062 30.625 106.062 30.625 106.062 30.625C106.061 30.625 106.061 30.625 106.061 30.625C106.061 30.625 106.06 30.625 106.06 30.625C106.06 30.625 106.06 30.625 106.059 30.625C106.059 30.625 106.059 30.625 106.059 30.625C106.058 30.625 106.058 30.625 106.058 30.625C106.058 30.625 106.057 30.625 106.057 30.625C106.057 30.625 106.057 30.625 106.056 30.625C106.056 30.625 106.056 30.625 106.056 30.625C106.055 30.625 106.055 30.625 106.055 30.625C106.055 30.625 106.054 30.625 106.054 30.625C106.054 30.625 106.054 30.625 106.053 30.625C106.053 30.625 106.053 30.625 106.053 30.625C106.052 30.625 106.052 30.625 106.052 30.625C106.052 30.625 106.051 30.625 106.051 30.625C106.051 30.625 106.051 30.625 106.05 30.625C106.05 30.625 106.05 30.625 106.05 30.625C106.049 30.625 106.049 30.625 106.049 30.625C106.049 30.625 106.048 30.625 106.048 30.625C106.048 30.625 106.048 30.625 106.047 30.625C106.047 30.625 106.047 30.625 106.047 30.625C106.046 30.625 106.046 30.625 106.046 30.625C106.046 30.625 106.045 30.625 106.045 30.625C106.045 30.625 106.045 30.625 106.044 30.625C106.044 30.625 106.044 30.625 106.043 30.625C106.043 30.625 106.043 30.625 106.043 30.625C106.042 30.625 106.042 30.625 106.042 30.625C106.042 30.625 106.041 30.625 106.041 30.625C106.041 30.625 106.041 30.625 106.04 30.625C106.04 30.625 106.04 30.625 106.04 30.625C106.039 30.625 106.039 30.625 106.039 30.625C106.039 30.625 106.038 30.625 106.038 30.625C106.038 30.625 106.038 30.625 106.037 30.625C106.037 30.625 106.037 30.625 106.036 30.625C106.036 30.625 106.036 30.625 106.036 30.625C106.035 30.625 106.035 30.625 106.035 30.625C106.035 30.625 106.034 30.625 106.034 30.625C106.034 30.625 106.034 30.625 106.033 30.625C106.033 30.625 106.033 30.625 106.033 30.625C106.032 30.625 106.032 30.625 106.032 30.625C106.031 30.625 106.031 30.625 106.031 30.625C106.031 30.625 106.03 30.625 106.03 30.625C106.03 30.625 106.03 30.625 106.029 30.625C106.029 30.625 106.029 30.625 106.029 30.625C106.028 30.625 106.028 30.625 106.028 30.625C106.028 30.625 106.027 30.625 106.027 30.625C106.027 30.625 106.026 30.625 106.026 30.625C106.026 30.625 106.026 30.625 106.025 30.625C106.025 30.625 106.025 30.625 106.025 30.625C106.024 30.625 106.024 30.625 106.024 30.625C106.024 30.625 106.023 30.625 106.023 30.625C106.023 30.625 106.022 30.625 106.022 30.625C106.022 30.625 106.022 30.625 106.021 30.625C106.021 30.625 106.021 30.625 106.021 30.625C106.02 30.625 106.02 30.625 106.02 30.625C106.019 30.625 106.019 30.625 106.019 30.625C106.019 30.625 106.018 30.625 106.018 30.625C106.018 30.625 106.018 30.625 106.017 30.625C106.017 30.625 106.017 30.625 106.017 30.625C106.016 30.625 106.016 30.625 106.016 30.625C106.015 30.625 106.015 30.625 106.015 30.625C106.015 30.625 106.014 30.625 106.014 30.625C106.014 30.625 106.014 30.625 106.013 30.625C106.013 30.625 106.013 30.625 106.012 30.625C106.012 30.625 106.012 30.625 106.012 30.625C106.011 30.625 106.011 30.625 106.011 30.625C106.01 30.625 106.01 30.625 106.01 30.625C106.01 30.625 106.009 30.625 106.009 30.625C106.009 30.625 106.009 30.625 106.008 30.625C106.008 30.625 106.008 30.625 106.007 30.625C106.007 30.625 106.007 30.625 106.007 30.625C106.006 30.625 106.006 30.625 106.006 30.625C106.006 30.625 106.005 30.625 106.005 30.625C106.005 30.625 106.004 30.625 106.004 30.625C106.004 30.625 106.004 30.625 106.003 30.625C106.003 30.625 106.003 30.625 106.002 30.625C106.002 30.625 106.002 30.625 106.002 30.625C106.001 30.625 106.001 30.625 106.001 30.625C106 30.625 106 30.625 106 30.625C106 30.625 105.999 30.625 105.999 30.625C105.999 30.625 105.999 30.625 105.998 30.625C105.998 30.625 105.998 30.625 105.997 30.625C105.997 30.625 105.997 30.625 105.997 30.625C105.996 30.625 105.996 30.625 105.996 30.625C105.995 30.625 105.995 30.625 105.995 30.625C105.995 30.625 105.994 30.625 105.994 30.625C105.994 30.625 105.993 30.625 105.993 30.625C105.993 30.625 105.993 30.625 105.992 30.625C105.992 30.625 105.992 30.625 105.991 30.625C105.991 30.625 105.991 30.625 105.991 30.625C105.99 30.625 105.99 30.625 105.99 30.625C105.989 30.625 105.989 30.625 105.989 30.625C105.989 30.625 105.988 30.625 105.988 30.625C105.988 30.625 105.987 30.625 105.987 30.625C105.987 30.625 105.987 30.625 105.986 30.625C105.986 30.625 105.986 30.625 105.985 30.625C105.985 30.625 105.985 30.625 105.985 30.625C105.984 30.625 105.984 30.625 105.984 30.625C105.983 30.625 105.983 30.625 105.983 30.625C105.983 30.625 105.982 30.625 105.982 30.625C105.982 30.625 105.981 30.625 105.981 30.625C105.981 30.625 105.98 30.625 105.98 30.625C105.98 30.625 105.98 30.625 105.979 30.625C105.979 30.625 105.979 30.625 105.978 30.625C105.978 30.625 105.978 30.625 105.978 30.625C105.977 30.625 105.977 30.625 105.977 30.625C105.976 30.625 105.976 30.625 105.976 30.625C105.975 30.625 105.975 30.625 105.975 30.625C105.975 30.625 105.974 30.625 105.974 30.625C105.974 30.625 105.973 30.625 105.973 30.625C105.973 30.625 105.973 30.625 105.972 30.625C105.972 30.625 105.972 30.625 105.971 30.625C105.971 30.625 105.971 30.625 105.97 30.625C105.97 30.625 105.97 30.625 105.97 30.625C105.969 30.625 105.969 30.625 105.969 30.625C105.968 30.625 105.968 30.625 105.968 30.625C105.967 30.625 105.967 30.625 105.967 30.625C105.967 30.625 105.966 30.625 105.966 30.625C105.966 30.625 105.965 30.625 105.965 30.625C105.965 30.625 105.964 30.625 105.964 30.625C105.964 30.625 105.964 30.625 105.963 30.625C105.963 30.625 105.963 30.625 105.962 30.625C105.962 30.625 105.962 30.625 105.961 30.625C105.961 30.625 105.961 30.625 105.961 30.625C105.96 30.625 105.96 30.625 105.96 30.625C105.959 30.625 105.959 30.625 105.959 30.625C105.958 30.625 105.958 30.625 105.958 30.625C105.957 30.625 105.957 30.625 105.957 30.625C105.957 30.625 105.956 30.625 105.956 30.625C105.956 30.625 105.955 30.625 105.955 30.625C105.955 30.625 105.954 30.625 105.954 30.625C105.954 30.625 105.954 30.625 105.953 30.625C105.953 30.625 105.953 30.625 105.952 30.625C105.952 30.625 105.952 30.625 105.951 30.625C105.951 30.625 105.951 30.625 105.95 30.625C105.95 30.625 105.95 30.625 105.949 30.625C105.949 30.625 105.949 30.625 105.949 30.625C105.948 30.625 105.948 30.625 105.948 30.625C105.947 30.625 105.947 30.625 105.947 30.625C105.946 30.625 105.946 30.625 105.946 30.625C105.945 30.625 105.945 30.625 105.945 30.625C105.945 30.625 105.944 30.625 105.944 30.625C105.944 30.625 105.943 30.625 105.943 30.625C105.943 30.625 105.942 30.625 105.942 30.625C105.942 30.625 105.941 30.625 105.941 30.625C105.941 30.625 105.94 30.625 105.94 30.625C105.94 30.625 105.939 30.625 105.939 30.625C105.939 30.625 105.939 30.625 105.938 30.625C105.938 30.625 105.938 30.625 105.937 30.625C105.937 30.625 105.937 30.625 105.936 30.625C105.936 30.625 105.936 30.625 105.935 30.625C105.935 30.625 105.935 30.625 105.934 30.625C105.934 30.625 105.934 30.625 105.933 30.625C105.933 30.625 105.933 30.625 105.932 30.625C105.932 30.625 105.932 30.625 105.932 30.625C105.931 30.625 105.931 30.625 105.931 30.625C105.93 30.625 105.93 30.625 105.93 30.625C105.929 30.625 105.929 30.625 105.929 30.625C105.928 30.625 105.928 30.625 105.928 30.625C105.927 30.625 105.927 30.625 105.927 30.625C105.926 30.625 105.926 30.625 105.926 30.625C105.925 30.625 105.925 30.625 105.925 30.625C105.924 30.625 105.924 30.625 105.924 30.625C105.923 30.625 105.923 30.625 105.923 30.625C105.922 30.625 105.922 30.625 105.922 30.625C105.921 30.625 105.921 30.625 105.921 30.625C105.92 30.625 105.92 30.625 105.92 30.625C105.919 30.625 105.919 30.625 105.919 30.625C105.919 30.625 105.918 30.625 105.918 30.625C105.918 30.625 105.917 30.625 105.917 30.625C105.917 30.625 105.916 30.625 105.916 30.625C105.916 30.625 105.915 30.625 105.915 30.625C105.915 30.625 105.914 30.625 105.914 30.625C105.914 30.625 105.913 30.625 105.913 30.625C105.913 30.625 105.912 30.625 105.912 30.625C105.912 30.625 105.911 30.625 105.911 30.625C105.911 30.625 105.91 30.625 105.91 30.625C105.91 30.625 105.909 30.625 105.909 30.625C105.909 30.625 105.908 30.625 105.908 30.625C105.908 30.625 105.907 30.625 105.907 30.625C105.907 30.625 105.906 30.625 105.906 30.625C105.906 30.625 105.905 30.625 105.905 30.625C105.905 30.625 105.904 30.625 105.904 30.625C105.903 30.625 105.903 30.625 105.903 30.625C105.902 30.625 105.902 30.625 105.902 30.625C105.901 30.625 105.901 30.625 105.901 30.625C105.9 30.625 105.9 30.625 105.9 30.625C105.899 30.625 105.899 30.625 105.899 30.625C105.898 30.625 105.898 30.625 105.898 30.625C105.897 30.625 105.897 30.625 105.897 30.625C105.896 30.625 105.896 30.625 105.896 30.625C105.895 30.625 105.895 30.625 105.895 30.625C105.894 30.625 105.894 30.625 105.894 30.625C105.893 30.625 105.893 30.625 105.893 30.625C105.892 30.625 105.892 30.625 105.892 30.625C105.891 30.625 105.891 30.625 105.89 30.625C105.89 30.625 105.89 30.625 105.889 30.625C105.889 30.625 105.889 30.625 105.888 30.625C105.888 30.625 105.888 30.625 105.887 30.625C105.887 30.625 105.887 30.625 105.886 30.625C105.886 30.625 105.886 30.625 105.885 30.625C105.885 30.625 105.885 30.625 105.884 30.625C105.884 30.625 105.884 30.625 105.883 30.625C105.883 30.625 105.882 30.625 105.882 30.625C105.882 30.625 105.881 30.625 105.881 30.625C105.881 30.625 105.88 30.625 105.88 30.625C105.88 30.625 105.879 30.625 105.879 30.625C105.879 30.625 105.878 30.625 105.878 30.625C105.878 30.625 105.877 30.625 105.877 30.625C105.876 30.625 105.876 30.625 105.876 30.625C105.875 30.625 105.875 30.625 105.875 30.625C105.874 30.625 105.874 30.625 105.874 30.625C105.873 30.625 105.873 30.625 105.873 30.625C105.872 30.625 105.872 30.625 105.871 30.625C105.871 30.625 105.871 30.625 105.87 30.625C105.87 30.625 105.87 30.625 105.869 30.625C105.869 30.625 105.869 30.625 105.868 30.625C105.868 30.625 105.867 30.625 105.867 30.625C105.867 30.625 105.866 30.625 105.866 30.625C105.866 30.625 105.865 30.625 105.865 30.625C105.865 30.625 105.864 30.625 105.864 30.625C105.863 30.625 105.863 30.625 105.863 30.625C105.862 30.625 105.862 30.625 105.862 30.625C105.861 30.625 105.861 30.625 105.861 30.625C105.86 30.625 105.86 30.625 105.859 30.625C105.859 30.625 105.859 30.625 105.858 30.625C105.858 30.625 105.858 30.625 105.857 30.625C105.857 30.625 105.857 30.625 105.856 30.625C105.856 30.625 105.855 30.625 105.855 30.625C105.855 30.625 105.854 30.625 105.854 30.625C105.854 30.625 105.853 30.625 105.853 30.625C105.852 30.625 105.852 30.625 105.852 30.625C105.851 30.625 105.851 30.625 105.851 30.625C105.85 30.625 105.85 30.625 105.849 30.625C105.849 30.625 105.849 30.625 105.848 30.625C105.848 30.625 105.848 30.625 105.847 30.625C105.847 30.625 105.847 30.625 105.846 30.625C105.846 30.625 105.845 30.625 105.845 30.625C105.845 30.625 105.844 30.625 105.844 30.625C105.843 30.625 105.843 30.625 105.843 30.625C105.842 30.625 105.842 30.625 105.842 30.625C105.841 30.625 105.841 30.625 105.84 30.625C105.84 30.625 105.84 30.625 105.839 30.625C105.839 30.625 105.839 30.625 105.838 30.625C105.838 30.625 105.837 30.625 105.837 30.625C105.837 30.625 105.836 30.625 105.836 30.625C105.836 30.625 105.835 30.625 105.835 30.625C105.834 30.625 105.834 30.625 105.834 30.625C105.833 30.625 105.833 30.625 105.832 30.625C105.832 30.625 105.832 30.625 105.831 30.625C105.831 30.625 105.831 30.625 105.83 30.625C105.83 30.625 105.829 30.625 105.829 30.625C105.829 30.625 105.828 30.625 105.828 30.625C105.827 30.625 105.827 30.625 105.827 30.625C105.826 30.625 105.826 30.625 105.826 30.625C105.825 30.625 105.825 30.625 105.824 30.625C105.824 30.625 105.824 30.625 105.823 30.625C105.823 30.625 105.822 30.625 105.822 30.625C105.822 30.625 105.821 30.625 105.821 30.625C105.82 30.625 105.82 30.625 105.82 30.625C105.819 30.625 105.819 30.625 105.818 30.625C105.818 30.625 105.818 30.625 105.817 30.625C105.817 30.625 105.817 30.625 105.816 30.625C105.816 30.625 105.815 30.625 105.815 30.625C105.815 30.625 105.814 30.625 105.814 30.625C105.813 30.625 105.813 30.625 105.813 30.625C105.812 30.625 105.812 30.625 105.811 30.625C105.811 30.625 105.811 30.625 105.81 30.625C105.81 30.625 105.809 30.625 105.809 30.625C105.809 30.625 105.808 30.625 105.808 30.625C105.807 30.625 105.807 30.625 105.807 30.625C105.806 30.625 105.806 30.625 105.805 30.625C105.805 30.625 105.805 30.625 105.804 30.625C105.804 30.625 105.803 30.625 105.803 30.625C105.803 30.625 105.802 30.625 105.802 30.625C105.801 30.625 105.801 30.625 105.801 30.625C105.8 30.625 105.8 30.625 105.799 30.625C105.799 30.625 105.799 30.625 105.798 30.625C105.798 30.625 105.797 30.625 105.797 30.625C105.796 30.625 105.796 30.625 105.796 30.625C105.795 30.625 105.795 30.625 105.794 30.625C105.794 30.625 105.794 30.625 105.793 30.625C105.793 30.625 105.792 30.625 105.792 30.625C105.792 30.625 105.791 30.625 105.791 30.625C105.79 30.625 105.79 30.625 105.79 30.625C105.789 30.625 105.789 30.625 105.788 30.625C105.788 30.625 105.787 30.625 105.787 30.625C105.787 30.625 105.786 30.625 105.786 30.625C105.785 30.625 105.785 30.625 105.785 30.625C105.784 30.625 105.784 30.625 105.783 30.625C105.783 30.625 105.782 30.625 105.782 30.625C105.782 30.625 105.781 30.625 105.781 30.625C105.78 30.625 105.78 30.625 105.78 30.625C105.779 30.625 105.779 30.625 105.778 30.625C105.778 30.625 105.777 30.625 105.777 30.625C105.777 30.625 105.776 30.625 105.776 30.625C105.775 30.625 105.775 30.625 105.775 30.625C105.774 30.625 105.774 30.625 105.773 30.625C105.773 30.625 105.772 30.625 105.772 30.625C105.772 30.625 105.771 30.625 105.771 30.625C105.77 30.625 105.77 30.625 105.769 30.625C105.769 30.625 105.769 30.625 105.768 30.625C105.768 30.625 105.767 30.625 105.767 30.625C105.766 30.625 105.766 30.625 105.766 30.625V46.625C105.766 46.625 105.766 46.625 105.767 46.625C105.767 46.625 105.768 46.625 105.768 46.625C105.769 46.625 105.769 46.625 105.769 46.625C105.77 46.625 105.77 46.625 105.771 46.625C105.771 46.625 105.772 46.625 105.772 46.625C105.772 46.625 105.773 46.625 105.773 46.625C105.774 46.625 105.774 46.625 105.775 46.625C105.775 46.625 105.775 46.625 105.776 46.625C105.776 46.625 105.777 46.625 105.777 46.625C105.777 46.625 105.778 46.625 105.778 46.625C105.779 46.625 105.779 46.625 105.78 46.625C105.78 46.625 105.78 46.625 105.781 46.625C105.781 46.625 105.782 46.625 105.782 46.625C105.782 46.625 105.783 46.625 105.783 46.625C105.784 46.625 105.784 46.625 105.785 46.625C105.785 46.625 105.785 46.625 105.786 46.625C105.786 46.625 105.787 46.625 105.787 46.625C105.787 46.625 105.788 46.625 105.788 46.625C105.789 46.625 105.789 46.625 105.79 46.625C105.79 46.625 105.79 46.625 105.791 46.625C105.791 46.625 105.792 46.625 105.792 46.625C105.792 46.625 105.793 46.625 105.793 46.625C105.794 46.625 105.794 46.625 105.794 46.625C105.795 46.625 105.795 46.625 105.796 46.625C105.796 46.625 105.796 46.625 105.797 46.625C105.797 46.625 105.798 46.625 105.798 46.625C105.799 46.625 105.799 46.625 105.799 46.625C105.8 46.625 105.8 46.625 105.801 46.625C105.801 46.625 105.801 46.625 105.802 46.625C105.802 46.625 105.803 46.625 105.803 46.625C105.803 46.625 105.804 46.625 105.804 46.625C105.805 46.625 105.805 46.625 105.805 46.625C105.806 46.625 105.806 46.625 105.807 46.625C105.807 46.625 105.807 46.625 105.808 46.625C105.808 46.625 105.809 46.625 105.809 46.625C105.809 46.625 105.81 46.625 105.81 46.625C105.811 46.625 105.811 46.625 105.811 46.625C105.812 46.625 105.812 46.625 105.813 46.625C105.813 46.625 105.813 46.625 105.814 46.625C105.814 46.625 105.815 46.625 105.815 46.625C105.815 46.625 105.816 46.625 105.816 46.625C105.817 46.625 105.817 46.625 105.817 46.625C105.818 46.625 105.818 46.625 105.818 46.625C105.819 46.625 105.819 46.625 105.82 46.625C105.82 46.625 105.82 46.625 105.821 46.625C105.821 46.625 105.822 46.625 105.822 46.625C105.822 46.625 105.823 46.625 105.823 46.625C105.824 46.625 105.824 46.625 105.824 46.625C105.825 46.625 105.825 46.625 105.826 46.625C105.826 46.625 105.826 46.625 105.827 46.625C105.827 46.625 105.827 46.625 105.828 46.625C105.828 46.625 105.829 46.625 105.829 46.625C105.829 46.625 105.83 46.625 105.83 46.625C105.831 46.625 105.831 46.625 105.831 46.625C105.832 46.625 105.832 46.625 105.832 46.625C105.833 46.625 105.833 46.625 105.834 46.625C105.834 46.625 105.834 46.625 105.835 46.625C105.835 46.625 105.836 46.625 105.836 46.625C105.836 46.625 105.837 46.625 105.837 46.625C105.837 46.625 105.838 46.625 105.838 46.625C105.839 46.625 105.839 46.625 105.839 46.625C105.84 46.625 105.84 46.625 105.84 46.625C105.841 46.625 105.841 46.625 105.842 46.625C105.842 46.625 105.842 46.625 105.843 46.625C105.843 46.625 105.843 46.625 105.844 46.625C105.844 46.625 105.845 46.625 105.845 46.625C105.845 46.625 105.846 46.625 105.846 46.625C105.847 46.625 105.847 46.625 105.847 46.625C105.848 46.625 105.848 46.625 105.848 46.625C105.849 46.625 105.849 46.625 105.849 46.625C105.85 46.625 105.85 46.625 105.851 46.625C105.851 46.625 105.851 46.625 105.852 46.625C105.852 46.625 105.852 46.625 105.853 46.625C105.853 46.625 105.854 46.625 105.854 46.625C105.854 46.625 105.855 46.625 105.855 46.625C105.855 46.625 105.856 46.625 105.856 46.625C105.857 46.625 105.857 46.625 105.857 46.625C105.858 46.625 105.858 46.625 105.858 46.625C105.859 46.625 105.859 46.625 105.859 46.625C105.86 46.625 105.86 46.625 105.861 46.625C105.861 46.625 105.861 46.625 105.862 46.625C105.862 46.625 105.862 46.625 105.863 46.625C105.863 46.625 105.863 46.625 105.864 46.625C105.864 46.625 105.865 46.625 105.865 46.625C105.865 46.625 105.866 46.625 105.866 46.625C105.866 46.625 105.867 46.625 105.867 46.625C105.867 46.625 105.868 46.625 105.868 46.625C105.869 46.625 105.869 46.625 105.869 46.625C105.87 46.625 105.87 46.625 105.87 46.625C105.871 46.625 105.871 46.625 105.871 46.625C105.872 46.625 105.872 46.625 105.873 46.625C105.873 46.625 105.873 46.625 105.874 46.625C105.874 46.625 105.874 46.625 105.875 46.625C105.875 46.625 105.875 46.625 105.876 46.625C105.876 46.625 105.876 46.625 105.877 46.625C105.877 46.625 105.878 46.625 105.878 46.625C105.878 46.625 105.879 46.625 105.879 46.625C105.879 46.625 105.88 46.625 105.88 46.625C105.88 46.625 105.881 46.625 105.881 46.625C105.881 46.625 105.882 46.625 105.882 46.625C105.882 46.625 105.883 46.625 105.883 46.625C105.884 46.625 105.884 46.625 105.884 46.625C105.885 46.625 105.885 46.625 105.885 46.625C105.886 46.625 105.886 46.625 105.886 46.625C105.887 46.625 105.887 46.625 105.887 46.625C105.888 46.625 105.888 46.625 105.888 46.625C105.889 46.625 105.889 46.625 105.889 46.625C105.89 46.625 105.89 46.625 105.89 46.625C105.891 46.625 105.891 46.625 105.892 46.625C105.892 46.625 105.892 46.625 105.893 46.625C105.893 46.625 105.893 46.625 105.894 46.625C105.894 46.625 105.894 46.625 105.895 46.625C105.895 46.625 105.895 46.625 105.896 46.625C105.896 46.625 105.896 46.625 105.897 46.625C105.897 46.625 105.897 46.625 105.898 46.625C105.898 46.625 105.898 46.625 105.899 46.625C105.899 46.625 105.899 46.625 105.9 46.625C105.9 46.625 105.9 46.625 105.901 46.625C105.901 46.625 105.901 46.625 105.902 46.625C105.902 46.625 105.902 46.625 105.903 46.625C105.903 46.625 105.903 46.625 105.904 46.625C105.904 46.625 105.905 46.625 105.905 46.625C105.905 46.625 105.906 46.625 105.906 46.625C105.906 46.625 105.907 46.625 105.907 46.625C105.907 46.625 105.908 46.625 105.908 46.625C105.908 46.625 105.909 46.625 105.909 46.625C105.909 46.625 105.91 46.625 105.91 46.625C105.91 46.625 105.911 46.625 105.911 46.625C105.911 46.625 105.912 46.625 105.912 46.625C105.912 46.625 105.913 46.625 105.913 46.625C105.913 46.625 105.914 46.625 105.914 46.625C105.914 46.625 105.915 46.625 105.915 46.625C105.915 46.625 105.916 46.625 105.916 46.625C105.916 46.625 105.917 46.625 105.917 46.625C105.917 46.625 105.918 46.625 105.918 46.625C105.918 46.625 105.919 46.625 105.919 46.625C105.919 46.625 105.919 46.625 105.92 46.625C105.92 46.625 105.92 46.625 105.921 46.625C105.921 46.625 105.921 46.625 105.922 46.625C105.922 46.625 105.922 46.625 105.923 46.625C105.923 46.625 105.923 46.625 105.924 46.625C105.924 46.625 105.924 46.625 105.925 46.625C105.925 46.625 105.925 46.625 105.926 46.625C105.926 46.625 105.926 46.625 105.927 46.625C105.927 46.625 105.927 46.625 105.928 46.625C105.928 46.625 105.928 46.625 105.929 46.625C105.929 46.625 105.929 46.625 105.93 46.625C105.93 46.625 105.93 46.625 105.931 46.625C105.931 46.625 105.931 46.625 105.932 46.625C105.932 46.625 105.932 46.625 105.932 46.625C105.933 46.625 105.933 46.625 105.933 46.625C105.934 46.625 105.934 46.625 105.934 46.625C105.935 46.625 105.935 46.625 105.935 46.625C105.936 46.625 105.936 46.625 105.936 46.625C105.937 46.625 105.937 46.625 105.937 46.625C105.938 46.625 105.938 46.625 105.938 46.625C105.939 46.625 105.939 46.625 105.939 46.625C105.939 46.625 105.94 46.625 105.94 46.625C105.94 46.625 105.941 46.625 105.941 46.625C105.941 46.625 105.942 46.625 105.942 46.625C105.942 46.625 105.943 46.625 105.943 46.625C105.943 46.625 105.944 46.625 105.944 46.625C105.944 46.625 105.945 46.625 105.945 46.625C105.945 46.625 105.945 46.625 105.946 46.625C105.946 46.625 105.946 46.625 105.947 46.625C105.947 46.625 105.947 46.625 105.948 46.625C105.948 46.625 105.948 46.625 105.949 46.625C105.949 46.625 105.949 46.625 105.949 46.625C105.95 46.625 105.95 46.625 105.95 46.625C105.951 46.625 105.951 46.625 105.951 46.625C105.952 46.625 105.952 46.625 105.952 46.625C105.953 46.625 105.953 46.625 105.953 46.625C105.954 46.625 105.954 46.625 105.954 46.625C105.954 46.625 105.955 46.625 105.955 46.625C105.955 46.625 105.956 46.625 105.956 46.625C105.956 46.625 105.957 46.625 105.957 46.625C105.957 46.625 105.957 46.625 105.958 46.625C105.958 46.625 105.958 46.625 105.959 46.625C105.959 46.625 105.959 46.625 105.96 46.625C105.96 46.625 105.96 46.625 105.961 46.625C105.961 46.625 105.961 46.625 105.961 46.625C105.962 46.625 105.962 46.625 105.962 46.625C105.963 46.625 105.963 46.625 105.963 46.625C105.964 46.625 105.964 46.625 105.964 46.625C105.964 46.625 105.965 46.625 105.965 46.625C105.965 46.625 105.966 46.625 105.966 46.625C105.966 46.625 105.967 46.625 105.967 46.625C105.967 46.625 105.967 46.625 105.968 46.625C105.968 46.625 105.968 46.625 105.969 46.625C105.969 46.625 105.969 46.625 105.97 46.625C105.97 46.625 105.97 46.625 105.97 46.625C105.971 46.625 105.971 46.625 105.971 46.625C105.972 46.625 105.972 46.625 105.972 46.625C105.973 46.625 105.973 46.625 105.973 46.625C105.973 46.625 105.974 46.625 105.974 46.625C105.974 46.625 105.975 46.625 105.975 46.625C105.975 46.625 105.975 46.625 105.976 46.625C105.976 46.625 105.976 46.625 105.977 46.625C105.977 46.625 105.977 46.625 105.978 46.625C105.978 46.625 105.978 46.625 105.978 46.625C105.979 46.625 105.979 46.625 105.979 46.625C105.98 46.625 105.98 46.625 105.98 46.625C105.98 46.625 105.981 46.625 105.981 46.625C105.981 46.625 105.982 46.625 105.982 46.625C105.982 46.625 105.983 46.625 105.983 46.625C105.983 46.625 105.983 46.625 105.984 46.625C105.984 46.625 105.984 46.625 105.985 46.625C105.985 46.625 105.985 46.625 105.985 46.625C105.986 46.625 105.986 46.625 105.986 46.625C105.987 46.625 105.987 46.625 105.987 46.625C105.987 46.625 105.988 46.625 105.988 46.625C105.988 46.625 105.989 46.625 105.989 46.625C105.989 46.625 105.989 46.625 105.99 46.625C105.99 46.625 105.99 46.625 105.991 46.625C105.991 46.625 105.991 46.625 105.991 46.625C105.992 46.625 105.992 46.625 105.992 46.625C105.993 46.625 105.993 46.625 105.993 46.625C105.993 46.625 105.994 46.625 105.994 46.625C105.994 46.625 105.995 46.625 105.995 46.625C105.995 46.625 105.995 46.625 105.996 46.625C105.996 46.625 105.996 46.625 105.997 46.625C105.997 46.625 105.997 46.625 105.997 46.625C105.998 46.625 105.998 46.625 105.998 46.625C105.999 46.625 105.999 46.625 105.999 46.625C105.999 46.625 106 46.625 106 46.625C106 46.625 106 46.625 106.001 46.625C106.001 46.625 106.001 46.625 106.002 46.625C106.002 46.625 106.002 46.625 106.002 46.625C106.003 46.625 106.003 46.625 106.003 46.625C106.004 46.625 106.004 46.625 106.004 46.625C106.004 46.625 106.005 46.625 106.005 46.625C106.005 46.625 106.006 46.625 106.006 46.625C106.006 46.625 106.006 46.625 106.007 46.625C106.007 46.625 106.007 46.625 106.007 46.625C106.008 46.625 106.008 46.625 106.008 46.625C106.009 46.625 106.009 46.625 106.009 46.625C106.009 46.625 106.01 46.625 106.01 46.625C106.01 46.625 106.01 46.625 106.011 46.625C106.011 46.625 106.011 46.625 106.012 46.625C106.012 46.625 106.012 46.625 106.012 46.625C106.013 46.625 106.013 46.625 106.013 46.625C106.014 46.625 106.014 46.625 106.014 46.625C106.014 46.625 106.015 46.625 106.015 46.625C106.015 46.625 106.015 46.625 106.016 46.625C106.016 46.625 106.016 46.625 106.017 46.625C106.017 46.625 106.017 46.625 106.017 46.625C106.018 46.625 106.018 46.625 106.018 46.625C106.018 46.625 106.019 46.625 106.019 46.625C106.019 46.625 106.019 46.625 106.02 46.625C106.02 46.625 106.02 46.625 106.021 46.625C106.021 46.625 106.021 46.625 106.021 46.625C106.022 46.625 106.022 46.625 106.022 46.625C106.022 46.625 106.023 46.625 106.023 46.625C106.023 46.625 106.024 46.625 106.024 46.625C106.024 46.625 106.024 46.625 106.025 46.625C106.025 46.625 106.025 46.625 106.025 46.625C106.026 46.625 106.026 46.625 106.026 46.625C106.026 46.625 106.027 46.625 106.027 46.625C106.027 46.625 106.028 46.625 106.028 46.625C106.028 46.625 106.028 46.625 106.029 46.625C106.029 46.625 106.029 46.625 106.029 46.625C106.03 46.625 106.03 46.625 106.03 46.625C106.03 46.625 106.031 46.625 106.031 46.625C106.031 46.625 106.031 46.625 106.032 46.625C106.032 46.625 106.032 46.625 106.033 46.625C106.033 46.625 106.033 46.625 106.033 46.625C106.034 46.625 106.034 46.625 106.034 46.625C106.034 46.625 106.035 46.625 106.035 46.625C106.035 46.625 106.035 46.625 106.036 46.625C106.036 46.625 106.036 46.625 106.036 46.625C106.037 46.625 106.037 46.625 106.037 46.625C106.038 46.625 106.038 46.625 106.038 46.625C106.038 46.625 106.039 46.625 106.039 46.625C106.039 46.625 106.039 46.625 106.04 46.625C106.04 46.625 106.04 46.625 106.04 46.625C106.041 46.625 106.041 46.625 106.041 46.625C106.041 46.625 106.042 46.625 106.042 46.625C106.042 46.625 106.042 46.625 106.043 46.625C106.043 46.625 106.043 46.625 106.043 46.625C106.044 46.625 106.044 46.625 106.044 46.625C106.045 46.625 106.045 46.625 106.045 46.625C106.045 46.625 106.046 46.625 106.046 46.625C106.046 46.625 106.046 46.625 106.047 46.625C106.047 46.625 106.047 46.625 106.047 46.625C106.048 46.625 106.048 46.625 106.048 46.625C106.048 46.625 106.049 46.625 106.049 46.625C106.049 46.625 106.049 46.625 106.05 46.625C106.05 46.625 106.05 46.625 106.05 46.625C106.051 46.625 106.051 46.625 106.051 46.625C106.051 46.625 106.052 46.625 106.052 46.625C106.052 46.625 106.052 46.625 106.053 46.625C106.053 46.625 106.053 46.625 106.053 46.625C106.054 46.625 106.054 46.625 106.054 46.625C106.054 46.625 106.055 46.625 106.055 46.625C106.055 46.625 106.055 46.625 106.056 46.625C106.056 46.625 106.056 46.625 106.056 46.625C106.057 46.625 106.057 46.625 106.057 46.625C106.057 46.625 106.058 46.625 106.058 46.625C106.058 46.625 106.058 46.625 106.059 46.625C106.059 46.625 106.059 46.625 106.059 46.625C106.06 46.625 106.06 46.625 106.06 46.625C106.06 46.625 106.061 46.625 106.061 46.625C106.061 46.625 106.061 46.625 106.062 46.625C106.062 46.625 106.062 46.625 106.062 46.625C106.063 46.625 106.063 46.625 106.063 46.625C106.063 46.625 106.064 46.625 106.064 46.625C106.064 46.625 106.064 46.625 106.065 46.625C106.065 46.625 106.065 46.625 106.065 46.625C106.066 46.625 106.066 46.625 106.066 46.625C106.066 46.625 106.067 46.625 106.067 46.625C106.067 46.625 106.067 46.625 106.068 46.625C106.068 46.625 106.068 46.625 106.068 46.625C106.069 46.625 106.069 46.625 106.069 46.625C106.069 46.625 106.07 46.625 106.07 46.625C106.07 46.625 106.07 46.625 106.071 46.625C106.071 46.625 106.071 46.625 106.071 46.625C106.072 46.625 106.072 46.625 106.072 46.625C106.072 46.625 106.073 46.625 106.073 46.625C106.073 46.625 106.073 46.625 106.074 46.625C106.074 46.625 106.074 46.625 106.074 46.625C106.075 46.625 106.075 46.625 106.075 46.625C106.075 46.625 106.076 46.625 106.076 46.625C106.076 46.625 106.076 46.625 106.076 46.625C106.077 46.625 106.077 46.625 106.077 46.625C106.077 46.625 106.078 46.625 106.078 46.625C106.078 46.625 106.078 46.625 106.079 46.625C106.079 46.625 106.079 46.625 106.079 46.625C106.08 46.625 106.08 46.625 106.08 46.625C106.08 46.625 106.081 46.625 106.081 46.625C106.081 46.625 106.081 46.625 106.082 46.625C106.082 46.625 106.082 46.625 106.082 46.625C106.083 46.625 106.083 46.625 106.083 46.625C106.083 46.625 106.083 46.625 106.084 46.625C106.084 46.625 106.084 46.625 106.084 46.625C106.085 46.625 106.085 46.625 106.085 46.625C106.085 46.625 106.086 46.625 106.086 46.625C106.086 46.625 106.086 46.625 106.087 46.625C106.087 46.625 106.087 46.625 106.087 46.625C106.088 46.625 106.088 46.625 106.088 46.625C106.088 46.625 106.089 46.625 106.089 46.625C106.089 46.625 106.089 46.625 106.089 46.625C106.09 46.625 106.09 46.625 106.09 46.625C106.09 46.625 106.091 46.625 106.091 46.625C106.091 46.625 106.091 46.625 106.092 46.625C106.092 46.625 106.092 46.625 106.092 46.625C106.093 46.625 106.093 46.625 106.093 46.625C106.093 46.625 106.093 46.625 106.094 46.625C106.094 46.625 106.094 46.625 106.094 46.625C106.095 46.625 106.095 46.625 106.095 46.625C106.095 46.625 106.096 46.625 106.096 46.625C106.096 46.625 106.096 46.625 106.097 46.625C106.097 46.625 106.097 46.625 106.097 46.625C106.097 46.625 106.098 46.625 106.098 46.625C106.098 46.625 106.098 46.625 106.099 46.625C106.099 46.625 106.099 46.625 106.099 46.625C106.1 46.625 106.1 46.625 106.1 46.625C106.1 46.625 106.101 46.625 106.101 46.625C106.101 46.625 106.101 46.625 106.101 46.625C106.102 46.625 106.102 46.625 106.102 46.625C106.102 46.625 106.103 46.625 106.103 46.625C106.103 46.625 106.103 46.625 106.104 46.625C106.104 46.625 106.104 46.625 106.104 46.625C106.104 46.625 106.105 46.625 106.105 46.625C106.105 46.625 106.105 46.625 106.106 46.625C106.106 46.625 106.106 46.625 106.106 46.625C106.107 46.625 106.107 46.625 106.107 46.625C106.107 46.625 106.107 46.625 106.108 46.625C106.108 46.625 106.108 46.625 106.108 46.625C106.109 46.625 106.109 46.625 106.109 46.625C106.109 46.625 106.11 46.625 106.11 46.625C106.11 46.625 106.11 46.625 106.11 46.625C106.111 46.625 106.111 46.625 106.111 46.625C106.111 46.625 106.112 46.625 106.112 46.625C106.112 46.625 106.112 46.625 106.113 46.625C106.113 46.625 106.113 46.625 106.113 46.625C106.113 46.625 106.114 46.625 106.114 46.625C106.114 46.625 106.114 46.625 106.115 46.625C106.115 46.625 106.115 46.625 106.115 46.625C106.116 46.625 106.116 46.625 106.116 46.625C106.116 46.625 106.116 46.625 106.117 46.625C106.117 46.625 106.117 46.625 106.117 46.625C106.118 46.625 106.118 46.625 106.118 46.625C106.118 46.625 106.118 46.625 106.119 46.625C106.119 46.625 106.119 46.625 106.119 46.625C106.12 46.625 106.12 46.625 106.12 46.625C106.12 46.625 106.121 46.625 106.121 46.625C106.121 46.625 106.121 46.625 106.121 46.625C106.122 46.625 106.122 46.625 106.122 46.625C106.122 46.625 106.123 46.625 106.123 46.625C106.123 46.625 106.123 46.625 106.123 46.625C106.124 46.625 106.124 46.625 106.124 46.625C106.124 46.625 106.125 46.625 106.125 46.625C106.125 46.625 106.125 46.625 106.125 46.625C106.126 46.625 106.126 46.625 106.126 46.625C106.126 46.625 106.127 46.625 106.127 46.625C106.127 46.625 106.127 46.625 106.128 46.625C106.128 46.625 106.128 46.625 106.128 46.625C106.128 46.625 106.129 46.625 106.129 46.625C106.129 46.625 106.129 46.625 106.13 46.625C106.13 46.625 106.13 46.625 106.13 46.625C106.13 46.625 106.131 46.625 106.131 46.625C106.131 46.625 106.131 46.625 106.132 46.625C106.132 46.625 106.132 46.625 106.132 46.625C106.132 46.625 106.133 46.625 106.133 46.625C106.133 46.625 106.133 46.625 106.134 46.625C106.134 46.625 106.134 46.625 106.134 46.625C106.134 46.625 106.135 46.625 106.135 46.625C106.135 46.625 106.135 46.625 106.136 46.625C106.136 46.625 106.136 46.625 106.136 46.625C106.136 46.625 106.137 46.625 106.137 46.625C106.137 46.625 106.137 46.625 106.138 46.625C106.138 46.625 106.138 46.625 106.138 46.625C106.138 46.625 106.139 46.625 106.139 46.625C106.139 46.625 106.139 46.625 106.14 46.625C106.14 46.625 106.14 46.625 106.14 46.625C106.14 46.625 106.141 46.625 106.141 46.625C106.141 46.625 106.141 46.625 106.142 46.625C106.142 46.625 106.142 46.625 106.142 46.625C106.142 46.625 106.143 46.625 106.143 46.625C106.143 46.625 106.143 46.625 106.144 46.625C106.144 46.625 106.144 46.625 106.144 46.625C106.144 46.625 106.145 46.625 106.145 46.625C106.145 46.625 106.145 46.625 106.146 46.625C106.146 46.625 106.146 46.625 106.146 46.625C106.146 46.625 106.147 46.625 106.147 46.625C106.147 46.625 106.147 46.625 106.147 46.625C106.148 46.625 106.148 46.625 106.148 46.625C106.148 46.625 106.149 46.625 106.149 46.625C106.149 46.625 106.149 46.625 106.149 46.625C106.15 46.625 106.15 46.625 106.15 46.625C106.15 46.625 106.151 46.625 106.151 46.625C106.151 46.625 106.151 46.625 106.151 46.625C106.152 46.625 106.152 46.625 106.152 46.625C106.152 46.625 106.153 46.625 106.153 46.625C106.153 46.625 106.153 46.625 106.153 46.625C106.154 46.625 106.154 46.625 106.154 46.625C106.154 46.625 106.154 46.625 106.155 46.625C106.155 46.625 106.155 46.625 106.155 46.625C106.156 46.625 106.156 46.625 106.156 46.625C106.156 46.625 106.156 46.625 106.157 46.625C106.157 46.625 106.157 46.625 106.157 46.625C106.158 46.625 106.158 46.625 106.158 46.625C106.158 46.625 106.158 46.625 106.159 46.625C106.159 46.625 106.159 46.625 106.159 46.625C106.16 46.625 106.16 46.625 106.16 46.625C106.16 46.625 106.16 46.625 106.161 46.625C106.161 46.625 106.161 46.625 106.161 46.625C106.161 46.625 106.162 46.625 106.162 46.625C106.162 46.625 106.162 46.625 106.163 46.625C106.163 46.625 106.163 46.625 106.163 46.625C106.163 46.625 106.164 46.625 106.164 46.625C106.164 46.625 106.164 46.625 106.164 46.625C106.165 46.625 106.165 46.625 106.165 46.625C106.165 46.625 106.166 46.625 106.166 46.625C106.166 46.625 106.166 46.625 106.166 46.625C106.167 46.625 106.167 46.625 106.167 46.625C106.167 46.625 106.168 46.625 106.168 46.625C106.168 46.625 106.168 46.625 106.168 46.625C106.169 46.625 106.169 46.625 106.169 46.625C106.169 46.625 106.169 46.625 106.17 46.625C106.17 46.625 106.17 46.625 106.17 46.625C106.171 46.625 106.171 46.625 106.171 46.625C106.171 46.625 106.171 46.625 106.172 46.625C106.172 46.625 106.172 46.625 106.172 46.625C106.172 46.625 106.173 46.625 106.173 46.625C106.173 46.625 106.173 46.625 106.174 46.625C106.174 46.625 106.174 46.625 106.174 46.625C106.174 46.625 106.175 46.625 106.175 46.625C106.175 46.625 106.175 46.625 106.176 46.625C106.176 46.625 106.176 46.625 106.176 46.625C106.176 46.625 106.177 46.625 106.177 46.625C106.177 46.625 106.177 46.625 106.177 46.625C106.178 46.625 106.178 46.625 106.178 46.625C106.178 46.625 106.179 46.625 106.179 46.625C106.179 46.625 106.179 46.625 106.179 46.625C106.18 46.625 106.18 46.625 106.18 46.625C106.18 46.625 106.18 46.625 106.181 46.625C106.181 46.625 106.181 46.625 106.181 46.625C106.182 46.625 106.182 46.625 106.182 46.625C106.182 46.625 106.182 46.625 106.183 46.625C106.183 46.625 106.183 46.625 106.183 46.625C106.183 46.625 106.184 46.625 106.184 46.625C106.184 46.625 106.184 46.625 106.185 46.625C106.185 46.625 106.185 46.625 106.185 46.625C106.185 46.625 106.186 46.625 106.186 46.625C106.186 46.625 106.186 46.625 106.186 46.625C106.187 46.625 106.187 46.625 106.187 46.625C106.187 46.625 106.188 46.625 106.188 46.625C106.188 46.625 106.188 46.625 106.188 46.625C106.189 46.625 106.189 46.625 106.189 46.625C106.189 46.625 106.189 46.625 106.19 46.625C106.19 46.625 106.19 46.625 106.19 46.625C106.191 46.625 106.191 46.625 106.191 46.625C106.191 46.625 106.191 46.625 106.192 46.625C106.192 46.625 106.192 46.625 106.192 46.625C106.192 46.625 106.193 46.625 106.193 46.625C106.193 46.625 106.193 46.625 106.194 46.625C106.194 46.625 106.194 46.625 106.194 46.625C106.194 46.625 106.195 46.625 106.195 46.625C106.195 46.625 106.195 46.625 106.195 46.625C106.196 46.625 106.196 46.625 106.196 46.625C106.196 46.625 106.197 46.625 106.197 46.625C106.197 46.625 106.197 46.625 106.197 46.625C106.198 46.625 106.198 46.625 106.198 46.625C106.198 46.625 106.198 46.625 106.199 46.625C106.199 46.625 106.199 46.625 106.199 46.625C106.199 46.625 106.2 46.625 106.2 46.625C106.2 46.625 106.2 46.625 106.201 46.625C106.201 46.625 106.201 46.625 106.201 46.625C106.201 46.625 106.202 46.625 106.202 46.625C106.202 46.625 106.202 46.625 106.202 46.625C106.203 46.625 106.203 46.625 106.203 46.625V30.625ZM103.73 30.8884L82.9484 36.3572L87.0203 51.8303L107.802 46.3616L103.73 30.8884ZM78.1073 48.1811L84.9979 59.7748L98.7521 51.6002L91.8614 40.0064L78.1073 48.1811ZM84.7196 59.2652C84.7566 59.3393 84.8678 59.5636 84.9876 59.7849C85.1006 59.9935 85.3592 60.4607 85.7484 60.9797C86.657 62.1911 88.8386 64.3438 92.4219 64.3438V48.3438C93.8235 48.3438 95.2309 48.7283 96.4677 49.4895C97.5773 50.1723 98.2404 50.9689 98.5484 51.3797C98.8556 51.7893 99.0322 52.1198 99.0563 52.1643C99.0873 52.2215 99.1028 52.2545 99.0304 52.1098L84.7196 59.2652ZM92.4219 64.3438C92.6014 64.3438 94.5043 64.4109 96.5465 63.3898L89.391 49.079C90.9957 48.2766 92.4611 48.3438 92.4219 48.3438V64.3438ZM95.5592 63.8034L116.012 56.8034L110.831 41.6654L90.3783 48.6654L95.5592 63.8034ZM113.422 57.2344C114.745 57.2344 116.082 56.9305 117.3 56.3214C117.905 56.019 118.808 55.4783 119.67 54.5545C120.491 53.6755 121.859 51.7901 121.859 49.0156H105.859C105.859 46.2958 107.201 44.4651 107.973 43.6374C108.788 42.7649 109.622 42.272 110.145 42.0106C111.199 41.4836 112.318 41.2344 113.422 41.2344V57.2344ZM113.859 49.0156C119.516 43.3588 119.518 43.3602 119.519 43.3615C119.519 43.362 119.521 43.3634 119.522 43.3643C119.524 43.3662 119.525 43.368 119.527 43.3699C119.531 43.3736 119.535 43.3773 119.538 43.3811C119.546 43.3886 119.553 43.3962 119.561 43.4039C119.576 43.4192 119.591 43.4349 119.607 43.451C119.638 43.4831 119.67 43.5168 119.703 43.5522C119.769 43.6224 119.84 43.7019 119.916 43.7905C120.061 43.9593 120.255 44.2008 120.461 44.5097C120.658 44.8055 120.944 45.2781 121.195 45.9061C121.44 46.5177 121.75 47.5206 121.75 48.7969H105.75C105.75 51.2562 106.855 52.9454 107.148 53.3849C107.382 53.7347 107.603 54.0104 107.768 54.2032C107.854 54.3037 107.935 54.3926 108.006 54.4693C108.042 54.5078 108.077 54.544 108.109 54.5777C108.126 54.5946 108.142 54.611 108.157 54.6267C108.165 54.6346 108.173 54.6424 108.18 54.65C108.184 54.6538 108.188 54.6576 108.191 54.6613C108.193 54.6632 108.195 54.6651 108.197 54.6669C108.198 54.6679 108.199 54.6692 108.2 54.6697C108.201 54.6711 108.203 54.6725 113.859 49.0156ZM120.905 45.2192L120.796 45.0004L106.485 52.1558L106.595 52.3746L120.905 45.2192ZM116.522 41.7665C117.332 41.6045 119.139 41.1598 120.795 39.7101C121.708 38.9115 122.857 37.5494 123.376 35.5364C123.927 33.4018 123.552 31.3719 122.765 29.7973L108.454 36.9527C107.721 35.4874 107.36 33.567 107.884 31.5383C108.376 29.6312 109.456 28.3717 110.259 27.6688C111.697 26.4105 113.121 26.1298 113.384 26.0772L116.522 41.7665ZM121.78 28.2839C119.997 26.1228 118.637 24.4413 117.679 23.2344C116.63 21.9122 116.25 21.3901 116.25 21.3905L102.937 30.2657C103.655 31.3424 105.94 34.226 109.438 38.4661L121.78 28.2839ZM116.25 21.3905C114.14 18.2247 110.891 17.3906 108.719 17.3906V33.3906C108.019 33.3906 107.002 33.2763 105.887 32.7693C104.703 32.2312 103.671 31.3662 102.937 30.2657L116.25 21.3905ZM107.297 17.5179L99.4223 18.9398L102.265 34.6852L110.14 33.2633L107.297 17.5179ZM98.3139 19.223C97.0022 19.6603 93.3144 21.3632 92.6644 25.9136C92.1058 29.8238 94.4116 32.3503 95.0775 33.0162L106.391 21.7025C106.838 22.1497 109.035 24.4575 108.504 28.1763C107.881 32.5352 104.357 34.0741 103.374 34.402L98.3139 19.223ZM94.2752 32.0795L100.51 40.6108L113.428 31.1705L107.194 22.6392L94.2752 32.0795ZM108.909 43.6518C110.2 43.3291 111.521 43.0056 112.864 42.6766C114.2 42.3493 115.559 42.0166 116.893 41.683L113.013 26.1607C111.722 26.4834 110.401 26.8069 109.058 27.1359C107.722 27.4632 106.363 27.7959 105.028 28.1295L108.909 43.6518Z" fill="white"/>
</g>
<defs>
<filter id="filter0_d" x="40.9692" y="4.04688" width="85.9738" height="67.9452" filterUnits="userSpaceOnUse" color-interpolation-filters="sRGB">
<feFlood flood-opacity="0" result="BackgroundImageFix"/>
<feColorMatrix in="SourceAlpha" type="matrix" values="0 0 0 0 0 0 0 0 0 0 0 0 0 0 0 0 0 0 127 0"/>
<feOffset dy="4"/>
<feColorMatrix type="matrix" values="0 0 0 0 0 0 0 0 0 0 0 0 0 0 0 0 0 0 0.2 0"/>
<feBlend mode="normal" in2="BackgroundImageFix" result="effect1_dropShadow"/>
<feBlend mode="normal" in="SourceGraphic" in2="effect1_dropShadow" result="shape"/>
</filter>
</defs>
</svg>
