<svg width="168" height="122" viewBox="0 0 168 122" fill="none" xmlns="http://www.w3.org/2000/svg">
<path d="M53.0338 104V93.504H54.6338L56.6498 99.104C56.7778 99.4667 56.9004 99.8347 57.0178 100.208C57.1458 100.571 57.2738 100.933 57.4018 101.296H57.4658C57.5938 100.933 57.7111 100.571 57.8178 100.208C57.9351 99.8347 58.0578 99.4667 58.1858 99.104L60.1698 93.504H61.7858V104H60.5378V98.224C60.5378 97.7547 60.5591 97.2373 60.6018 96.672C60.6444 96.1067 60.6818 95.5893 60.7138 95.12H60.6498L59.8177 97.504L57.8338 102.944H56.9538L54.9698 97.504L54.1378 95.12H54.0738C54.1058 95.5893 54.1378 96.1067 54.1698 96.672C54.2124 97.2373 54.2338 97.7547 54.2338 98.224V104H53.0338ZM67.5548 104.192C67.0748 104.192 66.6161 104.101 66.1788 103.92C65.7521 103.739 65.3734 103.477 65.0428 103.136C64.7121 102.784 64.4454 102.357 64.2428 101.856C64.0508 101.344 63.9548 100.768 63.9548 100.128C63.9548 99.4773 64.0508 98.9013 64.2428 98.4C64.4454 97.888 64.7121 97.456 65.0428 97.104C65.3734 96.752 65.7521 96.4853 66.1788 96.304C66.6161 96.1227 67.0748 96.032 67.5548 96.032C68.0348 96.032 68.4881 96.1227 68.9148 96.304C69.3521 96.4853 69.7361 96.752 70.0668 97.104C70.3974 97.456 70.6588 97.888 70.8508 98.4C71.0534 98.9013 71.1548 99.4773 71.1548 100.128C71.1548 100.768 71.0534 101.344 70.8508 101.856C70.6588 102.357 70.3974 102.784 70.0668 103.136C69.7361 103.477 69.3521 103.739 68.9148 103.92C68.4881 104.101 68.0348 104.192 67.5548 104.192ZM67.5548 103.104C67.8854 103.104 68.1894 103.035 68.4668 102.896C68.7441 102.747 68.9788 102.544 69.1708 102.288C69.3734 102.021 69.5281 101.707 69.6348 101.344C69.7414 100.981 69.7948 100.576 69.7948 100.128C69.7948 99.68 69.7414 99.2747 69.6348 98.912C69.5281 98.5387 69.3734 98.2187 69.1708 97.952C68.9788 97.6853 68.7441 97.4827 68.4668 97.344C68.1894 97.1947 67.8854 97.12 67.5548 97.12C67.2241 97.12 66.9201 97.1947 66.6428 97.344C66.3654 97.4827 66.1254 97.6853 65.9228 97.952C65.7308 98.2187 65.5814 98.5387 65.4748 98.912C65.3681 99.2747 65.3148 99.68 65.3148 100.128C65.3148 100.576 65.3681 100.981 65.4748 101.344C65.5814 101.707 65.7308 102.021 65.9228 102.288C66.1254 102.544 66.3654 102.747 66.6428 102.896C66.9201 103.035 67.2241 103.104 67.5548 103.104ZM73.2026 104V96.224H74.2906L74.4026 97.344H74.4506C74.824 96.9707 75.2133 96.6613 75.6186 96.416C76.0346 96.16 76.5146 96.032 77.0586 96.032C77.88 96.032 78.4773 96.288 78.8506 96.8C79.2346 97.312 79.4266 98.0693 79.4266 99.072V104H78.1146V99.248C78.1146 98.512 77.9973 97.984 77.7626 97.664C77.528 97.3333 77.1546 97.168 76.6426 97.168C76.2373 97.168 75.88 97.2693 75.5706 97.472C75.2613 97.6747 74.9093 97.9733 74.5146 98.368V104H73.2026ZM84.5766 107.584C84.0966 107.584 83.6593 107.536 83.2646 107.44C82.87 107.355 82.5286 107.221 82.2406 107.04C81.9633 106.859 81.7446 106.64 81.5846 106.384C81.4353 106.128 81.3606 105.829 81.3606 105.488C81.3606 105.157 81.462 104.843 81.6646 104.544C81.8673 104.245 82.1446 103.973 82.4966 103.728V103.664C82.3046 103.547 82.1393 103.387 82.0006 103.184C81.8726 102.971 81.8086 102.709 81.8086 102.4C81.8086 102.069 81.8993 101.781 82.0806 101.536C82.262 101.291 82.454 101.099 82.6566 100.96V100.896C82.4006 100.683 82.166 100.4 81.9526 100.048C81.75 99.6853 81.6486 99.2693 81.6486 98.8C81.6486 98.3733 81.7233 97.9893 81.8726 97.648C82.0326 97.3067 82.246 97.0187 82.5126 96.784C82.7793 96.5387 83.0886 96.352 83.4406 96.224C83.8033 96.096 84.182 96.032 84.5766 96.032C84.79 96.032 84.9873 96.0533 85.1686 96.096C85.3606 96.128 85.5313 96.1707 85.6806 96.224H88.3846V97.232H86.7846C86.966 97.4133 87.1153 97.6427 87.2326 97.92C87.3606 98.1973 87.4246 98.5013 87.4246 98.832C87.4246 99.248 87.35 99.6267 87.2006 99.968C87.0513 100.299 86.8486 100.581 86.5926 100.816C86.3366 101.04 86.0326 101.216 85.6806 101.344C85.3393 101.472 84.9713 101.536 84.5766 101.536C84.3846 101.536 84.1873 101.515 83.9846 101.472C83.782 101.419 83.59 101.349 83.4086 101.264C83.27 101.381 83.1526 101.515 83.0566 101.664C82.9606 101.803 82.9126 101.979 82.9126 102.192C82.9126 102.437 83.0086 102.64 83.2006 102.8C83.3926 102.96 83.7553 103.04 84.2886 103.04H85.7926C86.6993 103.04 87.3766 103.189 87.8246 103.488C88.2833 103.776 88.5126 104.245 88.5126 104.896C88.5126 105.259 88.422 105.6 88.2406 105.92C88.0593 106.251 87.798 106.539 87.4566 106.784C87.1153 107.029 86.6993 107.221 86.2086 107.36C85.7286 107.509 85.1846 107.584 84.5766 107.584ZM84.5766 100.656C84.8006 100.656 85.0086 100.613 85.2006 100.528C85.4033 100.443 85.5793 100.32 85.7286 100.16C85.8886 100 86.0113 99.808 86.0966 99.584C86.182 99.3493 86.2246 99.088 86.2246 98.8C86.2246 98.224 86.0646 97.7813 85.7446 97.472C85.4246 97.152 85.0353 96.992 84.5766 96.992C84.118 96.992 83.7286 97.152 83.4086 97.472C83.0886 97.7813 82.9286 98.224 82.9286 98.8C82.9286 99.088 82.9713 99.3493 83.0566 99.584C83.142 99.808 83.2593 100 83.4086 100.16C83.5686 100.32 83.7446 100.443 83.9366 100.528C84.1393 100.613 84.3526 100.656 84.5766 100.656ZM84.7686 106.672C85.142 106.672 85.478 106.624 85.7766 106.528C86.086 106.443 86.3473 106.325 86.5606 106.176C86.774 106.037 86.9393 105.872 87.0566 105.68C87.174 105.488 87.2326 105.291 87.2326 105.088C87.2326 104.725 87.0993 104.475 86.8326 104.336C86.566 104.197 86.1766 104.128 85.6646 104.128H84.3206C84.1713 104.128 84.006 104.117 83.8246 104.096C83.654 104.085 83.4833 104.053 83.3126 104C83.0353 104.203 82.8326 104.416 82.7046 104.64C82.5766 104.864 82.5126 105.088 82.5126 105.312C82.5126 105.728 82.71 106.059 83.1046 106.304C83.51 106.549 84.0646 106.672 84.7686 106.672ZM92.8204 104.192C92.3404 104.192 91.8817 104.101 91.4444 103.92C91.0177 103.739 90.639 103.477 90.3084 103.136C89.9777 102.784 89.711 102.357 89.5084 101.856C89.3164 101.344 89.2204 100.768 89.2204 100.128C89.2204 99.4773 89.3164 98.9013 89.5084 98.4C89.711 97.888 89.9777 97.456 90.3084 97.104C90.639 96.752 91.0177 96.4853 91.4444 96.304C91.8817 96.1227 92.3404 96.032 92.8204 96.032C93.3004 96.032 93.7537 96.1227 94.1804 96.304C94.6177 96.4853 95.0017 96.752 95.3324 97.104C95.663 97.456 95.9244 97.888 96.1164 98.4C96.319 98.9013 96.4204 99.4773 96.4204 100.128C96.4204 100.768 96.319 101.344 96.1164 101.856C95.9244 102.357 95.663 102.784 95.3324 103.136C95.0017 103.477 94.6177 103.739 94.1804 103.92C93.7537 104.101 93.3004 104.192 92.8204 104.192ZM92.8204 103.104C93.151 103.104 93.455 103.035 93.7324 102.896C94.0097 102.747 94.2444 102.544 94.4364 102.288C94.639 102.021 94.7937 101.707 94.9004 101.344C95.007 100.981 95.0604 100.576 95.0604 100.128C95.0604 99.68 95.007 99.2747 94.9004 98.912C94.7937 98.5387 94.639 98.2187 94.4364 97.952C94.2444 97.6853 94.0097 97.4827 93.7324 97.344C93.455 97.1947 93.151 97.12 92.8204 97.12C92.4897 97.12 92.1857 97.1947 91.9084 97.344C91.631 97.4827 91.391 97.6853 91.1884 97.952C90.9964 98.2187 90.847 98.5387 90.7404 98.912C90.6337 99.2747 90.5804 99.68 90.5804 100.128C90.5804 100.576 90.6337 100.981 90.7404 101.344C90.847 101.707 90.9964 102.021 91.1884 102.288C91.391 102.544 91.631 102.747 91.9084 102.896C92.1857 103.035 92.4897 103.104 92.8204 103.104ZM98.5963 104V93.504H101.22C102.842 93.504 104.074 93.952 104.916 94.848C105.759 95.744 106.18 97.0293 106.18 98.704C106.18 99.536 106.074 100.283 105.86 100.944C105.647 101.595 105.332 102.149 104.916 102.608C104.5 103.056 103.988 103.403 103.38 103.648C102.772 103.883 102.074 104 101.284 104H98.5963ZM99.9243 102.912H101.124C102.351 102.912 103.268 102.544 103.876 101.808C104.495 101.072 104.804 100.037 104.804 98.704C104.804 97.3707 104.495 96.352 103.876 95.648C103.268 94.944 102.351 94.592 101.124 94.592H99.9243V102.912ZM108.44 104V93.504H111.56C112.093 93.504 112.579 93.552 113.016 93.648C113.464 93.744 113.843 93.8933 114.152 94.096C114.472 94.2987 114.717 94.5653 114.888 94.896C115.069 95.216 115.16 95.6053 115.16 96.064C115.16 96.5867 115.027 97.0613 114.76 97.488C114.504 97.904 114.125 98.192 113.624 98.352V98.416C114.264 98.5333 114.781 98.8 115.176 99.216C115.571 99.632 115.768 100.203 115.768 100.928C115.768 101.44 115.672 101.888 115.48 102.272C115.288 102.656 115.016 102.976 114.664 103.232C114.312 103.488 113.891 103.68 113.4 103.808C112.909 103.936 112.371 104 111.784 104H108.44ZM109.768 97.968H111.32C112.216 97.968 112.861 97.8133 113.256 97.504C113.651 97.1947 113.848 96.7733 113.848 96.24C113.848 95.632 113.64 95.2 113.224 94.944C112.819 94.688 112.205 94.56 111.384 94.56H109.768V97.968ZM109.768 102.944H111.592C112.499 102.944 113.203 102.779 113.704 102.448C114.205 102.107 114.456 101.584 114.456 100.88C114.456 100.229 114.211 99.7547 113.72 99.456C113.229 99.1467 112.52 98.992 111.592 98.992H109.768V102.944Z" fill="black"/>
<g filter="url(#filter0_d)">
<path d="M79.3739 8.15308C65.2304 21.0299 60.9365 45.0052 78.3029 60.3493C78.7546 60.7484 78.8327 61.1167 78.8327 61.2495L78.8327 64.9532C78.8327 67.524 80.537 69.7834 83.0089 70.4897C86.9979 71.6294 90.8467 68.3044 90.2984 64.1922L89.8325 60.6979C96.8581 53.5236 100.952 45.5208 100.733 36.2711C100.515 27.0431 96.0151 17.5592 88.037 7.43324C86.216 5.12189 83.2123 4.98364 81.2116 6.21274C80.4615 6.67349 79.8186 7.34874 79.3739 8.15308ZM85.649 61.2495L85.1123 63.128L85.1123 63.128L85.649 61.2495Z" stroke="white" stroke-width="10"/>
<path fill-rule="evenodd" clip-rule="evenodd" d="M85.0877 65.9998L83.5673 65.4812C83.5673 65.4812 83.753 57.7459 80.9711 57.1908C79.1171 55.0438 81.2685 -33.8611 87.9439 56.8944C87.9439 56.8944 85.6443 58.0415 85.2364 60.0036C84.7911 61.9284 85.0877 65.9998 85.0877 65.9998V65.9998Z" fill="white"/>
<path fill-rule="evenodd" clip-rule="evenodd" d="M85.0877 65.9998L83.5673 65.4812C83.5673 65.4812 83.753 57.7459 80.9711 57.1908C79.1171 55.0438 81.2685 -33.8611 87.9439 56.8944C87.9439 56.8944 85.6443 58.0415 85.2364 60.0036C84.7911 61.9284 85.0877 65.9998 85.0877 65.9998V65.9998Z" fill="#A6A385"/>
<path fill-rule="evenodd" clip-rule="evenodd" d="M85.904 58.5236C85.904 58.5236 99.2187 49.7884 96.1029 31.6147C93.0991 18.4017 86.0153 14.0712 85.2364 12.4055C84.3836 11.2211 83.5674 9.14868 83.5674 9.14868L84.124 45.9018C84.124 45.9392 82.9742 57.1539 85.9044 58.524" fill="white"/>
<path fill-rule="evenodd" clip-rule="evenodd" d="M85.904 58.5236C85.904 58.5236 99.2187 49.7884 96.1029 31.6147C93.0991 18.4017 86.0153 14.0712 85.2364 12.4055C84.3836 11.2211 83.5674 9.14868 83.5674 9.14868L84.124 45.9018C84.124 45.9392 82.9742 57.1539 85.9044 58.524" fill="#499D4A"/>
<path fill-rule="evenodd" clip-rule="evenodd" d="M82.7888 59.0043C82.7888 59.0043 70.2899 50.4912 71.0318 35.5014C71.7363 20.5112 80.5631 13.1456 82.2691 11.8132C83.382 10.6288 83.4189 10.1844 83.4933 9C84.2722 10.6657 84.1239 33.9099 84.2348 36.6485C84.5684 47.1971 83.6416 57.0061 82.7888 59.0043Z" fill="white"/>
<path fill-rule="evenodd" clip-rule="evenodd" d="M82.7888 59.0043C82.7888 59.0043 70.2899 50.4912 71.0318 35.5014C71.7363 20.5112 80.5631 13.1456 82.2691 11.8132C83.382 10.6288 83.4189 10.1844 83.4933 9C84.2722 10.6657 84.1239 33.9099 84.2348 36.6485C84.5684 47.1971 83.6416 57.0061 82.7888 59.0043Z" fill="#58AA50"/>
</g>
<defs>
<filter id="filter0_d" x="61.9246" y="0.450439" width="43.8172" height="80.27" filterUnits="userSpaceOnUse" color-interpolation-filters="sRGB">
<feFlood flood-opacity="0" result="BackgroundImageFix"/>
<feColorMatrix in="SourceAlpha" type="matrix" values="0 0 0 0 0 0 0 0 0 0 0 0 0 0 0 0 0 0 127 0"/>
<feOffset dy="5"/>
<feColorMatrix type="matrix" values="0 0 0 0 0 0 0 0 0 0 0 0 0 0 0 0 0 0 0.2 0"/>
<feBlend mode="normal" in2="BackgroundImageFix" result="effect1_dropShadow"/>
<feBlend mode="normal" in="SourceGraphic" in2="effect1_dropShadow" result="shape"/>
</filter>
</defs>
</svg>
