<svg width="168" height="121" viewBox="0 0 168 121" fill="none" xmlns="http://www.w3.org/2000/svg">
<path d="M62.4166 103V92.504H64.0166L66.0326 98.104C66.1606 98.4667 66.2832 98.8347 66.4006 99.208C66.5286 99.5707 66.6566 99.9333 66.7846 100.296H66.8486C66.9766 99.9333 67.0939 99.5707 67.2006 99.208C67.3179 98.8347 67.4406 98.4667 67.5686 98.104L69.5526 92.504H71.1686V103H69.9206V97.224C69.9206 96.7547 69.9419 96.2373 69.9846 95.672C70.0272 95.1067 70.0646 94.5893 70.0966 94.12H70.0326L69.2006 96.504L67.2166 101.944H66.3366L64.3526 96.504L63.5206 94.12H63.4566C63.4886 94.5893 63.5206 95.1067 63.5526 95.672C63.5952 96.2373 63.6166 96.7547 63.6166 97.224V103H62.4166ZM74.0416 106.344C73.8602 106.344 73.6949 106.328 73.5456 106.296C73.3962 106.275 73.2576 106.237 73.1296 106.184L73.3856 105.144C73.4709 105.165 73.5669 105.187 73.6736 105.208C73.7802 105.24 73.8816 105.256 73.9776 105.256C74.4256 105.256 74.7882 105.096 75.0656 104.776C75.3536 104.467 75.5776 104.072 75.7376 103.592L75.9136 103.016L72.7936 95.224H74.1536L75.7376 99.528C75.8549 99.8693 75.9776 100.232 76.1056 100.616C76.2442 100.989 76.3722 101.357 76.4896 101.72H76.5536C76.6709 101.368 76.7829 101 76.8896 100.616C76.9962 100.232 77.1029 99.8693 77.2096 99.528L78.6016 95.224H79.8816L76.9536 103.64C76.8149 104.024 76.6602 104.381 76.4896 104.712C76.3189 105.043 76.1162 105.325 75.8816 105.56C75.6469 105.805 75.3802 105.997 75.0816 106.136C74.7829 106.275 74.4362 106.344 74.0416 106.344ZM84.4223 103.192C83.6863 103.192 83.0036 103.053 82.3743 102.776C81.745 102.499 81.201 102.12 80.7423 101.64L81.5423 100.712C81.9156 101.107 82.353 101.427 82.8543 101.672C83.3663 101.907 83.8943 102.024 84.4383 102.024C85.1316 102.024 85.6703 101.869 86.0543 101.56C86.4383 101.24 86.6303 100.824 86.6303 100.312C86.6303 100.045 86.5823 99.8213 86.4863 99.64C86.401 99.448 86.2783 99.288 86.1183 99.16C85.969 99.0213 85.7876 98.8987 85.5743 98.792C85.361 98.6853 85.1316 98.5733 84.8863 98.456L83.3823 97.8C83.137 97.6933 82.8863 97.5653 82.6303 97.416C82.3743 97.2667 82.145 97.0853 81.9423 96.872C81.7396 96.6587 81.5743 96.408 81.4463 96.12C81.3183 95.8213 81.2543 95.48 81.2543 95.096C81.2543 94.7013 81.3343 94.3333 81.4943 93.992C81.665 93.6507 81.8943 93.3573 82.1823 93.112C82.481 92.856 82.8276 92.6587 83.2223 92.52C83.6276 92.3813 84.0703 92.312 84.5503 92.312C85.1796 92.312 85.761 92.4347 86.2943 92.68C86.8276 92.9147 87.281 93.224 87.6543 93.608L86.9343 94.472C86.6143 94.1627 86.257 93.9227 85.8623 93.752C85.4783 93.5707 85.041 93.48 84.5503 93.48C83.9636 93.48 83.489 93.6187 83.1263 93.896C82.7743 94.1627 82.5983 94.536 82.5983 95.016C82.5983 95.272 82.6463 95.4907 82.7423 95.672C82.849 95.8427 82.9876 95.9973 83.1583 96.136C83.329 96.264 83.5156 96.3813 83.7183 96.488C83.921 96.584 84.129 96.6747 84.3423 96.76L85.8303 97.4C86.129 97.528 86.4116 97.6773 86.6783 97.848C86.945 98.008 87.1743 98.2 87.3663 98.424C87.5583 98.6373 87.7076 98.8933 87.8143 99.192C87.9316 99.48 87.9903 99.816 87.9903 100.2C87.9903 100.616 87.905 101.005 87.7343 101.368C87.5743 101.731 87.3396 102.051 87.0303 102.328C86.721 102.595 86.3476 102.808 85.9103 102.968C85.473 103.117 84.977 103.192 84.4223 103.192ZM93.9292 102.088C94.3985 102.088 94.8199 101.987 95.1932 101.784C95.5772 101.581 95.9025 101.288 96.1692 100.904C96.4465 100.52 96.6599 100.061 96.8092 99.528C96.9585 98.984 97.0332 98.376 97.0332 97.704C97.0332 97.0533 96.9585 96.4667 96.8092 95.944C96.6599 95.4213 96.4465 94.9787 96.1692 94.616C95.9025 94.2533 95.5772 93.976 95.1932 93.784C94.8199 93.5813 94.3985 93.48 93.9292 93.48C93.4599 93.48 93.0332 93.5813 92.6492 93.784C92.2759 93.976 91.9505 94.2533 91.6732 94.616C91.4065 94.9787 91.1985 95.4213 91.0492 95.944C90.8999 96.4667 90.8252 97.0533 90.8252 97.704C90.8252 98.376 90.8999 98.984 91.0492 99.528C91.1985 100.061 91.4065 100.52 91.6732 100.904C91.9505 101.288 92.2759 101.581 92.6492 101.784C93.0332 101.987 93.4599 102.088 93.9292 102.088ZM97.1452 105.64C96.6652 105.64 96.2172 105.576 95.8012 105.448C95.3959 105.331 95.0279 105.16 94.6972 104.936C94.3772 104.712 94.0945 104.445 93.8492 104.136C93.6145 103.837 93.4225 103.507 93.2732 103.144C92.6972 103.069 92.1745 102.888 91.7052 102.6C91.2359 102.312 90.8305 101.933 90.4892 101.464C90.1585 100.995 89.9025 100.445 89.7212 99.816C89.5399 99.176 89.4492 98.472 89.4492 97.704C89.4492 96.8613 89.5559 96.1093 89.7692 95.448C89.9932 94.776 90.3025 94.2107 90.6972 93.752C91.0919 93.2827 91.5612 92.9253 92.1052 92.68C92.6599 92.4347 93.2679 92.312 93.9292 92.312C94.5905 92.312 95.1932 92.44 95.7372 92.696C96.2919 92.9413 96.7665 93.2987 97.1612 93.768C97.5665 94.2267 97.8759 94.792 98.0892 95.464C98.3132 96.1253 98.4252 96.872 98.4252 97.704C98.4252 98.4613 98.3345 99.1547 98.1532 99.784C97.9825 100.403 97.7319 100.947 97.4012 101.416C97.0812 101.875 96.6919 102.253 96.2332 102.552C95.7745 102.84 95.2679 103.032 94.7132 103.128C94.9585 103.597 95.3052 103.944 95.7532 104.168C96.2012 104.403 96.7132 104.52 97.2892 104.52C97.5239 104.52 97.7265 104.504 97.8972 104.472C98.0785 104.451 98.2439 104.419 98.3932 104.376L98.6492 105.4C98.4892 105.464 98.2759 105.517 98.0092 105.56C97.7425 105.613 97.4545 105.64 97.1452 105.64ZM100.682 103V92.504H102.01V101.864H106.602V103H100.682Z" fill="black"/>
<g filter="url(#filter0_d)">
<path d="M67.9718 20.5953L66.4749 18.8489L68.2213 18.5994L69.2193 19.3479L69.7183 20.3458C69.6601 21.4811 69.3943 21.868 68.7203 22.3418L67.9718 20.5953Z" stroke="white" stroke-width="5"/>
<path d="M60.3358 24.1703C60.0049 24.028 59.6326 23.839 59.2636 23.5901C58.921 23.3591 58.608 23.0982 58.3233 22.8099L60.3358 24.1703ZM60.3358 24.1703C60.7808 25.4346 61.2504 26.7106 61.8315 27.842C62.2879 28.7105 62.7855 29.6234 63.3688 30.4096C64.0435 31.3385 64.0396 32.3708 63.7955 33.4925C63.7731 33.5955 63.7514 33.6992 63.7296 33.8029L60.3358 24.1703ZM113.199 61.5872L111.858 63.7166L113.201 61.5881C113.2 61.5878 113.2 61.5875 113.199 61.5872ZM115.843 62.1923C115.068 61.2451 114.22 60.3711 113.325 59.574C113.552 59.5062 113.768 59.4397 113.971 59.3774L114.014 59.3642C115.827 58.8065 117.067 57.1311 117.067 55.2312C117.067 54.0629 116.598 53.0024 115.86 52.2329C115.721 52.0878 115.596 51.9239 115.295 51.5288C115.259 51.4814 115.221 51.4308 115.179 51.3765C114.863 50.9617 114.341 50.2828 113.649 49.6654L113.623 49.6423L113.597 49.6197C111.372 47.7022 108.879 45.7897 106.258 44.1633C105.329 43.5695 104.348 43.1265 103.59 42.796C103.381 42.7049 103.19 42.6226 103.013 42.5463C102.454 42.3058 102.034 42.125 101.627 41.9155L101.613 41.9081L101.599 41.9008C101.399 41.8002 101.216 41.7227 101.072 41.6656C101.031 41.6491 100.99 41.6334 100.951 41.6186C100.919 41.5552 100.884 41.4851 100.846 41.4076C100.75 41.2084 100.657 41.0047 100.542 40.7509C100.528 40.7203 100.513 40.6889 100.499 40.6567C100.371 40.3777 100.217 40.0403 100.045 39.6978L100.027 39.6602L100.007 39.6229C98.8698 37.4664 97.7477 35.0389 96.7355 32.6867L96.7133 32.6351L96.6896 32.5841C96.4645 32.099 96.2879 31.6547 96.072 31.1116C95.98 30.88 95.8808 30.6305 95.7677 30.3522C95.4234 29.5053 94.9841 28.4876 94.3549 27.4581C89.6821 19.7707 84.5153 15.055 76.8684 10.5734L76.8448 10.5595L76.821 10.546C74.9831 9.50247 72.9769 9.01943 71.437 8.65941C70.5365 8.44888 69.6237 8.3215 68.7108 8.27341C68.0953 8.24099 67.6178 8.05515 67.2134 7.73818C67.0617 7.61923 66.872 7.4784 66.6534 7.33801L66.6375 7.32781L66.6215 7.31776C65.3382 6.51066 62.7486 5.02816 60.0235 4.41249C58.6573 4.10382 56.8548 3.91728 55.0435 4.49756C53.03 5.14259 51.4355 6.60131 50.5651 8.72216C49.2994 11.7761 50.4134 14.5214 51.3274 16.1062C51.8064 16.937 52.3458 17.6556 52.7616 18.1871C52.9782 18.4638 53.1339 18.6581 53.2536 18.8073C53.4168 19.011 53.5131 19.131 53.6051 19.2627L53.6386 19.3106L53.6735 19.3575C53.9378 19.713 54.1648 20.0105 54.3604 20.2669C54.842 20.8979 55.1334 21.2799 55.3246 21.6657C55.3462 21.7302 55.3827 21.8569 55.4582 22.1538C55.4634 22.1741 55.4689 22.1956 55.4746 22.2183C55.5574 22.5451 55.6989 23.1038 55.9243 23.6894C56.04 24.0079 56.1649 24.3661 56.2994 24.7517C56.8131 26.2251 57.4659 28.0973 58.2734 29.6695L58.282 29.6862L58.2907 29.7029C58.7005 30.4825 59.2445 31.499 59.9214 32.4666C59.913 32.5159 59.9018 32.574 59.887 32.642C59.8427 32.8457 59.8092 33.0042 59.7822 33.1322C59.7197 33.4283 59.6917 33.5609 59.6436 33.7108L59.6417 33.7168C57.848 39.3367 58.4315 46.383 61.2549 50.9696L61.273 50.999L61.2916 51.0281C61.642 51.5759 62.5034 52.9058 63.8084 53.9435C65.2128 55.0602 67.662 56.1996 70.5325 55.0233C70.7367 54.941 70.9303 54.8517 71.1139 54.7562C72.0471 55.4527 73.0113 56.1657 73.9656 56.8532C75.2037 57.7452 76.5292 58.4603 77.8976 59.036C78.4232 59.4622 79.0969 59.9148 79.9155 60.2396C80.7282 60.5622 81.5498 60.6054 82.3025 60.4331C83.3162 60.6664 84.3278 60.848 85.3209 60.9921C88.9162 61.5134 92.6264 61.5837 95.7442 61.6428C95.9464 61.6466 96.1461 61.6504 96.3431 61.6543C97.027 61.6677 97.8707 61.6333 98.7356 61.4097C99.35 62.2097 100.123 63.0568 100.973 63.6881C101.835 64.3469 102.827 65.0974 103.9 65.7767L103.919 65.7889L103.939 65.801C104.948 66.4238 105.992 66.9036 106.794 67.2719C106.829 67.2881 106.864 67.304 106.898 67.3197C107.791 67.7304 108.403 68.0201 108.932 68.3539L108.935 68.3558C109.259 68.5598 109.613 68.814 110.07 69.1504C110.128 69.1936 110.189 69.2386 110.252 69.2851C110.581 69.528 110.966 69.8124 111.36 70.086C111.364 70.09 111.368 70.0941 111.372 70.0985L111.387 70.1146C111.426 70.1552 111.487 70.2182 111.548 70.2802C111.818 70.5543 112.459 71.1952 113.45 71.6279C116.341 72.8915 119.146 70.6065 119.146 67.8983C119.146 67.1001 118.913 66.3547 118.522 65.7318L118.516 65.7169C118.502 65.683 118.484 65.6363 118.466 65.5941C118.42 65.4797 118.346 65.3018 118.252 65.1043C117.842 64.25 117.277 63.6848 117.014 63.4325L116.569 63.0044C116.363 62.8057 116.138 62.5522 115.843 62.1923ZM57.0417 20.9795C57.3751 21.6584 57.7905 22.2638 58.2959 22.7819L57.0417 20.9795ZM76.0188 57.2492C76.0195 57.2498 76.0201 57.2503 76.0208 57.2508L75.0252 55.4608C75.3902 55.975 75.8059 56.4878 76.2285 56.9709L76.0188 57.2492ZM111.468 69.1976C111.472 69.2012 111.471 69.201 111.468 69.1973L111.468 69.1976ZM111.29 70.0148C111.287 70.0114 111.285 70.0099 111.286 70.0104C111.286 70.0108 111.288 70.0122 111.29 70.0148ZM117.274 64.6926C117.274 64.693 117.268 64.6868 117.253 64.6726C117.267 64.6851 117.274 64.6922 117.274 64.6926Z" fill="white" stroke="white" stroke-width="8"/>
<path d="M110.318 54.3127C106.99 54.2283 104.412 54.5626 102.25 55.4755C101.625 55.7243 100.632 55.7243 100.545 56.5117C100.883 56.8448 100.922 57.3823 101.214 57.8421C101.713 58.6717 102.582 59.7878 103.376 60.3698C104.248 61.0361 105.123 61.6958 106.04 62.2766C107.657 63.275 109.491 63.8558 111.067 64.8509C111.986 65.4295 112.898 66.178 113.818 66.801C114.27 67.1331 114.559 67.6717 115.146 67.8794V67.7528C114.852 67.3796 114.769 66.8399 114.48 66.4245L113.231 65.2229C112.025 63.6059 110.525 62.1944 108.908 61.035C107.576 60.1199 104.664 58.8761 104.124 57.3457L104.04 57.2613C104.955 57.1758 106.04 56.8448 106.909 56.5905C108.324 56.2185 109.614 56.3029 111.066 55.9308C111.734 55.7643 112.396 55.5555 113.067 55.35V54.9758C112.314 54.2283 111.777 53.2355 110.986 52.5292C108.869 50.7045 106.535 48.9199 104.124 47.4261C102.833 46.5943 101.172 46.059 99.7972 45.3516C99.3018 45.1017 98.4669 44.9785 98.1752 44.5631C97.4294 43.6502 97.0097 42.4486 96.4687 41.368C95.2665 39.088 94.0987 36.5582 93.0612 34.1471C92.3109 32.5302 91.8545 30.9154 90.9394 29.4195C86.6536 22.3674 81.9993 18.0962 74.8459 13.9038C73.3086 13.0309 71.4796 12.6588 69.5259 12.2013L66.4056 12.0369C65.74 11.746 65.0732 10.9563 64.4921 10.5832C62.1187 9.0906 56.0084 5.85553 54.2629 10.1268C53.1385 12.8265 55.926 15.4808 56.8833 16.8501C57.5902 17.8008 58.5064 18.8824 59.0006 19.9619C59.2934 20.6671 59.3758 21.4156 59.6686 22.1608C60.3343 23.9866 60.9565 26.0178 61.8315 27.7214C62.2879 28.5899 62.7855 29.5028 63.3688 30.289C63.7028 30.7488 64.2839 30.952 64.4108 31.7017C63.8308 32.5279 63.7852 33.7751 63.4523 34.8124C61.9562 39.5001 62.5406 45.3072 64.6613 48.7522C65.3247 49.7894 66.9077 52.0727 69.025 51.1976C70.8996 50.4513 70.4844 48.0869 71.0232 46.0135C71.1468 45.5126 71.0655 45.1839 71.3149 44.8552V44.9363C71.8948 46.0968 72.4804 47.2151 73.0181 48.379C74.3082 50.4102 76.5547 52.527 78.426 53.934C79.4223 54.6848 80.2115 55.9686 81.4594 56.4273V56.3029H81.3771C81.1244 55.9308 80.7548 55.7643 80.4231 55.4755C79.6728 54.7281 78.8423 53.8152 78.2601 52.9867C76.5168 50.6623 74.9739 48.0892 73.6047 45.4338C72.9346 44.1455 72.3568 42.7373 71.8169 41.4513C71.5653 40.9549 71.5653 40.2064 71.1479 39.9565C70.5223 40.8683 69.6105 41.6579 69.1541 42.7751C68.3627 44.562 68.2803 46.7598 67.9864 49.0453L67.8227 49.1253C66.498 48.7932 66.0372 47.4261 65.534 46.2656C64.2883 43.3182 64.0791 38.5872 65.16 35.1866C65.4494 34.317 66.7018 31.5784 66.2019 30.7499C65.9515 29.9559 65.1188 29.5039 64.6624 28.8786C64.1258 28.0923 63.538 27.0973 63.164 26.2244C62.1666 23.9022 61.6645 21.329 60.5903 19.0079C60.0882 17.9262 59.2166 16.8068 58.5108 15.8106C57.7182 14.6912 56.8466 13.9027 56.2199 12.5756C56.0128 12.1191 55.7223 11.3728 56.0551 10.8764C56.1364 10.5432 56.3056 10.4188 56.6373 10.3355C57.1761 9.88132 58.7157 10.4588 59.2556 10.7087C60.7974 11.3306 62.0864 11.9114 63.3733 12.7821C63.9555 13.1986 64.58 13.9871 65.327 14.1948H66.2019C67.53 14.4835 69.0272 14.2747 70.2774 14.6501C72.4804 15.3564 74.4763 16.3926 76.2664 17.5109C81.7133 20.957 86.205 25.8534 89.2374 31.7017C89.735 32.6545 89.9465 33.5274 90.4007 34.5214C91.2767 36.5559 92.3599 38.6305 93.2293 40.6217C94.1032 42.5708 94.9358 44.5609 96.1837 46.1801C96.806 47.0508 99.3063 47.5072 100.427 47.9637C101.257 48.3357 102.548 48.6666 103.296 49.1231C104.711 49.9927 106.12 50.9911 107.45 51.9472C108.113 52.4448 110.194 53.482 110.318 54.3127ZM67.8984 18.2594C67.3243 18.2535 66.7519 18.3237 66.1964 18.4682V18.5515H66.2765C66.6116 19.2145 67.1938 19.6743 67.609 20.2529C67.9441 20.9181 68.2346 21.5778 68.563 22.2419L68.6432 22.1597C69.2298 21.7455 69.5215 21.0814 69.5215 20.0852C69.2688 19.792 69.2298 19.5055 69.0194 19.2145C68.7745 18.7991 68.2346 18.5926 67.8984 18.2594Z" fill="#5D87A1"/>
</g>
<defs>
<filter id="filter0_d" x="45.9929" y="0.120605" width="77.153" height="79.882" filterUnits="userSpaceOnUse" color-interpolation-filters="sRGB">
<feFlood flood-opacity="0" result="BackgroundImageFix"/>
<feColorMatrix in="SourceAlpha" type="matrix" values="0 0 0 0 0 0 0 0 0 0 0 0 0 0 0 0 0 0 127 0"/>
<feOffset dy="4"/>
<feColorMatrix type="matrix" values="0 0 0 0 0 0 0 0 0 0 0 0 0 0 0 0 0 0 0.2 0"/>
<feBlend mode="normal" in2="BackgroundImageFix" result="effect1_dropShadow"/>
<feBlend mode="normal" in="SourceGraphic" in2="effect1_dropShadow" result="shape"/>
</filter>
</defs>
</svg>
