<svg width="168" height="120" viewBox="0 0 168 120" fill="none" xmlns="http://www.w3.org/2000/svg">
<path d="M59.9869 102V91.504H61.3629L65.1549 98.096L66.2909 100.272H66.3549C66.3229 99.7387 66.2855 99.1893 66.2429 98.624C66.2109 98.048 66.1949 97.4827 66.1949 96.928V91.504H67.4589V102H66.0829L62.2749 95.392L61.1389 93.232H61.0749C61.1175 93.7653 61.1549 94.3093 61.1869 94.864C61.2295 95.408 61.2509 95.9573 61.2509 96.512V102H59.9869ZM73.2423 102.192C72.7623 102.192 72.3036 102.101 71.8663 101.92C71.4396 101.739 71.0609 101.477 70.7303 101.136C70.3996 100.784 70.1329 100.357 69.9303 99.856C69.7383 99.344 69.6423 98.768 69.6423 98.128C69.6423 97.4773 69.7383 96.9013 69.9303 96.4C70.1329 95.888 70.3996 95.456 70.7303 95.104C71.0609 94.752 71.4396 94.4853 71.8663 94.304C72.3036 94.1227 72.7623 94.032 73.2423 94.032C73.7223 94.032 74.1756 94.1227 74.6023 94.304C75.0396 94.4853 75.4236 94.752 75.7543 95.104C76.0849 95.456 76.3463 95.888 76.5383 96.4C76.7409 96.9013 76.8423 97.4773 76.8423 98.128C76.8423 98.768 76.7409 99.344 76.5383 99.856C76.3463 100.357 76.0849 100.784 75.7543 101.136C75.4236 101.477 75.0396 101.739 74.6023 101.92C74.1756 102.101 73.7223 102.192 73.2423 102.192ZM73.2423 101.104C73.5729 101.104 73.8769 101.035 74.1543 100.896C74.4316 100.747 74.6663 100.544 74.8583 100.288C75.0609 100.021 75.2156 99.7067 75.3223 99.344C75.4289 98.9813 75.4823 98.576 75.4823 98.128C75.4823 97.68 75.4289 97.2747 75.3223 96.912C75.2156 96.5387 75.0609 96.2187 74.8583 95.952C74.6663 95.6853 74.4316 95.4827 74.1543 95.344C73.8769 95.1947 73.5729 95.12 73.2423 95.12C72.9116 95.12 72.6076 95.1947 72.3303 95.344C72.0529 95.4827 71.8129 95.6853 71.6103 95.952C71.4183 96.2187 71.2689 96.5387 71.1623 96.912C71.0556 97.2747 71.0023 97.68 71.0023 98.128C71.0023 98.576 71.0556 98.9813 71.1623 99.344C71.2689 99.7067 71.4183 100.021 71.6103 100.288C71.8129 100.544 72.0529 100.747 72.3303 100.896C72.6076 101.035 72.9116 101.104 73.2423 101.104ZM81.5461 102.192C80.5648 102.192 79.7808 101.84 79.1941 101.136C78.6181 100.432 78.3301 99.4293 78.3301 98.128C78.3301 97.4987 78.4208 96.9333 78.6021 96.432C78.7941 95.92 79.0448 95.488 79.3541 95.136C79.6635 94.784 80.0208 94.512 80.4261 94.32C80.8315 94.128 81.2581 94.032 81.7061 94.032C82.1541 94.032 82.5435 94.112 82.8741 94.272C83.2048 94.432 83.5408 94.6507 83.8821 94.928L83.8181 93.6V90.608H85.1461V102H84.0581L83.9461 101.088H83.8981C83.5888 101.387 83.2315 101.648 82.8261 101.872C82.4315 102.085 82.0048 102.192 81.5461 102.192ZM81.8341 101.088C82.1968 101.088 82.5381 101.003 82.8581 100.832C83.1781 100.651 83.4981 100.379 83.8181 100.016V95.952C83.4875 95.6533 83.1675 95.4453 82.8581 95.328C82.5595 95.2 82.2501 95.136 81.9301 95.136C81.6208 95.136 81.3275 95.2107 81.0501 95.36C80.7835 95.4987 80.5488 95.7013 80.3461 95.968C80.1435 96.224 79.9835 96.5333 79.8661 96.896C79.7488 97.2587 79.6901 97.664 79.6901 98.112C79.6901 99.0507 79.8768 99.7813 80.2501 100.304C80.6235 100.827 81.1515 101.088 81.8341 101.088ZM90.9171 102.192C90.3945 102.192 89.9038 102.101 89.4451 101.92C88.9971 101.728 88.6025 101.461 88.2611 101.12C87.9305 100.768 87.6691 100.341 87.4771 99.84C87.2851 99.3387 87.1891 98.768 87.1891 98.128C87.1891 97.488 87.2851 96.9173 87.4771 96.416C87.6798 95.904 87.9411 95.472 88.2611 95.12C88.5918 94.768 88.9651 94.5013 89.3811 94.32C89.7971 94.128 90.2291 94.032 90.6771 94.032C91.1678 94.032 91.6051 94.1173 91.9891 94.288C92.3838 94.4587 92.7091 94.704 92.9651 95.024C93.2318 95.344 93.4345 95.728 93.5731 96.176C93.7118 96.624 93.7811 97.1253 93.7811 97.68C93.7811 97.8187 93.7758 97.9573 93.7651 98.096C93.7651 98.224 93.7545 98.336 93.7331 98.432H88.4851C88.5385 99.264 88.7945 99.9253 89.2531 100.416C89.7225 100.896 90.3305 101.136 91.0771 101.136C91.4505 101.136 91.7918 101.083 92.1011 100.976C92.4211 100.859 92.7251 100.709 93.0131 100.528L93.4771 101.392C93.1358 101.605 92.7571 101.792 92.3411 101.952C91.9251 102.112 91.4505 102.192 90.9171 102.192ZM88.4691 97.488H92.6291C92.6291 96.6987 92.4585 96.1013 92.1171 95.696C91.7865 95.28 91.3171 95.072 90.7091 95.072C90.4318 95.072 90.1651 95.1253 89.9091 95.232C89.6638 95.3387 89.4398 95.4987 89.2371 95.712C89.0345 95.9147 88.8638 96.1653 88.7251 96.464C88.5971 96.7627 88.5118 97.104 88.4691 97.488ZM96.3906 102.192C96.124 102.192 95.8946 102.101 95.7026 101.92C95.5213 101.728 95.4306 101.488 95.4306 101.2C95.4306 100.891 95.5213 100.645 95.7026 100.464C95.8946 100.272 96.124 100.176 96.3906 100.176C96.6466 100.176 96.8653 100.272 97.0466 100.464C97.2386 100.645 97.3346 100.891 97.3346 101.2C97.3346 101.488 97.2386 101.728 97.0466 101.92C96.8653 102.101 96.6466 102.192 96.3906 102.192ZM99.3089 105.472C99.0635 105.472 98.8449 105.451 98.6529 105.408C98.4609 105.365 98.2955 105.317 98.1569 105.264L98.4289 104.272C98.5249 104.304 98.6369 104.331 98.7649 104.352C98.8929 104.384 99.0262 104.4 99.1649 104.4C99.5489 104.4 99.8049 104.267 99.9329 104C100.061 103.733 100.125 103.36 100.125 102.88V94.224H101.437V102.88C101.437 103.669 101.277 104.299 100.957 104.768C100.637 105.237 100.088 105.472 99.3089 105.472ZM100.797 92.624C100.541 92.624 100.322 92.544 100.141 92.384C99.9702 92.224 99.8849 92.0213 99.8849 91.776C99.8849 91.52 99.9702 91.3173 100.141 91.168C100.322 91.008 100.541 90.928 100.797 90.928C101.042 90.928 101.25 91.008 101.421 91.168C101.602 91.3173 101.693 91.52 101.693 91.776C101.693 92.0213 101.602 92.224 101.421 92.384C101.25 92.544 101.042 92.624 100.797 92.624ZM106.094 102.192C105.539 102.192 105.011 102.091 104.51 101.888C104.009 101.685 103.571 101.429 103.198 101.12L103.854 100.24C104.195 100.517 104.542 100.741 104.894 100.912C105.257 101.083 105.673 101.168 106.142 101.168C106.654 101.168 107.038 101.051 107.294 100.816C107.55 100.581 107.678 100.293 107.678 99.952C107.678 99.7493 107.625 99.5733 107.518 99.424C107.411 99.2747 107.273 99.1467 107.102 99.04C106.942 98.9227 106.755 98.8213 106.542 98.736C106.329 98.6507 106.115 98.5653 105.902 98.48C105.625 98.384 105.347 98.2773 105.07 98.16C104.793 98.032 104.542 97.8827 104.318 97.712C104.105 97.5307 103.929 97.3227 103.79 97.088C103.651 96.8533 103.582 96.5707 103.582 96.24C103.582 95.9307 103.641 95.6427 103.758 95.376C103.886 95.0987 104.062 94.864 104.286 94.672C104.521 94.4693 104.803 94.3147 105.134 94.208C105.465 94.0907 105.838 94.032 106.254 94.032C106.745 94.032 107.193 94.1173 107.598 94.288C108.014 94.4587 108.371 94.6667 108.67 94.912L108.046 95.744C107.779 95.5413 107.502 95.376 107.214 95.248C106.926 95.12 106.611 95.056 106.27 95.056C105.779 95.056 105.417 95.168 105.182 95.392C104.958 95.616 104.846 95.8773 104.846 96.176C104.846 96.3573 104.894 96.5173 104.99 96.656C105.086 96.784 105.214 96.9013 105.374 97.008C105.534 97.104 105.715 97.1947 105.918 97.28C106.131 97.3547 106.35 97.4347 106.574 97.52C106.851 97.6267 107.129 97.7387 107.406 97.856C107.694 97.9733 107.95 98.1227 108.174 98.304C108.398 98.4747 108.579 98.688 108.718 98.944C108.867 99.2 108.942 99.5093 108.942 99.872C108.942 100.192 108.878 100.491 108.75 100.768C108.633 101.045 108.451 101.291 108.206 101.504C107.971 101.717 107.673 101.883 107.31 102C106.958 102.128 106.553 102.192 106.094 102.192Z" fill="black"/>
<g filter="url(#filter0_d)">
<path d="M87.2781 4.86388L87.2678 4.85801L87.2575 4.85221C86.2616 4.29247 85.1391 4 83.9998 4C82.8604 4 81.7379 4.29247 80.742 4.85221L80.7317 4.85801L80.7214 4.86387L59.3075 17.0668C57.1415 18.2809 56 20.526 56 22.7619V47.2372C56 49.6065 57.2999 51.7444 59.2346 52.8902L59.2633 52.9071L59.2922 52.9236L80.7213 65.1361L80.7317 65.142L80.742 65.1478C81.7379 65.7075 82.8604 66 83.9998 66C85.1391 66 86.2616 65.7075 87.2575 65.1478L87.2679 65.142L87.2782 65.1361L108.693 52.9322C110.857 51.7186 112 49.4744 112 47.2372V22.7623C112 20.3921 110.699 18.255 108.766 17.1099L108.737 17.0927L108.708 17.0759L87.2781 4.86388Z" fill="white" stroke="white" stroke-width="8"/>
<mask id="mask0" mask-type="alpha" maskUnits="userSpaceOnUse" x="60" y="8" width="48" height="55">
<path d="M85.2977 8.33919C84.9022 8.11689 84.4549 8 83.9998 8C83.5447 8 83.0974 8.11689 82.7019 8.33919L61.2728 20.5508C60.458 21.003 60 21.8574 60 22.7619V47.2372C60 48.1417 60.5091 48.9961 61.2728 49.4484L82.7019 61.6608C83.0974 61.8831 83.5447 62 83.9998 62C84.4549 62 84.9022 61.8831 85.2977 61.6608L106.727 49.4484C107.542 48.9961 108 48.1417 108 47.2372V22.7623C108 21.8579 107.49 21.0034 106.727 20.5512L85.2977 8.33919Z" fill="white"/>
</mask>
<g mask="url(#mask0)">
<path d="M85.2977 8.33919C84.9022 8.11689 84.4549 8 83.9998 8C83.5447 8 83.0974 8.11689 82.7019 8.33919L61.2728 20.5508C60.458 21.003 60 21.8574 60 22.7619V47.2372C60 48.1417 60.5091 48.9961 61.2728 49.4484L82.7019 61.6608C83.0974 61.8831 83.5447 62 83.9998 62C84.4549 62 84.9022 61.8831 85.2977 61.6608L106.727 49.4484C107.542 48.9961 108 48.1417 108 47.2372V22.7623C108 21.8579 107.49 21.0034 106.727 20.5512L85.2977 8.33919Z" fill="url(#paint0_linear)"/>
<path d="M106.778 20.5512L85.2471 8.33923C85.0356 8.23375 84.8138 8.14954 84.5852 8.08789L60.4581 48.8966C60.658 49.1375 60.8994 49.3417 61.1712 49.4997L82.702 61.7122C83.3128 62.064 84.0254 62.1644 84.6869 61.9631L107.338 21.0543C107.185 20.8534 106.981 20.7021 106.778 20.5517V20.5512Z" fill="url(#paint1_linear)"/>
<path fill-rule="evenodd" clip-rule="evenodd" d="M106.829 49.4493C107.44 49.0975 107.898 48.4944 108.102 47.8413L84.483 8.03793C83.8722 7.93748 83.2102 7.98749 82.6509 8.33927L61.2725 20.5017L84.3302 62.0136C84.6655 61.9593 84.9912 61.8579 85.2973 61.7122L106.829 49.4498L106.829 49.4493Z" fill="url(#paint2_linear)"/>
<path fill-rule="evenodd" clip-rule="evenodd" d="M106.829 49.4488L85.3487 61.6612C85.0455 61.8139 84.7187 61.9157 84.3816 61.9625L84.789 62.7165L108.61 49.0974V48.7956L108 47.7903C107.898 48.4939 107.44 49.097 106.829 49.4488V49.4488Z" fill="url(#paint3_linear)"/>
<path fill-rule="evenodd" clip-rule="evenodd" d="M106.829 49.4488L85.3487 61.6612C85.0455 61.8139 84.7187 61.9157 84.3816 61.9625L84.789 62.7165L108.61 49.0974V48.7956L108 47.7903C107.898 48.4939 107.44 49.097 106.829 49.4488V49.4488Z" fill="url(#paint4_linear)"/>
</g>
</g>
<defs>
<filter id="filter0_d" x="52" y="0" width="64" height="74" filterUnits="userSpaceOnUse" color-interpolation-filters="sRGB">
<feFlood flood-opacity="0" result="BackgroundImageFix"/>
<feColorMatrix in="SourceAlpha" type="matrix" values="0 0 0 0 0 0 0 0 0 0 0 0 0 0 0 0 0 0 127 0"/>
<feOffset dy="4"/>
<feColorMatrix type="matrix" values="0 0 0 0 0 0 0 0 0 0 0 0 0 0 0 0 0 0 0.2 0"/>
<feBlend mode="normal" in2="BackgroundImageFix" result="effect1_dropShadow"/>
<feBlend mode="normal" in="SourceGraphic" in2="effect1_dropShadow" result="shape"/>
</filter>
<linearGradient id="paint0_linear" x1="92.7302" y1="17.443" x2="69.6653" y2="54.1492" gradientUnits="userSpaceOnUse">
<stop stop-color="#41873F"/>
<stop offset="0.3288" stop-color="#418B3D"/>
<stop offset="0.6352" stop-color="#419637"/>
<stop offset="0.9319" stop-color="#3FA92D"/>
<stop offset="1" stop-color="#3FAE2A"/>
</linearGradient>
<linearGradient id="paint1_linear" x1="80.7464" y1="37.8669" x2="139.228" y2="5.68641" gradientUnits="userSpaceOnUse">
<stop offset="0.1376" stop-color="#41873F"/>
<stop offset="0.4032" stop-color="#54A044"/>
<stop offset="0.7136" stop-color="#66B848"/>
<stop offset="0.9081" stop-color="#6CC04A"/>
</linearGradient>
<linearGradient id="paint2_linear" x1="59.2171" y1="35.0013" x2="108.804" y2="35.0013" gradientUnits="userSpaceOnUse">
<stop offset="0.09192" stop-color="#6CC04A"/>
<stop offset="0.2864" stop-color="#66B848"/>
<stop offset="0.5968" stop-color="#54A044"/>
<stop offset="0.8624" stop-color="#41873F"/>
</linearGradient>
<linearGradient id="paint3_linear" x1="59.2173" y1="55.2945" x2="108.803" y2="55.2945" gradientUnits="userSpaceOnUse">
<stop offset="0.09192" stop-color="#6CC04A"/>
<stop offset="0.2864" stop-color="#66B848"/>
<stop offset="0.5968" stop-color="#54A044"/>
<stop offset="0.8624" stop-color="#41873F"/>
</linearGradient>
<linearGradient id="paint4_linear" x1="116.028" y1="16.2856" x2="103.771" y2="81.3352" gradientUnits="userSpaceOnUse">
<stop stop-color="#41873F"/>
<stop offset="0.3288" stop-color="#418B3D"/>
<stop offset="0.6352" stop-color="#419637"/>
<stop offset="0.9319" stop-color="#3FA92D"/>
<stop offset="1" stop-color="#3FAE2A"/>
</linearGradient>
</defs>
</svg>
