<svg width="168" height="120" viewBox="0 0 168 120" fill="none" xmlns="http://www.w3.org/2000/svg">
<path d="M69.9166 102V91.504H71.2926L75.0846 98.096L76.2206 100.272H76.2846C76.2526 99.7387 76.2152 99.1893 76.1726 98.624C76.1406 98.048 76.1246 97.4827 76.1246 96.928V91.504H77.3886V102H76.0126L72.2046 95.392L71.0686 93.232H71.0046C71.0472 93.7653 71.0846 94.3093 71.1166 94.864C71.1592 95.408 71.1806 95.9573 71.1806 96.512V102H69.9166ZM80.2759 102V91.504H83.2679C83.8546 91.504 84.3879 91.5573 84.8679 91.664C85.3586 91.7707 85.7746 91.9467 86.1159 92.192C86.4573 92.4267 86.7239 92.7413 86.9159 93.136C87.1079 93.5307 87.2039 94.016 87.2039 94.592C87.2039 95.1467 87.1079 95.6267 86.9159 96.032C86.7346 96.4373 86.4733 96.7733 86.1319 97.04C85.7906 97.3067 85.3799 97.5093 84.8999 97.648C84.4306 97.776 83.9079 97.84 83.3319 97.84H81.6039V102H80.2759ZM81.6039 96.752H83.1719C84.0893 96.752 84.7666 96.5813 85.2039 96.24C85.6519 95.888 85.8759 95.3387 85.8759 94.592C85.8759 93.8347 85.6413 93.312 85.1719 93.024C84.7133 92.7253 84.0253 92.576 83.1079 92.576H81.6039V96.752ZM89.3384 102V91.504H90.9384L92.9544 97.104C93.0824 97.4667 93.2051 97.8347 93.3224 98.208C93.4504 98.5707 93.5784 98.9333 93.7064 99.296H93.7704C93.8984 98.9333 94.0158 98.5707 94.1224 98.208C94.2398 97.8347 94.3624 97.4667 94.4904 97.104L96.4744 91.504H98.0904V102H96.8424V96.224C96.8424 95.7547 96.8638 95.2373 96.9064 94.672C96.9491 94.1067 96.9864 93.5893 97.0184 93.12H96.9544L96.1224 95.504L94.1384 100.944H93.2584L91.2744 95.504L90.4424 93.12H90.3784C90.4104 93.5893 90.4424 94.1067 90.4744 94.672C90.5171 95.2373 90.5384 95.7547 90.5384 96.224V102H89.3384Z" fill="black"/>
<g filter="url(#filter0_d)">
<path d="M38 19C35.7909 19 34 20.7909 34 23V53.8317C34 56.0408 35.7909 57.8317 38 57.8317H59.6712V59C59.6712 61.2091 61.4621 63 63.6712 63H84.1725C86.3817 63 88.1725 61.2091 88.1725 59V57.8317H130.345C132.554 57.8317 134.345 56.0408 134.345 53.8317V23C134.345 20.7909 132.554 19 130.345 19H38Z" stroke="white" stroke-width="8" stroke-linejoin="round"/>
<path d="M38 23V53.8317H63.6712V59H84.1725V53.8317H130.345V23H38Z" fill="#CB3837"/>
<path d="M53.3315 28.168H43.1699V48.6631H53.3315V33.3363H58.5014V48.6631H63.6712V28.168H53.3315ZM68.8411 28.168V53.8314H79.1809V48.6631H89.3424V28.168H68.8411ZM84.1726 43.4947H79.1809V33.3363H84.1726V43.4947ZM104.674 28.168H94.5123V48.6631H104.674V33.3363H109.844V48.6631H115.014V33.3363H120.184V48.6631H125.353V28.168H104.674V28.168Z" fill="white"/>
</g>
<defs>
<filter id="filter0_d" x="30" y="15" width="108.345" height="56" filterUnits="userSpaceOnUse" color-interpolation-filters="sRGB">
<feFlood flood-opacity="0" result="BackgroundImageFix"/>
<feColorMatrix in="SourceAlpha" type="matrix" values="0 0 0 0 0 0 0 0 0 0 0 0 0 0 0 0 0 0 127 0"/>
<feOffset dy="4"/>
<feColorMatrix type="matrix" values="0 0 0 0 0 0 0 0 0 0 0 0 0 0 0 0 0 0 0.2 0"/>
<feBlend mode="normal" in2="BackgroundImageFix" result="effect1_dropShadow"/>
<feBlend mode="normal" in="SourceGraphic" in2="effect1_dropShadow" result="shape"/>
</filter>
</defs>
</svg>
