<svg width="168" height="120" viewBox="0 0 168 120" fill="none" xmlns="http://www.w3.org/2000/svg">
<path d="M48.9478 102V91.504H51.9398C52.5265 91.504 53.0598 91.5573 53.5398 91.664C54.0305 91.7707 54.4465 91.9467 54.7878 92.192C55.1291 92.4267 55.3958 92.7413 55.5878 93.136C55.7798 93.5307 55.8758 94.016 55.8758 94.592C55.8758 95.1467 55.7798 95.6267 55.5878 96.032C55.4065 96.4373 55.1451 96.7733 54.8038 97.04C54.4625 97.3067 54.0518 97.5093 53.5718 97.648C53.1025 97.776 52.5798 97.84 52.0038 97.84H50.2758V102H48.9478ZM50.2758 96.752H51.8438C52.7611 96.752 53.4385 96.5813 53.8758 96.24C54.3238 95.888 54.5478 95.3387 54.5478 94.592C54.5478 93.8347 54.3131 93.312 53.8438 93.024C53.3851 92.7253 52.6971 92.576 51.7798 92.576H50.2758V96.752ZM57.8823 102V90.608H59.1943V93.712L59.1463 95.312C59.5196 94.96 59.909 94.6613 60.3143 94.416C60.7196 94.16 61.1943 94.032 61.7383 94.032C62.5596 94.032 63.157 94.288 63.5303 94.8C63.9143 95.312 64.1063 96.0693 64.1063 97.072V102H62.7943V97.248C62.7943 96.512 62.677 95.984 62.4423 95.664C62.2076 95.3333 61.8343 95.168 61.3223 95.168C60.917 95.168 60.5596 95.2693 60.2503 95.472C59.941 95.6747 59.589 95.9733 59.1943 96.368V102H57.8823ZM69.6094 102.192C69.1294 102.192 68.6708 102.101 68.2334 101.92C67.8068 101.739 67.4281 101.477 67.0974 101.136C66.7668 100.784 66.5001 100.357 66.2974 99.856C66.1054 99.344 66.0094 98.768 66.0094 98.128C66.0094 97.4773 66.1054 96.9013 66.2974 96.4C66.5001 95.888 66.7668 95.456 67.0974 95.104C67.4281 94.752 67.8068 94.4853 68.2334 94.304C68.6708 94.1227 69.1294 94.032 69.6094 94.032C70.0894 94.032 70.5428 94.1227 70.9694 94.304C71.4068 94.4853 71.7908 94.752 72.1214 95.104C72.4521 95.456 72.7134 95.888 72.9054 96.4C73.1081 96.9013 73.2094 97.4773 73.2094 98.128C73.2094 98.768 73.1081 99.344 72.9054 99.856C72.7134 100.357 72.4521 100.784 72.1214 101.136C71.7908 101.477 71.4068 101.739 70.9694 101.92C70.5428 102.101 70.0894 102.192 69.6094 102.192ZM69.6094 101.104C69.9401 101.104 70.2441 101.035 70.5214 100.896C70.7988 100.747 71.0334 100.544 71.2254 100.288C71.4281 100.021 71.5828 99.7067 71.6894 99.344C71.7961 98.9813 71.8494 98.576 71.8494 98.128C71.8494 97.68 71.7961 97.2747 71.6894 96.912C71.5828 96.5387 71.4281 96.2187 71.2254 95.952C71.0334 95.6853 70.7988 95.4827 70.5214 95.344C70.2441 95.1947 69.9401 95.12 69.6094 95.12C69.2788 95.12 68.9748 95.1947 68.6974 95.344C68.4201 95.4827 68.1801 95.6853 67.9774 95.952C67.7854 96.2187 67.6361 96.5387 67.5294 96.912C67.4228 97.2747 67.3694 97.68 67.3694 98.128C67.3694 98.576 67.4228 98.9813 67.5294 99.344C67.6361 99.7067 67.7854 100.021 67.9774 100.288C68.1801 100.544 68.4201 100.747 68.6974 100.896C68.9748 101.035 69.2788 101.104 69.6094 101.104ZM77.4397 102.192C77.0237 102.192 76.6717 102.128 76.3837 102C76.1064 101.872 75.877 101.696 75.6957 101.472C75.525 101.248 75.4024 100.976 75.3277 100.656C75.253 100.336 75.2157 99.984 75.2157 99.6V95.296H74.0637V94.304L75.2797 94.224L75.4397 92.048H76.5437V94.224H78.6397V95.296H76.5437V99.616C76.5437 100.096 76.629 100.469 76.7997 100.736C76.981 100.992 77.2957 101.12 77.7437 101.12C77.8824 101.12 78.0317 101.099 78.1917 101.056C78.3517 101.013 78.4957 100.965 78.6237 100.912L78.8797 101.904C78.6664 101.979 78.4317 102.043 78.1757 102.096C77.9304 102.16 77.685 102.192 77.4397 102.192ZM83.2032 102.192C82.7232 102.192 82.2645 102.101 81.8272 101.92C81.4005 101.739 81.0219 101.477 80.6912 101.136C80.3605 100.784 80.0939 100.357 79.8912 99.856C79.6992 99.344 79.6032 98.768 79.6032 98.128C79.6032 97.4773 79.6992 96.9013 79.8912 96.4C80.0939 95.888 80.3605 95.456 80.6912 95.104C81.0219 94.752 81.4005 94.4853 81.8272 94.304C82.2645 94.1227 82.7232 94.032 83.2032 94.032C83.6832 94.032 84.1365 94.1227 84.5632 94.304C85.0005 94.4853 85.3845 94.752 85.7152 95.104C86.0459 95.456 86.3072 95.888 86.4992 96.4C86.7019 96.9013 86.8032 97.4773 86.8032 98.128C86.8032 98.768 86.7019 99.344 86.4992 99.856C86.3072 100.357 86.0459 100.784 85.7152 101.136C85.3845 101.477 85.0005 101.739 84.5632 101.92C84.1365 102.101 83.6832 102.192 83.2032 102.192ZM83.2032 101.104C83.5339 101.104 83.8379 101.035 84.1152 100.896C84.3925 100.747 84.6272 100.544 84.8192 100.288C85.0219 100.021 85.1765 99.7067 85.2832 99.344C85.3899 98.9813 85.4432 98.576 85.4432 98.128C85.4432 97.68 85.3899 97.2747 85.2832 96.912C85.1765 96.5387 85.0219 96.2187 84.8192 95.952C84.6272 95.6853 84.3925 95.4827 84.1152 95.344C83.8379 95.1947 83.5339 95.12 83.2032 95.12C82.8725 95.12 82.5685 95.1947 82.2912 95.344C82.0139 95.4827 81.7739 95.6853 81.5712 95.952C81.3792 96.2187 81.2299 96.5387 81.1232 96.912C81.0165 97.2747 80.9632 97.68 80.9632 98.128C80.9632 98.576 81.0165 98.9813 81.1232 99.344C81.2299 99.7067 81.3792 100.021 81.5712 100.288C81.7739 100.544 82.0139 100.747 82.2912 100.896C82.5685 101.035 82.8725 101.104 83.2032 101.104ZM90.8831 102.192C90.3284 102.192 89.8004 102.091 89.2991 101.888C88.7977 101.685 88.3604 101.429 87.9871 101.12L88.6431 100.24C88.9844 100.517 89.3311 100.741 89.6831 100.912C90.0457 101.083 90.4617 101.168 90.9311 101.168C91.4431 101.168 91.8271 101.051 92.0831 100.816C92.3391 100.581 92.4671 100.293 92.4671 99.952C92.4671 99.7493 92.4137 99.5733 92.3071 99.424C92.2004 99.2747 92.0617 99.1467 91.8911 99.04C91.7311 98.9227 91.5444 98.8213 91.3311 98.736C91.1177 98.6507 90.9044 98.5653 90.6911 98.48C90.4137 98.384 90.1364 98.2773 89.8591 98.16C89.5817 98.032 89.3311 97.8827 89.1071 97.712C88.8937 97.5307 88.7177 97.3227 88.5791 97.088C88.4404 96.8533 88.3711 96.5707 88.3711 96.24C88.3711 95.9307 88.4297 95.6427 88.5471 95.376C88.6751 95.0987 88.8511 94.864 89.0751 94.672C89.3097 94.4693 89.5924 94.3147 89.9231 94.208C90.2537 94.0907 90.6271 94.032 91.0431 94.032C91.5337 94.032 91.9817 94.1173 92.3871 94.288C92.8031 94.4587 93.1604 94.6667 93.4591 94.912L92.8351 95.744C92.5684 95.5413 92.2911 95.376 92.0031 95.248C91.7151 95.12 91.4004 95.056 91.0591 95.056C90.5684 95.056 90.2057 95.168 89.9711 95.392C89.7471 95.616 89.6351 95.8773 89.6351 96.176C89.6351 96.3573 89.6831 96.5173 89.7791 96.656C89.8751 96.784 90.0031 96.9013 90.1631 97.008C90.3231 97.104 90.5044 97.1947 90.7071 97.28C90.9204 97.3547 91.1391 97.4347 91.3631 97.52C91.6404 97.6267 91.9177 97.7387 92.1951 97.856C92.4831 97.9733 92.7391 98.1227 92.9631 98.304C93.1871 98.4747 93.3684 98.688 93.5071 98.944C93.6564 99.2 93.7311 99.5093 93.7311 99.872C93.7311 100.192 93.6671 100.491 93.5391 100.768C93.4217 101.045 93.2404 101.291 92.9951 101.504C92.7604 101.717 92.4617 101.883 92.0991 102C91.7471 102.128 91.3417 102.192 90.8831 102.192ZM95.5542 102V90.608H96.8662V93.712L96.8182 95.312C97.1915 94.96 97.5809 94.6613 97.9862 94.416C98.3915 94.16 98.8662 94.032 99.4102 94.032C100.232 94.032 100.829 94.288 101.202 94.8C101.586 95.312 101.778 96.0693 101.778 97.072V102H100.466V97.248C100.466 96.512 100.349 95.984 100.114 95.664C99.8795 95.3333 99.5062 95.168 98.9942 95.168C98.5889 95.168 98.2315 95.2693 97.9222 95.472C97.6129 95.6747 97.2609 95.9733 96.8662 96.368V102H95.5542ZM107.281 102.192C106.801 102.192 106.343 102.101 105.905 101.92C105.479 101.739 105.1 101.477 104.769 101.136C104.439 100.784 104.172 100.357 103.969 99.856C103.777 99.344 103.681 98.768 103.681 98.128C103.681 97.4773 103.777 96.9013 103.969 96.4C104.172 95.888 104.439 95.456 104.769 95.104C105.1 94.752 105.479 94.4853 105.905 94.304C106.343 94.1227 106.801 94.032 107.281 94.032C107.761 94.032 108.215 94.1227 108.641 94.304C109.079 94.4853 109.463 94.752 109.793 95.104C110.124 95.456 110.385 95.888 110.577 96.4C110.78 96.9013 110.881 97.4773 110.881 98.128C110.881 98.768 110.78 99.344 110.577 99.856C110.385 100.357 110.124 100.784 109.793 101.136C109.463 101.477 109.079 101.739 108.641 101.92C108.215 102.101 107.761 102.192 107.281 102.192ZM107.281 101.104C107.612 101.104 107.916 101.035 108.193 100.896C108.471 100.747 108.705 100.544 108.897 100.288C109.1 100.021 109.255 99.7067 109.361 99.344C109.468 98.9813 109.521 98.576 109.521 98.128C109.521 97.68 109.468 97.2747 109.361 96.912C109.255 96.5387 109.1 96.2187 108.897 95.952C108.705 95.6853 108.471 95.4827 108.193 95.344C107.916 95.1947 107.612 95.12 107.281 95.12C106.951 95.12 106.647 95.1947 106.369 95.344C106.092 95.4827 105.852 95.6853 105.649 95.952C105.457 96.2187 105.308 96.5387 105.201 96.912C105.095 97.2747 105.041 97.68 105.041 98.128C105.041 98.576 105.095 98.9813 105.201 99.344C105.308 99.7067 105.457 100.021 105.649 100.288C105.852 100.544 106.092 100.747 106.369 100.896C106.647 101.035 106.951 101.104 107.281 101.104ZM112.929 105.28V94.224H114.017L114.129 95.12H114.177C114.529 94.8213 114.913 94.5653 115.329 94.352C115.756 94.1387 116.199 94.032 116.657 94.032C117.159 94.032 117.601 94.128 117.985 94.32C118.369 94.5013 118.689 94.768 118.945 95.12C119.201 95.4613 119.393 95.8773 119.521 96.368C119.66 96.848 119.729 97.392 119.729 98C119.729 98.6613 119.639 99.2533 119.457 99.776C119.276 100.288 119.031 100.725 118.721 101.088C118.412 101.451 118.055 101.728 117.649 101.92C117.244 102.101 116.817 102.192 116.369 102.192C116.007 102.192 115.644 102.112 115.281 101.952C114.929 101.792 114.572 101.573 114.209 101.296L114.241 102.656V105.28H112.929ZM116.145 101.088C116.465 101.088 116.759 101.019 117.025 100.88C117.303 100.731 117.537 100.528 117.729 100.272C117.932 100.005 118.087 99.68 118.193 99.296C118.311 98.912 118.369 98.48 118.369 98C118.369 97.5733 118.332 97.184 118.257 96.832C118.183 96.48 118.06 96.1813 117.889 95.936C117.729 95.68 117.516 95.4827 117.249 95.344C116.993 95.2053 116.684 95.136 116.321 95.136C115.991 95.136 115.655 95.2267 115.313 95.408C114.983 95.5893 114.625 95.8507 114.241 96.192V100.272C114.593 100.571 114.935 100.784 115.265 100.912C115.596 101.029 115.889 101.088 116.145 101.088Z" fill="black"/>
<g filter="url(#filter0_d)">
<rect x="52" y="4" width="64" height="64" fill="#C4C4C4" stroke="white" stroke-width="8" stroke-linejoin="round"/>
<path d="M58.3333 10.3931H109.667V61.6067H58.3333V10.3931Z" fill="url(#paint0_radial)"/>
<path d="M58.3333 10.3931H109.667V61.6068H58.3333V10.3931ZM56 64H112V8H56V64ZM93.7533 30.9743C91.91 30.9743 91.2801 31.9315 91.2801 32.7213C91.2801 33.5828 91.7 34.1811 94.1734 35.4974C97.8367 37.3162 98.9801 39.0632 98.9801 41.6239C98.9801 45.4529 96.1334 47.511 92.2833 47.511C90.2533 47.511 88.5033 47.0802 87.5 46.482C87.3367 46.4102 87.3134 46.2906 87.3134 46.0991V42.5811C87.3134 42.3418 87.43 42.27 87.5934 42.3897C89.0634 43.3709 90.7434 43.8017 92.2833 43.8017C94.1267 43.8017 94.8967 43.0119 94.8967 41.935C94.8967 41.0734 94.36 40.3076 92.0033 39.0632C88.6899 37.4358 87.3134 35.7846 87.3134 33.0324C87.3134 29.9452 89.6701 27.3846 93.7533 27.3846C95.76 27.3846 97.16 27.6957 97.93 28.0547C98.1166 28.1743 98.1633 28.3657 98.1633 28.5332V31.8118C98.1633 32.0032 98.0467 32.123 97.8133 32.0511C96.7866 31.3812 95.27 30.9743 93.7533 30.9743ZM73.6866 33.8222C74.2233 33.87 74.6434 33.87 75.5767 33.87C78.3068 33.87 80.8734 32.8889 80.8734 29.0838C80.8734 26.0445 79.03 24.5128 75.9267 24.5128C74.9934 24.5128 74.1067 24.5606 73.6866 24.5846V33.8222ZM69.5334 21.1145C69.5334 20.947 69.8601 20.8272 70.0467 20.8272C71.5401 20.7555 73.7567 20.7076 76.0667 20.7076C82.53 20.7076 85.0499 24.3452 85.0499 28.988C85.0499 35.0665 80.7566 37.6751 75.4833 37.6751C74.5967 37.6751 74.2934 37.6273 73.6633 37.6273V46.817C73.6633 47.0084 73.5933 47.1042 73.3833 47.1042H69.8134C69.6267 47.1042 69.5333 47.0324 69.5333 46.817L69.5334 21.1145Z" fill="#31C5F0"/>
</g>
<defs>
<filter id="filter0_d" x="48" y="0" width="72" height="76" filterUnits="userSpaceOnUse" color-interpolation-filters="sRGB">
<feFlood flood-opacity="0" result="BackgroundImageFix"/>
<feColorMatrix in="SourceAlpha" type="matrix" values="0 0 0 0 0 0 0 0 0 0 0 0 0 0 0 0 0 0 127 0"/>
<feOffset dy="4"/>
<feColorMatrix type="matrix" values="0 0 0 0 0 0 0 0 0 0 0 0 0 0 0 0 0 0 0.2 0"/>
<feBlend mode="normal" in2="BackgroundImageFix" result="effect1_dropShadow"/>
<feBlend mode="normal" in="SourceGraphic" in2="effect1_dropShadow" result="shape"/>
</filter>
<radialGradient id="paint0_radial" cx="0" cy="0" r="1" gradientUnits="userSpaceOnUse" gradientTransform="translate(75.24 21.8701) scale(39.0133 38.7404)">
<stop stop-color="#34364E" stop-opacity="0.98"/>
<stop offset="1" stop-color="#0C0824"/>
</radialGradient>
</defs>
</svg>
