<svg width="168" height="120" viewBox="0 0 168 120" fill="none" xmlns="http://www.w3.org/2000/svg">
<path d="M70.815 102V91.504H73.807C74.3937 91.504 74.927 91.5573 75.407 91.664C75.8977 91.7707 76.3137 91.9467 76.655 92.192C76.9963 92.4267 77.263 92.7413 77.455 93.136C77.647 93.5307 77.743 94.016 77.743 94.592C77.743 95.1467 77.647 95.6267 77.455 96.032C77.2737 96.4373 77.0123 96.7733 76.671 97.04C76.3297 97.3067 75.919 97.5093 75.439 97.648C74.9697 97.776 74.447 97.84 73.871 97.84H72.143V102H70.815ZM72.143 96.752H73.711C74.6283 96.752 75.3057 96.5813 75.743 96.24C76.191 95.888 76.415 95.3387 76.415 94.592C76.415 93.8347 76.1803 93.312 75.711 93.024C75.2523 92.7253 74.5643 92.576 73.647 92.576H72.143V96.752ZM83.6055 102.192C83.0722 102.192 82.5708 102.117 82.1015 101.968C81.6428 101.808 81.2428 101.552 80.9015 101.2C80.5708 100.837 80.3095 100.368 80.1175 99.792C79.9255 99.216 79.8295 98.5067 79.8295 97.664V91.504H81.1575V97.696C81.1575 98.3253 81.2215 98.8533 81.3495 99.28C81.4775 99.7067 81.6482 100.048 81.8615 100.304C82.0855 100.56 82.3468 100.747 82.6455 100.864C82.9442 100.971 83.2642 101.024 83.6055 101.024C83.9575 101.024 84.2828 100.971 84.5815 100.864C84.8802 100.747 85.1415 100.56 85.3655 100.304C85.5895 100.048 85.7655 99.7067 85.8935 99.28C86.0215 98.8533 86.0855 98.3253 86.0855 97.696V91.504H87.3655V97.664C87.3655 98.5067 87.2695 99.216 87.0775 99.792C86.8855 100.368 86.6188 100.837 86.2775 101.2C85.9468 101.552 85.5522 101.808 85.0935 101.968C84.6348 102.117 84.1388 102.192 83.6055 102.192ZM94.318 102.192C93.6247 102.192 92.9847 102.069 92.398 101.824C91.822 101.579 91.326 101.227 90.91 100.768C90.494 100.299 90.1687 99.728 89.934 99.056C89.6993 98.3733 89.582 97.6053 89.582 96.752C89.582 95.9093 89.6993 95.152 89.934 94.48C90.1793 93.808 90.5153 93.2373 90.942 92.768C91.3687 92.2987 91.8753 91.9413 92.462 91.696C93.0593 91.44 93.7047 91.312 94.398 91.312C94.7607 91.312 95.0913 91.3493 95.39 91.424C95.6993 91.4987 95.9767 91.6 96.222 91.728C96.478 91.8453 96.702 91.984 96.894 92.144C97.0967 92.2933 97.2727 92.448 97.422 92.608L96.686 93.472C96.4193 93.1947 96.11 92.96 95.758 92.768C95.406 92.576 94.9633 92.48 94.43 92.48C93.8967 92.48 93.4167 92.5813 92.99 92.784C92.5633 92.976 92.2007 93.2587 91.902 93.632C91.6033 93.9947 91.3687 94.4373 91.198 94.96C91.038 95.4827 90.958 96.0693 90.958 96.72C90.958 97.3813 91.0327 97.9787 91.182 98.512C91.342 99.0347 91.566 99.4827 91.854 99.856C92.1527 100.229 92.5153 100.517 92.942 100.72C93.3793 100.923 93.8807 101.024 94.446 101.024C94.8193 101.024 95.1713 100.971 95.502 100.864C95.8433 100.747 96.1207 100.592 96.334 100.4V97.664H94.11V96.56H97.55V100.976C97.2087 101.328 96.7607 101.621 96.206 101.856C95.6513 102.08 95.022 102.192 94.318 102.192Z" fill="black"/>
<g filter="url(#filter0_d)">
<mask id="path-2-outside-1" maskUnits="userSpaceOnUse" x="36" y="7" width="96" height="65" fill="black">
<rect fill="white" x="36" y="7" width="96" height="65"/>
<path fill-rule="evenodd" clip-rule="evenodd" d="M110.437 43.3808L109.812 46.0565L109.802 46.1183C109.703 46.7623 109.407 47.375 109.021 47.9721C108.869 48.2802 108.702 48.5465 108.523 48.7368C108.49 48.7713 108.46 48.8026 108.431 48.8309C108.196 49.1582 107.944 49.4832 107.693 49.8068C107.339 50.2647 106.987 50.72 106.685 51.1759C106.381 51.6894 106.159 52.2127 106.087 52.7561C105.938 53.9242 105.598 54.9738 105.046 55.9083C104.042 57.9352 102.131 59.471 99.0961 60.5303C98.2354 61.2009 97.2152 61.2732 96.2005 61.345L96.0555 61.3553C95.4514 61.4809 94.8161 61.594 94.1487 61.6948C94.0465 61.7344 93.9457 61.7791 93.8467 61.8297C91.3532 63.0764 88.8189 63.0163 86.1769 62.9537H86.1768H86.1767H86.1765H86.1764H86.1763H86.1762H86.1761H86.176H86.1759H86.1757H86.1756H86.1755H86.1754H86.1753H86.1751H86.175H86.1749H86.1748H86.1746H86.1745H86.1744H86.1742H86.1741H86.174H86.1738H86.1737H86.1735H86.1734C85.5903 62.9398 85.002 62.9258 84.4076 62.9258H84.3467C83.7151 62.9258 83.0858 62.9446 82.4593 62.9632H82.4592H82.4591H82.459H82.4589H82.4588H82.4587H82.4586H82.4585H82.4584H82.4583H82.4582H82.4581H82.458H82.4579H82.4578H82.4577H82.4576H82.4574H82.4574H82.4573H82.4572H82.4571H82.457H82.4569H82.4568H82.4567H82.4566H82.4565C79.8826 63.0396 77.3558 63.1146 74.9077 61.8906C74.8177 61.8429 74.7264 61.7999 74.6338 61.7611C73.6917 61.6296 72.8109 61.4746 71.9891 61.2961C71.4121 61.2293 70.8432 61.126 70.3132 60.876C65.2567 59.4215 62.8753 56.8544 62.363 53.1218C62.2116 52.0017 61.3679 50.9117 60.5128 49.8068C59.6847 48.737 58.846 47.6533 58.6146 46.515C58.5767 46.3839 58.547 46.2517 58.5265 46.1183L58.5171 46.0618L57.701 42.569C57.5181 44.0698 57.261 45.1215 56.7604 45.4488C55.9979 45.9434 55.2004 45.2733 54.4461 44.1347L54.4464 44.1696L54.3831 44.0385C53.5705 42.7803 52.8106 40.9975 52.2018 39.5693L52.2018 39.5693C52.1308 39.4029 52.062 39.2413 51.9953 39.0859L51.1784 37.3915C51.1497 37.3505 51.1226 37.316 51.097 37.2886C50.5044 36.6422 49.3042 35.5549 48.1236 34.4853C46.6348 33.1367 45.1771 31.8161 45.0073 31.4425C44.7028 30.7726 54.02 20.6029 58.1001 18.5933C63.0328 16.2792 69.1225 16.0965 68.6962 16.5837L68.6949 16.5848C68.6867 16.5951 68.6386 16.6557 68.5566 16.7601C72.5471 15.612 77.7811 15 84.4686 15C90.6529 15 95.5288 15.5234 99.3178 16.5055C99.6078 16.1251 105.279 16.4142 109.923 18.5933C114.004 20.6029 123.321 30.7726 123.016 31.4425C122.846 31.8161 121.389 33.1367 119.9 34.4853C118.719 35.5549 117.519 36.6422 116.927 37.2886L116.918 37.2981L116.907 37.311C116.918 37.3363 116.924 37.3492 116.927 37.3492L115.726 39.794C115.135 41.1778 114.414 42.8382 113.645 44.0307L113.577 44.1696L113.578 44.1346C112.823 45.2732 112.026 45.9434 111.263 45.4488C110.859 45.1843 110.613 44.4465 110.437 43.3808Z"/>
</mask>
<path d="M109.812 46.0565L102.022 44.2363C101.982 44.4058 101.948 44.5765 101.92 44.7481L109.812 46.0565ZM110.437 43.3808L118.33 42.078C117.709 38.313 114.515 35.511 110.701 35.3852C106.887 35.2594 103.515 37.8448 102.647 41.5607L110.437 43.3808ZM109.802 46.1183L101.909 44.81C101.904 44.8406 101.899 44.8712 101.895 44.9019L109.802 46.1183ZM109.021 47.9721L102.298 43.6365C102.136 43.8878 101.988 44.1481 101.855 44.416L109.021 47.9721ZM108.523 48.7368L102.697 43.2539L102.697 43.254L108.523 48.7368ZM108.431 48.8309L102.832 43.1162C102.504 43.4379 102.204 43.7874 101.936 44.1607L108.431 48.8309ZM107.693 49.8068L101.367 44.9102L101.367 44.9102L107.693 49.8068ZM106.685 51.1759L100.015 46.7585C99.9399 46.8718 99.8677 46.987 99.7985 47.104L106.685 51.1759ZM106.087 52.7561L98.1554 51.7125C98.154 51.7232 98.1526 51.7339 98.1512 51.7447L106.087 52.7561ZM105.046 55.9083L98.1577 51.8391C98.0577 52.0085 97.9639 52.1815 97.8766 52.3578L105.046 55.9083ZM99.0961 60.5303L96.4598 52.9771C95.637 53.2643 94.8667 53.684 94.1793 54.2196L99.0961 60.5303ZM96.2005 61.345L95.6353 53.365L95.6316 53.3653L96.2005 61.345ZM96.0555 61.3553L95.4867 53.3756C95.131 53.4009 94.7773 53.4501 94.4281 53.5226L96.0555 61.3553ZM94.1487 61.6948L92.9541 53.7845C92.3726 53.8723 91.8025 54.024 91.2543 54.2367L94.1487 61.6948ZM93.8467 61.8297L97.4244 68.9851C97.4437 68.9754 97.463 68.9657 97.4823 68.9558L93.8467 61.8297ZM86.1769 62.9537L86.3665 54.9559C86.3033 54.9544 86.2401 54.9537 86.1769 54.9537L86.1769 62.9537ZM86.1734 62.9537L85.9834 70.9514C86.0467 70.9529 86.1101 70.9537 86.1734 70.9537L86.1734 62.9537ZM82.4593 62.9632V70.9632C82.5386 70.9632 82.6179 70.962 82.6971 70.9596L82.4593 62.9632ZM82.4565 62.9632V54.9632C82.3774 54.9632 82.2982 54.9644 82.2191 54.9667L82.4565 62.9632ZM74.9077 61.8906L71.1581 68.9574C71.215 68.9877 71.2724 69.0172 71.33 69.046L74.9077 61.8906ZM74.6338 61.7611L77.7269 54.3832C77.0908 54.1165 76.4227 53.9332 75.7395 53.8378L74.6338 61.7611ZM71.9891 61.2961L73.6878 53.4785C73.4304 53.4226 73.1705 53.3794 72.9089 53.3491L71.9891 61.2961ZM70.3132 60.876L73.7262 53.6405C73.3385 53.4577 72.9367 53.3063 72.5248 53.1878L70.3132 60.876ZM62.363 53.1218L54.435 54.1932C54.4358 54.1987 54.4365 54.2042 54.4373 54.2097L62.363 53.1218ZM60.5128 49.8068L54.1864 54.7034L54.1864 54.7034L60.5128 49.8068ZM58.6146 46.515L66.4544 44.9218C66.4115 44.7106 66.36 44.5012 66.3002 44.2942L58.6146 46.515ZM58.5265 46.1183L66.4335 44.9019C66.4287 44.8708 66.4237 44.8398 66.4186 44.8089L58.5265 46.1183ZM58.5171 46.0618L66.4092 44.7523C66.3808 44.581 66.3468 44.4107 66.3073 44.2416L58.5171 46.0618ZM57.701 42.569L65.4912 40.7489C64.6085 36.971 61.1424 34.3709 57.2684 34.5807C53.3944 34.7905 50.2294 37.7497 49.7598 41.6009L57.701 42.569ZM56.7604 45.4488L61.1139 52.1605C61.1221 52.1552 61.1302 52.1499 61.1384 52.1446L56.7604 45.4488ZM54.4461 44.1347L61.1151 39.716C59.1586 36.7631 55.4931 35.4484 52.1058 36.4846C48.7185 37.5209 46.4159 40.6613 46.4464 44.2035L54.4461 44.1347ZM54.4464 44.1696L47.2402 47.644C48.8665 51.017 52.6149 52.8107 56.2619 51.9609C59.9088 51.1111 62.4783 47.8453 62.4461 44.1008L54.4464 44.1696ZM54.3831 44.0385L61.5893 40.5641C61.4454 40.2656 61.283 39.9763 61.1032 39.6979L54.3831 44.0385ZM52.2018 39.5693L44.7111 42.3783C44.7525 42.4886 44.7963 42.5979 44.8425 42.7062L52.2018 39.5693ZM52.2018 39.5693L59.6924 36.7603C59.6511 36.6501 59.6073 36.5407 59.5611 36.4324L52.2018 39.5693ZM51.9953 39.0859L59.3471 35.9315C59.3009 35.8237 59.2523 35.7171 59.2014 35.6115L51.9953 39.0859ZM51.1784 37.3915L58.3845 33.9171C58.1989 33.5322 57.9828 33.1628 57.7382 32.8124L51.1784 37.3915ZM51.097 37.2886L45.1997 42.6944C45.216 42.7121 45.2323 42.7297 45.2487 42.7473L51.097 37.2886ZM48.1236 34.4853L53.4946 28.5564L53.4946 28.5564L48.1236 34.4853ZM45.0073 31.4425L52.2902 28.1321L52.2902 28.1321L45.0073 31.4425ZM58.1001 18.5933L54.7024 11.3507C54.6565 11.3722 54.6108 11.3942 54.5653 11.4165L58.1001 18.5933ZM68.6962 16.5837L73.8313 22.718C74.1484 22.4526 74.4445 22.1629 74.7168 21.8517L68.6962 16.5837ZM68.6949 16.5848L63.5597 10.4504C63.1439 10.7985 62.7646 11.1879 62.4276 11.6127L68.6949 16.5848ZM68.5566 16.7601L62.2653 11.8185C60.1213 14.5481 59.982 18.3489 61.9205 21.2281C63.859 24.1073 67.433 25.408 70.7686 24.4483L68.5566 16.7601ZM99.3178 16.5055L97.3104 24.2496C100.428 25.0578 103.727 23.9172 105.68 21.3555L99.3178 16.5055ZM109.923 18.5933L113.458 11.4165C113.413 11.3942 113.367 11.3722 113.321 11.3507L109.923 18.5933ZM123.016 31.4425L115.733 28.132L115.733 28.1321L123.016 31.4425ZM119.9 34.4853L125.271 40.4142L125.271 40.4142L119.9 34.4853ZM116.927 37.2886L111.029 31.8828L111.02 31.8929L116.927 37.2886ZM116.918 37.2981L111.011 31.9024C110.97 31.9481 110.928 31.9943 110.888 32.041L116.918 37.2981ZM116.907 37.311L110.877 32.0539C108.848 34.3805 108.339 37.6665 109.569 40.4977L116.907 37.311ZM116.927 37.3492L124.107 40.8755C125.325 38.3959 125.177 35.4636 123.717 33.1189C122.256 30.7743 119.689 29.3492 116.927 29.3492V37.3492ZM115.726 39.794L108.545 36.2676C108.483 36.3948 108.424 36.5236 108.368 36.6539L115.726 39.794ZM113.645 44.0307L106.921 39.6962C106.754 39.9565 106.601 40.2263 106.465 40.5042L113.645 44.0307ZM113.577 44.1696L105.578 44.1016C105.546 47.8351 108.101 51.0941 111.734 51.9544C115.367 52.8146 119.112 51.0474 120.758 47.696L113.577 44.1696ZM113.578 44.1346L121.577 44.2027C121.607 40.6606 119.305 37.5205 115.917 36.4845C112.53 35.4484 108.865 36.7632 106.908 39.716L113.578 44.1346ZM111.263 45.4488L106.885 52.1446C106.893 52.1499 106.901 52.1552 106.91 52.1605L111.263 45.4488ZM117.602 47.8766L118.227 45.201L102.647 41.5607L102.022 44.2363L117.602 47.8766ZM117.694 47.4267L117.704 47.3648L101.92 44.7481L101.909 44.81L117.694 47.4267ZM115.745 52.3077C116.418 51.2636 117.367 49.5555 117.709 47.3348L101.895 44.9019C101.97 44.4156 102.1 44.0606 102.187 43.8631C102.27 43.6724 102.329 43.589 102.298 43.6365L115.745 52.3077ZM114.348 54.2197C115.293 53.2157 115.871 52.1659 116.188 51.5281L101.855 44.416C101.881 44.3638 101.947 44.2364 102.06 44.0606C102.168 43.8931 102.374 43.5975 102.697 43.2539L114.348 54.2197ZM114.029 54.5455C114.145 54.4323 114.251 54.3227 114.349 54.2196L102.697 43.254C102.729 43.2198 102.775 43.1728 102.832 43.1162L114.029 54.5455ZM114.02 54.7034C114.255 54.3996 114.594 53.9626 114.926 53.501L101.936 44.1607C101.797 44.3538 101.633 44.5667 101.367 44.9102L114.02 54.7034ZM113.355 55.5934C113.464 55.4275 113.628 55.2095 114.02 54.7034L101.367 44.9102C101.05 45.3198 100.509 46.0125 100.015 46.7585L113.355 55.5934ZM114.019 53.7997C113.899 54.7105 113.577 55.2379 113.571 55.2479L99.7985 47.104C99.1855 48.1408 98.4182 49.7148 98.1554 51.7125L114.019 53.7997ZM111.933 59.9775C113.106 57.9927 113.754 55.8772 114.023 53.7675L98.1512 51.7447C98.1356 51.8669 98.1182 51.9194 98.118 51.9203C98.1176 51.9212 98.1205 51.9126 98.1277 51.8966C98.1349 51.8805 98.145 51.8607 98.1577 51.8391L111.933 59.9775ZM101.732 68.0834C106.058 66.5736 110.003 63.9249 112.214 59.4588L97.8766 52.3578C97.9382 52.2333 98.0008 52.2047 97.8988 52.2846C97.7597 52.3936 97.3517 52.6658 96.4598 52.9771L101.732 68.0834ZM96.7656 69.325C97.3978 69.2803 100.938 69.2365 104.013 66.841L94.1793 54.2196C94.9043 53.6547 95.6013 53.4363 95.9387 53.3598C96.0856 53.3266 96.1573 53.3218 96.0958 53.3285C96.0183 53.3369 95.9146 53.3452 95.6353 53.365L96.7656 69.325ZM96.6243 69.3351L96.7693 69.3248L95.6316 53.3653L95.4867 53.3756L96.6243 69.3351ZM95.3433 69.6051C96.1428 69.4843 96.9231 69.3459 97.6829 69.1881L94.4281 53.5226C93.9798 53.6158 93.4895 53.7036 92.9541 53.7845L95.3433 69.6051ZM97.4823 68.9558C97.3261 69.0355 97.1784 69.1003 97.0431 69.1528L91.2543 54.2367C90.9146 54.3686 90.5654 54.5228 90.211 54.7035L97.4823 68.9558ZM85.9873 70.9514C88.3648 71.0078 92.8902 71.2522 97.4244 68.9851L90.269 54.6743C90.0824 54.7676 89.8073 54.8665 89.2379 54.9258C88.5575 54.9968 87.7799 54.9894 86.3665 54.9559L85.9873 70.9514ZM86.1768 70.9537H86.1769V54.9537H86.1768V70.9537ZM86.1767 70.9537H86.1768V54.9537H86.1767V70.9537ZM86.1765 70.9537H86.1767V54.9537H86.1765V70.9537ZM86.1764 70.9537H86.1765V54.9537H86.1764V70.9537ZM86.1763 70.9537H86.1764V54.9537H86.1763V70.9537ZM86.1762 70.9537H86.1763V54.9537H86.1762V70.9537ZM86.1761 70.9537H86.1762V54.9537H86.1761V70.9537ZM86.176 70.9537H86.1761V54.9537H86.176V70.9537ZM86.1759 70.9537H86.176V54.9537H86.1759V70.9537ZM86.1757 70.9537H86.1759V54.9537H86.1757V70.9537ZM86.1756 70.9537H86.1757V54.9537H86.1756V70.9537ZM86.1755 70.9537H86.1756V54.9537H86.1755V70.9537ZM86.1754 70.9537H86.1755V54.9537H86.1754V70.9537ZM86.1753 70.9537H86.1754V54.9537H86.1753V70.9537ZM86.1751 70.9537H86.1753V54.9537H86.1751V70.9537ZM86.175 70.9537H86.1751V54.9537H86.175V70.9537ZM86.1749 70.9537H86.175V54.9537H86.1749V70.9537ZM86.1748 70.9537H86.1749V54.9537H86.1748V70.9537ZM86.1746 70.9537H86.1748V54.9537H86.1746V70.9537ZM86.1745 70.9537H86.1746V54.9537H86.1745V70.9537ZM86.1744 70.9537H86.1745V54.9537H86.1744V70.9537ZM86.1742 70.9537H86.1744V54.9537H86.1742V70.9537ZM86.1741 70.9537H86.1742V54.9537H86.1741V70.9537ZM86.174 70.9537H86.1741V54.9537H86.174V70.9537ZM86.1738 70.9537H86.174V54.9537H86.1738V70.9537ZM86.1737 70.9537H86.1738V54.9537H86.1737V70.9537ZM86.1735 70.9537H86.1737V54.9537H86.1735V70.9537ZM86.1734 70.9537H86.1735V54.9537H86.1734V70.9537ZM84.4076 70.9258C84.8914 70.9258 85.3853 70.9372 85.9834 70.9514L86.3634 54.9559C85.7953 54.9424 85.1125 54.9258 84.4076 54.9258V70.9258ZM84.3467 70.9258H84.4076V54.9258H84.3467V70.9258ZM82.6971 70.9596C83.343 70.9404 83.8537 70.9258 84.3467 70.9258V54.9258C83.5765 54.9258 82.8286 54.9487 82.2215 54.9667L82.6971 70.9596ZM82.4592 70.9632H82.4593V54.9632H82.4592V70.9632ZM82.4591 70.9632H82.4592V54.9632H82.4591V70.9632ZM82.459 70.9632H82.4591V54.9632H82.459V70.9632ZM82.4589 70.9632H82.459V54.9632H82.4589V70.9632ZM82.4588 70.9632H82.4589V54.9632H82.4588V70.9632ZM82.4587 70.9632H82.4588V54.9632H82.4587V70.9632ZM82.4586 70.9632H82.4587V54.9632H82.4586V70.9632ZM82.4585 70.9632H82.4586V54.9632H82.4585V70.9632ZM82.4584 70.9632H82.4585V54.9632H82.4584V70.9632ZM82.4583 70.9632H82.4584V54.9632H82.4583V70.9632ZM82.4582 70.9632H82.4583V54.9632H82.4582V70.9632ZM82.4581 70.9632H82.4582V54.9632H82.4581V70.9632ZM82.458 70.9632H82.4581V54.9632H82.458V70.9632ZM82.4579 70.9632H82.458V54.9632H82.4579V70.9632ZM82.4578 70.9632H82.4579V54.9632H82.4578V70.9632ZM82.4577 70.9632H82.4578V54.9632H82.4577V70.9632ZM82.4576 70.9632H82.4577V54.9632H82.4576V70.9632ZM82.4574 70.9632H82.4576V54.9632H82.4574V70.9632ZM82.4574 70.9632H82.4574V54.9632H82.4574V70.9632ZM82.4573 70.9632H82.4574V54.9632H82.4573V70.9632ZM82.4572 70.9632H82.4573V54.9632H82.4572V70.9632ZM82.4571 70.9632H82.4572V54.9632H82.4571V70.9632ZM82.457 70.9632H82.4571V54.9632H82.457V70.9632ZM82.4569 70.9632H82.457V54.9632H82.4569V70.9632ZM82.4568 70.9632H82.4569V54.9632H82.4568V70.9632ZM82.4567 70.9632H82.4568V54.9632H82.4567V70.9632ZM82.4566 70.9632H82.4567V54.9632H82.4566V70.9632ZM82.4565 70.9632H82.4566V54.9632H82.4565V70.9632ZM71.33 69.046C75.8488 71.3054 80.4012 71.0277 82.694 70.9597L82.2191 54.9667C80.8413 55.0076 80.0842 55.0189 79.4232 54.9535C78.868 54.8985 78.6251 54.805 78.4854 54.7352L71.33 69.046ZM71.5407 69.1389C71.4214 69.0889 71.2929 69.029 71.1581 68.9574L78.6573 54.8237C78.3426 54.6567 78.0314 54.5108 77.7269 54.3832L71.5407 69.1389ZM70.2904 69.1136C71.3312 69.3398 72.4114 69.5284 73.5281 69.6843L75.7395 53.8378C74.9719 53.7307 74.2907 53.6095 73.6878 53.4785L70.2904 69.1136ZM66.9003 68.1115C68.6242 68.9246 70.2317 69.1461 71.0693 69.243L72.9089 53.3491C72.7743 53.3335 72.8188 53.3331 72.9499 53.3637C73.0934 53.3971 73.3749 53.4748 73.7262 53.6405L66.9003 68.1115ZM54.4373 54.2097C54.903 57.603 56.3141 60.8497 58.98 63.5129C61.5279 66.0582 64.7505 67.6003 68.1017 68.5643L72.5248 53.1878C70.8194 52.6972 70.3231 52.2285 70.288 52.1935C70.2817 52.1872 70.3133 52.2223 70.3369 52.272C70.3557 52.3117 70.3191 52.2561 70.2886 52.034L54.4373 54.2097ZM54.1864 54.7034C54.4118 54.9946 54.5603 55.1873 54.6901 55.3643C54.8155 55.5353 54.8659 55.6144 54.8768 55.6323C54.8883 55.6511 54.8187 55.5418 54.73 55.3257C54.6394 55.1051 54.5059 54.718 54.435 54.1932L70.2909 52.0505C70.0045 49.9313 69.1377 48.284 68.5267 47.2849C67.9182 46.2899 67.2066 45.3849 66.8392 44.9102L54.1864 54.7034ZM50.7749 48.1083C51.4539 51.4493 53.7124 54.091 54.1864 54.7034L66.8392 44.9102C66.7332 44.7734 66.6441 44.6582 66.5583 44.546C66.474 44.4357 66.4032 44.3417 66.3413 44.2576C66.2137 44.0843 66.1501 43.9885 66.1224 43.9442C66.0945 43.8996 66.135 43.9577 66.1992 44.1018C66.2645 44.2483 66.3743 44.528 66.4544 44.9218L50.7749 48.1083ZM50.6195 47.3348C50.6959 47.8313 50.8029 48.2992 50.9291 48.7359L66.3002 44.2942C66.3506 44.4686 66.3981 44.6721 66.4335 44.9019L50.6195 47.3348ZM50.625 47.3712L50.6344 47.4278L66.4186 44.8089L66.4092 44.7523L50.625 47.3712ZM49.9109 44.3892L50.7269 47.8819L66.3073 44.2416L65.4912 40.7489L49.9109 44.3892ZM61.1384 52.1446C63.8984 50.34 64.7621 47.5696 65.0025 46.7804C65.3599 45.6075 65.5354 44.4133 65.6422 43.5372L49.7598 41.6009C49.6837 42.2255 49.6392 42.3076 49.6971 42.1175C49.7306 42.0074 49.8602 41.5973 50.1703 41.0619C50.4734 40.5387 51.1395 39.5657 52.3824 38.753L61.1384 52.1446ZM47.7771 48.5533C48.3309 49.3892 49.4691 50.9827 51.2989 52.1495C52.3069 52.7923 53.8129 53.49 55.7273 53.5992C57.7535 53.7149 59.6138 53.1335 61.1139 52.1605L52.4069 38.7371C53.5257 38.0114 55.0004 37.5317 56.6391 37.6253C58.1659 37.7124 59.2824 38.2641 59.9014 38.6589C60.9533 39.3296 61.3156 40.0187 61.1151 39.716L47.7771 48.5533ZM62.4461 44.1008L62.4458 44.0659L46.4464 44.2035L46.4467 44.2384L62.4461 44.1008ZM47.177 47.5129L47.2402 47.644L61.6525 40.6952L61.5893 40.5641L47.177 47.5129ZM44.8425 42.7062C45.3686 43.9406 46.4018 46.4264 47.6631 48.3791L61.1032 39.6979C60.7391 39.1342 60.2525 38.0545 59.5611 36.4324L44.8425 42.7062ZM44.7111 42.3783L44.7111 42.3783L59.6924 36.7603L59.6924 36.7603L44.7111 42.3783ZM44.6434 42.2403C44.7057 42.3854 44.7708 42.538 44.8424 42.7062L59.5611 36.4324C59.4909 36.2677 59.4182 36.0972 59.3471 35.9315L44.6434 42.2403ZM43.9722 40.8659L44.7891 42.5603L59.2014 35.6115L58.3845 33.9171L43.9722 40.8659ZM45.2487 42.7473C44.9389 42.4154 44.7292 42.1292 44.6185 41.9706L57.7382 32.8124C57.5703 32.5718 57.3063 32.2167 56.9453 31.8299L45.2487 42.7473ZM42.7525 40.4142C43.3535 40.9587 43.9039 41.4575 44.3759 41.8975C44.6091 42.1149 44.8019 42.2982 44.9553 42.4481C45.031 42.5222 45.0901 42.5812 45.1345 42.6266C45.1802 42.6732 45.1999 42.6946 45.1997 42.6944L56.9942 31.8828C56.0828 30.8886 54.5162 29.4819 53.4946 28.5564L42.7525 40.4142ZM37.7244 34.7529C38.1636 35.7193 38.7075 36.4027 38.8583 36.593C39.0989 36.8968 39.3318 37.1552 39.5014 37.3373C39.8451 37.7064 40.2222 38.0753 40.5488 38.3868C41.2113 39.0188 42.0338 39.7631 42.7525 40.4142L53.4946 28.5564C52.7246 27.8589 52.0739 27.2686 51.5929 26.8097C51.4794 26.7015 51.389 26.6135 51.3192 26.544C51.2849 26.5098 51.2586 26.4832 51.2394 26.4634C51.2199 26.4434 51.2112 26.4341 51.2116 26.4345C51.212 26.4349 51.2158 26.439 51.2225 26.4464C51.2292 26.4538 51.24 26.4658 51.2542 26.4821C51.2801 26.5118 51.3317 26.5718 51.3995 26.6574C51.4629 26.7374 51.5755 26.8837 51.7083 27.0829C51.826 27.2592 52.0597 27.625 52.2902 28.1321L37.7244 34.7529ZM54.5653 11.4165C52.5671 12.4008 50.5698 13.9965 49.0596 15.3014C47.3971 16.738 45.6892 18.3868 44.1773 19.9398C42.6686 21.4895 41.2547 23.0471 40.1917 24.3294C39.6802 24.9464 39.1335 25.6392 38.684 26.3051C38.4812 26.6057 38.1297 27.1459 37.8186 27.8082C37.6709 28.1225 37.3921 28.7553 37.2042 29.5848C37.076 30.1508 36.6151 32.3127 37.7244 34.7529L52.2902 28.1321C53.3804 30.5305 52.9193 32.632 52.8088 33.12C52.6385 33.8717 52.3952 34.4091 52.3001 34.6116C52.1817 34.8635 52.0795 35.0395 52.0343 35.1153C51.9834 35.2008 51.9501 35.25 51.9462 35.2559C51.941 35.2634 51.9823 35.2027 52.0911 35.0614C52.1946 34.9271 52.3334 34.7533 52.5099 34.5402C53.2358 33.6645 54.3491 32.4285 55.6417 31.1008C56.9311 29.7764 58.2984 28.464 59.5209 27.4077C60.1312 26.8803 60.6555 26.4601 61.0778 26.151C61.537 25.815 61.7093 25.7333 61.6349 25.77L54.5653 11.4165ZM74.7168 21.8517C75.4154 21.0533 76.5597 19.4158 76.7031 17.0172C76.8593 14.4017 75.7476 12.3697 74.6459 11.1465C72.9553 9.26957 70.8867 8.77639 70.6809 8.71994C69.5667 8.41448 68.5386 8.3802 68.1211 8.3694C66.9898 8.34011 65.6756 8.43405 64.3656 8.60616C61.7458 8.95037 58.1336 9.74094 54.7024 11.3507L61.4979 25.8359C62.9993 25.1315 64.8983 24.6737 66.4499 24.4698C66.8117 24.4223 67.1171 24.3936 67.3526 24.3783C67.6006 24.3621 67.7153 24.3643 67.707 24.364C67.7025 24.3639 67.6125 24.3619 67.4589 24.3456C67.3477 24.3339 66.9641 24.2914 66.4503 24.1505C66.1909 24.0794 65.7355 23.9396 65.1946 23.6805C64.7207 23.4535 63.7148 22.9175 62.7574 21.8546C61.678 20.6562 60.5769 18.6505 60.7315 16.0628C60.8732 13.6919 62.0036 12.0836 62.6756 11.3156L74.7168 21.8517ZM73.83 22.7191L73.8313 22.718L63.5611 10.4493L63.5597 10.4504L73.83 22.7191ZM74.8479 21.7018C74.9213 21.6082 74.9614 21.5578 74.9621 21.5569L62.4276 11.6127C62.412 11.6324 62.3559 11.7031 62.2653 11.8185L74.8479 21.7018ZM84.4686 7C77.369 7 71.3183 7.64101 66.3446 9.07204L70.7686 24.4483C73.7759 23.583 78.1932 23 84.4686 23V7ZM101.325 8.76146C96.6516 7.55002 91.0438 7 84.4686 7V23C90.2621 23 94.406 23.4967 97.3104 24.2496L101.325 8.76146ZM113.321 11.3507C110.081 9.83061 106.689 9.04528 104.144 8.67353C102.853 8.48506 101.61 8.37807 100.539 8.36536C100.033 8.35935 99.3646 8.37112 98.6633 8.45974C98.3344 8.5013 97.7419 8.5902 97.0549 8.80415C96.8209 8.87702 94.6068 9.48938 92.9555 11.6556L105.68 21.3555C104.754 22.5705 103.71 23.2129 103.184 23.4988C102.601 23.8163 102.101 23.9907 101.812 24.0805C101.243 24.258 100.806 24.3162 100.669 24.3335C100.352 24.3736 100.21 24.3626 100.349 24.3642C100.568 24.3668 101.088 24.397 101.832 24.5056C103.355 24.7281 105.121 25.1769 106.526 25.8359L113.321 11.3507ZM130.299 34.753C131.408 32.3127 130.948 30.1508 130.819 29.5848C130.631 28.7553 130.353 28.1225 130.205 27.8082C129.894 27.1459 129.542 26.6057 129.339 26.3051C128.89 25.6392 128.343 24.9464 127.832 24.3294C126.769 23.0471 125.355 21.4895 123.846 19.9398C122.334 18.3868 120.626 16.738 118.964 15.3014C117.454 13.9965 115.456 12.4008 113.458 11.4165L106.389 25.77C106.314 25.7333 106.487 25.815 106.946 26.151C107.368 26.4601 107.892 26.8803 108.503 27.4077C109.725 28.464 111.092 29.7764 112.382 31.1008C113.674 32.4285 114.788 33.6645 115.514 34.5402C115.69 34.7533 115.829 34.9271 115.932 35.0614C116.041 35.2027 116.082 35.2634 116.077 35.2559C116.073 35.25 116.04 35.2008 115.989 35.1153C115.944 35.0395 115.842 34.8635 115.723 34.6116C115.628 34.4091 115.385 33.8716 115.215 33.12C115.104 32.6319 114.643 30.5304 115.733 28.132L130.299 34.753ZM125.271 40.4142C125.99 39.7631 126.812 39.0188 127.475 38.3868C127.801 38.0753 128.178 37.7064 128.522 37.3373C128.692 37.1552 128.925 36.8968 129.165 36.593C129.316 36.4027 129.86 35.7193 130.299 34.7529L115.733 28.1321C115.964 27.625 116.198 27.2592 116.315 27.0829C116.448 26.8837 116.561 26.7375 116.624 26.6574C116.692 26.5719 116.743 26.5118 116.769 26.4822C116.784 26.4658 116.794 26.4538 116.801 26.4464C116.808 26.439 116.812 26.4349 116.812 26.4345C116.812 26.4341 116.804 26.4434 116.784 26.4634C116.765 26.4832 116.739 26.5098 116.704 26.544C116.635 26.6135 116.544 26.7015 116.431 26.8097C115.95 27.2686 115.299 27.8589 114.529 28.5564L125.271 40.4142ZM122.824 42.6944C122.824 42.6946 122.843 42.6731 122.889 42.6266C122.933 42.5812 122.993 42.5222 123.068 42.4481C123.222 42.2982 123.414 42.1149 123.648 41.8975C124.12 41.4575 124.67 40.9587 125.271 40.4142L114.529 28.5564C113.507 29.4819 111.941 30.8886 111.029 31.8828L122.824 42.6944ZM122.824 42.6939L122.833 42.6843L111.02 31.8929L111.011 31.9024L122.824 42.6939ZM122.937 42.5681L122.948 42.5553L110.888 32.041L110.877 32.0539L122.937 42.5681ZM116.927 29.3492C118.742 29.3492 120.104 29.9591 120.837 30.3703C121.596 30.7954 122.126 31.2561 122.419 31.5333C122.995 32.0769 123.355 32.5833 123.488 32.7731C123.788 33.2042 123.976 33.569 124.022 33.6575C124.151 33.9065 124.236 34.1054 124.245 34.1243L109.569 40.4977C109.588 40.5419 109.682 40.7599 109.818 41.0216C109.867 41.1165 110.058 41.4861 110.36 41.9204C110.494 42.1117 110.855 42.6194 111.432 43.1638C111.633 43.3538 113.621 45.3492 116.927 45.3492V29.3492ZM122.907 43.3203L124.107 40.8755L109.746 33.8228L108.545 36.2676L122.907 43.3203ZM120.369 48.3652C121.573 46.4982 122.552 44.1812 123.084 42.934L108.368 36.6539C107.719 38.1743 107.255 39.1782 106.921 39.6962L120.369 48.3652ZM120.758 47.696L120.826 47.5571L106.465 40.5042L106.396 40.6432L120.758 47.696ZM105.578 44.0666L105.578 44.1016L121.577 44.2376L121.577 44.2027L105.578 44.0666ZM106.91 52.1605C108.41 53.1335 110.27 53.7149 112.296 53.5992C114.211 53.4899 115.717 52.7922 116.725 52.1494C118.554 50.9826 119.693 49.3891 120.247 48.5532L106.908 39.716C106.708 40.0187 107.07 39.3296 108.122 38.6589C108.741 38.2642 109.858 37.7124 111.384 37.6253C113.023 37.5317 114.498 38.0114 115.617 38.7371L106.91 52.1605ZM102.544 44.6837C102.667 45.4299 102.877 46.4868 103.291 47.5695C103.634 48.4677 104.569 50.6301 106.885 52.1446L115.641 38.753C116.654 39.415 117.278 40.1814 117.628 40.702C117.976 41.2201 118.158 41.6513 118.238 41.8609C118.383 42.2422 118.383 42.3975 118.33 42.078L102.544 44.6837Z" fill="white" mask="url(#path-2-outside-1)"/>
<path d="M110.289 29.9806C110.167 27.3012 110.532 24.9262 109.315 22.9166C106.391 17.9231 99.0838 15 84.4686 15V15.4263H84.1641H84.4686V15C69.8533 15 62.1803 17.9231 59.2572 22.9775C58.1002 25.048 58.222 27.3621 58.0393 30.0415C57.9175 32.1729 56.9431 34.4261 57.3694 36.862C57.8566 40.0286 58.0393 43.1953 58.5265 46.1183C58.8918 48.4933 62.1803 50.5029 62.4848 52.7561C63.3373 58.9676 69.7924 61.8297 84.4077 61.8297V62.3169H84.0423H84.4686V61.8297C99.0838 61.8297 105.295 58.9676 106.087 52.7561C106.391 50.442 109.436 48.4933 109.802 46.1183C110.289 43.1953 110.472 40.0286 110.959 36.862C111.385 34.4261 110.411 32.112 110.289 29.9806V29.9806Z" fill="#EFCCA3"/>
<path d="M84.2248 32.1733C86.8434 32.2342 88.6703 33.8785 90.3754 35.4009C92.385 37.1669 95.7952 38.3848 97.1959 39.9072C98.5965 41.4297 100.423 42.9521 101.093 45.3271C101.763 47.7021 101.946 50.7469 101.946 51.5386C101.946 52.3302 102.372 52.1475 103.59 51.5386C106.452 50.1379 109.619 46.3623 109.619 46.3623C109.253 48.7373 106.148 50.8687 105.843 53.1219C105.112 59.3334 99.0837 62.3173 84.1639 62.3173H84.103H84.4684" fill="#CCAC8D"/>
<path d="M93.8467 27.4231C94.3948 29.3109 96.3435 35.7051 92.5679 33.5737C92.5679 33.5737 94.1512 34.4872 95.1255 37.9583C96.1608 41.4294 98.6576 41.8557 98.6576 41.8557C98.6576 41.8557 102.738 42.6474 105.783 40.0288C108.34 37.8365 108.766 33.9391 107.67 30.9552C106.574 28.0321 104.625 27.1187 101.763 26.5097C98.9012 25.8398 93.1768 25.2917 93.8467 27.4231V27.4231Z" fill="#CCAC8D"/>
<path d="M101.094 39.7242C104.053 39.7242 106.452 37.3249 106.452 34.3653C106.452 31.4056 104.053 29.0063 101.094 29.0063C98.1339 29.0063 95.7346 31.4056 95.7346 34.3653C95.7346 37.3249 98.1339 39.7242 101.094 39.7242Z" fill="black"/>
<path d="M99.6929 33.3909C100.466 33.3909 101.094 32.7638 101.094 31.9902C101.094 31.2167 100.466 30.5896 99.6929 30.5896C98.9193 30.5896 98.2922 31.2167 98.2922 31.9902C98.2922 32.7638 98.9193 33.3909 99.6929 33.3909Z" fill="white"/>
<path d="M92.9329 34.1218C92.9329 34.1218 97.7438 37.4103 100.362 40.6378C102.981 43.8653 102.92 44.4743 102.92 44.4743L101.032 45.3269C101.032 45.3269 98.3528 40.2724 95.0643 38.3846C91.715 36.4968 91.3496 34.9135 91.3496 34.9135L92.9329 34.1218V34.1218Z" fill="#EFCCA3"/>
<path d="M84.4077 32.1733C81.7891 32.2342 79.8404 33.8785 78.0744 35.4009C76.0648 37.1669 72.5328 38.3848 71.1322 39.9072C69.7315 41.4297 67.8437 42.9521 67.1739 45.3271C66.504 47.7021 66.2604 50.7469 66.2604 51.5386C66.2604 52.3302 66.3822 52.3911 64.6162 51.5386C61.754 50.1988 58.5874 46.3623 58.5874 46.3623C58.9528 48.7373 62.0585 50.8687 62.363 53.1219C63.2156 59.3334 69.2444 62.3173 84.1641 62.3173H84.4686" fill="#CCAC8D"/>
<path d="M98.5358 42.4645C95.6128 38.8715 90.9237 35.5222 84.4077 35.5222H84.3468C77.8309 35.5222 73.1418 38.8715 70.2187 42.4645C67.1739 46.1792 67.4175 47.6407 67.4175 51.1727C67.4175 63.9611 71.9238 60.3073 74.9078 61.8906C77.9526 63.413 81.1193 62.9258 84.3468 62.9258H84.4077C87.6962 62.9258 90.8019 63.3521 93.8467 61.8297C96.8307 60.3073 101.337 64.0829 101.337 51.2945C101.398 47.7625 101.581 46.1792 98.5358 42.4645V42.4645Z" fill="#56332B"/>
<path d="M84.1031 38.689C84.1031 38.689 83.6768 44.596 82.8242 45.753L84.4075 45.3876L84.1031 38.689Z" fill="black"/>
<path d="M84.5293 38.689C84.5293 38.689 84.9556 44.596 85.8082 45.753L84.2249 45.3876L84.5293 38.689Z" fill="black"/>
<path d="M79.4141 37.2884C78.8051 35.8878 80.9974 33.6346 84.4685 33.5737C87.9396 33.5737 90.1319 35.8269 89.523 37.2884C88.914 38.75 86.7217 39.1762 84.4685 39.2371C82.2762 39.1762 80.023 38.75 79.4141 37.2884V37.2884Z" fill="#56332B"/>
<path d="M84.4686 38.6888C84.4686 38.4452 86.5391 38.3843 87.6352 37.6535C87.6352 37.6535 85.3821 38.3843 84.8949 38.0798C84.4077 37.8362 84.2859 37.1055 84.2859 37.1055C84.2859 37.1055 84.1032 37.8362 83.7378 38.0798C83.3116 38.3234 80.7539 37.6535 80.7539 37.6535C80.7539 37.6535 84.1641 38.5061 84.1641 38.6888C84.1641 38.8715 84.1032 39.4804 84.1032 39.9067C84.1032 41.4292 84.1032 45.2048 84.3468 45.5092C84.7122 46.0573 84.5904 41.4292 84.5904 39.9067C84.5295 39.4196 84.5295 38.9324 84.4686 38.6888V38.6888Z" fill="black"/>
<path d="M84.5903 46.8491C85.6256 46.8491 87.4525 47.5798 89.0967 48.7369C87.5134 46.9709 85.6256 45.7529 84.5903 45.7529C83.4942 45.7529 81.1801 47.0927 79.5359 49.0414C81.241 47.7016 83.4333 46.8491 84.5903 46.8491Z" fill="#7B483F"/>
<path d="M84.1641 57.6277C81.8501 57.6277 79.5969 56.8969 77.5264 56.3488C77.1001 56.227 76.6738 56.5315 76.2475 56.4097C72.411 55.1918 69.3053 53.1213 67.4175 50.5027V51.1117C67.4175 63.9001 71.9239 60.3071 74.9078 61.8296C77.9526 63.352 81.1193 62.8648 84.3468 62.8648H84.4077C87.6962 62.8648 90.8019 63.2911 93.8467 61.7687C96.8307 60.2462 101.337 63.961 101.337 51.1726C101.337 50.6854 101.337 50.1983 101.398 49.772C99.632 52.6341 96.4044 54.8873 92.3852 56.227C92.0198 56.3488 91.1673 56.0444 90.8019 56.1053C88.6096 56.836 86.6609 57.6277 84.1641 57.6277V57.6277Z" fill="#442823"/>
<path d="M78.3788 50.7463C78.3788 50.7463 76.8563 55.3136 77.8916 57.3232L76.491 56.7142C76.491 56.7142 77.5262 52.0861 78.3788 50.7463V50.7463ZM90.4364 50.7463C90.4364 50.7463 91.9588 55.3136 90.9235 57.3232L92.3242 56.7142C92.3242 56.7142 91.228 52.0861 90.4364 50.7463Z" fill="#442823"/>
<path d="M74.4816 27.4231C73.9335 29.3109 71.9848 35.7051 75.7604 33.5737C75.7604 33.5737 74.1771 34.4872 73.2028 37.9583C72.2284 41.4294 69.6707 41.8557 69.6707 41.8557C69.6707 41.8557 65.5906 42.6474 62.5458 40.0288C59.9881 37.8365 59.5618 33.9391 60.658 30.9552C61.7541 27.9712 63.7028 27.1187 66.565 26.5097C69.4271 25.8398 75.0906 25.2917 74.4816 27.4231V27.4231Z" fill="#CCAC8D"/>
<path d="M84.4076 45.753C86.0518 45.753 91.1672 49.2851 91.2281 53.6087V53.3652C91.2281 48.8588 87.0871 45.2659 84.4076 45.2659C81.7281 45.2659 77.5872 48.9197 77.5872 53.3652V53.6087C77.6481 49.2851 82.7634 45.753 84.4076 45.753Z" fill="black"/>
<path d="M85.7369 37.3214C85.9974 37.2542 86.1065 36.8037 85.9805 36.3152C85.8545 35.8267 85.5411 35.4852 85.2806 35.5524C85.02 35.6196 84.911 36.0701 85.037 36.5586C85.163 37.0471 85.4764 37.3886 85.7369 37.3214Z" fill="black"/>
<path d="M82.6069 37.3123C82.8638 37.392 83.1933 37.0661 83.3428 36.5842C83.4923 36.1024 83.4051 35.6472 83.1482 35.5674C82.8912 35.4877 82.5617 35.8137 82.4122 36.2955C82.2627 36.7774 82.3499 37.2326 82.6069 37.3123Z" fill="black"/>
<path d="M67.5391 39.7242C70.4988 39.7242 72.898 37.3249 72.898 34.3653C72.898 31.4056 70.4988 29.0063 67.5391 29.0063C64.5795 29.0063 62.1802 31.4056 62.1802 34.3653C62.1802 37.3249 64.5795 39.7242 67.5391 39.7242Z" fill="black"/>
<path d="M68.9397 33.3909C69.7132 33.3909 70.3403 32.7638 70.3403 31.9902C70.3403 31.2167 69.7132 30.5896 68.9397 30.5896C68.1661 30.5896 67.5391 31.2167 67.5391 31.9902C67.5391 32.7638 68.1661 33.3909 68.9397 33.3909Z" fill="white"/>
<path d="M85.9907 34.4258C85.9907 34.3649 84.5901 35.0348 84.2247 35.0956C83.8594 35.0348 82.4587 34.3649 82.4587 34.4258H85.9907Z" fill="#7B483F"/>
<path d="M75.3339 34.1218C75.3339 34.1218 70.523 37.4103 67.9045 40.6378C65.2859 43.8653 65.3468 44.4743 65.3468 44.4743L67.2346 45.3269C67.2346 45.3269 69.9141 40.2724 73.2025 38.3846C76.4909 36.4968 76.9172 34.9135 76.9172 34.9135L75.3339 34.1218Z" fill="#EFCCA3"/>
<path d="M64.7988 24.3782C64.7988 24.3782 63.1545 28.8846 59.5007 30.7724C59.5007 30.7724 65.225 30.1025 64.7988 24.3782ZM103.225 24.3782C103.225 24.3782 104.869 28.8846 108.523 30.7724C108.523 30.7724 102.798 30.1025 103.225 24.3782ZM92.8113 32.782C92.8113 32.782 89.2184 29.0064 84.4076 28.8846H84.4685H84.5294C79.6576 29.0064 76.1256 32.782 76.1256 32.782C80.3275 29.8589 83.9204 29.9198 84.5294 29.9198C84.4685 29.9198 88.6095 29.8589 92.8113 32.782V32.782ZM88.6095 24.8654C88.6095 24.8654 86.7826 22.3077 84.3467 22.2468H84.4685C82.6416 22.3077 80.2666 24.8654 80.2666 24.8654C82.3371 22.8558 84.4685 22.9167 84.4685 22.9167C84.4685 22.9167 86.4781 22.8558 88.6095 24.8654ZM67.5391 43.5608C67.5391 43.5608 64.677 44.9614 62.6065 44.1088H62.5456C60.7187 43.0736 59.8052 39.9678 59.8052 39.9678C59.8052 39.9678 61.6321 45.4486 67.5391 43.5608V43.5608ZM100.911 43.5608C100.911 43.5608 103.773 44.9614 105.843 44.1088C108.279 43.0736 108.645 39.9678 108.645 39.9678C108.645 39.9678 106.818 45.4486 100.911 43.5608V43.5608Z" fill="#CCAC8D"/>
<path d="M70.8276 24.0736C72.4109 23.7691 75.0295 23.7082 77.1 24.3781C79.7186 25.2915 77.5872 28.6408 78.1352 28.8235C78.6833 29.0062 79.4141 26.5095 84.2858 26.753C89.2185 26.9966 89.7666 29.1889 90.4364 28.8235C91.1063 28.4582 89.7666 22.7338 97.1351 24.0736C97.1351 24.0736 89.4012 22.0031 89.7666 27.6056C89.7666 27.6056 85.3211 24.1954 79.1096 27.2402C79.1705 27.2402 80.7538 22.0031 70.8276 24.0736V24.0736ZM97.805 24.0736C97.9267 24.0736 97.9876 24.1345 98.0485 24.1345C98.1094 24.1345 97.9876 24.0736 97.805 24.0736ZM68.6962 16.5833C68.6962 16.5833 62.1193 24.8652 61.145 28.0319C60.1706 31.2594 59.4399 44.474 58.5873 46.3619L55.5425 33.3299L61.145 19.7499L68.6962 16.5833V16.5833ZM99.6319 16.5833C99.6319 16.5833 106.209 24.8652 107.183 28.0319C108.157 31.2594 108.888 44.474 109.741 46.3619L112.786 33.3299L107.183 19.7499L99.6319 16.5833V16.5833Z" fill="#CCAC8D"/>
<path d="M99.3276 16.5836C99.3276 16.5836 106.392 22.4906 108.462 29.3111C110.533 36.1315 109.68 44.4135 111.263 45.4487C113.517 46.9103 116.074 38.202 116.927 37.2886C118.267 35.827 122.712 32.1123 123.016 31.4425C123.321 30.7726 114.004 20.6028 109.924 18.5932C104.991 16.2791 98.9013 16.0964 99.3276 16.5836V16.5836Z" fill="#56332B"/>
<path d="M105.356 20.2371C105.356 20.2371 113.699 30.894 113.577 44.1695L116.927 37.3491C116.866 37.3491 113.943 28.6408 105.356 20.2371V20.2371Z" fill="#442823"/>
<path d="M68.6962 16.5836C68.6962 16.5836 61.6321 22.4906 59.5617 29.3111C57.4912 36.1315 58.3437 44.4135 56.7604 45.4487C54.5072 46.9103 51.9495 38.202 51.097 37.2886C49.7572 35.827 45.3118 32.1123 45.0073 31.4425C44.7028 30.7726 54.02 20.6028 58.1001 18.5932C63.0328 16.2791 69.1225 16.0964 68.6962 16.5836V16.5836Z" fill="#56332B"/>
<path d="M62.6675 20.2371C62.6675 20.2371 54.3246 30.894 54.4464 44.1695L51.158 37.3491C51.158 37.3491 54.081 28.6408 62.6675 20.2371Z" fill="#442823"/>
<path d="M58.1611 44.4131C58.1611 44.4131 58.7701 47.7015 59.7445 48.7368C60.7188 49.772 60.0489 47.9451 60.0489 47.9451C60.0489 47.9451 59.0137 47.397 59.1964 43.1951C59.3791 38.9933 58.1611 44.4131 58.1611 44.4131V44.4131ZM110.106 44.4131C110.106 44.4131 109.497 47.7015 108.523 48.7368C107.549 49.772 108.218 47.9451 108.218 47.9451C108.218 47.9451 109.254 47.397 109.071 43.1951C108.888 38.9933 110.106 44.4131 110.106 44.4131V44.4131Z" fill="#CCAC8D"/>
<path d="M78.0743 42.4033C78.3434 42.4033 78.5615 42.1852 78.5615 41.9161C78.5615 41.6471 78.3434 41.429 78.0743 41.429C77.8053 41.429 77.5872 41.6471 77.5872 41.9161C77.5872 42.1852 77.8053 42.4033 78.0743 42.4033Z" fill="#442823"/>
<path d="M75.2733 45.3266C75.5424 45.3266 75.7605 45.1085 75.7605 44.8395C75.7605 44.5704 75.5424 44.3523 75.2733 44.3523C75.0043 44.3523 74.7861 44.5704 74.7861 44.8395C74.7861 45.1085 75.0043 45.3266 75.2733 45.3266Z" fill="#442823"/>
<path d="M74.3597 42.4036C74.6288 42.4036 74.8469 42.1854 74.8469 41.9164C74.8469 41.6473 74.6288 41.4292 74.3597 41.4292C74.0907 41.4292 73.8726 41.6473 73.8726 41.9164C73.8726 42.1854 74.0907 42.4036 74.3597 42.4036Z" fill="#442823"/>
<path d="M89.9491 42.4036C90.2182 42.4036 90.4363 42.1854 90.4363 41.9164C90.4363 41.6473 90.2182 41.4292 89.9491 41.4292C89.68 41.4292 89.4619 41.6473 89.4619 41.9164C89.4619 42.1854 89.68 42.4036 89.9491 42.4036Z" fill="#442823"/>
<path d="M92.7506 45.3266C93.0197 45.3266 93.2378 45.1085 93.2378 44.8395C93.2378 44.5704 93.0197 44.3523 92.7506 44.3523C92.4815 44.3523 92.2634 44.5704 92.2634 44.8395C92.2634 45.1085 92.4815 45.3266 92.7506 45.3266Z" fill="#442823"/>
<path d="M93.6637 42.4033C93.9327 42.4033 94.1509 42.1852 94.1509 41.9161C94.1509 41.6471 93.9327 41.429 93.6637 41.429C93.3946 41.429 93.1765 41.6471 93.1765 41.9161C93.1765 42.1852 93.3946 42.4033 93.6637 42.4033Z" fill="#442823"/>
</g>
<defs>
<filter id="filter0_d" x="37" y="7" width="94.0236" height="68.0071" filterUnits="userSpaceOnUse" color-interpolation-filters="sRGB">
<feFlood flood-opacity="0" result="BackgroundImageFix"/>
<feColorMatrix in="SourceAlpha" type="matrix" values="0 0 0 0 0 0 0 0 0 0 0 0 0 0 0 0 0 0 127 0"/>
<feOffset dy="4"/>
<feColorMatrix type="matrix" values="0 0 0 0 0 0 0 0 0 0 0 0 0 0 0 0 0 0 0.2 0"/>
<feBlend mode="normal" in2="BackgroundImageFix" result="effect1_dropShadow"/>
<feBlend mode="normal" in="SourceGraphic" in2="effect1_dropShadow" result="shape"/>
</filter>
</defs>
</svg>
