<svg width="168" height="120" viewBox="0 0 168 120" fill="none" xmlns="http://www.w3.org/2000/svg">
<path d="M59.2134 102V91.504H62.4934C63.0268 91.504 63.5174 91.5573 63.9654 91.664C64.4241 91.76 64.8134 91.9253 65.1334 92.16C65.4641 92.3947 65.7201 92.6987 65.9014 93.072C66.0828 93.4453 66.1734 93.904 66.1734 94.448C66.1734 95.2693 65.9601 95.9253 65.5334 96.416C65.1068 96.9067 64.5308 97.2427 63.8054 97.424L66.4774 102H64.9734L62.4454 97.568H60.5414V102H59.2134ZM60.5414 96.48H62.3014C63.1228 96.48 63.7521 96.3147 64.1894 95.984C64.6268 95.6427 64.8454 95.1307 64.8454 94.448C64.8454 93.7547 64.6268 93.2693 64.1894 92.992C63.7521 92.7147 63.1228 92.576 62.3014 92.576H60.5414V96.48ZM71.1906 102.192C70.6679 102.192 70.1772 102.101 69.7186 101.92C69.2706 101.728 68.8759 101.461 68.5346 101.12C68.2039 100.768 67.9426 100.341 67.7506 99.84C67.5586 99.3387 67.4626 98.768 67.4626 98.128C67.4626 97.488 67.5586 96.9173 67.7506 96.416C67.9532 95.904 68.2146 95.472 68.5346 95.12C68.8652 94.768 69.2386 94.5013 69.6546 94.32C70.0706 94.128 70.5026 94.032 70.9506 94.032C71.4412 94.032 71.8786 94.1173 72.2626 94.288C72.6572 94.4587 72.9826 94.704 73.2386 95.024C73.5052 95.344 73.7079 95.728 73.8466 96.176C73.9852 96.624 74.0546 97.1253 74.0546 97.68C74.0546 97.8187 74.0492 97.9573 74.0386 98.096C74.0386 98.224 74.0279 98.336 74.0066 98.432H68.7586C68.8119 99.264 69.0679 99.9253 69.5266 100.416C69.9959 100.896 70.6039 101.136 71.3506 101.136C71.7239 101.136 72.0652 101.083 72.3746 100.976C72.6946 100.859 72.9986 100.709 73.2866 100.528L73.7506 101.392C73.4092 101.605 73.0306 101.792 72.6146 101.952C72.1986 102.112 71.7239 102.192 71.1906 102.192ZM68.7426 97.488H72.9026C72.9026 96.6987 72.7319 96.1013 72.3906 95.696C72.0599 95.28 71.5906 95.072 70.9826 95.072C70.7052 95.072 70.4386 95.1253 70.1826 95.232C69.9372 95.3387 69.7132 95.4987 69.5106 95.712C69.3079 95.9147 69.1372 96.1653 68.9986 96.464C68.8706 96.7627 68.7852 97.104 68.7426 97.488ZM77.5493 102.192C76.8986 102.192 76.3546 102 75.9173 101.616C75.4906 101.232 75.2773 100.688 75.2773 99.984C75.2773 99.1307 75.656 98.48 76.4133 98.032C77.1706 97.5733 78.3813 97.2533 80.0453 97.072C80.0453 96.8267 80.0186 96.5867 79.9653 96.352C79.9226 96.1173 79.8426 95.9093 79.7253 95.728C79.608 95.5467 79.4426 95.4027 79.2293 95.296C79.0266 95.1787 78.7653 95.12 78.4453 95.12C77.9973 95.12 77.576 95.2053 77.1813 95.376C76.7866 95.5467 76.4346 95.7387 76.1253 95.952L75.6133 95.04C75.976 94.8053 76.4186 94.5813 76.9413 94.368C77.464 94.144 78.04 94.032 78.6693 94.032C79.6186 94.032 80.3066 94.3253 80.7333 94.912C81.16 95.488 81.3733 96.2613 81.3733 97.232V102H80.2853L80.1733 101.072H80.1253C79.752 101.381 79.352 101.648 78.9253 101.872C78.4986 102.085 78.04 102.192 77.5493 102.192ZM77.9333 101.136C78.3066 101.136 78.6586 101.051 78.9893 100.88C79.32 100.699 79.672 100.437 80.0453 100.096V97.936C79.3946 98.0213 78.8453 98.1227 78.3973 98.24C77.96 98.3573 77.6026 98.496 77.3253 98.656C77.0586 98.816 76.8613 99.0027 76.7333 99.216C76.616 99.4187 76.5573 99.6427 76.5573 99.888C76.5573 100.336 76.6906 100.656 76.9573 100.848C77.224 101.04 77.5493 101.136 77.9333 101.136ZM86.8918 102.192C86.3798 102.192 85.8998 102.101 85.4518 101.92C85.0038 101.739 84.6145 101.477 84.2838 101.136C83.9638 100.784 83.7078 100.357 83.5158 99.856C83.3345 99.344 83.2438 98.768 83.2438 98.128C83.2438 97.4773 83.3451 96.9013 83.5478 96.4C83.7505 95.888 84.0225 95.456 84.3638 95.104C84.7051 94.752 85.0998 94.4853 85.5478 94.304C86.0065 94.1227 86.4865 94.032 86.9878 94.032C87.4998 94.032 87.9371 94.1227 88.2998 94.304C88.6625 94.4853 88.9825 94.6987 89.2598 94.944L88.5878 95.808C88.3638 95.6053 88.1238 95.44 87.8678 95.312C87.6225 95.184 87.3451 95.12 87.0358 95.12C86.6838 95.12 86.3585 95.1947 86.0598 95.344C85.7611 95.4827 85.5051 95.6853 85.2918 95.952C85.0785 96.2187 84.9078 96.5387 84.7798 96.912C84.6625 97.2747 84.6038 97.68 84.6038 98.128C84.6038 98.576 84.6625 98.9813 84.7798 99.344C84.8971 99.7067 85.0571 100.021 85.2598 100.288C85.4731 100.544 85.7291 100.747 86.0278 100.896C86.3265 101.035 86.6518 101.104 87.0038 101.104C87.3665 101.104 87.6971 101.029 87.9958 100.88C88.3051 100.72 88.5825 100.533 88.8278 100.32L89.4038 101.2C89.0518 101.509 88.6625 101.755 88.2358 101.936C87.8091 102.107 87.3611 102.192 86.8918 102.192ZM93.4084 102.192C92.9924 102.192 92.6404 102.128 92.3524 102C92.0751 101.872 91.8458 101.696 91.6644 101.472C91.4938 101.248 91.3711 100.976 91.2964 100.656C91.2218 100.336 91.1844 99.984 91.1844 99.6V95.296H90.0324V94.304L91.2484 94.224L91.4084 92.048H92.5124V94.224H94.6084V95.296H92.5124V99.616C92.5124 100.096 92.5978 100.469 92.7684 100.736C92.9498 100.992 93.2644 101.12 93.7124 101.12C93.8511 101.12 94.0004 101.099 94.1604 101.056C94.3204 101.013 94.4644 100.965 94.5924 100.912L94.8484 101.904C94.6351 101.979 94.4004 102.043 94.1444 102.096C93.8991 102.16 93.6538 102.192 93.4084 102.192ZM97.1641 102.192C96.8974 102.192 96.6681 102.101 96.4761 101.92C96.2947 101.728 96.2041 101.488 96.2041 101.2C96.2041 100.891 96.2947 100.645 96.4761 100.464C96.6681 100.272 96.8974 100.176 97.1641 100.176C97.4201 100.176 97.6387 100.272 97.8201 100.464C98.0121 100.645 98.1081 100.891 98.1081 101.2C98.1081 101.488 98.0121 101.728 97.8201 101.92C97.6387 102.101 97.4201 102.192 97.1641 102.192ZM100.082 105.472C99.837 105.472 99.6183 105.451 99.4263 105.408C99.2343 105.365 99.069 105.317 98.9303 105.264L99.2023 104.272C99.2983 104.304 99.4103 104.331 99.5383 104.352C99.6663 104.384 99.7996 104.4 99.9383 104.4C100.322 104.4 100.578 104.267 100.706 104C100.834 103.733 100.898 103.36 100.898 102.88V94.224H102.21V102.88C102.21 103.669 102.05 104.299 101.73 104.768C101.41 105.237 100.861 105.472 100.082 105.472ZM101.57 92.624C101.314 92.624 101.096 92.544 100.914 92.384C100.744 92.224 100.658 92.0213 100.658 91.776C100.658 91.52 100.744 91.3173 100.914 91.168C101.096 91.008 101.314 90.928 101.57 90.928C101.816 90.928 102.024 91.008 102.194 91.168C102.376 91.3173 102.466 91.52 102.466 91.776C102.466 92.0213 102.376 92.224 102.194 92.384C102.024 92.544 101.816 92.624 101.57 92.624ZM106.867 102.192C106.313 102.192 105.785 102.091 105.283 101.888C104.782 101.685 104.345 101.429 103.971 101.12L104.627 100.24C104.969 100.517 105.315 100.741 105.667 100.912C106.03 101.083 106.446 101.168 106.915 101.168C107.427 101.168 107.811 101.051 108.067 100.816C108.323 100.581 108.451 100.293 108.451 99.952C108.451 99.7493 108.398 99.5733 108.291 99.424C108.185 99.2747 108.046 99.1467 107.875 99.04C107.715 98.9227 107.529 98.8213 107.315 98.736C107.102 98.6507 106.889 98.5653 106.675 98.48C106.398 98.384 106.121 98.2773 105.843 98.16C105.566 98.032 105.315 97.8827 105.091 97.712C104.878 97.5307 104.702 97.3227 104.563 97.088C104.425 96.8533 104.355 96.5707 104.355 96.24C104.355 95.9307 104.414 95.6427 104.531 95.376C104.659 95.0987 104.835 94.864 105.059 94.672C105.294 94.4693 105.577 94.3147 105.907 94.208C106.238 94.0907 106.611 94.032 107.027 94.032C107.518 94.032 107.966 94.1173 108.371 94.288C108.787 94.4587 109.145 94.6667 109.443 94.912L108.819 95.744C108.553 95.5413 108.275 95.376 107.987 95.248C107.699 95.12 107.385 95.056 107.043 95.056C106.553 95.056 106.19 95.168 105.955 95.392C105.731 95.616 105.619 95.8773 105.619 96.176C105.619 96.3573 105.667 96.5173 105.763 96.656C105.859 96.784 105.987 96.9013 106.147 97.008C106.307 97.104 106.489 97.1947 106.691 97.28C106.905 97.3547 107.123 97.4347 107.347 97.52C107.625 97.6267 107.902 97.7387 108.179 97.856C108.467 97.9733 108.723 98.1227 108.947 98.304C109.171 98.4747 109.353 98.688 109.491 98.944C109.641 99.2 109.715 99.5093 109.715 99.872C109.715 100.192 109.651 100.491 109.523 100.768C109.406 101.045 109.225 101.291 108.979 101.504C108.745 101.717 108.446 101.883 108.083 102C107.731 102.128 107.326 102.192 106.867 102.192Z" fill="black"/>
<g filter="url(#filter0_d)">
<mask id="path-2-outside-1" maskUnits="userSpaceOnUse" x="46" y="1" width="77" height="68" fill="black">
<rect fill="white" x="46" y="1" width="77" height="68"/>
<path d="M102.984 25.6185C106.266 26.7636 108.844 28.1377 110.953 29.7408C112.945 31.3439 114 32.9469 114 34.6645C114 36.4967 112.828 38.2143 110.719 39.8174C108.609 41.535 105.797 42.909 102.281 43.9396L101.227 44.2831L101.578 45.8862C102.281 49.2069 102.281 52.0696 101.813 54.5887C101.344 57.1079 100.289 58.8255 98.7656 59.627C97.125 60.5431 95.25 60.5431 92.9063 59.7415C90.5625 59.0545 88.2188 57.5659 85.6406 55.5048L84.1172 54.0162L82.8281 55.1613C80.25 57.4514 77.6719 58.94 75.2109 59.7415C72.75 60.6576 70.7578 60.6576 69.2344 59.7415C67.5938 58.8255 66.6563 57.2224 66.1875 54.8177C65.7188 52.5276 65.7188 49.6649 66.4219 46.4587L66.8906 44.3976L65.25 43.9396C61.8516 42.7945 59.1563 41.4204 57.0469 39.7028C54.9375 38.0998 54 36.3822 54 34.6645C54 33.0615 54.9375 31.3439 56.9297 29.7408C58.8047 28.1377 61.5 26.8781 64.7813 25.733L66.8906 25.046L66.5391 23.0994C65.8359 19.8932 65.7188 17.0305 66.1875 14.6259C66.6563 12.3357 67.5938 10.7326 69.2344 9.81658C70.7578 8.90052 72.75 8.90052 75.3281 9.70207C77.7891 10.6181 80.3672 12.2212 83.0625 14.5114L84 15.4274L85.5234 14.0533C88.1016 11.8777 90.5625 10.3891 92.9063 9.58756C95.25 8.78602 97.125 8.78602 98.7656 9.70207C100.289 10.6181 101.344 12.3357 101.813 14.8549C102.281 17.374 102.164 20.3512 101.461 23.7864L101.109 25.046C101.695 25.275 102.281 25.504 102.984 25.6185ZM87.1641 15.8854L85.7578 17.145C87.5156 19.0916 89.1563 21.1527 90.7969 23.2139C93.375 23.4429 95.9531 23.9009 98.6484 24.4734L98.8828 23.3284C99.4688 20.4657 99.5859 17.9466 99.3516 15.8854C99.1172 13.8243 98.4141 12.4502 97.4766 11.8777C96.4219 11.3052 95.0156 11.4197 93.1406 12.1067C91.2656 12.9083 89.2734 14.1678 87.1641 15.8854ZM71.9297 37.5272C71.1094 39.3593 70.5234 41.0769 70.0547 42.68C71.6953 43.1381 73.5703 43.3671 75.4453 43.4816C74.8594 42.7945 74.2734 41.764 73.5703 40.6189C73.1016 39.7028 72.5156 38.6723 71.9297 37.5272ZM71.9297 31.8019C72.3984 30.8858 72.8672 29.9698 73.5703 28.8247C74.0391 27.9086 74.7422 26.9926 75.4453 25.8475C73.4531 26.0765 71.6953 26.4201 70.0547 26.7636C70.5234 28.4812 71.2266 30.1988 71.9297 31.8019ZM73.2188 34.6645C74.0391 36.3822 74.8594 37.9852 75.7969 39.4738C76.6172 40.9624 77.5547 42.451 78.6094 43.8251C80.3672 43.9396 82.125 43.9396 84 43.9396C85.875 43.9396 87.6328 43.9396 89.3906 43.7106C90.4453 42.222 91.3828 40.7334 92.3203 39.2448C93.1406 37.7562 93.9609 36.2676 94.7813 34.6645C93.8438 33.0615 93.0234 31.4584 92.2031 29.9698C91.2656 28.4812 90.3281 26.9926 89.3906 25.6185C87.5156 25.504 85.7578 25.3895 84 25.3895C82.125 25.3895 80.3672 25.504 78.6094 25.6185C77.4375 27.2216 76.5 28.5957 75.7969 29.9698C74.8594 31.6874 73.9219 33.2905 73.2188 34.6645ZM94.4297 40.5044C93.7266 41.764 93.0234 42.7945 92.5547 43.4816C94.4297 43.2526 96.1875 43.0235 98.0625 42.5655C97.4766 40.8479 96.8906 39.1303 96.1875 37.5272C95.4844 38.6723 94.8984 39.7028 94.4297 40.5044ZM96.0703 31.8019C96.7734 30.1988 97.4766 28.4812 97.9453 26.7636C96.3047 26.4201 94.5469 26.0765 92.6719 25.8475C93.1406 26.8781 93.7266 27.9086 94.4297 28.8247C94.8984 29.6263 95.3672 30.6568 96.0703 31.8019ZM84 18.8626C82.7109 20.2367 81.5391 21.6108 80.4844 22.9849C82.8281 22.9849 85.1719 22.9849 87.5156 22.9849C86.3438 21.6108 85.1719 20.2367 84 18.8626ZM70.4063 11.8777C69.4688 12.4502 68.7656 13.7098 68.5313 15.6564C68.2969 17.603 68.4141 19.8932 69 22.6413L69.3516 24.3589C71.9297 23.9009 74.625 23.4429 77.2031 23.2139C78.7266 21.1527 80.3672 19.0916 82.2422 17.145L81.4219 16.3435C79.0781 14.3968 76.9688 13.0228 74.9766 12.2212C72.8672 11.4197 71.3438 11.3052 70.4063 11.8777ZM67.5938 42.1075C68.2969 39.5883 69.3516 37.0692 70.5234 34.6645C69.3516 32.3744 68.2969 29.8553 67.5938 27.3361L65.6016 28.0232C62.7891 28.9392 60.6797 30.0843 59.0391 31.2293C57.3984 32.4889 56.5781 33.634 56.5781 34.6645C56.6953 36.1531 57.3984 37.2982 58.6875 38.0998C60.5625 39.4738 63.0234 40.7334 66.0703 41.6495C66.5391 41.8785 67.125 41.993 67.5938 42.1075ZM81.1875 53.3292L82.3594 52.2986C80.4844 50.352 78.7266 48.2909 77.3203 46.1152C74.625 46.0007 71.9297 45.6572 69.3516 45.0847L68.8828 46.9168C68.2969 49.6649 68.1797 51.9551 68.5313 53.7872C68.7656 55.7338 69.4688 56.9934 70.5234 57.4514C71.8125 58.0239 73.2188 58.0239 74.625 57.3369C76.9688 56.4208 79.1953 55.1613 81.1875 53.3292ZM84.1172 50.4665C85.2891 49.0924 86.4609 47.7183 87.5156 46.3442C86.3438 46.4587 85.1719 46.4587 84 46.4587C82.8281 46.4587 81.6563 46.4587 80.6016 46.3442C81.6563 47.9473 82.8281 49.3214 84.1172 50.4665ZM99.4688 53.9017H99.3516C99.7031 51.3825 99.5859 48.8634 99.1172 46.3442L98.7656 44.9702C96.1875 45.5427 93.4922 45.8862 90.7969 46.1152C89.2734 48.2909 87.6328 50.352 85.875 52.2986L87.3984 53.5582C89.5078 55.3903 91.3828 56.6499 93.2578 57.3369C95.1328 58.0239 96.5391 58.1384 97.4766 57.5659C98.6484 56.6499 99.2344 55.5048 99.4688 53.9017ZM101.578 41.6495C104.391 40.7334 106.734 39.5883 108.609 38.2143C110.484 36.9547 111.422 35.8096 111.422 34.6645C111.422 33.634 110.484 32.4889 108.844 31.2293C107.086 29.9698 104.859 28.8247 102.164 27.9086L100.406 27.4506C99.5859 29.9698 98.6484 32.3744 97.5938 34.6645C98.7656 37.1837 99.7031 39.5883 100.523 41.8785C100.758 41.8785 101.109 41.8785 101.578 41.6495ZM84 29.3972C82.4766 29.3972 81.1875 29.9698 80.1328 31.0003C79.0781 32.0309 78.6094 33.2905 78.6094 34.6645C78.6094 36.1531 79.0781 37.4127 80.1328 38.4433C81.1875 39.4738 82.4766 39.9319 84 39.9319C85.4063 39.9319 86.6953 39.4738 87.75 38.4433C88.8047 37.4127 89.3906 36.1531 89.3906 34.6645C89.3906 33.2905 88.8047 32.0309 87.75 31.0003C86.6953 29.9698 85.4063 29.3972 84 29.3972Z"/>
</mask>
<path d="M102.984 25.6185C106.266 26.7636 108.844 28.1377 110.953 29.7408C112.945 31.3439 114 32.9469 114 34.6645C114 36.4967 112.828 38.2143 110.719 39.8174C108.609 41.535 105.797 42.909 102.281 43.9396L101.227 44.2831L101.578 45.8862C102.281 49.2069 102.281 52.0696 101.813 54.5887C101.344 57.1079 100.289 58.8255 98.7656 59.627C97.125 60.5431 95.25 60.5431 92.9063 59.7415C90.5625 59.0545 88.2188 57.5659 85.6406 55.5048L84.1172 54.0162L82.8281 55.1613C80.25 57.4514 77.6719 58.94 75.2109 59.7415C72.75 60.6576 70.7578 60.6576 69.2344 59.7415C67.5938 58.8255 66.6563 57.2224 66.1875 54.8177C65.7188 52.5276 65.7188 49.6649 66.4219 46.4587L66.8906 44.3976L65.25 43.9396C61.8516 42.7945 59.1563 41.4204 57.0469 39.7028C54.9375 38.0998 54 36.3822 54 34.6645C54 33.0615 54.9375 31.3439 56.9297 29.7408C58.8047 28.1377 61.5 26.8781 64.7813 25.733L66.8906 25.046L66.5391 23.0994C65.8359 19.8932 65.7188 17.0305 66.1875 14.6259C66.6563 12.3357 67.5938 10.7326 69.2344 9.81658C70.7578 8.90052 72.75 8.90052 75.3281 9.70207C77.7891 10.6181 80.3672 12.2212 83.0625 14.5114L84 15.4274L85.5234 14.0533C88.1016 11.8777 90.5625 10.3891 92.9063 9.58756C95.25 8.78602 97.125 8.78602 98.7656 9.70207C100.289 10.6181 101.344 12.3357 101.813 14.8549C102.281 17.374 102.164 20.3512 101.461 23.7864L101.109 25.046C101.695 25.275 102.281 25.504 102.984 25.6185ZM87.1641 15.8854L85.7578 17.145C87.5156 19.0916 89.1563 21.1527 90.7969 23.2139C93.375 23.4429 95.9531 23.9009 98.6484 24.4734L98.8828 23.3284C99.4688 20.4657 99.5859 17.9466 99.3516 15.8854C99.1172 13.8243 98.4141 12.4502 97.4766 11.8777C96.4219 11.3052 95.0156 11.4197 93.1406 12.1067C91.2656 12.9083 89.2734 14.1678 87.1641 15.8854ZM71.9297 37.5272C71.1094 39.3593 70.5234 41.0769 70.0547 42.68C71.6953 43.1381 73.5703 43.3671 75.4453 43.4816C74.8594 42.7945 74.2734 41.764 73.5703 40.6189C73.1016 39.7028 72.5156 38.6723 71.9297 37.5272ZM71.9297 31.8019C72.3984 30.8858 72.8672 29.9698 73.5703 28.8247C74.0391 27.9086 74.7422 26.9926 75.4453 25.8475C73.4531 26.0765 71.6953 26.4201 70.0547 26.7636C70.5234 28.4812 71.2266 30.1988 71.9297 31.8019ZM73.2188 34.6645C74.0391 36.3822 74.8594 37.9852 75.7969 39.4738C76.6172 40.9624 77.5547 42.451 78.6094 43.8251C80.3672 43.9396 82.125 43.9396 84 43.9396C85.875 43.9396 87.6328 43.9396 89.3906 43.7106C90.4453 42.222 91.3828 40.7334 92.3203 39.2448C93.1406 37.7562 93.9609 36.2676 94.7813 34.6645C93.8438 33.0615 93.0234 31.4584 92.2031 29.9698C91.2656 28.4812 90.3281 26.9926 89.3906 25.6185C87.5156 25.504 85.7578 25.3895 84 25.3895C82.125 25.3895 80.3672 25.504 78.6094 25.6185C77.4375 27.2216 76.5 28.5957 75.7969 29.9698C74.8594 31.6874 73.9219 33.2905 73.2188 34.6645ZM94.4297 40.5044C93.7266 41.764 93.0234 42.7945 92.5547 43.4816C94.4297 43.2526 96.1875 43.0235 98.0625 42.5655C97.4766 40.8479 96.8906 39.1303 96.1875 37.5272C95.4844 38.6723 94.8984 39.7028 94.4297 40.5044ZM96.0703 31.8019C96.7734 30.1988 97.4766 28.4812 97.9453 26.7636C96.3047 26.4201 94.5469 26.0765 92.6719 25.8475C93.1406 26.8781 93.7266 27.9086 94.4297 28.8247C94.8984 29.6263 95.3672 30.6568 96.0703 31.8019ZM84 18.8626C82.7109 20.2367 81.5391 21.6108 80.4844 22.9849C82.8281 22.9849 85.1719 22.9849 87.5156 22.9849C86.3438 21.6108 85.1719 20.2367 84 18.8626ZM70.4063 11.8777C69.4688 12.4502 68.7656 13.7098 68.5313 15.6564C68.2969 17.603 68.4141 19.8932 69 22.6413L69.3516 24.3589C71.9297 23.9009 74.625 23.4429 77.2031 23.2139C78.7266 21.1527 80.3672 19.0916 82.2422 17.145L81.4219 16.3435C79.0781 14.3968 76.9688 13.0228 74.9766 12.2212C72.8672 11.4197 71.3438 11.3052 70.4063 11.8777ZM67.5938 42.1075C68.2969 39.5883 69.3516 37.0692 70.5234 34.6645C69.3516 32.3744 68.2969 29.8553 67.5938 27.3361L65.6016 28.0232C62.7891 28.9392 60.6797 30.0843 59.0391 31.2293C57.3984 32.4889 56.5781 33.634 56.5781 34.6645C56.6953 36.1531 57.3984 37.2982 58.6875 38.0998C60.5625 39.4738 63.0234 40.7334 66.0703 41.6495C66.5391 41.8785 67.125 41.993 67.5938 42.1075ZM81.1875 53.3292L82.3594 52.2986C80.4844 50.352 78.7266 48.2909 77.3203 46.1152C74.625 46.0007 71.9297 45.6572 69.3516 45.0847L68.8828 46.9168C68.2969 49.6649 68.1797 51.9551 68.5313 53.7872C68.7656 55.7338 69.4688 56.9934 70.5234 57.4514C71.8125 58.0239 73.2188 58.0239 74.625 57.3369C76.9688 56.4208 79.1953 55.1613 81.1875 53.3292ZM84.1172 50.4665C85.2891 49.0924 86.4609 47.7183 87.5156 46.3442C86.3438 46.4587 85.1719 46.4587 84 46.4587C82.8281 46.4587 81.6563 46.4587 80.6016 46.3442C81.6563 47.9473 82.8281 49.3214 84.1172 50.4665ZM99.4688 53.9017H99.3516C99.7031 51.3825 99.5859 48.8634 99.1172 46.3442L98.7656 44.9702C96.1875 45.5427 93.4922 45.8862 90.7969 46.1152C89.2734 48.2909 87.6328 50.352 85.875 52.2986L87.3984 53.5582C89.5078 55.3903 91.3828 56.6499 93.2578 57.3369C95.1328 58.0239 96.5391 58.1384 97.4766 57.5659C98.6484 56.6499 99.2344 55.5048 99.4688 53.9017ZM101.578 41.6495C104.391 40.7334 106.734 39.5883 108.609 38.2143C110.484 36.9547 111.422 35.8096 111.422 34.6645C111.422 33.634 110.484 32.4889 108.844 31.2293C107.086 29.9698 104.859 28.8247 102.164 27.9086L100.406 27.4506C99.5859 29.9698 98.6484 32.3744 97.5938 34.6645C98.7656 37.1837 99.7031 39.5883 100.523 41.8785C100.758 41.8785 101.109 41.8785 101.578 41.6495ZM84 29.3972C82.4766 29.3972 81.1875 29.9698 80.1328 31.0003C79.0781 32.0309 78.6094 33.2905 78.6094 34.6645C78.6094 36.1531 79.0781 37.4127 80.1328 38.4433C81.1875 39.4738 82.4766 39.9319 84 39.9319C85.4063 39.9319 86.6953 39.4738 87.75 38.4433C88.8047 37.4127 89.3906 36.1531 89.3906 34.6645C89.3906 33.2905 88.8047 32.0309 87.75 31.0003C86.6953 29.9698 85.4063 29.3972 84 29.3972Z" fill="#61DBFB"/>
<path d="M102.984 25.6185C106.266 26.7636 108.844 28.1377 110.953 29.7408C112.945 31.3439 114 32.9469 114 34.6645C114 36.4967 112.828 38.2143 110.719 39.8174C108.609 41.535 105.797 42.909 102.281 43.9396L101.227 44.2831L101.578 45.8862C102.281 49.2069 102.281 52.0696 101.813 54.5887C101.344 57.1079 100.289 58.8255 98.7656 59.627C97.125 60.5431 95.25 60.5431 92.9063 59.7415C90.5625 59.0545 88.2188 57.5659 85.6406 55.5048L84.1172 54.0162L82.8281 55.1613C80.25 57.4514 77.6719 58.94 75.2109 59.7415C72.75 60.6576 70.7578 60.6576 69.2344 59.7415C67.5938 58.8255 66.6563 57.2224 66.1875 54.8177C65.7188 52.5276 65.7188 49.6649 66.4219 46.4587L66.8906 44.3976L65.25 43.9396C61.8516 42.7945 59.1563 41.4204 57.0469 39.7028C54.9375 38.0998 54 36.3822 54 34.6645C54 33.0615 54.9375 31.3439 56.9297 29.7408C58.8047 28.1377 61.5 26.8781 64.7813 25.733L66.8906 25.046L66.5391 23.0994C65.8359 19.8932 65.7188 17.0305 66.1875 14.6259C66.6563 12.3357 67.5938 10.7326 69.2344 9.81658C70.7578 8.90052 72.75 8.90052 75.3281 9.70207C77.7891 10.6181 80.3672 12.2212 83.0625 14.5114L84 15.4274L85.5234 14.0533C88.1016 11.8777 90.5625 10.3891 92.9063 9.58756C95.25 8.78602 97.125 8.78602 98.7656 9.70207C100.289 10.6181 101.344 12.3357 101.813 14.8549C102.281 17.374 102.164 20.3512 101.461 23.7864L101.109 25.046C101.695 25.275 102.281 25.504 102.984 25.6185ZM87.1641 15.8854L85.7578 17.145C87.5156 19.0916 89.1563 21.1527 90.7969 23.2139C93.375 23.4429 95.9531 23.9009 98.6484 24.4734L98.8828 23.3284C99.4688 20.4657 99.5859 17.9466 99.3516 15.8854C99.1172 13.8243 98.4141 12.4502 97.4766 11.8777C96.4219 11.3052 95.0156 11.4197 93.1406 12.1067C91.2656 12.9083 89.2734 14.1678 87.1641 15.8854ZM71.9297 37.5272C71.1094 39.3593 70.5234 41.0769 70.0547 42.68C71.6953 43.1381 73.5703 43.3671 75.4453 43.4816C74.8594 42.7945 74.2734 41.764 73.5703 40.6189C73.1016 39.7028 72.5156 38.6723 71.9297 37.5272ZM71.9297 31.8019C72.3984 30.8858 72.8672 29.9698 73.5703 28.8247C74.0391 27.9086 74.7422 26.9926 75.4453 25.8475C73.4531 26.0765 71.6953 26.4201 70.0547 26.7636C70.5234 28.4812 71.2266 30.1988 71.9297 31.8019ZM73.2188 34.6645C74.0391 36.3822 74.8594 37.9852 75.7969 39.4738C76.6172 40.9624 77.5547 42.451 78.6094 43.8251C80.3672 43.9396 82.125 43.9396 84 43.9396C85.875 43.9396 87.6328 43.9396 89.3906 43.7106C90.4453 42.222 91.3828 40.7334 92.3203 39.2448C93.1406 37.7562 93.9609 36.2676 94.7813 34.6645C93.8438 33.0615 93.0234 31.4584 92.2031 29.9698C91.2656 28.4812 90.3281 26.9926 89.3906 25.6185C87.5156 25.504 85.7578 25.3895 84 25.3895C82.125 25.3895 80.3672 25.504 78.6094 25.6185C77.4375 27.2216 76.5 28.5957 75.7969 29.9698C74.8594 31.6874 73.9219 33.2905 73.2188 34.6645ZM94.4297 40.5044C93.7266 41.764 93.0234 42.7945 92.5547 43.4816C94.4297 43.2526 96.1875 43.0235 98.0625 42.5655C97.4766 40.8479 96.8906 39.1303 96.1875 37.5272C95.4844 38.6723 94.8984 39.7028 94.4297 40.5044ZM96.0703 31.8019C96.7734 30.1988 97.4766 28.4812 97.9453 26.7636C96.3047 26.4201 94.5469 26.0765 92.6719 25.8475C93.1406 26.8781 93.7266 27.9086 94.4297 28.8247C94.8984 29.6263 95.3672 30.6568 96.0703 31.8019ZM84 18.8626C82.7109 20.2367 81.5391 21.6108 80.4844 22.9849C82.8281 22.9849 85.1719 22.9849 87.5156 22.9849C86.3438 21.6108 85.1719 20.2367 84 18.8626ZM70.4063 11.8777C69.4688 12.4502 68.7656 13.7098 68.5313 15.6564C68.2969 17.603 68.4141 19.8932 69 22.6413L69.3516 24.3589C71.9297 23.9009 74.625 23.4429 77.2031 23.2139C78.7266 21.1527 80.3672 19.0916 82.2422 17.145L81.4219 16.3435C79.0781 14.3968 76.9688 13.0228 74.9766 12.2212C72.8672 11.4197 71.3438 11.3052 70.4063 11.8777ZM67.5938 42.1075C68.2969 39.5883 69.3516 37.0692 70.5234 34.6645C69.3516 32.3744 68.2969 29.8553 67.5938 27.3361L65.6016 28.0232C62.7891 28.9392 60.6797 30.0843 59.0391 31.2293C57.3984 32.4889 56.5781 33.634 56.5781 34.6645C56.6953 36.1531 57.3984 37.2982 58.6875 38.0998C60.5625 39.4738 63.0234 40.7334 66.0703 41.6495C66.5391 41.8785 67.125 41.993 67.5938 42.1075ZM81.1875 53.3292L82.3594 52.2986C80.4844 50.352 78.7266 48.2909 77.3203 46.1152C74.625 46.0007 71.9297 45.6572 69.3516 45.0847L68.8828 46.9168C68.2969 49.6649 68.1797 51.9551 68.5313 53.7872C68.7656 55.7338 69.4688 56.9934 70.5234 57.4514C71.8125 58.0239 73.2188 58.0239 74.625 57.3369C76.9688 56.4208 79.1953 55.1613 81.1875 53.3292ZM84.1172 50.4665C85.2891 49.0924 86.4609 47.7183 87.5156 46.3442C86.3438 46.4587 85.1719 46.4587 84 46.4587C82.8281 46.4587 81.6563 46.4587 80.6016 46.3442C81.6563 47.9473 82.8281 49.3214 84.1172 50.4665ZM99.4688 53.9017H99.3516C99.7031 51.3825 99.5859 48.8634 99.1172 46.3442L98.7656 44.9702C96.1875 45.5427 93.4922 45.8862 90.7969 46.1152C89.2734 48.2909 87.6328 50.352 85.875 52.2986L87.3984 53.5582C89.5078 55.3903 91.3828 56.6499 93.2578 57.3369C95.1328 58.0239 96.5391 58.1384 97.4766 57.5659C98.6484 56.6499 99.2344 55.5048 99.4688 53.9017ZM101.578 41.6495C104.391 40.7334 106.734 39.5883 108.609 38.2143C110.484 36.9547 111.422 35.8096 111.422 34.6645C111.422 33.634 110.484 32.4889 108.844 31.2293C107.086 29.9698 104.859 28.8247 102.164 27.9086L100.406 27.4506C99.5859 29.9698 98.6484 32.3744 97.5938 34.6645C98.7656 37.1837 99.7031 39.5883 100.523 41.8785C100.758 41.8785 101.109 41.8785 101.578 41.6495ZM84 29.3972C82.4766 29.3972 81.1875 29.9698 80.1328 31.0003C79.0781 32.0309 78.6094 33.2905 78.6094 34.6645C78.6094 36.1531 79.0781 37.4127 80.1328 38.4433C81.1875 39.4738 82.4766 39.9319 84 39.9319C85.4063 39.9319 86.6953 39.4738 87.75 38.4433C88.8047 37.4127 89.3906 36.1531 89.3906 34.6645C89.3906 33.2905 88.8047 32.0309 87.75 31.0003C86.6953 29.9698 85.4063 29.3972 84 29.3972Z" stroke="white" stroke-width="16" mask="url(#path-2-outside-1)"/>
</g>
<defs>
<filter id="filter0_d" x="46" y="1.00049" width="76" height="71.4282" filterUnits="userSpaceOnUse" color-interpolation-filters="sRGB">
<feFlood flood-opacity="0" result="BackgroundImageFix"/>
<feColorMatrix in="SourceAlpha" type="matrix" values="0 0 0 0 0 0 0 0 0 0 0 0 0 0 0 0 0 0 127 0"/>
<feOffset dy="4"/>
<feColorMatrix type="matrix" values="0 0 0 0 0 0 0 0 0 0 0 0 0 0 0 0 0 0 0.2 0"/>
<feBlend mode="normal" in2="BackgroundImageFix" result="effect1_dropShadow"/>
<feBlend mode="normal" in="SourceGraphic" in2="effect1_dropShadow" result="shape"/>
</filter>
</defs>
</svg>
