<svg width="168" height="120" viewBox="0 0 168 120" fill="none" xmlns="http://www.w3.org/2000/svg">
<path d="M73.3442 102.192C72.6082 102.192 71.9255 102.053 71.2962 101.776C70.6669 101.499 70.1229 101.12 69.6642 100.64L70.4642 99.712C70.8375 100.107 71.2749 100.427 71.7762 100.672C72.2882 100.907 72.8162 101.024 73.3602 101.024C74.0535 101.024 74.5922 100.869 74.9762 100.56C75.3602 100.24 75.5522 99.824 75.5522 99.312C75.5522 99.0453 75.5042 98.8213 75.4082 98.64C75.3229 98.448 75.2002 98.288 75.0402 98.16C74.8909 98.0213 74.7095 97.8987 74.4962 97.792C74.2829 97.6853 74.0535 97.5733 73.8082 97.456L72.3042 96.8C72.0589 96.6933 71.8082 96.5653 71.5522 96.416C71.2962 96.2667 71.0669 96.0853 70.8642 95.872C70.6615 95.6587 70.4962 95.408 70.3682 95.12C70.2402 94.8213 70.1762 94.48 70.1762 94.096C70.1762 93.7013 70.2562 93.3333 70.4162 92.992C70.5869 92.6507 70.8162 92.3573 71.1042 92.112C71.4029 91.856 71.7495 91.6587 72.1442 91.52C72.5495 91.3813 72.9922 91.312 73.4722 91.312C74.1015 91.312 74.6829 91.4347 75.2162 91.68C75.7495 91.9147 76.2029 92.224 76.5762 92.608L75.8562 93.472C75.5362 93.1627 75.1789 92.9227 74.7842 92.752C74.4002 92.5707 73.9629 92.48 73.4722 92.48C72.8855 92.48 72.4109 92.6187 72.0482 92.896C71.6962 93.1627 71.5202 93.536 71.5202 94.016C71.5202 94.272 71.5682 94.4907 71.6642 94.672C71.7709 94.8427 71.9095 94.9973 72.0802 95.136C72.2509 95.264 72.4375 95.3813 72.6402 95.488C72.8429 95.584 73.0509 95.6747 73.2642 95.76L74.7522 96.4C75.0509 96.528 75.3335 96.6773 75.6002 96.848C75.8669 97.008 76.0962 97.2 76.2882 97.424C76.4802 97.6373 76.6295 97.8933 76.7362 98.192C76.8535 98.48 76.9122 98.816 76.9122 99.2C76.9122 99.616 76.8269 100.005 76.6562 100.368C76.4962 100.731 76.2615 101.051 75.9522 101.328C75.6429 101.595 75.2695 101.808 74.8322 101.968C74.3949 102.117 73.8989 102.192 73.3442 102.192ZM80.6431 102.192C79.9924 102.192 79.4484 102 79.0111 101.616C78.5844 101.232 78.3711 100.688 78.3711 99.984C78.3711 99.1307 78.7497 98.48 79.5071 98.032C80.2644 97.5733 81.4751 97.2533 83.1391 97.072C83.1391 96.8267 83.1124 96.5867 83.0591 96.352C83.0164 96.1173 82.9364 95.9093 82.8191 95.728C82.7017 95.5467 82.5364 95.4027 82.3231 95.296C82.1204 95.1787 81.8591 95.12 81.5391 95.12C81.0911 95.12 80.6697 95.2053 80.2751 95.376C79.8804 95.5467 79.5284 95.7387 79.2191 95.952L78.7071 95.04C79.0697 94.8053 79.5124 94.5813 80.0351 94.368C80.5577 94.144 81.1337 94.032 81.7631 94.032C82.7124 94.032 83.4004 94.3253 83.8271 94.912C84.2537 95.488 84.4671 96.2613 84.4671 97.232V102H83.3791L83.2671 101.072H83.2191C82.8457 101.381 82.4457 101.648 82.0191 101.872C81.5924 102.085 81.1337 102.192 80.6431 102.192ZM81.0271 101.136C81.4004 101.136 81.7524 101.051 82.0831 100.88C82.4137 100.699 82.7657 100.437 83.1391 100.096V97.936C82.4884 98.0213 81.9391 98.1227 81.4911 98.24C81.0537 98.3573 80.6964 98.496 80.4191 98.656C80.1524 98.816 79.9551 99.0027 79.8271 99.216C79.7097 99.4187 79.6511 99.6427 79.6511 99.888C79.6511 100.336 79.7844 100.656 80.0511 100.848C80.3177 101.04 80.6431 101.136 81.0271 101.136ZM88.9456 102.192C88.3909 102.192 87.8629 102.091 87.3616 101.888C86.8602 101.685 86.4229 101.429 86.0496 101.12L86.7056 100.24C87.0469 100.517 87.3936 100.741 87.7456 100.912C88.1082 101.083 88.5242 101.168 88.9936 101.168C89.5056 101.168 89.8896 101.051 90.1456 100.816C90.4016 100.581 90.5296 100.293 90.5296 99.952C90.5296 99.7493 90.4762 99.5733 90.3696 99.424C90.2629 99.2747 90.1242 99.1467 89.9536 99.04C89.7936 98.9227 89.6069 98.8213 89.3936 98.736C89.1802 98.6507 88.9669 98.5653 88.7536 98.48C88.4762 98.384 88.1989 98.2773 87.9216 98.16C87.6442 98.032 87.3936 97.8827 87.1696 97.712C86.9562 97.5307 86.7802 97.3227 86.6416 97.088C86.5029 96.8533 86.4336 96.5707 86.4336 96.24C86.4336 95.9307 86.4922 95.6427 86.6096 95.376C86.7376 95.0987 86.9136 94.864 87.1376 94.672C87.3722 94.4693 87.6549 94.3147 87.9856 94.208C88.3162 94.0907 88.6896 94.032 89.1056 94.032C89.5962 94.032 90.0442 94.1173 90.4496 94.288C90.8656 94.4587 91.2229 94.6667 91.5216 94.912L90.8976 95.744C90.6309 95.5413 90.3536 95.376 90.0656 95.248C89.7776 95.12 89.4629 95.056 89.1216 95.056C88.6309 95.056 88.2682 95.168 88.0336 95.392C87.8096 95.616 87.6976 95.8773 87.6976 96.176C87.6976 96.3573 87.7456 96.5173 87.8416 96.656C87.9376 96.784 88.0656 96.9013 88.2256 97.008C88.3856 97.104 88.5669 97.1947 88.7696 97.28C88.9829 97.3547 89.2016 97.4347 89.4256 97.52C89.7029 97.6267 89.9802 97.7387 90.2576 97.856C90.5456 97.9733 90.8016 98.1227 91.0256 98.304C91.2496 98.4747 91.4309 98.688 91.5696 98.944C91.7189 99.2 91.7936 99.5093 91.7936 99.872C91.7936 100.192 91.7296 100.491 91.6016 100.768C91.4842 101.045 91.3029 101.291 91.0576 101.504C90.8229 101.717 90.5242 101.883 90.1616 102C89.8096 102.128 89.4042 102.192 88.9456 102.192ZM95.6487 102.192C95.094 102.192 94.566 102.091 94.0647 101.888C93.5634 101.685 93.126 101.429 92.7527 101.12L93.4087 100.24C93.75 100.517 94.0967 100.741 94.4487 100.912C94.8114 101.083 95.2274 101.168 95.6967 101.168C96.2087 101.168 96.5927 101.051 96.8487 100.816C97.1047 100.581 97.2327 100.293 97.2327 99.952C97.2327 99.7493 97.1794 99.5733 97.0727 99.424C96.966 99.2747 96.8274 99.1467 96.6567 99.04C96.4967 98.9227 96.31 98.8213 96.0967 98.736C95.8834 98.6507 95.67 98.5653 95.4567 98.48C95.1794 98.384 94.902 98.2773 94.6247 98.16C94.3474 98.032 94.0967 97.8827 93.8727 97.712C93.6594 97.5307 93.4834 97.3227 93.3447 97.088C93.206 96.8533 93.1367 96.5707 93.1367 96.24C93.1367 95.9307 93.1954 95.6427 93.3127 95.376C93.4407 95.0987 93.6167 94.864 93.8407 94.672C94.0754 94.4693 94.358 94.3147 94.6887 94.208C95.0194 94.0907 95.3927 94.032 95.8087 94.032C96.2994 94.032 96.7474 94.1173 97.1527 94.288C97.5687 94.4587 97.926 94.6667 98.2247 94.912L97.6007 95.744C97.334 95.5413 97.0567 95.376 96.7687 95.248C96.4807 95.12 96.166 95.056 95.8247 95.056C95.334 95.056 94.9714 95.168 94.7367 95.392C94.5127 95.616 94.4007 95.8773 94.4007 96.176C94.4007 96.3573 94.4487 96.5173 94.5447 96.656C94.6407 96.784 94.7687 96.9013 94.9287 97.008C95.0887 97.104 95.27 97.1947 95.4727 97.28C95.686 97.3547 95.9047 97.4347 96.1287 97.52C96.406 97.6267 96.6834 97.7387 96.9607 97.856C97.2487 97.9733 97.5047 98.1227 97.7287 98.304C97.9527 98.4747 98.134 98.688 98.2727 98.944C98.422 99.2 98.4967 99.5093 98.4967 99.872C98.4967 100.192 98.4327 100.491 98.3047 100.768C98.1874 101.045 98.006 101.291 97.7607 101.504C97.526 101.717 97.2274 101.883 96.8647 102C96.5127 102.128 96.1074 102.192 95.6487 102.192Z" fill="black"/>
<g filter="url(#filter0_d)">
<mask id="path-2-outside-1" maskUnits="userSpaceOnUse" x="39" y="1" width="90" height="72" fill="black">
<rect fill="white" x="39" y="1" width="90" height="72"/>
<path d="M110.108 41.0083C107.585 41.0225 105.401 41.6275 103.569 42.5282C102.893 41.1914 102.216 40.0233 102.104 39.151C101.977 38.1378 101.822 37.5185 101.977 36.3085C102.132 35.0982 102.836 33.3815 102.836 33.2407C102.822 33.1141 102.681 32.4949 101.23 32.4809C99.7784 32.4668 98.524 32.7623 98.3831 33.1422C98.2421 33.5222 97.9603 34.3946 97.7771 35.2952C97.5234 36.6179 94.874 41.3038 93.3661 43.7664C92.8729 42.8095 92.4501 41.9652 92.3654 41.2896C92.2387 40.2766 92.0835 39.6573 92.2387 38.4473C92.3937 37.237 93.0984 35.5204 93.0984 35.3796C93.0843 35.253 92.9433 34.6338 91.4919 34.6198C90.0403 34.6057 88.7862 34.9012 88.6453 35.2811C88.5043 35.6611 88.3493 36.5617 88.0393 37.4341C87.7432 38.3066 84.2201 46.1304 83.304 48.1708C82.839 49.2121 82.4304 50.0424 82.1344 50.6052C81.8384 51.1681 82.1203 50.6474 82.0921 50.7037C81.8384 51.1822 81.6975 51.4495 81.6975 51.4495V51.4637C81.5002 51.8155 81.2888 52.1531 81.19 52.1531C81.1196 52.1531 80.9786 51.2103 81.2182 49.9159C81.7396 47.1999 83.008 42.9644 82.994 42.8096C82.994 42.7393 83.2334 41.9933 82.1765 41.6135C81.1477 41.2336 80.7815 41.8668 80.6968 41.8668C80.6122 41.8668 80.5418 42.092 80.5418 42.092C80.5418 42.092 81.6833 37.3218 78.3574 37.3218C76.2717 37.3218 73.3968 39.5874 71.9735 41.6559C71.0716 42.1484 69.155 43.1896 67.1257 44.3014C66.3506 44.7235 65.5473 45.1738 64.7863 45.5819L64.6314 45.4128C60.6009 41.1209 53.146 38.0814 53.456 32.312C53.5688 30.2153 54.3016 24.6851 67.7742 17.987C78.8087 12.499 87.6447 14.0047 89.1806 17.3538C91.365 22.1382 84.4596 31.0315 72.9884 32.312C68.6197 32.8045 66.3225 31.1159 65.7449 30.4827C65.1389 29.8213 65.0543 29.7932 64.8288 29.9198C64.4624 30.1168 64.6879 30.7078 64.8288 31.0596C65.1671 31.9461 66.5763 33.5222 68.9721 34.3102C71.0717 34.9997 76.2015 35.3796 82.4023 32.9874C89.3499 30.2998 94.7755 22.8418 93.1831 16.608C91.5624 10.2616 81.0212 8.17904 71.0578 11.711C65.1247 13.8218 58.6985 17.1146 54.0761 21.4346C48.58 26.5567 47.7063 31.0315 48.0727 32.8889C49.3552 39.5167 58.5012 43.8367 62.1652 47.031C61.982 47.1294 61.8129 47.2279 61.6579 47.3124C59.8259 48.2129 52.85 51.8576 51.1026 55.7131C49.1296 60.0753 51.4126 63.2135 52.9346 63.6356C57.6415 64.9443 62.4612 62.5943 65.0683 58.7246C67.6612 54.8549 67.3513 49.8313 66.1534 47.5376L66.111 47.4532L67.5484 46.6089C68.4787 46.0601 69.3947 45.5535 70.1978 45.1171C69.747 46.3414 69.4227 47.7907 69.2538 49.9015C69.0565 52.3783 70.0711 55.5865 71.4099 56.8529C72.0018 57.4016 72.7064 57.4158 73.1433 57.4158C74.6935 57.4158 75.3981 56.1351 76.1732 54.6014C77.1315 52.7299 77.9771 50.5629 77.9771 50.5629C77.9771 50.5629 76.9201 56.4308 79.8091 56.4308C80.866 56.4308 81.923 55.0658 82.4021 54.3622L81.6975 53.9402C81.6975 53.9402 82.4303 54.3341 82.4867 54.2356C82.5458 54.1483 82.6022 54.0592 82.6558 53.9684V53.9402C83.0786 53.2085 84.0228 51.534 85.432 48.7618C87.2498 45.1876 88.9974 40.7128 88.9974 40.7128C88.9974 40.7128 89.1665 41.8104 89.688 43.6116C89.9979 44.6812 90.6743 45.849 91.1957 46.9888C90.7729 47.5798 90.5193 47.9177 90.5193 47.9177L90.5334 47.9317C90.1953 48.382 89.8146 48.8606 89.4202 49.3389C87.9828 51.0557 86.2635 53.0118 86.038 53.5746C85.7702 54.2359 85.8266 54.7284 86.348 55.1225C86.7285 55.404 87.405 55.4601 88.1237 55.404C89.4202 55.3194 90.3221 54.9959 90.7731 54.7987C91.4777 54.5454 92.281 54.1655 93.0561 53.6026C94.4653 52.5615 95.325 51.0839 95.2404 49.1139C95.1981 48.0304 94.8458 46.9609 94.409 45.9478C94.5358 45.7648 94.6628 45.5818 94.7895 45.3849C97.0161 42.1342 98.9016 40.0984 98.9016 40.0984C98.9016 40.0984 98.9045 39.6577 99.4259 41.4589C99.6935 42.3736 100.229 43.3728 100.708 44.3578C98.6226 46.0605 97.312 48.0305 96.8611 49.3251C96.0296 51.7173 96.6779 52.8008 97.9039 53.0541C98.4534 53.1667 99.2427 52.9134 99.8345 52.6601C100.567 52.4209 101.455 52.0127 102.273 51.4077C103.682 50.3664 105.035 48.917 104.964 46.9611C104.922 46.0605 104.682 45.174 104.358 44.3297C106.134 43.5979 108.431 43.1758 111.348 43.5276C117.619 44.2593 118.86 48.1712 118.62 49.8036C118.381 51.436 117.07 52.3365 116.633 52.6179C116.196 52.8853 116.055 52.9839 116.097 53.1808C116.154 53.4764 116.351 53.4622 116.732 53.4061C117.253 53.3215 120.029 52.0692 120.142 49.058C120.311 45.1878 116.633 40.9662 110.108 41.0083ZM61.7424 57.2893C59.6708 59.5548 56.7537 60.4132 55.5135 59.6815C54.1747 58.9075 54.696 55.5725 57.2469 53.1663C58.7971 51.7028 60.8123 50.3519 62.137 49.5217C62.433 49.3388 62.8839 49.0715 63.4195 48.7478C63.504 48.6916 63.5604 48.6633 63.5604 48.6633C63.659 48.607 63.7718 48.5367 63.8845 48.4663C64.8287 51.8998 63.9268 54.9112 61.7424 57.2893ZM76.8919 47.0029C76.1732 48.7618 74.6512 53.2788 73.7352 53.0256C72.9459 52.8145 72.4669 49.3951 73.58 46.0178C74.1437 44.315 75.3416 42.2888 76.0462 41.5007C77.1879 40.2342 78.4279 39.8121 78.7381 40.3327C79.1045 41.0083 77.3429 45.9053 76.8919 47.0029ZM89.392 52.9693C89.082 53.1242 88.8001 53.2366 88.6733 53.1523C88.5746 53.0961 88.8 52.885 88.8 52.885C88.8 52.885 90.3643 51.2104 90.9843 50.4365C91.3366 49.9864 91.7594 49.4657 92.2104 48.8745V49.0434C92.2105 51.0696 90.2658 52.4205 89.392 52.9693ZM99.0312 50.7741C98.8057 50.6052 98.834 50.0846 99.5949 48.4523C99.891 47.805 100.567 46.7214 101.737 45.6942C101.878 46.1163 101.963 46.5243 101.948 46.9044C101.934 49.4373 100.131 50.3801 99.0312 50.7741Z"/>
</mask>
<path d="M110.108 41.0083C107.585 41.0225 105.401 41.6275 103.569 42.5282C102.893 41.1914 102.216 40.0233 102.104 39.151C101.977 38.1378 101.822 37.5185 101.977 36.3085C102.132 35.0982 102.836 33.3815 102.836 33.2407C102.822 33.1141 102.681 32.4949 101.23 32.4809C99.7784 32.4668 98.524 32.7623 98.3831 33.1422C98.2421 33.5222 97.9603 34.3946 97.7771 35.2952C97.5234 36.6179 94.874 41.3038 93.3661 43.7664C92.8729 42.8095 92.4501 41.9652 92.3654 41.2896C92.2387 40.2766 92.0835 39.6573 92.2387 38.4473C92.3937 37.237 93.0984 35.5204 93.0984 35.3796C93.0843 35.253 92.9433 34.6338 91.4919 34.6198C90.0403 34.6057 88.7862 34.9012 88.6453 35.2811C88.5043 35.6611 88.3493 36.5617 88.0393 37.4341C87.7432 38.3066 84.2201 46.1304 83.304 48.1708C82.839 49.2121 82.4304 50.0424 82.1344 50.6052C81.8384 51.1681 82.1203 50.6474 82.0921 50.7037C81.8384 51.1822 81.6975 51.4495 81.6975 51.4495V51.4637C81.5002 51.8155 81.2888 52.1531 81.19 52.1531C81.1196 52.1531 80.9786 51.2103 81.2182 49.9159C81.7396 47.1999 83.008 42.9644 82.994 42.8096C82.994 42.7393 83.2334 41.9933 82.1765 41.6135C81.1477 41.2336 80.7815 41.8668 80.6968 41.8668C80.6122 41.8668 80.5418 42.092 80.5418 42.092C80.5418 42.092 81.6833 37.3218 78.3574 37.3218C76.2717 37.3218 73.3968 39.5874 71.9735 41.6559C71.0716 42.1484 69.155 43.1896 67.1257 44.3014C66.3506 44.7235 65.5473 45.1738 64.7863 45.5819L64.6314 45.4128C60.6009 41.1209 53.146 38.0814 53.456 32.312C53.5688 30.2153 54.3016 24.6851 67.7742 17.987C78.8087 12.499 87.6447 14.0047 89.1806 17.3538C91.365 22.1382 84.4596 31.0315 72.9884 32.312C68.6197 32.8045 66.3225 31.1159 65.7449 30.4827C65.1389 29.8213 65.0543 29.7932 64.8288 29.9198C64.4624 30.1168 64.6879 30.7078 64.8288 31.0596C65.1671 31.9461 66.5763 33.5222 68.9721 34.3102C71.0717 34.9997 76.2015 35.3796 82.4023 32.9874C89.3499 30.2998 94.7755 22.8418 93.1831 16.608C91.5624 10.2616 81.0212 8.17904 71.0578 11.711C65.1247 13.8218 58.6985 17.1146 54.0761 21.4346C48.58 26.5567 47.7063 31.0315 48.0727 32.8889C49.3552 39.5167 58.5012 43.8367 62.1652 47.031C61.982 47.1294 61.8129 47.2279 61.6579 47.3124C59.8259 48.2129 52.85 51.8576 51.1026 55.7131C49.1296 60.0753 51.4126 63.2135 52.9346 63.6356C57.6415 64.9443 62.4612 62.5943 65.0683 58.7246C67.6612 54.8549 67.3513 49.8313 66.1534 47.5376L66.111 47.4532L67.5484 46.6089C68.4787 46.0601 69.3947 45.5535 70.1978 45.1171C69.747 46.3414 69.4227 47.7907 69.2538 49.9015C69.0565 52.3783 70.0711 55.5865 71.4099 56.8529C72.0018 57.4016 72.7064 57.4158 73.1433 57.4158C74.6935 57.4158 75.3981 56.1351 76.1732 54.6014C77.1315 52.7299 77.9771 50.5629 77.9771 50.5629C77.9771 50.5629 76.9201 56.4308 79.8091 56.4308C80.866 56.4308 81.923 55.0658 82.4021 54.3622L81.6975 53.9402C81.6975 53.9402 82.4303 54.3341 82.4867 54.2356C82.5458 54.1483 82.6022 54.0592 82.6558 53.9684V53.9402C83.0786 53.2085 84.0228 51.534 85.432 48.7618C87.2498 45.1876 88.9974 40.7128 88.9974 40.7128C88.9974 40.7128 89.1665 41.8104 89.688 43.6116C89.9979 44.6812 90.6743 45.849 91.1957 46.9888C90.7729 47.5798 90.5193 47.9177 90.5193 47.9177L90.5334 47.9317C90.1953 48.382 89.8146 48.8606 89.4202 49.3389C87.9828 51.0557 86.2635 53.0118 86.038 53.5746C85.7702 54.2359 85.8266 54.7284 86.348 55.1225C86.7285 55.404 87.405 55.4601 88.1237 55.404C89.4202 55.3194 90.3221 54.9959 90.7731 54.7987C91.4777 54.5454 92.281 54.1655 93.0561 53.6026C94.4653 52.5615 95.325 51.0839 95.2404 49.1139C95.1981 48.0304 94.8458 46.9609 94.409 45.9478C94.5358 45.7648 94.6628 45.5818 94.7895 45.3849C97.0161 42.1342 98.9016 40.0984 98.9016 40.0984C98.9016 40.0984 98.9045 39.6577 99.4259 41.4589C99.6935 42.3736 100.229 43.3728 100.708 44.3578C98.6226 46.0605 97.312 48.0305 96.8611 49.3251C96.0296 51.7173 96.6779 52.8008 97.9039 53.0541C98.4534 53.1667 99.2427 52.9134 99.8345 52.6601C100.567 52.4209 101.455 52.0127 102.273 51.4077C103.682 50.3664 105.035 48.917 104.964 46.9611C104.922 46.0605 104.682 45.174 104.358 44.3297C106.134 43.5979 108.431 43.1758 111.348 43.5276C117.619 44.2593 118.86 48.1712 118.62 49.8036C118.381 51.436 117.07 52.3365 116.633 52.6179C116.196 52.8853 116.055 52.9839 116.097 53.1808C116.154 53.4764 116.351 53.4622 116.732 53.4061C117.253 53.3215 120.029 52.0692 120.142 49.058C120.311 45.1878 116.633 40.9662 110.108 41.0083ZM61.7424 57.2893C59.6708 59.5548 56.7537 60.4132 55.5135 59.6815C54.1747 58.9075 54.696 55.5725 57.2469 53.1663C58.7971 51.7028 60.8123 50.3519 62.137 49.5217C62.433 49.3388 62.8839 49.0715 63.4195 48.7478C63.504 48.6916 63.5604 48.6633 63.5604 48.6633C63.659 48.607 63.7718 48.5367 63.8845 48.4663C64.8287 51.8998 63.9268 54.9112 61.7424 57.2893ZM76.8919 47.0029C76.1732 48.7618 74.6512 53.2788 73.7352 53.0256C72.9459 52.8145 72.4669 49.3951 73.58 46.0178C74.1437 44.315 75.3416 42.2888 76.0462 41.5007C77.1879 40.2342 78.4279 39.8121 78.7381 40.3327C79.1045 41.0083 77.3429 45.9053 76.8919 47.0029ZM89.392 52.9693C89.082 53.1242 88.8001 53.2366 88.6733 53.1523C88.5746 53.0961 88.8 52.885 88.8 52.885C88.8 52.885 90.3643 51.2104 90.9843 50.4365C91.3366 49.9864 91.7594 49.4657 92.2104 48.8745V49.0434C92.2105 51.0696 90.2658 52.4205 89.392 52.9693ZM99.0312 50.7741C98.8057 50.6052 98.834 50.0846 99.5949 48.4523C99.891 47.805 100.567 46.7214 101.737 45.6942C101.878 46.1163 101.963 46.5243 101.948 46.9044C101.934 49.4373 100.131 50.3801 99.0312 50.7741Z" fill="white"/>
<path d="M110.108 41.0083C107.585 41.0225 105.401 41.6275 103.569 42.5282C102.893 41.1914 102.216 40.0233 102.104 39.151C101.977 38.1378 101.822 37.5185 101.977 36.3085C102.132 35.0982 102.836 33.3815 102.836 33.2407C102.822 33.1141 102.681 32.4949 101.23 32.4809C99.7784 32.4668 98.524 32.7623 98.3831 33.1422C98.2421 33.5222 97.9603 34.3946 97.7771 35.2952C97.5234 36.6179 94.874 41.3038 93.3661 43.7664C92.8729 42.8095 92.4501 41.9652 92.3654 41.2896C92.2387 40.2766 92.0835 39.6573 92.2387 38.4473C92.3937 37.237 93.0984 35.5204 93.0984 35.3796C93.0843 35.253 92.9433 34.6338 91.4919 34.6198C90.0403 34.6057 88.7862 34.9012 88.6453 35.2811C88.5043 35.6611 88.3493 36.5617 88.0393 37.4341C87.7432 38.3066 84.2201 46.1304 83.304 48.1708C82.839 49.2121 82.4304 50.0424 82.1344 50.6052C81.8384 51.1681 82.1203 50.6474 82.0921 50.7037C81.8384 51.1822 81.6975 51.4495 81.6975 51.4495V51.4637C81.5002 51.8155 81.2888 52.1531 81.19 52.1531C81.1196 52.1531 80.9786 51.2103 81.2182 49.9159C81.7396 47.1999 83.008 42.9644 82.994 42.8096C82.994 42.7393 83.2334 41.9933 82.1765 41.6135C81.1477 41.2336 80.7815 41.8668 80.6968 41.8668C80.6122 41.8668 80.5418 42.092 80.5418 42.092C80.5418 42.092 81.6833 37.3218 78.3574 37.3218C76.2717 37.3218 73.3968 39.5874 71.9735 41.6559C71.0716 42.1484 69.155 43.1896 67.1257 44.3014C66.3506 44.7235 65.5473 45.1738 64.7863 45.5819L64.6314 45.4128C60.6009 41.1209 53.146 38.0814 53.456 32.312C53.5688 30.2153 54.3016 24.6851 67.7742 17.987C78.8087 12.499 87.6447 14.0047 89.1806 17.3538C91.365 22.1382 84.4596 31.0315 72.9884 32.312C68.6197 32.8045 66.3225 31.1159 65.7449 30.4827C65.1389 29.8213 65.0543 29.7932 64.8288 29.9198C64.4624 30.1168 64.6879 30.7078 64.8288 31.0596C65.1671 31.9461 66.5763 33.5222 68.9721 34.3102C71.0717 34.9997 76.2015 35.3796 82.4023 32.9874C89.3499 30.2998 94.7755 22.8418 93.1831 16.608C91.5624 10.2616 81.0212 8.17904 71.0578 11.711C65.1247 13.8218 58.6985 17.1146 54.0761 21.4346C48.58 26.5567 47.7063 31.0315 48.0727 32.8889C49.3552 39.5167 58.5012 43.8367 62.1652 47.031C61.982 47.1294 61.8129 47.2279 61.6579 47.3124C59.8259 48.2129 52.85 51.8576 51.1026 55.7131C49.1296 60.0753 51.4126 63.2135 52.9346 63.6356C57.6415 64.9443 62.4612 62.5943 65.0683 58.7246C67.6612 54.8549 67.3513 49.8313 66.1534 47.5376L66.111 47.4532L67.5484 46.6089C68.4787 46.0601 69.3947 45.5535 70.1978 45.1171C69.747 46.3414 69.4227 47.7907 69.2538 49.9015C69.0565 52.3783 70.0711 55.5865 71.4099 56.8529C72.0018 57.4016 72.7064 57.4158 73.1433 57.4158C74.6935 57.4158 75.3981 56.1351 76.1732 54.6014C77.1315 52.7299 77.9771 50.5629 77.9771 50.5629C77.9771 50.5629 76.9201 56.4308 79.8091 56.4308C80.866 56.4308 81.923 55.0658 82.4021 54.3622L81.6975 53.9402C81.6975 53.9402 82.4303 54.3341 82.4867 54.2356C82.5458 54.1483 82.6022 54.0592 82.6558 53.9684V53.9402C83.0786 53.2085 84.0228 51.534 85.432 48.7618C87.2498 45.1876 88.9974 40.7128 88.9974 40.7128C88.9974 40.7128 89.1665 41.8104 89.688 43.6116C89.9979 44.6812 90.6743 45.849 91.1957 46.9888C90.7729 47.5798 90.5193 47.9177 90.5193 47.9177L90.5334 47.9317C90.1953 48.382 89.8146 48.8606 89.4202 49.3389C87.9828 51.0557 86.2635 53.0118 86.038 53.5746C85.7702 54.2359 85.8266 54.7284 86.348 55.1225C86.7285 55.404 87.405 55.4601 88.1237 55.404C89.4202 55.3194 90.3221 54.9959 90.7731 54.7987C91.4777 54.5454 92.281 54.1655 93.0561 53.6026C94.4653 52.5615 95.325 51.0839 95.2404 49.1139C95.1981 48.0304 94.8458 46.9609 94.409 45.9478C94.5358 45.7648 94.6628 45.5818 94.7895 45.3849C97.0161 42.1342 98.9016 40.0984 98.9016 40.0984C98.9016 40.0984 98.9045 39.6577 99.4259 41.4589C99.6935 42.3736 100.229 43.3728 100.708 44.3578C98.6226 46.0605 97.312 48.0305 96.8611 49.3251C96.0296 51.7173 96.6779 52.8008 97.9039 53.0541C98.4534 53.1667 99.2427 52.9134 99.8345 52.6601C100.567 52.4209 101.455 52.0127 102.273 51.4077C103.682 50.3664 105.035 48.917 104.964 46.9611C104.922 46.0605 104.682 45.174 104.358 44.3297C106.134 43.5979 108.431 43.1758 111.348 43.5276C117.619 44.2593 118.86 48.1712 118.62 49.8036C118.381 51.436 117.07 52.3365 116.633 52.6179C116.196 52.8853 116.055 52.9839 116.097 53.1808C116.154 53.4764 116.351 53.4622 116.732 53.4061C117.253 53.3215 120.029 52.0692 120.142 49.058C120.311 45.1878 116.633 40.9662 110.108 41.0083ZM61.7424 57.2893C59.6708 59.5548 56.7537 60.4132 55.5135 59.6815C54.1747 58.9075 54.696 55.5725 57.2469 53.1663C58.7971 51.7028 60.8123 50.3519 62.137 49.5217C62.433 49.3388 62.8839 49.0715 63.4195 48.7478C63.504 48.6916 63.5604 48.6633 63.5604 48.6633C63.659 48.607 63.7718 48.5367 63.8845 48.4663C64.8287 51.8998 63.9268 54.9112 61.7424 57.2893ZM76.8919 47.0029C76.1732 48.7618 74.6512 53.2788 73.7352 53.0256C72.9459 52.8145 72.4669 49.3951 73.58 46.0178C74.1437 44.315 75.3416 42.2888 76.0462 41.5007C77.1879 40.2342 78.4279 39.8121 78.7381 40.3327C79.1045 41.0083 77.3429 45.9053 76.8919 47.0029ZM89.392 52.9693C89.082 53.1242 88.8001 53.2366 88.6733 53.1523C88.5746 53.0961 88.8 52.885 88.8 52.885C88.8 52.885 90.3643 51.2104 90.9843 50.4365C91.3366 49.9864 91.7594 49.4657 92.2104 48.8745V49.0434C92.2105 51.0696 90.2658 52.4205 89.392 52.9693ZM99.0312 50.7741C98.8057 50.6052 98.834 50.0846 99.5949 48.4523C99.891 47.805 100.567 46.7214 101.737 45.6942C101.878 46.1163 101.963 46.5243 101.948 46.9044C101.934 49.4373 100.131 50.3801 99.0312 50.7741Z" stroke="white" stroke-width="16" mask="url(#path-2-outside-1)"/>
<path d="M110.293 40.5C107.817 40.514 105.673 41.109 103.874 41.995C103.21 40.6801 102.546 39.5311 102.436 38.6731C102.311 37.6766 102.159 37.0674 102.311 35.8772C102.463 34.6868 103.155 32.9982 103.155 32.8597C103.141 32.7352 103.003 32.1262 101.578 32.1123C100.153 32.0985 98.922 32.3891 98.7837 32.7629C98.6453 33.1366 98.3687 33.9947 98.1888 34.8805C97.9398 36.1816 95.3392 40.7906 93.859 43.2128C93.3749 42.2716 92.9599 41.4412 92.8768 40.7767C92.7524 39.7803 92.6001 39.1711 92.7524 37.9809C92.9046 36.7905 93.5962 35.102 93.5962 34.9636C93.5824 34.839 93.4441 34.23 92.0194 34.2162C90.5944 34.2023 89.3634 34.493 89.2251 34.8667C89.0867 35.2404 88.9346 36.1262 88.6302 36.9844C88.3396 37.8425 84.8813 45.5381 83.9822 47.5451C83.5257 48.5693 83.1246 49.3859 82.834 49.9396C82.5435 50.4932 82.8202 49.9811 82.7925 50.0365C82.5435 50.507 82.4052 50.77 82.4052 50.77V50.784C82.2115 51.13 82.004 51.4621 81.907 51.4621C81.8379 51.4621 81.6995 50.5347 81.9347 49.2615C82.4465 46.59 83.6915 42.424 83.6778 42.2718C83.6778 42.2026 83.9129 41.4689 82.8754 41.0953C81.8655 40.7216 81.506 41.3444 81.4229 41.3444C81.3399 41.3444 81.2707 41.5659 81.2707 41.5659C81.2707 41.5659 82.3912 36.8739 79.1266 36.8739C77.0793 36.8739 74.2573 39.1023 72.8601 41.137C71.9748 41.6214 70.0935 42.6455 68.1015 43.7391C67.3407 44.1543 66.5522 44.5972 65.8052 44.9986L65.6532 44.8322C61.6969 40.6107 54.3792 37.6211 54.6835 31.9462C54.7942 29.8839 55.5135 24.4444 68.7381 17.8561C79.5695 12.4581 88.2429 13.9391 89.7506 17.2332C91.8947 21.9392 85.1165 30.6867 73.8564 31.9462C69.5681 32.4307 67.3132 30.7698 66.7462 30.1469C66.1513 29.4964 66.0683 29.4687 65.847 29.5933C65.4873 29.787 65.7087 30.3684 65.847 30.7144C66.179 31.5864 67.5623 33.1366 69.914 33.9117C71.975 34.5899 77.0104 34.9636 83.097 32.6106C89.9167 29.967 95.2425 22.6312 93.6794 16.4997C92.0885 10.2574 81.7413 8.20889 71.9613 11.683C66.1374 13.7591 59.8294 16.9979 55.2921 21.2471C49.8972 26.2853 49.0396 30.6867 49.3992 32.5137C50.6582 39.0328 59.6358 43.282 63.2324 46.4239C63.0526 46.5207 62.8866 46.6176 62.7344 46.7008C60.9361 47.5865 54.0887 51.1714 52.3733 54.9637C50.4367 59.2544 52.6777 62.3411 54.1717 62.7564C58.7919 64.0436 63.5229 61.7321 66.082 57.9258C68.6272 54.1196 68.323 49.1783 67.1472 46.9222L67.1055 46.8392L68.5165 46.0087C69.4297 45.4689 70.3288 44.9706 71.1172 44.5414C70.6746 45.7456 70.3563 47.1712 70.1905 49.2474C69.9968 51.6835 70.9928 54.8392 72.307 56.0848C72.8879 56.6245 73.5796 56.6385 74.0084 56.6385C75.5301 56.6385 76.2217 55.3788 76.9826 53.8703C77.9232 52.0294 78.7532 49.8979 78.7532 49.8979C78.7532 49.8979 77.7157 55.6696 80.5515 55.6696C81.589 55.6696 82.6265 54.327 83.0968 53.635V53.6488C83.0968 53.6488 83.1245 53.6073 83.1798 53.5104C83.2379 53.4245 83.2932 53.3369 83.3458 53.2476V53.2199C83.7608 52.5002 84.6876 50.8531 86.071 48.1264C87.8553 44.6108 89.5708 40.2093 89.5708 40.2093C89.5708 40.2093 89.7368 41.2889 90.2486 43.0606C90.5528 44.1126 91.2168 45.2613 91.7286 46.3824C91.3136 46.9637 91.0646 47.2961 91.0646 47.2961L91.0784 47.3099C90.7466 47.7528 90.3729 48.2236 89.9858 48.694C88.5748 50.3826 86.8871 52.3067 86.6658 52.8603C86.403 53.5107 86.4583 53.9951 86.9701 54.3828C87.3436 54.6596 88.0076 54.7149 88.7131 54.6596C89.9858 54.5764 90.8711 54.2582 91.3137 54.0643C92.0054 53.8152 92.7939 53.4415 93.5547 52.8878C94.938 51.8637 95.7819 50.4104 95.6989 48.4727C95.6574 47.4069 95.3115 46.355 94.8827 45.3585C95.0072 45.1785 95.1318 44.9985 95.2562 44.8048C97.4418 41.6074 99.1295 38.0919 99.1295 38.0919C99.1295 38.0919 99.2955 39.1715 99.8073 40.9432C100.07 41.8428 100.596 42.8257 101.066 43.7946C99.0188 45.4693 97.7323 47.4071 97.2897 48.6804C96.4735 51.0334 97.1098 52.0992 98.3133 52.3483C98.8527 52.459 99.6275 52.2099 100.208 51.9608C100.928 51.7255 101.799 51.3239 102.602 50.7289C103.985 49.7047 105.313 48.2791 105.244 46.3552C105.202 45.4693 104.967 44.5973 104.649 43.7669C106.392 43.0472 108.647 42.6319 111.51 42.9779C117.666 43.6977 118.883 47.5455 118.648 49.151C118.413 50.7567 117.127 51.6424 116.698 51.9192C116.269 52.1822 116.13 52.2793 116.172 52.4729C116.227 52.7637 116.421 52.7497 116.794 52.6945C117.306 52.6113 120.031 51.3796 120.142 48.4177C120.308 44.6109 116.698 40.4586 110.293 40.5V40.5ZM62.8174 56.5141C60.7839 58.7425 57.9205 59.5868 56.7031 58.867C55.389 58.1058 55.9007 54.8254 58.4046 52.4586C59.9263 51.0192 61.9044 49.6904 63.2047 48.8738C63.4952 48.6939 63.9379 48.431 64.4635 48.1126C64.5465 48.0573 64.6019 48.0295 64.6019 48.0295C64.6987 47.9741 64.8094 47.9049 64.92 47.8357C65.8469 51.2129 64.9615 54.1749 62.8174 56.5141V56.5141ZM77.6881 46.3963C76.9826 48.1264 75.4886 52.5694 74.5894 52.3202C73.8146 52.1126 73.3444 48.7492 74.4371 45.4274C74.9905 43.7525 76.1663 41.7595 76.8579 40.9843C77.9786 39.7386 79.1957 39.3234 79.5002 39.8355C79.8599 40.5 78.1307 45.3167 77.6881 46.3963ZM89.9581 52.2649C89.6538 52.4172 89.3771 52.5278 89.2526 52.4449C89.1558 52.3896 89.377 52.182 89.377 52.182C89.377 52.182 90.9124 50.5349 91.5211 49.7736C91.8669 49.3308 92.2819 48.8187 92.7246 48.2373V48.4034C92.7247 50.3963 90.8157 51.7251 89.9581 52.2649ZM99.4198 50.1057C99.1985 49.9396 99.2263 49.4274 99.9732 47.8219C100.264 47.1852 100.928 46.1194 102.076 45.109C102.214 45.5243 102.297 45.9255 102.283 46.2994C102.27 48.7908 100.499 49.7181 99.4198 50.1057Z" fill="#CF649A"/>
</g>
<defs>
<filter id="filter0_d" x="39.9939" y="1.99976" width="88.1549" height="74.0115" filterUnits="userSpaceOnUse" color-interpolation-filters="sRGB">
<feFlood flood-opacity="0" result="BackgroundImageFix"/>
<feColorMatrix in="SourceAlpha" type="matrix" values="0 0 0 0 0 0 0 0 0 0 0 0 0 0 0 0 0 0 127 0"/>
<feOffset dy="4"/>
<feColorMatrix type="matrix" values="0 0 0 0 0 0 0 0 0 0 0 0 0 0 0 0 0 0 0.2 0"/>
<feBlend mode="normal" in2="BackgroundImageFix" result="effect1_dropShadow"/>
<feBlend mode="normal" in="SourceGraphic" in2="effect1_dropShadow" result="shape"/>
</filter>
</defs>
</svg>
