<svg width="168" height="122" viewBox="0 0 168 122" fill="none" xmlns="http://www.w3.org/2000/svg">
<path d="M65.7739 104.192C65.0379 104.192 64.3552 104.053 63.7259 103.776C63.0965 103.499 62.5525 103.12 62.0939 102.64L62.8939 101.712C63.2672 102.107 63.7045 102.427 64.2059 102.672C64.7179 102.907 65.2459 103.024 65.7899 103.024C66.4832 103.024 67.0219 102.869 67.4059 102.56C67.7899 102.24 67.9819 101.824 67.9819 101.312C67.9819 101.045 67.9339 100.821 67.8379 100.64C67.7525 100.448 67.6299 100.288 67.4699 100.16C67.3205 100.021 67.1392 99.8987 66.9259 99.792C66.7125 99.6853 66.4832 99.5733 66.2379 99.456L64.7339 98.8C64.4885 98.6933 64.2379 98.5653 63.9819 98.416C63.7259 98.2667 63.4965 98.0853 63.2939 97.872C63.0912 97.6587 62.9259 97.408 62.7979 97.12C62.6699 96.8213 62.6059 96.48 62.6059 96.096C62.6059 95.7013 62.6859 95.3333 62.8459 94.992C63.0165 94.6507 63.2459 94.3573 63.5339 94.112C63.8325 93.856 64.1792 93.6587 64.5739 93.52C64.9792 93.3813 65.4219 93.312 65.9019 93.312C66.5312 93.312 67.1125 93.4347 67.6459 93.68C68.1792 93.9147 68.6325 94.224 69.0059 94.608L68.2859 95.472C67.9659 95.1627 67.6085 94.9227 67.2139 94.752C66.8299 94.5707 66.3925 94.48 65.9019 94.48C65.3152 94.48 64.8405 94.6187 64.4779 94.896C64.1259 95.1627 63.9499 95.536 63.9499 96.016C63.9499 96.272 63.9979 96.4907 64.0939 96.672C64.2005 96.8427 64.3392 96.9973 64.5099 97.136C64.6805 97.264 64.8672 97.3813 65.0699 97.488C65.2725 97.584 65.4805 97.6747 65.6939 97.76L67.1819 98.4C67.4805 98.528 67.7632 98.6773 68.0299 98.848C68.2965 99.008 68.5259 99.2 68.7179 99.424C68.9099 99.6373 69.0592 99.8933 69.1659 100.192C69.2832 100.48 69.3419 100.816 69.3419 101.2C69.3419 101.616 69.2565 102.005 69.0859 102.368C68.9259 102.731 68.6912 103.051 68.3819 103.328C68.0725 103.595 67.6992 103.808 67.2619 103.968C66.8245 104.117 66.3285 104.192 65.7739 104.192ZM71.2808 104V92.608H72.5768V100.32H72.6248L75.9368 96.224H77.3928L74.7848 99.344L77.7448 104H76.3048L74.0328 100.256L72.5768 101.952V104H71.2808ZM82.0734 104.192C81.5507 104.192 81.06 104.101 80.6014 103.92C80.1534 103.728 79.7587 103.461 79.4174 103.12C79.0867 102.768 78.8254 102.341 78.6334 101.84C78.4414 101.339 78.3454 100.768 78.3454 100.128C78.3454 99.488 78.4414 98.9173 78.6334 98.416C78.836 97.904 79.0974 97.472 79.4174 97.12C79.748 96.768 80.1214 96.5013 80.5374 96.32C80.9534 96.128 81.3854 96.032 81.8334 96.032C82.324 96.032 82.7614 96.1173 83.1454 96.288C83.54 96.4587 83.8654 96.704 84.1214 97.024C84.388 97.344 84.5907 97.728 84.7294 98.176C84.868 98.624 84.9374 99.1253 84.9374 99.68C84.9374 99.8187 84.932 99.9573 84.9214 100.096C84.9214 100.224 84.9107 100.336 84.8894 100.432H79.6414C79.6947 101.264 79.9507 101.925 80.4094 102.416C80.8787 102.896 81.4867 103.136 82.2334 103.136C82.6067 103.136 82.948 103.083 83.2574 102.976C83.5774 102.859 83.8814 102.709 84.1694 102.528L84.6334 103.392C84.292 103.605 83.9134 103.792 83.4974 103.952C83.0814 104.112 82.6067 104.192 82.0734 104.192ZM79.6254 99.488H83.7854C83.7854 98.6987 83.6147 98.1013 83.2734 97.696C82.9427 97.28 82.4734 97.072 81.8654 97.072C81.588 97.072 81.3214 97.1253 81.0654 97.232C80.82 97.3387 80.596 97.4987 80.3934 97.712C80.1907 97.9147 80.02 98.1653 79.8814 98.464C79.7534 98.7627 79.668 99.104 79.6254 99.488ZM89.1506 104.192C88.7346 104.192 88.3826 104.128 88.0946 104C87.8173 103.872 87.588 103.696 87.4066 103.472C87.236 103.248 87.1133 102.976 87.0386 102.656C86.964 102.336 86.9266 101.984 86.9266 101.6V97.296H85.7746V96.304L86.9906 96.224L87.1506 94.048H88.2546V96.224H90.3506V97.296H88.2546V101.616C88.2546 102.096 88.34 102.469 88.5106 102.736C88.692 102.992 89.0066 103.12 89.4546 103.12C89.5933 103.12 89.7426 103.099 89.9026 103.056C90.0626 103.013 90.2066 102.965 90.3346 102.912L90.5906 103.904C90.3773 103.979 90.1426 104.043 89.8866 104.096C89.6413 104.16 89.396 104.192 89.1506 104.192ZM94.9621 104.192C94.4501 104.192 93.9701 104.101 93.5221 103.92C93.0741 103.739 92.6848 103.477 92.3541 103.136C92.0341 102.784 91.7781 102.357 91.5861 101.856C91.4048 101.344 91.3141 100.768 91.3141 100.128C91.3141 99.4773 91.4155 98.9013 91.6181 98.4C91.8208 97.888 92.0928 97.456 92.4341 97.104C92.7755 96.752 93.1701 96.4853 93.6181 96.304C94.0768 96.1227 94.5568 96.032 95.0581 96.032C95.5701 96.032 96.0075 96.1227 96.3701 96.304C96.7328 96.4853 97.0528 96.6987 97.3301 96.944L96.6581 97.808C96.4341 97.6053 96.1941 97.44 95.9381 97.312C95.6928 97.184 95.4155 97.12 95.1061 97.12C94.7541 97.12 94.4288 97.1947 94.1301 97.344C93.8315 97.4827 93.5755 97.6853 93.3621 97.952C93.1488 98.2187 92.9781 98.5387 92.8501 98.912C92.7328 99.2747 92.6741 99.68 92.6741 100.128C92.6741 100.576 92.7328 100.981 92.8501 101.344C92.9675 101.707 93.1275 102.021 93.3301 102.288C93.5435 102.544 93.7995 102.747 94.0981 102.896C94.3968 103.035 94.7221 103.104 95.0741 103.104C95.4368 103.104 95.7675 103.029 96.0661 102.88C96.3755 102.72 96.6528 102.533 96.8981 102.32L97.4741 103.2C97.1221 103.509 96.7328 103.755 96.3061 103.936C95.8795 104.107 95.4315 104.192 94.9621 104.192ZM99.187 104V92.608H100.499V95.712L100.451 97.312C100.824 96.96 101.214 96.6613 101.619 96.416C102.024 96.16 102.499 96.032 103.043 96.032C103.864 96.032 104.462 96.288 104.835 96.8C105.219 97.312 105.411 98.0693 105.411 99.072V104H104.099V99.248C104.099 98.512 103.982 97.984 103.747 97.664C103.512 97.3333 103.139 97.168 102.627 97.168C102.222 97.168 101.864 97.2693 101.555 97.472C101.246 97.6747 100.894 97.9733 100.499 98.368V104H99.187Z" fill="black"/>
<g filter="url(#filter0_d)">
<path d="M48.805 26.1093C47.6689 27.6176 47.7423 29.715 48.9812 31.1401L81.0825 68.0688C81.8439 68.9447 82.9482 69.4467 84.1088 69.4445C85.2694 69.4424 86.3718 68.9362 87.13 68.0575L118.99 31.1288C120.22 29.7033 120.289 27.6131 119.156 26.1093L105.157 7.52427C104.492 6.64063 103.49 6.07211 102.39 5.95383L84.4326 4.02293C84.1487 3.9924 83.8624 3.99236 83.5785 4.0228L65.5726 5.95371C64.4722 6.07171 63.4699 6.64032 62.8041 7.52427L48.805 26.1093Z" fill="#C4C4C4" stroke="white" stroke-width="8" stroke-linejoin="round"/>
<path fill-rule="evenodd" clip-rule="evenodd" d="M64.9606 28.5312L83.9973 65.5777L52 28.5312H64.9606Z" fill="#EA6C00"/>
<path fill-rule="evenodd" clip-rule="evenodd" d="M103.039 28.5312L84.0027 65.5777L116 28.5312H103.039Z" fill="#EA6C00"/>
<path fill-rule="evenodd" clip-rule="evenodd" d="M64.96 28.5312H103.033L83.9967 65.5777L64.96 28.5312Z" fill="#FDAD00"/>
<path fill-rule="evenodd" clip-rule="evenodd" d="M83.9967 8L65.9619 9.89543L64.96 28.5312L83.9967 8Z" fill="#FDD231"/>
<path fill-rule="evenodd" clip-rule="evenodd" d="M83.9967 8L102.031 9.89543L103.033 28.5312L83.9967 8Z" fill="#FDD231"/>
<path fill-rule="evenodd" clip-rule="evenodd" d="M116 28.5312L102.037 9.89551L103.039 28.5312H116Z" fill="#FDAD00"/>
<path fill-rule="evenodd" clip-rule="evenodd" d="M52 28.5312L65.9625 9.89551L64.9606 28.5312H52Z" fill="#FDAD00"/>
<path fill-rule="evenodd" clip-rule="evenodd" d="M83.9967 8L64.96 28.5312H103.033L83.9967 8Z" fill="#FEEEB7"/>
</g>
<defs>
<filter id="filter0_d" x="44" y="0" width="79.9614" height="78.4445" filterUnits="userSpaceOnUse" color-interpolation-filters="sRGB">
<feFlood flood-opacity="0" result="BackgroundImageFix"/>
<feColorMatrix in="SourceAlpha" type="matrix" values="0 0 0 0 0 0 0 0 0 0 0 0 0 0 0 0 0 0 127 0"/>
<feOffset dy="5"/>
<feColorMatrix type="matrix" values="0 0 0 0 0 0 0 0 0 0 0 0 0 0 0 0 0 0 0.2 0"/>
<feBlend mode="normal" in2="BackgroundImageFix" result="effect1_dropShadow"/>
<feBlend mode="normal" in="SourceGraphic" in2="effect1_dropShadow" result="shape"/>
</filter>
</defs>
</svg>
