<svg width="168" height="120" viewBox="0 0 168 120" fill="none" xmlns="http://www.w3.org/2000/svg">
<path d="M51.9363 102V92.624H48.7683V91.504H56.4483V92.624H53.2803V102H51.9363ZM57.8072 105.344C57.6259 105.344 57.4605 105.328 57.3112 105.296C57.1619 105.275 57.0232 105.237 56.8952 105.184L57.1512 104.144C57.2365 104.165 57.3325 104.187 57.4392 104.208C57.5459 104.24 57.6472 104.256 57.7432 104.256C58.1912 104.256 58.5539 104.096 58.8312 103.776C59.1192 103.467 59.3432 103.072 59.5032 102.592L59.6792 102.016L56.5592 94.224H57.9192L59.5032 98.528C59.6205 98.8693 59.7432 99.232 59.8712 99.616C60.0099 99.9893 60.1379 100.357 60.2552 100.72H60.3192C60.4365 100.368 60.5485 100 60.6552 99.616C60.7619 99.232 60.8685 98.8693 60.9752 98.528L62.3672 94.224H63.6472L60.7192 102.64C60.5805 103.024 60.4259 103.381 60.2552 103.712C60.0845 104.043 59.8819 104.325 59.6472 104.56C59.4125 104.805 59.1459 104.997 58.8472 105.136C58.5485 105.275 58.2019 105.344 57.8072 105.344ZM65.1479 105.28V94.224H66.2359L66.3479 95.12H66.3959C66.7479 94.8213 67.1319 94.5653 67.5479 94.352C67.9746 94.1387 68.4173 94.032 68.8759 94.032C69.3773 94.032 69.8199 94.128 70.2039 94.32C70.5879 94.5013 70.9079 94.768 71.1639 95.12C71.4199 95.4613 71.6119 95.8773 71.7399 96.368C71.8786 96.848 71.9479 97.392 71.9479 98C71.9479 98.6613 71.8573 99.2533 71.6759 99.776C71.4946 100.288 71.2493 100.725 70.9399 101.088C70.6306 101.451 70.2733 101.728 69.8679 101.92C69.4626 102.101 69.0359 102.192 68.5879 102.192C68.2253 102.192 67.8626 102.112 67.4999 101.952C67.1479 101.792 66.7906 101.573 66.4279 101.296L66.4599 102.656V105.28H65.1479ZM68.3639 101.088C68.6839 101.088 68.9773 101.019 69.2439 100.88C69.5213 100.731 69.7559 100.528 69.9479 100.272C70.1506 100.005 70.3053 99.68 70.4119 99.296C70.5293 98.912 70.5879 98.48 70.5879 98C70.5879 97.5733 70.5506 97.184 70.4759 96.832C70.4013 96.48 70.2786 96.1813 70.1079 95.936C69.9479 95.68 69.7346 95.4827 69.4679 95.344C69.2119 95.2053 68.9026 95.136 68.5399 95.136C68.2093 95.136 67.8733 95.2267 67.5319 95.408C67.2013 95.5893 66.8439 95.8507 66.4599 96.192V100.272C66.8119 100.571 67.1533 100.784 67.4839 100.912C67.8146 101.029 68.1079 101.088 68.3639 101.088ZM77.1749 102.192C76.6523 102.192 76.1616 102.101 75.7029 101.92C75.2549 101.728 74.8603 101.461 74.5189 101.12C74.1883 100.768 73.9269 100.341 73.7349 99.84C73.5429 99.3387 73.4469 98.768 73.4469 98.128C73.4469 97.488 73.5429 96.9173 73.7349 96.416C73.9376 95.904 74.1989 95.472 74.5189 95.12C74.8496 94.768 75.2229 94.5013 75.6389 94.32C76.0549 94.128 76.4869 94.032 76.9349 94.032C77.4256 94.032 77.8629 94.1173 78.2469 94.288C78.6416 94.4587 78.9669 94.704 79.2229 95.024C79.4896 95.344 79.6923 95.728 79.8309 96.176C79.9696 96.624 80.0389 97.1253 80.0389 97.68C80.0389 97.8187 80.0336 97.9573 80.0229 98.096C80.0229 98.224 80.0123 98.336 79.9909 98.432H74.7429C74.7963 99.264 75.0523 99.9253 75.5109 100.416C75.9803 100.896 76.5883 101.136 77.3349 101.136C77.7083 101.136 78.0496 101.083 78.3589 100.976C78.6789 100.859 78.9829 100.709 79.2709 100.528L79.7349 101.392C79.3936 101.605 79.0149 101.792 78.5989 101.952C78.1829 102.112 77.7083 102.192 77.1749 102.192ZM74.7269 97.488H78.8869C78.8869 96.6987 78.7163 96.1013 78.3749 95.696C78.0443 95.28 77.5749 95.072 76.9669 95.072C76.6896 95.072 76.4229 95.1253 76.1669 95.232C75.9216 95.3387 75.6976 95.4987 75.4949 95.712C75.2923 95.9147 75.1216 96.1653 74.9829 96.464C74.8549 96.7627 74.7696 97.104 74.7269 97.488ZM84.6879 102.192C83.9519 102.192 83.2693 102.053 82.6399 101.776C82.0106 101.499 81.4666 101.12 81.0079 100.64L81.8079 99.712C82.1813 100.107 82.6186 100.427 83.1199 100.672C83.6319 100.907 84.1599 101.024 84.7039 101.024C85.3973 101.024 85.9359 100.869 86.3199 100.56C86.7039 100.24 86.8959 99.824 86.8959 99.312C86.8959 99.0453 86.8479 98.8213 86.7519 98.64C86.6666 98.448 86.5439 98.288 86.3839 98.16C86.2346 98.0213 86.0533 97.8987 85.8399 97.792C85.6266 97.6853 85.3973 97.5733 85.1519 97.456L83.6479 96.8C83.4026 96.6933 83.1519 96.5653 82.8959 96.416C82.6399 96.2667 82.4106 96.0853 82.2079 95.872C82.0053 95.6587 81.8399 95.408 81.7119 95.12C81.5839 94.8213 81.5199 94.48 81.5199 94.096C81.5199 93.7013 81.5999 93.3333 81.7599 92.992C81.9306 92.6507 82.1599 92.3573 82.4479 92.112C82.7466 91.856 83.0933 91.6587 83.4879 91.52C83.8933 91.3813 84.3359 91.312 84.8159 91.312C85.4453 91.312 86.0266 91.4347 86.5599 91.68C87.0933 91.9147 87.5466 92.224 87.9199 92.608L87.1999 93.472C86.8799 93.1627 86.5226 92.9227 86.1279 92.752C85.7439 92.5707 85.3066 92.48 84.8159 92.48C84.2293 92.48 83.7546 92.6187 83.3919 92.896C83.0399 93.1627 82.8639 93.536 82.8639 94.016C82.8639 94.272 82.9119 94.4907 83.0079 94.672C83.1146 94.8427 83.2533 94.9973 83.4239 95.136C83.5946 95.264 83.7813 95.3813 83.9839 95.488C84.1866 95.584 84.3946 95.6747 84.6079 95.76L86.0959 96.4C86.3946 96.528 86.6773 96.6773 86.9439 96.848C87.2106 97.008 87.4399 97.2 87.6319 97.424C87.8239 97.6373 87.9733 97.8933 88.0799 98.192C88.1973 98.48 88.2559 98.816 88.2559 99.2C88.2559 99.616 88.1706 100.005 87.9999 100.368C87.8399 100.731 87.6053 101.051 87.2959 101.328C86.9866 101.595 86.6133 101.808 86.1759 101.968C85.7386 102.117 85.2426 102.192 84.6879 102.192ZM93.2668 102.192C92.7548 102.192 92.2748 102.101 91.8268 101.92C91.3788 101.739 90.9895 101.477 90.6588 101.136C90.3388 100.784 90.0828 100.357 89.8908 99.856C89.7095 99.344 89.6188 98.768 89.6188 98.128C89.6188 97.4773 89.7201 96.9013 89.9228 96.4C90.1255 95.888 90.3975 95.456 90.7388 95.104C91.0801 94.752 91.4748 94.4853 91.9228 94.304C92.3815 94.1227 92.8615 94.032 93.3628 94.032C93.8748 94.032 94.3121 94.1227 94.6748 94.304C95.0375 94.4853 95.3575 94.6987 95.6348 94.944L94.9628 95.808C94.7388 95.6053 94.4988 95.44 94.2428 95.312C93.9975 95.184 93.7201 95.12 93.4108 95.12C93.0588 95.12 92.7335 95.1947 92.4348 95.344C92.1361 95.4827 91.8801 95.6853 91.6668 95.952C91.4535 96.2187 91.2828 96.5387 91.1548 96.912C91.0375 97.2747 90.9788 97.68 90.9788 98.128C90.9788 98.576 91.0375 98.9813 91.1548 99.344C91.2721 99.7067 91.4321 100.021 91.6348 100.288C91.8481 100.544 92.1041 100.747 92.4028 100.896C92.7015 101.035 93.0268 101.104 93.3788 101.104C93.7415 101.104 94.0721 101.029 94.3708 100.88C94.6801 100.72 94.9575 100.533 95.2028 100.32L95.7788 101.2C95.4268 101.509 95.0375 101.755 94.6108 101.936C94.1841 102.107 93.7361 102.192 93.2668 102.192ZM97.4917 102V94.224H98.5797L98.6917 95.632H98.7397C99.0064 95.1413 99.3264 94.752 99.6997 94.464C100.084 94.176 100.5 94.032 100.948 94.032C101.257 94.032 101.534 94.0853 101.78 94.192L101.524 95.344C101.396 95.3013 101.278 95.2693 101.172 95.248C101.065 95.2267 100.932 95.216 100.772 95.216C100.441 95.216 100.094 95.3493 99.7317 95.616C99.3797 95.8827 99.0704 96.3467 98.8037 97.008V102H97.4917ZM103.039 102V94.224H104.351V102H103.039ZM103.711 92.624C103.455 92.624 103.236 92.544 103.055 92.384C102.884 92.224 102.799 92.0213 102.799 91.776C102.799 91.52 102.884 91.3173 103.055 91.168C103.236 91.008 103.455 90.928 103.711 90.928C103.967 90.928 104.18 91.008 104.351 91.168C104.532 91.3173 104.623 91.52 104.623 91.776C104.623 92.0213 104.532 92.224 104.351 92.384C104.18 92.544 103.967 92.624 103.711 92.624ZM106.976 105.28V94.224H108.064L108.176 95.12H108.224C108.576 94.8213 108.96 94.5653 109.376 94.352C109.803 94.1387 110.245 94.032 110.704 94.032C111.205 94.032 111.648 94.128 112.032 94.32C112.416 94.5013 112.736 94.768 112.992 95.12C113.248 95.4613 113.44 95.8773 113.568 96.368C113.707 96.848 113.776 97.392 113.776 98C113.776 98.6613 113.685 99.2533 113.504 99.776C113.323 100.288 113.077 100.725 112.768 101.088C112.459 101.451 112.101 101.728 111.696 101.92C111.291 102.101 110.864 102.192 110.416 102.192C110.053 102.192 109.691 102.112 109.328 101.952C108.976 101.792 108.619 101.573 108.256 101.296L108.288 102.656V105.28H106.976ZM110.192 101.088C110.512 101.088 110.805 101.019 111.072 100.88C111.349 100.731 111.584 100.528 111.776 100.272C111.979 100.005 112.133 99.68 112.24 99.296C112.357 98.912 112.416 98.48 112.416 98C112.416 97.5733 112.379 97.184 112.304 96.832C112.229 96.48 112.107 96.1813 111.936 95.936C111.776 95.68 111.563 95.4827 111.296 95.344C111.04 95.2053 110.731 95.136 110.368 95.136C110.037 95.136 109.701 95.2267 109.36 95.408C109.029 95.5893 108.672 95.8507 108.288 96.192V100.272C108.64 100.571 108.981 100.784 109.312 100.912C109.643 101.029 109.936 101.088 110.192 101.088ZM118.033 102.192C117.617 102.192 117.265 102.128 116.977 102C116.7 101.872 116.471 101.696 116.289 101.472C116.119 101.248 115.996 100.976 115.921 100.656C115.847 100.336 115.809 99.984 115.809 99.6V95.296H114.657V94.304L115.873 94.224L116.033 92.048H117.137V94.224H119.233V95.296H117.137V99.616C117.137 100.096 117.223 100.469 117.393 100.736C117.575 100.992 117.889 101.12 118.337 101.12C118.476 101.12 118.625 101.099 118.785 101.056C118.945 101.013 119.089 100.965 119.217 100.912L119.473 101.904C119.26 101.979 119.025 102.043 118.769 102.096C118.524 102.16 118.279 102.192 118.033 102.192Z" fill="black"/>
<g filter="url(#filter0_d)">
<rect x="51" y="4" width="64" height="64" fill="#C4C4C4" stroke="white" stroke-width="8" stroke-linejoin="round"/>
<path d="M55 36V8H111V64H55" fill="#1866FD"/>
<path d="M67.2781 36.0979V38.3799H74.5581V59.0999H79.7241V38.3799H87.0041V36.1399C87.0041 34.8799 87.0041 33.8579 86.9481 33.8299C86.9481 33.7879 82.5101 33.7739 77.1201 33.7739L67.3201 33.8159V36.1119L67.2781 36.0979V36.0979ZM99.9961 33.7599C101.424 34.0959 102.516 34.7399 103.496 35.7619C104.014 36.3219 104.784 37.3019 104.84 37.5539C104.84 37.6379 102.418 39.2759 100.948 40.1859C100.892 40.2279 100.668 39.9899 100.444 39.6259C99.7161 38.5899 98.9741 38.1419 97.8121 38.0579C96.1321 37.9459 95.0121 38.8279 95.0121 40.2979C95.0121 40.7459 95.0961 40.9979 95.2641 41.3619C95.6421 42.1319 96.3421 42.5939 98.5121 43.5459C102.516 45.2679 104.252 46.4019 105.302 48.0259C106.492 49.8459 106.758 52.7019 105.96 54.8439C105.064 57.1819 102.88 58.7639 99.7581 59.2819C98.7781 59.4499 96.5381 59.4219 95.4881 59.2399C93.2481 58.8199 91.1061 57.6999 89.7901 56.2579C89.2721 55.6979 88.2781 54.1999 88.3341 54.1019L88.8661 53.7659L90.9661 52.5479L92.5481 51.6239L92.9121 52.1139C93.3741 52.8419 94.4101 53.8219 95.0121 54.1579C96.8321 55.0959 99.2681 54.9699 100.472 53.8779C100.99 53.4019 101.214 52.8979 101.214 52.1979C101.214 51.5539 101.116 51.2599 100.794 50.7699C100.346 50.1539 99.4501 49.6499 96.9301 48.5299C94.0321 47.2979 92.8001 46.5139 91.6521 45.3099C90.9941 44.5819 90.3921 43.4479 90.1121 42.5099C89.9021 41.6979 89.8321 39.7099 90.0281 38.9119C90.6301 36.1119 92.7441 34.1519 95.7681 33.5919C96.7481 33.3959 99.0581 33.4799 100.024 33.7319L99.9961 33.7599V33.7599Z" fill="white"/>
</g>
<defs>
<filter id="filter0_d" x="47" y="0" width="72" height="77" filterUnits="userSpaceOnUse" color-interpolation-filters="sRGB">
<feFlood flood-opacity="0" result="BackgroundImageFix"/>
<feColorMatrix in="SourceAlpha" type="matrix" values="0 0 0 0 0 0 0 0 0 0 0 0 0 0 0 0 0 0 127 0"/>
<feOffset dy="5"/>
<feColorMatrix type="matrix" values="0 0 0 0 0 0 0 0 0 0 0 0 0 0 0 0 0 0 0.2 0"/>
<feBlend mode="normal" in2="BackgroundImageFix" result="effect1_dropShadow"/>
<feBlend mode="normal" in="SourceGraphic" in2="effect1_dropShadow" result="shape"/>
</filter>
</defs>
</svg>
