<svg width="168" height="122" viewBox="0 0 168 122" fill="none" xmlns="http://www.w3.org/2000/svg">
<path d="M68.8522 104L65.4922 93.504H66.9162L68.5962 99.168C68.7882 99.7973 68.9535 100.379 69.0922 100.912C69.2415 101.445 69.4175 102.021 69.6202 102.64H69.6842C69.8762 102.021 70.0469 101.445 70.1962 100.912C70.3455 100.379 70.5109 99.7973 70.6922 99.168L72.3722 93.504H73.7322L70.4042 104H68.8522ZM77.9562 104.192C77.4335 104.192 76.9429 104.101 76.4842 103.92C76.0362 103.728 75.6415 103.461 75.3002 103.12C74.9695 102.768 74.7082 102.341 74.5162 101.84C74.3242 101.339 74.2282 100.768 74.2282 100.128C74.2282 99.488 74.3242 98.9173 74.5162 98.416C74.7189 97.904 74.9802 97.472 75.3002 97.12C75.6309 96.768 76.0042 96.5013 76.4202 96.32C76.8362 96.128 77.2682 96.032 77.7162 96.032C78.2069 96.032 78.6442 96.1173 79.0282 96.288C79.4229 96.4587 79.7482 96.704 80.0042 97.024C80.2709 97.344 80.4735 97.728 80.6122 98.176C80.7509 98.624 80.8202 99.1253 80.8202 99.68C80.8202 99.8187 80.8149 99.9573 80.8042 100.096C80.8042 100.224 80.7935 100.336 80.7722 100.432H75.5242C75.5775 101.264 75.8335 101.925 76.2922 102.416C76.7615 102.896 77.3695 103.136 78.1162 103.136C78.4895 103.136 78.8309 103.083 79.1402 102.976C79.4602 102.859 79.7642 102.709 80.0522 102.528L80.5162 103.392C80.1749 103.605 79.7962 103.792 79.3802 103.952C78.9642 104.112 78.4895 104.192 77.9562 104.192ZM75.5082 99.488H79.6682C79.6682 98.6987 79.4975 98.1013 79.1562 97.696C78.8255 97.28 78.3562 97.072 77.7482 97.072C77.4709 97.072 77.2042 97.1253 76.9482 97.232C76.7029 97.3387 76.4789 97.4987 76.2762 97.712C76.0735 97.9147 75.9029 98.1653 75.7642 98.464C75.6362 98.7627 75.5509 99.104 75.5082 99.488ZM85.0334 104.192C84.6174 104.192 84.2654 104.128 83.9774 104C83.7001 103.872 83.4708 103.696 83.2894 103.472C83.1188 103.248 82.9961 102.976 82.9214 102.656C82.8468 102.336 82.8094 101.984 82.8094 101.6V97.296H81.6574V96.304L82.8734 96.224L83.0334 94.048H84.1374V96.224H86.2334V97.296H84.1374V101.616C84.1374 102.096 84.2228 102.469 84.3934 102.736C84.5748 102.992 84.8894 103.12 85.3374 103.12C85.4761 103.12 85.6254 103.099 85.7854 103.056C85.9454 103.013 86.0894 102.965 86.2174 102.912L86.4734 103.904C86.2601 103.979 86.0254 104.043 85.7694 104.096C85.5241 104.16 85.2788 104.192 85.0334 104.192ZM87.9917 104V92.608H89.2877V100.32H89.3357L92.6477 96.224H94.1037L91.4957 99.344L94.4557 104H93.0157L90.7437 100.256L89.2877 101.952V104H87.9917ZM97.5493 104.192C96.8986 104.192 96.3546 104 95.9173 103.616C95.4906 103.232 95.2773 102.688 95.2773 101.984C95.2773 101.131 95.656 100.48 96.4133 100.032C97.1706 99.5733 98.3813 99.2533 100.045 99.072C100.045 98.8267 100.019 98.5867 99.9653 98.352C99.9226 98.1173 99.8426 97.9093 99.7253 97.728C99.608 97.5467 99.4426 97.4027 99.2293 97.296C99.0266 97.1787 98.7653 97.12 98.4453 97.12C97.9973 97.12 97.576 97.2053 97.1813 97.376C96.7866 97.5467 96.4346 97.7387 96.1253 97.952L95.6133 97.04C95.976 96.8053 96.4186 96.5813 96.9413 96.368C97.464 96.144 98.04 96.032 98.6693 96.032C99.6186 96.032 100.307 96.3253 100.733 96.912C101.16 97.488 101.373 98.2613 101.373 99.232V104H100.285L100.173 103.072H100.125C99.752 103.381 99.352 103.648 98.9253 103.872C98.4986 104.085 98.04 104.192 97.5493 104.192ZM97.9333 103.136C98.3066 103.136 98.6586 103.051 98.9893 102.88C99.32 102.699 99.672 102.437 100.045 102.096V99.936C99.3946 100.021 98.8453 100.123 98.3973 100.24C97.96 100.357 97.6026 100.496 97.3253 100.656C97.0586 100.816 96.8613 101.003 96.7333 101.216C96.616 101.419 96.5573 101.643 96.5573 101.888C96.5573 102.336 96.6906 102.656 96.9573 102.848C97.224 103.04 97.5493 103.136 97.9333 103.136Z" fill="black"/>
<g filter="url(#filter0_d)">
<mask id="path-2-outside-1" maskUnits="userSpaceOnUse" x="43" y="0" width="82" height="77" fill="black">
<rect fill="white" x="43" width="82" height="77"/>
<path d="M69.5728 50.1893C65.7767 56.1375 59.3884 60.2712 52 60.9983C52.979 54.1978 56.8567 48.3341 62.3407 44.7C64.3637 46.9653 66.8173 48.8379 69.5728 50.1893Z"/>
<path d="M63.5176 43.9688C65.3908 44.4535 67.3541 44.714 69.3774 44.7199C69.8987 47.0174 70.7551 49.1876 71.8925 51.1764C68.1878 49.8304 64.9155 47.5833 62.3407 44.7C62.7252 44.4452 63.1177 44.2013 63.5176 43.9688Z"/>
<path d="M91.4227 29.755C88.62 28.5818 85.5429 27.9337 82.3145 27.9337C72.3273 27.9337 63.7888 34.1359 60.3403 42.8987C63.143 44.0719 66.22 44.72 69.4484 44.72C79.4356 44.72 87.9742 38.5178 91.4227 29.755Z"/>
<path d="M92.469 15.8686C92.4501 15.8686 92.4312 15.8686 92.4123 15.8686C82.2781 15.8686 73.6355 22.2547 70.2891 31.2221C73.811 29.1331 77.9227 27.9337 82.3145 27.9337C85.5429 27.9337 88.62 28.5818 91.4227 29.755C92.4757 27.079 93.0539 24.1641 93.0539 21.1143C93.0539 19.3114 92.8518 17.5557 92.469 15.8686Z"/>
<path d="M98.7349 16.758C100.043 17.845 101.379 18.987 102.007 20.5837C103.001 23.1932 103.545 26.0245 103.545 28.9829C103.545 42.02 92.9767 52.5886 79.9396 52.5886C77.1152 52.5886 74.4066 52.0925 71.8962 51.1828C70.757 49.1923 69.8993 47.0199 69.3774 44.7199C69.401 44.72 69.4248 44.72 69.4484 44.72C82.4855 44.72 93.0539 34.1514 93.0539 21.1143C93.0539 19.3114 92.8518 17.5557 92.469 15.8686C94.6196 15.8749 96.7026 16.1689 98.6814 16.714C98.6991 16.7287 98.717 16.7434 98.7349 16.758Z"/>
<path d="M94.7588 8C98.5686 8 101.89 10.0764 103.728 13.1146C102.775 14.6946 102.234 16.5117 102.234 18.4915C102.234 19.1872 102.287 19.8663 102.417 20.5241C102.384 20.5355 102.352 20.5468 102.321 20.558C102.226 20.5918 102.135 20.6245 102.034 20.6552C101.41 18.9992 100.026 17.8304 98.6814 16.714C95.3962 13.9863 91.3594 12.1327 86.9276 11.5096C88.849 9.35602 91.6455 8 94.7588 8Z"/>
<path d="M86.9276 11.5096C85.5256 13.0811 84.59 15.0769 84.3368 17.2808C86.8524 16.3668 89.5673 15.8683 92.3986 15.8683C94.5743 15.8683 96.6809 16.1629 98.6814 16.714C95.3962 13.9863 91.3594 12.1327 86.9276 11.5096Z"/>
<path d="M102.417 20.5241C102.287 19.8663 102.234 19.1872 102.234 18.4915C102.234 16.5117 102.775 14.6946 103.728 13.1146C105.124 14.288 106.217 15.784 106.852 17.5309C105.673 18.8775 104.14 19.9191 102.417 20.5241Z"/>
<path d="M116 39.7549C114.922 39.656 113.829 39.6054 112.725 39.6054C95.5089 39.6054 81.1622 51.8927 77.9764 68.1763C79.0547 68.2752 80.147 68.3257 81.251 68.3257C81.9354 68.3257 82.6153 68.3063 83.2901 68.268C86.3055 54.7914 98.3393 44.72 112.725 44.72C113.363 44.72 113.996 44.7398 114.624 44.7788C115.201 43.1554 115.663 41.4775 116 39.7549Z"/>
</mask>
<path d="M92.9672 26.0652C89.6841 24.6909 86.0826 23.9337 82.3145 23.9337V31.9337C85.0033 31.9337 87.5559 32.4727 89.8782 33.4448L92.9672 26.0652ZM88.5682 16.7538C88.8855 18.1524 89.0539 19.6112 89.0539 21.1143H97.0539C97.0539 19.0116 96.8181 16.959 96.3698 14.9835L88.5682 16.7538ZM106.234 18.4915C106.234 17.2634 106.564 16.1576 107.153 15.1807L100.303 11.0484C98.986 13.2315 98.2339 15.76 98.2339 18.4915H106.234ZM106.342 19.7533C106.272 19.3998 106.234 18.9854 106.234 18.4915H98.2339C98.2339 19.3889 98.3026 20.3328 98.4916 21.295L106.342 19.7533ZM101.237 13.6365C97.3976 10.449 92.6734 8.27807 87.4844 7.54859L86.3707 15.4707C90.0454 15.9873 93.3949 17.5237 96.1262 19.7915L101.237 13.6365ZM52 60.9983L44.0816 59.8585C43.7314 62.2914 44.519 64.7503 46.2177 66.5269C47.9163 68.3035 50.3374 69.2006 52.7836 68.9599L52 60.9983ZM69.5728 50.1893L76.3165 54.4931C77.5418 52.5732 77.8907 50.2221 77.2757 48.0291C76.6607 45.8362 75.1402 44.0093 73.0953 43.0065L69.5728 50.1893ZM62.3407 44.7L57.9215 38.0313L57.9215 38.0314L62.3407 44.7ZM63.5176 43.9688L65.5216 36.2239C63.4827 35.6963 61.318 35.994 59.4972 37.0525L63.5176 43.9688ZM69.3774 44.7199L69.4018 36.72L69.4009 36.7199L69.3774 44.7199ZM71.8925 51.1764L69.1608 58.6955C72.3154 59.8416 75.85 58.8967 78.0119 56.3294C80.1738 53.7621 80.5033 50.1183 78.837 47.2048L71.8925 51.1764ZM91.4227 29.755L98.867 32.6846L98.867 32.6845L91.4227 29.755ZM82.3145 35.9337C86.7328 35.9337 90.3145 32.352 90.3145 27.9337C90.3145 23.5154 86.7328 19.9337 82.3145 19.9337V35.9337ZM60.3403 42.8987L52.896 39.9692C51.3026 44.0181 53.2375 48.5981 57.2512 50.2783L60.3403 42.8987ZM92.469 15.8686L92.4925 7.86867L92.4876 7.86866L92.469 15.8686ZM70.2891 31.2221L62.7939 28.4252C61.6079 31.6035 62.5554 35.1842 65.1581 37.3599C67.7608 39.5357 71.4527 39.8334 74.3704 38.1028L70.2891 31.2221ZM101.054 21.1143C101.054 16.696 97.4722 13.1143 93.0539 13.1143C88.6356 13.1143 85.0539 16.696 85.0539 21.1143H101.054ZM98.7349 16.758L103.847 10.6046C103.83 10.59 103.812 10.5756 103.794 10.5612L98.7349 16.758ZM102.007 20.5837L109.484 17.7366C109.473 17.709 109.462 17.6815 109.452 17.654L102.007 20.5837ZM71.8962 51.1828L64.953 55.1566C65.8943 56.8013 67.3889 58.0585 69.1705 58.7042L71.8962 51.1828ZM98.6814 16.714L103.792 10.559C102.918 9.83373 101.9 9.3027 100.806 9.00121L98.6814 16.714ZM103.728 13.1146L96.8829 17.2553C97.3363 18.0047 97.9096 18.6746 98.58 19.2382L103.728 13.1146ZM102.417 20.5241L105.066 28.0728L105.066 28.0727L102.417 20.5241ZM102.321 20.558L99.635 13.0224L99.6348 13.0225L102.321 20.558ZM102.034 20.6552L94.549 23.4779C96.0388 27.4286 100.342 29.5414 104.379 28.3038L102.034 20.6552ZM86.9276 11.5096L80.9581 6.1838L80.958 6.18381L86.9276 11.5096ZM84.3368 17.2808L76.3891 16.3678C76.0728 19.1212 77.2042 21.8422 79.3794 23.5596C81.5547 25.2771 84.4639 25.7463 87.0688 24.7998L84.3368 17.2808ZM106.852 17.5309L112.871 22.8008C114.792 20.6062 115.367 17.54 114.371 14.7986L106.852 17.5309ZM116 39.7549L123.851 41.2909C124.286 39.0698 123.759 36.7687 122.402 34.9576C121.045 33.1465 118.984 31.9949 116.73 31.7883L116 39.7549ZM77.9764 68.1763L70.1253 66.6403C69.6907 68.8613 70.2173 71.1625 71.5744 72.9736C72.9315 74.7847 74.9922 75.9363 77.2459 76.1429L77.9764 68.1763ZM83.2901 68.268L83.7436 76.2552C87.314 76.0524 90.3162 73.5047 91.097 70.0148L83.2901 68.268ZM114.624 44.7788L114.128 52.7634C117.69 52.9846 120.967 50.8204 122.162 47.4582L114.624 44.7788ZM52.7836 68.9599C62.6987 67.984 71.2461 62.438 76.3165 54.4931L62.8292 45.8855C60.3073 49.837 56.0782 52.5583 51.2164 53.0368L52.7836 68.9599ZM57.9215 38.0314C50.5968 42.8853 45.3957 50.7296 44.0816 59.8585L59.9184 62.1382C60.5622 57.6659 63.1167 53.7829 66.7599 51.3686L57.9215 38.0314ZM56.3737 50.0287C59.0769 53.0556 62.358 55.5613 66.0504 57.372L73.0953 43.0065C71.2765 42.1146 69.6505 40.875 68.3077 39.3713L56.3737 50.0287ZM61.5136 51.7137C64.0282 52.3644 66.6568 52.712 69.3539 52.7199L69.4009 36.7199C68.0515 36.716 66.7533 36.5426 65.5216 36.2239L61.5136 51.7137ZM78.837 47.2048C78.086 45.8914 77.5222 44.4618 77.1791 42.9497L61.5757 46.4902C62.2752 49.573 63.4243 52.4837 64.948 55.148L78.837 47.2048ZM56.3736 50.0285C59.8132 53.8804 64.1908 56.8899 69.1608 58.6955L74.6243 43.6572C72.1848 42.7709 70.0177 41.2862 68.3078 39.3715L56.3736 50.0285ZM59.4972 37.0525C58.9615 37.3638 58.4361 37.6904 57.9215 38.0313L66.7599 51.3687C67.0144 51.2 67.2739 51.0387 67.5381 50.8852L59.4972 37.0525ZM82.3145 19.9337C68.9301 19.9337 57.5077 28.2505 52.896 39.9692L67.7846 45.8283C70.0699 40.0212 75.7246 35.9337 82.3145 35.9337V19.9337ZM57.2512 50.2783C61.0149 51.8537 65.1406 52.72 69.4484 52.72V36.72C67.2994 36.72 65.2711 36.2901 63.4293 35.5192L57.2512 50.2783ZM69.4484 52.72C82.8329 52.72 94.2553 44.4032 98.867 32.6846L83.9784 26.8254C81.6931 32.6325 76.0383 36.72 69.4484 36.72V52.72ZM92.4123 23.8686C92.425 23.8686 92.4377 23.8686 92.4504 23.8686L92.4876 7.86866C92.4625 7.8686 92.4373 7.86857 92.4123 7.86857V23.8686ZM77.7842 34.0191C80.0011 28.0783 85.7252 23.8686 92.4123 23.8686V7.86857C78.831 7.86857 67.2698 16.431 62.7939 28.4252L77.7842 34.0191ZM82.3145 19.9337C76.4473 19.9337 70.9309 21.54 66.2078 24.3415L74.3704 38.1028C76.6911 36.7262 79.3981 35.9337 82.3145 35.9337V19.9337ZM85.0539 21.1143C85.0539 23.1456 84.6701 25.0677 83.9784 26.8255L98.867 32.6845C100.281 29.0903 101.054 25.1827 101.054 21.1143H85.0539ZM93.6226 22.9114C93.9464 23.1804 94.1786 23.3759 94.3815 23.5571C94.5786 23.7331 94.6941 23.8482 94.761 23.9204C94.8966 24.0665 94.7235 23.9209 94.5632 23.5135L109.452 17.654C107.957 13.8551 104.921 11.4963 103.847 10.6046L93.6226 22.9114ZM111.545 28.9829C111.545 25.0365 110.818 21.2413 109.484 17.7366L94.5312 23.4309C95.184 25.1452 95.5454 27.0125 95.5454 28.9829H111.545ZM79.9396 60.5886C97.395 60.5886 111.545 46.4382 111.545 28.9829H95.5454C95.5454 37.6017 88.5584 44.5886 79.9396 44.5886V60.5886ZM69.1705 58.7042C72.5421 59.926 76.1724 60.5886 79.9396 60.5886V44.5886C78.058 44.5886 76.271 44.2591 74.6219 43.6615L69.1705 58.7042ZM61.5757 46.4902C62.276 49.5763 63.4268 52.49 64.953 55.1566L78.8395 47.209C78.0872 45.8945 77.5226 44.4634 77.1791 42.9497L61.5757 46.4902ZM69.4484 36.72C69.4296 36.72 69.4144 36.72 69.4018 36.72L69.353 52.7199C69.3875 52.72 69.4201 52.72 69.4484 52.72V36.72ZM85.0539 21.1143C85.0539 29.7332 78.0671 36.72 69.4484 36.72V52.72C86.9039 52.72 101.054 38.5695 101.054 21.1143H85.0539ZM100.806 9.00121C98.1491 8.26942 95.3598 7.87709 92.4925 7.86867L92.4455 23.8686C93.8794 23.8728 95.2561 24.0684 96.557 24.4267L100.806 9.00121ZM103.794 10.5612C103.793 10.5598 103.792 10.5591 103.792 10.559L93.571 22.869C93.6063 22.8983 93.6411 22.9269 93.6753 22.9548L103.794 10.5612ZM110.573 8.9739C107.389 3.70997 101.561 0 94.7588 0V16C95.5759 16 96.3915 16.4429 96.8829 17.2553L110.573 8.9739ZM105.007 28.0936C105.042 28.0813 105.055 28.0766 105.066 28.0728L99.7675 12.9755C99.7134 12.9945 99.6633 13.0123 99.635 13.0224L105.007 28.0936ZM104.379 28.3038C104.677 28.2125 104.933 28.1201 105.007 28.0935L99.6348 13.0225C99.6092 13.0316 99.5968 13.036 99.5863 13.0397C99.5772 13.043 99.5771 13.0429 99.5824 13.0411C99.594 13.0372 99.6333 13.0238 99.6897 13.0065L104.379 28.3038ZM93.571 22.869C93.9118 23.1519 94.1527 23.3539 94.3662 23.5439C94.5725 23.7276 94.6923 23.8467 94.7611 23.9209C94.8994 24.0701 94.7124 23.9113 94.549 23.4779L109.52 17.8325C108.029 13.8784 104.854 11.4407 103.792 10.559L93.571 22.869ZM94.7588 0C89.2707 0 84.3331 2.40088 80.9581 6.1838L92.8971 16.8355C93.3649 16.3112 94.0203 16 94.7588 16V0ZM80.958 6.18381C78.493 8.9468 76.8367 12.4715 76.3891 16.3678L92.2846 18.1938C92.3433 17.6823 92.5582 17.2154 92.8971 16.8355L80.958 6.18381ZM92.3986 7.86831C88.6222 7.86831 84.9834 8.53416 81.6049 9.7617L87.0688 24.7998C88.7213 24.1994 90.5124 23.8683 92.3986 23.8683V7.86831ZM100.806 9.00121C98.1206 8.26156 95.2997 7.86831 92.3986 7.86831V23.8683C93.849 23.8683 95.2412 24.0643 96.557 24.4267L100.806 9.00121ZM114.371 14.7986C113.222 11.6369 111.265 8.99933 108.876 6.99097L98.58 19.2382C98.9828 19.5767 99.2121 19.931 99.3328 20.2631L114.371 14.7986ZM105.066 28.0727C108.09 27.0114 110.783 25.1851 112.871 22.8008L100.833 12.261C100.562 12.5699 100.191 12.8269 99.7672 12.9756L105.066 28.0727ZM116.73 31.7883C115.41 31.6672 114.074 31.6054 112.725 31.6054V47.6054C113.585 47.6054 114.434 47.6448 115.269 47.7214L116.73 31.7883ZM112.725 31.6054C91.61 31.6054 74.0316 46.6737 70.1253 66.6403L85.8276 69.7124C88.2928 57.1118 99.4077 47.6054 112.725 47.6054V31.6054ZM81.251 60.3257C80.3912 60.3257 79.5427 60.2864 78.7069 60.2098L77.2459 76.1429C78.5667 76.264 79.9028 76.3257 81.251 76.3257V60.3257ZM82.8366 60.2809C82.3128 60.3106 81.7841 60.3257 81.251 60.3257V76.3257C82.0867 76.3257 82.9178 76.302 83.7436 76.2552L82.8366 60.2809ZM112.725 36.72C94.5137 36.72 79.2986 49.4687 75.4831 66.5212L91.097 70.0148C93.3123 60.1141 102.165 52.72 112.725 52.72V36.72ZM115.12 36.7942C114.327 36.7449 113.529 36.72 112.725 36.72V52.72C113.197 52.72 113.665 52.7347 114.128 52.7634L115.12 36.7942ZM108.149 38.2188C107.888 39.55 107.532 40.8459 107.086 42.0994L122.162 47.4582C122.87 45.465 123.438 43.405 123.851 41.2909L108.149 38.2188Z" fill="white" mask="url(#path-2-outside-1)"/>
<path d="M69.5728 50.3206C65.7767 56.2688 59.3884 60.4025 52 61.1296C52.979 54.3291 56.8567 48.4654 62.3407 44.8313C64.3637 47.0966 66.8173 48.9692 69.5728 50.3206Z" fill="black"/>
<path d="M63.5175 44.1001C65.3907 44.5848 67.3541 44.8453 69.3773 44.8512C69.8986 47.1487 70.7551 49.3188 71.8925 51.3077C68.1877 49.9617 64.9155 47.7146 62.3407 44.8312C62.7252 44.5764 63.1177 44.3325 63.5175 44.1001Z" fill="#A6A6A6"/>
<path d="M91.4226 29.886C88.6199 28.7128 85.5429 28.0647 82.3144 28.0647C72.3273 28.0647 63.7887 34.2669 60.3402 43.0297C63.1429 44.2029 66.2199 44.851 69.4484 44.851C79.4355 44.851 87.9741 38.6488 91.4226 29.886Z" fill="black"/>
<path d="M92.469 15.9996C92.4501 15.9995 92.4312 15.9995 92.4122 15.9995C82.2781 15.9995 73.6354 22.3856 70.2891 31.3531C73.811 29.264 77.9227 28.0647 82.3145 28.0647C85.5429 28.0647 88.6198 28.7127 91.4224 29.8858C92.4755 27.2099 93.0539 24.2951 93.0539 21.2452C93.0539 19.4423 92.8518 17.6866 92.469 15.9996Z" fill="#8C8C8C"/>
<path d="M98.7349 16.8893C100.043 17.9764 101.379 19.1183 102.007 20.7151C103.001 23.3246 103.545 26.1558 103.545 29.1142C103.545 42.1513 92.9768 52.7199 79.9397 52.7199C77.1152 52.7199 74.4066 52.2239 71.8963 51.3141C70.757 49.3236 69.8993 47.1512 69.3774 44.8512C69.401 44.8513 69.4246 44.8513 69.4482 44.8513C82.4853 44.8513 93.054 34.2827 93.054 21.2456C93.054 19.4427 92.8519 17.6871 92.4691 16C94.6197 16.0063 96.7026 16.3002 98.6815 16.8453C98.6992 16.86 98.717 16.8747 98.7349 16.8893Z" fill="#CC0000"/>
<path d="M94.7588 8.13135C98.5687 8.13135 101.89 10.2078 103.728 13.2459C102.775 14.8259 102.234 16.643 102.234 18.6228C102.234 19.3185 102.287 19.9976 102.417 20.6555C102.384 20.6669 102.352 20.6782 102.321 20.6893C102.226 20.7232 102.135 20.7558 102.034 20.7865C101.41 19.1305 100.026 17.9617 98.6814 16.8453C95.3962 14.1177 91.3594 12.264 86.9276 11.641C88.849 9.48737 91.6455 8.13135 94.7588 8.13135Z" fill="black"/>
<path d="M86.928 11.6406C85.526 13.2121 84.59 15.2082 84.3368 17.412C86.8523 16.498 89.5672 15.9996 92.3986 15.9996C94.5743 15.9996 96.6812 16.2939 98.6818 16.8449C95.3966 14.1173 91.3598 12.2637 86.928 11.6406Z" fill="#A6A6A6"/>
<path d="M101.924 20.4264C101.795 19.7686 101.741 19.0895 101.741 18.3937C101.741 16.414 102.282 14.5969 103.236 13.0168C104.631 14.1903 105.724 15.6862 106.359 17.4332C105.18 18.7798 103.648 19.8214 101.924 20.4264Z" fill="#595959"/>
<path d="M116 39.8862C114.922 39.7873 113.829 39.7368 112.725 39.7368C95.5088 39.7368 81.1621 52.0241 77.9763 68.3077C79.0546 68.4066 80.1469 68.4571 81.2509 68.4571C81.9353 68.4571 82.6152 68.4377 83.29 68.3994C86.3054 54.9228 98.3392 44.8514 112.725 44.8514C113.363 44.8514 113.996 44.8712 114.624 44.9102C115.201 43.2868 115.663 41.6089 116 39.8862Z" fill="#595959"/>
</g>
<defs>
<filter id="filter0_d" x="43.9999" y="0" width="80.0001" height="80.3258" filterUnits="userSpaceOnUse" color-interpolation-filters="sRGB">
<feFlood flood-opacity="0" result="BackgroundImageFix"/>
<feColorMatrix in="SourceAlpha" type="matrix" values="0 0 0 0 0 0 0 0 0 0 0 0 0 0 0 0 0 0 127 0"/>
<feOffset dy="4"/>
<feColorMatrix type="matrix" values="0 0 0 0 0 0 0 0 0 0 0 0 0 0 0 0 0 0 0.2 0"/>
<feBlend mode="normal" in2="BackgroundImageFix" result="effect1_dropShadow"/>
<feBlend mode="normal" in="SourceGraphic" in2="effect1_dropShadow" result="shape"/>
</filter>
</defs>
</svg>
