<svg width="168" height="120" viewBox="0 0 168 120" fill="none" xmlns="http://www.w3.org/2000/svg">
<path d="M67.6334 102L64.2734 91.504H65.6974L67.3774 97.168C67.5694 97.7973 67.7348 98.3787 67.8734 98.912C68.0228 99.4453 68.1988 100.021 68.4014 100.64H68.4654C68.6574 100.021 68.8281 99.4453 68.9774 98.912C69.1268 98.3787 69.2921 97.7973 69.4734 97.168L71.1534 91.504H72.5134L69.1854 102H67.6334ZM75.6074 102.192C74.7754 102.192 74.1674 101.936 73.7834 101.424C73.4101 100.912 73.2234 100.155 73.2234 99.152V94.224H74.5514V98.976C74.5514 99.712 74.6634 100.245 74.8874 100.576C75.1221 100.896 75.4954 101.056 76.0074 101.056C76.4128 101.056 76.7701 100.955 77.0794 100.752C77.3888 100.539 77.7301 100.203 78.1034 99.744V94.224H79.4154V102H78.3274L78.2154 100.784H78.1674C77.8048 101.211 77.4208 101.552 77.0154 101.808C76.6208 102.064 76.1514 102.192 75.6074 102.192ZM85.1906 102.192C84.6679 102.192 84.1772 102.101 83.7186 101.92C83.2706 101.728 82.8759 101.461 82.5346 101.12C82.2039 100.768 81.9426 100.341 81.7506 99.84C81.5586 99.3387 81.4626 98.768 81.4626 98.128C81.4626 97.488 81.5586 96.9173 81.7506 96.416C81.9532 95.904 82.2146 95.472 82.5346 95.12C82.8652 94.768 83.2386 94.5013 83.6546 94.32C84.0706 94.128 84.5026 94.032 84.9506 94.032C85.4412 94.032 85.8786 94.1173 86.2626 94.288C86.6572 94.4587 86.9826 94.704 87.2386 95.024C87.5052 95.344 87.7079 95.728 87.8466 96.176C87.9852 96.624 88.0546 97.1253 88.0546 97.68C88.0546 97.8187 88.0492 97.9573 88.0386 98.096C88.0386 98.224 88.0279 98.336 88.0066 98.432H82.7586C82.8119 99.264 83.0679 99.9253 83.5266 100.416C83.9959 100.896 84.6039 101.136 85.3506 101.136C85.7239 101.136 86.0652 101.083 86.3746 100.976C86.6946 100.859 86.9986 100.709 87.2866 100.528L87.7506 101.392C87.4092 101.605 87.0306 101.792 86.6146 101.952C86.1986 102.112 85.7239 102.192 85.1906 102.192ZM82.7426 97.488H86.9026C86.9026 96.6987 86.7319 96.1013 86.3906 95.696C86.0599 95.28 85.5906 95.072 84.9826 95.072C84.7052 95.072 84.4386 95.1253 84.1826 95.232C83.9372 95.3387 83.7132 95.4987 83.5106 95.712C83.3079 95.9147 83.1372 96.1653 82.9986 96.464C82.8706 96.7627 82.7852 97.104 82.7426 97.488ZM90.6641 102.192C90.3974 102.192 90.1681 102.101 89.9761 101.92C89.7947 101.728 89.7041 101.488 89.7041 101.2C89.7041 100.891 89.7947 100.645 89.9761 100.464C90.1681 100.272 90.3974 100.176 90.6641 100.176C90.9201 100.176 91.1387 100.272 91.3201 100.464C91.5121 100.645 91.6081 100.891 91.6081 101.2C91.6081 101.488 91.5121 101.728 91.3201 101.92C91.1387 102.101 90.9201 102.192 90.6641 102.192ZM93.5823 105.472C93.337 105.472 93.1183 105.451 92.9263 105.408C92.7343 105.365 92.569 105.317 92.4303 105.264L92.7023 104.272C92.7983 104.304 92.9103 104.331 93.0383 104.352C93.1663 104.384 93.2996 104.4 93.4383 104.4C93.8223 104.4 94.0783 104.267 94.2063 104C94.3343 103.733 94.3983 103.36 94.3983 102.88V94.224H95.7103V102.88C95.7103 103.669 95.5503 104.299 95.2303 104.768C94.9103 105.237 94.361 105.472 93.5823 105.472ZM95.0703 92.624C94.8143 92.624 94.5956 92.544 94.4143 92.384C94.2436 92.224 94.1583 92.0213 94.1583 91.776C94.1583 91.52 94.2436 91.3173 94.4143 91.168C94.5956 91.008 94.8143 90.928 95.0703 90.928C95.3156 90.928 95.5236 91.008 95.6943 91.168C95.8756 91.3173 95.9663 91.52 95.9663 91.776C95.9663 92.0213 95.8756 92.224 95.6943 92.384C95.5236 92.544 95.3156 92.624 95.0703 92.624ZM100.367 102.192C99.8128 102.192 99.2848 102.091 98.7834 101.888C98.2821 101.685 97.8448 101.429 97.4714 101.12L98.1274 100.24C98.4688 100.517 98.8154 100.741 99.1674 100.912C99.5301 101.083 99.9461 101.168 100.415 101.168C100.927 101.168 101.311 101.051 101.567 100.816C101.823 100.581 101.951 100.293 101.951 99.952C101.951 99.7493 101.898 99.5733 101.791 99.424C101.685 99.2747 101.546 99.1467 101.375 99.04C101.215 98.9227 101.029 98.8213 100.815 98.736C100.602 98.6507 100.389 98.5653 100.175 98.48C99.8981 98.384 99.6208 98.2773 99.3434 98.16C99.0661 98.032 98.8154 97.8827 98.5914 97.712C98.3781 97.5307 98.2021 97.3227 98.0634 97.088C97.9248 96.8533 97.8554 96.5707 97.8554 96.24C97.8554 95.9307 97.9141 95.6427 98.0314 95.376C98.1594 95.0987 98.3354 94.864 98.5594 94.672C98.7941 94.4693 99.0768 94.3147 99.4074 94.208C99.7381 94.0907 100.111 94.032 100.527 94.032C101.018 94.032 101.466 94.1173 101.871 94.288C102.287 94.4587 102.645 94.6667 102.943 94.912L102.319 95.744C102.053 95.5413 101.775 95.376 101.487 95.248C101.199 95.12 100.885 95.056 100.543 95.056C100.053 95.056 99.6901 95.168 99.4554 95.392C99.2314 95.616 99.1194 95.8773 99.1194 96.176C99.1194 96.3573 99.1674 96.5173 99.2634 96.656C99.3594 96.784 99.4874 96.9013 99.6474 97.008C99.8074 97.104 99.9888 97.1947 100.191 97.28C100.405 97.3547 100.623 97.4347 100.847 97.52C101.125 97.6267 101.402 97.7387 101.679 97.856C101.967 97.9733 102.223 98.1227 102.447 98.304C102.671 98.4747 102.853 98.688 102.991 98.944C103.141 99.2 103.215 99.5093 103.215 99.872C103.215 100.192 103.151 100.491 103.023 100.768C102.906 101.045 102.725 101.291 102.479 101.504C102.245 101.717 101.946 101.883 101.583 102C101.231 102.128 100.826 102.192 100.367 102.192Z" fill="black"/>
<g filter="url(#filter0_d)">
<path d="M90.4669 16L84 27.2L77.5331 16H56L84 64.4982L112 16H90.4669Z" fill="#4DBA87"/>
<path d="M90.4669 12C89.0379 12 87.7174 12.7623 87.0028 13.9999L84 19.2005L80.9971 13.9999C80.2826 12.7623 78.9621 12 77.5331 12H56C54.5709 12 53.2504 12.7624 52.5359 14C51.8214 15.2376 51.8214 16.7624 52.5359 18L80.5359 66.4982C81.2504 67.7358 82.5709 68.4982 84 68.4982C85.4291 68.4982 86.7496 67.7358 87.4641 66.4982L115.464 18C116.179 16.7624 116.179 15.2376 115.464 14C114.75 12.7624 113.429 12 112 12H90.4669Z" stroke="white" stroke-width="8" stroke-linejoin="round"/>
</g>
<path d="M90.467 16L84.0001 27.2L77.5332 16H67.2001L84.0001 45.0976L100.8 16H90.467Z" fill="#435466"/>
<defs>
<filter id="filter0_d" x="48" y="8" width="72" height="68.4982" filterUnits="userSpaceOnUse" color-interpolation-filters="sRGB">
<feFlood flood-opacity="0" result="BackgroundImageFix"/>
<feColorMatrix in="SourceAlpha" type="matrix" values="0 0 0 0 0 0 0 0 0 0 0 0 0 0 0 0 0 0 127 0"/>
<feOffset dy="4"/>
<feColorMatrix type="matrix" values="0 0 0 0 0 0 0 0 0 0 0 0 0 0 0 0 0 0 0.2 0"/>
<feBlend mode="normal" in2="BackgroundImageFix" result="effect1_dropShadow"/>
<feBlend mode="normal" in="SourceGraphic" in2="effect1_dropShadow" result="shape"/>
</filter>
</defs>
</svg>
