<svg width="168" height="121" viewBox="0 0 168 121" fill="none" xmlns="http://www.w3.org/2000/svg">
<path d="M55.9436 103L53.7196 92.504H55.0956L56.1996 98.216C56.2956 98.792 56.3969 99.3573 56.5036 99.912C56.6102 100.467 56.7116 101.032 56.8076 101.608H56.8716C56.9889 101.032 57.1116 100.467 57.2396 99.912C57.3676 99.3467 57.4902 98.7813 57.6076 98.216L59.0636 92.504H60.2796L61.7356 98.216C61.8636 98.7707 61.9916 99.3307 62.1196 99.896C62.2476 100.461 62.3756 101.032 62.5036 101.608H62.5676C62.6636 101.032 62.7596 100.467 62.8556 99.912C62.9516 99.3467 63.0529 98.7813 63.1596 98.216L64.2636 92.504H65.5436L63.3676 103H61.7676L60.1836 96.68C60.0876 96.2747 59.9969 95.88 59.9116 95.496C59.8369 95.1013 59.7569 94.7013 59.6716 94.296H59.6076C59.5222 94.7013 59.4316 95.1013 59.3356 95.496C59.2502 95.88 59.1649 96.2747 59.0796 96.68L57.5276 103H55.9436ZM70.3937 103.192C69.871 103.192 69.3804 103.101 68.9217 102.92C68.4737 102.728 68.079 102.461 67.7377 102.12C67.407 101.768 67.1457 101.341 66.9537 100.84C66.7617 100.339 66.6657 99.768 66.6657 99.128C66.6657 98.488 66.7617 97.9173 66.9537 97.416C67.1564 96.904 67.4177 96.472 67.7377 96.12C68.0684 95.768 68.4417 95.5013 68.8577 95.32C69.2737 95.128 69.7057 95.032 70.1537 95.032C70.6444 95.032 71.0817 95.1173 71.4657 95.288C71.8604 95.4587 72.1857 95.704 72.4417 96.024C72.7084 96.344 72.911 96.728 73.0497 97.176C73.1884 97.624 73.2577 98.1253 73.2577 98.68C73.2577 98.8187 73.2524 98.9573 73.2417 99.096C73.2417 99.224 73.231 99.336 73.2097 99.432H67.9617C68.015 100.264 68.271 100.925 68.7297 101.416C69.199 101.896 69.807 102.136 70.5537 102.136C70.927 102.136 71.2684 102.083 71.5777 101.976C71.8977 101.859 72.2017 101.709 72.4897 101.528L72.9537 102.392C72.6124 102.605 72.2337 102.792 71.8177 102.952C71.4017 103.112 70.927 103.192 70.3937 103.192ZM67.9457 98.488H72.1057C72.1057 97.6987 71.935 97.1013 71.5937 96.696C71.263 96.28 70.7937 96.072 70.1857 96.072C69.9084 96.072 69.6417 96.1253 69.3857 96.232C69.1404 96.3387 68.9164 96.4987 68.7137 96.712C68.511 96.9147 68.3404 97.1653 68.2017 97.464C68.0737 97.7627 67.9884 98.104 67.9457 98.488ZM78.6192 103.192C78.2565 103.192 77.8779 103.107 77.4832 102.936C77.0992 102.755 76.7365 102.509 76.3952 102.2H76.3472L76.2352 103H75.1792V91.608H76.4912V94.712L76.4592 96.12C76.8112 95.8107 77.1952 95.5547 77.6112 95.352C78.0272 95.1387 78.4539 95.032 78.8912 95.032C79.3925 95.032 79.8352 95.128 80.2192 95.32C80.6032 95.5013 80.9232 95.768 81.1792 96.12C81.4459 96.4613 81.6432 96.8773 81.7712 97.368C81.9099 97.848 81.9792 98.3867 81.9792 98.984C81.9792 99.6453 81.8885 100.237 81.7072 100.76C81.5259 101.283 81.2805 101.725 80.9712 102.088C80.6619 102.451 80.3045 102.728 79.8992 102.92C79.4939 103.101 79.0672 103.192 78.6192 103.192ZM78.3952 102.088C78.7152 102.088 79.0085 102.019 79.2752 101.88C79.5525 101.731 79.7872 101.528 79.9792 101.272C80.1819 101.005 80.3365 100.68 80.4432 100.296C80.5605 99.912 80.6192 99.48 80.6192 99C80.6192 98.5733 80.5819 98.184 80.5072 97.832C80.4325 97.48 80.3099 97.1813 80.1392 96.936C79.9792 96.68 79.7659 96.4827 79.4992 96.344C79.2432 96.2053 78.9339 96.136 78.5712 96.136C77.9419 96.136 77.2485 96.488 76.4912 97.192V101.272C76.8325 101.571 77.1685 101.784 77.4992 101.912C77.8405 102.029 78.1392 102.088 78.3952 102.088ZM84.0229 106.28V95.224H85.1109L85.2229 96.12H85.2709C85.6229 95.8213 86.0069 95.5653 86.4229 95.352C86.8496 95.1387 87.2923 95.032 87.7509 95.032C88.2523 95.032 88.6949 95.128 89.0789 95.32C89.4629 95.5013 89.7829 95.768 90.0389 96.12C90.2949 96.4613 90.4869 96.8773 90.6149 97.368C90.7536 97.848 90.8229 98.392 90.8229 99C90.8229 99.6613 90.7323 100.253 90.5509 100.776C90.3696 101.288 90.1243 101.725 89.8149 102.088C89.5056 102.451 89.1483 102.728 88.7429 102.92C88.3376 103.101 87.9109 103.192 87.4629 103.192C87.1003 103.192 86.7376 103.112 86.3749 102.952C86.0229 102.792 85.6656 102.573 85.3029 102.296L85.3349 103.656V106.28H84.0229ZM87.2389 102.088C87.5589 102.088 87.8523 102.019 88.1189 101.88C88.3963 101.731 88.6309 101.528 88.8229 101.272C89.0256 101.005 89.1803 100.68 89.2869 100.296C89.4043 99.912 89.4629 99.48 89.4629 99C89.4629 98.5733 89.4256 98.184 89.3509 97.832C89.2763 97.48 89.1536 97.1813 88.9829 96.936C88.8229 96.68 88.6096 96.4827 88.3429 96.344C88.0869 96.2053 87.7776 96.136 87.4149 96.136C87.0843 96.136 86.7483 96.2267 86.4069 96.408C86.0763 96.5893 85.7189 96.8507 85.3349 97.192V101.272C85.6869 101.571 86.0283 101.784 86.3589 101.912C86.6896 102.029 86.9829 102.088 87.2389 102.088ZM94.4712 103.192C93.8205 103.192 93.2765 103 92.8392 102.616C92.4125 102.232 92.1992 101.688 92.1992 100.984C92.1992 100.131 92.5779 99.48 93.3352 99.032C94.0925 98.5733 95.3032 98.2533 96.9672 98.072C96.9672 97.8267 96.9405 97.5867 96.8872 97.352C96.8445 97.1173 96.7645 96.9093 96.6472 96.728C96.5299 96.5467 96.3645 96.4027 96.1512 96.296C95.9485 96.1787 95.6872 96.12 95.3672 96.12C94.9192 96.12 94.4979 96.2053 94.1032 96.376C93.7085 96.5467 93.3565 96.7387 93.0472 96.952L92.5352 96.04C92.8979 95.8053 93.3405 95.5813 93.8632 95.368C94.3859 95.144 94.9619 95.032 95.5912 95.032C96.5405 95.032 97.2285 95.3253 97.6552 95.912C98.0819 96.488 98.2952 97.2613 98.2952 98.232V103H97.2072L97.0952 102.072H97.0472C96.6739 102.381 96.2739 102.648 95.8472 102.872C95.4205 103.085 94.9619 103.192 94.4712 103.192ZM94.8552 102.136C95.2285 102.136 95.5805 102.051 95.9112 101.88C96.2419 101.699 96.5939 101.437 96.9672 101.096V98.936C96.3165 99.0213 95.7672 99.1227 95.3192 99.24C94.8819 99.3573 94.5245 99.496 94.2472 99.656C93.9805 99.816 93.7832 100.003 93.6552 100.216C93.5379 100.419 93.4792 100.643 93.4792 100.888C93.4792 101.336 93.6125 101.656 93.8792 101.848C94.1459 102.04 94.4712 102.136 94.8552 102.136ZM103.814 103.192C103.302 103.192 102.822 103.101 102.374 102.92C101.926 102.739 101.536 102.477 101.206 102.136C100.886 101.784 100.63 101.357 100.438 100.856C100.256 100.344 100.166 99.768 100.166 99.128C100.166 98.4773 100.267 97.9013 100.47 97.4C100.672 96.888 100.944 96.456 101.286 96.104C101.627 95.752 102.022 95.4853 102.47 95.304C102.928 95.1227 103.408 95.032 103.91 95.032C104.422 95.032 104.859 95.1227 105.222 95.304C105.584 95.4853 105.904 95.6987 106.182 95.944L105.51 96.808C105.286 96.6053 105.046 96.44 104.79 96.312C104.544 96.184 104.267 96.12 103.958 96.12C103.606 96.12 103.28 96.1947 102.982 96.344C102.683 96.4827 102.427 96.6853 102.214 96.952C102 97.2187 101.83 97.5387 101.702 97.912C101.584 98.2747 101.526 98.68 101.526 99.128C101.526 99.576 101.584 99.9813 101.702 100.344C101.819 100.707 101.979 101.021 102.182 101.288C102.395 101.544 102.651 101.747 102.95 101.896C103.248 102.035 103.574 102.104 103.926 102.104C104.288 102.104 104.619 102.029 104.918 101.88C105.227 101.72 105.504 101.533 105.75 101.32L106.326 102.2C105.974 102.509 105.584 102.755 105.158 102.936C104.731 103.107 104.283 103.192 103.814 103.192ZM108.039 103V91.608H109.335V99.32H109.383L112.695 95.224H114.151L111.543 98.344L114.503 103H113.063L110.791 99.256L109.335 100.952V103H108.039Z" fill="black"/>
<g filter="url(#filter0_d)">
<path d="M85.945 5.32374C84.71 4.61311 83.1902 4.61311 81.9552 5.32375L58.0051 19.1047C56.7646 19.8185 56 21.1406 56 22.5717V50.1338C56 51.565 56.7646 52.8871 58.005 53.6008L81.9552 67.382C83.1902 68.0926 84.71 68.0926 85.9451 67.382L109.895 53.6008C111.136 52.8871 111.9 51.565 111.9 50.1338V22.5717C111.9 21.1406 111.136 19.8185 109.895 19.1047L85.945 5.32374Z" stroke="white" stroke-width="8" stroke-linejoin="round"/>
<path d="M84.0058 8.87573L60.0557 22.6567V50.2188L84.0058 63.9999L107.956 50.2188V22.6567L84.0058 8.87573Z" fill="url(#paint0_radial)"/>
<path d="M84.0064 22.855L72.1294 29.6889V43.3572L84.0064 50.1913L95.8834 43.3572V29.6889L84.0064 22.855Z" fill="#6F95DB"/>
<path d="M84 8.79077L60 22.6657L84 35.6891L108 22.7507L84 8.79077ZM84 37.4767L60 50.1596L84 63.9492L107.915 50.0744L84 37.4769V37.4767Z" fill="white" fill-opacity="0.1"/>
</g>
<defs>
<filter id="filter0_d" x="52" y="0.790771" width="63.9004" height="75.1242" filterUnits="userSpaceOnUse" color-interpolation-filters="sRGB">
<feFlood flood-opacity="0" result="BackgroundImageFix"/>
<feColorMatrix in="SourceAlpha" type="matrix" values="0 0 0 0 0 0 0 0 0 0 0 0 0 0 0 0 0 0 127 0"/>
<feOffset dy="4"/>
<feColorMatrix type="matrix" values="0 0 0 0 0 0 0 0 0 0 0 0 0 0 0 0 0 0 0.2 0"/>
<feBlend mode="normal" in2="BackgroundImageFix" result="effect1_dropShadow"/>
<feBlend mode="normal" in="SourceGraphic" in2="effect1_dropShadow" result="shape"/>
</filter>
<radialGradient id="paint0_radial" cx="0" cy="0" r="1" gradientUnits="userSpaceOnUse" gradientTransform="translate(84.0059 36.4378) scale(23.9502 27.5621)">
<stop stop-color="#93B4E7"/>
<stop offset="0.59273" stop-color="#B9D1F8"/>
<stop offset="1" stop-color="#9CB6E0"/>
</radialGradient>
</defs>
</svg>
