<svg width="58" height="56" viewBox="0 0 58 56" fill="none" xmlns="http://www.w3.org/2000/svg">
    <path d="M49.1797 17.0391L41.4875 14.8413C41.4397 15.0086 41.3974 15.1774 41.3606 15.3474L49.1797 17.0391ZM46.0156 31.6641L53.6051 34.1939C53.6968 33.9189 53.7734 33.639 53.8347 33.3557L46.0156 31.6641ZM22.3906 33V25C19.9827 25 17.7028 26.0846 16.1837 27.9529C14.6645 29.8211 14.0677 32.2743 14.5588 34.6316L22.3906 33ZM23.0938 36.375L15.2619 38.0066C16.0348 41.7164 19.3043 44.375 23.0938 44.375V36.375ZM44.5391 38.4141L36.8469 36.2163C36.7876 36.4238 36.7367 36.6335 36.6944 36.8451L44.5391 38.4141ZM44.4688 38.7656L36.6241 37.1967C36.0995 39.8196 36.9205 42.5311 38.8119 44.4225L44.4688 38.7656ZM37.5078 39.75L44.3678 43.866C45.8506 41.3945 45.8895 38.3165 44.4694 35.8084C43.0494 33.3003 40.39 31.75 37.5078 31.75V39.75ZM27.2422 39.75V31.75C24.36 31.75 21.7006 33.3003 20.2806 35.8084C18.8605 38.3165 18.8994 41.3945 20.3822 43.866L27.2422 39.75ZM20.1406 38.9062L25.7975 44.5631C27.6824 42.6782 28.5046 39.9783 27.9903 37.3628L20.1406 38.9062ZM15.2188 13.875L23.0684 12.3315C22.3308 8.58015 19.042 5.875 15.2188 5.875V13.875ZM18.3125 11.8359L26.189 10.4357C26.0934 9.89811 25.9431 9.37175 25.7403 8.86481L18.3125 11.8359ZM18.875 15L10.9985 16.4003C11.6773 20.2185 14.9969 23 18.875 23V15ZM24.5703 40.8047L30.8173 35.8071C30.4482 35.3458 30.0292 34.9268 29.5679 34.5577L24.5703 40.8047ZM22.1797 43.1953L28.4266 38.1978C28.0576 37.7364 27.6386 37.3174 27.1772 36.9484L22.1797 43.1953ZM42.5703 40.8047L48.8173 35.8071C48.4482 35.3458 48.0292 34.9268 47.5679 34.5577L42.5703 40.8047ZM40.1797 43.1953L46.4266 38.1978C46.0576 37.7364 45.6386 37.3174 45.1772 36.9484L40.1797 43.1953ZM42.9922 29.625V37.625C46.7517 37.625 50.004 35.0072 50.8074 31.3346L42.9922 29.625ZM45.4531 18.375L53.2683 20.0846C53.7859 17.7186 53.2037 15.2455 51.6852 13.3589C50.1666 11.4722 47.875 10.375 45.4531 10.375V18.375ZM19.5781 18.375V10.375C17.1898 10.375 14.9264 11.4421 13.4067 13.2845C11.887 15.1269 11.2699 17.552 11.7242 19.8967L19.5781 18.375ZM21.7578 29.625L13.9039 31.1467C14.6327 34.9083 17.9263 37.625 21.7578 37.625V29.625ZM47.5625 23C46.6223 23 45.619 22.7879 44.6703 22.3136C43.7452 21.8511 43.0982 21.2533 42.6824 20.7543L54.9739 10.5113C53.3008 8.50365 50.7224 7 47.5625 7V23ZM42.6824 20.7543C41.7053 19.5819 40.7567 17.399 41.4875 14.8413L56.8719 19.2368C57.8839 15.6948 56.654 12.5275 54.9739 10.5113L42.6824 20.7543ZM41.3606 15.3474L38.1965 29.9724L53.8347 33.3557L56.9988 18.7307L41.3606 15.3474ZM38.4262 29.1342C38.5772 28.6812 38.8005 28.214 39.0956 27.7714C39.3743 27.3533 39.6332 27.0843 39.726 26.9916L51.0397 38.3053C51.9129 37.4321 52.9611 36.1258 53.6051 34.1939L38.4262 29.1342ZM39.726 26.9916C41.5787 25.1389 43.7344 25 44.3984 25V41C45.7656 41 48.6245 40.7205 51.0397 38.3053L39.726 26.9916ZM44.3984 25H22.3906V41H44.3984V25ZM14.5588 34.6316L15.2619 38.0066L30.9256 34.7434L30.2225 31.3684L14.5588 34.6316ZM23.0938 44.375H42.9219V28.375H23.0938V44.375ZM42.9219 44.375C41.9817 44.375 40.9784 44.1629 40.0297 43.6886C39.1046 43.2261 38.4575 42.6283 38.0417 42.1293L50.3333 31.8863C48.6602 29.8786 46.0818 28.375 42.9219 28.375V44.375ZM38.0417 42.1293C37.0647 40.9569 36.1161 38.774 36.8469 36.2163L52.2313 40.6118C53.2433 37.0698 52.0134 33.9025 50.3333 31.8863L38.0417 42.1293ZM36.6944 36.8451L36.6241 37.1967L52.3134 40.3346L52.3837 39.983L36.6944 36.8451ZM38.8119 44.4225C38.6843 44.2949 38.4207 43.9894 38.1992 43.489C37.9689 42.9686 37.875 42.4416 37.875 42H53.875C53.875 38.3436 52.3383 35.3215 50.1256 33.1088L38.8119 44.4225ZM37.875 42C37.875 41.0936 38.2616 40.1981 38.8822 39.5775L50.1959 50.8912C52.504 48.5831 53.875 45.4377 53.875 42H37.875ZM38.8822 39.5775C39.1871 39.2727 39.6151 38.9674 40.1441 38.7558C40.6638 38.5479 41.1061 38.5 41.375 38.5V54.5C44.6195 54.5 47.7538 53.3333 50.1959 50.8912L38.8822 39.5775ZM41.375 38.5C41.633 38.5 42.0251 38.544 42.4876 38.723C42.9613 38.9064 43.4171 39.1971 43.7975 39.5775L32.4838 50.8912C35.0132 53.4206 38.265 54.5 41.375 54.5V38.5ZM43.7975 39.5775C44.1779 39.9579 44.4686 40.4137 44.652 40.8874C44.831 41.3499 44.875 41.742 44.875 42H28.875C28.875 45.11 29.9544 48.3618 32.4838 50.8912L43.7975 39.5775ZM44.875 42C44.875 42.6979 44.6808 43.3442 44.3678 43.866L30.6479 35.634C29.4911 37.562 28.875 39.7553 28.875 42H44.875ZM37.5078 31.75H27.2422V47.75H37.5078V31.75ZM20.3822 43.866C20.0692 43.3442 19.875 42.6979 19.875 42H35.875C35.875 39.7553 35.2589 37.562 34.1021 35.634L20.3822 43.866ZM19.875 42C19.875 41.0936 20.2616 40.1981 20.8822 39.5775L32.1959 50.8912C34.504 48.5831 35.875 45.4377 35.875 42H19.875ZM20.8822 39.5775C21.1871 39.2727 21.6151 38.9674 22.1441 38.7558C22.6638 38.5479 23.1061 38.5 23.375 38.5V54.5C26.6195 54.5 29.7538 53.3333 32.1959 50.8912L20.8822 39.5775ZM23.375 38.5C23.633 38.5 24.0251 38.544 24.4876 38.723C24.9613 38.9064 25.4171 39.1971 25.7975 39.5775L14.4838 50.8912C17.0132 53.4206 20.265 54.5 23.375 54.5V38.5ZM25.7975 39.5775C26.1023 39.8824 26.4076 40.3104 26.6192 40.8394C26.8271 41.3591 26.875 41.8014 26.875 42.0703H10.875C10.875 45.3148 12.0417 48.4491 14.4838 50.8912L25.7975 39.5775ZM26.875 42.0703C26.875 42.3392 26.8271 42.7815 26.6192 43.3012C26.4076 43.8302 26.1023 44.2583 25.7975 44.5631L14.4838 33.2494C12.0417 35.6915 10.875 38.8258 10.875 42.0703H26.875ZM27.9903 37.3628L23.0684 12.3315L7.36906 15.4185L12.2909 40.4497L27.9903 37.3628ZM15.2188 5.875H9.59375V21.875H15.2188V5.875ZM9.59375 5.875C10.5457 5.875 12.729 6.1184 14.6178 8.00721L3.30408 19.3209C5.47415 21.491 8.07934 21.875 9.59375 21.875V5.875ZM14.6178 8.00721C16.5066 9.89602 16.75 12.0793 16.75 13.0312H0.75C0.75 14.5457 1.13402 17.1509 3.30408 19.3209L14.6178 8.00721ZM16.75 13.0312V11.3438H0.75V13.0312H16.75ZM16.75 11.3438C16.75 12.7206 16.317 14.7389 14.6178 16.4381L3.30408 5.1244C1.32367 7.10481 0.75 9.54498 0.75 11.3438H16.75ZM14.6178 16.4381C13.8864 17.1695 12.1826 18.5 9.59375 18.5V2.5C6.44244 2.5 4.31668 4.1118 3.30408 5.1244L14.6178 16.4381ZM9.59375 18.5H16.625V2.5H9.59375V18.5ZM16.625 18.5C15.9342 18.5 15.1052 18.3818 14.234 18.0333C13.3534 17.6811 12.6089 17.1648 12.0228 16.5787L23.3365 5.26502C21.4569 3.38541 19.0258 2.5 16.625 2.5V18.5ZM12.0228 16.5787C11.931 16.4869 11.7345 16.2797 11.5131 15.966C11.2812 15.6375 11.061 15.2478 10.8847 14.8071L25.7403 8.86481C25.079 7.21154 24.1209 6.04938 23.3365 5.26502L12.0228 16.5787ZM10.436 13.2362L10.9985 16.4003L26.7515 13.5997L26.189 10.4357L10.436 13.2362ZM18.875 23H47.5625V7H18.875V23ZM23.375 51.6875C25.6856 51.6875 28.2182 50.8611 30.2272 48.8522L18.9135 37.5385C20.2193 36.2326 21.9081 35.6875 23.375 35.6875V51.6875ZM30.2272 48.8522C31.8634 47.2159 33.0625 44.8109 33.0625 42H17.0625C17.0625 40.1735 17.8397 38.6122 18.9135 37.5385L30.2272 48.8522ZM33.0625 42C33.0625 39.0251 31.6667 36.869 30.8173 35.8071L18.3234 45.8022C18.1146 45.5413 17.8325 45.1343 17.5853 44.5658C17.3386 43.9984 17.0625 43.1185 17.0625 42H33.0625ZM29.5679 34.5577C28.506 33.7083 26.3499 32.3125 23.375 32.3125V48.3125C22.2565 48.3125 21.3766 48.0364 20.8092 47.7897C20.2407 47.5425 19.8337 47.2604 19.5728 47.0516L29.5679 34.5577ZM23.375 32.3125C20.5641 32.3125 18.1591 33.5116 16.5228 35.1478L27.8365 46.4615C26.7628 47.5353 25.2015 48.3125 23.375 48.3125V32.3125ZM16.5228 35.1478C14.5139 37.1568 13.6875 39.6894 13.6875 42H29.6875C29.6875 43.4669 29.1424 45.1557 27.8365 46.4615L16.5228 35.1478ZM13.6875 42C13.6875 43.9659 14.2941 47.1319 17.1821 49.4423L27.1772 36.9484C29.3621 38.6963 29.6875 41.0185 29.6875 42H13.6875ZM15.9327 48.1929C18.2431 51.0809 21.4091 51.6875 23.375 51.6875V35.6875C24.3565 35.6875 26.6787 36.0129 28.4266 38.1978L15.9327 48.1929ZM41.375 51.6875C43.6856 51.6875 46.2182 50.8611 48.2272 48.8522L36.9135 37.5385C38.2193 36.2326 39.9081 35.6875 41.375 35.6875V51.6875ZM48.2272 48.8522C49.8634 47.2159 51.0625 44.8109 51.0625 42H35.0625C35.0625 40.1735 35.8397 38.6122 36.9135 37.5385L48.2272 48.8522ZM51.0625 42C51.0625 39.0251 49.6667 36.869 48.8173 35.8071L36.3234 45.8022C36.1146 45.5413 35.8325 45.1343 35.5853 44.5658C35.3386 43.9984 35.0625 43.1185 35.0625 42H51.0625ZM47.5679 34.5577C46.506 33.7083 44.3499 32.3125 41.375 32.3125V48.3125C40.2565 48.3125 39.3766 48.0364 38.8092 47.7897C38.2407 47.5425 37.8337 47.2604 37.5728 47.0516L47.5679 34.5577ZM41.375 32.3125C38.5641 32.3125 36.1591 33.5116 34.5228 35.1478L45.8365 46.4615C44.7628 47.5353 43.2015 48.3125 41.375 48.3125V32.3125ZM34.5228 35.1478C32.5139 37.1568 31.6875 39.6894 31.6875 42H47.6875C47.6875 43.4669 47.1424 45.1557 45.8365 46.4615L34.5228 35.1478ZM31.6875 42C31.6875 43.9659 32.2941 47.1319 35.1821 49.4423L45.1772 36.9484C47.3621 38.6963 47.6875 41.0185 47.6875 42H31.6875ZM33.9327 48.1929C36.2431 51.0809 39.4091 51.6875 41.375 51.6875V35.6875C42.3565 35.6875 44.6787 36.0129 46.4266 38.1978L33.9327 48.1929ZM50.8074 31.3346L53.2683 20.0846L37.6379 16.6654L35.177 27.9154L50.8074 31.3346ZM45.4531 10.375H19.5781V26.375H45.4531V10.375ZM11.7242 19.8967L13.9039 31.1467L29.6118 28.1033L27.4321 16.8533L11.7242 19.8967ZM21.7578 37.625H42.9922V21.625H21.7578V37.625Z" fill="white"/>
    <path d="M47.5625 15C48.0547 15 48.4766 15.2109 48.8281 15.6328C49.1797 16.0547 49.3203 16.5469 49.1797 17.0391L46.0156 31.6641C45.875 32.0859 45.6641 32.3672 45.3828 32.6484C45.1016 32.9297 44.75 33 44.3984 33H22.3906L23.0938 36.375H42.9219C43.4141 36.375 43.8359 36.5859 44.1875 37.0078C44.5391 37.4297 44.6797 37.9219 44.5391 38.4141L44.4688 38.7656C45.3828 39.6797 45.875 40.7344 45.875 42C45.875 43.2656 45.3828 44.3906 44.5391 45.2344C43.6953 46.0781 42.6406 46.5 41.375 46.5C40.1094 46.5 38.9844 46.0781 38.1406 45.2344C37.2969 44.3906 36.875 43.2656 36.875 42C36.875 41.2266 37.0859 40.4531 37.5078 39.75H27.2422C27.6641 40.4531 27.875 41.2266 27.875 42C27.875 43.2656 27.3828 44.3906 26.5391 45.2344C25.6953 46.0781 24.6406 46.5 23.375 46.5C22.1094 46.5 20.9844 46.0781 20.1406 45.2344C19.2969 44.3906 18.875 43.3359 18.875 42.0703C18.875 40.8047 19.2969 39.75 20.1406 38.9062L15.2188 13.875H9.59375C9.3125 13.875 9.10156 13.8047 8.96094 13.6641C8.82031 13.5234 8.75 13.3125 8.75 13.0312V11.3438C8.75 11.1328 8.82031 10.9219 8.96094 10.7812C9.10156 10.6406 9.3125 10.5 9.59375 10.5H16.625C17.0469 10.5 17.3984 10.6406 17.6797 10.9219C17.9609 11.2031 18.1719 11.4844 18.3125 11.8359L18.875 15H47.5625ZM23.375 43.6875C23.7969 43.6875 24.2188 43.5469 24.5703 43.1953C24.8516 42.9141 25.0625 42.4922 25.0625 42C25.0625 41.5781 24.8516 41.1562 24.5703 40.8047C24.2188 40.5234 23.7969 40.3125 23.375 40.3125C22.8828 40.3125 22.4609 40.5234 22.1797 40.8047C21.8281 41.1562 21.6875 41.5781 21.6875 42C21.6875 42.4922 21.8281 42.9141 22.1797 43.1953C22.4609 43.5469 22.8828 43.6875 23.375 43.6875ZM41.375 43.6875C41.7969 43.6875 42.2188 43.5469 42.5703 43.1953C42.8516 42.9141 43.0625 42.4922 43.0625 42C43.0625 41.5781 42.8516 41.1562 42.5703 40.8047C42.2188 40.5234 41.7969 40.3125 41.375 40.3125C40.8828 40.3125 40.4609 40.5234 40.1797 40.8047C39.8281 41.1562 39.6875 41.5781 39.6875 42C39.6875 42.4922 39.8281 42.9141 40.1797 43.1953C40.4609 43.5469 40.8828 43.6875 41.375 43.6875ZM42.9922 29.625L45.4531 18.375H19.5781L21.7578 29.625H42.9922Z" fill="#70C000"/>
</svg>
