<svg width="41" height="55" viewBox="0 0 41 55" fill="none" xmlns="http://www.w3.org/2000/svg">
<path d="M25.6343 32.122L18.4789 35.6997L18.4789 35.6997L25.6343 32.122ZM23.1503 29.746L19.2282 36.7186C19.2585 36.7357 19.2889 36.7525 19.3195 36.7692L23.1503 29.746ZM18.4523 28.288L17.1371 36.1792C17.1449 36.1804 17.1526 36.1817 17.1604 36.183L18.4523 28.288ZM11.0543 27.802L3.1063 26.8913C2.84671 29.1568 3.56625 31.4254 5.08414 33.1271C6.60202 34.8289 8.77397 35.802 11.0543 35.802V27.802ZM11.9723 17.974L19.9529 18.5308L19.9533 18.5244L11.9723 17.974ZM12.5123 8.578V0.577999C8.23689 0.577999 4.7171 3.93967 4.52074 8.21057L12.5123 8.578ZM31.6283 8.578H39.6283C39.6283 4.15972 36.0466 0.577999 31.6283 0.577999V8.578ZM31.6283 14.086V22.086C36.0466 22.086 39.6283 18.5043 39.6283 14.086H31.6283ZM18.0743 14.086V6.086C13.8385 6.086 10.3368 9.38773 10.0881 13.6162L18.0743 14.086ZM17.9123 16.192L9.94515 15.4677C9.93475 15.5821 9.92682 15.6967 9.92135 15.8115L17.9123 16.192ZM17.7503 18.514L9.78315 17.7897C9.77223 17.9099 9.76403 18.0302 9.75855 18.1507L17.7503 18.514ZM17.5883 20.782L25.5486 21.578L25.5486 21.578L17.5883 20.782ZM17.3723 22.618L9.4527 21.4866C9.13537 23.7079 9.76549 25.9604 11.1894 27.6945C12.6132 29.4287 14.6999 30.4852 16.9405 30.6063L17.3723 22.618ZM29.1443 26.29L23.938 32.3641C23.9689 32.3906 24 32.4168 24.0314 32.4429L29.1443 26.29ZM32.1143 39.736L24.6865 36.7649L24.6865 36.7649L32.1143 39.736ZM29.4683 43.462L24.1874 37.4527L24.1874 37.4527L29.4683 43.462ZM24.9863 45.946L27.4245 53.5654C27.4703 53.5507 27.516 53.5357 27.5615 53.5202L24.9863 45.946ZM15.6983 46.594L14.5669 54.5136L14.5669 54.5136L15.6983 46.594ZM12.7823 46.054L14.5812 38.2589C14.5048 38.2412 14.4281 38.2247 14.3512 38.2094L12.7823 46.054ZM10.3523 45.46L12.6511 37.7974L12.6511 37.7974L10.3523 45.46ZM8.7323 44.866L0.928239 43.1063C0.11871 46.6963 1.86289 50.3756 5.15459 52.0214L8.7323 44.866ZM9.9743 39.358L13.4138 32.1351C11.2179 31.0895 8.66559 31.0995 6.47803 32.1624C4.29046 33.2254 2.70523 35.2257 2.17024 37.5983L9.9743 39.358ZM13.2143 40.546L10.8616 48.1922C10.9384 48.2159 11.0156 48.2383 11.093 48.2596L13.2143 40.546ZM22.0703 40.708L24.2681 48.4002C24.3519 48.3762 24.4354 48.3509 24.5184 48.3242L22.0703 40.708ZM24.5003 39.412L19.3788 33.2662C19.321 33.3144 19.2638 33.3635 19.2073 33.4133L24.5003 39.412ZM25.9043 37.576L33.2774 40.6805C33.296 40.6362 33.3143 40.5917 33.3321 40.5471L25.9043 37.576ZM34.3363 35.308C34.3363 33.0471 33.8841 30.733 32.7897 28.5443L18.4789 35.6997C18.4069 35.5557 18.3674 35.4291 18.3482 35.3419C18.3298 35.2583 18.3363 35.2402 18.3363 35.308H34.3363ZM32.7897 28.5443C31.4038 25.7724 29.1848 23.9249 26.9811 22.7228L19.3195 36.7692C19.4918 36.8631 18.9288 36.5996 18.4789 35.6997L32.7897 28.5443ZM27.0724 22.7734C24.7964 21.4931 22.2194 20.798 19.7442 20.393L17.1604 36.183C17.8626 36.2979 18.3788 36.4237 18.7406 36.536C19.1075 36.6499 19.245 36.728 19.2282 36.7186L27.0724 22.7734ZM19.7675 20.3968C17.228 19.9736 14.2826 19.802 11.0543 19.802V35.802C13.802 35.802 15.7886 35.9544 17.1371 36.1792L19.7675 20.3968ZM19.0023 28.7127C19.4102 25.1528 19.7277 21.7581 19.9529 18.5308L3.9917 17.4172C3.78486 20.3819 3.4904 23.5392 3.1063 26.8913L19.0023 28.7127ZM19.9533 18.5244C20.1735 15.3315 20.357 12.1385 20.5039 8.94543L4.52074 8.21057C4.37955 11.2815 4.20306 14.3525 3.99125 17.4236L19.9533 18.5244ZM12.5123 16.578H31.6283V0.577999H12.5123V16.578ZM23.6283 8.578V14.086H39.6283V8.578H23.6283ZM31.6283 6.086H18.0743V22.086H31.6283V6.086ZM10.0881 13.6162C10.0583 14.1227 10.0116 14.7371 9.94515 15.4677L25.8794 16.9163C25.957 16.0629 26.0183 15.2733 26.0605 14.5558L10.0881 13.6162ZM9.92135 15.8115C9.89108 16.4471 9.84527 17.1064 9.78315 17.7897L25.7174 19.2383C25.7993 18.3376 25.8615 17.4489 25.9032 16.5725L9.92135 15.8115ZM9.75855 18.1507C9.7285 18.8117 9.68432 19.4228 9.628 19.986L25.5486 21.578C25.6363 20.7012 25.7001 19.8003 25.742 18.8773L9.75855 18.1507ZM9.628 19.986C9.56297 20.6363 9.50371 21.1295 9.4527 21.4866L25.2919 23.7494C25.3849 23.0985 25.4696 22.3677 25.5486 21.578L9.628 19.986ZM16.9405 30.6063C21.5 30.8528 23.3514 31.8613 23.938 32.3641L34.3506 20.2159C29.8972 16.3987 23.9006 14.9592 17.8041 14.6297L16.9405 30.6063ZM24.0314 32.4429C24.5321 32.859 24.9783 33.3975 24.9783 35.038H40.9783C40.9783 29.2625 38.8685 23.969 34.2572 20.1371L24.0314 32.4429ZM24.9783 35.038C24.9783 35.8052 24.8514 36.3525 24.6865 36.7649L39.5421 42.7071C40.5292 40.2395 40.9783 37.6548 40.9783 35.038H24.9783ZM24.6865 36.7649C24.5869 37.0138 24.4503 37.2216 24.1874 37.4527L34.7492 49.4713C36.8623 47.6144 38.4897 45.3382 39.5421 42.7071L24.6865 36.7649ZM24.1874 37.4527C23.9321 37.677 23.4119 38.0315 22.4111 38.3718L27.5615 53.5202C30.1607 52.6365 32.6285 51.335 34.7492 49.4713L24.1874 37.4527ZM22.5481 38.3266C21.7192 38.5919 20.4697 38.81 18.6683 38.81V54.81C21.6909 54.81 24.6534 54.4521 27.4245 53.5654L22.5481 38.3266ZM18.6683 38.81C18.0923 38.81 17.4806 38.7674 16.8297 38.6744L14.5669 54.5136C15.932 54.7086 17.3003 54.81 18.6683 54.81V38.81ZM16.8297 38.6744C16.0326 38.5605 15.2839 38.421 14.5812 38.2589L10.9834 53.8491C12.1527 54.119 13.348 54.3395 14.5669 54.5136L16.8297 38.6744ZM14.3512 38.2094C13.6458 38.0683 13.0853 37.9276 12.6511 37.7974L8.05351 53.1226C9.05933 53.4244 10.1188 53.6797 11.2134 53.8986L14.3512 38.2094ZM12.6511 37.7974C12.4008 37.7223 12.2438 37.6687 12.1613 37.6385C12.1222 37.6242 12.115 37.6206 12.1339 37.6285C12.151 37.6357 12.2137 37.6624 12.31 37.7106L5.15459 52.0214C6.13771 52.513 7.20162 52.867 8.05351 53.1226L12.6511 37.7974ZM16.5364 46.6257L17.7784 41.1177L2.17024 37.5983L0.928239 43.1063L16.5364 46.6257ZM6.53483 46.5809C7.8091 47.1877 9.31812 47.7173 10.8616 48.1922L15.567 32.8998C14.3025 32.5107 13.6515 32.2483 13.4138 32.1351L6.53483 46.5809ZM11.093 48.2596C13.4274 48.9016 15.9305 49.14 18.4523 49.14V33.14C16.8701 33.14 15.8812 32.9824 15.3355 32.8324L11.093 48.2596ZM18.4523 49.14C20.365 49.14 22.3503 48.9481 24.2681 48.4002L19.8725 33.0158C19.7743 33.0439 19.3476 33.14 18.4523 33.14V49.14ZM24.5184 48.3242C26.2775 47.7588 28.148 46.8624 29.7933 45.4107L19.2073 33.4133C19.4215 33.2243 19.5922 33.1232 19.6691 33.0822C19.7437 33.0424 19.7391 33.0542 19.6222 33.0918L24.5184 48.3242ZM29.6218 45.5578C31.1173 44.3115 32.4287 42.6961 33.2774 40.6805L18.5312 34.4715C18.8039 33.8239 19.1793 33.4325 19.3788 33.2662L29.6218 45.5578ZM33.3321 40.5471C34.0063 38.8618 34.3363 37.0956 34.3363 35.308H18.3363C18.3363 35.1044 18.3783 34.8502 18.4765 34.6049L33.3321 40.5471Z" fill="white"/>
<path d="M26.3363 35.308C26.3363 34.12 26.1023 33.058 25.6343 32.122C25.1663 31.186 24.3383 30.394 23.1503 29.746C21.9983 29.098 20.4323 28.612 18.4523 28.288C16.5083 27.964 14.0423 27.802 11.0543 27.802C11.4503 24.346 11.7563 21.07 11.9723 17.974C12.1883 14.842 12.3683 11.71 12.5123 8.578H31.6283V14.086H18.0743C18.0383 14.698 17.9843 15.4 17.9123 16.192C17.8763 16.948 17.8223 17.722 17.7503 18.514C17.7143 19.306 17.6603 20.062 17.5883 20.782C17.5163 21.502 17.4443 22.114 17.3723 22.618C22.7003 22.906 26.6243 24.13 29.1443 26.29C31.7003 28.414 32.9783 31.33 32.9783 35.038C32.9783 36.73 32.6903 38.296 32.1143 39.736C31.5383 41.176 30.6563 42.418 29.4683 43.462C28.2803 44.506 26.7863 45.334 24.9863 45.946C23.1863 46.522 21.0803 46.81 18.6683 46.81C17.6963 46.81 16.7063 46.738 15.6983 46.594C14.6903 46.45 13.7183 46.27 12.7823 46.054C11.8823 45.874 11.0723 45.676 10.3523 45.46C9.6323 45.244 9.0923 45.046 8.7323 44.866L9.9743 39.358C10.7303 39.718 11.8103 40.114 13.2143 40.546C14.6543 40.942 16.4003 41.14 18.4523 41.14C19.8563 41.14 21.0623 40.996 22.0703 40.708C23.0783 40.384 23.8883 39.952 24.5003 39.412C25.1483 38.872 25.6163 38.26 25.9043 37.576C26.1923 36.856 26.3363 36.1 26.3363 35.308Z" fill="#70C000"/>
</svg>
