<svg width="43" height="55" viewBox="0 0 43 55" fill="none" xmlns="http://www.w3.org/2000/svg">
<path d="M17.8583 28.072L16.4016 20.2057L16.4016 20.2057L17.8583 28.072ZM15.2123 28.882L11.9019 21.5991C9.37105 22.7494 7.61889 25.1312 7.27407 27.8897L15.2123 28.882ZM15.1043 29.854L7.144 29.058C7.11755 29.3225 7.1043 29.5882 7.1043 29.854H15.1043ZM15.3743 34.93L7.45036 36.0305C7.46201 36.1145 7.475 36.1982 7.48932 36.2817L15.3743 34.93ZM16.4003 38.278L9.19229 41.7485C9.2446 41.8572 9.29936 41.9646 9.35653 42.0708L16.4003 38.278ZM18.3983 40.546L13.8298 47.1132C13.9375 47.1882 14.047 47.2604 14.1583 47.33L18.3983 40.546ZM24.2303 40.708L20.2612 33.7621C20.2119 33.7902 20.163 33.8189 20.1143 33.8481L24.2303 40.708ZM26.0663 39.034L19.4638 34.5165L19.4638 34.5165L26.0663 39.034ZM27.0923 36.82L34.8104 38.9249C34.8182 38.8965 34.8258 38.8679 34.8332 38.8394L27.0923 36.82ZM25.8503 29.53L19.9224 34.9022C19.9507 34.9334 19.9793 34.9645 20.0081 34.9953L25.8503 29.53ZM27.3623 23.59L24.2732 30.9695C24.3414 30.9981 24.4101 31.0257 24.4791 31.0524L27.3623 23.59ZM31.1963 26.128L37.1427 20.7763L37.1427 20.7763L31.1963 26.128ZM33.3023 29.908L25.6397 32.2068C25.6629 32.2842 25.6873 32.3612 25.7128 32.4378L33.3023 29.908ZM33.2483 38.656L25.6775 36.0708C25.6585 36.1264 25.6402 36.1821 25.6225 36.238L33.2483 38.656ZM30.9803 42.706L24.8936 37.5144C24.8892 37.5197 24.8847 37.5249 24.8802 37.5302L30.9803 42.706ZM27.1463 45.676L30.657 52.8645C30.7016 52.8428 30.7459 52.8206 30.7901 52.798L27.1463 45.676ZM11.8103 42.598L5.51699 47.5371C5.54004 47.5664 5.5633 47.5956 5.58677 47.6247L11.8103 42.598ZM10.0283 21.322L2.56153 18.4502C2.55485 18.4675 2.54823 18.4849 2.54167 18.5024L10.0283 21.322ZM14.5643 14.248L9.01315 8.48738C8.99554 8.50435 8.97801 8.5214 8.96056 8.53853L14.5643 14.248ZM21.6923 9.928L24.3395 17.4773C24.3581 17.4708 24.3767 17.4642 24.3952 17.4576L21.6923 9.928ZM31.1423 8.362L39.1228 7.80337C38.8272 3.58042 35.2929 0.318785 31.0598 0.362424L31.1423 8.362ZM31.5203 13.762L31.6684 21.7606C33.8611 21.72 35.9409 20.7811 37.4216 19.1634C38.9023 17.5457 39.6539 15.391 39.5008 13.2034L31.5203 13.762ZM26.0663 14.41L27.7312 22.2348C27.784 22.2236 27.8368 22.2118 27.8894 22.1995L26.0663 14.41ZM21.5303 16.138L17.4417 9.26171L17.4417 9.26171L21.5303 16.138ZM18.0743 19.216L11.74 14.3296C11.7105 14.3679 11.6812 14.4065 11.6523 14.4454L18.0743 19.216ZM15.9143 23.86L8.19969 21.7423C7.37336 24.7525 8.37338 27.9684 10.761 29.9791C13.1487 31.9899 16.4878 32.4283 19.3136 31.1019L15.9143 23.86ZM20.8823 19.802C19.3769 19.802 17.8801 19.9319 16.4016 20.2057L19.315 35.9383C19.7805 35.8521 20.2997 35.802 20.8823 35.802V19.802ZM16.4016 20.2057C14.8754 20.4884 13.3597 20.9364 11.9019 21.5991L18.5227 36.1649C18.6489 36.1076 18.8972 36.0156 19.315 35.9383L16.4016 20.2057ZM7.27407 27.8897C7.22821 28.2566 7.18503 28.6476 7.144 29.058L23.0646 30.65C23.0956 30.3404 23.1244 30.0834 23.1505 29.8743L7.27407 27.8897ZM7.1043 29.854C7.1043 29.8546 7.1043 29.8553 7.1043 29.8559C7.1043 29.8565 7.1043 29.8572 7.1043 29.8578C7.1043 29.8584 7.1043 29.8591 7.1043 29.8597C7.1043 29.8603 7.1043 29.861 7.1043 29.8616C7.1043 29.8622 7.1043 29.8629 7.1043 29.8635C7.1043 29.8641 7.1043 29.8648 7.1043 29.8654C7.1043 29.866 7.1043 29.8667 7.1043 29.8673C7.1043 29.8679 7.1043 29.8686 7.1043 29.8692C7.1043 29.8698 7.1043 29.8705 7.1043 29.8711C7.1043 29.8717 7.1043 29.8724 7.1043 29.873C7.1043 29.8736 7.1043 29.8742 7.1043 29.8749C7.1043 29.8755 7.1043 29.8761 7.1043 29.8768C7.1043 29.8774 7.1043 29.878 7.1043 29.8787C7.1043 29.8793 7.1043 29.8799 7.1043 29.8806C7.1043 29.8812 7.1043 29.8818 7.1043 29.8825C7.1043 29.8831 7.1043 29.8837 7.1043 29.8844C7.1043 29.885 7.1043 29.8856 7.1043 29.8863C7.1043 29.8869 7.1043 29.8875 7.1043 29.8882C7.1043 29.8888 7.1043 29.8894 7.1043 29.8901C7.1043 29.8907 7.1043 29.8913 7.1043 29.892C7.1043 29.8926 7.1043 29.8932 7.1043 29.8939C7.1043 29.8945 7.1043 29.8951 7.1043 29.8958C7.1043 29.8964 7.1043 29.897 7.1043 29.8977C7.1043 29.8983 7.1043 29.8989 7.1043 29.8996C7.1043 29.9002 7.1043 29.9008 7.1043 29.9015C7.1043 29.9021 7.1043 29.9027 7.1043 29.9034C7.1043 29.904 7.1043 29.9046 7.1043 29.9053C7.1043 29.9059 7.1043 29.9065 7.1043 29.9072C7.1043 29.9078 7.1043 29.9084 7.1043 29.9091C7.1043 29.9097 7.1043 29.9103 7.1043 29.911C7.1043 29.9116 7.1043 29.9122 7.1043 29.9129C7.1043 29.9135 7.1043 29.9141 7.1043 29.9147C7.1043 29.9154 7.1043 29.916 7.1043 29.9166C7.1043 29.9173 7.1043 29.9179 7.1043 29.9185C7.1043 29.9192 7.1043 29.9198 7.1043 29.9204C7.1043 29.9211 7.1043 29.9217 7.1043 29.9223C7.1043 29.923 7.1043 29.9236 7.1043 29.9242C7.1043 29.9249 7.1043 29.9255 7.1043 29.9261C7.1043 29.9268 7.1043 29.9274 7.1043 29.928C7.1043 29.9287 7.1043 29.9293 7.1043 29.9299C7.1043 29.9306 7.1043 29.9312 7.1043 29.9318C7.1043 29.9325 7.1043 29.9331 7.1043 29.9337C7.1043 29.9344 7.1043 29.935 7.1043 29.9356C7.1043 29.9363 7.1043 29.9369 7.1043 29.9375C7.1043 29.9382 7.1043 29.9388 7.1043 29.9394C7.1043 29.9401 7.1043 29.9407 7.1043 29.9413C7.1043 29.942 7.1043 29.9426 7.1043 29.9432C7.1043 29.9439 7.1043 29.9445 7.1043 29.9451C7.1043 29.9458 7.1043 29.9464 7.1043 29.947C7.1043 29.9477 7.1043 29.9483 7.1043 29.9489C7.1043 29.9496 7.1043 29.9502 7.1043 29.9508C7.1043 29.9515 7.1043 29.9521 7.1043 29.9527C7.1043 29.9534 7.1043 29.954 7.1043 29.9546C7.1043 29.9552 7.1043 29.9559 7.1043 29.9565C7.1043 29.9571 7.1043 29.9578 7.1043 29.9584C7.1043 29.959 7.1043 29.9597 7.1043 29.9603C7.1043 29.9609 7.1043 29.9616 7.1043 29.9622C7.1043 29.9628 7.1043 29.9635 7.1043 29.9641C7.1043 29.9647 7.1043 29.9654 7.1043 29.966C7.1043 29.9666 7.1043 29.9673 7.1043 29.9679C7.1043 29.9685 7.1043 29.9692 7.1043 29.9698C7.1043 29.9704 7.1043 29.9711 7.1043 29.9717C7.1043 29.9723 7.1043 29.973 7.1043 29.9736C7.1043 29.9742 7.1043 29.9749 7.1043 29.9755C7.1043 29.9761 7.1043 29.9768 7.1043 29.9774C7.1043 29.978 7.1043 29.9787 7.1043 29.9793C7.1043 29.9799 7.1043 29.9806 7.1043 29.9812C7.1043 29.9818 7.1043 29.9825 7.1043 29.9831C7.1043 29.9837 7.1043 29.9844 7.1043 29.985C7.1043 29.9856 7.1043 29.9863 7.1043 29.9869C7.1043 29.9875 7.1043 29.9882 7.1043 29.9888C7.1043 29.9894 7.1043 29.9901 7.1043 29.9907C7.1043 29.9913 7.1043 29.992 7.1043 29.9926C7.1043 29.9932 7.1043 29.9939 7.1043 29.9945C7.1043 29.9951 7.1043 29.9957 7.1043 29.9964C7.1043 29.997 7.1043 29.9976 7.1043 29.9983C7.1043 29.9989 7.1043 29.9995 7.1043 30.0002C7.1043 30.0008 7.1043 30.0014 7.1043 30.0021C7.1043 30.0027 7.1043 30.0033 7.1043 30.004C7.1043 30.0046 7.1043 30.0052 7.1043 30.0059C7.1043 30.0065 7.1043 30.0071 7.1043 30.0078C7.1043 30.0084 7.1043 30.009 7.1043 30.0097C7.1043 30.0103 7.1043 30.0109 7.1043 30.0116C7.1043 30.0122 7.1043 30.0128 7.1043 30.0135C7.1043 30.0141 7.1043 30.0147 7.1043 30.0154C7.1043 30.016 7.1043 30.0166 7.1043 30.0173C7.1043 30.0179 7.1043 30.0185 7.1043 30.0192C7.1043 30.0198 7.1043 30.0204 7.1043 30.0211C7.1043 30.0217 7.1043 30.0223 7.1043 30.023C7.1043 30.0236 7.1043 30.0242 7.1043 30.0249C7.1043 30.0255 7.1043 30.0261 7.1043 30.0268C7.1043 30.0274 7.1043 30.028 7.1043 30.0287C7.1043 30.0293 7.1043 30.0299 7.1043 30.0306C7.1043 30.0312 7.1043 30.0318 7.1043 30.0325C7.1043 30.0331 7.1043 30.0337 7.1043 30.0344C7.1043 30.035 7.1043 30.0356 7.1043 30.0362C7.1043 30.0369 7.1043 30.0375 7.1043 30.0381C7.1043 30.0388 7.1043 30.0394 7.1043 30.04C7.1043 30.0407 7.1043 30.0413 7.1043 30.0419C7.1043 30.0426 7.1043 30.0432 7.1043 30.0438C7.1043 30.0445 7.1043 30.0451 7.1043 30.0457C7.1043 30.0464 7.1043 30.047 7.1043 30.0476C7.1043 30.0483 7.1043 30.0489 7.1043 30.0495C7.1043 30.0502 7.1043 30.0508 7.1043 30.0514C7.1043 30.0521 7.1043 30.0527 7.1043 30.0533C7.1043 30.054 7.1043 30.0546 7.1043 30.0552C7.1043 30.0559 7.1043 30.0565 7.1043 30.0571C7.1043 30.0578 7.1043 30.0584 7.1043 30.059C7.1043 30.0597 7.1043 30.0603 7.1043 30.0609C7.1043 30.0616 7.1043 30.0622 7.1043 30.0628C7.1043 30.0635 7.1043 30.0641 7.1043 30.0647C7.1043 30.0654 7.1043 30.066 7.1043 30.0666C7.1043 30.0673 7.1043 30.0679 7.1043 30.0685C7.1043 30.0692 7.1043 30.0698 7.1043 30.0704C7.1043 30.0711 7.1043 30.0717 7.1043 30.0723C7.1043 30.073 7.1043 30.0736 7.1043 30.0742C7.1043 30.0749 7.1043 30.0755 7.1043 30.0761C7.1043 30.0767 7.1043 30.0774 7.1043 30.078C7.1043 30.0786 7.1043 30.0793 7.1043 30.0799C7.1043 30.0805 7.1043 30.0812 7.1043 30.0818C7.1043 30.0824 7.1043 30.0831 7.1043 30.0837C7.1043 30.0843 7.1043 30.085 7.1043 30.0856C7.1043 30.0862 7.1043 30.0869 7.1043 30.0875C7.1043 30.0881 7.1043 30.0888 7.1043 30.0894C7.1043 30.09 7.1043 30.0907 7.1043 30.0913C7.1043 30.0919 7.1043 30.0926 7.1043 30.0932C7.1043 30.0938 7.1043 30.0945 7.1043 30.0951C7.1043 30.0957 7.1043 30.0964 7.1043 30.097C7.1043 30.0976 7.1043 30.0983 7.1043 30.0989C7.1043 30.0995 7.1043 30.1002 7.1043 30.1008C7.1043 30.1014 7.1043 30.1021 7.1043 30.1027C7.1043 30.1033 7.1043 30.104 7.1043 30.1046C7.1043 30.1052 7.1043 30.1059 7.1043 30.1065C7.1043 30.1071 7.1043 30.1078 7.1043 30.1084C7.1043 30.109 7.1043 30.1097 7.1043 30.1103C7.1043 30.1109 7.1043 30.1116 7.1043 30.1122C7.1043 30.1128 7.1043 30.1135 7.1043 30.1141C7.1043 30.1147 7.1043 30.1154 7.1043 30.116C7.1043 30.1166 7.1043 30.1172 7.1043 30.1179C7.1043 30.1185 7.1043 30.1191 7.1043 30.1198C7.1043 30.1204 7.1043 30.121 7.1043 30.1217C7.1043 30.1223 7.1043 30.1229 7.1043 30.1236C7.1043 30.1242 7.1043 30.1248 7.1043 30.1255C7.1043 30.1261 7.1043 30.1267 7.1043 30.1274C7.1043 30.128 7.1043 30.1286 7.1043 30.1293C7.1043 30.1299 7.1043 30.1305 7.1043 30.1312C7.1043 30.1318 7.1043 30.1324 7.1043 30.1331C7.1043 30.1337 7.1043 30.1343 7.1043 30.135C7.1043 30.1356 7.1043 30.1362 7.1043 30.1369C7.1043 30.1375 7.1043 30.1381 7.1043 30.1388C7.1043 30.1394 7.1043 30.14 7.1043 30.1407C7.1043 30.1413 7.1043 30.1419 7.1043 30.1426C7.1043 30.1432 7.1043 30.1438 7.1043 30.1445C7.1043 30.1451 7.1043 30.1457 7.1043 30.1464C7.1043 30.147 7.1043 30.1476 7.1043 30.1483C7.1043 30.1489 7.1043 30.1495 7.1043 30.1502C7.1043 30.1508 7.1043 30.1514 7.1043 30.1521C7.1043 30.1527 7.1043 30.1533 7.1043 30.154C7.1043 30.1546 7.1043 30.1552 7.1043 30.1559C7.1043 30.1565 7.1043 30.1571 7.1043 30.1577C7.1043 30.1584 7.1043 30.159 7.1043 30.1596C7.1043 30.1603 7.1043 30.1609 7.1043 30.1615C7.1043 30.1622 7.1043 30.1628 7.1043 30.1634C7.1043 30.1641 7.1043 30.1647 7.1043 30.1653C7.1043 30.166 7.1043 30.1666 7.1043 30.1672C7.1043 30.1679 7.1043 30.1685 7.1043 30.1691C7.1043 30.1698 7.1043 30.1704 7.1043 30.171C7.1043 30.1717 7.1043 30.1723 7.1043 30.1729C7.1043 30.1736 7.1043 30.1742 7.1043 30.1748C7.1043 30.1755 7.1043 30.1761 7.1043 30.1767C7.1043 30.1774 7.1043 30.178 7.1043 30.1786C7.1043 30.1793 7.1043 30.1799 7.1043 30.1805C7.1043 30.1812 7.1043 30.1818 7.1043 30.1824C7.1043 30.1831 7.1043 30.1837 7.1043 30.1843C7.1043 30.185 7.1043 30.1856 7.1043 30.1862C7.1043 30.1869 7.1043 30.1875 7.1043 30.1881C7.1043 30.1888 7.1043 30.1894 7.1043 30.19C7.1043 30.1907 7.1043 30.1913 7.1043 30.1919C7.1043 30.1926 7.1043 30.1932 7.1043 30.1938C7.1043 30.1945 7.1043 30.1951 7.1043 30.1957C7.1043 30.1964 7.1043 30.197 7.1043 30.1976C7.1043 30.1982 7.1043 30.1989 7.1043 30.1995C7.1043 30.2001 7.1043 30.2008 7.1043 30.2014C7.1043 30.202 7.1043 30.2027 7.1043 30.2033C7.1043 30.2039 7.1043 30.2046 7.1043 30.2052C7.1043 30.2058 7.1043 30.2065 7.1043 30.2071C7.1043 30.2077 7.1043 30.2084 7.1043 30.209C7.1043 30.2096 7.1043 30.2103 7.1043 30.2109C7.1043 30.2115 7.1043 30.2122 7.1043 30.2128C7.1043 30.2134 7.1043 30.2141 7.1043 30.2147C7.1043 30.2153 7.1043 30.216 7.1043 30.2166C7.1043 30.2172 7.1043 30.2179 7.1043 30.2185C7.1043 30.2191 7.1043 30.2198 7.1043 30.2204C7.1043 30.221 7.1043 30.2217 7.1043 30.2223C7.1043 30.2229 7.1043 30.2236 7.1043 30.2242C7.1043 30.2248 7.1043 30.2255 7.1043 30.2261C7.1043 30.2267 7.1043 30.2274 7.1043 30.228C7.1043 30.2286 7.1043 30.2293 7.1043 30.2299C7.1043 30.2305 7.1043 30.2312 7.1043 30.2318C7.1043 30.2324 7.1043 30.2331 7.1043 30.2337C7.1043 30.2343 7.1043 30.235 7.1043 30.2356C7.1043 30.2362 7.1043 30.2369 7.1043 30.2375C7.1043 30.2381 7.1043 30.2387 7.1043 30.2394C7.1043 30.24 7.1043 30.2406 7.1043 30.2413C7.1043 30.2419 7.1043 30.2425 7.1043 30.2432C7.1043 30.2438 7.1043 30.2444 7.1043 30.2451C7.1043 30.2457 7.1043 30.2463 7.1043 30.247C7.1043 30.2476 7.1043 30.2482 7.1043 30.2489C7.1043 30.2495 7.1043 30.2501 7.1043 30.2508C7.1043 30.2514 7.1043 30.252 7.1043 30.2527C7.1043 30.2533 7.1043 30.2539 7.1043 30.2546C7.1043 30.2552 7.1043 30.2558 7.1043 30.2565C7.1043 30.2571 7.1043 30.2577 7.1043 30.2584C7.1043 30.259 7.1043 30.2596 7.1043 30.2603C7.1043 30.2609 7.1043 30.2615 7.1043 30.2622C7.1043 30.2628 7.1043 30.2634 7.1043 30.2641C7.1043 30.2647 7.1043 30.2653 7.1043 30.266C7.1043 30.2666 7.1043 30.2672 7.1043 30.2679C7.1043 30.2685 7.1043 30.2691 7.1043 30.2698C7.1043 30.2704 7.1043 30.271 7.1043 30.2717C7.1043 30.2723 7.1043 30.2729 7.1043 30.2736C7.1043 30.2742 7.1043 30.2748 7.1043 30.2755C7.1043 30.2761 7.1043 30.2767 7.1043 30.2774C7.1043 30.278 7.1043 30.2786 7.1043 30.2792C7.1043 30.2799 7.1043 30.2805 7.1043 30.2811C7.1043 30.2818 7.1043 30.2824 7.1043 30.283C7.1043 30.2837 7.1043 30.2843 7.1043 30.2849C7.1043 30.2856 7.1043 30.2862 7.1043 30.2868C7.1043 30.2875 7.1043 30.2881 7.1043 30.2887C7.1043 30.2894 7.1043 30.29 7.1043 30.2906C7.1043 30.2913 7.1043 30.2919 7.1043 30.2925C7.1043 30.2932 7.1043 30.2938 7.1043 30.2944C7.1043 30.2951 7.1043 30.2957 7.1043 30.2963C7.1043 30.297 7.1043 30.2976 7.1043 30.2982C7.1043 30.2989 7.1043 30.2995 7.1043 30.3001C7.1043 30.3008 7.1043 30.3014 7.1043 30.302C7.1043 30.3027 7.1043 30.3033 7.1043 30.3039C7.1043 30.3046 7.1043 30.3052 7.1043 30.3058C7.1043 30.3065 7.1043 30.3071 7.1043 30.3077C7.1043 30.3084 7.1043 30.309 7.1043 30.3096C7.1043 30.3103 7.1043 30.3109 7.1043 30.3115C7.1043 30.3122 7.1043 30.3128 7.1043 30.3134C7.1043 30.3141 7.1043 30.3147 7.1043 30.3153C7.1043 30.316 7.1043 30.3166 7.1043 30.3172C7.1043 30.3179 7.1043 30.3185 7.1043 30.3191C7.1043 30.3197 7.1043 30.3204 7.1043 30.321C7.1043 30.3216 7.1043 30.3223 7.1043 30.3229C7.1043 30.3235 7.1043 30.3242 7.1043 30.3248C7.1043 30.3254 7.1043 30.3261 7.1043 30.3267C7.1043 30.3273 7.1043 30.328 7.1043 30.3286C7.1043 30.3292 7.1043 30.3299 7.1043 30.3305C7.1043 30.3311 7.1043 30.3318 7.1043 30.3324C7.1043 30.333 7.1043 30.3337 7.1043 30.3343C7.1043 30.3349 7.1043 30.3356 7.1043 30.3362C7.1043 30.3368 7.1043 30.3375 7.1043 30.3381C7.1043 30.3387 7.1043 30.3394 7.1043 30.34C7.1043 30.3406 7.1043 30.3413 7.1043 30.3419C7.1043 30.3425 7.1043 30.3432 7.1043 30.3438C7.1043 30.3444 7.1043 30.3451 7.1043 30.3457C7.1043 30.3463 7.1043 30.347 7.1043 30.3476C7.1043 30.3482 7.1043 30.3489 7.1043 30.3495C7.1043 30.3501 7.1043 30.3508 7.1043 30.3514C7.1043 30.352 7.1043 30.3527 7.1043 30.3533C7.1043 30.3539 7.1043 30.3546 7.1043 30.3552C7.1043 30.3558 7.1043 30.3565 7.1043 30.3571C7.1043 30.3577 7.1043 30.3584 7.1043 30.359C7.1043 30.3596 7.1043 30.3602 7.1043 30.3609C7.1043 30.3615 7.1043 30.3621 7.1043 30.3628C7.1043 30.3634 7.1043 30.364 7.1043 30.3647C7.1043 30.3653 7.1043 30.3659 7.1043 30.3666C7.1043 30.3672 7.1043 30.3678 7.1043 30.3685C7.1043 30.3691 7.1043 30.3697 7.1043 30.3704C7.1043 30.371 7.1043 30.3716 7.1043 30.3723C7.1043 30.3729 7.1043 30.3735 7.1043 30.3742C7.1043 30.3748 7.1043 30.3754 7.1043 30.3761C7.1043 30.3767 7.1043 30.3773 7.1043 30.378C7.1043 30.3786 7.1043 30.3792 7.1043 30.3799C7.1043 30.3805 7.1043 30.3811 7.1043 30.3818C7.1043 30.3824 7.1043 30.383 7.1043 30.3837C7.1043 30.3843 7.1043 30.3849 7.1043 30.3856C7.1043 30.3862 7.1043 30.3868 7.1043 30.3875C7.1043 30.3881 7.1043 30.3887 7.1043 30.3894C7.1043 30.39 7.1043 30.3906 7.1043 30.3913C7.1043 30.3919 7.1043 30.3925 7.1043 30.3932C7.1043 30.3938 7.1043 30.3944 7.1043 30.3951C7.1043 30.3957 7.1043 30.3963 7.1043 30.397C7.1043 30.3976 7.1043 30.3982 7.1043 30.3989C7.1043 30.3995 7.1043 30.4001 7.1043 30.4007C7.1043 30.4014 7.1043 30.402 7.1043 30.4026C7.1043 30.4033 7.1043 30.4039 7.1043 30.4045C7.1043 30.4052 7.1043 30.4058 7.1043 30.4064C7.1043 30.4071 7.1043 30.4077 7.1043 30.4083C7.1043 30.409 7.1043 30.4096 7.1043 30.4102C7.1043 30.4109 7.1043 30.4115 7.1043 30.4121C7.1043 30.4128 7.1043 30.4134 7.1043 30.414C7.1043 30.4147 7.1043 30.4153 7.1043 30.4159C7.1043 30.4166 7.1043 30.4172 7.1043 30.4178C7.1043 30.4185 7.1043 30.4191 7.1043 30.4197C7.1043 30.4204 7.1043 30.421 7.1043 30.4216C7.1043 30.4223 7.1043 30.4229 7.1043 30.4235C7.1043 30.4242 7.1043 30.4248 7.1043 30.4254C7.1043 30.4261 7.1043 30.4267 7.1043 30.4273C7.1043 30.428 7.1043 30.4286 7.1043 30.4292C7.1043 30.4299 7.1043 30.4305 7.1043 30.4311C7.1043 30.4318 7.1043 30.4324 7.1043 30.433C7.1043 30.4337 7.1043 30.4343 7.1043 30.4349C7.1043 30.4356 7.1043 30.4362 7.1043 30.4368C7.1043 30.4375 7.1043 30.4381 7.1043 30.4387C7.1043 30.4394 7.1043 30.44 7.1043 30.4406C7.1043 30.4412 7.1043 30.4419 7.1043 30.4425C7.1043 30.4431 7.1043 30.4438 7.1043 30.4444C7.1043 30.445 7.1043 30.4457 7.1043 30.4463C7.1043 30.4469 7.1043 30.4476 7.1043 30.4482C7.1043 30.4488 7.1043 30.4495 7.1043 30.4501C7.1043 30.4507 7.1043 30.4514 7.1043 30.452C7.1043 30.4526 7.1043 30.4533 7.1043 30.4539C7.1043 30.4545 7.1043 30.4552 7.1043 30.4558C7.1043 30.4564 7.1043 30.4571 7.1043 30.4577C7.1043 30.4583 7.1043 30.459 7.1043 30.4596C7.1043 30.4602 7.1043 30.4609 7.1043 30.4615C7.1043 30.4621 7.1043 30.4628 7.1043 30.4634C7.1043 30.464 7.1043 30.4647 7.1043 30.4653C7.1043 30.4659 7.1043 30.4666 7.1043 30.4672C7.1043 30.4678 7.1043 30.4685 7.1043 30.4691C7.1043 30.4697 7.1043 30.4704 7.1043 30.471C7.1043 30.4716 7.1043 30.4723 7.1043 30.4729C7.1043 30.4735 7.1043 30.4742 7.1043 30.4748C7.1043 30.4754 7.1043 30.4761 7.1043 30.4767C7.1043 30.4773 7.1043 30.478 7.1043 30.4786C7.1043 30.4792 7.1043 30.4799 7.1043 30.4805C7.1043 30.4811 7.1043 30.4817 7.1043 30.4824C7.1043 30.483 7.1043 30.4836 7.1043 30.4843C7.1043 30.4849 7.1043 30.4855 7.1043 30.4862C7.1043 30.4868 7.1043 30.4874 7.1043 30.4881C7.1043 30.4887 7.1043 30.4893 7.1043 30.49C7.1043 30.4906 7.1043 30.4912 7.1043 30.4919C7.1043 30.4925 7.1043 30.4931 7.1043 30.4938C7.1043 30.4944 7.1043 30.495 7.1043 30.4957C7.1043 30.4963 7.1043 30.4969 7.1043 30.4976C7.1043 30.4982 7.1043 30.4988 7.1043 30.4995C7.1043 30.5001 7.1043 30.5007 7.1043 30.5014C7.1043 30.502 7.1043 30.5026 7.1043 30.5033C7.1043 30.5039 7.1043 30.5045 7.1043 30.5052C7.1043 30.5058 7.1043 30.5064 7.1043 30.5071C7.1043 30.5077 7.1043 30.5083 7.1043 30.509C7.1043 30.5096 7.1043 30.5102 7.1043 30.5109C7.1043 30.5115 7.1043 30.5121 7.1043 30.5128C7.1043 30.5134 7.1043 30.514 7.1043 30.5147C7.1043 30.5153 7.1043 30.5159 7.1043 30.5166C7.1043 30.5172 7.1043 30.5178 7.1043 30.5185C7.1043 30.5191 7.1043 30.5197 7.1043 30.5204C7.1043 30.521 7.1043 30.5216 7.1043 30.5222C7.1043 30.5229 7.1043 30.5235 7.1043 30.5241C7.1043 30.5248 7.1043 30.5254 7.1043 30.526C7.1043 30.5267 7.1043 30.5273 7.1043 30.5279C7.1043 30.5286 7.1043 30.5292 7.1043 30.5298C7.1043 30.5305 7.1043 30.5311 7.1043 30.5317C7.1043 30.5324 7.1043 30.533 7.1043 30.5336C7.1043 30.5343 7.1043 30.5349 7.1043 30.5355C7.1043 30.5362 7.1043 30.5368 7.1043 30.5374C7.1043 30.5381 7.1043 30.5387 7.1043 30.5393C7.1043 30.54 7.1043 30.5406 7.1043 30.5412C7.1043 30.5419 7.1043 30.5425 7.1043 30.5431C7.1043 30.5438 7.1043 30.5444 7.1043 30.545C7.1043 30.5457 7.1043 30.5463 7.1043 30.5469C7.1043 30.5476 7.1043 30.5482 7.1043 30.5488C7.1043 30.5495 7.1043 30.5501 7.1043 30.5507C7.1043 30.5514 7.1043 30.552 7.1043 30.5526C7.1043 30.5533 7.1043 30.5539 7.1043 30.5545C7.1043 30.5552 7.1043 30.5558 7.1043 30.5564C7.1043 30.5571 7.1043 30.5577 7.1043 30.5583C7.1043 30.559 7.1043 30.5596 7.1043 30.5602C7.1043 30.5609 7.1043 30.5615 7.1043 30.5621C7.1043 30.5627 7.1043 30.5634 7.1043 30.564C7.1043 30.5646 7.1043 30.5653 7.1043 30.5659C7.1043 30.5665 7.1043 30.5672 7.1043 30.5678C7.1043 30.5684 7.1043 30.5691 7.1043 30.5697C7.1043 30.5703 7.1043 30.571 7.1043 30.5716C7.1043 30.5722 7.1043 30.5729 7.1043 30.5735C7.1043 30.5741 7.1043 30.5748 7.1043 30.5754C7.1043 30.576 7.1043 30.5767 7.1043 30.5773C7.1043 30.5779 7.1043 30.5786 7.1043 30.5792C7.1043 30.5798 7.1043 30.5805 7.1043 30.5811C7.1043 30.5817 7.1043 30.5824 7.1043 30.583C7.1043 30.5836 7.1043 30.5843 7.1043 30.5849C7.1043 30.5855 7.1043 30.5862 7.1043 30.5868C7.1043 30.5874 7.1043 30.5881 7.1043 30.5887C7.1043 30.5893 7.1043 30.59 7.1043 30.5906C7.1043 30.5912 7.1043 30.5919 7.1043 30.5925C7.1043 30.5931 7.1043 30.5938 7.1043 30.5944C7.1043 30.595 7.1043 30.5957 7.1043 30.5963C7.1043 30.5969 7.1043 30.5976 7.1043 30.5982C7.1043 30.5988 7.1043 30.5995 7.1043 30.6001C7.1043 30.6007 7.1043 30.6014 7.1043 30.602C7.1043 30.6026 7.1043 30.6032 7.1043 30.6039C7.1043 30.6045 7.1043 30.6051 7.1043 30.6058C7.1043 30.6064 7.1043 30.607 7.1043 30.6077C7.1043 30.6083 7.1043 30.6089 7.1043 30.6096C7.1043 30.6102 7.1043 30.6108 7.1043 30.6115C7.1043 30.6121 7.1043 30.6127 7.1043 30.6134C7.1043 30.614 7.1043 30.6146 7.1043 30.6153C7.1043 30.6159 7.1043 30.6165 7.1043 30.6172C7.1043 30.6178 7.1043 30.6184 7.1043 30.6191C7.1043 30.6197 7.1043 30.6203 7.1043 30.621C7.1043 30.6216 7.1043 30.6222 7.1043 30.6229C7.1043 30.6235 7.1043 30.6241 7.1043 30.6248C7.1043 30.6254 7.1043 30.626 7.1043 30.6267C7.1043 30.6273 7.1043 30.6279 7.1043 30.6286C7.1043 30.6292 7.1043 30.6298 7.1043 30.6305C7.1043 30.6311 7.1043 30.6317 7.1043 30.6324C7.1043 30.633 7.1043 30.6336 7.1043 30.6343C7.1043 30.6349 7.1043 30.6355 7.1043 30.6362C7.1043 30.6368 7.1043 30.6374 7.1043 30.6381C7.1043 30.6387 7.1043 30.6393 7.1043 30.64C7.1043 30.6406 7.1043 30.6412 7.1043 30.6419C7.1043 30.6425 7.1043 30.6431 7.1043 30.6437C7.1043 30.6444 7.1043 30.645 7.1043 30.6456C7.1043 30.6463 7.1043 30.6469 7.1043 30.6475C7.1043 30.6482 7.1043 30.6488 7.1043 30.6494C7.1043 30.6501 7.1043 30.6507 7.1043 30.6513C7.1043 30.652 7.1043 30.6526 7.1043 30.6532C7.1043 30.6539 7.1043 30.6545 7.1043 30.6551C7.1043 30.6558 7.1043 30.6564 7.1043 30.657C7.1043 30.6577 7.1043 30.6583 7.1043 30.6589C7.1043 30.6596 7.1043 30.6602 7.1043 30.6608C7.1043 30.6615 7.1043 30.6621 7.1043 30.6627C7.1043 30.6634 7.1043 30.664 7.1043 30.6646C7.1043 30.6653 7.1043 30.6659 7.1043 30.6665C7.1043 30.6672 7.1043 30.6678 7.1043 30.6684C7.1043 30.6691 7.1043 30.6697 7.1043 30.6703C7.1043 30.671 7.1043 30.6716 7.1043 30.6722C7.1043 30.6729 7.1043 30.6735 7.1043 30.6741C7.1043 30.6748 7.1043 30.6754 7.1043 30.676C7.1043 30.6767 7.1043 30.6773 7.1043 30.6779C7.1043 30.6786 7.1043 30.6792 7.1043 30.6798C7.1043 30.6805 7.1043 30.6811 7.1043 30.6817C7.1043 30.6824 7.1043 30.683 7.1043 30.6836C7.1043 30.6842 7.1043 30.6849 7.1043 30.6855C7.1043 30.6861 7.1043 30.6868 7.1043 30.6874C7.1043 30.688 7.1043 30.6887 7.1043 30.6893C7.1043 30.6899 7.1043 30.6906 7.1043 30.6912C7.1043 30.6918 7.1043 30.6925 7.1043 30.6931C7.1043 30.6937 7.1043 30.6944 7.1043 30.695C7.1043 30.6956 7.1043 30.6963 7.1043 30.6969C7.1043 30.6975 7.1043 30.6982 7.1043 30.6988C7.1043 30.6994 7.1043 30.7001 7.1043 30.7007C7.1043 30.7013 7.1043 30.702 7.1043 30.7026C7.1043 30.7032 7.1043 30.7039 7.1043 30.7045C7.1043 30.7051 7.1043 30.7058 7.1043 30.7064C7.1043 30.707 7.1043 30.7077 7.1043 30.7083C7.1043 30.7089 7.1043 30.7096 7.1043 30.7102C7.1043 30.7108 7.1043 30.7115 7.1043 30.7121C7.1043 30.7127 7.1043 30.7134 7.1043 30.714C7.1043 30.7146 7.1043 30.7153 7.1043 30.7159C7.1043 30.7165 7.1043 30.7172 7.1043 30.7178C7.1043 30.7184 7.1043 30.7191 7.1043 30.7197C7.1043 30.7203 7.1043 30.721 7.1043 30.7216C7.1043 30.7222 7.1043 30.7229 7.1043 30.7235C7.1043 30.7241 7.1043 30.7247 7.1043 30.7254C7.1043 30.726 7.1043 30.7266 7.1043 30.7273C7.1043 30.7279 7.1043 30.7285 7.1043 30.7292C7.1043 30.7298 7.1043 30.7304 7.1043 30.7311C7.1043 30.7317 7.1043 30.7323 7.1043 30.733C7.1043 30.7336 7.1043 30.7342 7.1043 30.7349C7.1043 30.7355 7.1043 30.7361 7.1043 30.7368C7.1043 30.7374 7.1043 30.738 7.1043 30.7387C7.1043 30.7393 7.1043 30.7399 7.1043 30.7406C7.1043 30.7412 7.1043 30.7418 7.1043 30.7425C7.1043 30.7431 7.1043 30.7437 7.1043 30.7444C7.1043 30.745 7.1043 30.7456 7.1043 30.7463C7.1043 30.7469 7.1043 30.7475 7.1043 30.7482C7.1043 30.7488 7.1043 30.7494 7.1043 30.7501C7.1043 30.7507 7.1043 30.7513 7.1043 30.752C7.1043 30.7526 7.1043 30.7532 7.1043 30.7539C7.1043 30.7545 7.1043 30.7551 7.1043 30.7558C7.1043 30.7564 7.1043 30.757 7.1043 30.7577C7.1043 30.7583 7.1043 30.7589 7.1043 30.7596C7.1043 30.7602 7.1043 30.7608 7.1043 30.7615C7.1043 30.7621 7.1043 30.7627 7.1043 30.7634C7.1043 30.764 7.1043 30.7646 7.1043 30.7652C7.1043 30.7659 7.1043 30.7665 7.1043 30.7671C7.1043 30.7678 7.1043 30.7684 7.1043 30.769C7.1043 30.7697 7.1043 30.7703 7.1043 30.7709C7.1043 30.7716 7.1043 30.7722 7.1043 30.7728C7.1043 30.7735 7.1043 30.7741 7.1043 30.7747C7.1043 30.7754 7.1043 30.776 7.1043 30.7766C7.1043 30.7773 7.1043 30.7779 7.1043 30.7785C7.1043 30.7792 7.1043 30.7798 7.1043 30.7804C7.1043 30.7811 7.1043 30.7817 7.1043 30.7823C7.1043 30.783 7.1043 30.7836 7.1043 30.7842C7.1043 30.7849 7.1043 30.7855 7.1043 30.7861C7.1043 30.7868 7.1043 30.7874 7.1043 30.788C7.1043 30.7887 7.1043 30.7893 7.1043 30.7899C7.1043 30.7906 7.1043 30.7912 7.1043 30.7918C7.1043 30.7925 7.1043 30.7931 7.1043 30.7937C7.1043 30.7944 7.1043 30.795 7.1043 30.7956C7.1043 30.7963 7.1043 30.7969 7.1043 30.7975C7.1043 30.7982 7.1043 30.7988 7.1043 30.7994C7.1043 30.8001 7.1043 30.8007 7.1043 30.8013C7.1043 30.802 7.1043 30.8026 7.1043 30.8032C7.1043 30.8039 7.1043 30.8045 7.1043 30.8051C7.1043 30.8057 7.1043 30.8064 7.1043 30.807C7.1043 30.8076 7.1043 30.8083 7.1043 30.8089C7.1043 30.8095 7.1043 30.8102 7.1043 30.8108C7.1043 30.8114 7.1043 30.8121 7.1043 30.8127C7.1043 30.8133 7.1043 30.814 7.1043 30.8146C7.1043 30.8152 7.1043 30.8159 7.1043 30.8165C7.1043 30.8171 7.1043 30.8178 7.1043 30.8184C7.1043 30.819 7.1043 30.8197 7.1043 30.8203C7.1043 30.8209 7.1043 30.8216 7.1043 30.8222C7.1043 30.8228 7.1043 30.8235 7.1043 30.8241C7.1043 30.8247 7.1043 30.8254 7.1043 30.826H23.1043C23.1043 30.8254 23.1043 30.8247 23.1043 30.8241C23.1043 30.8235 23.1043 30.8228 23.1043 30.8222C23.1043 30.8216 23.1043 30.8209 23.1043 30.8203C23.1043 30.8197 23.1043 30.819 23.1043 30.8184C23.1043 30.8178 23.1043 30.8171 23.1043 30.8165C23.1043 30.8159 23.1043 30.8152 23.1043 30.8146C23.1043 30.814 23.1043 30.8133 23.1043 30.8127C23.1043 30.8121 23.1043 30.8114 23.1043 30.8108C23.1043 30.8102 23.1043 30.8095 23.1043 30.8089C23.1043 30.8083 23.1043 30.8076 23.1043 30.807C23.1043 30.8064 23.1043 30.8057 23.1043 30.8051C23.1043 30.8045 23.1043 30.8039 23.1043 30.8032C23.1043 30.8026 23.1043 30.802 23.1043 30.8013C23.1043 30.8007 23.1043 30.8001 23.1043 30.7994C23.1043 30.7988 23.1043 30.7982 23.1043 30.7975C23.1043 30.7969 23.1043 30.7963 23.1043 30.7956C23.1043 30.795 23.1043 30.7944 23.1043 30.7937C23.1043 30.7931 23.1043 30.7925 23.1043 30.7918C23.1043 30.7912 23.1043 30.7906 23.1043 30.7899C23.1043 30.7893 23.1043 30.7887 23.1043 30.788C23.1043 30.7874 23.1043 30.7868 23.1043 30.7861C23.1043 30.7855 23.1043 30.7849 23.1043 30.7842C23.1043 30.7836 23.1043 30.783 23.1043 30.7823C23.1043 30.7817 23.1043 30.7811 23.1043 30.7804C23.1043 30.7798 23.1043 30.7792 23.1043 30.7785C23.1043 30.7779 23.1043 30.7773 23.1043 30.7766C23.1043 30.776 23.1043 30.7754 23.1043 30.7747C23.1043 30.7741 23.1043 30.7735 23.1043 30.7728C23.1043 30.7722 23.1043 30.7716 23.1043 30.7709C23.1043 30.7703 23.1043 30.7697 23.1043 30.769C23.1043 30.7684 23.1043 30.7678 23.1043 30.7671C23.1043 30.7665 23.1043 30.7659 23.1043 30.7652C23.1043 30.7646 23.1043 30.764 23.1043 30.7634C23.1043 30.7627 23.1043 30.7621 23.1043 30.7615C23.1043 30.7608 23.1043 30.7602 23.1043 30.7596C23.1043 30.7589 23.1043 30.7583 23.1043 30.7577C23.1043 30.757 23.1043 30.7564 23.1043 30.7558C23.1043 30.7551 23.1043 30.7545 23.1043 30.7539C23.1043 30.7532 23.1043 30.7526 23.1043 30.752C23.1043 30.7513 23.1043 30.7507 23.1043 30.7501C23.1043 30.7494 23.1043 30.7488 23.1043 30.7482C23.1043 30.7475 23.1043 30.7469 23.1043 30.7463C23.1043 30.7456 23.1043 30.745 23.1043 30.7444C23.1043 30.7437 23.1043 30.7431 23.1043 30.7425C23.1043 30.7418 23.1043 30.7412 23.1043 30.7406C23.1043 30.7399 23.1043 30.7393 23.1043 30.7387C23.1043 30.738 23.1043 30.7374 23.1043 30.7368C23.1043 30.7361 23.1043 30.7355 23.1043 30.7349C23.1043 30.7342 23.1043 30.7336 23.1043 30.733C23.1043 30.7323 23.1043 30.7317 23.1043 30.7311C23.1043 30.7304 23.1043 30.7298 23.1043 30.7292C23.1043 30.7285 23.1043 30.7279 23.1043 30.7273C23.1043 30.7266 23.1043 30.726 23.1043 30.7254C23.1043 30.7247 23.1043 30.7241 23.1043 30.7235C23.1043 30.7229 23.1043 30.7222 23.1043 30.7216C23.1043 30.721 23.1043 30.7203 23.1043 30.7197C23.1043 30.7191 23.1043 30.7184 23.1043 30.7178C23.1043 30.7172 23.1043 30.7165 23.1043 30.7159C23.1043 30.7153 23.1043 30.7146 23.1043 30.714C23.1043 30.7134 23.1043 30.7127 23.1043 30.7121C23.1043 30.7115 23.1043 30.7108 23.1043 30.7102C23.1043 30.7096 23.1043 30.7089 23.1043 30.7083C23.1043 30.7077 23.1043 30.707 23.1043 30.7064C23.1043 30.7058 23.1043 30.7051 23.1043 30.7045C23.1043 30.7039 23.1043 30.7032 23.1043 30.7026C23.1043 30.702 23.1043 30.7013 23.1043 30.7007C23.1043 30.7001 23.1043 30.6994 23.1043 30.6988C23.1043 30.6982 23.1043 30.6975 23.1043 30.6969C23.1043 30.6963 23.1043 30.6956 23.1043 30.695C23.1043 30.6944 23.1043 30.6937 23.1043 30.6931C23.1043 30.6925 23.1043 30.6918 23.1043 30.6912C23.1043 30.6906 23.1043 30.6899 23.1043 30.6893C23.1043 30.6887 23.1043 30.688 23.1043 30.6874C23.1043 30.6868 23.1043 30.6861 23.1043 30.6855C23.1043 30.6849 23.1043 30.6842 23.1043 30.6836C23.1043 30.683 23.1043 30.6824 23.1043 30.6817C23.1043 30.6811 23.1043 30.6805 23.1043 30.6798C23.1043 30.6792 23.1043 30.6786 23.1043 30.6779C23.1043 30.6773 23.1043 30.6767 23.1043 30.676C23.1043 30.6754 23.1043 30.6748 23.1043 30.6741C23.1043 30.6735 23.1043 30.6729 23.1043 30.6722C23.1043 30.6716 23.1043 30.671 23.1043 30.6703C23.1043 30.6697 23.1043 30.6691 23.1043 30.6684C23.1043 30.6678 23.1043 30.6672 23.1043 30.6665C23.1043 30.6659 23.1043 30.6653 23.1043 30.6646C23.1043 30.664 23.1043 30.6634 23.1043 30.6627C23.1043 30.6621 23.1043 30.6615 23.1043 30.6608C23.1043 30.6602 23.1043 30.6596 23.1043 30.6589C23.1043 30.6583 23.1043 30.6577 23.1043 30.657C23.1043 30.6564 23.1043 30.6558 23.1043 30.6551C23.1043 30.6545 23.1043 30.6539 23.1043 30.6532C23.1043 30.6526 23.1043 30.652 23.1043 30.6513C23.1043 30.6507 23.1043 30.6501 23.1043 30.6494C23.1043 30.6488 23.1043 30.6482 23.1043 30.6475C23.1043 30.6469 23.1043 30.6463 23.1043 30.6456C23.1043 30.645 23.1043 30.6444 23.1043 30.6437C23.1043 30.6431 23.1043 30.6425 23.1043 30.6419C23.1043 30.6412 23.1043 30.6406 23.1043 30.64C23.1043 30.6393 23.1043 30.6387 23.1043 30.6381C23.1043 30.6374 23.1043 30.6368 23.1043 30.6362C23.1043 30.6355 23.1043 30.6349 23.1043 30.6343C23.1043 30.6336 23.1043 30.633 23.1043 30.6324C23.1043 30.6317 23.1043 30.6311 23.1043 30.6305C23.1043 30.6298 23.1043 30.6292 23.1043 30.6286C23.1043 30.6279 23.1043 30.6273 23.1043 30.6267C23.1043 30.626 23.1043 30.6254 23.1043 30.6248C23.1043 30.6241 23.1043 30.6235 23.1043 30.6229C23.1043 30.6222 23.1043 30.6216 23.1043 30.621C23.1043 30.6203 23.1043 30.6197 23.1043 30.6191C23.1043 30.6184 23.1043 30.6178 23.1043 30.6172C23.1043 30.6165 23.1043 30.6159 23.1043 30.6153C23.1043 30.6146 23.1043 30.614 23.1043 30.6134C23.1043 30.6127 23.1043 30.6121 23.1043 30.6115C23.1043 30.6108 23.1043 30.6102 23.1043 30.6096C23.1043 30.6089 23.1043 30.6083 23.1043 30.6077C23.1043 30.607 23.1043 30.6064 23.1043 30.6058C23.1043 30.6051 23.1043 30.6045 23.1043 30.6039C23.1043 30.6032 23.1043 30.6026 23.1043 30.602C23.1043 30.6014 23.1043 30.6007 23.1043 30.6001C23.1043 30.5995 23.1043 30.5988 23.1043 30.5982C23.1043 30.5976 23.1043 30.5969 23.1043 30.5963C23.1043 30.5957 23.1043 30.595 23.1043 30.5944C23.1043 30.5938 23.1043 30.5931 23.1043 30.5925C23.1043 30.5919 23.1043 30.5912 23.1043 30.5906C23.1043 30.59 23.1043 30.5893 23.1043 30.5887C23.1043 30.5881 23.1043 30.5874 23.1043 30.5868C23.1043 30.5862 23.1043 30.5855 23.1043 30.5849C23.1043 30.5843 23.1043 30.5836 23.1043 30.583C23.1043 30.5824 23.1043 30.5817 23.1043 30.5811C23.1043 30.5805 23.1043 30.5798 23.1043 30.5792C23.1043 30.5786 23.1043 30.5779 23.1043 30.5773C23.1043 30.5767 23.1043 30.576 23.1043 30.5754C23.1043 30.5748 23.1043 30.5741 23.1043 30.5735C23.1043 30.5729 23.1043 30.5722 23.1043 30.5716C23.1043 30.571 23.1043 30.5703 23.1043 30.5697C23.1043 30.5691 23.1043 30.5684 23.1043 30.5678C23.1043 30.5672 23.1043 30.5665 23.1043 30.5659C23.1043 30.5653 23.1043 30.5646 23.1043 30.564C23.1043 30.5634 23.1043 30.5627 23.1043 30.5621C23.1043 30.5615 23.1043 30.5609 23.1043 30.5602C23.1043 30.5596 23.1043 30.559 23.1043 30.5583C23.1043 30.5577 23.1043 30.5571 23.1043 30.5564C23.1043 30.5558 23.1043 30.5552 23.1043 30.5545C23.1043 30.5539 23.1043 30.5533 23.1043 30.5526C23.1043 30.552 23.1043 30.5514 23.1043 30.5507C23.1043 30.5501 23.1043 30.5495 23.1043 30.5488C23.1043 30.5482 23.1043 30.5476 23.1043 30.5469C23.1043 30.5463 23.1043 30.5457 23.1043 30.545C23.1043 30.5444 23.1043 30.5438 23.1043 30.5431C23.1043 30.5425 23.1043 30.5419 23.1043 30.5412C23.1043 30.5406 23.1043 30.54 23.1043 30.5393C23.1043 30.5387 23.1043 30.5381 23.1043 30.5374C23.1043 30.5368 23.1043 30.5362 23.1043 30.5355C23.1043 30.5349 23.1043 30.5343 23.1043 30.5336C23.1043 30.533 23.1043 30.5324 23.1043 30.5317C23.1043 30.5311 23.1043 30.5305 23.1043 30.5298C23.1043 30.5292 23.1043 30.5286 23.1043 30.5279C23.1043 30.5273 23.1043 30.5267 23.1043 30.526C23.1043 30.5254 23.1043 30.5248 23.1043 30.5241C23.1043 30.5235 23.1043 30.5229 23.1043 30.5222C23.1043 30.5216 23.1043 30.521 23.1043 30.5204C23.1043 30.5197 23.1043 30.5191 23.1043 30.5185C23.1043 30.5178 23.1043 30.5172 23.1043 30.5166C23.1043 30.5159 23.1043 30.5153 23.1043 30.5147C23.1043 30.514 23.1043 30.5134 23.1043 30.5128C23.1043 30.5121 23.1043 30.5115 23.1043 30.5109C23.1043 30.5102 23.1043 30.5096 23.1043 30.509C23.1043 30.5083 23.1043 30.5077 23.1043 30.5071C23.1043 30.5064 23.1043 30.5058 23.1043 30.5052C23.1043 30.5045 23.1043 30.5039 23.1043 30.5033C23.1043 30.5026 23.1043 30.502 23.1043 30.5014C23.1043 30.5007 23.1043 30.5001 23.1043 30.4995C23.1043 30.4988 23.1043 30.4982 23.1043 30.4976C23.1043 30.4969 23.1043 30.4963 23.1043 30.4957C23.1043 30.495 23.1043 30.4944 23.1043 30.4938C23.1043 30.4931 23.1043 30.4925 23.1043 30.4919C23.1043 30.4912 23.1043 30.4906 23.1043 30.49C23.1043 30.4893 23.1043 30.4887 23.1043 30.4881C23.1043 30.4874 23.1043 30.4868 23.1043 30.4862C23.1043 30.4855 23.1043 30.4849 23.1043 30.4843C23.1043 30.4836 23.1043 30.483 23.1043 30.4824C23.1043 30.4817 23.1043 30.4811 23.1043 30.4805C23.1043 30.4799 23.1043 30.4792 23.1043 30.4786C23.1043 30.478 23.1043 30.4773 23.1043 30.4767C23.1043 30.4761 23.1043 30.4754 23.1043 30.4748C23.1043 30.4742 23.1043 30.4735 23.1043 30.4729C23.1043 30.4723 23.1043 30.4716 23.1043 30.471C23.1043 30.4704 23.1043 30.4697 23.1043 30.4691C23.1043 30.4685 23.1043 30.4678 23.1043 30.4672C23.1043 30.4666 23.1043 30.4659 23.1043 30.4653C23.1043 30.4647 23.1043 30.464 23.1043 30.4634C23.1043 30.4628 23.1043 30.4621 23.1043 30.4615C23.1043 30.4609 23.1043 30.4602 23.1043 30.4596C23.1043 30.459 23.1043 30.4583 23.1043 30.4577C23.1043 30.4571 23.1043 30.4564 23.1043 30.4558C23.1043 30.4552 23.1043 30.4545 23.1043 30.4539C23.1043 30.4533 23.1043 30.4526 23.1043 30.452C23.1043 30.4514 23.1043 30.4507 23.1043 30.4501C23.1043 30.4495 23.1043 30.4488 23.1043 30.4482C23.1043 30.4476 23.1043 30.4469 23.1043 30.4463C23.1043 30.4457 23.1043 30.445 23.1043 30.4444C23.1043 30.4438 23.1043 30.4431 23.1043 30.4425C23.1043 30.4419 23.1043 30.4412 23.1043 30.4406C23.1043 30.44 23.1043 30.4394 23.1043 30.4387C23.1043 30.4381 23.1043 30.4375 23.1043 30.4368C23.1043 30.4362 23.1043 30.4356 23.1043 30.4349C23.1043 30.4343 23.1043 30.4337 23.1043 30.433C23.1043 30.4324 23.1043 30.4318 23.1043 30.4311C23.1043 30.4305 23.1043 30.4299 23.1043 30.4292C23.1043 30.4286 23.1043 30.428 23.1043 30.4273C23.1043 30.4267 23.1043 30.4261 23.1043 30.4254C23.1043 30.4248 23.1043 30.4242 23.1043 30.4235C23.1043 30.4229 23.1043 30.4223 23.1043 30.4216C23.1043 30.421 23.1043 30.4204 23.1043 30.4197C23.1043 30.4191 23.1043 30.4185 23.1043 30.4178C23.1043 30.4172 23.1043 30.4166 23.1043 30.4159C23.1043 30.4153 23.1043 30.4147 23.1043 30.414C23.1043 30.4134 23.1043 30.4128 23.1043 30.4121C23.1043 30.4115 23.1043 30.4109 23.1043 30.4102C23.1043 30.4096 23.1043 30.409 23.1043 30.4083C23.1043 30.4077 23.1043 30.4071 23.1043 30.4064C23.1043 30.4058 23.1043 30.4052 23.1043 30.4045C23.1043 30.4039 23.1043 30.4033 23.1043 30.4026C23.1043 30.402 23.1043 30.4014 23.1043 30.4007C23.1043 30.4001 23.1043 30.3995 23.1043 30.3989C23.1043 30.3982 23.1043 30.3976 23.1043 30.397C23.1043 30.3963 23.1043 30.3957 23.1043 30.3951C23.1043 30.3944 23.1043 30.3938 23.1043 30.3932C23.1043 30.3925 23.1043 30.3919 23.1043 30.3913C23.1043 30.3906 23.1043 30.39 23.1043 30.3894C23.1043 30.3887 23.1043 30.3881 23.1043 30.3875C23.1043 30.3868 23.1043 30.3862 23.1043 30.3856C23.1043 30.3849 23.1043 30.3843 23.1043 30.3837C23.1043 30.383 23.1043 30.3824 23.1043 30.3818C23.1043 30.3811 23.1043 30.3805 23.1043 30.3799C23.1043 30.3792 23.1043 30.3786 23.1043 30.378C23.1043 30.3773 23.1043 30.3767 23.1043 30.3761C23.1043 30.3754 23.1043 30.3748 23.1043 30.3742C23.1043 30.3735 23.1043 30.3729 23.1043 30.3723C23.1043 30.3716 23.1043 30.371 23.1043 30.3704C23.1043 30.3697 23.1043 30.3691 23.1043 30.3685C23.1043 30.3678 23.1043 30.3672 23.1043 30.3666C23.1043 30.3659 23.1043 30.3653 23.1043 30.3647C23.1043 30.364 23.1043 30.3634 23.1043 30.3628C23.1043 30.3621 23.1043 30.3615 23.1043 30.3609C23.1043 30.3602 23.1043 30.3596 23.1043 30.359C23.1043 30.3584 23.1043 30.3577 23.1043 30.3571C23.1043 30.3565 23.1043 30.3558 23.1043 30.3552C23.1043 30.3546 23.1043 30.3539 23.1043 30.3533C23.1043 30.3527 23.1043 30.352 23.1043 30.3514C23.1043 30.3508 23.1043 30.3501 23.1043 30.3495C23.1043 30.3489 23.1043 30.3482 23.1043 30.3476C23.1043 30.347 23.1043 30.3463 23.1043 30.3457C23.1043 30.3451 23.1043 30.3444 23.1043 30.3438C23.1043 30.3432 23.1043 30.3425 23.1043 30.3419C23.1043 30.3413 23.1043 30.3406 23.1043 30.34C23.1043 30.3394 23.1043 30.3387 23.1043 30.3381C23.1043 30.3375 23.1043 30.3368 23.1043 30.3362C23.1043 30.3356 23.1043 30.3349 23.1043 30.3343C23.1043 30.3337 23.1043 30.333 23.1043 30.3324C23.1043 30.3318 23.1043 30.3311 23.1043 30.3305C23.1043 30.3299 23.1043 30.3292 23.1043 30.3286C23.1043 30.328 23.1043 30.3273 23.1043 30.3267C23.1043 30.3261 23.1043 30.3254 23.1043 30.3248C23.1043 30.3242 23.1043 30.3235 23.1043 30.3229C23.1043 30.3223 23.1043 30.3216 23.1043 30.321C23.1043 30.3204 23.1043 30.3197 23.1043 30.3191C23.1043 30.3185 23.1043 30.3179 23.1043 30.3172C23.1043 30.3166 23.1043 30.316 23.1043 30.3153C23.1043 30.3147 23.1043 30.3141 23.1043 30.3134C23.1043 30.3128 23.1043 30.3122 23.1043 30.3115C23.1043 30.3109 23.1043 30.3103 23.1043 30.3096C23.1043 30.309 23.1043 30.3084 23.1043 30.3077C23.1043 30.3071 23.1043 30.3065 23.1043 30.3058C23.1043 30.3052 23.1043 30.3046 23.1043 30.3039C23.1043 30.3033 23.1043 30.3027 23.1043 30.302C23.1043 30.3014 23.1043 30.3008 23.1043 30.3001C23.1043 30.2995 23.1043 30.2989 23.1043 30.2982C23.1043 30.2976 23.1043 30.297 23.1043 30.2963C23.1043 30.2957 23.1043 30.2951 23.1043 30.2944C23.1043 30.2938 23.1043 30.2932 23.1043 30.2925C23.1043 30.2919 23.1043 30.2913 23.1043 30.2906C23.1043 30.29 23.1043 30.2894 23.1043 30.2887C23.1043 30.2881 23.1043 30.2875 23.1043 30.2868C23.1043 30.2862 23.1043 30.2856 23.1043 30.2849C23.1043 30.2843 23.1043 30.2837 23.1043 30.283C23.1043 30.2824 23.1043 30.2818 23.1043 30.2811C23.1043 30.2805 23.1043 30.2799 23.1043 30.2792C23.1043 30.2786 23.1043 30.278 23.1043 30.2774C23.1043 30.2767 23.1043 30.2761 23.1043 30.2755C23.1043 30.2748 23.1043 30.2742 23.1043 30.2736C23.1043 30.2729 23.1043 30.2723 23.1043 30.2717C23.1043 30.271 23.1043 30.2704 23.1043 30.2698C23.1043 30.2691 23.1043 30.2685 23.1043 30.2679C23.1043 30.2672 23.1043 30.2666 23.1043 30.266C23.1043 30.2653 23.1043 30.2647 23.1043 30.2641C23.1043 30.2634 23.1043 30.2628 23.1043 30.2622C23.1043 30.2615 23.1043 30.2609 23.1043 30.2603C23.1043 30.2596 23.1043 30.259 23.1043 30.2584C23.1043 30.2577 23.1043 30.2571 23.1043 30.2565C23.1043 30.2558 23.1043 30.2552 23.1043 30.2546C23.1043 30.2539 23.1043 30.2533 23.1043 30.2527C23.1043 30.252 23.1043 30.2514 23.1043 30.2508C23.1043 30.2501 23.1043 30.2495 23.1043 30.2489C23.1043 30.2482 23.1043 30.2476 23.1043 30.247C23.1043 30.2463 23.1043 30.2457 23.1043 30.2451C23.1043 30.2444 23.1043 30.2438 23.1043 30.2432C23.1043 30.2425 23.1043 30.2419 23.1043 30.2413C23.1043 30.2406 23.1043 30.24 23.1043 30.2394C23.1043 30.2387 23.1043 30.2381 23.1043 30.2375C23.1043 30.2369 23.1043 30.2362 23.1043 30.2356C23.1043 30.235 23.1043 30.2343 23.1043 30.2337C23.1043 30.2331 23.1043 30.2324 23.1043 30.2318C23.1043 30.2312 23.1043 30.2305 23.1043 30.2299C23.1043 30.2293 23.1043 30.2286 23.1043 30.228C23.1043 30.2274 23.1043 30.2267 23.1043 30.2261C23.1043 30.2255 23.1043 30.2248 23.1043 30.2242C23.1043 30.2236 23.1043 30.2229 23.1043 30.2223C23.1043 30.2217 23.1043 30.221 23.1043 30.2204C23.1043 30.2198 23.1043 30.2191 23.1043 30.2185C23.1043 30.2179 23.1043 30.2172 23.1043 30.2166C23.1043 30.216 23.1043 30.2153 23.1043 30.2147C23.1043 30.2141 23.1043 30.2134 23.1043 30.2128C23.1043 30.2122 23.1043 30.2115 23.1043 30.2109C23.1043 30.2103 23.1043 30.2096 23.1043 30.209C23.1043 30.2084 23.1043 30.2077 23.1043 30.2071C23.1043 30.2065 23.1043 30.2058 23.1043 30.2052C23.1043 30.2046 23.1043 30.2039 23.1043 30.2033C23.1043 30.2027 23.1043 30.202 23.1043 30.2014C23.1043 30.2008 23.1043 30.2001 23.1043 30.1995C23.1043 30.1989 23.1043 30.1982 23.1043 30.1976C23.1043 30.197 23.1043 30.1964 23.1043 30.1957C23.1043 30.1951 23.1043 30.1945 23.1043 30.1938C23.1043 30.1932 23.1043 30.1926 23.1043 30.1919C23.1043 30.1913 23.1043 30.1907 23.1043 30.19C23.1043 30.1894 23.1043 30.1888 23.1043 30.1881C23.1043 30.1875 23.1043 30.1869 23.1043 30.1862C23.1043 30.1856 23.1043 30.185 23.1043 30.1843C23.1043 30.1837 23.1043 30.1831 23.1043 30.1824C23.1043 30.1818 23.1043 30.1812 23.1043 30.1805C23.1043 30.1799 23.1043 30.1793 23.1043 30.1786C23.1043 30.178 23.1043 30.1774 23.1043 30.1767C23.1043 30.1761 23.1043 30.1755 23.1043 30.1748C23.1043 30.1742 23.1043 30.1736 23.1043 30.1729C23.1043 30.1723 23.1043 30.1717 23.1043 30.171C23.1043 30.1704 23.1043 30.1698 23.1043 30.1691C23.1043 30.1685 23.1043 30.1679 23.1043 30.1672C23.1043 30.1666 23.1043 30.166 23.1043 30.1653C23.1043 30.1647 23.1043 30.1641 23.1043 30.1634C23.1043 30.1628 23.1043 30.1622 23.1043 30.1615C23.1043 30.1609 23.1043 30.1603 23.1043 30.1596C23.1043 30.159 23.1043 30.1584 23.1043 30.1577C23.1043 30.1571 23.1043 30.1565 23.1043 30.1559C23.1043 30.1552 23.1043 30.1546 23.1043 30.154C23.1043 30.1533 23.1043 30.1527 23.1043 30.1521C23.1043 30.1514 23.1043 30.1508 23.1043 30.1502C23.1043 30.1495 23.1043 30.1489 23.1043 30.1483C23.1043 30.1476 23.1043 30.147 23.1043 30.1464C23.1043 30.1457 23.1043 30.1451 23.1043 30.1445C23.1043 30.1438 23.1043 30.1432 23.1043 30.1426C23.1043 30.1419 23.1043 30.1413 23.1043 30.1407C23.1043 30.14 23.1043 30.1394 23.1043 30.1388C23.1043 30.1381 23.1043 30.1375 23.1043 30.1369C23.1043 30.1362 23.1043 30.1356 23.1043 30.135C23.1043 30.1343 23.1043 30.1337 23.1043 30.1331C23.1043 30.1324 23.1043 30.1318 23.1043 30.1312C23.1043 30.1305 23.1043 30.1299 23.1043 30.1293C23.1043 30.1286 23.1043 30.128 23.1043 30.1274C23.1043 30.1267 23.1043 30.1261 23.1043 30.1255C23.1043 30.1248 23.1043 30.1242 23.1043 30.1236C23.1043 30.1229 23.1043 30.1223 23.1043 30.1217C23.1043 30.121 23.1043 30.1204 23.1043 30.1198C23.1043 30.1191 23.1043 30.1185 23.1043 30.1179C23.1043 30.1172 23.1043 30.1166 23.1043 30.116C23.1043 30.1154 23.1043 30.1147 23.1043 30.1141C23.1043 30.1135 23.1043 30.1128 23.1043 30.1122C23.1043 30.1116 23.1043 30.1109 23.1043 30.1103C23.1043 30.1097 23.1043 30.109 23.1043 30.1084C23.1043 30.1078 23.1043 30.1071 23.1043 30.1065C23.1043 30.1059 23.1043 30.1052 23.1043 30.1046C23.1043 30.104 23.1043 30.1033 23.1043 30.1027C23.1043 30.1021 23.1043 30.1014 23.1043 30.1008C23.1043 30.1002 23.1043 30.0995 23.1043 30.0989C23.1043 30.0983 23.1043 30.0976 23.1043 30.097C23.1043 30.0964 23.1043 30.0957 23.1043 30.0951C23.1043 30.0945 23.1043 30.0938 23.1043 30.0932C23.1043 30.0926 23.1043 30.0919 23.1043 30.0913C23.1043 30.0907 23.1043 30.09 23.1043 30.0894C23.1043 30.0888 23.1043 30.0881 23.1043 30.0875C23.1043 30.0869 23.1043 30.0862 23.1043 30.0856C23.1043 30.085 23.1043 30.0843 23.1043 30.0837C23.1043 30.0831 23.1043 30.0824 23.1043 30.0818C23.1043 30.0812 23.1043 30.0805 23.1043 30.0799C23.1043 30.0793 23.1043 30.0786 23.1043 30.078C23.1043 30.0774 23.1043 30.0767 23.1043 30.0761C23.1043 30.0755 23.1043 30.0749 23.1043 30.0742C23.1043 30.0736 23.1043 30.073 23.1043 30.0723C23.1043 30.0717 23.1043 30.0711 23.1043 30.0704C23.1043 30.0698 23.1043 30.0692 23.1043 30.0685C23.1043 30.0679 23.1043 30.0673 23.1043 30.0666C23.1043 30.066 23.1043 30.0654 23.1043 30.0647C23.1043 30.0641 23.1043 30.0635 23.1043 30.0628C23.1043 30.0622 23.1043 30.0616 23.1043 30.0609C23.1043 30.0603 23.1043 30.0597 23.1043 30.059C23.1043 30.0584 23.1043 30.0578 23.1043 30.0571C23.1043 30.0565 23.1043 30.0559 23.1043 30.0552C23.1043 30.0546 23.1043 30.054 23.1043 30.0533C23.1043 30.0527 23.1043 30.0521 23.1043 30.0514C23.1043 30.0508 23.1043 30.0502 23.1043 30.0495C23.1043 30.0489 23.1043 30.0483 23.1043 30.0476C23.1043 30.047 23.1043 30.0464 23.1043 30.0457C23.1043 30.0451 23.1043 30.0445 23.1043 30.0438C23.1043 30.0432 23.1043 30.0426 23.1043 30.0419C23.1043 30.0413 23.1043 30.0407 23.1043 30.04C23.1043 30.0394 23.1043 30.0388 23.1043 30.0381C23.1043 30.0375 23.1043 30.0369 23.1043 30.0362C23.1043 30.0356 23.1043 30.035 23.1043 30.0344C23.1043 30.0337 23.1043 30.0331 23.1043 30.0325C23.1043 30.0318 23.1043 30.0312 23.1043 30.0306C23.1043 30.0299 23.1043 30.0293 23.1043 30.0287C23.1043 30.028 23.1043 30.0274 23.1043 30.0268C23.1043 30.0261 23.1043 30.0255 23.1043 30.0249C23.1043 30.0242 23.1043 30.0236 23.1043 30.023C23.1043 30.0223 23.1043 30.0217 23.1043 30.0211C23.1043 30.0204 23.1043 30.0198 23.1043 30.0192C23.1043 30.0185 23.1043 30.0179 23.1043 30.0173C23.1043 30.0166 23.1043 30.016 23.1043 30.0154C23.1043 30.0147 23.1043 30.0141 23.1043 30.0135C23.1043 30.0128 23.1043 30.0122 23.1043 30.0116C23.1043 30.0109 23.1043 30.0103 23.1043 30.0097C23.1043 30.009 23.1043 30.0084 23.1043 30.0078C23.1043 30.0071 23.1043 30.0065 23.1043 30.0059C23.1043 30.0052 23.1043 30.0046 23.1043 30.004C23.1043 30.0033 23.1043 30.0027 23.1043 30.0021C23.1043 30.0014 23.1043 30.0008 23.1043 30.0002C23.1043 29.9995 23.1043 29.9989 23.1043 29.9983C23.1043 29.9976 23.1043 29.997 23.1043 29.9964C23.1043 29.9957 23.1043 29.9951 23.1043 29.9945C23.1043 29.9939 23.1043 29.9932 23.1043 29.9926C23.1043 29.992 23.1043 29.9913 23.1043 29.9907C23.1043 29.9901 23.1043 29.9894 23.1043 29.9888C23.1043 29.9882 23.1043 29.9875 23.1043 29.9869C23.1043 29.9863 23.1043 29.9856 23.1043 29.985C23.1043 29.9844 23.1043 29.9837 23.1043 29.9831C23.1043 29.9825 23.1043 29.9818 23.1043 29.9812C23.1043 29.9806 23.1043 29.9799 23.1043 29.9793C23.1043 29.9787 23.1043 29.978 23.1043 29.9774C23.1043 29.9768 23.1043 29.9761 23.1043 29.9755C23.1043 29.9749 23.1043 29.9742 23.1043 29.9736C23.1043 29.973 23.1043 29.9723 23.1043 29.9717C23.1043 29.9711 23.1043 29.9704 23.1043 29.9698C23.1043 29.9692 23.1043 29.9685 23.1043 29.9679C23.1043 29.9673 23.1043 29.9666 23.1043 29.966C23.1043 29.9654 23.1043 29.9647 23.1043 29.9641C23.1043 29.9635 23.1043 29.9628 23.1043 29.9622C23.1043 29.9616 23.1043 29.9609 23.1043 29.9603C23.1043 29.9597 23.1043 29.959 23.1043 29.9584C23.1043 29.9578 23.1043 29.9571 23.1043 29.9565C23.1043 29.9559 23.1043 29.9552 23.1043 29.9546C23.1043 29.954 23.1043 29.9534 23.1043 29.9527C23.1043 29.9521 23.1043 29.9515 23.1043 29.9508C23.1043 29.9502 23.1043 29.9496 23.1043 29.9489C23.1043 29.9483 23.1043 29.9477 23.1043 29.947C23.1043 29.9464 23.1043 29.9458 23.1043 29.9451C23.1043 29.9445 23.1043 29.9439 23.1043 29.9432C23.1043 29.9426 23.1043 29.942 23.1043 29.9413C23.1043 29.9407 23.1043 29.9401 23.1043 29.9394C23.1043 29.9388 23.1043 29.9382 23.1043 29.9375C23.1043 29.9369 23.1043 29.9363 23.1043 29.9356C23.1043 29.935 23.1043 29.9344 23.1043 29.9337C23.1043 29.9331 23.1043 29.9325 23.1043 29.9318C23.1043 29.9312 23.1043 29.9306 23.1043 29.9299C23.1043 29.9293 23.1043 29.9287 23.1043 29.928C23.1043 29.9274 23.1043 29.9268 23.1043 29.9261C23.1043 29.9255 23.1043 29.9249 23.1043 29.9242C23.1043 29.9236 23.1043 29.923 23.1043 29.9223C23.1043 29.9217 23.1043 29.9211 23.1043 29.9204C23.1043 29.9198 23.1043 29.9192 23.1043 29.9185C23.1043 29.9179 23.1043 29.9173 23.1043 29.9166C23.1043 29.916 23.1043 29.9154 23.1043 29.9147C23.1043 29.9141 23.1043 29.9135 23.1043 29.9129C23.1043 29.9122 23.1043 29.9116 23.1043 29.911C23.1043 29.9103 23.1043 29.9097 23.1043 29.9091C23.1043 29.9084 23.1043 29.9078 23.1043 29.9072C23.1043 29.9065 23.1043 29.9059 23.1043 29.9053C23.1043 29.9046 23.1043 29.904 23.1043 29.9034C23.1043 29.9027 23.1043 29.9021 23.1043 29.9015C23.1043 29.9008 23.1043 29.9002 23.1043 29.8996C23.1043 29.8989 23.1043 29.8983 23.1043 29.8977C23.1043 29.897 23.1043 29.8964 23.1043 29.8958C23.1043 29.8951 23.1043 29.8945 23.1043 29.8939C23.1043 29.8932 23.1043 29.8926 23.1043 29.892C23.1043 29.8913 23.1043 29.8907 23.1043 29.8901C23.1043 29.8894 23.1043 29.8888 23.1043 29.8882C23.1043 29.8875 23.1043 29.8869 23.1043 29.8863C23.1043 29.8856 23.1043 29.885 23.1043 29.8844C23.1043 29.8837 23.1043 29.8831 23.1043 29.8825C23.1043 29.8818 23.1043 29.8812 23.1043 29.8806C23.1043 29.8799 23.1043 29.8793 23.1043 29.8787C23.1043 29.878 23.1043 29.8774 23.1043 29.8768C23.1043 29.8761 23.1043 29.8755 23.1043 29.8749C23.1043 29.8742 23.1043 29.8736 23.1043 29.873C23.1043 29.8724 23.1043 29.8717 23.1043 29.8711C23.1043 29.8705 23.1043 29.8698 23.1043 29.8692C23.1043 29.8686 23.1043 29.8679 23.1043 29.8673C23.1043 29.8667 23.1043 29.866 23.1043 29.8654C23.1043 29.8648 23.1043 29.8641 23.1043 29.8635C23.1043 29.8629 23.1043 29.8622 23.1043 29.8616C23.1043 29.861 23.1043 29.8603 23.1043 29.8597C23.1043 29.8591 23.1043 29.8584 23.1043 29.8578C23.1043 29.8572 23.1043 29.8565 23.1043 29.8559C23.1043 29.8553 23.1043 29.8546 23.1043 29.854H7.1043ZM7.1043 30.826C7.1043 32.5979 7.21496 34.3357 7.45036 36.0305L23.2982 33.8295C23.1736 32.9323 23.1043 31.9341 23.1043 30.826H7.1043ZM7.48932 36.2817C7.80866 38.1445 8.34788 39.9948 9.19229 41.7485L23.6083 34.8075C23.5167 34.6172 23.3719 34.2355 23.2593 33.5783L7.48932 36.2817ZM9.35653 42.0708C10.4232 44.0518 11.9145 45.7809 13.8298 47.1132L22.9668 33.9788C23.08 34.0575 23.1882 34.1538 23.2807 34.2588C23.372 34.3624 23.423 34.4462 23.4441 34.4852L9.35653 42.0708ZM14.1583 47.33C16.5641 48.8336 19.1793 49.356 21.5843 49.356V33.356C21.4693 33.356 21.9605 33.3384 22.6383 33.762L14.1583 47.33ZM21.5843 49.356C23.7278 49.356 26.1133 48.9077 28.3463 47.5679L20.1143 33.8481C20.9072 33.3723 21.5288 33.356 21.5843 33.356V49.356ZM28.1994 47.6539C29.9509 46.6531 31.4832 45.2842 32.6688 43.5515L19.4638 34.5165C19.5785 34.3489 19.7153 34.1915 19.8663 34.0539C20.0161 33.9172 20.1551 33.8227 20.2612 33.7621L28.1994 47.6539ZM32.6688 43.5515C33.6357 42.1383 34.3574 40.5861 34.8104 38.9249L19.3742 34.7151C19.3828 34.6834 19.3964 34.6446 19.4153 34.6038C19.4341 34.5632 19.4523 34.5334 19.4638 34.5165L32.6688 43.5515ZM34.8332 38.8394C35.199 37.4372 35.4163 35.9641 35.4163 34.444H19.4163C19.4163 34.4359 19.4176 34.5468 19.3514 34.8006L34.8332 38.8394ZM35.4163 34.444C35.4163 31.0946 34.6064 27.1796 31.6925 24.0647L20.0081 34.9953C19.6226 34.5831 19.4568 34.195 19.4025 34.0246C19.3586 33.8868 19.4163 33.9868 19.4163 34.444H35.4163ZM31.7782 24.1578C28.6319 20.6861 24.3571 19.802 20.8823 19.802V35.802C21.3704 35.802 21.4209 35.8678 21.1971 35.79C20.9238 35.6949 20.41 35.4402 19.9224 34.9022L31.7782 24.1578ZM21.6923 30.618C23.195 30.618 23.9688 30.8421 24.2732 30.9695L30.4514 16.2105C27.6598 15.0419 24.6536 14.618 21.6923 14.618V30.618ZM24.4791 31.0524C24.7902 31.1726 24.9832 31.2817 25.0929 31.3543C25.1989 31.4245 25.2404 31.4691 25.2499 31.4797L37.1427 20.7763C35.1985 18.6161 32.8046 17.1164 30.2455 16.1276L24.4791 31.0524ZM25.2499 31.4797C25.4037 31.6505 25.5351 31.8583 25.6397 32.2068L40.9649 27.6092C40.2055 25.0777 38.9329 22.7655 37.1427 20.7763L25.2499 31.4797ZM25.7128 32.4378C25.8966 32.9891 26.0043 33.608 26.0043 34.336H42.0043C42.0043 31.968 41.644 29.6349 40.8918 27.3782L25.7128 32.4378ZM26.0043 34.336C26.0043 34.7687 25.9286 35.3355 25.6775 36.0708L40.8191 41.2412C41.576 39.0245 42.0043 36.7113 42.0043 34.336H26.0043ZM25.6225 36.238C25.4898 36.6563 25.2721 37.0706 24.8936 37.5144L37.067 47.8976C38.7765 45.8934 40.0708 43.6077 40.8741 41.074L25.6225 36.238ZM24.8802 37.5302C24.6296 37.8255 24.2204 38.1867 23.5025 38.554L30.7901 52.798C33.1682 51.5813 35.315 49.9625 37.0804 47.8818L24.8802 37.5302ZM23.6356 38.4875C23.4057 38.5998 22.8232 38.81 21.6383 38.81V54.81C24.7014 54.81 27.7909 54.2642 30.657 52.8645L23.6356 38.4875ZM21.6383 38.81C19.2687 38.81 18.493 38.1398 18.0338 37.5713L5.58677 47.6247C9.66359 52.6722 15.4399 54.81 21.6383 54.81V38.81ZM18.1036 37.6589C17.3264 36.6686 16.4623 34.719 16.4623 30.88H0.462297C0.462297 36.977 1.83022 42.8394 5.51699 47.5371L18.1036 37.6589ZM16.4623 30.88C16.4623 28.0419 16.8747 25.8415 17.5149 24.1416L2.54167 18.5024C1.09387 22.3465 0.462297 26.5181 0.462297 30.88H16.4623ZM17.4951 24.1938C18.2075 22.3415 19.1228 20.9834 20.168 19.9575L8.96056 8.53853C6.11782 11.3286 4.00912 14.6864 2.56153 18.4502L17.4951 24.1938ZM20.1154 20.0086C21.2116 18.9523 22.5773 18.0952 24.3395 17.4773L19.0451 2.37866C15.2633 3.70477 11.877 5.72766 9.01315 8.48738L20.1154 20.0086ZM24.3952 17.4576C26.2325 16.798 28.4774 16.3899 31.2248 16.3616L31.0598 0.362424C26.8232 0.406099 22.7681 1.04196 18.9894 2.39844L24.3952 17.4576ZM23.1618 8.92063L23.5398 14.3206L39.5008 13.2034L39.1228 7.80337L23.1618 8.92063ZM31.3722 5.76337C28.9297 5.8086 26.545 6.08177 24.2432 6.62049L27.8894 22.1995C28.9716 21.9462 30.2229 21.7874 31.6684 21.7606L31.3722 5.76337ZM24.4014 6.58515C21.9536 7.10597 19.6063 7.97466 17.4417 9.26171L25.6189 23.0143C26.1183 22.7173 26.795 22.434 27.7312 22.2348L24.4014 6.58515ZM17.4417 9.26171C15.2189 10.5834 13.3115 12.2925 11.74 14.3296L24.4086 24.1024C24.7811 23.6195 25.1777 23.2766 25.6189 23.0143L17.4417 9.26171ZM11.6523 14.4454C10.0134 16.6516 8.91196 19.1476 8.19969 21.7423L23.6289 25.9777C23.9246 24.9004 24.2632 24.3004 24.4962 23.9866L11.6523 14.4454ZM19.3136 31.1019C19.939 30.8083 20.6937 30.618 21.6923 30.618V14.618C18.5149 14.618 15.4175 15.2557 12.515 16.6181L19.3136 31.1019Z" fill="white"/>
<path d="M20.8823 27.802C19.8383 27.802 18.8303 27.892 17.8583 28.072C16.8863 28.252 16.0043 28.522 15.2123 28.882C15.1763 29.17 15.1403 29.494 15.1043 29.854C15.1043 30.178 15.1043 30.502 15.1043 30.826C15.1043 32.266 15.1943 33.634 15.3743 34.93C15.5903 36.19 15.9323 37.306 16.4003 38.278C16.9043 39.214 17.5703 39.97 18.3983 40.546C19.2623 41.086 20.3243 41.356 21.5843 41.356C22.6283 41.356 23.5103 41.14 24.2303 40.708C24.9863 40.276 25.5983 39.718 26.0663 39.034C26.5343 38.35 26.8763 37.612 27.0923 36.82C27.3083 35.992 27.4163 35.2 27.4163 34.444C27.4163 32.284 26.8943 30.646 25.8503 29.53C24.8063 28.378 23.1503 27.802 20.8823 27.802ZM21.6923 22.618C23.9243 22.618 25.8143 22.942 27.3623 23.59C28.9463 24.202 30.2243 25.048 31.1963 26.128C32.1683 27.208 32.8703 28.468 33.3023 29.908C33.7703 31.312 34.0043 32.788 34.0043 34.336C34.0043 35.74 33.7523 37.18 33.2483 38.656C32.7803 40.132 32.0243 41.482 30.9803 42.706C29.9723 43.894 28.6943 44.884 27.1463 45.676C25.5983 46.432 23.7623 46.81 21.6383 46.81C17.3543 46.81 14.0783 45.406 11.8103 42.598C9.5783 39.754 8.4623 35.848 8.4623 30.88C8.4623 27.28 8.9843 24.094 10.0283 21.322C11.1083 18.514 12.6203 16.156 14.5643 14.248C16.5443 12.34 18.9203 10.9 21.6923 9.928C24.5003 8.92 27.6503 8.398 31.1423 8.362L31.5203 13.762C29.5763 13.798 27.7583 14.014 26.0663 14.41C24.3743 14.77 22.8623 15.346 21.5303 16.138C20.1983 16.93 19.0463 17.956 18.0743 19.216C17.1383 20.476 16.4183 22.024 15.9143 23.86C17.6783 23.032 19.6043 22.618 21.6923 22.618Z" fill="#70C000"/>
</svg>
