<svg width="120" height="120" viewBox="0 0 120 120" fill="none" xmlns="http://www.w3.org/2000/svg">
<g filter="url(#filter0_d)">
<circle cx="47.5" cy="34.5" r="8.5" fill="#F4FED8" stroke="#F4FED8" stroke-width="8"/>
<circle cx="94.5" cy="85.5" r="8.5" fill="#F4FED8" stroke="#F4FED8" stroke-width="8"/>
<circle cx="62.5" cy="66.5" r="8.5" fill="#F4FED8" stroke="#F4FED8" stroke-width="8"/>
<path d="M84.75 85.875L76.7897 85.079C76.7633 85.3435 76.75 85.6092 76.75 85.875H84.75ZM84.8906 84.4688L92.8509 85.2648C93.1648 82.1264 91.6053 79.0965 88.8689 77.528L84.8906 84.4688ZM73.3594 77.8594L77.3376 70.9186C74.2043 69.1227 70.2562 69.6488 67.7025 72.2025L73.3594 77.8594ZM68.2969 81.375L71.4482 88.7282C71.5157 88.6993 71.5827 88.6694 71.6493 88.6387L68.2969 81.375ZM54.375 80.3906L58.4312 73.4951C58.3746 73.4619 58.3175 73.4293 58.2601 73.3974L54.375 80.3906ZM48.6094 74.625L55.6026 70.7399C55.5707 70.6824 55.5381 70.6254 55.5048 70.5688L48.6094 74.625ZM48.1875 59.7188L41.1287 55.954C41.0957 56.0159 41.0635 56.0783 41.0321 56.141L48.1875 59.7188ZM52.6875 54.2344L57.6301 60.5249C60.5497 58.2309 61.5072 54.2296 59.9422 50.8625L52.6875 54.2344ZM48.0469 44.25L55.3016 40.8781C53.9896 38.0554 51.1595 36.25 48.0469 36.25V44.25ZM54.2344 41.7188L48.9663 35.6981C46.2658 38.0611 45.4691 41.9332 47.0173 45.1704L54.2344 41.7188ZM58.875 51.4219L51.6579 54.8735C53.2984 58.3036 57.1266 60.1052 60.8153 59.183L58.875 51.4219ZM70.125 53.1094L74.1812 46.2139C74.1246 46.1806 74.0676 46.148 74.0101 46.1161L70.125 53.1094ZM75.8906 58.875L82.8839 54.9899C82.852 54.9325 82.8194 54.8754 82.7861 54.8188L75.8906 58.875ZM77.0156 72.2344L69.3694 69.8817C68.2721 73.448 69.7859 77.2992 73.0178 79.1639L77.0156 72.2344ZM87.9844 78.5625L83.9866 85.492C87.027 87.2461 90.8558 86.8133 93.428 84.4249L87.9844 78.5625ZM50.0156 31.7344L56.2626 26.7368C55.8935 26.2755 55.4745 25.8565 55.0132 25.4874L50.0156 31.7344ZM45.2344 36.5156L51.4813 31.5181C51.1123 31.0567 50.6933 30.6377 50.2319 30.2687L45.2344 36.5156ZM68.5781 60.4219L74.4566 54.9956C74.3119 54.8389 74.1611 54.6881 74.0044 54.5434L68.5781 60.4219ZM55.9219 73.0781L61.8003 67.6519C61.6557 67.4952 61.5048 67.3443 61.3481 67.1997L55.9219 73.0781ZM97.2656 83.4844L103.513 78.4868C103.144 78.0255 102.725 77.6065 102.263 77.2374L97.2656 83.4844ZM92.4844 88.2656L98.7313 83.2681C98.3623 82.8067 97.9433 82.3877 97.4819 82.0187L92.4844 88.2656ZM87.2812 52.5469L92.0813 58.9469C93.7922 57.6637 94.9181 55.7489 95.2076 53.6299C95.4971 51.511 94.9262 49.3643 93.6222 47.6692L87.2812 52.5469ZM80.5312 57.6094L74.1903 62.4871C76.8609 65.9589 81.8271 66.6375 85.3313 64.0094L80.5312 57.6094ZM77.7188 53.9531L72.9187 47.5531C71.2078 48.8363 70.0819 50.7511 69.7924 52.8701C69.5029 54.989 70.0738 57.1357 71.3778 58.8308L77.7188 53.9531ZM84.4688 48.8906L90.8097 44.0129C88.1391 40.5411 83.1729 39.8625 79.6687 42.4906L84.4688 48.8906ZM89.6719 48.3281L95.5503 42.9019C95.4057 42.7452 95.2548 42.5943 95.0981 42.4497L89.6719 48.3281ZM102.328 35.6719L108.207 30.2456C108.062 30.0889 107.911 29.9381 107.754 29.7934L102.328 35.6719ZM36.375 69H28.375C28.375 73.4183 31.9567 77 36.375 77V69ZM36.375 64.5L36.375 56.5C31.9567 56.5 28.375 60.0817 28.375 64.5H36.375ZM43.125 64.5H51.125C51.125 60.0817 47.5433 56.5 43.125 56.5L43.125 64.5ZM43.125 69V77C47.5433 77 51.125 73.4183 51.125 69H43.125ZM30.3281 60.4219L36.2066 54.9956C36.0619 54.8389 35.9111 54.6881 35.7544 54.5434L30.3281 60.4219ZM17.6719 73.0781L23.5503 67.6519C23.4057 67.4952 23.2548 67.3443 23.0981 67.1997L17.6719 73.0781ZM94.875 83.75C95.59 83.75 95.9386 83.9086 96.39 84.36L107.704 73.0463C104.218 69.5602 99.785 67.75 94.875 67.75V83.75ZM96.39 84.36C96.8414 84.8114 97 85.16 97 85.875H113C113 80.965 111.19 76.5323 107.704 73.0463L96.39 84.36ZM97 85.875C97 86.59 96.8414 86.9386 96.39 87.39L107.704 98.7037C111.19 95.2177 113 90.785 113 85.875H97ZM96.39 87.39C95.9386 87.8414 95.59 88 94.875 88V104C99.785 104 104.218 102.19 107.704 98.7037L96.39 87.39ZM94.875 88C94.16 88 93.8114 87.8414 93.36 87.39L82.0463 98.7037C85.5323 102.19 89.965 104 94.875 104V88ZM93.36 87.39C92.9086 86.9386 92.75 86.59 92.75 85.875H76.75C76.75 90.785 78.5602 95.2177 82.0463 98.7037L93.36 87.39ZM92.7103 86.671L92.8509 85.2648L76.9303 83.6727L76.7897 85.079L92.7103 86.671ZM88.8689 77.528L77.3376 70.9186L69.3811 84.8001L80.9124 91.4095L88.8689 77.528ZM67.7025 72.2025C66.8727 73.0323 65.9819 73.6325 64.9444 74.1113L71.6493 88.6387C74.2681 87.43 76.7523 85.7802 79.0162 83.5162L67.7025 72.2025ZM65.1455 74.0218C64.4404 74.3241 63.6112 74.5 62.25 74.5V90.5C65.1075 90.5 68.2159 90.1134 71.4482 88.7282L65.1455 74.0218ZM62.25 74.5C60.8051 74.5 59.5427 74.149 58.4312 73.4951L50.3188 87.2861C53.9885 89.4447 58.0699 90.5 62.25 90.5V74.5ZM58.2601 73.3974C57.0348 72.7166 56.2834 71.9652 55.6026 70.7399L41.6161 78.5101C43.7479 82.3473 46.6527 85.2521 50.4899 87.3839L58.2601 73.3974ZM55.5048 70.5688C54.851 69.4573 54.5 68.1949 54.5 66.75H38.5C38.5 70.9301 39.5553 75.0115 41.7139 78.6812L55.5048 70.5688ZM54.5 66.75C54.5 65.5258 54.7435 64.4953 55.3429 63.2965L41.0321 56.141C39.3815 59.4422 38.5 62.9117 38.5 66.75H54.5ZM55.2463 63.4835C55.945 62.1735 56.6819 61.2699 57.6301 60.5249L47.7449 47.9438C44.7556 50.2926 42.68 53.0453 41.1287 55.954L55.2463 63.4835ZM59.9422 50.8625L55.3016 40.8781L40.7922 47.6219L45.4328 57.6063L59.9422 50.8625ZM48.0469 36.25H47.625V52.25H48.0469V36.25ZM47.625 36.25C46.91 36.25 46.5614 36.0914 46.11 35.64L34.7963 46.9537C38.2823 50.4398 42.715 52.25 47.625 52.25V36.25ZM46.11 35.64C45.6586 35.1886 45.5 34.84 45.5 34.125H29.5C29.5 39.035 31.3102 43.4677 34.7963 46.9537L46.11 35.64ZM45.5 34.125C45.5 33.41 45.6586 33.0614 46.11 32.61L34.7963 21.2963C31.3102 24.7823 29.5 29.215 29.5 34.125H45.5ZM46.11 32.61C46.5614 32.1586 46.91 32 47.625 32V16C42.715 16 38.2823 17.8102 34.7963 21.2963L46.11 32.61ZM47.625 32C48.34 32 48.6886 32.1586 49.14 32.61L60.4537 21.2963C56.9677 17.8102 52.535 16 47.625 16V32ZM49.14 32.61C49.5914 33.0614 49.75 33.41 49.75 34.125L65.75 34.125C65.75 29.215 63.9398 24.7823 60.4537 21.2963L49.14 32.61ZM49.75 34.125C49.75 34.5485 49.6711 34.7814 49.6019 34.9277C49.5269 35.0867 49.3632 35.3509 48.9663 35.6981L59.5024 47.7394C63.3523 44.3707 65.75 39.7007 65.75 34.125L49.75 34.125ZM47.0173 45.1704L51.6579 54.8735L66.0921 47.9702L61.4515 38.2671L47.0173 45.1704ZM60.8153 59.183C61.3253 59.0555 61.799 59 62.25 59L62.25 43C60.451 43 58.6747 43.2257 56.9347 43.6607L60.8153 59.183ZM62.25 59C63.5905 59 64.7947 59.2998 66.2399 60.1026L74.0101 46.1161C70.3928 44.1065 66.5345 43 62.25 43L62.25 59ZM66.0688 60.0048C67.287 60.7214 68.2786 61.713 68.9951 62.9312L82.7861 54.8188C80.6902 51.2558 77.7442 48.3098 74.1812 46.2139L66.0688 60.0048ZM68.8974 62.7601C69.7002 64.2053 70 65.4095 70 66.75H86C86 62.4655 84.8935 58.6072 82.8839 54.9899L68.8974 62.7601ZM70 66.75C70 67.4009 69.8441 68.339 69.3694 69.8817L84.6619 74.5871C85.3122 72.4735 86 69.7554 86 66.75H70ZM73.0178 79.1639L83.9866 85.492L91.9822 71.633L81.0134 65.3049L73.0178 79.1639ZM93.428 84.4249C93.8173 84.0633 94.0856 83.9207 94.2349 83.8587C94.3693 83.8028 94.5532 83.75 94.875 83.75V67.75C89.9658 67.75 85.8214 69.6539 82.5408 72.7001L93.428 84.4249ZM47.625 45.5C50.3575 45.5 53.312 44.533 55.6725 42.1725L44.3588 30.8588C44.7814 30.4362 45.3262 30.0687 45.9579 29.8215C46.5753 29.5799 47.1542 29.5 47.625 29.5V45.5ZM55.6725 42.1725C57.59 40.255 59 37.4281 59 34.125L43 34.125C43 32.7907 43.5662 31.6513 44.3588 30.8588L55.6725 42.1725ZM59 34.125C59 30.7282 57.3933 28.1502 56.2626 26.7368L43.7687 36.7319C43.7006 36.6468 43.5415 36.4331 43.3822 36.0668C43.2234 35.7015 43 35.0325 43 34.125L59 34.125ZM55.0132 25.4874C53.5998 24.3567 51.0218 22.75 47.625 22.75V38.75C46.7175 38.75 46.0485 38.5266 45.6832 38.3678C45.3169 38.2085 45.1032 38.0494 45.0181 37.9813L55.0132 25.4874ZM47.625 22.75C44.3219 22.75 41.495 24.16 39.5775 26.0775L50.8912 37.3912C50.0987 38.1838 48.9593 38.75 47.625 38.75V22.75ZM39.5775 26.0775C37.217 28.438 36.25 31.3925 36.25 34.125H52.25C52.25 34.5958 52.1701 35.1747 51.9285 35.7921C51.6813 36.4238 51.3138 36.9686 50.8912 37.3912L39.5775 26.0775ZM36.25 34.125C36.25 36.5831 36.9973 40.1709 40.2368 42.7626L50.2319 30.2687C51.0563 30.9281 51.6144 31.7606 51.9285 32.5633C52.2189 33.3056 52.25 33.8835 52.25 34.125H36.25ZM38.9874 41.5132C41.5791 44.7527 45.1669 45.5 47.625 45.5V29.5C47.8665 29.5 48.4444 29.5311 49.1867 29.8215C49.9894 30.1356 50.8219 30.6937 51.4813 31.5181L38.9874 41.5132ZM62.25 83.75C66.7865 83.75 70.9237 82.0463 74.235 78.735L62.9213 67.4213C62.6741 67.6685 62.5484 67.7148 62.5481 67.715C62.5378 67.7193 62.5208 67.7256 62.4863 67.7322C62.4501 67.7392 62.3752 67.75 62.25 67.75V83.75ZM74.235 78.735C77.2879 75.6821 79.25 71.5864 79.25 66.75H63.25C63.25 66.8613 63.2395 66.93 63.2321 66.9662C63.2248 67.0019 63.2162 67.027 63.2064 67.0496C63.1911 67.0849 63.1305 67.2121 62.9213 67.4213L74.235 78.735ZM79.25 66.75C79.25 61.953 77.214 57.9829 74.4566 54.9956L62.6997 65.8481C63.0316 66.2076 63.1604 66.4497 63.2064 66.5559C63.2434 66.6412 63.25 66.686 63.25 66.75H79.25ZM74.0044 54.5434C71.0171 51.786 67.047 49.75 62.25 49.75L62.25 65.75C62.314 65.75 62.3588 65.7566 62.4441 65.7936C62.5503 65.8396 62.7924 65.9684 63.1519 66.3003L74.0044 54.5434ZM62.25 49.75C57.4135 49.75 53.3179 51.7121 50.265 54.765L61.5787 66.0787C61.7879 65.8695 61.9151 65.8089 61.9504 65.7936C61.973 65.7838 61.9981 65.7752 62.0338 65.7679C62.07 65.7605 62.1387 65.75 62.25 65.75L62.25 49.75ZM50.265 54.765C46.9537 58.0763 45.25 62.2136 45.25 66.75H61.25C61.25 66.6248 61.2608 66.5499 61.2678 66.5137C61.2744 66.4792 61.2807 66.4622 61.285 66.4519C61.2852 66.4516 61.3315 66.3259 61.5787 66.0787L50.265 54.765ZM45.25 66.75C45.25 71.3014 46.8769 75.6161 50.4956 78.9566L61.3481 67.1997C61.2785 67.1355 61.2577 67.104 61.2613 67.1093C61.266 67.1158 61.2767 67.1335 61.285 67.1535C61.2928 67.1724 61.286 67.163 61.2761 67.1094C61.2656 67.0533 61.25 66.9382 61.25 66.75H45.25ZM50.0434 78.5044C53.3839 82.1231 57.6986 83.75 62.25 83.75V67.75C62.0618 67.75 61.9467 67.7344 61.8906 67.7239C61.837 67.714 61.8276 67.7072 61.8465 67.715C61.8665 67.7233 61.8842 67.734 61.8907 67.7386C61.896 67.7423 61.8645 67.7215 61.8003 67.6519L50.0434 78.5044ZM94.875 97.25C97.6075 97.25 100.562 96.283 102.922 93.9225L91.6088 82.6088C92.0314 82.1862 92.5762 81.8187 93.2079 81.5715C93.8253 81.3299 94.4042 81.25 94.875 81.25V97.25ZM102.922 93.9225C104.84 92.005 106.25 89.1781 106.25 85.875H90.25C90.25 84.5407 90.8162 83.4013 91.6088 82.6088L102.922 93.9225ZM106.25 85.875C106.25 82.4782 104.643 79.9002 103.513 78.4868L91.0187 88.4819C90.9506 88.3968 90.7915 88.1831 90.6322 87.8168C90.4734 87.4515 90.25 86.7825 90.25 85.875H106.25ZM102.263 77.2374C100.85 76.1067 98.2718 74.5 94.875 74.5V90.5C93.9675 90.5 93.2985 90.2766 92.9332 90.1178C92.5669 89.9585 92.3532 89.7994 92.2681 89.7313L102.263 77.2374ZM94.875 74.5C91.5719 74.5 88.745 75.91 86.8275 77.8275L98.1412 89.1412C97.3487 89.9338 96.2093 90.5 94.875 90.5V74.5ZM86.8275 77.8275C84.467 80.188 83.5 83.1425 83.5 85.875H99.5C99.5 86.3458 99.4201 86.9247 99.1785 87.5421C98.9313 88.1738 98.5638 88.7186 98.1412 89.1412L86.8275 77.8275ZM83.5 85.875C83.5 88.3331 84.2473 91.9209 87.4868 94.5126L97.4819 82.0187C98.3063 82.6781 98.8644 83.5106 99.1785 84.3133C99.4689 85.0556 99.5 85.6335 99.5 85.875H83.5ZM86.2374 93.2632C88.8291 96.5027 92.4169 97.25 94.875 97.25V81.25C95.1165 81.25 95.6944 81.2811 96.4367 81.5715C97.2394 81.8856 98.0719 82.4437 98.7313 83.2681L86.2374 93.2632ZM82.4812 46.1469L75.7312 51.2094L85.3313 64.0094L92.0813 58.9469L82.4812 46.1469ZM86.8722 52.7317L84.0597 49.0754L71.3778 58.8308L74.1903 62.4871L86.8722 52.7317ZM82.5188 60.3531L89.2688 55.2906L79.6687 42.4906L72.9187 47.5531L82.5188 60.3531ZM78.1278 53.7683L80.9403 57.4246L93.6222 47.6692L90.8097 44.0129L78.1278 53.7683ZM96 43C95.8118 43 95.6967 42.9844 95.6406 42.9739C95.587 42.964 95.5776 42.9572 95.5965 42.965C95.6165 42.9733 95.6342 42.984 95.6407 42.9887C95.646 42.9923 95.6145 42.9715 95.5503 42.9019L83.7934 53.7544C87.1339 57.3731 91.4486 59 96 59V43ZM95.0981 42.4497C95.0285 42.3855 95.0077 42.354 95.0114 42.3593C95.016 42.3658 95.0267 42.3835 95.035 42.4035C95.0428 42.4224 95.036 42.413 95.0261 42.3594C95.0156 42.3033 95 42.1882 95 42H79C79 46.5514 80.6269 50.8661 84.2456 54.2066L95.0981 42.4497ZM95 42C95 41.8748 95.0108 41.7999 95.0178 41.7637C95.0244 41.7292 95.0307 41.7122 95.035 41.7019C95.0352 41.7016 95.0815 41.5759 95.3287 41.3287L84.015 30.015C80.7037 33.3263 79 37.4636 79 42H95ZM95.3287 41.3287C95.5379 41.1195 95.6651 41.0589 95.7004 41.0436C95.723 41.0338 95.7481 41.0252 95.7838 41.0179C95.82 41.0105 95.8887 41 96 41V25C91.1636 25 87.0679 26.9621 84.015 30.015L95.3287 41.3287ZM96 41C96.064 41 96.1088 41.0066 96.1941 41.0436C96.3003 41.0896 96.5424 41.2184 96.9019 41.5503L107.754 29.7934C104.767 27.036 100.797 25 96 25V41ZM96.4497 41.0981C96.7816 41.4576 96.9104 41.6997 96.9564 41.8059C96.9934 41.8912 97 41.936 97 42H113C113 37.203 110.964 33.2329 108.207 30.2456L96.4497 41.0981ZM97 42C97 42.1113 96.9895 42.18 96.9821 42.2162C96.9748 42.2519 96.9662 42.277 96.9564 42.2996C96.9411 42.3349 96.8805 42.4621 96.6713 42.6713L107.985 53.985C111.038 50.9321 113 46.8365 113 42H97ZM96.6713 42.6713C96.4241 42.9185 96.2984 42.9648 96.2981 42.965C96.2878 42.9693 96.2708 42.9756 96.2363 42.9822C96.2001 42.9892 96.1252 43 96 43V59C100.536 59 104.674 57.2963 107.985 53.985L96.6713 42.6713ZM44.375 69V64.5H28.375V69H44.375ZM36.375 72.5H43.125L43.125 56.5H36.375L36.375 72.5ZM35.125 64.5V69H51.125V64.5H35.125ZM43.125 61H36.375V77H43.125V61ZM24 65.75C24.064 65.75 24.1088 65.7566 24.1941 65.7936C24.3003 65.8396 24.5423 65.9684 24.9019 66.3003L35.7544 54.5434C32.7671 51.786 28.797 49.75 24 49.75V65.75ZM24.4497 65.8481C24.7816 66.2076 24.9104 66.4497 24.9564 66.5559C24.9934 66.6412 25 66.686 25 66.75H41C41 61.953 38.964 57.9829 36.2066 54.9956L24.4497 65.8481ZM25 66.75C25 66.8613 24.9895 66.93 24.9821 66.9662C24.9748 67.0019 24.9662 67.027 24.9564 67.0496C24.9411 67.0849 24.8805 67.2121 24.6713 67.4213L35.985 78.735C39.0379 75.6821 41 71.5864 41 66.75H25ZM24.6713 67.4213C24.4241 67.6685 24.2984 67.7148 24.2981 67.715C24.2878 67.7193 24.2708 67.7256 24.2363 67.7322C24.2001 67.7392 24.1252 67.75 24 67.75V83.75C28.5364 83.75 32.6737 82.0463 35.985 78.735L24.6713 67.4213ZM24 67.75C23.8118 67.75 23.6967 67.7344 23.6406 67.7239C23.587 67.714 23.5776 67.7072 23.5965 67.715C23.6165 67.7233 23.6342 67.734 23.6407 67.7386C23.646 67.7423 23.6145 67.7215 23.5503 67.6519L11.7934 78.5044C15.1339 82.1231 19.4486 83.75 24 83.75V67.75ZM23.0981 67.1997C23.0285 67.1355 23.0077 67.104 23.0114 67.1093C23.016 67.1158 23.0267 67.1335 23.035 67.1535C23.0428 67.1724 23.036 67.163 23.0261 67.1094C23.0156 67.0533 23 66.9382 23 66.75H7C7 71.3014 8.62686 75.6161 12.2456 78.9566L23.0981 67.1997ZM23 66.75C23 66.6248 23.0108 66.5499 23.0178 66.5137C23.0244 66.4792 23.0307 66.4622 23.035 66.4519C23.0352 66.4516 23.0815 66.3259 23.3287 66.0787L12.015 54.765C8.70373 58.0763 7 62.2136 7 66.75H23ZM23.3287 66.0787C23.5379 65.8695 23.6651 65.8089 23.7004 65.7936C23.723 65.7838 23.7481 65.7752 23.7838 65.7679C23.82 65.7605 23.8887 65.75 24 65.75V49.75C19.1635 49.75 15.0679 51.7121 12.015 54.765L23.3287 66.0787Z" fill="#F4FED8"/>
<path d="M94.875 75.75C97.6875 75.75 100.078 76.7344 102.047 78.7031C104.016 80.6719 105 83.0625 105 85.875C105 88.6875 104.016 91.0781 102.047 93.0469C100.078 95.0156 97.6875 96 94.875 96C92.0625 96 89.6719 95.0156 87.7031 93.0469C85.7344 91.0781 84.75 88.6875 84.75 85.875L84.8906 84.4688L73.3594 77.8594C71.8125 79.4062 70.125 80.5312 68.2969 81.375C66.3281 82.2188 64.3594 82.5 62.25 82.5C59.4375 82.5 56.7656 81.7969 54.375 80.3906C51.8438 78.9844 50.0156 77.1562 48.6094 74.625C47.2031 72.2344 46.5 69.5625 46.5 66.75C46.5 64.2188 47.0625 61.9688 48.1875 59.7188C49.3125 57.6094 50.7188 55.7812 52.6875 54.2344L48.0469 44.25H47.625C44.8125 44.25 42.4219 43.2656 40.4531 41.2969C38.4844 39.3281 37.5 36.9375 37.5 34.125C37.5 31.3125 38.4844 28.9219 40.4531 26.9531C42.4219 24.9844 44.8125 24 47.625 24C50.4375 24 52.8281 24.9844 54.7969 26.9531C56.7656 28.9219 57.75 31.3125 57.75 34.125C57.75 37.2188 56.4844 39.75 54.2344 41.7188L58.875 51.4219C60 51.1406 61.125 51 62.25 51C65.0625 51 67.5938 51.7031 70.125 53.1094C72.5156 54.5156 74.4844 56.4844 75.8906 58.875C77.2969 61.4062 78 63.9375 78 66.75C78 68.5781 77.5781 70.4062 77.0156 72.2344L87.9844 78.5625C89.9531 76.7344 92.2031 75.75 94.875 75.75ZM47.625 37.5C48.4688 37.5 49.3125 37.2188 50.0156 36.5156C50.5781 35.9531 51 35.1094 51 34.125C51 33.2812 50.5781 32.4375 50.0156 31.7344C49.3125 31.1719 48.4688 30.75 47.625 30.75C46.6406 30.75 45.7969 31.1719 45.2344 31.7344C44.5312 32.4375 44.25 33.2812 44.25 34.125C44.25 35.1094 44.5312 35.9531 45.2344 36.5156C45.7969 37.2188 46.6406 37.5 47.625 37.5ZM62.25 75.75C64.6406 75.75 66.75 74.9062 68.5781 73.0781C70.2656 71.3906 71.25 69.2812 71.25 66.75C71.25 64.3594 70.2656 62.25 68.5781 60.4219C66.75 58.7344 64.6406 57.75 62.25 57.75C59.7188 57.75 57.6094 58.7344 55.9219 60.4219C54.0938 62.25 53.25 64.3594 53.25 66.75C53.25 69.2812 54.0938 71.3906 55.9219 73.0781C57.6094 74.9062 59.7188 75.75 62.25 75.75ZM94.875 89.25C95.7188 89.25 96.5625 88.9688 97.2656 88.2656C97.8281 87.7031 98.25 86.8594 98.25 85.875C98.25 85.0312 97.8281 84.1875 97.2656 83.4844C96.5625 82.9219 95.7188 82.5 94.875 82.5C93.8906 82.5 93.0469 82.9219 92.4844 83.4844C91.7812 84.1875 91.5 85.0312 91.5 85.875C91.5 86.8594 91.7812 87.7031 92.4844 88.2656C93.0469 88.9688 93.8906 89.25 94.875 89.25ZM87.2812 52.5469L80.5312 57.6094L77.7188 53.9531L84.4688 48.8906L87.2812 52.5469ZM96 51C93.4688 51 91.3594 50.1562 89.6719 48.3281C87.8438 46.6406 87 44.5312 87 42C87 39.6094 87.8438 37.5 89.6719 35.6719C91.3594 33.9844 93.4688 33 96 33C98.3906 33 100.5 33.9844 102.328 35.6719C104.016 37.5 105 39.6094 105 42C105 44.5312 104.016 46.6406 102.328 48.3281C100.5 50.1562 98.3906 51 96 51ZM36.375 69V64.5H43.125V69H36.375ZM24 57.75C26.3906 57.75 28.5 58.7344 30.3281 60.4219C32.0156 62.25 33 64.3594 33 66.75C33 69.2812 32.0156 71.3906 30.3281 73.0781C28.5 74.9062 26.3906 75.75 24 75.75C21.4688 75.75 19.3594 74.9062 17.6719 73.0781C15.8438 71.3906 15 69.2812 15 66.75C15 64.3594 15.8438 62.25 17.6719 60.4219C19.3594 58.7344 21.4688 57.75 24 57.75Z" fill="#70C000"/>
</g>
<defs>
<filter id="filter0_d" x="7" y="16" width="106" height="92" filterUnits="userSpaceOnUse" color-interpolation-filters="sRGB">
<feFlood flood-opacity="0" result="BackgroundImageFix"/>
<feColorMatrix in="SourceAlpha" type="matrix" values="0 0 0 0 0 0 0 0 0 0 0 0 0 0 0 0 0 0 127 0"/>
<feOffset dy="4"/>
<feColorMatrix type="matrix" values="0 0 0 0 0 0 0 0 0 0 0 0 0 0 0 0 0 0 0.1 0"/>
<feBlend mode="normal" in2="BackgroundImageFix" result="effect1_dropShadow"/>
<feBlend mode="normal" in="SourceGraphic" in2="effect1_dropShadow" result="shape"/>
</filter>
</defs>
</svg>
