<svg width="120" height="120" viewBox="0 0 120 120" fill="none" xmlns="http://www.w3.org/2000/svg">
<g filter="url(#filter0_d)">
<path d="M93.75 56.0625L86.0578 53.8647C85.2597 56.6583 86.0388 59.665 88.0931 61.7194L93.75 56.0625ZM92.0625 77.4375L88.0934 70.4916C85.6008 71.9159 84.0625 74.5666 84.0625 77.4375H92.0625ZM88.5469 86.1562L94.2037 91.8131C94.2608 91.756 94.3171 91.698 94.3725 91.6392L88.5469 86.1562ZM79.9688 89.8125V81.8125C77.0979 81.8125 74.4472 83.3508 73.0228 85.8434L79.9688 89.8125ZM64.2188 95.0156L67.5292 87.7327C67.4519 87.6976 67.374 87.6637 67.2957 87.631L64.2188 95.0156ZM60 91.9219L66.2469 86.9243C64.7796 85.0901 62.5802 83.9934 60.2323 83.9252C57.8843 83.857 55.625 84.8242 54.0536 86.5702L60 91.9219ZM55.7813 95.0156L58.8582 102.4C58.9365 102.368 59.0144 102.334 59.0917 102.299L55.7813 95.0156ZM40.0313 89.8125L46.9772 85.8434C45.5529 83.3508 42.9021 81.8125 40.0313 81.8125V89.8125ZM31.4531 86.1562L37.2787 80.6733C37.2234 80.6145 37.1671 80.5565 37.11 80.4994L31.4531 86.1562ZM27.9375 77.4375H35.9375C35.9375 74.5666 34.3992 71.9159 31.9066 70.4916L27.9375 77.4375ZM26.25 56.0625L31.9069 61.7194C33.9612 59.665 34.7403 56.6583 33.9422 53.8647L26.25 56.0625ZM32.0156 41.5781L36.3417 48.3076C38.6315 46.8356 40.0156 44.3002 40.0156 41.5781H32.0156ZM41.4375 30.3281L43.0856 38.1565C45.4736 37.6538 47.5016 36.0886 48.5929 33.9058L41.4375 30.3281ZM60 27.375L54.3431 33.0319C57.4673 36.156 62.5327 36.156 65.6569 33.0319L60 27.375ZM78.5625 30.3281L71.6166 34.2972C72.7348 36.2542 74.6268 37.6487 76.8271 38.1376L78.5625 30.3281ZM87.9844 41.5781H79.9844C79.9844 44.3002 81.3685 46.8356 83.6583 48.3076L87.9844 41.5781ZM55.2188 32.1562L61.2928 26.9499C61.0262 26.6389 60.7361 26.3488 60.4251 26.0822L55.2188 32.1562ZM48.8906 31.7344L44.453 25.078C44.2161 25.2359 43.9879 25.4063 43.7691 25.5886L48.8906 31.7344ZM47.2031 34.4062L54.9397 36.4422C54.9481 36.4104 54.9563 36.3785 54.9643 36.3465L47.2031 34.4062ZM46.5 37.0781L45.807 45.048C49.6866 45.3854 53.2455 42.8801 54.2366 39.1141L46.5 37.0781ZM43.2656 36.7969L43.9587 28.827C43.7282 28.8069 43.497 28.7969 43.2656 28.7969V36.7969ZM39.1875 44.1094L31.378 45.8448C31.4201 46.0343 31.4691 46.2222 31.5249 46.4082L39.1875 44.1094ZM39.6094 45.5156L42.375 53.0224C46.3416 51.561 48.4867 47.2658 47.272 43.2168L39.6094 45.5156ZM36.9375 46.5L34.1719 38.9933C33.8949 39.0953 33.6238 39.2126 33.3598 39.3446L36.9375 46.5ZM33.4219 49.5938L26.5619 45.4778C26.5327 45.5264 26.5041 45.5754 26.4759 45.6246L33.4219 49.5938ZM33.4219 55.7812L40.7172 52.4983C40.6438 52.3351 40.5649 52.1744 40.4807 52.0165L33.4219 55.7812ZM34.6875 58.5938L38.9594 65.3577C42.3292 63.2294 43.6184 58.9454 41.9829 55.3108L34.6875 58.5938ZM32.0156 60.2812L36.0466 67.1915C36.1278 67.1441 36.2081 67.0953 36.2876 67.0452L32.0156 60.2812ZM29.0625 69L36.4471 65.9231C36.4145 65.8447 36.3806 65.7669 36.3454 65.6896L29.0625 69ZM32.7188 72.375L35.8232 65.0019C35.6345 64.9225 35.4428 64.8503 35.2486 64.7855L32.7188 72.375ZM35.3906 73.5L43.1518 75.4403C44.1088 71.6122 42.1317 67.6581 38.4951 66.1269L35.3906 73.5ZM41.4375 83.0625L42.7527 90.9537C42.8134 90.9435 42.874 90.9327 42.9344 90.9212L41.4375 83.0625ZM44.3906 82.5L52.2353 80.9311C51.3744 76.6267 47.2058 73.8199 42.8937 74.6413L44.3906 82.5ZM44.5313 83.2031L36.6866 84.7721C36.7289 84.9836 36.7798 85.1934 36.8391 85.4009L44.5313 83.2031ZM56.625 52.8281L64.625 52.8281C64.625 49.724 62.8293 46.9 60.0182 45.5834C57.2072 44.2668 53.8882 44.6951 51.5035 46.6824L56.625 52.8281ZM51.1406 55.5L49.4644 47.6776C48.805 47.8189 48.1661 48.043 47.5629 48.3446L51.1406 55.5ZM50.5781 51L48.6378 43.2389C48.0716 43.3804 47.5225 43.5835 47.0004 43.8446L50.5781 51ZM87.2812 72.375L84.7514 64.7855C84.5572 64.8503 84.3655 64.9225 84.1768 65.0019L87.2812 72.375ZM90.7969 69L83.5139 65.6896C83.4788 65.7669 83.4449 65.8447 83.4123 65.9231L90.7969 69ZM87.9844 60.2812L92.2794 53.532C92.2717 53.5271 92.264 53.5222 92.2563 53.5173L87.9844 60.2812ZM85.3125 58.5937L78.0171 55.3108C76.3816 58.9454 77.6708 63.2294 81.0406 65.3577L85.3125 58.5937ZM86.5781 55.7812L79.5193 52.0165C79.4351 52.1744 79.3562 52.3351 79.2828 52.4983L86.5781 55.7812ZM86.5781 49.5937L93.5241 45.6246C93.4029 45.4126 93.272 45.2062 93.132 45.0061L86.5781 49.5937ZM83.0625 46.5L86.6402 39.3446C86.3762 39.2126 86.1051 39.0953 85.8281 38.9933L83.0625 46.5ZM80.3906 45.5156L72.728 43.2168C71.5133 47.2658 73.6584 51.561 77.625 53.0224L80.3906 45.5156ZM80.8125 44.1094L88.4751 46.4082C88.5309 46.2222 88.5799 46.0343 88.622 45.8448L80.8125 44.1094ZM76.7344 36.7969V28.7969C76.503 28.7969 76.2718 28.8069 76.0413 28.827L76.7344 36.7969ZM73.5 37.0781L65.7634 39.1141C66.7545 42.8801 70.3134 45.3854 74.193 45.048L73.5 37.0781ZM72.7969 34.4062L65.0357 36.3465C65.0437 36.3785 65.0519 36.4104 65.0603 36.4422L72.7969 34.4062ZM71.1094 31.7344L76.2309 25.5886C76.0121 25.4063 75.7839 25.2359 75.547 25.078L71.1094 31.7344ZM69.4219 51L73.8595 44.3436C73.0559 43.8078 72.1619 43.422 71.2207 43.2049L69.4219 51ZM68.8594 55.5L72.4371 48.3446C71.8011 48.0266 71.1255 47.7948 70.4283 47.6554L68.8594 55.5ZM63.375 52.8281L68.7564 46.9086C66.4133 44.7786 63.0344 44.231 60.1386 45.512C57.2427 46.793 55.375 49.6616 55.375 52.8281L63.375 52.8281ZM75.4688 83.2031L83.0027 85.8938C83.1334 85.5279 83.2372 85.153 83.3134 84.7721L75.4688 83.2031ZM75.6094 82.5L77.1063 74.6413C72.7942 73.8199 68.6256 76.6267 67.7647 80.9311L75.6094 82.5ZM78.5625 83.0625L77.0656 90.9212C77.126 90.9327 77.1866 90.9435 77.2473 90.9537L78.5625 83.0625ZM85.3125 77.2969H93.3125C93.3125 76.8082 93.2677 76.3206 93.1788 75.8402L85.3125 77.2969ZM84.6094 73.5L81.5049 66.1269C78.0402 67.5858 76.0586 71.2602 76.7431 74.9567L84.6094 73.5ZM88.0931 61.7194C88.708 62.3342 89.2335 63.0898 89.829 64.2808L104.14 57.1254C103.048 54.9414 101.605 52.6033 99.4069 50.4056L88.0931 61.7194ZM89.829 64.2808C90.1137 64.8503 90.25 65.4527 90.25 66.0469H106.25C106.25 62.9848 105.543 59.9309 104.14 57.1254L89.829 64.2808ZM90.25 66.0469C90.25 67.1676 89.9926 68.0291 89.6166 68.6871L103.508 76.6254C105.382 73.3459 106.25 69.7074 106.25 66.0469H90.25ZM89.6166 68.6871C88.9304 69.8878 88.4223 70.3036 88.0934 70.4916L96.0316 84.3834C99.6402 82.3214 101.945 79.3622 103.508 76.6254L89.6166 68.6871ZM84.0625 77.4375C84.0625 78.6475 83.6642 79.6715 82.7213 80.6733L94.3725 91.6392C97.9296 87.8598 100.062 82.9775 100.062 77.4375H84.0625ZM82.89 80.4994C81.8736 81.5158 81.0501 81.8125 79.9688 81.8125V97.8125C85.6374 97.8125 90.4389 95.5779 94.2037 91.8131L82.89 80.4994ZM73.0228 85.8434C72.6065 86.5719 72.0875 87.0909 71.359 87.5072L79.2972 101.399C82.5062 99.5654 85.081 96.9906 86.9147 93.7816L73.0228 85.8434ZM71.359 87.5072C70.7721 87.8425 70.2124 88 69.2812 88V104C72.5689 104 75.9466 103.314 79.2972 101.399L71.359 87.5072ZM69.2812 88C68.2702 88 67.7765 87.8451 67.5292 87.7327L60.9083 102.299C63.7547 103.592 66.636 104 69.2812 104V88ZM67.2957 87.631C66.6579 87.3653 66.4123 87.131 66.2469 86.9243L53.753 96.9194C55.8377 99.5252 58.4046 101.26 61.1418 102.4L67.2957 87.631ZM54.0536 86.5702C53.5604 87.1182 53.0657 87.4623 52.4708 87.7327L59.0917 102.299C61.5905 101.163 63.9083 99.5381 65.9464 97.2736L54.0536 86.5702ZM52.7043 87.631C52.1091 87.879 51.485 88 50.7188 88V104C53.3275 104 56.0784 103.558 58.8582 102.4L52.7043 87.631ZM50.7188 88C49.5995 88 49.0519 87.8223 48.5004 87.5072L40.5621 101.399C43.9481 103.334 47.338 104 50.7188 104V88ZM48.5004 87.5072C47.9855 87.213 47.5265 86.8046 46.9772 85.8434L33.0853 93.7816C34.786 96.7579 37.1395 99.4433 40.5621 101.399L48.5004 87.5072ZM40.0313 81.8125C38.8104 81.8125 37.9818 81.4204 37.2787 80.6733L25.6275 91.6392C29.4244 95.6734 34.5021 97.8125 40.0313 97.8125V81.8125ZM37.11 80.4994C36.3341 79.7236 35.9375 78.8584 35.9375 77.4375H19.9375C19.9375 82.7666 21.7909 87.8077 25.7963 91.8131L37.11 80.4994ZM31.9066 70.4916C31.3827 70.1922 30.7859 69.6376 30.2428 68.6871L16.3509 76.6254C18.0578 79.6124 20.5548 82.4328 23.9684 84.3834L31.9066 70.4916ZM30.2428 68.6871C30.0152 68.2888 29.75 67.5314 29.75 66.0469H13.75C13.75 69.3436 14.3285 73.0862 16.3509 76.6254L30.2428 68.6871ZM29.75 66.0469C29.75 65.0083 29.9141 64.5134 30.0304 64.2808L15.7196 57.1254C14.1484 60.2679 13.75 63.4292 13.75 66.0469H29.75ZM30.0304 64.2808C30.4692 63.4032 31.0755 62.5507 31.9069 61.7194L20.5931 50.4056C18.612 52.3868 16.9683 54.6281 15.7196 57.1254L30.0304 64.2808ZM33.9422 53.8647C33.8959 53.7029 33.8281 53.3309 33.8281 52.8281H17.8281C17.8281 54.5753 18.0416 56.4534 18.5578 58.2603L33.9422 53.8647ZM33.8281 52.8281C33.8281 51.9817 34.0217 51.239 34.4616 50.4691L20.5697 42.5309C18.7596 45.6985 17.8281 49.1746 17.8281 52.8281H33.8281ZM34.4616 50.4691C35.1216 49.314 35.7159 48.7099 36.3417 48.3076L27.6896 34.8487C24.3779 36.9776 22.1596 39.7485 20.5697 42.5309L34.4616 50.4691ZM40.0156 41.5781C40.0156 40.5815 40.2349 40.0798 40.733 39.5051L28.642 29.0262C25.4838 32.6702 24.0156 36.9497 24.0156 41.5781H40.0156ZM40.733 39.5051C41.3595 38.7821 42.0346 38.3778 43.0856 38.1565L39.7894 22.4997C35.4967 23.4035 31.6717 25.5304 28.642 29.0262L40.733 39.5051ZM48.5929 33.9058C48.9284 33.2349 49.3243 32.8237 49.849 32.5008L41.4635 18.8742C38.332 20.8013 35.9153 23.4839 34.2821 26.7504L48.5929 33.9058ZM49.849 32.5008C50.3144 32.2144 50.9498 32 51.8438 32V16C48.2377 16 44.6544 16.9106 41.4635 18.8742L49.849 32.5008ZM51.8438 32C52.855 32 53.6209 32.3096 54.3431 33.0319L65.6569 21.7181C61.8791 17.9404 57.02 16 51.8438 16V32ZM65.6569 33.0319C66.4161 32.2726 67.0571 32 68.1562 32V16C62.7867 16 58.0839 17.9774 54.3431 21.7181L65.6569 33.0319ZM68.1562 32C68.9499 32 69.4635 32.1642 70.0103 32.5008L78.3959 18.8742C75.2865 16.9608 71.8626 16 68.1562 16V32ZM70.0103 32.5008C70.5253 32.8176 71.0488 33.3036 71.6166 34.2972L85.5084 26.359C83.8262 23.4152 81.5372 20.8074 78.3959 18.8742L70.0103 32.5008ZM76.8271 38.1376C77.7569 38.3443 78.4706 38.7484 79.1264 39.5051L91.2174 29.0262C88.2169 25.5641 84.4306 23.437 80.2979 22.5186L76.8271 38.1376ZM79.1264 39.5051C79.8153 40.3 79.9844 40.868 79.9844 41.5781H95.9844C95.9844 36.6633 94.1847 32.45 91.2174 29.0262L79.1264 39.5051ZM83.6583 48.3076C84.2841 48.7099 84.8784 49.314 85.5384 50.4691L99.4303 42.5309C97.8404 39.7485 95.6221 36.9776 92.3104 34.8487L83.6583 48.3076ZM85.5384 50.4691C85.9783 51.239 86.1719 51.9817 86.1719 52.8281H102.172C102.172 49.1746 101.24 45.6985 99.4303 42.5309L85.5384 50.4691ZM86.1719 52.8281C86.1719 53.3309 86.104 53.7029 86.0578 53.8647L101.442 58.2603C101.958 56.4534 102.172 54.5753 102.172 52.8281H86.1719ZM64.625 43.4062V35.5312L48.625 35.5312V43.4062L64.625 43.4062ZM64.625 35.5312C64.625 31.7474 62.9158 28.8435 61.2928 26.9499L49.1447 37.3626C49.2092 37.4378 48.625 36.7838 48.625 35.5312L64.625 35.5312ZM60.4251 26.0822C58.5315 24.4592 55.6276 22.75 51.8438 22.75V38.75C50.5912 38.75 49.9372 38.1658 50.0124 38.2303L60.4251 26.0822ZM51.8438 22.75C48.6374 22.75 46.1197 23.9668 44.453 25.078L53.3282 38.3908C53.3271 38.3916 53.2962 38.4122 53.2363 38.4432C53.176 38.4745 53.0809 38.5193 52.9524 38.5652C52.6839 38.6611 52.3014 38.75 51.8438 38.75V22.75ZM43.7691 25.5886C41.6986 27.3141 40.1584 29.6002 39.442 32.466L54.9643 36.3465C54.9092 36.5667 54.7914 36.885 54.5741 37.2245C54.3599 37.5592 54.1386 37.7747 54.0121 37.8801L43.7691 25.5886ZM39.4665 32.3703L38.7634 35.0422L54.2366 39.1141L54.9397 36.4422L39.4665 32.3703ZM47.193 29.1082L43.9587 28.827L42.5726 44.7668L45.807 45.048L47.193 29.1082ZM43.2656 28.7969C39.4397 28.7969 36.1681 30.5581 33.9572 33.1374L46.1053 43.5501C45.871 43.8235 45.5014 44.1476 44.9747 44.4024C44.4371 44.6626 43.8439 44.7969 43.2656 44.7969V28.7969ZM33.9572 33.1374C31.9841 35.4394 30.7656 38.3761 30.7656 41.5781H46.7656C46.7656 42.5302 46.3909 43.2168 46.1053 43.5501L33.9572 33.1374ZM30.7656 41.5781C30.7656 43.0301 31.133 44.7424 31.378 45.8448L46.997 42.3739C46.8733 41.8174 46.8005 41.4414 46.7622 41.2122C46.7435 41.0994 46.7402 41.0647 46.7431 41.0902C46.7447 41.1052 46.7497 41.1518 46.7545 41.224C46.7591 41.2932 46.7656 41.4157 46.7656 41.5781H30.7656ZM31.5249 46.4082L31.9468 47.8144L47.272 43.2168L46.8501 41.8106L31.5249 46.4082ZM36.8437 38.0089L34.1719 38.9933L39.7031 54.0067L42.375 53.0224L36.8437 38.0089ZM33.3598 39.3446C31.0266 40.5112 28.4053 42.4054 26.5619 45.4778L40.2818 53.7097C40.2494 53.7637 40.217 53.8066 40.1909 53.8369C40.1656 53.8663 40.1524 53.8766 40.1603 53.8699C40.1802 53.8529 40.2819 53.7721 40.5152 53.6554L33.3598 39.3446ZM26.4759 45.6246C23.8997 50.133 24.0289 55.1695 26.3631 59.546L40.4807 52.0165C40.447 51.9534 40.5781 52.1816 40.5781 52.6348C40.5781 53.1056 40.4363 53.4431 40.3678 53.5629L26.4759 45.6246ZM26.1265 59.0642L27.3921 61.8767L41.9829 55.3108L40.7172 52.4983L26.1265 59.0642ZM30.4156 51.8298L27.7437 53.5173L36.2876 67.0452L38.9594 65.3577L30.4156 51.8298ZM27.9847 53.371C24.609 55.3401 22.3655 58.1676 21.1918 61.6889L36.3707 66.7486C36.3844 66.7075 36.3807 66.7286 36.3478 66.7904C36.3134 66.8549 36.261 66.938 36.1906 67.0247C36.1203 67.1114 36.056 67.1725 36.0146 67.2072C35.9755 67.2399 35.9778 67.2316 36.0466 67.1915L27.9847 53.371ZM21.1918 61.6889C19.9404 65.4429 20.3091 69.0753 21.7796 72.3104L36.3454 65.6896C36.3321 65.6602 36.4092 65.8252 36.4295 66.13C36.4507 66.4472 36.3944 66.6774 36.3707 66.7486L21.1918 61.6889ZM21.6779 72.0769C23.3075 75.988 26.3991 78.7012 30.1889 79.9645L35.2486 64.7855C35.3682 64.8254 35.6328 64.9429 35.9196 65.2051C36.2119 65.4724 36.3757 65.7517 36.4471 65.9231L21.6779 72.0769ZM29.6143 79.7481L32.2862 80.8731L38.4951 66.1269L35.8232 65.0019L29.6143 79.7481ZM27.6295 71.5597C27.0388 73.9226 26.6875 75.9826 26.6875 77.2969H42.6875C42.6875 77.5437 42.6744 77.7142 42.6722 77.7436C42.668 77.7995 42.6651 77.822 42.6671 77.8046C42.6709 77.7709 42.6854 77.655 42.7193 77.4519C42.7864 77.0489 42.917 76.3792 43.1518 75.4403L27.6295 71.5597ZM26.6875 77.2969C26.6875 81.4033 28.3798 85.3082 31.7993 88.0438L41.7944 75.5499C42.0047 75.7181 42.2733 76.0168 42.4686 76.4367C42.659 76.8461 42.6875 77.1712 42.6875 77.2969H26.6875ZM31.7993 88.0438C34.8748 90.5042 38.6926 91.6303 42.7527 90.9537L40.1223 75.1713C40.34 75.1351 40.7023 75.1259 41.1167 75.2389C41.5204 75.349 41.7492 75.5137 41.7944 75.5499L31.7993 88.0438ZM42.9344 90.9212L45.8875 90.3587L42.8937 74.6413L39.9406 75.2038L42.9344 90.9212ZM36.546 84.0689L36.6866 84.7721L52.3759 81.6342L52.2353 80.9311L36.546 84.0689ZM36.8391 85.4009C37.6178 88.1265 38.7355 90.4171 40.1124 92.1382L52.6063 82.1431C52.754 82.3277 52.7411 82.3563 52.6392 82.1468C52.5439 81.9509 52.3882 81.5822 52.2234 81.0054L36.8391 85.4009ZM40.1124 92.1382C42.7123 95.3881 46.3919 97.25 50.7188 97.25V81.25C50.8624 81.25 51.2776 81.2861 51.7828 81.5325C52.2814 81.7757 52.5451 82.0666 52.6063 82.1431L40.1124 92.1382ZM50.7188 97.25C54.3851 97.25 57.871 95.9427 60.5944 93.2194L49.2806 81.9056C49.4449 81.7414 49.7147 81.5416 50.0679 81.4003C50.4118 81.2628 50.6608 81.25 50.7188 81.25V97.25ZM60.5944 93.2194C63.1718 90.6419 64.625 87.3604 64.625 83.4844H48.625C48.625 83.4102 48.6436 83.0727 48.83 82.6299C49.0145 82.1918 49.238 81.9483 49.2806 81.9056L60.5944 93.2194ZM64.625 83.4844V52.8281L48.625 52.8281L48.625 83.4844H64.625ZM51.5035 46.6824C50.8515 47.2257 50.2176 47.5162 49.4644 47.6776L52.8169 63.3224C56.0011 62.6401 59.0235 61.2431 61.7465 58.9739L51.5035 46.6824ZM47.5629 48.3446C48.3451 47.9535 49.8173 47.4129 51.711 47.6497C53.6917 47.8973 55.1162 48.8649 55.9537 49.7025L44.64 61.0162C45.7588 62.1351 47.4645 63.2434 49.7265 63.5261C51.9015 63.798 53.6549 63.1871 54.7183 62.6554L47.5629 48.3446ZM55.9537 49.7025C56.2854 50.0342 56.8522 50.6837 57.291 51.6708C57.7451 52.6927 57.875 53.6525 57.875 54.375H41.875C41.875 55.5194 42.0752 56.8308 42.67 58.169C43.2493 59.4725 44.0271 60.4033 44.64 61.0162L55.9537 49.7025ZM57.875 54.375V52.125H41.875V54.375H57.875ZM57.875 52.125C57.875 52.3826 57.8759 53.9058 56.8756 55.573C55.8618 57.2625 54.4998 57.9834 54.1558 58.1554L47.0004 43.8446C46.0939 44.2978 44.3803 45.3 43.1557 47.3411C41.9444 49.3598 41.875 51.3049 41.875 52.125H57.875ZM52.5184 58.7611C55.9143 57.9122 58.9709 55.9519 61.1845 53.1851L48.6905 43.1899C48.6761 43.208 48.659 43.223 48.6427 43.2335C48.6256 43.2444 48.6211 43.243 48.6378 43.2389L52.5184 58.7611ZM61.1845 53.1851C63.4141 50.398 64.625 47.0986 64.625 43.4062L48.625 43.4062C48.625 43.4512 48.6217 43.4519 48.6273 43.4182C48.6331 43.3833 48.6449 43.3326 48.6654 43.275C48.6858 43.2176 48.707 43.1753 48.7197 43.1529C48.7317 43.1318 48.7272 43.1441 48.6905 43.1899L61.1845 53.1851ZM89.8111 79.9645C93.9227 78.5939 96.6861 75.6658 98.1815 72.0769L83.4123 65.9231C83.4043 65.9423 83.5116 65.6837 83.839 65.3662C84.184 65.0316 84.5431 64.855 84.7514 64.7855L89.8111 79.9645ZM98.0798 72.3104C99.5503 69.0753 99.9189 65.4429 98.6676 61.6889L83.4887 66.7486C83.465 66.6774 83.4087 66.4472 83.4298 66.13C83.4501 65.8252 83.5273 65.6602 83.5139 65.6896L98.0798 72.3104ZM98.6676 61.6889C97.5174 58.2384 95.3585 55.4914 92.2794 53.532L83.6894 67.0305C83.7442 67.0654 83.7495 67.0743 83.7238 67.0515C83.6966 67.0273 83.6526 66.9834 83.6039 66.9214C83.5552 66.8592 83.5193 66.801 83.4965 66.7577C83.4746 66.7161 83.4751 66.7078 83.4887 66.7486L98.6676 61.6889ZM92.2563 53.5173L89.5844 51.8298L81.0406 65.3577L83.7124 67.0452L92.2563 53.5173ZM92.6079 61.8767L93.8735 59.0642L79.2828 52.4983L78.0171 55.3108L92.6079 61.8767ZM93.6369 59.546C95.9711 55.1695 96.1003 50.133 93.5241 45.6246L79.6322 53.5629C79.5637 53.4431 79.4219 53.1056 79.4219 52.6348C79.4219 52.1816 79.553 51.9534 79.5193 52.0165L93.6369 59.546ZM93.132 45.0061C91.4431 42.5933 89.3247 40.6868 86.6402 39.3446L79.4848 53.6554C79.6128 53.7194 79.7444 53.7817 80.0243 54.1814L93.132 45.0061ZM85.8281 38.9933L83.1563 38.0089L77.625 53.0224L80.2969 54.0067L85.8281 38.9933ZM88.0532 47.8144L88.4751 46.4082L73.1499 41.8106L72.728 43.2168L88.0532 47.8144ZM88.622 45.8448C88.867 44.7424 89.2344 43.0301 89.2344 41.5781H73.2344C73.2344 41.4157 73.2409 41.2932 73.2455 41.224C73.2503 41.1518 73.2553 41.1052 73.2569 41.0902C73.2598 41.0647 73.2565 41.0994 73.2378 41.2122C73.1995 41.4414 73.1267 41.8174 73.003 42.3739L88.622 45.8448ZM89.2344 41.5781C89.2344 37.8244 87.4231 34.9118 85.9022 33.1374L73.7541 43.5501C73.7829 43.5837 73.6815 43.4773 73.5567 43.2009C73.4288 42.9177 73.2344 42.3579 73.2344 41.5781H89.2344ZM85.9022 33.1374C83.7961 30.6804 80.5635 28.7969 76.7344 28.7969V44.7969C75.1553 44.7969 74.1726 44.0384 73.7541 43.5501L85.9022 33.1374ZM76.0413 28.827L72.807 29.1082L74.193 45.048L77.4274 44.7668L76.0413 28.827ZM81.2366 35.0422L80.5335 32.3703L65.0603 36.4422L65.7634 39.1141L81.2366 35.0422ZM80.558 32.466C79.8416 29.6002 78.3014 27.3141 76.2309 25.5886L65.9879 37.8801C65.8614 37.7747 65.6401 37.5592 65.4259 37.2245C65.2086 36.885 65.0908 36.5667 65.0357 36.3465L80.558 32.466ZM75.547 25.078C73.8803 23.9668 71.3626 22.75 68.1562 22.75V38.75C67.6986 38.75 67.3161 38.6611 67.0476 38.5652C66.9191 38.5193 66.824 38.4745 66.7637 38.4432C66.7038 38.4122 66.6729 38.3916 66.6718 38.3908L75.547 25.078ZM68.1562 22.75C64.4061 22.75 61.3037 24.3201 59.1244 26.4994L70.4381 37.8131C70.2287 38.0225 69.9071 38.2723 69.4644 38.466C69.0077 38.6658 68.548 38.75 68.1562 38.75V22.75ZM59.1244 26.4994C56.5845 29.0393 55.375 32.2232 55.375 35.5312L71.375 35.5312C71.375 35.8061 71.325 36.2464 71.1207 36.7493C70.9144 37.2573 70.6381 37.6131 70.4381 37.8131L59.1244 26.4994ZM55.375 35.5312V43.4062L71.375 43.4062V35.5312L55.375 35.5312ZM55.375 43.4062C55.375 47.0986 56.5859 50.398 58.8155 53.1851L71.3094 43.1899C71.2728 43.1441 71.2683 43.1318 71.2803 43.1529C71.293 43.1753 71.3142 43.2176 71.3346 43.275C71.3551 43.3326 71.3669 43.3833 71.3727 43.4182C71.3783 43.4519 71.375 43.4512 71.375 43.4062L55.375 43.4062ZM58.8155 53.1851C60.9139 55.808 63.8162 57.9166 67.623 58.7951L71.2207 43.2049C71.2118 43.2028 71.2313 43.2068 71.2694 43.2231C71.3078 43.2394 71.346 43.2602 71.3784 43.2815C71.41 43.3023 71.4215 43.314 71.4125 43.3057C71.4026 43.2965 71.3672 43.2621 71.3094 43.1899L58.8155 53.1851ZM64.9843 57.6564C64.96 57.6402 64.1264 57.1141 63.3778 56.0447C62.4723 54.7512 62.125 53.3262 62.125 52.125H78.125C78.125 50.3613 77.637 48.5144 76.4855 46.8693C75.4908 45.4484 74.3056 44.641 73.8595 44.3436L64.9843 57.6564ZM62.125 52.125V54.375H78.125V52.125H62.125ZM62.125 54.375C62.125 53.6525 62.2549 52.6927 62.709 51.6708C63.1478 50.6837 63.7146 50.0342 64.0463 49.7025L75.36 61.0162C75.9729 60.4033 76.7507 59.4725 77.33 58.169C77.9248 56.8308 78.125 55.5194 78.125 54.375H62.125ZM64.0463 49.7025C64.8838 48.8649 66.3083 47.8973 68.289 47.6497C70.1827 47.4129 71.6549 47.9535 72.4371 48.3446L65.2817 62.6554C66.3451 63.1871 68.0985 63.798 70.2735 63.5261C72.5355 63.2434 74.2412 62.1351 75.36 61.0162L64.0463 49.7025ZM70.4283 47.6554C69.5221 47.4741 69.0766 47.1997 68.7564 46.9086L57.9936 58.7476C60.7671 61.269 63.9779 62.6821 67.2904 63.3446L70.4283 47.6554ZM55.375 52.8281L55.375 83.4844H71.375V52.8281L55.375 52.8281ZM55.375 83.4844C55.375 87.3604 56.8282 90.6419 59.4056 93.2194L70.7194 81.9056C70.762 81.9483 70.9855 82.1918 71.17 82.6299C71.3564 83.0727 71.375 83.4102 71.375 83.4844H55.375ZM59.4056 93.2194C62.129 95.9427 65.6149 97.25 69.2812 97.25V81.25C69.3392 81.25 69.5882 81.2628 69.9321 81.4003C70.2853 81.5416 70.5551 81.7414 70.7194 81.9056L59.4056 93.2194ZM69.2812 97.25C73.3562 97.25 77.2178 95.4754 79.8876 92.1382L67.3937 82.1431C67.5557 81.9406 67.8346 81.6892 68.2324 81.4998C68.6257 81.3125 69 81.25 69.2812 81.25V97.25ZM79.8876 92.1382C81.4083 90.2372 82.3519 87.7161 83.0027 85.8938L67.9348 80.5124C67.6173 81.4013 67.3908 81.962 67.2325 82.3065C67.1572 82.4704 67.1225 82.5299 67.1301 82.5167C67.135 82.5081 67.2186 82.3619 67.3937 82.1431L79.8876 92.1382ZM83.3134 84.7721L83.454 84.0689L67.7647 80.9311L67.6241 81.6342L83.3134 84.7721ZM74.1125 90.3587L77.0656 90.9212L80.0594 75.2038L77.1063 74.6413L74.1125 90.3587ZM77.2473 90.9537C81.3074 91.6303 85.1252 90.5042 88.2007 88.0438L78.2056 75.5499C78.2508 75.5137 78.4796 75.349 78.8833 75.2389C79.2977 75.1259 79.66 75.1351 79.8777 75.1713L77.2473 90.9537ZM88.2007 88.0438C91.6202 85.3082 93.3125 81.4033 93.3125 77.2969H77.3125C77.3125 77.1712 77.341 76.8461 77.5314 76.4367C77.7267 76.0168 77.9953 75.7181 78.2056 75.5499L88.2007 88.0438ZM93.1788 75.8402L92.4756 72.0433L76.7431 74.9567L77.4462 78.7536L93.1788 75.8402ZM87.7138 80.8731L90.3857 79.7481L84.1768 65.0019L81.5049 66.1269L87.7138 80.8731Z" fill="#F4FED8"/>
<path d="M74 79C77.5965 79 80.4435 76.9123 82.2267 74.3649C84.0187 71.805 85 68.4815 85 65C85 61.5185 84.0187 58.195 82.2267 55.6351C80.4435 53.0877 77.5965 51 74 51C70.4035 51 67.5565 53.0877 65.7733 55.6351C63.9813 58.195 63 61.5185 63 65C63 68.4815 63.9813 71.805 65.7733 74.3649C67.5565 76.9123 70.4035 79 74 79Z" fill="#F4FED8" stroke="#F4FED8" stroke-width="8"/>
<path d="M46 79C50.1162 79 53.2084 76.3033 55.0635 73.2888C56.9584 70.2095 58 66.2082 58 62C58 57.7918 56.9584 53.7905 55.0635 50.7112C53.2084 47.6967 50.1162 45 46 45C41.8838 45 38.7916 47.6967 36.9365 50.7112C35.0416 53.7905 34 57.7918 34 62C34 66.2082 35.0416 70.2095 36.9365 73.2888C38.7916 76.3033 41.8838 79 46 79Z" fill="#F4FED8" stroke="#F4FED8" stroke-width="8"/>
<path d="M93.75 56.0625C95.1562 57.4687 96.1406 59.0156 96.9844 60.7031C97.8281 62.3906 98.25 64.2188 98.25 66.0469C98.25 68.4375 97.6875 70.6875 96.5625 72.6562C95.4375 74.625 94.0312 76.3125 92.0625 77.4375C92.0625 80.8125 90.7969 83.7656 88.5469 86.1562C86.1562 88.5469 83.3438 89.8125 79.9688 89.8125C78.8438 91.7812 77.2969 93.3281 75.3281 94.4531C73.3594 95.5781 71.3906 96 69.2812 96C67.4531 96 65.7656 95.7188 64.2188 95.0156C62.5313 94.3125 61.125 93.3281 60 91.9219C58.7344 93.3281 57.3281 94.3125 55.7813 95.0156C54.0938 95.7188 52.4063 96 50.7188 96C48.4688 96 46.5 95.5781 44.5313 94.4531C42.5625 93.3281 41.1563 91.7812 40.0313 89.8125C36.6563 89.8125 33.7031 88.5469 31.4531 86.1562C29.0625 83.7656 27.9375 80.8125 27.9375 77.4375C25.9688 76.3125 24.4219 74.625 23.2969 72.6562C22.1719 70.6875 21.75 68.4375 21.75 66.0469C21.75 64.2188 22.0313 62.3906 22.875 60.7031C23.7188 59.0156 24.8438 57.4688 26.25 56.0625C25.9688 55.0781 25.8281 53.9531 25.8281 52.8281C25.8281 50.5781 26.3906 48.4688 27.5156 46.5C28.6406 44.5312 30.0469 42.8438 32.0156 41.5781C32.0156 38.7656 32.8594 36.375 34.6875 34.2656C36.5156 32.1562 38.7656 30.8906 41.4375 30.3281C42.4219 28.3594 43.8281 26.8125 45.6562 25.6875C47.4844 24.5625 49.5938 24 51.8438 24C54.9375 24 57.75 25.125 60 27.375C62.25 25.125 64.9219 24 68.1562 24C70.4062 24 72.375 24.5625 74.2031 25.6875C76.0312 26.8125 77.4375 28.3594 78.5625 30.3281C81.0938 30.8906 83.3438 32.1562 85.1719 34.2656C87 36.375 87.9844 38.7656 87.9844 41.5781C89.9531 42.8437 91.3594 44.5312 92.4844 46.5C93.6094 48.4687 94.1719 50.5781 94.1719 52.8281C94.1719 53.9531 94.0312 55.0781 93.75 56.0625ZM56.625 43.4062V35.5312C56.625 34.2656 56.0625 33.1406 55.2188 32.1562C54.2344 31.3125 53.1094 30.75 51.8438 30.75C50.7188 30.75 49.7344 31.1719 48.8906 31.7344C48.0469 32.4375 47.4844 33.2812 47.2031 34.4062L46.5 37.0781L43.2656 36.7969C42 36.7969 40.875 37.3594 40.0312 38.3438C39.1875 39.3281 38.7656 40.4531 38.7656 41.5781C38.7656 42 38.9062 42.8438 39.1875 44.1094L39.6094 45.5156L36.9375 46.5C35.5312 47.2031 34.2656 48.1875 33.4219 49.5938C32.2969 51.5625 32.2969 53.6719 33.4219 55.7812L34.6875 58.5938L32.0156 60.2812C30.3281 61.2656 29.3438 62.5312 28.7813 64.2188C28.2188 65.9062 28.3594 67.4531 29.0625 69C29.7656 70.6875 31.0313 71.8125 32.7188 72.375L35.3906 73.5C34.8281 75.75 34.6875 77.0156 34.6875 77.2969C34.6875 79.125 35.3906 80.6719 36.7969 81.7969C38.2031 82.9219 39.75 83.3438 41.4375 83.0625L44.3906 82.5L44.5313 83.2031C45.0938 85.1719 45.7969 86.4375 46.3594 87.1406C47.4844 88.5469 48.8906 89.25 50.7188 89.25C52.4063 89.25 53.8125 88.6875 54.9375 87.5625C56.0625 86.4375 56.625 85.1719 56.625 83.4844L56.625 52.8281C54.9375 54.2344 53.1094 55.0781 51.1406 55.5C50.8594 55.6406 50.5781 55.6406 50.2969 55.3594C50.0156 55.0781 49.875 54.7969 49.875 54.375V52.125C49.875 51.5625 50.0156 51.2812 50.5781 51C52.2656 50.5781 53.8125 49.5938 54.9375 48.1875C56.0625 46.7812 56.625 45.2344 56.625 43.4062ZM87.2812 72.375C88.9688 71.8125 90.0938 70.6875 90.7969 69C91.5 67.4531 91.6406 65.9062 91.0781 64.2188C90.5156 62.5312 89.5312 61.2656 87.9844 60.2812L85.3125 58.5937L86.5781 55.7812C87.7031 53.6719 87.7031 51.5625 86.5781 49.5937C85.5938 48.1875 84.4688 47.2031 83.0625 46.5L80.3906 45.5156L80.8125 44.1094C81.0938 42.8437 81.2344 42 81.2344 41.5781C81.2344 40.4531 80.6719 39.3281 79.8281 38.3437C78.9844 37.3594 77.8594 36.7969 76.7344 36.7969L73.5 37.0781L72.7969 34.4062C72.5156 33.2812 71.9531 32.4375 71.1094 31.7344C70.2656 31.1719 69.2812 30.75 68.1562 30.75C66.75 30.75 65.625 31.3125 64.7812 32.1562C63.7969 33.1406 63.375 34.2656 63.375 35.5312V43.4062C63.375 45.2344 63.9375 46.7812 65.0625 48.1875C66.1875 49.5937 67.5938 50.5781 69.4219 51C69.8438 51.2812 70.125 51.5625 70.125 52.125V54.375C70.125 54.7969 69.9844 55.0781 69.7031 55.3594C69.4219 55.6406 69.1406 55.6406 68.8594 55.5C66.75 55.0781 64.9219 54.2344 63.375 52.8281L63.375 83.4844C63.375 85.1719 63.9375 86.4375 65.0625 87.5625C66.1875 88.6875 67.5938 89.25 69.2812 89.25C70.9688 89.25 72.5156 88.5469 73.6406 87.1406C74.2031 86.4375 74.7656 85.1719 75.4688 83.2031L75.6094 82.5L78.5625 83.0625C80.25 83.3438 81.7969 82.9219 83.2031 81.7969C84.6094 80.6719 85.3125 79.125 85.3125 77.2969L84.6094 73.5L87.2812 72.375Z" fill="#70C000"/>
</g>
<defs>
<filter id="filter0_d" x="13.75" y="16" width="92.5" height="92" filterUnits="userSpaceOnUse" color-interpolation-filters="sRGB">
<feFlood flood-opacity="0" result="BackgroundImageFix"/>
<feColorMatrix in="SourceAlpha" type="matrix" values="0 0 0 0 0 0 0 0 0 0 0 0 0 0 0 0 0 0 127 0"/>
<feOffset dy="4"/>
<feColorMatrix type="matrix" values="0 0 0 0 0 0 0 0 0 0 0 0 0 0 0 0 0 0 0.1 0"/>
<feBlend mode="normal" in2="BackgroundImageFix" result="effect1_dropShadow"/>
<feBlend mode="normal" in="SourceGraphic" in2="effect1_dropShadow" result="shape"/>
</filter>
</defs>
</svg>
