<svg width="40" height="40" viewBox="0 0 40 40" fill="none" xmlns="http://www.w3.org/2000/svg">
<rect width="40" height="40" fill="#CCCCCC"/>
<path d="M22.5312 20.25C22.5312 19.5469 22.2852 18.9492 21.793 18.457C21.3008 17.9648 20.7031 17.7188 20 17.7188C19.2969 17.7188 18.6992 17.9648 18.207 18.457C17.7148 18.9492 17.4688 19.5469 17.4688 20.25C17.4688 20.9531 17.7148 21.5508 18.207 22.043C18.6992 22.5352 19.2969 22.7812 20 22.7812C20.7031 22.7812 21.3008 22.5352 21.793 22.043C22.2852 21.5508 22.5312 20.9531 22.5312 20.25ZM26.1875 17.7188C26.8906 17.7188 27.4883 17.9648 27.9805 18.457C28.4727 18.9492 28.7188 19.5469 28.7188 20.25C28.7188 20.9531 28.4727 21.5508 27.9805 22.043C27.4883 22.5352 26.8906 22.7812 26.1875 22.7812C25.4844 22.7812 24.8867 22.5352 24.3945 22.043C23.9023 21.5508 23.6562 20.9531 23.6562 20.25C23.6562 19.5469 23.9023 18.9492 24.3945 18.457C24.8867 17.9648 25.4844 17.7188 26.1875 17.7188ZM13.8125 17.7188C14.5156 17.7188 15.1133 17.9648 15.6055 18.457C16.0977 18.9492 16.3438 19.5469 16.3438 20.25C16.3438 20.9531 16.0977 21.5508 15.6055 22.043C15.1133 22.5352 14.5156 22.7812 13.8125 22.7812C13.1094 22.7812 12.5117 22.5352 12.0195 22.043C11.5273 21.5508 11.2812 20.9531 11.2812 20.25C11.2812 19.5469 11.5273 18.9492 12.0195 18.457C12.5117 17.9648 13.1094 17.7188 13.8125 17.7188Z" fill="white"/>
</svg>
