<svg width="52" height="52" viewBox="0 0 52 52" fill="none" xmlns="http://www.w3.org/2000/svg">
<path d="M32.0353 47.2879C30.1871 47.8422 29.1436 47.9331 26.6194 47.9869C24.6738 48.0283 23.0412 47.9836 21.7159 47.7096C17.9128 46.9233 14.3311 45.1662 11.4782 42.6363C4.25498 36.2308 2.03359 26.1395 5.82889 17.2342C6.8145 14.9216 8.36066 12.6874 10.2074 10.7908C10.2074 10.7908 10.2074 10.7908 10.2074 10.7908L11.5717 9.38964C12.2851 8.65693 13.2331 8.24151 14.2135 8.1863C14.5889 7.48736 15.1707 6.9023 15.9024 6.52449L16.4388 6.24753L18.0411 9.3507L16.4388 6.24753C16.6463 6.14043 16.8658 6.03438 17.0675 5.94551C17.1632 5.90336 17.297 5.8464 17.4451 5.79201C17.5157 5.76607 17.6389 5.72238 17.7903 5.6798C17.7918 5.67936 17.7942 5.67869 17.7972 5.6778C17.8675 5.6574 18.3248 5.52475 18.9028 5.52475C19.0511 5.52475 19.1942 5.53241 19.3321 5.54667C19.8129 5.10519 20.4059 4.77751 21.0734 4.61197L21.4855 4.50977C21.4855 4.50977 21.4855 4.50977 21.4855 4.50977C21.9881 4.38512 23.1663 4.21865 23.9785 4.11515C27.9834 3.60486 33.3303 4.84386 36.9878 6.93332C42.0299 9.81383 45.7917 14.7173 47.3598 20.3634L43.5057 21.4338L47.3598 20.3634C47.5988 21.2237 47.7936 21.9941 47.8971 22.9663C47.9912 23.8501 48 24.8211 48 26.0766C48 27.3285 47.9908 28.2972 47.8982 29.176C47.7961 30.1448 47.6043 30.9089 47.3679 31.7594C45.2341 39.4369 39.7201 44.9832 32.0353 47.2879ZM32.0353 47.2879L30.8862 43.4565L32.0353 47.2879ZM18.1998 33.9512L17.9331 34.2194L18.1998 33.9512Z" fill="#C60C30" stroke="white" stroke-width="8" stroke-linejoin="round"/>
</svg>
