<svg width="52" height="52" viewBox="0 0 52 52" fill="none" xmlns="http://www.w3.org/2000/svg">
<circle cx="26" cy="26" r="26" fill="white"/>
<path d="M22.5258 43.7925C19.377 43.1414 16.4388 41.6891 14.1322 39.6436C8.21047 34.3922 6.38035 26.1427 9.50865 18.8025C10.2769 16.9999 11.5258 15.1705 13.0733 13.5812L14.4375 12.1801L14.5338 20.3809C14.6259 28.2306 14.6466 28.626 15.0185 29.6152C15.7625 31.5941 16.56 32.8541 17.9331 34.2194C21.4799 37.7463 26.6824 38.6265 31.1049 36.4479C35.2618 34.4002 37.8825 29.9478 37.5779 25.4503C37.3734 22.4294 36.3559 20.2141 34.1591 18.007C32.498 16.338 30.5437 15.2478 28.416 14.8033C26.2512 14.3511 26.355 14.285 26.355 16.1146V17.6941L27.5418 17.9124C32.138 18.758 35.1778 23.2645 34.2198 27.8125C33.9138 29.265 33.2313 30.5477 32.1357 31.7292C30.4708 33.5249 28.1284 34.3831 26.0831 34.3792C22.7011 34.3727 19.8771 32.4538 18.5083 29.6161C18.5083 29.6161 18.1498 28.805 18.0346 28.3038C17.3569 25.3562 17.7901 19.1513 17.7901 19.1513L17.7376 10.0787L18.274 9.80171C18.569 9.64938 18.852 9.52475 18.9028 9.52475C18.9536 9.52475 19.0181 13.6918 19.0461 18.7848C19.0461 18.7848 18.3947 25.4612 19.1996 28.0196C19.3158 28.3888 19.5363 29.0201 19.5363 29.0201C20.2419 30.4555 21.3729 31.7182 22.8423 32.4132C23.9578 32.9408 24.5194 33.1795 26.1696 33.1795C27.2479 33.1795 28.2031 32.8397 29.3021 32.335C30.5978 31.74 32.0841 30.1625 32.6333 28.7222C34.1465 24.7539 32.0395 20.4845 27.9802 19.294C26.3212 18.8074 26.355 18.7807 26.355 20.5819V22.1552L27.1514 22.3679C30.0219 23.1344 30.8977 26.9761 28.6443 28.95C27.8482 29.6474 27.1308 29.9557 25.8758 29.9557C24.5349 29.9557 23.2477 29.1453 22.586 27.9023C22.1885 27.1556 22.1549 26.4474 22.1549 26.123C22.1549 23.1267 22.0899 17.738 22.0899 17.738L22.0362 8.49436L22.4483 8.39216C22.675 8.33595 23.5911 8.19686 24.4841 8.08307C27.5127 7.69717 31.9934 8.68682 35.0036 10.4065C39.1075 12.751 42.2128 16.7786 43.5057 21.4338C43.9504 23.0351 44 23.5007 44 26.0766C44 28.641 43.9493 29.122 43.514 30.6883C41.7555 37.0153 37.2823 41.5383 30.8862 43.4565C29.5401 43.8602 28.9095 43.9372 26.5342 43.9878C24.6174 44.0286 23.3751 43.9681 22.5258 43.7925Z" fill="#C60C30"/>
</svg>
