<svg width="72" height="64" viewBox="0 0 72 64" fill="none" xmlns="http://www.w3.org/2000/svg">
    <path d="M7 13V53H15V33C15 27 9.99999 25.5 9.99999 19.5L10.005 14H11.995L11.995 19.5C12 23 15 25.9859 15 25.9859L15 13H7ZM12 31C12 37.9749 12 52 12 52H10L9.99999 24.5C11 26.5 12 28.5 12 31Z" fill="white"/>
    <path d="M19.9975 27.9999V14H22.0025V21.9941C22.0025 21.9941 23.3722 20.7752 25 20.5C25 17.9835 25 13 25 13H17L17 52.9998H25C25 52.9998 25 36.2373 25 27.9999C24 27.9999 22 29.4999 22 31.9999V51.9998H19.9975V32.4999C19.9975 28.4999 22 26.4999 25 25.9999V22.4999C23 22.9999 21 24.9999 19.9975 27.9999Z" fill="white"/>
    <path d="M35 13H27V53H30.005L30 43C30 37 35 35.5 35 29.5V13ZM32 31.5C32 34.0053 30.995 36 30 38V14H32V31.5Z" fill="white"/>
    <path d="M32 43.5V53H35V37C35 37 32 40 32 43.5Z" fill="white"/>
    <path d="M39.9975 27.9999V13.9999H42.0025V21.994C42.0025 21.994 43.3722 20.7751 45 20.4999C45 17.9835 45 13 45 13H37L37 52.9997H45C45 52.9997 45 36.2372 45 27.9999C44 27.9999 42 29.4998 42 31.9998V51.9997H39.9975V32.4998C39.9975 28.4999 42 26.4999 45 25.9999V22.4999C43 22.9999 41 24.9999 39.9975 27.9999Z" fill="white"/>
    <path fill-rule="evenodd" clip-rule="evenodd" d="M42 7.39965V11H45V5C45 5 44.2266 6.93327 42 7.39965ZM40 11V7.58288C37.7733 7.97516 37 9.68089 37 11H40Z" fill="white"/>
    <path d="M55 13H47V20C47 20 50 19.5 50 16V14H52V16C52 19.5 50 21.5 47 22V25.5C49 25 50.5 24.5 52 23.5V52H50V27C50 27 47 27.5 47 30L47 53H55V20.5C55 20.5 54 21 52 22C53.5 20.5 55 19 55 14.5V13Z" fill="white"/>
    <path fill-rule="evenodd" clip-rule="evenodd" d="M65 53H62V28C61 29 60 30 60 31L60.005 50H60L60 53H57V28C57 25 58.25 23.125 59.5 21.25C60.75 19.375 62 17.5 62 14.5L61.995 14H60.005L60.005 14.5C60 18 57 20.9859 57 20.9859L57 13H65V53ZM62 19.5C61 21.5 60 23.5 60 26L60 28C61 27 62 26 62 25V19.5Z" fill="white"/>
</svg>
