<svg width="44" height="56" viewBox="0 0 44 56" fill="none" xmlns="http://www.w3.org/2000/svg">
<path d="M31.5483 42.788L38.1386 47.3232C38.1461 47.3123 38.1536 47.3013 38.1611 47.2903L31.5483 42.788ZM12.4323 42.788L5.8195 47.2903C5.82698 47.3013 5.83449 47.3123 5.84203 47.3232L12.4323 42.788ZM9.8403 19.946L2.07916 18.0057C2.07233 18.033 2.06564 18.0604 2.0591 18.0878L9.8403 19.946ZM12.4323 13.79L5.86506 9.22148C5.84252 9.25388 5.82022 9.28644 5.79817 9.31917L12.4323 13.79ZM16.5363 10.01L12.7716 2.95117C12.7495 2.96296 12.7275 2.97484 12.7055 2.98684L16.5363 10.01ZM31.5483 13.79L24.9355 18.2923C24.943 18.3033 24.9505 18.3143 24.958 18.3252L31.5483 13.79ZM27.9303 22.808L35.8659 21.7949L35.8659 21.7949L27.9303 22.808ZM26.8503 18.434L19.3509 21.2195C19.3834 21.3069 19.4174 21.3938 19.4529 21.48L26.8503 18.434ZM24.9603 15.464L30.3417 9.54448L30.3417 9.54447L24.9603 15.464ZM18.9663 15.464L13.7169 9.42715C13.6725 9.46577 13.6285 9.50489 13.5849 9.54448L18.9663 15.464ZM17.0223 18.434L9.59449 15.4629C9.57933 15.5008 9.56446 15.5388 9.54988 15.5769L17.0223 18.434ZM15.9963 22.808L8.0607 21.7949C8.05361 21.8505 8.04711 21.9061 8.04119 21.9617L15.9963 22.808ZM15.9963 33.716L8.04119 34.5623C8.04711 34.6179 8.05361 34.6735 8.0607 34.7291L15.9963 33.716ZM17.0223 38.144L9.52289 40.9295C9.55537 41.0169 9.58936 41.1038 9.62487 41.19L17.0223 38.144ZM18.9663 41.06L13.5849 46.9795C13.6285 47.0191 13.6725 47.0582 13.7169 47.0968L18.9663 41.06ZM26.8503 38.144L19.4225 35.1729C19.4073 35.2108 19.3925 35.2488 19.3779 35.2869L26.8503 38.144ZM27.9303 33.716L35.8659 34.7291L35.8659 34.7291L27.9303 33.716ZM27.0043 28.262C27.0043 33.7616 25.9692 36.7674 24.9355 38.2857L38.1611 47.2903C41.7354 42.0406 43.0043 35.3624 43.0043 28.262H27.0043ZM24.958 38.2528C24.1484 39.4292 23.4282 39.81 21.9903 39.81V55.81C28.6884 55.81 34.3402 52.8428 38.1386 47.3232L24.958 38.2528ZM21.9903 39.81C20.5524 39.81 19.8322 39.4292 19.0226 38.2528L5.84203 47.3232C9.64043 52.8428 15.2922 55.81 21.9903 55.81V39.81ZM19.0451 38.2857C18.0114 36.7674 16.9763 33.7616 16.9763 28.262H0.976297C0.976297 35.3624 2.2452 42.0406 5.8195 47.2903L19.0451 38.2857ZM16.9763 28.262C16.9763 25.6003 17.223 23.4729 17.6215 21.8042L2.0591 18.0878C1.30558 21.2431 0.976297 24.6597 0.976297 28.262H16.9763ZM17.6014 21.8863C18.0447 20.1134 18.5871 18.9722 19.0664 18.2608L5.79817 9.31917C4.04554 11.9198 2.85993 14.8826 2.07916 18.0057L17.6014 21.8863ZM18.9995 18.3585C19.5269 17.6004 19.9965 17.2353 20.3671 17.0332L12.7055 2.98684C9.90813 4.51267 7.64167 6.6676 5.86506 9.22148L18.9995 18.3585ZM20.301 17.0688C20.6517 16.8818 21.156 16.714 21.9903 16.714V0.713997C18.7926 0.713997 15.6609 1.4102 12.7716 2.95117L20.301 17.0688ZM21.9903 16.714C23.3909 16.714 24.1099 17.0797 24.9355 18.2923L38.1611 9.28767C34.3787 3.73226 28.7257 0.713997 21.9903 0.713997V16.714ZM24.958 18.3252C25.9658 19.7897 27.0043 22.7537 27.0043 28.262H43.0043C43.0043 21.1703 41.7387 14.4863 38.1386 9.25476L24.958 18.3252ZM36.2543 28.262C36.2543 26.0251 36.1302 23.8655 35.8659 21.7949L19.9947 23.8211C20.1624 25.1345 20.2543 26.6109 20.2543 28.262H36.2543ZM35.8659 21.7949C35.585 19.5942 35.084 17.4189 34.2477 15.388L19.4529 21.48C19.6246 21.8971 19.8436 22.6377 19.9947 23.8211L35.8659 21.7949ZM34.3497 15.6485C33.5477 13.4894 32.2914 11.3169 30.3417 9.54448L19.5789 21.3835C19.4009 21.2217 19.3079 21.0892 19.2775 21.0415C19.2501 20.9984 19.2853 21.043 19.3509 21.2195L34.3497 15.6485ZM30.3417 9.54447C27.9112 7.33491 24.9322 6.384 21.9903 6.384V22.384C21.7699 22.384 21.3756 22.349 20.8899 22.1723C20.3908 21.9909 19.9403 21.7121 19.5789 21.3835L30.3417 9.54447ZM21.9903 6.384C19.0455 6.384 16.1258 7.33245 13.7169 9.42715L24.2157 21.5008C23.8968 21.7782 23.4925 22.0242 23.034 22.1879C22.5848 22.3483 22.2131 22.384 21.9903 22.384V6.384ZM13.5849 9.54448C11.6892 11.2679 10.4315 13.3703 9.59449 15.4629L24.4501 21.4051C24.5329 21.198 24.5856 21.1191 24.5799 21.1278C24.5718 21.1401 24.5019 21.2433 24.3477 21.3835L13.5849 9.54448ZM9.54988 15.5769C8.7985 17.542 8.33451 19.6501 8.0607 21.7949L23.9319 23.8211C24.0901 22.5819 24.3101 21.7739 24.4947 21.2911L9.54988 15.5769ZM8.04119 21.9617C7.82743 23.971 7.7263 26.0742 7.7263 28.262H23.7263C23.7263 26.5618 23.8052 25.029 23.9514 23.6543L8.04119 21.9617ZM7.7263 28.262C7.7263 30.4498 7.82743 32.553 8.04119 34.5623L23.9514 32.8697C23.8052 31.495 23.7263 29.9622 23.7263 28.262H7.7263ZM8.0607 34.7291C8.33439 36.873 8.79447 38.9683 9.52289 40.9295L24.5217 35.3585C24.3141 34.7996 24.0902 33.943 23.9319 32.7029L8.0607 34.7291ZM9.62487 41.19C10.4756 43.2561 11.7342 45.297 13.5849 46.9795L24.3477 35.1405C24.4114 35.1984 24.4589 35.2493 24.4916 35.2878C24.5241 35.326 24.5403 35.3497 24.5427 35.3534C24.5465 35.3591 24.4971 35.286 24.4197 35.098L9.62487 41.19ZM13.7169 47.0968C16.1258 49.1915 19.0455 50.14 21.9903 50.14V34.14C22.2131 34.14 22.5848 34.1757 23.034 34.3361C23.4925 34.4998 23.8968 34.7458 24.2157 35.0232L13.7169 47.0968ZM21.9903 50.14C24.9322 50.14 27.9112 49.1891 30.3417 46.9795L19.5789 35.1405C19.9403 34.8119 20.3908 34.5331 20.8899 34.3517C21.3756 34.175 21.7699 34.14 21.9903 34.14V50.14ZM30.3417 46.9795C32.246 45.2484 33.506 43.1372 34.3227 41.0011L19.3779 35.2869C19.3183 35.4427 19.2872 35.4805 19.3136 35.4398C19.3426 35.395 19.4254 35.2801 19.5789 35.1405L30.3417 46.9795ZM34.2781 41.1151C35.0882 39.09 35.585 36.9291 35.8659 34.7291L19.9947 32.7029C19.8436 33.8869 19.6204 34.678 19.4225 35.1729L34.2781 41.1151ZM35.8659 34.7291C36.1302 32.6585 36.2543 30.4989 36.2543 28.262H20.2543C20.2543 29.9131 20.1624 31.3895 19.9947 32.7029L35.8659 34.7291Z" fill="white"/>
<path d="M35.0043 28.262C35.0043 34.562 33.8523 39.404 31.5483 42.788C29.2443 46.136 26.0583 47.81 21.9903 47.81C17.9223 47.81 14.7363 46.136 12.4323 42.788C10.1283 39.404 8.9763 34.562 8.9763 28.262C8.9763 25.13 9.2643 22.358 9.8403 19.946C10.4523 17.498 11.3163 15.446 12.4323 13.79C13.5843 12.134 14.9523 10.874 16.5363 10.01C18.1563 9.146 19.9743 8.714 21.9903 8.714C26.0583 8.714 29.2443 10.406 31.5483 13.79C33.8523 17.138 35.0043 21.962 35.0043 28.262ZM28.2543 28.262C28.2543 26.318 28.1463 24.5 27.9303 22.808C27.7143 21.116 27.3543 19.658 26.8503 18.434C26.3823 17.174 25.7523 16.184 24.9603 15.464C24.1683 14.744 23.1783 14.384 21.9903 14.384C20.8023 14.384 19.7943 14.744 18.9663 15.464C18.1743 16.184 17.5263 17.174 17.0223 18.434C16.5543 19.658 16.2123 21.116 15.9963 22.808C15.8163 24.5 15.7263 26.318 15.7263 28.262C15.7263 30.206 15.8163 32.024 15.9963 33.716C16.2123 35.408 16.5543 36.884 17.0223 38.144C17.5263 39.368 18.1743 40.34 18.9663 41.06C19.7943 41.78 20.8023 42.14 21.9903 42.14C23.1783 42.14 24.1683 41.78 24.9603 41.06C25.7523 40.34 26.3823 39.368 26.8503 38.144C27.3543 36.884 27.7143 35.408 27.9303 33.716C28.1463 32.024 28.2543 30.206 28.2543 28.262Z" fill="#70C000"/>
</svg>
