<svg width="33" height="54" viewBox="0 0 33 54" fill="none" xmlns="http://www.w3.org/2000/svg">
<path d="M8.5143 16.354L5.56529 8.91738C3.58673 9.70198 2.00239 11.2427 1.16288 13.1986C0.323358 15.1545 0.297873 17.3643 1.09206 19.339L8.5143 16.354ZM14.7783 13.168L10.6114 6.33888C10.594 6.34948 10.5767 6.36015 10.5594 6.37088L14.7783 13.168ZM20.3943 8.578V0.577999C18.1544 0.577999 16.0171 1.51702 14.5021 3.16676L20.3943 8.578ZM24.9843 8.578H32.9843C32.9843 4.15972 29.4026 0.577999 24.9843 0.577999V8.578ZM24.9843 46V54C29.4026 54 32.9843 50.4183 32.9843 46H24.9843ZM18.4503 46H10.4503C10.4503 50.4183 14.032 54 18.4503 54V46ZM18.4503 17.326H26.4503C26.4503 14.2705 24.7099 11.4819 21.9651 10.1395C19.2203 8.79705 15.9506 9.1353 13.5388 11.0112L18.4503 17.326ZM14.7783 19.54L18.2857 26.7301L18.2857 26.7301L14.7783 19.54ZM10.5123 21.322L3.09006 24.307C4.67748 28.2541 9.07649 30.2684 13.1018 28.8913L10.5123 21.322ZM11.4633 23.7906C14.0318 22.7721 16.543 21.4884 18.9972 19.9651L10.5594 6.37088C8.83758 7.43959 7.17284 8.2799 5.56529 8.91738L11.4633 23.7906ZM18.9452 19.9971C21.6828 18.3267 24.1411 16.3253 26.2865 13.9892L14.5021 3.16676C13.4075 4.35866 12.1218 5.41729 10.6114 6.33888L18.9452 19.9971ZM20.3943 16.578H24.9843V0.577999H20.3943V16.578ZM16.9843 8.578V46H32.9843V8.578H16.9843ZM24.9843 38H18.4503V54H24.9843V38ZM26.4503 46V17.326H10.4503V46H26.4503ZM13.5388 11.0112C13.1201 11.3368 12.4034 11.7974 11.2709 12.3499L18.2857 26.7301C20.1052 25.8426 21.8365 24.8272 23.3618 23.6408L13.5388 11.0112ZM11.2709 12.3499C10.0535 12.9437 8.93855 13.4052 7.92279 13.7527L13.1018 28.8913C14.822 28.3028 16.5511 27.5763 18.2857 26.7301L11.2709 12.3499ZM17.9345 18.337L15.9365 13.369L1.09206 19.339L3.09006 24.307L17.9345 18.337Z" fill="white"/>
<path d="M8.5143 16.354C10.6023 15.526 12.6903 14.464 14.7783 13.168C16.9023 11.872 18.7743 10.342 20.3943 8.578H24.9843V46H18.4503V17.326C17.4783 18.082 16.2543 18.82 14.7783 19.54C13.3023 20.26 11.8803 20.854 10.5123 21.322L8.5143 16.354Z" fill="#70C000"/>
</svg>
