<svg width="41" height="55" viewBox="0 0 41 55" fill="none" xmlns="http://www.w3.org/2000/svg">
<path d="M30.8183 23.132L38.1376 26.3611C38.1491 26.3353 38.1603 26.3093 38.1715 26.2834L30.8183 23.132ZM28.7123 26.75L22.2424 22.0446C22.2336 22.0567 22.2249 22.0688 22.2162 22.0809L28.7123 26.75ZM25.8503 30.152L31.5072 35.8089C31.5381 35.7779 31.5687 35.7468 31.5991 35.7154L25.8503 30.152ZM22.6103 33.338L28.0818 39.1743C28.1116 39.1464 28.1411 39.1183 28.1705 39.0899L22.6103 33.338ZM20.6663 35.282L26.4594 40.7992L26.4594 40.7992L20.6663 35.282ZM18.6143 37.55L12.5402 32.3437L12.5402 32.3437L18.6143 37.55ZM16.9403 39.764L23.5428 44.2815C23.5784 44.2294 23.6134 44.1768 23.6478 44.1239L16.9403 39.764ZM16.1843 41.492L8.20786 40.8784C8.03695 43.1002 8.80047 45.2926 10.3145 46.9276C11.8286 48.5626 13.9559 49.492 16.1843 49.492V41.492ZM32.8163 41.492H40.8163C40.8163 37.0737 37.2346 33.492 32.8163 33.492V41.492ZM32.8163 47V55C37.2346 55 40.8163 51.4183 40.8163 47H32.8163ZM9.0023 47L1.06407 47.9923C1.5645 51.9957 4.96771 55 9.0023 55V47ZM9.7583 40.25L2.30568 37.3417C2.29279 37.3747 2.28011 37.4078 2.26766 37.441L9.7583 40.25ZM11.9723 36.146L18.4822 40.7959L18.4822 40.7959L11.9723 36.146ZM14.9963 32.582L9.33944 26.9251L9.33944 26.9251L14.9963 32.582ZM18.3443 29.288L12.8091 23.5121C12.7997 23.5211 12.7903 23.5301 12.7809 23.5392L18.3443 29.288ZM20.8283 26.858L15.1714 21.2011L20.8283 26.858ZM22.8803 24.536L16.55 19.6444C16.5389 19.6588 16.5279 19.6732 16.5168 19.6877L22.8803 24.536ZM24.3383 22.16L31.6212 25.4704C31.6394 25.4304 31.6573 25.3902 31.6749 25.3498L24.3383 22.16ZM16.5083 14.87L19.0381 22.4595L16.5083 14.87ZM14.1863 15.896L10.178 8.97258C10.1232 9.00433 10.0687 9.03672 10.0147 9.06975L14.1863 15.896ZM12.4583 17.138L17.4009 23.4285C17.4903 23.3583 17.5782 23.2861 17.6646 23.2121L12.4583 17.138ZM11.3243 18.11L4.78855 22.7235C6.1492 24.651 8.29135 25.8797 10.6422 26.0809C12.993 26.282 15.3128 25.4352 16.9812 23.7668L11.3243 18.11ZM8.0843 13.52L2.56705 7.7269C-0.306093 10.4632 -0.73954 14.892 1.54855 18.1335L8.0843 13.52ZM13.3763 10.064L16.5277 17.4172C16.5483 17.4083 16.569 17.3993 16.5896 17.3903L13.3763 10.064ZM28.7663 11.576L23.0558 17.1787C23.0914 17.215 23.1273 17.2509 23.1636 17.2865L28.7663 11.576ZM23.6283 19.298C23.6283 19.4487 23.6034 19.658 23.4651 19.9806L38.1715 26.2834C39.1132 24.086 39.6283 21.7393 39.6283 19.298H23.6283ZM23.499 19.9029C23.2099 20.558 22.8038 21.2727 22.2424 22.0446L35.1822 31.4554C36.3488 29.8513 37.3467 28.154 38.1376 26.3611L23.499 19.9029ZM22.2162 22.0809C21.6353 22.889 20.9361 23.7262 20.1015 24.5886L31.5991 35.7154C32.9245 34.3458 34.1333 32.915 35.2084 31.4191L22.2162 22.0809ZM20.1934 24.4951C19.1449 25.5437 18.0971 26.574 17.0501 27.5861L28.1705 39.0899C29.2835 38.014 30.3957 36.9203 31.5072 35.8089L20.1934 24.4951ZM17.1388 27.5017C16.4241 28.1717 15.6664 28.9319 14.8732 29.7648L26.4594 40.7992C27.1062 40.1201 27.6445 39.5843 28.0818 39.1743L17.1388 27.5017ZM14.8732 29.7648C14.0615 30.6171 13.2834 31.4766 12.5402 32.3437L24.6883 42.7563C25.2412 42.1114 25.8311 41.4589 26.4594 40.7992L14.8732 29.7648ZM12.5402 32.3437C11.6979 33.3264 10.9205 34.3461 10.2327 35.4041L23.6478 44.1239C23.8961 43.7419 24.2347 43.2856 24.6884 42.7563L12.5402 32.3437ZM10.3378 35.2465C9.60208 36.3219 8.40546 38.3097 8.20786 40.8784L24.1607 42.1056C24.091 43.0119 23.8489 43.6429 23.7296 43.9156C23.6032 44.2044 23.508 44.3322 23.5428 44.2815L10.3378 35.2465ZM16.1843 49.492H32.8163V33.492H16.1843V49.492ZM24.8163 41.492V47H40.8163V41.492H24.8163ZM32.8163 39H9.0023V55H32.8163V39ZM16.9405 46.0077C16.9454 46.0471 16.9481 46.0752 16.9494 46.0907C16.9508 46.1062 16.951 46.112 16.9507 46.107C16.9505 46.1021 16.9499 46.0886 16.9493 46.0658C16.9487 46.0431 16.9483 46.0126 16.9483 45.974H0.948297C0.948297 46.5913 0.975191 47.2812 1.06407 47.9923L16.9405 46.0077ZM16.9483 45.974C16.9483 45.9732 16.9483 45.9723 16.9483 45.9715C16.9483 45.9706 16.9483 45.9698 16.9483 45.9689C16.9483 45.9681 16.9483 45.9673 16.9483 45.9664C16.9483 45.9656 16.9483 45.9647 16.9483 45.9639C16.9483 45.9631 16.9483 45.9622 16.9483 45.9614C16.9483 45.9605 16.9483 45.9597 16.9483 45.9589C16.9483 45.958 16.9483 45.9572 16.9483 45.9563C16.9483 45.9555 16.9483 45.9547 16.9483 45.9538C16.9483 45.953 16.9483 45.9522 16.9483 45.9513C16.9483 45.9505 16.9483 45.9496 16.9483 45.9488C16.9483 45.948 16.9483 45.9471 16.9483 45.9463C16.9483 45.9455 16.9483 45.9446 16.9483 45.9438C16.9483 45.943 16.9483 45.9421 16.9483 45.9413C16.9483 45.9405 16.9483 45.9396 16.9483 45.9388C16.9483 45.938 16.9483 45.9371 16.9483 45.9363C16.9483 45.9355 16.9483 45.9346 16.9483 45.9338C16.9483 45.933 16.9483 45.9322 16.9483 45.9313C16.9483 45.9305 16.9483 45.9297 16.9483 45.9288C16.9483 45.928 16.9483 45.9272 16.9483 45.9264C16.9483 45.9255 16.9483 45.9247 16.9483 45.9239C16.9483 45.923 16.9483 45.9222 16.9483 45.9214C16.9483 45.9206 16.9483 45.9197 16.9483 45.9189C16.9483 45.9181 16.9483 45.9173 16.9483 45.9164C16.9483 45.9156 16.9483 45.9148 16.9483 45.914C16.9483 45.9131 16.9483 45.9123 16.9483 45.9115C16.9483 45.9107 16.9483 45.9098 16.9483 45.909C16.9483 45.9082 16.9483 45.9074 16.9483 45.9066C16.9483 45.9057 16.9483 45.9049 16.9483 45.9041C16.9483 45.9033 16.9483 45.9025 16.9483 45.9016C16.9483 45.9008 16.9483 45.9 16.9483 45.8992C16.9483 45.8984 16.9483 45.8975 16.9483 45.8967C16.9483 45.8959 16.9483 45.8951 16.9483 45.8943C16.9483 45.8934 16.9483 45.8926 16.9483 45.8918C16.9483 45.891 16.9483 45.8902 16.9483 45.8894C16.9483 45.8886 16.9483 45.8877 16.9483 45.8869C16.9483 45.8861 16.9483 45.8853 16.9483 45.8845C16.9483 45.8837 16.9483 45.8828 16.9483 45.882C16.9483 45.8812 16.9483 45.8804 16.9483 45.8796C16.9483 45.8788 16.9483 45.878 16.9483 45.8772C16.9483 45.8763 16.9483 45.8755 16.9483 45.8747C16.9483 45.8739 16.9483 45.8731 16.9483 45.8723C16.9483 45.8715 16.9483 45.8707 16.9483 45.8699C16.9483 45.8691 16.9483 45.8682 16.9483 45.8674C16.9483 45.8666 16.9483 45.8658 16.9483 45.865C16.9483 45.8642 16.9483 45.8634 16.9483 45.8626C16.9483 45.8618 16.9483 45.861 16.9483 45.8602C16.9483 45.8594 16.9483 45.8586 16.9483 45.8578C16.9483 45.857 16.9483 45.8562 16.9483 45.8553C16.9483 45.8545 16.9483 45.8537 16.9483 45.8529C16.9483 45.8521 16.9483 45.8513 16.9483 45.8505C16.9483 45.8497 16.9483 45.8489 16.9483 45.8481C16.9483 45.8473 16.9483 45.8465 16.9483 45.8457C16.9483 45.8449 16.9483 45.8441 16.9483 45.8433C16.9483 45.8425 16.9483 45.8417 16.9483 45.8409C16.9483 45.8401 16.9483 45.8393 16.9483 45.8385C16.9483 45.8377 16.9483 45.8369 16.9483 45.8361C16.9483 45.8353 16.9483 45.8345 16.9483 45.8337C16.9483 45.8329 16.9483 45.8321 16.9483 45.8313C16.9483 45.8305 16.9483 45.8298 16.9483 45.829C16.9483 45.8282 16.9483 45.8274 16.9483 45.8266C16.9483 45.8258 16.9483 45.825 16.9483 45.8242C16.9483 45.8234 16.9483 45.8226 16.9483 45.8218C16.9483 45.821 16.9483 45.8202 16.9483 45.8194C16.9483 45.8186 16.9483 45.8179 16.9483 45.8171C16.9483 45.8163 16.9483 45.8155 16.9483 45.8147C16.9483 45.8139 16.9483 45.8131 16.9483 45.8123C16.9483 45.8115 16.9483 45.8107 16.9483 45.81C16.9483 45.8092 16.9483 45.8084 16.9483 45.8076C16.9483 45.8068 16.9483 45.806 16.9483 45.8052C16.9483 45.8044 16.9483 45.8037 16.9483 45.8029C16.9483 45.8021 16.9483 45.8013 16.9483 45.8005C16.9483 45.7997 16.9483 45.7989 16.9483 45.7982C16.9483 45.7974 16.9483 45.7966 16.9483 45.7958C16.9483 45.795 16.9483 45.7942 16.9483 45.7935C16.9483 45.7927 16.9483 45.7919 16.9483 45.7911C16.9483 45.7903 16.9483 45.7895 16.9483 45.7888C16.9483 45.788 16.9483 45.7872 16.9483 45.7864C16.9483 45.7856 16.9483 45.7849 16.9483 45.7841C16.9483 45.7833 16.9483 45.7825 16.9483 45.7817C16.9483 45.781 16.9483 45.7802 16.9483 45.7794C16.9483 45.7786 16.9483 45.7779 16.9483 45.7771C16.9483 45.7763 16.9483 45.7755 16.9483 45.7747C16.9483 45.774 16.9483 45.7732 16.9483 45.7724C16.9483 45.7716 16.9483 45.7709 16.9483 45.7701C16.9483 45.7693 16.9483 45.7685 16.9483 45.7678C16.9483 45.767 16.9483 45.7662 16.9483 45.7655C16.9483 45.7647 16.9483 45.7639 16.9483 45.7631C16.9483 45.7624 16.9483 45.7616 16.9483 45.7608C16.9483 45.76 16.9483 45.7593 16.9483 45.7585C16.9483 45.7577 16.9483 45.757 16.9483 45.7562C16.9483 45.7554 16.9483 45.7547 16.9483 45.7539C16.9483 45.7531 16.9483 45.7524 16.9483 45.7516C16.9483 45.7508 16.9483 45.7501 16.9483 45.7493C16.9483 45.7485 16.9483 45.7477 16.9483 45.747C16.9483 45.7462 16.9483 45.7455 16.9483 45.7447C16.9483 45.7439 16.9483 45.7432 16.9483 45.7424C16.9483 45.7416 16.9483 45.7409 16.9483 45.7401C16.9483 45.7393 16.9483 45.7386 16.9483 45.7378C16.9483 45.737 16.9483 45.7363 16.9483 45.7355C16.9483 45.7348 16.9483 45.734 16.9483 45.7332C16.9483 45.7325 16.9483 45.7317 16.9483 45.731C16.9483 45.7302 16.9483 45.7294 16.9483 45.7287C16.9483 45.7279 16.9483 45.7272 16.9483 45.7264C16.9483 45.7256 16.9483 45.7249 16.9483 45.7241C16.9483 45.7234 16.9483 45.7226 16.9483 45.7218C16.9483 45.7211 16.9483 45.7203 16.9483 45.7196C16.9483 45.7188 16.9483 45.7181 16.9483 45.7173C16.9483 45.7166 16.9483 45.7158 16.9483 45.715C16.9483 45.7143 16.9483 45.7135 16.9483 45.7128C16.9483 45.712 16.9483 45.7113 16.9483 45.7105C16.9483 45.7098 16.9483 45.709 16.9483 45.7083C16.9483 45.7075 16.9483 45.7068 16.9483 45.706C16.9483 45.7053 16.9483 45.7045 16.9483 45.7038C16.9483 45.703 16.9483 45.7022 16.9483 45.7015C16.9483 45.7008 16.9483 45.7 16.9483 45.6993C16.9483 45.6985 16.9483 45.6978 16.9483 45.697C16.9483 45.6963 16.9483 45.6955 16.9483 45.6948C16.9483 45.694 16.9483 45.6933 16.9483 45.6925C16.9483 45.6918 16.9483 45.691 16.9483 45.6903C16.9483 45.6895 16.9483 45.6888 16.9483 45.688C16.9483 45.6873 16.9483 45.6866 16.9483 45.6858C16.9483 45.6851 16.9483 45.6843 16.9483 45.6836C16.9483 45.6828 16.9483 45.6821 16.9483 45.6814C16.9483 45.6806 16.9483 45.6799 16.9483 45.6791C16.9483 45.6784 16.9483 45.6776 16.9483 45.6769C16.9483 45.6762 16.9483 45.6754 16.9483 45.6747C16.9483 45.6739 16.9483 45.6732 16.9483 45.6725C16.9483 45.6717 16.9483 45.671 16.9483 45.6702C16.9483 45.6695 16.9483 45.6688 16.9483 45.668C16.9483 45.6673 16.9483 45.6666 16.9483 45.6658C16.9483 45.6651 16.9483 45.6644 16.9483 45.6636C16.9483 45.6629 16.9483 45.6621 16.9483 45.6614C16.9483 45.6607 16.9483 45.6599 16.9483 45.6592C16.9483 45.6585 16.9483 45.6577 16.9483 45.657C16.9483 45.6563 16.9483 45.6555 16.9483 45.6548C16.9483 45.6541 16.9483 45.6533 16.9483 45.6526C16.9483 45.6519 16.9483 45.6511 16.9483 45.6504C16.9483 45.6497 16.9483 45.649 16.9483 45.6482C16.9483 45.6475 16.9483 45.6468 16.9483 45.646C16.9483 45.6453 16.9483 45.6446 16.9483 45.6438C16.9483 45.6431 16.9483 45.6424 16.9483 45.6417C16.9483 45.6409 16.9483 45.6402 16.9483 45.6395C16.9483 45.6388 16.9483 45.638 16.9483 45.6373C16.9483 45.6366 16.9483 45.6359 16.9483 45.6351C16.9483 45.6344 16.9483 45.6337 16.9483 45.633C16.9483 45.6322 16.9483 45.6315 16.9483 45.6308C16.9483 45.6301 16.9483 45.6293 16.9483 45.6286C16.9483 45.6279 16.9483 45.6272 16.9483 45.6264C16.9483 45.6257 16.9483 45.625 16.9483 45.6243C16.9483 45.6236 16.9483 45.6228 16.9483 45.6221C16.9483 45.6214 16.9483 45.6207 16.9483 45.62C16.9483 45.6192 16.9483 45.6185 16.9483 45.6178C16.9483 45.6171 16.9483 45.6164 16.9483 45.6157C16.9483 45.6149 16.9483 45.6142 16.9483 45.6135C16.9483 45.6128 16.9483 45.6121 16.9483 45.6114C16.9483 45.6106 16.9483 45.6099 16.9483 45.6092C16.9483 45.6085 16.9483 45.6078 16.9483 45.6071C16.9483 45.6063 16.9483 45.6056 16.9483 45.6049C16.9483 45.6042 16.9483 45.6035 16.9483 45.6028C16.9483 45.6021 16.9483 45.6014 16.9483 45.6006C16.9483 45.5999 16.9483 45.5992 16.9483 45.5985C16.9483 45.5978 16.9483 45.5971 16.9483 45.5964C16.9483 45.5957 16.9483 45.595 16.9483 45.5942C16.9483 45.5935 16.9483 45.5928 16.9483 45.5921C16.9483 45.5914 16.9483 45.5907 16.9483 45.59C16.9483 45.5893 16.9483 45.5886 16.9483 45.5879C16.9483 45.5872 16.9483 45.5865 16.9483 45.5858C16.9483 45.585 16.9483 45.5843 16.9483 45.5836C16.9483 45.5829 16.9483 45.5822 16.9483 45.5815C16.9483 45.5808 16.9483 45.5801 16.9483 45.5794C16.9483 45.5787 16.9483 45.578 16.9483 45.5773C16.9483 45.5766 16.9483 45.5759 16.9483 45.5752C16.9483 45.5745 16.9483 45.5738 16.9483 45.5731C16.9483 45.5724 16.9483 45.5717 16.9483 45.571C16.9483 45.5703 16.9483 45.5696 16.9483 45.5689C16.9483 45.5682 16.9483 45.5675 16.9483 45.5668C16.9483 45.5661 16.9483 45.5654 16.9483 45.5647C16.9483 45.564 16.9483 45.5633 16.9483 45.5626C16.9483 45.5619 16.9483 45.5612 16.9483 45.5605C16.9483 45.5598 16.9483 45.5591 16.9483 45.5584C16.9483 45.5577 16.9483 45.557 16.9483 45.5563C16.9483 45.5556 16.9483 45.5549 16.9483 45.5543C16.9483 45.5536 16.9483 45.5529 16.9483 45.5522C16.9483 45.5515 16.9483 45.5508 16.9483 45.5501C16.9483 45.5494 16.9483 45.5487 16.9483 45.548C16.9483 45.5473 16.9483 45.5466 16.9483 45.5459C16.9483 45.5453 16.9483 45.5446 16.9483 45.5439C16.9483 45.5432 16.9483 45.5425 16.9483 45.5418C16.9483 45.5411 16.9483 45.5404 16.9483 45.5397C16.9483 45.5391 16.9483 45.5384 16.9483 45.5377C16.9483 45.537 16.9483 45.5363 16.9483 45.5356C16.9483 45.5349 16.9483 45.5342 16.9483 45.5336C16.9483 45.5329 16.9483 45.5322 16.9483 45.5315C16.9483 45.5308 16.9483 45.5301 16.9483 45.5295C16.9483 45.5288 16.9483 45.5281 16.9483 45.5274C16.9483 45.5267 16.9483 45.526 16.9483 45.5254C16.9483 45.5247 16.9483 45.524 16.9483 45.5233C16.9483 45.5226 16.9483 45.5219 16.9483 45.5213C16.9483 45.5206 16.9483 45.5199 16.9483 45.5192C16.9483 45.5185 16.9483 45.5179 16.9483 45.5172C16.9483 45.5165 16.9483 45.5158 16.9483 45.5152C16.9483 45.5145 16.9483 45.5138 16.9483 45.5131C16.9483 45.5124 16.9483 45.5118 16.9483 45.5111C16.9483 45.5104 16.9483 45.5097 16.9483 45.5091C16.9483 45.5084 16.9483 45.5077 16.9483 45.507C16.9483 45.5064 16.9483 45.5057 16.9483 45.505C16.9483 45.5043 16.9483 45.5037 16.9483 45.503C16.9483 45.5023 16.9483 45.5016 16.9483 45.501C16.9483 45.5003 16.9483 45.4996 16.9483 45.499C16.9483 45.4983 16.9483 45.4976 16.9483 45.4969C16.9483 45.4963 16.9483 45.4956 16.9483 45.4949C16.9483 45.4943 16.9483 45.4936 16.9483 45.4929C16.9483 45.4923 16.9483 45.4916 16.9483 45.4909C16.9483 45.4902 16.9483 45.4896 16.9483 45.4889C16.9483 45.4882 16.9483 45.4876 16.9483 45.4869C16.9483 45.4862 16.9483 45.4856 16.9483 45.4849C16.9483 45.4842 16.9483 45.4836 16.9483 45.4829C16.9483 45.4823 16.9483 45.4816 16.9483 45.4809C16.9483 45.4803 16.9483 45.4796 16.9483 45.4789C16.9483 45.4783 16.9483 45.4776 16.9483 45.4769C16.9483 45.4763 16.9483 45.4756 16.9483 45.475C16.9483 45.4743 16.9483 45.4736 16.9483 45.473C16.9483 45.4723 16.9483 45.4717 16.9483 45.471C16.9483 45.4703 16.9483 45.4697 16.9483 45.469C16.9483 45.4684 16.9483 45.4677 16.9483 45.467C16.9483 45.4664 16.9483 45.4657 16.9483 45.4651C16.9483 45.4644 16.9483 45.4638 16.9483 45.4631C16.9483 45.4624 16.9483 45.4618 16.9483 45.4611C16.9483 45.4605 16.9483 45.4598 16.9483 45.4592C16.9483 45.4585 16.9483 45.4578 16.9483 45.4572C16.9483 45.4565 16.9483 45.4559 16.9483 45.4552C16.9483 45.4546 16.9483 45.4539 16.9483 45.4533C16.9483 45.4526 16.9483 45.452 16.9483 45.4513C16.9483 45.4507 16.9483 45.45 16.9483 45.4494C16.9483 45.4487 16.9483 45.4481 16.9483 45.4474C16.9483 45.4468 16.9483 45.4461 16.9483 45.4455C16.9483 45.4448 16.9483 45.4442 16.9483 45.4435C16.9483 45.4429 16.9483 45.4422 16.9483 45.4416C16.9483 45.4409 16.9483 45.4403 16.9483 45.4396C16.9483 45.439 16.9483 45.4383 16.9483 45.4377C16.9483 45.437 16.9483 45.4364 16.9483 45.4358C16.9483 45.4351 16.9483 45.4345 16.9483 45.4338C16.9483 45.4332 16.9483 45.4325 16.9483 45.4319C16.9483 45.4312 16.9483 45.4306 16.9483 45.43C16.9483 45.4293 16.9483 45.4287 16.9483 45.428C16.9483 45.4274 16.9483 45.4267 16.9483 45.4261C16.9483 45.4255 16.9483 45.4248 16.9483 45.4242C16.9483 45.4235 16.9483 45.4229 16.9483 45.4223C16.9483 45.4216 16.9483 45.421 16.9483 45.4203C16.9483 45.4197 16.9483 45.4191 16.9483 45.4184C16.9483 45.4178 16.9483 45.4172 16.9483 45.4165C16.9483 45.4159 16.9483 45.4152 16.9483 45.4146C16.9483 45.414 16.9483 45.4133 16.9483 45.4127C16.9483 45.4121 16.9483 45.4114 16.9483 45.4108C16.9483 45.4102 16.9483 45.4095 16.9483 45.4089C16.9483 45.4083 16.9483 45.4076 16.9483 45.407C16.9483 45.4064 16.9483 45.4057 16.9483 45.4051C16.9483 45.4045 16.9483 45.4038 16.9483 45.4032C16.9483 45.4026 16.9483 45.4019 16.9483 45.4013C16.9483 45.4007 16.9483 45.4001 16.9483 45.3994C16.9483 45.3988 16.9483 45.3982 16.9483 45.3975C16.9483 45.3969 16.9483 45.3963 16.9483 45.3957C16.9483 45.395 16.9483 45.3944 16.9483 45.3938C16.9483 45.3931 16.9483 45.3925 16.9483 45.3919C16.9483 45.3913 16.9483 45.3906 16.9483 45.39C16.9483 45.3894 16.9483 45.3888 16.9483 45.3881C16.9483 45.3875 16.9483 45.3869 16.9483 45.3863C16.9483 45.3856 16.9483 45.385 16.9483 45.3844C16.9483 45.3838 16.9483 45.3832 16.9483 45.3825C16.9483 45.3819 16.9483 45.3813 16.9483 45.3807C16.9483 45.38 16.9483 45.3794 16.9483 45.3788C16.9483 45.3782 16.9483 45.3776 16.9483 45.3769C16.9483 45.3763 16.9483 45.3757 16.9483 45.3751C16.9483 45.3745 16.9483 45.3738 16.9483 45.3732C16.9483 45.3726 16.9483 45.372 16.9483 45.3714C16.9483 45.3708 16.9483 45.3701 16.9483 45.3695C16.9483 45.3689 16.9483 45.3683 16.9483 45.3677C16.9483 45.3671 16.9483 45.3664 16.9483 45.3658C16.9483 45.3652 16.9483 45.3646 16.9483 45.364C16.9483 45.3634 16.9483 45.3628 16.9483 45.3621C16.9483 45.3615 16.9483 45.3609 16.9483 45.3603C16.9483 45.3597 16.9483 45.3591 16.9483 45.3585C16.9483 45.3579 16.9483 45.3573 16.9483 45.3566C16.9483 45.356 16.9483 45.3554 16.9483 45.3548C16.9483 45.3542 16.9483 45.3536 16.9483 45.353C16.9483 45.3524 16.9483 45.3518 16.9483 45.3512C16.9483 45.3506 16.9483 45.3499 16.9483 45.3493C16.9483 45.3487 16.9483 45.3481 16.9483 45.3475C16.9483 45.3469 16.9483 45.3463 16.9483 45.3457C16.9483 45.3451 16.9483 45.3445 16.9483 45.3439C16.9483 45.3433 16.9483 45.3427 16.9483 45.3421C16.9483 45.3415 16.9483 45.3409 16.9483 45.3403C16.9483 45.3397 16.9483 45.3391 16.9483 45.3384C16.9483 45.3378 16.9483 45.3372 16.9483 45.3366C16.9483 45.336 16.9483 45.3354 16.9483 45.3348C16.9483 45.3342 16.9483 45.3336 16.9483 45.333C16.9483 45.3324 16.9483 45.3318 16.9483 45.3312C16.9483 45.3306 16.9483 45.33 16.9483 45.3294C16.9483 45.3288 16.9483 45.3282 16.9483 45.3277C16.9483 45.3271 16.9483 45.3265 16.9483 45.3259C16.9483 45.3253 16.9483 45.3247 16.9483 45.3241C16.9483 45.3235 16.9483 45.3229 16.9483 45.3223C16.9483 45.3217 16.9483 45.3211 16.9483 45.3205C16.9483 45.3199 16.9483 45.3193 16.9483 45.3187C16.9483 45.3181 16.9483 45.3175 16.9483 45.3169C16.9483 45.3164 16.9483 45.3158 16.9483 45.3152C16.9483 45.3146 16.9483 45.314 16.9483 45.3134C16.9483 45.3128 16.9483 45.3122 16.9483 45.3116C16.9483 45.311 16.9483 45.3104 16.9483 45.3099C16.9483 45.3093 16.9483 45.3087 16.9483 45.3081C16.9483 45.3075 16.9483 45.3069 16.9483 45.3063C16.9483 45.3057 16.9483 45.3052 16.9483 45.3046C16.9483 45.304 16.9483 45.3034 16.9483 45.3028C16.9483 45.3022 16.9483 45.3016 16.9483 45.301C16.9483 45.3005 16.9483 45.2999 16.9483 45.2993C16.9483 45.2987 16.9483 45.2981 16.9483 45.2975C16.9483 45.297 16.9483 45.2964 16.9483 45.2958C16.9483 45.2952 16.9483 45.2946 16.9483 45.294C16.9483 45.2935 16.9483 45.2929 16.9483 45.2923C16.9483 45.2917 16.9483 45.2911 16.9483 45.2906C16.9483 45.29 16.9483 45.2894 16.9483 45.2888C16.9483 45.2882 16.9483 45.2877 16.9483 45.2871C16.9483 45.2865 16.9483 45.2859 16.9483 45.2854C16.9483 45.2848 16.9483 45.2842 16.9483 45.2836C16.9483 45.283 16.9483 45.2825 16.9483 45.2819C16.9483 45.2813 16.9483 45.2807 16.9483 45.2802C16.9483 45.2796 16.9483 45.279 16.9483 45.2784C16.9483 45.2779 16.9483 45.2773 16.9483 45.2767C16.9483 45.2761 16.9483 45.2756 16.9483 45.275C16.9483 45.2744 16.9483 45.2739 16.9483 45.2733C16.9483 45.2727 16.9483 45.2721 16.9483 45.2716C16.9483 45.271 16.9483 45.2704 16.9483 45.2699C16.9483 45.2693 16.9483 45.2687 16.9483 45.2681C16.9483 45.2676 16.9483 45.267 16.9483 45.2664C16.9483 45.2659 16.9483 45.2653 16.9483 45.2647C16.9483 45.2642 16.9483 45.2636 16.9483 45.263C16.9483 45.2625 16.9483 45.2619 16.9483 45.2613C16.9483 45.2608 16.9483 45.2602 16.9483 45.2596C16.9483 45.2591 16.9483 45.2585 16.9483 45.2579C16.9483 45.2574 16.9483 45.2568 16.9483 45.2563C16.9483 45.2557 16.9483 45.2551 16.9483 45.2546C16.9483 45.254 16.9483 45.2534 16.9483 45.2529C16.9483 45.2523 16.9483 45.2518 16.9483 45.2512C16.9483 45.2506 16.9483 45.2501 16.9483 45.2495C16.9483 45.2489 16.9483 45.2484 16.9483 45.2478C16.9483 45.2473 16.9483 45.2467 16.9483 45.2462C16.9483 45.2456 16.9483 45.245 16.9483 45.2445C16.9483 45.2439 16.9483 45.2434 16.9483 45.2428C16.9483 45.2422 16.9483 45.2417 16.9483 45.2411C16.9483 45.2406 16.9483 45.24 16.9483 45.2395C16.9483 45.2389 16.9483 45.2384 16.9483 45.2378C16.9483 45.2372 16.9483 45.2367 16.9483 45.2361C16.9483 45.2356 16.9483 45.235 16.9483 45.2345C16.9483 45.2339 16.9483 45.2334 16.9483 45.2328C16.9483 45.2323 16.9483 45.2317 16.9483 45.2312C16.9483 45.2306 16.9483 45.2301 16.9483 45.2295C16.9483 45.229 16.9483 45.2284 16.9483 45.2279C16.9483 45.2273 16.9483 45.2268 16.9483 45.2262C16.9483 45.2257 16.9483 45.2251 16.9483 45.2246C16.9483 45.224 16.9483 45.2235 16.9483 45.2229C16.9483 45.2224 16.9483 45.2218 16.9483 45.2213C16.9483 45.2207 16.9483 45.2202 16.9483 45.2197C16.9483 45.2191 16.9483 45.2186 16.9483 45.218C16.9483 45.2175 16.9483 45.2169 16.9483 45.2164C16.9483 45.2158 16.9483 45.2153 16.9483 45.2148C16.9483 45.2142 16.9483 45.2137 16.9483 45.2131C16.9483 45.2126 16.9483 45.212 16.9483 45.2115C16.9483 45.211 16.9483 45.2104 16.9483 45.2099C16.9483 45.2093 16.9483 45.2088 16.9483 45.2083C16.9483 45.2077 16.9483 45.2072 16.9483 45.2066C16.9483 45.2061 16.9483 45.2056 16.9483 45.205C16.9483 45.2045 16.9483 45.2039 16.9483 45.2034C16.9483 45.2029 16.9483 45.2023 16.9483 45.2018C16.9483 45.2013 16.9483 45.2007 16.9483 45.2002C16.9483 45.1997 16.9483 45.1991 16.9483 45.1986C16.9483 45.1981 16.9483 45.1975 16.9483 45.197C16.9483 45.1965 16.9483 45.1959 16.9483 45.1954C16.9483 45.1949 16.9483 45.1943 16.9483 45.1938C16.9483 45.1933 16.9483 45.1927 16.9483 45.1922C16.9483 45.1917 16.9483 45.1911 16.9483 45.1906C16.9483 45.1901 16.9483 45.1895 16.9483 45.189C16.9483 45.1885 16.9483 45.1879 16.9483 45.1874C16.9483 45.1869 16.9483 45.1864 16.9483 45.1858C16.9483 45.1853 16.9483 45.1848 16.9483 45.1842C16.9483 45.1837 16.9483 45.1832 16.9483 45.1827C16.9483 45.1821 16.9483 45.1816 16.9483 45.1811C16.9483 45.1806 16.9483 45.18 16.9483 45.1795C16.9483 45.179 16.9483 45.1785 16.9483 45.1779C16.9483 45.1774 16.9483 45.1769 16.9483 45.1764C16.9483 45.1758 16.9483 45.1753 16.9483 45.1748C16.9483 45.1743 16.9483 45.1738 16.9483 45.1732C16.9483 45.1727 16.9483 45.1722 16.9483 45.1717C16.9483 45.1712 16.9483 45.1706 16.9483 45.1701C16.9483 45.1696 16.9483 45.1691 16.9483 45.1686C16.9483 45.168 16.9483 45.1675 16.9483 45.167C16.9483 45.1665 16.9483 45.166 16.9483 45.1654C16.9483 45.1649 16.9483 45.1644 16.9483 45.1639C16.9483 45.1634 16.9483 45.1629 16.9483 45.1623C16.9483 45.1618 16.9483 45.1613 16.9483 45.1608C16.9483 45.1603 16.9483 45.1598 16.9483 45.1593C16.9483 45.1587 16.9483 45.1582 16.9483 45.1577C16.9483 45.1572 16.9483 45.1567 16.9483 45.1562C16.9483 45.1557 16.9483 45.1551 16.9483 45.1546C16.9483 45.1541 16.9483 45.1536 16.9483 45.1531C16.9483 45.1526 16.9483 45.1521 16.9483 45.1516C16.9483 45.1511 16.9483 45.1506 16.9483 45.15C16.9483 45.1495 16.9483 45.149 16.9483 45.1485C16.9483 45.148 16.9483 45.1475 16.9483 45.147C16.9483 45.1465 16.9483 45.146 16.9483 45.1455C16.9483 45.145 16.9483 45.1445 16.9483 45.144C16.9483 45.1434 16.9483 45.1429 16.9483 45.1424C16.9483 45.1419 16.9483 45.1414 16.9483 45.1409C16.9483 45.1404 16.9483 45.1399 16.9483 45.1394C16.9483 45.1389 16.9483 45.1384 16.9483 45.1379C16.9483 45.1374 16.9483 45.1369 16.9483 45.1364C16.9483 45.1359 16.9483 45.1354 16.9483 45.1349C16.9483 45.1344 16.9483 45.1339 16.9483 45.1334C16.9483 45.1329 16.9483 45.1324 16.9483 45.1319C16.9483 45.1314 16.9483 45.1309 16.9483 45.1304C16.9483 45.1299 16.9483 45.1294 16.9483 45.1289C16.9483 45.1284 16.9483 45.1279 16.9483 45.1274C16.9483 45.1269 16.9483 45.1264 16.9483 45.1259C16.9483 45.1254 16.9483 45.1249 16.9483 45.1244C16.9483 45.1239 16.9483 45.1234 16.9483 45.1229C16.9483 45.1225 16.9483 45.122 16.9483 45.1215C16.9483 45.121 16.9483 45.1205 16.9483 45.12C16.9483 45.1195 16.9483 45.119 16.9483 45.1185C16.9483 45.118 16.9483 45.1175 16.9483 45.117C16.9483 45.1165 16.9483 45.1161 16.9483 45.1156C16.9483 45.1151 16.9483 45.1146 16.9483 45.1141C16.9483 45.1136 16.9483 45.1131 16.9483 45.1126C16.9483 45.1121 16.9483 45.1116 16.9483 45.1112C16.9483 45.1107 16.9483 45.1102 16.9483 45.1097C16.9483 45.1092 16.9483 45.1087 16.9483 45.1082C16.9483 45.1078 16.9483 45.1073 16.9483 45.1068C16.9483 45.1063 16.9483 45.1058 16.9483 45.1053C16.9483 45.1048 16.9483 45.1044 16.9483 45.1039C16.9483 45.1034 16.9483 45.1029 16.9483 45.1024C16.9483 45.1019 16.9483 45.1015 16.9483 45.101C16.9483 45.1005 16.9483 45.1 16.9483 45.0995C16.9483 45.0991 16.9483 45.0986 16.9483 45.0981C16.9483 45.0976 16.9483 45.0971 16.9483 45.0966C16.9483 45.0962 16.9483 45.0957 16.9483 45.0952C16.9483 45.0947 16.9483 45.0943 16.9483 45.0938C16.9483 45.0933 16.9483 45.0928 16.9483 45.0923C16.9483 45.0919 16.9483 45.0914 16.9483 45.0909C16.9483 45.0904 16.9483 45.09 16.9483 45.0895C16.9483 45.089 16.9483 45.0885 16.9483 45.0881C16.9483 45.0876 16.9483 45.0871 16.9483 45.0866C16.9483 45.0862 16.9483 45.0857 16.9483 45.0852C16.9483 45.0847 16.9483 45.0843 16.9483 45.0838C16.9483 45.0833 16.9483 45.0829 16.9483 45.0824C16.9483 45.0819 16.9483 45.0814 16.9483 45.081C16.9483 45.0805 16.9483 45.08 16.9483 45.0796C16.9483 45.0791 16.9483 45.0786 16.9483 45.0782C16.9483 45.0777 16.9483 45.0772 16.9483 45.0768C16.9483 45.0763 16.9483 45.0758 16.9483 45.0753C16.9483 45.0749 16.9483 45.0744 16.9483 45.0739C16.9483 45.0735 16.9483 45.073 16.9483 45.0725C16.9483 45.0721 16.9483 45.0716 16.9483 45.0712C16.9483 45.0707 16.9483 45.0702 16.9483 45.0698C16.9483 45.0693 16.9483 45.0688 16.9483 45.0684C16.9483 45.0679 16.9483 45.0674 16.9483 45.067C16.9483 45.0665 16.9483 45.0661 16.9483 45.0656C16.9483 45.0651 16.9483 45.0647 16.9483 45.0642C16.9483 45.0638 16.9483 45.0633 16.9483 45.0628C16.9483 45.0624 16.9483 45.0619 16.9483 45.0615C16.9483 45.061 16.9483 45.0605 16.9483 45.0601C16.9483 45.0596 16.9483 45.0592 16.9483 45.0587C16.9483 45.0582 16.9483 45.0578 16.9483 45.0573C16.9483 45.0569 16.9483 45.0564 16.9483 45.056C16.9483 45.0555 16.9483 45.0551 16.9483 45.0546C16.9483 45.0541 16.9483 45.0537 16.9483 45.0532C16.9483 45.0528 16.9483 45.0523 16.9483 45.0519C16.9483 45.0514 16.9483 45.051 16.9483 45.0505C16.9483 45.0501 16.9483 45.0496 16.9483 45.0492C16.9483 45.0487 16.9483 45.0483 16.9483 45.0478C16.9483 45.0474 16.9483 45.0469 16.9483 45.0465C16.9483 45.046 16.9483 45.0456 16.9483 45.0451C16.9483 45.0447 16.9483 45.0442 16.9483 45.0438C16.9483 45.0433 16.9483 45.0429 16.9483 45.0424C16.9483 45.042 16.9483 45.0415 16.9483 45.0411C16.9483 45.0406 16.9483 45.0402 16.9483 45.0397C16.9483 45.0393 16.9483 45.0389 16.9483 45.0384C16.9483 45.038 16.9483 45.0375 16.9483 45.0371C16.9483 45.0366 16.9483 45.0362 16.9483 45.0357C16.9483 45.0353 16.9483 45.0349 16.9483 45.0344C16.9483 45.034 16.9483 45.0335 16.9483 45.0331C16.9483 45.0326 16.9483 45.0322 16.9483 45.0318C16.9483 45.0313 16.9483 45.0309 16.9483 45.0304C16.9483 45.03 16.9483 45.0296 16.9483 45.0291C16.9483 45.0287 16.9483 45.0282 16.9483 45.0278C16.9483 45.0274 16.9483 45.0269 16.9483 45.0265C16.9483 45.0261 16.9483 45.0256 16.9483 45.0252C16.9483 45.0247 16.9483 45.0243 16.9483 45.0239C16.9483 45.0234 16.9483 45.023 16.9483 45.0226C16.9483 45.0221 16.9483 45.0217 16.9483 45.0213C16.9483 45.0208 16.9483 45.0204 16.9483 45.02C16.9483 45.0195 16.9483 45.0191 16.9483 45.0187C16.9483 45.0182 16.9483 45.0178 16.9483 45.0174C16.9483 45.0169 16.9483 45.0165 16.9483 45.0161C16.9483 45.0156 16.9483 45.0152 16.9483 45.0148C16.9483 45.0143 16.9483 45.0139 16.9483 45.0135C16.9483 45.0131 16.9483 45.0126 16.9483 45.0122C16.9483 45.0118 16.9483 45.0113 16.9483 45.0109C16.9483 45.0105 16.9483 45.0101 16.9483 45.0096C16.9483 45.0092 16.9483 45.0088 16.9483 45.0084C16.9483 45.0079 16.9483 45.0075 16.9483 45.0071C16.9483 45.0067 16.9483 45.0062 16.9483 45.0058C16.9483 45.0054 16.9483 45.005 16.9483 45.0045C16.9483 45.0041 16.9483 45.0037 16.9483 45.0033C16.9483 45.0028 16.9483 45.0024 16.9483 45.002H0.948297C0.948297 45.0024 0.948297 45.0028 0.948297 45.0033C0.948297 45.0037 0.948297 45.0041 0.948297 45.0045C0.948297 45.005 0.948297 45.0054 0.948297 45.0058C0.948297 45.0062 0.948297 45.0067 0.948297 45.0071C0.948297 45.0075 0.948297 45.0079 0.948297 45.0084C0.948297 45.0088 0.948297 45.0092 0.948297 45.0096C0.948297 45.0101 0.948297 45.0105 0.948297 45.0109C0.948297 45.0113 0.948297 45.0118 0.948297 45.0122C0.948297 45.0126 0.948297 45.0131 0.948297 45.0135C0.948297 45.0139 0.948297 45.0143 0.948297 45.0148C0.948297 45.0152 0.948297 45.0156 0.948297 45.0161C0.948297 45.0165 0.948297 45.0169 0.948297 45.0174C0.948297 45.0178 0.948297 45.0182 0.948297 45.0187C0.948297 45.0191 0.948297 45.0195 0.948297 45.02C0.948297 45.0204 0.948297 45.0208 0.948297 45.0213C0.948297 45.0217 0.948297 45.0221 0.948297 45.0226C0.948297 45.023 0.948297 45.0234 0.948297 45.0239C0.948297 45.0243 0.948297 45.0247 0.948297 45.0252C0.948297 45.0256 0.948297 45.0261 0.948297 45.0265C0.948297 45.0269 0.948297 45.0274 0.948297 45.0278C0.948297 45.0282 0.948297 45.0287 0.948297 45.0291C0.948297 45.0296 0.948297 45.03 0.948297 45.0304C0.948297 45.0309 0.948297 45.0313 0.948297 45.0318C0.948297 45.0322 0.948297 45.0326 0.948297 45.0331C0.948297 45.0335 0.948297 45.034 0.948297 45.0344C0.948297 45.0349 0.948297 45.0353 0.948297 45.0357C0.948297 45.0362 0.948297 45.0366 0.948297 45.0371C0.948297 45.0375 0.948297 45.038 0.948297 45.0384C0.948297 45.0389 0.948297 45.0393 0.948297 45.0397C0.948297 45.0402 0.948297 45.0406 0.948297 45.0411C0.948297 45.0415 0.948297 45.042 0.948297 45.0424C0.948297 45.0429 0.948297 45.0433 0.948297 45.0438C0.948297 45.0442 0.948297 45.0447 0.948297 45.0451C0.948297 45.0456 0.948297 45.046 0.948297 45.0465C0.948297 45.0469 0.948297 45.0474 0.948297 45.0478C0.948297 45.0483 0.948297 45.0487 0.948297 45.0492C0.948297 45.0496 0.948297 45.0501 0.948297 45.0505C0.948297 45.051 0.948297 45.0514 0.948297 45.0519C0.948297 45.0523 0.948297 45.0528 0.948297 45.0532C0.948297 45.0537 0.948297 45.0541 0.948297 45.0546C0.948297 45.0551 0.948297 45.0555 0.948297 45.056C0.948297 45.0564 0.948297 45.0569 0.948297 45.0573C0.948297 45.0578 0.948297 45.0582 0.948297 45.0587C0.948297 45.0592 0.948297 45.0596 0.948297 45.0601C0.948297 45.0605 0.948297 45.061 0.948297 45.0615C0.948297 45.0619 0.948297 45.0624 0.948297 45.0628C0.948297 45.0633 0.948297 45.0638 0.948297 45.0642C0.948297 45.0647 0.948297 45.0651 0.948297 45.0656C0.948297 45.0661 0.948297 45.0665 0.948297 45.067C0.948297 45.0674 0.948297 45.0679 0.948297 45.0684C0.948297 45.0688 0.948297 45.0693 0.948297 45.0698C0.948297 45.0702 0.948297 45.0707 0.948297 45.0712C0.948297 45.0716 0.948297 45.0721 0.948297 45.0725C0.948297 45.073 0.948297 45.0735 0.948297 45.0739C0.948297 45.0744 0.948297 45.0749 0.948297 45.0753C0.948297 45.0758 0.948297 45.0763 0.948297 45.0768C0.948297 45.0772 0.948297 45.0777 0.948297 45.0782C0.948297 45.0786 0.948297 45.0791 0.948297 45.0796C0.948297 45.08 0.948297 45.0805 0.948297 45.081C0.948297 45.0814 0.948297 45.0819 0.948297 45.0824C0.948297 45.0829 0.948297 45.0833 0.948297 45.0838C0.948297 45.0843 0.948297 45.0847 0.948297 45.0852C0.948297 45.0857 0.948297 45.0862 0.948297 45.0866C0.948297 45.0871 0.948297 45.0876 0.948297 45.0881C0.948297 45.0885 0.948297 45.089 0.948297 45.0895C0.948297 45.09 0.948297 45.0904 0.948297 45.0909C0.948297 45.0914 0.948297 45.0919 0.948297 45.0923C0.948297 45.0928 0.948297 45.0933 0.948297 45.0938C0.948297 45.0943 0.948297 45.0947 0.948297 45.0952C0.948297 45.0957 0.948297 45.0962 0.948297 45.0966C0.948297 45.0971 0.948297 45.0976 0.948297 45.0981C0.948297 45.0986 0.948297 45.0991 0.948297 45.0995C0.948297 45.1 0.948297 45.1005 0.948297 45.101C0.948297 45.1015 0.948297 45.1019 0.948297 45.1024C0.948297 45.1029 0.948297 45.1034 0.948297 45.1039C0.948297 45.1044 0.948297 45.1048 0.948297 45.1053C0.948297 45.1058 0.948297 45.1063 0.948297 45.1068C0.948297 45.1073 0.948297 45.1078 0.948297 45.1082C0.948297 45.1087 0.948297 45.1092 0.948297 45.1097C0.948297 45.1102 0.948297 45.1107 0.948297 45.1112C0.948297 45.1116 0.948297 45.1121 0.948297 45.1126C0.948297 45.1131 0.948297 45.1136 0.948297 45.1141C0.948297 45.1146 0.948297 45.1151 0.948297 45.1156C0.948297 45.1161 0.948297 45.1165 0.948297 45.117C0.948297 45.1175 0.948297 45.118 0.948297 45.1185C0.948297 45.119 0.948297 45.1195 0.948297 45.12C0.948297 45.1205 0.948297 45.121 0.948297 45.1215C0.948297 45.122 0.948297 45.1225 0.948297 45.1229C0.948297 45.1234 0.948297 45.1239 0.948297 45.1244C0.948297 45.1249 0.948297 45.1254 0.948297 45.1259C0.948297 45.1264 0.948297 45.1269 0.948297 45.1274C0.948297 45.1279 0.948297 45.1284 0.948297 45.1289C0.948297 45.1294 0.948297 45.1299 0.948297 45.1304C0.948297 45.1309 0.948297 45.1314 0.948297 45.1319C0.948297 45.1324 0.948297 45.1329 0.948297 45.1334C0.948297 45.1339 0.948297 45.1344 0.948297 45.1349C0.948297 45.1354 0.948297 45.1359 0.948297 45.1364C0.948297 45.1369 0.948297 45.1374 0.948297 45.1379C0.948297 45.1384 0.948297 45.1389 0.948297 45.1394C0.948297 45.1399 0.948297 45.1404 0.948297 45.1409C0.948297 45.1414 0.948297 45.1419 0.948297 45.1424C0.948297 45.1429 0.948297 45.1434 0.948297 45.144C0.948297 45.1445 0.948297 45.145 0.948297 45.1455C0.948297 45.146 0.948297 45.1465 0.948297 45.147C0.948297 45.1475 0.948297 45.148 0.948297 45.1485C0.948297 45.149 0.948297 45.1495 0.948297 45.15C0.948297 45.1506 0.948297 45.1511 0.948297 45.1516C0.948297 45.1521 0.948297 45.1526 0.948297 45.1531C0.948297 45.1536 0.948297 45.1541 0.948297 45.1546C0.948297 45.1551 0.948297 45.1557 0.948297 45.1562C0.948297 45.1567 0.948297 45.1572 0.948297 45.1577C0.948297 45.1582 0.948297 45.1587 0.948297 45.1593C0.948297 45.1598 0.948297 45.1603 0.948297 45.1608C0.948297 45.1613 0.948297 45.1618 0.948297 45.1623C0.948297 45.1629 0.948297 45.1634 0.948297 45.1639C0.948297 45.1644 0.948297 45.1649 0.948297 45.1654C0.948297 45.166 0.948297 45.1665 0.948297 45.167C0.948297 45.1675 0.948297 45.168 0.948297 45.1686C0.948297 45.1691 0.948297 45.1696 0.948297 45.1701C0.948297 45.1706 0.948297 45.1712 0.948297 45.1717C0.948297 45.1722 0.948297 45.1727 0.948297 45.1732C0.948297 45.1738 0.948297 45.1743 0.948297 45.1748C0.948297 45.1753 0.948297 45.1758 0.948297 45.1764C0.948297 45.1769 0.948297 45.1774 0.948297 45.1779C0.948297 45.1785 0.948297 45.179 0.948297 45.1795C0.948297 45.18 0.948297 45.1806 0.948297 45.1811C0.948297 45.1816 0.948297 45.1821 0.948297 45.1827C0.948297 45.1832 0.948297 45.1837 0.948297 45.1842C0.948297 45.1848 0.948297 45.1853 0.948297 45.1858C0.948297 45.1864 0.948297 45.1869 0.948297 45.1874C0.948297 45.1879 0.948297 45.1885 0.948297 45.189C0.948297 45.1895 0.948297 45.1901 0.948297 45.1906C0.948297 45.1911 0.948297 45.1917 0.948297 45.1922C0.948297 45.1927 0.948297 45.1933 0.948297 45.1938C0.948297 45.1943 0.948297 45.1949 0.948297 45.1954C0.948297 45.1959 0.948297 45.1965 0.948297 45.197C0.948297 45.1975 0.948297 45.1981 0.948297 45.1986C0.948297 45.1991 0.948297 45.1997 0.948297 45.2002C0.948297 45.2007 0.948297 45.2013 0.948297 45.2018C0.948297 45.2023 0.948297 45.2029 0.948297 45.2034C0.948297 45.2039 0.948297 45.2045 0.948297 45.205C0.948297 45.2056 0.948297 45.2061 0.948297 45.2066C0.948297 45.2072 0.948297 45.2077 0.948297 45.2083C0.948297 45.2088 0.948297 45.2093 0.948297 45.2099C0.948297 45.2104 0.948297 45.211 0.948297 45.2115C0.948297 45.212 0.948297 45.2126 0.948297 45.2131C0.948297 45.2137 0.948297 45.2142 0.948297 45.2148C0.948297 45.2153 0.948297 45.2158 0.948297 45.2164C0.948297 45.2169 0.948297 45.2175 0.948297 45.218C0.948297 45.2186 0.948297 45.2191 0.948297 45.2197C0.948297 45.2202 0.948297 45.2207 0.948297 45.2213C0.948297 45.2218 0.948297 45.2224 0.948297 45.2229C0.948297 45.2235 0.948297 45.224 0.948297 45.2246C0.948297 45.2251 0.948297 45.2257 0.948297 45.2262C0.948297 45.2268 0.948297 45.2273 0.948297 45.2279C0.948297 45.2284 0.948297 45.229 0.948297 45.2295C0.948297 45.2301 0.948297 45.2306 0.948297 45.2312C0.948297 45.2317 0.948297 45.2323 0.948297 45.2328C0.948297 45.2334 0.948297 45.2339 0.948297 45.2345C0.948297 45.235 0.948297 45.2356 0.948297 45.2361C0.948297 45.2367 0.948297 45.2372 0.948297 45.2378C0.948297 45.2384 0.948297 45.2389 0.948297 45.2395C0.948297 45.24 0.948297 45.2406 0.948297 45.2411C0.948297 45.2417 0.948297 45.2422 0.948297 45.2428C0.948297 45.2434 0.948297 45.2439 0.948297 45.2445C0.948297 45.245 0.948297 45.2456 0.948297 45.2462C0.948297 45.2467 0.948297 45.2473 0.948297 45.2478C0.948297 45.2484 0.948297 45.2489 0.948297 45.2495C0.948297 45.2501 0.948297 45.2506 0.948297 45.2512C0.948297 45.2518 0.948297 45.2523 0.948297 45.2529C0.948297 45.2534 0.948297 45.254 0.948297 45.2546C0.948297 45.2551 0.948297 45.2557 0.948297 45.2563C0.948297 45.2568 0.948297 45.2574 0.948297 45.2579C0.948297 45.2585 0.948297 45.2591 0.948297 45.2596C0.948297 45.2602 0.948297 45.2608 0.948297 45.2613C0.948297 45.2619 0.948297 45.2625 0.948297 45.263C0.948297 45.2636 0.948297 45.2642 0.948297 45.2647C0.948297 45.2653 0.948297 45.2659 0.948297 45.2664C0.948297 45.267 0.948297 45.2676 0.948297 45.2681C0.948297 45.2687 0.948297 45.2693 0.948297 45.2699C0.948297 45.2704 0.948297 45.271 0.948297 45.2716C0.948297 45.2721 0.948297 45.2727 0.948297 45.2733C0.948297 45.2739 0.948297 45.2744 0.948297 45.275C0.948297 45.2756 0.948297 45.2761 0.948297 45.2767C0.948297 45.2773 0.948297 45.2779 0.948297 45.2784C0.948297 45.279 0.948297 45.2796 0.948297 45.2802C0.948297 45.2807 0.948297 45.2813 0.948297 45.2819C0.948297 45.2825 0.948297 45.283 0.948297 45.2836C0.948297 45.2842 0.948297 45.2848 0.948297 45.2854C0.948297 45.2859 0.948297 45.2865 0.948297 45.2871C0.948297 45.2877 0.948297 45.2882 0.948297 45.2888C0.948297 45.2894 0.948297 45.29 0.948297 45.2906C0.948297 45.2911 0.948297 45.2917 0.948297 45.2923C0.948297 45.2929 0.948297 45.2935 0.948297 45.294C0.948297 45.2946 0.948297 45.2952 0.948297 45.2958C0.948297 45.2964 0.948297 45.297 0.948297 45.2975C0.948297 45.2981 0.948297 45.2987 0.948297 45.2993C0.948297 45.2999 0.948297 45.3005 0.948297 45.301C0.948297 45.3016 0.948297 45.3022 0.948297 45.3028C0.948297 45.3034 0.948297 45.304 0.948297 45.3046C0.948297 45.3052 0.948297 45.3057 0.948297 45.3063C0.948297 45.3069 0.948297 45.3075 0.948297 45.3081C0.948297 45.3087 0.948297 45.3093 0.948297 45.3099C0.948297 45.3104 0.948297 45.311 0.948297 45.3116C0.948297 45.3122 0.948297 45.3128 0.948297 45.3134C0.948297 45.314 0.948297 45.3146 0.948297 45.3152C0.948297 45.3158 0.948297 45.3164 0.948297 45.3169C0.948297 45.3175 0.948297 45.3181 0.948297 45.3187C0.948297 45.3193 0.948297 45.3199 0.948297 45.3205C0.948297 45.3211 0.948297 45.3217 0.948297 45.3223C0.948297 45.3229 0.948297 45.3235 0.948297 45.3241C0.948297 45.3247 0.948297 45.3253 0.948297 45.3259C0.948297 45.3265 0.948297 45.3271 0.948297 45.3277C0.948297 45.3282 0.948297 45.3288 0.948297 45.3294C0.948297 45.33 0.948297 45.3306 0.948297 45.3312C0.948297 45.3318 0.948297 45.3324 0.948297 45.333C0.948297 45.3336 0.948297 45.3342 0.948297 45.3348C0.948297 45.3354 0.948297 45.336 0.948297 45.3366C0.948297 45.3372 0.948297 45.3378 0.948297 45.3384C0.948297 45.3391 0.948297 45.3397 0.948297 45.3403C0.948297 45.3409 0.948297 45.3415 0.948297 45.3421C0.948297 45.3427 0.948297 45.3433 0.948297 45.3439C0.948297 45.3445 0.948297 45.3451 0.948297 45.3457C0.948297 45.3463 0.948297 45.3469 0.948297 45.3475C0.948297 45.3481 0.948297 45.3487 0.948297 45.3493C0.948297 45.3499 0.948297 45.3506 0.948297 45.3512C0.948297 45.3518 0.948297 45.3524 0.948297 45.353C0.948297 45.3536 0.948297 45.3542 0.948297 45.3548C0.948297 45.3554 0.948297 45.356 0.948297 45.3566C0.948297 45.3573 0.948297 45.3579 0.948297 45.3585C0.948297 45.3591 0.948297 45.3597 0.948297 45.3603C0.948297 45.3609 0.948297 45.3615 0.948297 45.3621C0.948297 45.3628 0.948297 45.3634 0.948297 45.364C0.948297 45.3646 0.948297 45.3652 0.948297 45.3658C0.948297 45.3664 0.948297 45.3671 0.948297 45.3677C0.948297 45.3683 0.948297 45.3689 0.948297 45.3695C0.948297 45.3701 0.948297 45.3708 0.948297 45.3714C0.948297 45.372 0.948297 45.3726 0.948297 45.3732C0.948297 45.3738 0.948297 45.3745 0.948297 45.3751C0.948297 45.3757 0.948297 45.3763 0.948297 45.3769C0.948297 45.3776 0.948297 45.3782 0.948297 45.3788C0.948297 45.3794 0.948297 45.38 0.948297 45.3807C0.948297 45.3813 0.948297 45.3819 0.948297 45.3825C0.948297 45.3832 0.948297 45.3838 0.948297 45.3844C0.948297 45.385 0.948297 45.3856 0.948297 45.3863C0.948297 45.3869 0.948297 45.3875 0.948297 45.3881C0.948297 45.3888 0.948297 45.3894 0.948297 45.39C0.948297 45.3906 0.948297 45.3913 0.948297 45.3919C0.948297 45.3925 0.948297 45.3931 0.948297 45.3938C0.948297 45.3944 0.948297 45.395 0.948297 45.3957C0.948297 45.3963 0.948297 45.3969 0.948297 45.3975C0.948297 45.3982 0.948297 45.3988 0.948297 45.3994C0.948297 45.4001 0.948297 45.4007 0.948297 45.4013C0.948297 45.4019 0.948297 45.4026 0.948297 45.4032C0.948297 45.4038 0.948297 45.4045 0.948297 45.4051C0.948297 45.4057 0.948297 45.4064 0.948297 45.407C0.948297 45.4076 0.948297 45.4083 0.948297 45.4089C0.948297 45.4095 0.948297 45.4102 0.948297 45.4108C0.948297 45.4114 0.948297 45.4121 0.948297 45.4127C0.948297 45.4133 0.948297 45.414 0.948297 45.4146C0.948297 45.4152 0.948297 45.4159 0.948297 45.4165C0.948297 45.4172 0.948297 45.4178 0.948297 45.4184C0.948297 45.4191 0.948297 45.4197 0.948297 45.4203C0.948297 45.421 0.948297 45.4216 0.948297 45.4223C0.948297 45.4229 0.948297 45.4235 0.948297 45.4242C0.948297 45.4248 0.948297 45.4255 0.948297 45.4261C0.948297 45.4267 0.948297 45.4274 0.948297 45.428C0.948297 45.4287 0.948297 45.4293 0.948297 45.43C0.948297 45.4306 0.948297 45.4312 0.948297 45.4319C0.948297 45.4325 0.948297 45.4332 0.948297 45.4338C0.948297 45.4345 0.948297 45.4351 0.948297 45.4358C0.948297 45.4364 0.948297 45.437 0.948297 45.4377C0.948297 45.4383 0.948297 45.439 0.948297 45.4396C0.948297 45.4403 0.948297 45.4409 0.948297 45.4416C0.948297 45.4422 0.948297 45.4429 0.948297 45.4435C0.948297 45.4442 0.948297 45.4448 0.948297 45.4455C0.948297 45.4461 0.948297 45.4468 0.948297 45.4474C0.948297 45.4481 0.948297 45.4487 0.948297 45.4494C0.948297 45.45 0.948297 45.4507 0.948297 45.4513C0.948297 45.452 0.948297 45.4526 0.948297 45.4533C0.948297 45.4539 0.948297 45.4546 0.948297 45.4552C0.948297 45.4559 0.948297 45.4565 0.948297 45.4572C0.948297 45.4578 0.948297 45.4585 0.948297 45.4592C0.948297 45.4598 0.948297 45.4605 0.948297 45.4611C0.948297 45.4618 0.948297 45.4624 0.948297 45.4631C0.948297 45.4638 0.948297 45.4644 0.948297 45.4651C0.948297 45.4657 0.948297 45.4664 0.948297 45.467C0.948297 45.4677 0.948297 45.4684 0.948297 45.469C0.948297 45.4697 0.948297 45.4703 0.948297 45.471C0.948297 45.4717 0.948297 45.4723 0.948297 45.473C0.948297 45.4736 0.948297 45.4743 0.948297 45.475C0.948297 45.4756 0.948297 45.4763 0.948297 45.4769C0.948297 45.4776 0.948297 45.4783 0.948297 45.4789C0.948297 45.4796 0.948297 45.4803 0.948297 45.4809C0.948297 45.4816 0.948297 45.4823 0.948297 45.4829C0.948297 45.4836 0.948297 45.4842 0.948297 45.4849C0.948297 45.4856 0.948297 45.4862 0.948297 45.4869C0.948297 45.4876 0.948297 45.4882 0.948297 45.4889C0.948297 45.4896 0.948297 45.4902 0.948297 45.4909C0.948297 45.4916 0.948297 45.4923 0.948297 45.4929C0.948297 45.4936 0.948297 45.4943 0.948297 45.4949C0.948297 45.4956 0.948297 45.4963 0.948297 45.4969C0.948297 45.4976 0.948297 45.4983 0.948297 45.499C0.948297 45.4996 0.948297 45.5003 0.948297 45.501C0.948297 45.5016 0.948297 45.5023 0.948297 45.503C0.948297 45.5037 0.948297 45.5043 0.948297 45.505C0.948297 45.5057 0.948297 45.5064 0.948297 45.507C0.948297 45.5077 0.948297 45.5084 0.948297 45.5091C0.948297 45.5097 0.948297 45.5104 0.948297 45.5111C0.948297 45.5118 0.948297 45.5124 0.948297 45.5131C0.948297 45.5138 0.948297 45.5145 0.948297 45.5152C0.948297 45.5158 0.948297 45.5165 0.948297 45.5172C0.948297 45.5179 0.948297 45.5185 0.948297 45.5192C0.948297 45.5199 0.948297 45.5206 0.948297 45.5213C0.948297 45.5219 0.948297 45.5226 0.948297 45.5233C0.948297 45.524 0.948297 45.5247 0.948297 45.5254C0.948297 45.526 0.948297 45.5267 0.948297 45.5274C0.948297 45.5281 0.948297 45.5288 0.948297 45.5295C0.948297 45.5301 0.948297 45.5308 0.948297 45.5315C0.948297 45.5322 0.948297 45.5329 0.948297 45.5336C0.948297 45.5342 0.948297 45.5349 0.948297 45.5356C0.948297 45.5363 0.948297 45.537 0.948297 45.5377C0.948297 45.5384 0.948297 45.5391 0.948297 45.5397C0.948297 45.5404 0.948297 45.5411 0.948297 45.5418C0.948297 45.5425 0.948297 45.5432 0.948297 45.5439C0.948297 45.5446 0.948297 45.5453 0.948297 45.5459C0.948297 45.5466 0.948297 45.5473 0.948297 45.548C0.948297 45.5487 0.948297 45.5494 0.948297 45.5501C0.948297 45.5508 0.948297 45.5515 0.948297 45.5522C0.948297 45.5529 0.948297 45.5536 0.948297 45.5543C0.948297 45.5549 0.948297 45.5556 0.948297 45.5563C0.948297 45.557 0.948297 45.5577 0.948297 45.5584C0.948297 45.5591 0.948297 45.5598 0.948297 45.5605C0.948297 45.5612 0.948297 45.5619 0.948297 45.5626C0.948297 45.5633 0.948297 45.564 0.948297 45.5647C0.948297 45.5654 0.948297 45.5661 0.948297 45.5668C0.948297 45.5675 0.948297 45.5682 0.948297 45.5689C0.948297 45.5696 0.948297 45.5703 0.948297 45.571C0.948297 45.5717 0.948297 45.5724 0.948297 45.5731C0.948297 45.5738 0.948297 45.5745 0.948297 45.5752C0.948297 45.5759 0.948297 45.5766 0.948297 45.5773C0.948297 45.578 0.948297 45.5787 0.948297 45.5794C0.948297 45.5801 0.948297 45.5808 0.948297 45.5815C0.948297 45.5822 0.948297 45.5829 0.948297 45.5836C0.948297 45.5843 0.948297 45.585 0.948297 45.5858C0.948297 45.5865 0.948297 45.5872 0.948297 45.5879C0.948297 45.5886 0.948297 45.5893 0.948297 45.59C0.948297 45.5907 0.948297 45.5914 0.948297 45.5921C0.948297 45.5928 0.948297 45.5935 0.948297 45.5942C0.948297 45.595 0.948297 45.5957 0.948297 45.5964C0.948297 45.5971 0.948297 45.5978 0.948297 45.5985C0.948297 45.5992 0.948297 45.5999 0.948297 45.6006C0.948297 45.6014 0.948297 45.6021 0.948297 45.6028C0.948297 45.6035 0.948297 45.6042 0.948297 45.6049C0.948297 45.6056 0.948297 45.6063 0.948297 45.6071C0.948297 45.6078 0.948297 45.6085 0.948297 45.6092C0.948297 45.6099 0.948297 45.6106 0.948297 45.6114C0.948297 45.6121 0.948297 45.6128 0.948297 45.6135C0.948297 45.6142 0.948297 45.6149 0.948297 45.6157C0.948297 45.6164 0.948297 45.6171 0.948297 45.6178C0.948297 45.6185 0.948297 45.6192 0.948297 45.62C0.948297 45.6207 0.948297 45.6214 0.948297 45.6221C0.948297 45.6228 0.948297 45.6236 0.948297 45.6243C0.948297 45.625 0.948297 45.6257 0.948297 45.6264C0.948297 45.6272 0.948297 45.6279 0.948297 45.6286C0.948297 45.6293 0.948297 45.6301 0.948297 45.6308C0.948297 45.6315 0.948297 45.6322 0.948297 45.633C0.948297 45.6337 0.948297 45.6344 0.948297 45.6351C0.948297 45.6359 0.948297 45.6366 0.948297 45.6373C0.948297 45.638 0.948297 45.6388 0.948297 45.6395C0.948297 45.6402 0.948297 45.6409 0.948297 45.6417C0.948297 45.6424 0.948297 45.6431 0.948297 45.6438C0.948297 45.6446 0.948297 45.6453 0.948297 45.646C0.948297 45.6468 0.948297 45.6475 0.948297 45.6482C0.948297 45.649 0.948297 45.6497 0.948297 45.6504C0.948297 45.6511 0.948297 45.6519 0.948297 45.6526C0.948297 45.6533 0.948297 45.6541 0.948297 45.6548C0.948297 45.6555 0.948297 45.6563 0.948297 45.657C0.948297 45.6577 0.948297 45.6585 0.948297 45.6592C0.948297 45.6599 0.948297 45.6607 0.948297 45.6614C0.948297 45.6621 0.948297 45.6629 0.948297 45.6636C0.948297 45.6644 0.948297 45.6651 0.948297 45.6658C0.948297 45.6666 0.948297 45.6673 0.948297 45.668C0.948297 45.6688 0.948297 45.6695 0.948297 45.6702C0.948297 45.671 0.948297 45.6717 0.948297 45.6725C0.948297 45.6732 0.948297 45.6739 0.948297 45.6747C0.948297 45.6754 0.948297 45.6762 0.948297 45.6769C0.948297 45.6776 0.948297 45.6784 0.948297 45.6791C0.948297 45.6799 0.948297 45.6806 0.948297 45.6814C0.948297 45.6821 0.948297 45.6828 0.948297 45.6836C0.948297 45.6843 0.948297 45.6851 0.948297 45.6858C0.948297 45.6866 0.948297 45.6873 0.948297 45.688C0.948297 45.6888 0.948297 45.6895 0.948297 45.6903C0.948297 45.691 0.948297 45.6918 0.948297 45.6925C0.948297 45.6933 0.948297 45.694 0.948297 45.6948C0.948297 45.6955 0.948297 45.6963 0.948297 45.697C0.948297 45.6978 0.948297 45.6985 0.948297 45.6993C0.948297 45.7 0.948297 45.7008 0.948297 45.7015C0.948297 45.7022 0.948297 45.703 0.948297 45.7038C0.948297 45.7045 0.948297 45.7053 0.948297 45.706C0.948297 45.7068 0.948297 45.7075 0.948297 45.7083C0.948297 45.709 0.948297 45.7098 0.948297 45.7105C0.948297 45.7113 0.948297 45.712 0.948297 45.7128C0.948297 45.7135 0.948297 45.7143 0.948297 45.715C0.948297 45.7158 0.948297 45.7166 0.948297 45.7173C0.948297 45.7181 0.948297 45.7188 0.948297 45.7196C0.948297 45.7203 0.948297 45.7211 0.948297 45.7218C0.948297 45.7226 0.948297 45.7234 0.948297 45.7241C0.948297 45.7249 0.948297 45.7256 0.948297 45.7264C0.948297 45.7272 0.948297 45.7279 0.948297 45.7287C0.948297 45.7294 0.948297 45.7302 0.948297 45.731C0.948297 45.7317 0.948297 45.7325 0.948297 45.7332C0.948297 45.734 0.948297 45.7348 0.948297 45.7355C0.948297 45.7363 0.948297 45.737 0.948297 45.7378C0.948297 45.7386 0.948297 45.7393 0.948297 45.7401C0.948297 45.7409 0.948297 45.7416 0.948297 45.7424C0.948297 45.7432 0.948297 45.7439 0.948297 45.7447C0.948297 45.7455 0.948297 45.7462 0.948297 45.747C0.948297 45.7477 0.948297 45.7485 0.948297 45.7493C0.948297 45.7501 0.948297 45.7508 0.948297 45.7516C0.948297 45.7524 0.948297 45.7531 0.948297 45.7539C0.948297 45.7547 0.948297 45.7554 0.948297 45.7562C0.948297 45.757 0.948297 45.7577 0.948297 45.7585C0.948297 45.7593 0.948297 45.76 0.948297 45.7608C0.948297 45.7616 0.948297 45.7624 0.948297 45.7631C0.948297 45.7639 0.948297 45.7647 0.948297 45.7655C0.948297 45.7662 0.948297 45.767 0.948297 45.7678C0.948297 45.7685 0.948297 45.7693 0.948297 45.7701C0.948297 45.7709 0.948297 45.7716 0.948297 45.7724C0.948297 45.7732 0.948297 45.774 0.948297 45.7747C0.948297 45.7755 0.948297 45.7763 0.948297 45.7771C0.948297 45.7779 0.948297 45.7786 0.948297 45.7794C0.948297 45.7802 0.948297 45.781 0.948297 45.7817C0.948297 45.7825 0.948297 45.7833 0.948297 45.7841C0.948297 45.7849 0.948297 45.7856 0.948297 45.7864C0.948297 45.7872 0.948297 45.788 0.948297 45.7888C0.948297 45.7895 0.948297 45.7903 0.948297 45.7911C0.948297 45.7919 0.948297 45.7927 0.948297 45.7935C0.948297 45.7942 0.948297 45.795 0.948297 45.7958C0.948297 45.7966 0.948297 45.7974 0.948297 45.7982C0.948297 45.7989 0.948297 45.7997 0.948297 45.8005C0.948297 45.8013 0.948297 45.8021 0.948297 45.8029C0.948297 45.8037 0.948297 45.8044 0.948297 45.8052C0.948297 45.806 0.948297 45.8068 0.948297 45.8076C0.948297 45.8084 0.948297 45.8092 0.948297 45.81C0.948297 45.8107 0.948297 45.8115 0.948297 45.8123C0.948297 45.8131 0.948297 45.8139 0.948297 45.8147C0.948297 45.8155 0.948297 45.8163 0.948297 45.8171C0.948297 45.8179 0.948297 45.8186 0.948297 45.8194C0.948297 45.8202 0.948297 45.821 0.948297 45.8218C0.948297 45.8226 0.948297 45.8234 0.948297 45.8242C0.948297 45.825 0.948297 45.8258 0.948297 45.8266C0.948297 45.8274 0.948297 45.8282 0.948297 45.829C0.948297 45.8298 0.948297 45.8305 0.948297 45.8313C0.948297 45.8321 0.948297 45.8329 0.948297 45.8337C0.948297 45.8345 0.948297 45.8353 0.948297 45.8361C0.948297 45.8369 0.948297 45.8377 0.948297 45.8385C0.948297 45.8393 0.948297 45.8401 0.948297 45.8409C0.948297 45.8417 0.948297 45.8425 0.948297 45.8433C0.948297 45.8441 0.948297 45.8449 0.948297 45.8457C0.948297 45.8465 0.948297 45.8473 0.948297 45.8481C0.948297 45.8489 0.948297 45.8497 0.948297 45.8505C0.948297 45.8513 0.948297 45.8521 0.948297 45.8529C0.948297 45.8537 0.948297 45.8545 0.948297 45.8553C0.948297 45.8562 0.948297 45.857 0.948297 45.8578C0.948297 45.8586 0.948297 45.8594 0.948297 45.8602C0.948297 45.861 0.948297 45.8618 0.948297 45.8626C0.948297 45.8634 0.948297 45.8642 0.948297 45.865C0.948297 45.8658 0.948297 45.8666 0.948297 45.8674C0.948297 45.8682 0.948297 45.8691 0.948297 45.8699C0.948297 45.8707 0.948297 45.8715 0.948297 45.8723C0.948297 45.8731 0.948297 45.8739 0.948297 45.8747C0.948297 45.8755 0.948297 45.8763 0.948297 45.8772C0.948297 45.878 0.948297 45.8788 0.948297 45.8796C0.948297 45.8804 0.948297 45.8812 0.948297 45.882C0.948297 45.8828 0.948297 45.8837 0.948297 45.8845C0.948297 45.8853 0.948297 45.8861 0.948297 45.8869C0.948297 45.8877 0.948297 45.8886 0.948297 45.8894C0.948297 45.8902 0.948297 45.891 0.948297 45.8918C0.948297 45.8926 0.948297 45.8934 0.948297 45.8943C0.948297 45.8951 0.948297 45.8959 0.948297 45.8967C0.948297 45.8975 0.948297 45.8984 0.948297 45.8992C0.948297 45.9 0.948297 45.9008 0.948297 45.9016C0.948297 45.9025 0.948297 45.9033 0.948297 45.9041C0.948297 45.9049 0.948297 45.9057 0.948297 45.9066C0.948297 45.9074 0.948297 45.9082 0.948297 45.909C0.948297 45.9098 0.948297 45.9107 0.948297 45.9115C0.948297 45.9123 0.948297 45.9131 0.948297 45.914C0.948297 45.9148 0.948297 45.9156 0.948297 45.9164C0.948297 45.9173 0.948297 45.9181 0.948297 45.9189C0.948297 45.9197 0.948297 45.9206 0.948297 45.9214C0.948297 45.9222 0.948297 45.923 0.948297 45.9239C0.948297 45.9247 0.948297 45.9255 0.948297 45.9264C0.948297 45.9272 0.948297 45.928 0.948297 45.9288C0.948297 45.9297 0.948297 45.9305 0.948297 45.9313C0.948297 45.9322 0.948297 45.933 0.948297 45.9338C0.948297 45.9346 0.948297 45.9355 0.948297 45.9363C0.948297 45.9371 0.948297 45.938 0.948297 45.9388C0.948297 45.9396 0.948297 45.9405 0.948297 45.9413C0.948297 45.9421 0.948297 45.943 0.948297 45.9438C0.948297 45.9446 0.948297 45.9455 0.948297 45.9463C0.948297 45.9471 0.948297 45.948 0.948297 45.9488C0.948297 45.9496 0.948297 45.9505 0.948297 45.9513C0.948297 45.9522 0.948297 45.953 0.948297 45.9538C0.948297 45.9547 0.948297 45.9555 0.948297 45.9563C0.948297 45.9572 0.948297 45.958 0.948297 45.9589C0.948297 45.9597 0.948297 45.9605 0.948297 45.9614C0.948297 45.9622 0.948297 45.9631 0.948297 45.9639C0.948297 45.9647 0.948297 45.9656 0.948297 45.9664C0.948297 45.9673 0.948297 45.9681 0.948297 45.9689C0.948297 45.9698 0.948297 45.9706 0.948297 45.9715C0.948297 45.9723 0.948297 45.9732 0.948297 45.974H16.9483ZM16.9483 45.002C16.9483 44.1156 17.0848 43.4968 17.2489 43.059L2.26766 37.441C1.35183 39.8832 0.948297 42.4324 0.948297 45.002H16.9483ZM17.2109 43.1583C17.5516 42.2852 17.9762 41.5042 18.4822 40.7959L5.46243 31.4961C4.16836 33.3078 3.11695 35.2628 2.30568 37.3417L17.2109 43.1583ZM18.4822 40.7959C19.1212 39.9013 19.8427 39.0493 20.6532 38.2389L9.33944 26.9251C7.91787 28.3467 6.62344 29.8707 5.46243 31.4961L18.4822 40.7959ZM20.6532 38.2389C21.7387 37.1533 22.8236 36.0859 23.9077 35.0368L12.7809 23.5392C11.633 24.6501 10.4859 25.7787 9.33944 26.9251L20.6532 38.2389ZM23.8795 35.0639C24.7817 34.1993 25.6504 33.3496 26.4852 32.5149L15.1714 21.2011C14.4222 21.9504 13.6349 22.7207 12.8091 23.5121L23.8795 35.0639ZM26.4852 32.5149C27.4872 31.5128 28.4163 30.4703 29.2438 29.3843L16.5168 19.6877C16.1922 20.1137 15.7534 20.6192 15.1714 21.2011L26.4852 32.5149ZM29.2106 29.4276C30.1448 28.2185 30.9709 26.9011 31.6212 25.4704L17.0554 18.8496C16.9857 19.0029 16.8398 19.2695 16.55 19.6444L29.2106 29.4276ZM31.6749 25.3498C32.4524 23.5615 32.8783 21.6328 32.8783 19.622H16.8783C16.8783 19.4938 16.8921 19.3633 16.9184 19.2396C16.9446 19.1169 16.9777 19.0255 17.0017 18.9702L31.6749 25.3498ZM32.8783 19.622C32.8783 16.2863 31.8651 12.0171 27.9892 9.17476L18.5274 22.0772C17.7828 21.5312 17.3044 20.829 17.0594 20.2246C16.8446 19.6949 16.8783 19.4197 16.8783 19.622H32.8783ZM27.9892 9.17476C25.3307 7.22517 22.2907 6.438 19.3163 6.438V22.438C19.4068 22.438 19.3349 22.4491 19.1544 22.3947C18.9629 22.337 18.7385 22.2321 18.5274 22.0772L27.9892 9.17476ZM19.3163 6.438C17.5396 6.438 15.7404 6.69322 13.9785 7.28053L19.0381 22.4595C19.0042 22.4708 19.077 22.438 19.3163 22.438V6.438ZM13.9785 7.28053C12.6763 7.7146 11.3955 8.26771 10.178 8.97258L18.1946 22.8194C18.3451 22.7323 18.6123 22.6014 19.0381 22.4595L13.9785 7.28053ZM10.0147 9.06975C9.05311 9.65738 8.12256 10.3177 7.25197 11.0639L17.6646 23.2121C17.802 23.0943 18.0235 22.9266 18.3579 22.7222L10.0147 9.06975ZM7.51573 10.8474C6.92499 11.3116 6.2552 11.8654 5.66743 12.4532L16.9812 23.7668C16.9183 23.8297 16.9138 23.8286 17.0031 23.752C17.0854 23.6815 17.2144 23.575 17.4009 23.4285L7.51573 10.8474ZM17.86 13.4965L14.62 8.90653L1.54855 18.1335L4.78855 22.7235L17.86 13.4965ZM13.6015 19.3131C14.3897 18.5625 15.3422 17.9252 16.5277 17.4172L10.2249 2.71084C7.37841 3.93078 4.80288 5.59753 2.56705 7.7269L13.6015 19.3131ZM16.5896 17.3903C17.5837 16.9543 18.6804 16.714 19.9643 16.714V0.713997C16.5682 0.713997 13.2729 1.37371 10.163 2.7377L16.5896 17.3903ZM19.9643 16.714C22.8673 16.714 23.2941 17.4216 23.0558 17.1787L34.4768 5.97327C30.4945 1.91443 25.0533 0.713997 19.9643 0.713997V16.714ZM23.1636 17.2865C23.2049 17.327 23.6283 17.6534 23.6283 19.298H39.6283C39.6283 14.3906 38.1437 9.56896 34.369 5.86553L23.1636 17.2865Z" fill="white"/>
<path d="M31.6283 19.298C31.6283 20.594 31.3583 21.872 30.8183 23.132C30.2783 24.356 29.5763 25.562 28.7123 26.75C27.8843 27.902 26.9303 29.036 25.8503 30.152C24.7703 31.232 23.6903 32.294 22.6103 33.338C22.0343 33.878 21.3863 34.526 20.6663 35.282C19.9463 36.038 19.2623 36.794 18.6143 37.55C17.9663 38.306 17.4083 39.044 16.9403 39.764C16.4723 40.448 16.2203 41.024 16.1843 41.492H32.8163V47H9.0023C8.9663 46.712 8.9483 46.37 8.9483 45.974C8.9483 45.542 8.9483 45.218 8.9483 45.002C8.9483 43.274 9.2183 41.69 9.7583 40.25C10.3343 38.774 11.0723 37.406 11.9723 36.146C12.8723 34.886 13.8803 33.698 14.9963 32.582C16.1123 31.466 17.2283 30.368 18.3443 29.288C19.2083 28.46 20.0363 27.65 20.8283 26.858C21.6203 26.066 22.3043 25.292 22.8803 24.536C23.4923 23.744 23.9783 22.952 24.3383 22.16C24.6983 21.332 24.8783 20.486 24.8783 19.622C24.8783 17.75 24.3383 16.418 23.2583 15.626C22.1783 14.834 20.8643 14.438 19.3163 14.438C18.3083 14.438 17.3723 14.582 16.5083 14.87C15.6443 15.158 14.8703 15.5 14.1863 15.896C13.5383 16.292 12.9623 16.706 12.4583 17.138C11.9543 17.534 11.5763 17.858 11.3243 18.11L8.0843 13.52C9.5963 12.08 11.3603 10.928 13.3763 10.064C15.4283 9.164 17.6243 8.714 19.9643 8.714C23.9603 8.714 26.8943 9.668 28.7663 11.576C30.6743 13.448 31.6283 16.022 31.6283 19.298Z" fill="#70C000"/>
</svg>
