<svg width="41" height="56" viewBox="0 0 41 56" fill="none" xmlns="http://www.w3.org/2000/svg">
<path d="M15.3743 47.594L16.4674 39.669C16.3873 39.658 16.307 39.6481 16.2266 39.6395L15.3743 47.594ZM12.4583 47.108L14.2572 39.3129C14.1808 39.2952 14.1041 39.2787 14.0272 39.2634L12.4583 47.108ZM9.9743 46.514L7.44448 54.1035C7.5544 54.1401 7.66511 54.1744 7.77653 54.2062L9.9743 46.514ZM8.2463 45.812L0.45501 43.9966C-0.360857 47.498 1.25925 51.1136 4.41548 52.8352L8.2463 45.812ZM9.5423 40.25L12.9818 33.0271C10.7949 31.9858 8.25407 31.9912 6.07175 33.042C3.88943 34.0928 2.30066 36.0756 1.75101 38.4346L9.5423 40.25ZM12.8363 41.492L10.3636 49.1003C10.4214 49.119 10.4793 49.1372 10.5375 49.1546L12.8363 41.492ZM24.3383 40.52L29.5446 46.5941C29.5775 46.5659 29.6102 46.5374 29.6426 46.5087L24.3383 40.52ZM25.4723 33.122L18.5849 37.1918C18.6297 37.2676 18.6757 37.3427 18.723 37.417L25.4723 33.122ZM23.4743 31.232L19.3147 38.0656C19.4295 38.1354 19.5459 38.2024 19.664 38.2663L23.4743 31.232ZM20.5583 30.206L18.9894 38.0506C19.0874 38.0702 19.1858 38.088 19.2844 38.1039L20.5583 30.206ZM14.8883 29.882H6.8883C6.8883 34.3003 10.47 37.882 14.8883 37.882V29.882ZM14.8883 24.59V16.59C10.47 16.59 6.8883 20.1717 6.8883 24.59H14.8883ZM20.0723 24.374L21.443 32.2557C21.5303 32.2405 21.6172 32.2239 21.7039 32.2058L20.0723 24.374ZM22.3943 23.51L26.4026 30.4334C26.4915 30.3819 26.5794 30.3288 26.6662 30.2739L22.3943 23.51ZM24.2303 16.976L31.3006 13.2329L31.3006 13.2329L24.2303 16.976ZM22.9343 15.464L17.9917 21.7545C18.0614 21.8093 18.1319 21.8628 18.2034 21.9152L22.9343 15.464ZM21.1523 14.6L19.1164 22.3366L19.1164 22.3366L21.1523 14.6ZM14.6723 15.086L17.4578 22.5854C17.52 22.5623 17.5818 22.5384 17.6434 22.5138L14.6723 15.086ZM11.3243 16.706L4.13722 20.2197C5.13455 22.2597 6.95181 23.7797 9.13593 24.4009C11.32 25.022 13.6652 24.6857 15.5868 23.4759L11.3243 16.706ZM8.9483 11.846L4.62223 5.11657C1.20858 7.31107 -0.0211743 11.7139 1.76122 15.3597L8.9483 11.846ZM10.7843 10.82L14.362 17.9754L14.362 17.9754L10.7843 10.82ZM13.1603 9.794L10.4505 2.2669C10.4174 2.27884 10.3843 2.29099 10.3513 2.30337L13.1603 9.794ZM16.0223 9.038L17.4286 16.9134C17.5189 16.8973 17.6089 16.8796 17.6985 16.8604L16.0223 9.038ZM28.3343 11.63L22.7852 17.3926C22.8575 17.4623 22.9312 17.5306 23.0062 17.5975L28.3343 11.63ZM30.5483 14.87L23.0489 17.6555C23.0814 17.7429 23.1154 17.8298 23.1509 17.916L30.5483 14.87ZM29.8463 23.564L23.3249 18.9303C23.2975 18.9688 23.2705 19.0076 23.2438 19.0465L29.8463 23.564ZM26.1743 26.696L22.7348 19.4731C19.81 20.8659 18.0138 23.8852 18.1856 27.1202C18.3573 30.3552 20.4631 33.1673 23.519 34.2425L26.1743 26.696ZM30.9803 30.098L24.7195 35.0782C24.7423 35.1069 24.7654 35.1355 24.7886 35.1639L30.9803 30.098ZM32.0603 40.844L39.4616 43.8805C39.4706 43.8587 39.4794 43.8369 39.4881 43.8151L32.0603 40.844ZM29.4143 44.516L34.5901 50.6161C34.6254 50.5861 34.6604 50.5559 34.6952 50.5253L29.4143 44.516ZM24.8783 46.946L27.3165 54.5654C27.3471 54.5556 27.3776 54.5456 27.4081 54.5355L24.8783 46.946ZM18.3983 39.81C17.821 39.81 17.1792 39.7672 16.4674 39.669L14.2812 55.519C15.6574 55.7088 17.0316 55.81 18.3983 55.81V39.81ZM16.2266 39.6395C15.5196 39.5638 14.8645 39.453 14.2572 39.3129L10.6594 54.9031C11.9241 55.195 13.213 55.4082 14.522 55.5485L16.2266 39.6395ZM14.0272 39.2634C13.3048 39.1189 12.6898 38.9697 12.1721 38.8218L7.77653 54.2062C8.77084 54.4903 9.81176 54.7371 10.8894 54.9526L14.0272 39.2634ZM12.5041 38.9245C12.2458 38.8384 12.0791 38.7755 11.9863 38.7378C11.942 38.7197 11.9275 38.7128 11.938 38.7176C11.9473 38.7219 11.9969 38.7451 12.0771 38.7888L4.41548 52.8352C5.42726 53.387 6.52417 53.7967 7.44448 54.1035L12.5041 38.9245ZM16.0376 47.6274L17.3336 42.0654L1.75101 38.4346L0.45501 43.9966L16.0376 47.6274ZM6.10283 47.4729C7.32737 48.056 8.81146 48.5958 10.3636 49.1003L15.309 33.8837C13.9811 33.4522 13.2692 33.164 12.9818 33.0271L6.10283 47.4729ZM10.5375 49.1546C12.9603 49.8815 15.5735 50.14 18.1823 50.14V34.14C16.5431 34.14 15.5923 33.9665 15.1351 33.8294L10.5375 49.1546ZM18.1823 50.14C21.6902 50.14 26.1082 49.5396 29.5446 46.5941L19.132 34.4459C19.6385 34.0118 19.9906 33.9531 19.8184 33.9984C19.6383 34.0458 19.1342 34.14 18.1823 34.14V50.14ZM29.6426 46.5087C32.7843 43.726 34.2283 39.9845 34.2283 36.092H18.2283C18.2283 36.0934 18.2282 36.0268 18.2511 35.9066C18.2744 35.784 18.3187 35.6213 18.398 35.4355C18.5709 35.0305 18.8214 34.7196 19.034 34.5313L29.6426 46.5087ZM34.2283 36.092C34.2283 33.7836 33.7339 31.2035 32.2216 28.827L18.723 37.417C18.2187 36.6245 18.2283 36.0244 18.2283 36.092H34.2283ZM32.3597 29.0522C31.1032 26.9257 29.3338 25.3077 27.2846 24.1977L19.664 38.2663C19.5265 38.1918 19.3329 38.0647 19.1242 37.8672C18.913 37.6675 18.7293 37.4362 18.5849 37.1918L32.3597 29.0522ZM27.6339 24.3984C25.7877 23.2747 23.8024 22.6259 21.8322 22.3081L19.2844 38.1039C19.4172 38.1253 19.473 38.1454 19.469 38.144C19.467 38.1433 19.4509 38.1375 19.4234 38.1246C19.3958 38.1116 19.3587 38.0924 19.3147 38.0656L27.6339 24.3984ZM22.1272 22.3614C20.4772 22.0314 18.7957 21.882 17.1023 21.882V37.882C17.8569 37.882 18.4794 37.9486 18.9894 38.0506L22.1272 22.3614ZM17.1023 21.882H14.8883V37.882H17.1023V21.882ZM22.8883 29.882V24.59H6.8883V29.882H22.8883ZM14.8883 32.59H17.5883V16.59H14.8883V32.59ZM17.5883 32.59C18.8826 32.59 20.1692 32.4772 21.443 32.2557L18.7016 16.4923C18.3194 16.5588 17.95 16.59 17.5883 16.59V32.59ZM21.7039 32.2058C23.3071 31.8719 24.8992 31.3038 26.4026 30.4334L18.386 16.5866C18.4503 16.5494 18.4952 16.5311 18.5109 16.5252C18.5258 16.5197 18.5054 16.5287 18.4407 16.5422L21.7039 32.2058ZM26.6662 30.2739C28.3558 29.2068 29.7651 27.7975 30.8322 26.1079L17.3044 17.5641C17.5075 17.2425 17.8008 16.9492 18.1224 16.7461L26.6662 30.2739ZM30.8322 26.1079C32.3 23.7839 32.7163 21.2886 32.7163 19.19H16.7163C16.7163 19.2514 16.7006 18.5201 17.3044 17.5641L30.8322 26.1079ZM32.7163 19.19C32.7163 17.3384 32.3681 15.2492 31.3006 13.2329L17.16 20.7191C16.7405 19.9268 16.7163 19.3136 16.7163 19.19H32.7163ZM31.3006 13.2329C30.4312 11.5906 29.2132 10.1479 27.6652 9.01277L18.2034 21.9152C17.7354 21.5721 17.3814 21.1374 17.16 20.7191L31.3006 13.2329ZM27.8769 9.17345C26.4278 8.03493 24.8197 7.29274 23.1882 6.8634L19.1164 22.3366C18.8529 22.2673 18.4328 22.1011 17.9917 21.7545L27.8769 9.17345ZM23.1882 6.8634C21.7957 6.49694 20.3883 6.33 18.9923 6.33V22.33C19.0524 22.33 19.0896 22.3335 19.107 22.3357C19.1241 22.3379 19.1261 22.3392 19.1164 22.3366L23.1882 6.8634ZM18.9923 6.33C16.5474 6.33 14.0701 6.71062 11.7012 7.65819L17.6434 22.5138C17.7945 22.4534 18.1972 22.33 18.9923 22.33V6.33ZM11.8868 7.5866C10.1955 8.21481 8.57049 8.98621 7.0618 9.93613L15.5868 23.4759C16.0221 23.2018 16.6291 22.8932 17.4578 22.5854L11.8868 7.5866ZM18.5114 13.1923L16.1354 8.33232L1.76122 15.3597L4.13722 20.2197L18.5114 13.1923ZM13.2744 18.5754C13.471 18.449 13.8179 18.2475 14.362 17.9754L7.20659 3.66458C6.31069 4.11253 5.43364 4.59495 4.62223 5.11657L13.2744 18.5754ZM14.362 17.9754C14.7988 17.757 15.3302 17.5243 15.9693 17.2846L10.3513 2.30337C9.26239 2.71171 8.20981 3.16297 7.20659 3.66458L14.362 17.9754ZM15.8701 17.3211C16.3176 17.16 16.8333 17.0197 17.4286 16.9134L14.616 1.16258C13.1953 1.41626 11.8029 1.78003 10.4505 2.2669L15.8701 17.3211ZM17.6985 16.8604C18.1124 16.7717 18.6098 16.714 19.2083 16.714V0.713997C17.5748 0.713997 15.9482 0.87227 14.3461 1.21558L17.6985 16.8604ZM19.2083 16.714C20.6876 16.714 21.5905 16.8968 22.0785 17.0595L27.1381 1.88053C24.6021 1.0352 21.905 0.713997 19.2083 0.713997V16.714ZM22.0785 17.0595C22.6635 17.2545 22.8128 17.4192 22.7852 17.3926L33.8834 5.86744C31.9118 3.96881 29.5771 2.69354 27.1381 1.88053L22.0785 17.0595ZM23.0062 17.5975C23.0265 17.6156 23.0365 17.6266 23.0394 17.6299C23.0422 17.6331 23.0413 17.6324 23.0386 17.6285C23.036 17.6247 23.0349 17.6224 23.0356 17.6237C23.0363 17.6251 23.0412 17.6348 23.0489 17.6555L38.0477 12.0845C37.1234 9.59598 35.6371 7.42561 33.6624 5.66249L23.0062 17.5975ZM23.1509 17.916C23.2137 18.0685 23.3043 18.3688 23.3043 18.92H39.3043C39.3043 16.5192 38.8909 14.1195 37.9457 11.824L23.1509 17.916ZM23.3043 18.92C23.3043 18.9484 23.3033 18.9694 23.3023 18.9835C23.3013 18.9976 23.3002 19.0057 23.2998 19.0083C23.2994 19.0109 23.2996 19.0091 23.3008 19.0037C23.3021 18.9982 23.3041 18.9903 23.3071 18.9807C23.3102 18.971 23.3137 18.961 23.3177 18.9512C23.3217 18.9413 23.3255 18.933 23.3288 18.9265C23.332 18.9201 23.3339 18.9169 23.3339 18.917C23.3338 18.9171 23.3311 18.9215 23.3249 18.9303L36.3677 28.1977C38.3316 25.4337 39.3043 22.2559 39.3043 18.92H23.3043ZM23.2438 19.0465C23.1136 19.2369 22.9861 19.3535 22.7348 19.4731L29.6138 33.9189C32.3865 32.5985 34.707 30.6271 36.4488 28.0815L23.2438 19.0465ZM23.519 34.2425C24.0711 34.4367 24.4139 34.6941 24.7195 35.0782L37.2411 25.1178C35.0266 22.3339 32.1655 20.3233 28.8295 19.1495L23.519 34.2425ZM24.7886 35.1639C24.7702 35.1414 24.7847 35.1424 24.8158 35.2399C24.8526 35.3554 24.9243 35.6504 24.9243 36.2H40.9243C40.9243 32.2781 39.8725 28.3327 37.172 25.0321L24.7886 35.1639ZM24.9243 36.2C24.9243 36.9079 24.8055 37.4404 24.6325 37.8729L39.4881 43.8151C40.4671 41.3676 40.9243 38.8041 40.9243 36.2H24.9243ZM24.6589 37.8075C24.571 38.0218 24.4351 38.2416 24.1334 38.5067L34.6952 50.5253C36.7695 48.7024 38.3976 46.4742 39.4616 43.8805L24.6589 37.8075ZM24.2385 38.4159C23.9929 38.6243 23.4422 38.992 22.3485 39.3565L27.4081 54.5355C29.9864 53.676 32.4597 52.4237 34.5901 50.6161L24.2385 38.4159ZM22.4401 39.3266C21.6411 39.5823 20.3487 39.81 18.3983 39.81V55.81C21.4879 55.81 24.5154 55.4617 27.3165 54.5654L22.4401 39.3266Z" fill="white"/>
<path d="M18.3983 47.81C17.4263 47.81 16.4183 47.738 15.3743 47.594C14.3663 47.486 13.3943 47.324 12.4583 47.108C11.5583 46.928 10.7303 46.73 9.9743 46.514C9.2183 46.262 8.6423 46.028 8.2463 45.812L9.5423 40.25C10.2983 40.61 11.3963 41.024 12.8363 41.492C14.2763 41.924 16.0583 42.14 18.1823 42.14C21.0263 42.14 23.0783 41.6 24.3383 40.52C25.5983 39.404 26.2283 37.928 26.2283 36.092C26.2283 34.904 25.9763 33.914 25.4723 33.122C25.0043 32.33 24.3383 31.7 23.4743 31.232C22.6463 30.728 21.6743 30.386 20.5583 30.206C19.4783 29.99 18.3263 29.882 17.1023 29.882H14.8883V24.59H17.5883C18.4163 24.59 19.2443 24.518 20.0723 24.374C20.9363 24.194 21.7103 23.906 22.3943 23.51C23.0783 23.078 23.6363 22.52 24.0683 21.836C24.5003 21.152 24.7163 20.27 24.7163 19.19C24.7163 18.326 24.5543 17.588 24.2303 16.976C23.9063 16.364 23.4743 15.86 22.9343 15.464C22.4303 15.068 21.8363 14.78 21.1523 14.6C20.4683 14.42 19.7483 14.33 18.9923 14.33C17.3723 14.33 15.9323 14.582 14.6723 15.086C13.4123 15.554 12.2963 16.094 11.3243 16.706L8.9483 11.846C9.4523 11.522 10.0643 11.18 10.7843 10.82C11.5043 10.46 12.2963 10.118 13.1603 9.794C14.0603 9.47 15.0143 9.218 16.0223 9.038C17.0303 8.822 18.0923 8.714 19.2083 8.714C21.2963 8.714 23.0963 8.966 24.6083 9.47C26.1203 9.974 27.3623 10.694 28.3343 11.63C29.3423 12.53 30.0803 13.61 30.5483 14.87C31.0523 16.094 31.3043 17.444 31.3043 18.92C31.3043 20.648 30.8183 22.196 29.8463 23.564C28.9103 24.932 27.6863 25.976 26.1743 26.696C28.1183 27.38 29.7203 28.514 30.9803 30.098C32.2763 31.682 32.9243 33.716 32.9243 36.2C32.9243 37.856 32.6363 39.404 32.0603 40.844C31.4843 42.248 30.6023 43.472 29.4143 44.516C28.2263 45.524 26.7143 46.334 24.8783 46.946C23.0783 47.522 20.9183 47.81 18.3983 47.81Z" fill="#70C000"/>
</svg>
