<svg width="44" height="54" viewBox="0 0 44 54" fill="none" xmlns="http://www.w3.org/2000/svg">
<path d="M24.8523 16.624H32.8523C32.8523 13.2508 30.7365 10.2401 27.5629 9.09721C24.3893 7.9543 20.8398 8.9248 18.6891 11.5235L24.8523 16.624ZM22.1523 19.972L15.8684 15.021C15.837 15.0608 15.8061 15.1008 15.7756 15.1411L22.1523 19.972ZM19.5063 23.698L12.8499 19.2604L12.8499 19.2604L19.5063 23.698ZM17.0223 27.694L23.8986 31.7826C23.9144 31.7559 23.9302 31.7292 23.9457 31.7023L17.0223 27.694ZM14.8623 31.69L7.66842 28.1903C6.46226 30.6696 6.6178 33.5953 8.08005 35.9328C9.5423 38.2702 12.1051 39.69 14.8623 39.69V31.69ZM24.8523 31.69V39.69C29.2706 39.69 32.8523 36.1083 32.8523 31.69H24.8523ZM31.2243 8.578H39.2243C39.2243 4.15972 35.6426 0.577999 31.2243 0.577999V8.578ZM31.2243 31.69H23.2243C23.2243 36.1083 26.806 39.69 31.2243 39.69V31.69ZM35.4363 31.69H43.4363C43.4363 27.2717 39.8546 23.69 35.4363 23.69V31.69ZM35.4363 37.036V45.036C39.8546 45.036 43.4363 41.4543 43.4363 37.036H35.4363ZM31.2243 37.036V29.036C26.806 29.036 23.2243 32.6177 23.2243 37.036H31.2243ZM31.2243 46V54C35.6426 54 39.2243 50.4183 39.2243 46H31.2243ZM24.8523 46H16.8523C16.8523 50.4183 20.434 54 24.8523 54V46ZM24.8523 37.036H32.8523C32.8523 32.6177 29.2706 29.036 24.8523 29.036V37.036ZM8.4363 37.036H0.436297C0.436297 41.4543 4.01802 45.036 8.4363 45.036L8.4363 37.036ZM8.4363 32.392L1.15337 29.0816C0.680799 30.1212 0.436297 31.25 0.436297 32.392H8.4363ZM11.2983 26.938L4.42774 22.8398C4.40993 22.8696 4.39231 22.8996 4.37489 22.9297L11.2983 26.938ZM15.3483 20.62L21.9535 25.1335L21.9535 25.1335L15.3483 20.62ZM20.0463 14.248L26.3143 19.2192L26.3143 19.2192L20.0463 14.248ZM25.0143 8.578V0.577999C22.8627 0.577999 20.8019 1.44465 19.2969 2.98229L25.0143 8.578ZM18.6891 11.5235C17.7799 12.6221 16.8396 13.7884 15.8684 15.021L28.4362 24.923C29.337 23.7796 30.1967 22.7139 31.0155 21.7245L18.6891 11.5235ZM15.7756 15.1411C14.7742 16.463 13.7992 17.8365 12.8499 19.2604L26.1627 28.1356C26.9414 26.9675 27.7304 25.857 28.529 24.8029L15.7756 15.1411ZM12.8499 19.2604C11.891 20.6987 10.9741 22.174 10.0989 23.6857L23.9457 31.7023C24.6545 30.478 25.3936 29.2893 26.1627 28.1356L12.8499 19.2604ZM10.146 23.6054C9.24519 25.1204 8.41838 26.6487 7.66842 28.1903L22.0562 35.1897C22.6022 34.0673 23.2154 32.9316 23.8986 31.7826L10.146 23.6054ZM14.8623 39.69H24.8523V23.69H14.8623V39.69ZM32.8523 31.69V16.624H16.8523V31.69H32.8523ZM23.2243 8.578V31.69H39.2243V8.578H23.2243ZM31.2243 39.69H35.4363V23.69H31.2243V39.69ZM27.4363 31.69V37.036H43.4363V31.69H27.4363ZM35.4363 29.036H31.2243V45.036H35.4363V29.036ZM23.2243 37.036V46H39.2243V37.036H23.2243ZM31.2243 38H24.8523V54H31.2243V38ZM32.8523 46V37.036H16.8523V46H32.8523ZM24.8523 29.036H8.4363V45.036H24.8523V29.036ZM16.4363 37.036V32.392H0.436297V37.036H16.4363ZM15.7192 35.7024C16.3001 34.4245 17.1214 32.8467 18.2217 30.9463L4.37489 22.9297C3.09915 25.1333 2.01248 27.1915 1.15337 29.0816L15.7192 35.7024ZM18.1689 31.0362C19.3012 29.1379 20.5616 27.1704 21.9535 25.1335L8.74314 16.1065C7.18303 18.3896 5.74338 20.6341 4.42774 22.8398L18.1689 31.0362ZM21.9535 25.1335C23.3205 23.1329 24.7739 21.1614 26.3143 19.2192L13.7783 9.27684C12.0067 11.5106 10.328 13.7871 8.74314 16.1065L21.9535 25.1335ZM26.3143 19.2192C27.8187 17.3222 29.2922 15.6444 30.7316 14.1737L19.2969 2.98229C17.4244 4.89559 15.5858 6.99778 13.7783 9.27684L26.3143 19.2192ZM25.0143 16.578H31.2243V0.577999H25.0143V16.578Z" fill="white"/>
<path d="M24.8523 16.624C23.9883 17.668 23.0883 18.784 22.1523 19.972C21.2523 21.16 20.3703 22.402 19.5063 23.698C18.6423 24.994 17.8143 26.326 17.0223 27.694C16.2303 29.026 15.5103 30.358 14.8623 31.69H24.8523V16.624ZM31.2243 8.578V31.69H35.4363V37.036H31.2243V46H24.8523V37.036H8.4363V32.392C9.1563 30.808 10.1103 28.99 11.2983 26.938C12.5223 24.886 13.8723 22.78 15.3483 20.62C16.8243 18.46 18.3903 16.336 20.0463 14.248C21.7023 12.16 23.3583 10.27 25.0143 8.578H31.2243Z" fill="#70C000"/>
</svg>
