<svg width="43" height="56" viewBox="0 0 43 56" fill="none" xmlns="http://www.w3.org/2000/svg">
<path d="M25.2303 27.344L26.6366 35.2194C26.7269 35.2033 26.8169 35.1856 26.9065 35.1664L25.2303 27.344ZM27.8223 26.426L31.6776 33.4357C34.0077 32.1542 35.5487 29.7986 35.7894 27.1503L27.8223 26.426ZM27.5523 20.594L19.6284 21.6945C19.64 21.7785 19.653 21.8622 19.6673 21.9457L27.5523 20.594ZM26.5263 17.246L19.3183 20.7165C19.3706 20.8252 19.4254 20.9326 19.4825 21.0388L26.5263 17.246ZM24.5283 14.978L19.9598 21.5452C20.0675 21.6202 20.177 21.6924 20.2883 21.762L24.5283 14.978ZM18.6963 14.762L14.7272 7.81606C14.6779 7.8442 14.629 7.87287 14.5803 7.90205L18.6963 14.762ZM16.9143 16.436L23.5168 20.9535L23.5168 20.9535L16.9143 16.436ZM17.1303 25.94L11.2881 31.4053C11.319 31.4382 11.3501 31.4709 11.3815 31.5034L17.1303 25.94ZM27.2823 31.556L35.0434 33.4963C35.7893 30.5129 34.759 27.366 32.3931 25.4014C30.0273 23.4367 26.7447 23.0022 23.9491 24.2835L27.2823 31.556ZM24.4203 32.474L22.7995 24.6399L22.7995 24.6399L24.4203 32.474ZM15.6723 31.934L12.731 39.3737C12.7998 39.4009 12.8689 39.4271 12.9384 39.4523L15.6723 31.934ZM11.8383 29.45L5.89194 34.8017C5.95445 34.8712 6.01818 34.9395 6.08308 35.0068L11.8383 29.45ZM9.6783 25.724L2.08883 28.2538L2.08883 28.2538L9.6783 25.724ZM9.6783 16.922L17.2866 19.3947C17.2925 19.3765 17.2984 19.3582 17.3041 19.3399L9.6783 16.922ZM15.7263 9.902L19.237 17.0905C19.2816 17.0688 19.3259 17.0466 19.3701 17.024L15.7263 9.902ZM31.1703 12.98L24.877 17.9191C24.9 17.9484 24.9233 17.9776 24.9468 18.0067L31.1703 12.98ZM28.9563 41.438L34.6132 47.0949L28.9563 41.438ZM11.7303 47.108L3.74008 47.5036C3.95165 51.7772 7.48864 55.1278 11.7675 55.1079L11.7303 47.108ZM11.4603 41.654V33.654C9.26992 33.654 7.17534 34.5521 5.66528 36.1388C4.15522 37.7254 3.36178 39.8619 3.47008 42.0496L11.4603 41.654ZM17.2923 41.114L15.6926 33.2756C15.682 33.2777 15.6713 33.2799 15.6607 33.2822L17.2923 41.114ZM21.8823 39.386L17.7937 32.5097C17.7659 32.5262 17.7383 32.5429 17.7107 32.5597L21.8823 39.386ZM25.2303 36.308L31.7402 40.9579C31.7607 40.9291 31.7811 40.9002 31.8013 40.8712L25.2303 36.308ZM22.1523 35.614C23.6586 35.614 25.1554 35.4839 26.6366 35.2194L23.824 19.4686C23.2892 19.5641 22.734 19.614 22.1523 19.614V35.614ZM26.9065 35.1664C28.4919 34.8267 30.1269 34.2886 31.6776 33.4357L23.9669 19.4163C24.0273 19.3831 24.033 19.3869 23.9635 19.4115C23.8938 19.4362 23.7617 19.4771 23.5541 19.5216L26.9065 35.1664ZM35.7894 27.1503C35.8398 26.5968 35.8763 26.0011 35.8763 25.4H19.8763C19.8763 25.3806 19.8768 25.3958 19.8739 25.452C19.871 25.5071 19.8654 25.5892 19.8552 25.7017L35.7894 27.1503ZM35.8763 25.4C35.8763 25.3994 35.8763 25.3989 35.8763 25.3983C35.8763 25.3978 35.8763 25.3972 35.8763 25.3966C35.8763 25.3961 35.8763 25.3955 35.8763 25.3949C35.8763 25.3944 35.8763 25.3938 35.8763 25.3933C35.8763 25.3927 35.8763 25.3921 35.8763 25.3916C35.8763 25.391 35.8763 25.3905 35.8763 25.3899C35.8763 25.3893 35.8763 25.3888 35.8763 25.3882C35.8763 25.3876 35.8763 25.3871 35.8763 25.3865C35.8763 25.386 35.8763 25.3854 35.8763 25.3848C35.8763 25.3843 35.8763 25.3837 35.8763 25.3832C35.8763 25.3826 35.8763 25.382 35.8763 25.3815C35.8763 25.3809 35.8763 25.3804 35.8763 25.3798C35.8763 25.3792 35.8763 25.3787 35.8763 25.3781C35.8763 25.3776 35.8763 25.377 35.8763 25.3765C35.8763 25.3759 35.8763 25.3753 35.8763 25.3748C35.8763 25.3742 35.8763 25.3737 35.8763 25.3731C35.8763 25.3725 35.8763 25.372 35.8763 25.3714C35.8763 25.3709 35.8763 25.3703 35.8763 25.3698C35.8763 25.3692 35.8763 25.3686 35.8763 25.3681C35.8763 25.3675 35.8763 25.367 35.8763 25.3664C35.8763 25.3659 35.8763 25.3653 35.8763 25.3647C35.8763 25.3642 35.8763 25.3636 35.8763 25.3631C35.8763 25.3625 35.8763 25.362 35.8763 25.3614C35.8763 25.3608 35.8763 25.3603 35.8763 25.3597C35.8763 25.3592 35.8763 25.3586 35.8763 25.3581C35.8763 25.3575 35.8763 25.357 35.8763 25.3564C35.8763 25.3558 35.8763 25.3553 35.8763 25.3547C35.8763 25.3542 35.8763 25.3536 35.8763 25.3531C35.8763 25.3525 35.8763 25.352 35.8763 25.3514C35.8763 25.3509 35.8763 25.3503 35.8763 25.3497C35.8763 25.3492 35.8763 25.3486 35.8763 25.3481C35.8763 25.3475 35.8763 25.347 35.8763 25.3464C35.8763 25.3459 35.8763 25.3453 35.8763 25.3448C35.8763 25.3442 35.8763 25.3437 35.8763 25.3431C35.8763 25.3425 35.8763 25.342 35.8763 25.3414C35.8763 25.3409 35.8763 25.3403 35.8763 25.3398C35.8763 25.3392 35.8763 25.3387 35.8763 25.3381C35.8763 25.3376 35.8763 25.337 35.8763 25.3365C35.8763 25.3359 35.8763 25.3354 35.8763 25.3348C35.8763 25.3343 35.8763 25.3337 35.8763 25.3332C35.8763 25.3326 35.8763 25.3321 35.8763 25.3315C35.8763 25.331 35.8763 25.3304 35.8763 25.3299C35.8763 25.3293 35.8763 25.3287 35.8763 25.3282C35.8763 25.3276 35.8763 25.3271 35.8763 25.3265C35.8763 25.326 35.8763 25.3254 35.8763 25.3249C35.8763 25.3243 35.8763 25.3238 35.8763 25.3232C35.8763 25.3227 35.8763 25.3221 35.8763 25.3216C35.8763 25.321 35.8763 25.3205 35.8763 25.3199C35.8763 25.3194 35.8763 25.3189 35.8763 25.3183C35.8763 25.3178 35.8763 25.3172 35.8763 25.3167C35.8763 25.3161 35.8763 25.3156 35.8763 25.315C35.8763 25.3145 35.8763 25.3139 35.8763 25.3134C35.8763 25.3128 35.8763 25.3123 35.8763 25.3117C35.8763 25.3112 35.8763 25.3106 35.8763 25.3101C35.8763 25.3095 35.8763 25.309 35.8763 25.3084C35.8763 25.3079 35.8763 25.3073 35.8763 25.3068C35.8763 25.3062 35.8763 25.3057 35.8763 25.3052C35.8763 25.3046 35.8763 25.3041 35.8763 25.3035C35.8763 25.303 35.8763 25.3024 35.8763 25.3019C35.8763 25.3013 35.8763 25.3008 35.8763 25.3002C35.8763 25.2997 35.8763 25.2991 35.8763 25.2986C35.8763 25.298 35.8763 25.2975 35.8763 25.297C35.8763 25.2964 35.8763 25.2959 35.8763 25.2953C35.8763 25.2948 35.8763 25.2942 35.8763 25.2937C35.8763 25.2931 35.8763 25.2926 35.8763 25.2921C35.8763 25.2915 35.8763 25.291 35.8763 25.2904C35.8763 25.2899 35.8763 25.2893 35.8763 25.2888C35.8763 25.2882 35.8763 25.2877 35.8763 25.2872C35.8763 25.2866 35.8763 25.2861 35.8763 25.2855C35.8763 25.285 35.8763 25.2844 35.8763 25.2839C35.8763 25.2833 35.8763 25.2828 35.8763 25.2823C35.8763 25.2817 35.8763 25.2812 35.8763 25.2806C35.8763 25.2801 35.8763 25.2795 35.8763 25.279C35.8763 25.2785 35.8763 25.2779 35.8763 25.2774C35.8763 25.2768 35.8763 25.2763 35.8763 25.2758C35.8763 25.2752 35.8763 25.2747 35.8763 25.2741C35.8763 25.2736 35.8763 25.273 35.8763 25.2725C35.8763 25.272 35.8763 25.2714 35.8763 25.2709C35.8763 25.2703 35.8763 25.2698 35.8763 25.2693C35.8763 25.2687 35.8763 25.2682 35.8763 25.2676C35.8763 25.2671 35.8763 25.2666 35.8763 25.266C35.8763 25.2655 35.8763 25.2649 35.8763 25.2644C35.8763 25.2639 35.8763 25.2633 35.8763 25.2628C35.8763 25.2622 35.8763 25.2617 35.8763 25.2612C35.8763 25.2606 35.8763 25.2601 35.8763 25.2595C35.8763 25.259 35.8763 25.2585 35.8763 25.2579C35.8763 25.2574 35.8763 25.2568 35.8763 25.2563C35.8763 25.2558 35.8763 25.2552 35.8763 25.2547C35.8763 25.2542 35.8763 25.2536 35.8763 25.2531C35.8763 25.2525 35.8763 25.252 35.8763 25.2515C35.8763 25.2509 35.8763 25.2504 35.8763 25.2498C35.8763 25.2493 35.8763 25.2488 35.8763 25.2482C35.8763 25.2477 35.8763 25.2472 35.8763 25.2466C35.8763 25.2461 35.8763 25.2456 35.8763 25.245C35.8763 25.2445 35.8763 25.2439 35.8763 25.2434C35.8763 25.2429 35.8763 25.2423 35.8763 25.2418C35.8763 25.2413 35.8763 25.2407 35.8763 25.2402C35.8763 25.2397 35.8763 25.2391 35.8763 25.2386C35.8763 25.238 35.8763 25.2375 35.8763 25.237C35.8763 25.2364 35.8763 25.2359 35.8763 25.2354C35.8763 25.2348 35.8763 25.2343 35.8763 25.2338C35.8763 25.2332 35.8763 25.2327 35.8763 25.2322C35.8763 25.2316 35.8763 25.2311 35.8763 25.2306C35.8763 25.23 35.8763 25.2295 35.8763 25.229C35.8763 25.2284 35.8763 25.2279 35.8763 25.2274C35.8763 25.2268 35.8763 25.2263 35.8763 25.2258C35.8763 25.2252 35.8763 25.2247 35.8763 25.2242C35.8763 25.2236 35.8763 25.2231 35.8763 25.2226C35.8763 25.222 35.8763 25.2215 35.8763 25.221C35.8763 25.2204 35.8763 25.2199 35.8763 25.2194C35.8763 25.2188 35.8763 25.2183 35.8763 25.2178C35.8763 25.2172 35.8763 25.2167 35.8763 25.2162C35.8763 25.2156 35.8763 25.2151 35.8763 25.2146C35.8763 25.214 35.8763 25.2135 35.8763 25.213C35.8763 25.2124 35.8763 25.2119 35.8763 25.2114C35.8763 25.2109 35.8763 25.2103 35.8763 25.2098C35.8763 25.2093 35.8763 25.2087 35.8763 25.2082C35.8763 25.2077 35.8763 25.2071 35.8763 25.2066C35.8763 25.2061 35.8763 25.2056 35.8763 25.205C35.8763 25.2045 35.8763 25.204 35.8763 25.2034C35.8763 25.2029 35.8763 25.2024 35.8763 25.2018C35.8763 25.2013 35.8763 25.2008 35.8763 25.2003C35.8763 25.1997 35.8763 25.1992 35.8763 25.1987C35.8763 25.1981 35.8763 25.1976 35.8763 25.1971C35.8763 25.1966 35.8763 25.196 35.8763 25.1955C35.8763 25.195 35.8763 25.1944 35.8763 25.1939C35.8763 25.1934 35.8763 25.1929 35.8763 25.1923C35.8763 25.1918 35.8763 25.1913 35.8763 25.1907C35.8763 25.1902 35.8763 25.1897 35.8763 25.1892C35.8763 25.1886 35.8763 25.1881 35.8763 25.1876C35.8763 25.1871 35.8763 25.1865 35.8763 25.186C35.8763 25.1855 35.8763 25.185 35.8763 25.1844C35.8763 25.1839 35.8763 25.1834 35.8763 25.1828C35.8763 25.1823 35.8763 25.1818 35.8763 25.1813C35.8763 25.1807 35.8763 25.1802 35.8763 25.1797C35.8763 25.1792 35.8763 25.1786 35.8763 25.1781C35.8763 25.1776 35.8763 25.1771 35.8763 25.1765C35.8763 25.176 35.8763 25.1755 35.8763 25.175C35.8763 25.1744 35.8763 25.1739 35.8763 25.1734C35.8763 25.1729 35.8763 25.1723 35.8763 25.1718C35.8763 25.1713 35.8763 25.1708 35.8763 25.1703C35.8763 25.1697 35.8763 25.1692 35.8763 25.1687C35.8763 25.1682 35.8763 25.1676 35.8763 25.1671C35.8763 25.1666 35.8763 25.1661 35.8763 25.1655C35.8763 25.165 35.8763 25.1645 35.8763 25.164C35.8763 25.1635 35.8763 25.1629 35.8763 25.1624C35.8763 25.1619 35.8763 25.1614 35.8763 25.1608C35.8763 25.1603 35.8763 25.1598 35.8763 25.1593C35.8763 25.1588 35.8763 25.1582 35.8763 25.1577C35.8763 25.1572 35.8763 25.1567 35.8763 25.1561C35.8763 25.1556 35.8763 25.1551 35.8763 25.1546C35.8763 25.1541 35.8763 25.1535 35.8763 25.153C35.8763 25.1525 35.8763 25.152 35.8763 25.1515C35.8763 25.1509 35.8763 25.1504 35.8763 25.1499C35.8763 25.1494 35.8763 25.1489 35.8763 25.1483C35.8763 25.1478 35.8763 25.1473 35.8763 25.1468C35.8763 25.1463 35.8763 25.1457 35.8763 25.1452C35.8763 25.1447 35.8763 25.1442 35.8763 25.1437C35.8763 25.1431 35.8763 25.1426 35.8763 25.1421C35.8763 25.1416 35.8763 25.1411 35.8763 25.1405C35.8763 25.14 35.8763 25.1395 35.8763 25.139C35.8763 25.1385 35.8763 25.138 35.8763 25.1374C35.8763 25.1369 35.8763 25.1364 35.8763 25.1359C35.8763 25.1354 35.8763 25.1348 35.8763 25.1343C35.8763 25.1338 35.8763 25.1333 35.8763 25.1328C35.8763 25.1323 35.8763 25.1317 35.8763 25.1312C35.8763 25.1307 35.8763 25.1302 35.8763 25.1297C35.8763 25.1292 35.8763 25.1286 35.8763 25.1281C35.8763 25.1276 35.8763 25.1271 35.8763 25.1266C35.8763 25.1261 35.8763 25.1255 35.8763 25.125C35.8763 25.1245 35.8763 25.124 35.8763 25.1235C35.8763 25.123 35.8763 25.1225 35.8763 25.1219C35.8763 25.1214 35.8763 25.1209 35.8763 25.1204C35.8763 25.1199 35.8763 25.1194 35.8763 25.1188C35.8763 25.1183 35.8763 25.1178 35.8763 25.1173C35.8763 25.1168 35.8763 25.1163 35.8763 25.1158C35.8763 25.1152 35.8763 25.1147 35.8763 25.1142C35.8763 25.1137 35.8763 25.1132 35.8763 25.1127C35.8763 25.1122 35.8763 25.1117 35.8763 25.1111C35.8763 25.1106 35.8763 25.1101 35.8763 25.1096C35.8763 25.1091 35.8763 25.1086 35.8763 25.1081C35.8763 25.1075 35.8763 25.107 35.8763 25.1065C35.8763 25.106 35.8763 25.1055 35.8763 25.105C35.8763 25.1045 35.8763 25.104 35.8763 25.1034C35.8763 25.1029 35.8763 25.1024 35.8763 25.1019C35.8763 25.1014 35.8763 25.1009 35.8763 25.1004C35.8763 25.0999 35.8763 25.0994 35.8763 25.0988C35.8763 25.0983 35.8763 25.0978 35.8763 25.0973C35.8763 25.0968 35.8763 25.0963 35.8763 25.0958C35.8763 25.0953 35.8763 25.0948 35.8763 25.0942C35.8763 25.0937 35.8763 25.0932 35.8763 25.0927C35.8763 25.0922 35.8763 25.0917 35.8763 25.0912C35.8763 25.0907 35.8763 25.0902 35.8763 25.0897C35.8763 25.0891 35.8763 25.0886 35.8763 25.0881C35.8763 25.0876 35.8763 25.0871 35.8763 25.0866C35.8763 25.0861 35.8763 25.0856 35.8763 25.0851C35.8763 25.0846 35.8763 25.0841 35.8763 25.0836C35.8763 25.083 35.8763 25.0825 35.8763 25.082C35.8763 25.0815 35.8763 25.081 35.8763 25.0805C35.8763 25.08 35.8763 25.0795 35.8763 25.079C35.8763 25.0785 35.8763 25.078 35.8763 25.0775C35.8763 25.0769 35.8763 25.0764 35.8763 25.0759C35.8763 25.0754 35.8763 25.0749 35.8763 25.0744C35.8763 25.0739 35.8763 25.0734 35.8763 25.0729C35.8763 25.0724 35.8763 25.0719 35.8763 25.0714C35.8763 25.0709 35.8763 25.0704 35.8763 25.0699C35.8763 25.0694 35.8763 25.0688 35.8763 25.0683C35.8763 25.0678 35.8763 25.0673 35.8763 25.0668C35.8763 25.0663 35.8763 25.0658 35.8763 25.0653C35.8763 25.0648 35.8763 25.0643 35.8763 25.0638C35.8763 25.0633 35.8763 25.0628 35.8763 25.0623C35.8763 25.0618 35.8763 25.0613 35.8763 25.0608C35.8763 25.0603 35.8763 25.0598 35.8763 25.0593C35.8763 25.0587 35.8763 25.0582 35.8763 25.0577C35.8763 25.0572 35.8763 25.0567 35.8763 25.0562C35.8763 25.0557 35.8763 25.0552 35.8763 25.0547C35.8763 25.0542 35.8763 25.0537 35.8763 25.0532C35.8763 25.0527 35.8763 25.0522 35.8763 25.0517C35.8763 25.0512 35.8763 25.0507 35.8763 25.0502C35.8763 25.0497 35.8763 25.0492 35.8763 25.0487C35.8763 25.0482 35.8763 25.0477 35.8763 25.0472C35.8763 25.0467 35.8763 25.0462 35.8763 25.0457C35.8763 25.0452 35.8763 25.0447 35.8763 25.0442C35.8763 25.0437 35.8763 25.0432 35.8763 25.0427C35.8763 25.0422 35.8763 25.0417 35.8763 25.0412C35.8763 25.0407 35.8763 25.0402 35.8763 25.0397C35.8763 25.0392 35.8763 25.0387 35.8763 25.0382C35.8763 25.0377 35.8763 25.0372 35.8763 25.0367C35.8763 25.0362 35.8763 25.0357 35.8763 25.0352C35.8763 25.0347 35.8763 25.0342 35.8763 25.0337C35.8763 25.0332 35.8763 25.0327 35.8763 25.0322C35.8763 25.0317 35.8763 25.0312 35.8763 25.0307C35.8763 25.0302 35.8763 25.0297 35.8763 25.0292C35.8763 25.0287 35.8763 25.0282 35.8763 25.0277C35.8763 25.0272 35.8763 25.0267 35.8763 25.0262C35.8763 25.0257 35.8763 25.0252 35.8763 25.0247C35.8763 25.0242 35.8763 25.0237 35.8763 25.0232C35.8763 25.0227 35.8763 25.0222 35.8763 25.0217C35.8763 25.0212 35.8763 25.0207 35.8763 25.0202C35.8763 25.0197 35.8763 25.0192 35.8763 25.0187C35.8763 25.0182 35.8763 25.0177 35.8763 25.0172C35.8763 25.0167 35.8763 25.0162 35.8763 25.0158C35.8763 25.0153 35.8763 25.0148 35.8763 25.0143C35.8763 25.0138 35.8763 25.0133 35.8763 25.0128C35.8763 25.0123 35.8763 25.0118 35.8763 25.0113C35.8763 25.0108 35.8763 25.0103 35.8763 25.0098C35.8763 25.0093 35.8763 25.0088 35.8763 25.0083C35.8763 25.0078 35.8763 25.0073 35.8763 25.0068C35.8763 25.0063 35.8763 25.0058 35.8763 25.0054C35.8763 25.0049 35.8763 25.0044 35.8763 25.0039C35.8763 25.0034 35.8763 25.0029 35.8763 25.0024C35.8763 25.0019 35.8763 25.0014 35.8763 25.0009C35.8763 25.0004 35.8763 24.9999 35.8763 24.9994C35.8763 24.9989 35.8763 24.9984 35.8763 24.998C35.8763 24.9975 35.8763 24.997 35.8763 24.9965C35.8763 24.996 35.8763 24.9955 35.8763 24.995C35.8763 24.9945 35.8763 24.994 35.8763 24.9935C35.8763 24.993 35.8763 24.9925 35.8763 24.992C35.8763 24.9916 35.8763 24.9911 35.8763 24.9906C35.8763 24.9901 35.8763 24.9896 35.8763 24.9891C35.8763 24.9886 35.8763 24.9881 35.8763 24.9876C35.8763 24.9871 35.8763 24.9866 35.8763 24.9862C35.8763 24.9857 35.8763 24.9852 35.8763 24.9847C35.8763 24.9842 35.8763 24.9837 35.8763 24.9832C35.8763 24.9827 35.8763 24.9822 35.8763 24.9817C35.8763 24.9813 35.8763 24.9808 35.8763 24.9803C35.8763 24.9798 35.8763 24.9793 35.8763 24.9788C35.8763 24.9783 35.8763 24.9778 35.8763 24.9773C35.8763 24.9769 35.8763 24.9764 35.8763 24.9759C35.8763 24.9754 35.8763 24.9749 35.8763 24.9744C35.8763 24.9739 35.8763 24.9734 35.8763 24.9729C35.8763 24.9725 35.8763 24.972 35.8763 24.9715C35.8763 24.971 35.8763 24.9705 35.8763 24.97C35.8763 24.9695 35.8763 24.969 35.8763 24.9686C35.8763 24.9681 35.8763 24.9676 35.8763 24.9671C35.8763 24.9666 35.8763 24.9661 35.8763 24.9656C35.8763 24.9651 35.8763 24.9647 35.8763 24.9642C35.8763 24.9637 35.8763 24.9632 35.8763 24.9627C35.8763 24.9622 35.8763 24.9617 35.8763 24.9613C35.8763 24.9608 35.8763 24.9603 35.8763 24.9598C35.8763 24.9593 35.8763 24.9588 35.8763 24.9583C35.8763 24.9579 35.8763 24.9574 35.8763 24.9569C35.8763 24.9564 35.8763 24.9559 35.8763 24.9554C35.8763 24.9549 35.8763 24.9545 35.8763 24.954C35.8763 24.9535 35.8763 24.953 35.8763 24.9525C35.8763 24.952 35.8763 24.9516 35.8763 24.9511C35.8763 24.9506 35.8763 24.9501 35.8763 24.9496C35.8763 24.9491 35.8763 24.9487 35.8763 24.9482C35.8763 24.9477 35.8763 24.9472 35.8763 24.9467C35.8763 24.9462 35.8763 24.9458 35.8763 24.9453C35.8763 24.9448 35.8763 24.9443 35.8763 24.9438C35.8763 24.9433 35.8763 24.9429 35.8763 24.9424C35.8763 24.9419 35.8763 24.9414 35.8763 24.9409C35.8763 24.9404 35.8763 24.94 35.8763 24.9395C35.8763 24.939 35.8763 24.9385 35.8763 24.938C35.8763 24.9376 35.8763 24.9371 35.8763 24.9366C35.8763 24.9361 35.8763 24.9356 35.8763 24.9352C35.8763 24.9347 35.8763 24.9342 35.8763 24.9337C35.8763 24.9332 35.8763 24.9327 35.8763 24.9323C35.8763 24.9318 35.8763 24.9313 35.8763 24.9308C35.8763 24.9303 35.8763 24.9299 35.8763 24.9294C35.8763 24.9289 35.8763 24.9284 35.8763 24.9279C35.8763 24.9275 35.8763 24.927 35.8763 24.9265C35.8763 24.926 35.8763 24.9256 35.8763 24.9251C35.8763 24.9246 35.8763 24.9241 35.8763 24.9236C35.8763 24.9232 35.8763 24.9227 35.8763 24.9222C35.8763 24.9217 35.8763 24.9212 35.8763 24.9208C35.8763 24.9203 35.8763 24.9198 35.8763 24.9193C35.8763 24.9189 35.8763 24.9184 35.8763 24.9179C35.8763 24.9174 35.8763 24.9169 35.8763 24.9165C35.8763 24.916 35.8763 24.9155 35.8763 24.915C35.8763 24.9146 35.8763 24.9141 35.8763 24.9136C35.8763 24.9131 35.8763 24.9126 35.8763 24.9122C35.8763 24.9117 35.8763 24.9112 35.8763 24.9107C35.8763 24.9103 35.8763 24.9098 35.8763 24.9093C35.8763 24.9088 35.8763 24.9084 35.8763 24.9079C35.8763 24.9074 35.8763 24.9069 35.8763 24.9065C35.8763 24.906 35.8763 24.9055 35.8763 24.905C35.8763 24.9046 35.8763 24.9041 35.8763 24.9036C35.8763 24.9031 35.8763 24.9027 35.8763 24.9022C35.8763 24.9017 35.8763 24.9012 35.8763 24.9008C35.8763 24.9003 35.8763 24.8998 35.8763 24.8993C35.8763 24.8989 35.8763 24.8984 35.8763 24.8979C35.8763 24.8974 35.8763 24.897 35.8763 24.8965C35.8763 24.896 35.8763 24.8956 35.8763 24.8951C35.8763 24.8946 35.8763 24.8941 35.8763 24.8937C35.8763 24.8932 35.8763 24.8927 35.8763 24.8922C35.8763 24.8918 35.8763 24.8913 35.8763 24.8908C35.8763 24.8903 35.8763 24.8899 35.8763 24.8894C35.8763 24.8889 35.8763 24.8885 35.8763 24.888C35.8763 24.8875 35.8763 24.887 35.8763 24.8866C35.8763 24.8861 35.8763 24.8856 35.8763 24.8852C35.8763 24.8847 35.8763 24.8842 35.8763 24.8837C35.8763 24.8833 35.8763 24.8828 35.8763 24.8823C35.8763 24.8819 35.8763 24.8814 35.8763 24.8809C35.8763 24.8805 35.8763 24.88 35.8763 24.8795C35.8763 24.879 35.8763 24.8786 35.8763 24.8781C35.8763 24.8776 35.8763 24.8772 35.8763 24.8767C35.8763 24.8762 35.8763 24.8758 35.8763 24.8753C35.8763 24.8748 35.8763 24.8743 35.8763 24.8739C35.8763 24.8734 35.8763 24.8729 35.8763 24.8725C35.8763 24.872 35.8763 24.8715 35.8763 24.8711C35.8763 24.8706 35.8763 24.8701 35.8763 24.8697C35.8763 24.8692 35.8763 24.8687 35.8763 24.8683C35.8763 24.8678 35.8763 24.8673 35.8763 24.8668C35.8763 24.8664 35.8763 24.8659 35.8763 24.8654C35.8763 24.865 35.8763 24.8645 35.8763 24.864C35.8763 24.8636 35.8763 24.8631 35.8763 24.8626C35.8763 24.8622 35.8763 24.8617 35.8763 24.8612C35.8763 24.8608 35.8763 24.8603 35.8763 24.8598C35.8763 24.8594 35.8763 24.8589 35.8763 24.8584C35.8763 24.858 35.8763 24.8575 35.8763 24.857C35.8763 24.8566 35.8763 24.8561 35.8763 24.8556C35.8763 24.8552 35.8763 24.8547 35.8763 24.8543C35.8763 24.8538 35.8763 24.8533 35.8763 24.8529C35.8763 24.8524 35.8763 24.8519 35.8763 24.8515C35.8763 24.851 35.8763 24.8505 35.8763 24.8501C35.8763 24.8496 35.8763 24.8491 35.8763 24.8487C35.8763 24.8482 35.8763 24.8477 35.8763 24.8473C35.8763 24.8468 35.8763 24.8464 35.8763 24.8459C35.8763 24.8454 35.8763 24.845 35.8763 24.8445C35.8763 24.844 35.8763 24.8436 35.8763 24.8431C35.8763 24.8426 35.8763 24.8422 35.8763 24.8417C35.8763 24.8413 35.8763 24.8408 35.8763 24.8403C35.8763 24.8399 35.8763 24.8394 35.8763 24.8389C35.8763 24.8385 35.8763 24.838 35.8763 24.8376C35.8763 24.8371 35.8763 24.8366 35.8763 24.8362C35.8763 24.8357 35.8763 24.8353 35.8763 24.8348C35.8763 24.8343 35.8763 24.8339 35.8763 24.8334C35.8763 24.8329 35.8763 24.8325 35.8763 24.832C35.8763 24.8316 35.8763 24.8311 35.8763 24.8306C35.8763 24.8302 35.8763 24.8297 35.8763 24.8293C35.8763 24.8288 35.8763 24.8283 35.8763 24.8279C35.8763 24.8274 35.8763 24.827 35.8763 24.8265C35.8763 24.826 35.8763 24.8256 35.8763 24.8251C35.8763 24.8247 35.8763 24.8242 35.8763 24.8237C35.8763 24.8233 35.8763 24.8228 35.8763 24.8224C35.8763 24.8219 35.8763 24.8214 35.8763 24.821C35.8763 24.8205 35.8763 24.8201 35.8763 24.8196C35.8763 24.8192 35.8763 24.8187 35.8763 24.8182C35.8763 24.8178 35.8763 24.8173 35.8763 24.8169C35.8763 24.8164 35.8763 24.8159 35.8763 24.8155C35.8763 24.815 35.8763 24.8146 35.8763 24.8141C35.8763 24.8137 35.8763 24.8132 35.8763 24.8127C35.8763 24.8123 35.8763 24.8118 35.8763 24.8114C35.8763 24.8109 35.8763 24.8105 35.8763 24.81C35.8763 24.8096 35.8763 24.8091 35.8763 24.8086C35.8763 24.8082 35.8763 24.8077 35.8763 24.8073C35.8763 24.8068 35.8763 24.8064 35.8763 24.8059C35.8763 24.8054 35.8763 24.805 35.8763 24.8045C35.8763 24.8041 35.8763 24.8036 35.8763 24.8032C35.8763 24.8027 35.8763 24.8023 35.8763 24.8018C35.8763 24.8014 35.8763 24.8009 35.8763 24.8004C35.8763 24.8 35.8763 24.7995 35.8763 24.7991C35.8763 24.7986 35.8763 24.7982 35.8763 24.7977C35.8763 24.7973 35.8763 24.7968 35.8763 24.7964C35.8763 24.7959 35.8763 24.7954 35.8763 24.795C35.8763 24.7945 35.8763 24.7941 35.8763 24.7936C35.8763 24.7932 35.8763 24.7927 35.8763 24.7923C35.8763 24.7918 35.8763 24.7914 35.8763 24.7909C35.8763 24.7905 35.8763 24.79 35.8763 24.7896C35.8763 24.7891 35.8763 24.7887 35.8763 24.7882C35.8763 24.7878 35.8763 24.7873 35.8763 24.7868C35.8763 24.7864 35.8763 24.7859 35.8763 24.7855C35.8763 24.785 35.8763 24.7846 35.8763 24.7841C35.8763 24.7837 35.8763 24.7832 35.8763 24.7828C35.8763 24.7823 35.8763 24.7819 35.8763 24.7814C35.8763 24.781 35.8763 24.7805 35.8763 24.7801C35.8763 24.7796 35.8763 24.7792 35.8763 24.7787C35.8763 24.7783 35.8763 24.7778 35.8763 24.7774C35.8763 24.7769 35.8763 24.7765 35.8763 24.776C35.8763 24.7756 35.8763 24.7751 35.8763 24.7747C35.8763 24.7742 35.8763 24.7738 35.8763 24.7733C35.8763 24.7729 35.8763 24.7724 35.8763 24.772C35.8763 24.7715 35.8763 24.7711 35.8763 24.7706C35.8763 24.7702 35.8763 24.7697 35.8763 24.7693C35.8763 24.7688 35.8763 24.7684 35.8763 24.768C35.8763 24.7675 35.8763 24.7671 35.8763 24.7666C35.8763 24.7662 35.8763 24.7657 35.8763 24.7653C35.8763 24.7648 35.8763 24.7644 35.8763 24.7639C35.8763 24.7635 35.8763 24.763 35.8763 24.7626C35.8763 24.7621 35.8763 24.7617 35.8763 24.7612C35.8763 24.7608 35.8763 24.7603 35.8763 24.7599C35.8763 24.7595 35.8763 24.759 35.8763 24.7586C35.8763 24.7581 35.8763 24.7577 35.8763 24.7572C35.8763 24.7568 35.8763 24.7563 35.8763 24.7559C35.8763 24.7554 35.8763 24.755 35.8763 24.7546C35.8763 24.7541 35.8763 24.7537 35.8763 24.7532C35.8763 24.7528 35.8763 24.7523 35.8763 24.7519C35.8763 24.7514 35.8763 24.751 35.8763 24.7505C35.8763 24.7501 35.8763 24.7497 35.8763 24.7492C35.8763 24.7488 35.8763 24.7483 35.8763 24.7479C35.8763 24.7474 35.8763 24.747 35.8763 24.7466C35.8763 24.7461 35.8763 24.7457 35.8763 24.7452C35.8763 24.7448 35.8763 24.7443 35.8763 24.7439C35.8763 24.7435 35.8763 24.743 35.8763 24.7426C35.8763 24.7421 35.8763 24.7417 35.8763 24.7412C35.8763 24.7408 35.8763 24.7404 35.8763 24.7399C35.8763 24.7395 35.8763 24.739 35.8763 24.7386C35.8763 24.7381 35.8763 24.7377 35.8763 24.7373C35.8763 24.7368 35.8763 24.7364 35.8763 24.7359C35.8763 24.7355 35.8763 24.7351 35.8763 24.7346C35.8763 24.7342 35.8763 24.7337 35.8763 24.7333C35.8763 24.7328 35.8763 24.7324 35.8763 24.732C35.8763 24.7315 35.8763 24.7311 35.8763 24.7306C35.8763 24.7302 35.8763 24.7298 35.8763 24.7293C35.8763 24.7289 35.8763 24.7284 35.8763 24.728C35.8763 24.7276 35.8763 24.7271 35.8763 24.7267C35.8763 24.7262 35.8763 24.7258 35.8763 24.7254C35.8763 24.7249 35.8763 24.7245 35.8763 24.7241C35.8763 24.7236 35.8763 24.7232 35.8763 24.7227C35.8763 24.7223 35.8763 24.7219 35.8763 24.7214C35.8763 24.721 35.8763 24.7205 35.8763 24.7201C35.8763 24.7197 35.8763 24.7192 35.8763 24.7188C35.8763 24.7184 35.8763 24.7179 35.8763 24.7175C35.8763 24.717 35.8763 24.7166 35.8763 24.7162C35.8763 24.7157 35.8763 24.7153 35.8763 24.7149C35.8763 24.7144 35.8763 24.714 35.8763 24.7135C35.8763 24.7131 35.8763 24.7127 35.8763 24.7122C35.8763 24.7118 35.8763 24.7114 35.8763 24.7109C35.8763 24.7105 35.8763 24.7101 35.8763 24.7096C35.8763 24.7092 35.8763 24.7087 35.8763 24.7083C35.8763 24.7079 35.8763 24.7074 35.8763 24.707C35.8763 24.7066 35.8763 24.7061 35.8763 24.7057C35.8763 24.7053 35.8763 24.7048 35.8763 24.7044C35.8763 24.704 35.8763 24.7035 35.8763 24.7031C35.8763 24.7027 35.8763 24.7022 35.8763 24.7018C35.8763 24.7014 35.8763 24.7009 35.8763 24.7005C35.8763 24.7 35.8763 24.6996 35.8763 24.6992C35.8763 24.6987 35.8763 24.6983 35.8763 24.6979C35.8763 24.6974 35.8763 24.697 35.8763 24.6966C35.8763 24.6961 35.8763 24.6957 35.8763 24.6953C35.8763 24.6948 35.8763 24.6944 35.8763 24.694C35.8763 24.6936 35.8763 24.6931 35.8763 24.6927C35.8763 24.6923 35.8763 24.6918 35.8763 24.6914C35.8763 24.691 35.8763 24.6905 35.8763 24.6901C35.8763 24.6897 35.8763 24.6892 35.8763 24.6888C35.8763 24.6884 35.8763 24.6879 35.8763 24.6875C35.8763 24.6871 35.8763 24.6866 35.8763 24.6862C35.8763 24.6858 35.8763 24.6854 35.8763 24.6849C35.8763 24.6845 35.8763 24.6841 35.8763 24.6836C35.8763 24.6832 35.8763 24.6828 35.8763 24.6823C35.8763 24.6819 35.8763 24.6815 35.8763 24.681C35.8763 24.6806 35.8763 24.6802 35.8763 24.6798C35.8763 24.6793 35.8763 24.6789 35.8763 24.6785C35.8763 24.678 35.8763 24.6776 35.8763 24.6772C35.8763 24.6768 35.8763 24.6763 35.8763 24.6759C35.8763 24.6755 35.8763 24.675 35.8763 24.6746C35.8763 24.6742 35.8763 24.6738 35.8763 24.6733C35.8763 24.6729 35.8763 24.6725 35.8763 24.672C35.8763 24.6716 35.8763 24.6712 35.8763 24.6708C35.8763 24.6703 35.8763 24.6699 35.8763 24.6695C35.8763 24.669 35.8763 24.6686 35.8763 24.6682C35.8763 24.6678 35.8763 24.6673 35.8763 24.6669C35.8763 24.6665 35.8763 24.6661 35.8763 24.6656C35.8763 24.6652 35.8763 24.6648 35.8763 24.6644C35.8763 24.6639 35.8763 24.6635 35.8763 24.6631C35.8763 24.6626 35.8763 24.6622 35.8763 24.6618C35.8763 24.6614 35.8763 24.6609 35.8763 24.6605C35.8763 24.6601 35.8763 24.6597 35.8763 24.6592C35.8763 24.6588 35.8763 24.6584 35.8763 24.658C35.8763 24.6575 35.8763 24.6571 35.8763 24.6567C35.8763 24.6563 35.8763 24.6558 35.8763 24.6554C35.8763 24.655 35.8763 24.6546 35.8763 24.6541C35.8763 24.6537 35.8763 24.6533 35.8763 24.6529C35.8763 24.6525 35.8763 24.652 35.8763 24.6516C35.8763 24.6512 35.8763 24.6508 35.8763 24.6503C35.8763 24.6499 35.8763 24.6495 35.8763 24.6491C35.8763 24.6486 35.8763 24.6482 35.8763 24.6478C35.8763 24.6474 35.8763 24.647 35.8763 24.6465C35.8763 24.6461 35.8763 24.6457 35.8763 24.6453C35.8763 24.6448 35.8763 24.6444 35.8763 24.644H19.8763C19.8763 24.6444 19.8763 24.6448 19.8763 24.6453C19.8763 24.6457 19.8763 24.6461 19.8763 24.6465C19.8763 24.647 19.8763 24.6474 19.8763 24.6478C19.8763 24.6482 19.8763 24.6486 19.8763 24.6491C19.8763 24.6495 19.8763 24.6499 19.8763 24.6503C19.8763 24.6508 19.8763 24.6512 19.8763 24.6516C19.8763 24.652 19.8763 24.6525 19.8763 24.6529C19.8763 24.6533 19.8763 24.6537 19.8763 24.6541C19.8763 24.6546 19.8763 24.655 19.8763 24.6554C19.8763 24.6558 19.8763 24.6563 19.8763 24.6567C19.8763 24.6571 19.8763 24.6575 19.8763 24.658C19.8763 24.6584 19.8763 24.6588 19.8763 24.6592C19.8763 24.6597 19.8763 24.6601 19.8763 24.6605C19.8763 24.6609 19.8763 24.6614 19.8763 24.6618C19.8763 24.6622 19.8763 24.6626 19.8763 24.6631C19.8763 24.6635 19.8763 24.6639 19.8763 24.6644C19.8763 24.6648 19.8763 24.6652 19.8763 24.6656C19.8763 24.6661 19.8763 24.6665 19.8763 24.6669C19.8763 24.6673 19.8763 24.6678 19.8763 24.6682C19.8763 24.6686 19.8763 24.669 19.8763 24.6695C19.8763 24.6699 19.8763 24.6703 19.8763 24.6708C19.8763 24.6712 19.8763 24.6716 19.8763 24.672C19.8763 24.6725 19.8763 24.6729 19.8763 24.6733C19.8763 24.6738 19.8763 24.6742 19.8763 24.6746C19.8763 24.675 19.8763 24.6755 19.8763 24.6759C19.8763 24.6763 19.8763 24.6768 19.8763 24.6772C19.8763 24.6776 19.8763 24.678 19.8763 24.6785C19.8763 24.6789 19.8763 24.6793 19.8763 24.6798C19.8763 24.6802 19.8763 24.6806 19.8763 24.681C19.8763 24.6815 19.8763 24.6819 19.8763 24.6823C19.8763 24.6828 19.8763 24.6832 19.8763 24.6836C19.8763 24.6841 19.8763 24.6845 19.8763 24.6849C19.8763 24.6854 19.8763 24.6858 19.8763 24.6862C19.8763 24.6866 19.8763 24.6871 19.8763 24.6875C19.8763 24.6879 19.8763 24.6884 19.8763 24.6888C19.8763 24.6892 19.8763 24.6897 19.8763 24.6901C19.8763 24.6905 19.8763 24.691 19.8763 24.6914C19.8763 24.6918 19.8763 24.6923 19.8763 24.6927C19.8763 24.6931 19.8763 24.6936 19.8763 24.694C19.8763 24.6944 19.8763 24.6948 19.8763 24.6953C19.8763 24.6957 19.8763 24.6961 19.8763 24.6966C19.8763 24.697 19.8763 24.6974 19.8763 24.6979C19.8763 24.6983 19.8763 24.6987 19.8763 24.6992C19.8763 24.6996 19.8763 24.7 19.8763 24.7005C19.8763 24.7009 19.8763 24.7014 19.8763 24.7018C19.8763 24.7022 19.8763 24.7027 19.8763 24.7031C19.8763 24.7035 19.8763 24.704 19.8763 24.7044C19.8763 24.7048 19.8763 24.7053 19.8763 24.7057C19.8763 24.7061 19.8763 24.7066 19.8763 24.707C19.8763 24.7074 19.8763 24.7079 19.8763 24.7083C19.8763 24.7087 19.8763 24.7092 19.8763 24.7096C19.8763 24.7101 19.8763 24.7105 19.8763 24.7109C19.8763 24.7114 19.8763 24.7118 19.8763 24.7122C19.8763 24.7127 19.8763 24.7131 19.8763 24.7135C19.8763 24.714 19.8763 24.7144 19.8763 24.7149C19.8763 24.7153 19.8763 24.7157 19.8763 24.7162C19.8763 24.7166 19.8763 24.717 19.8763 24.7175C19.8763 24.7179 19.8763 24.7184 19.8763 24.7188C19.8763 24.7192 19.8763 24.7197 19.8763 24.7201C19.8763 24.7205 19.8763 24.721 19.8763 24.7214C19.8763 24.7219 19.8763 24.7223 19.8763 24.7227C19.8763 24.7232 19.8763 24.7236 19.8763 24.7241C19.8763 24.7245 19.8763 24.7249 19.8763 24.7254C19.8763 24.7258 19.8763 24.7262 19.8763 24.7267C19.8763 24.7271 19.8763 24.7276 19.8763 24.728C19.8763 24.7284 19.8763 24.7289 19.8763 24.7293C19.8763 24.7298 19.8763 24.7302 19.8763 24.7306C19.8763 24.7311 19.8763 24.7315 19.8763 24.732C19.8763 24.7324 19.8763 24.7328 19.8763 24.7333C19.8763 24.7337 19.8763 24.7342 19.8763 24.7346C19.8763 24.7351 19.8763 24.7355 19.8763 24.7359C19.8763 24.7364 19.8763 24.7368 19.8763 24.7373C19.8763 24.7377 19.8763 24.7381 19.8763 24.7386C19.8763 24.739 19.8763 24.7395 19.8763 24.7399C19.8763 24.7404 19.8763 24.7408 19.8763 24.7412C19.8763 24.7417 19.8763 24.7421 19.8763 24.7426C19.8763 24.743 19.8763 24.7435 19.8763 24.7439C19.8763 24.7443 19.8763 24.7448 19.8763 24.7452C19.8763 24.7457 19.8763 24.7461 19.8763 24.7466C19.8763 24.747 19.8763 24.7474 19.8763 24.7479C19.8763 24.7483 19.8763 24.7488 19.8763 24.7492C19.8763 24.7497 19.8763 24.7501 19.8763 24.7505C19.8763 24.751 19.8763 24.7514 19.8763 24.7519C19.8763 24.7523 19.8763 24.7528 19.8763 24.7532C19.8763 24.7537 19.8763 24.7541 19.8763 24.7546C19.8763 24.755 19.8763 24.7554 19.8763 24.7559C19.8763 24.7563 19.8763 24.7568 19.8763 24.7572C19.8763 24.7577 19.8763 24.7581 19.8763 24.7586C19.8763 24.759 19.8763 24.7595 19.8763 24.7599C19.8763 24.7603 19.8763 24.7608 19.8763 24.7612C19.8763 24.7617 19.8763 24.7621 19.8763 24.7626C19.8763 24.763 19.8763 24.7635 19.8763 24.7639C19.8763 24.7644 19.8763 24.7648 19.8763 24.7653C19.8763 24.7657 19.8763 24.7662 19.8763 24.7666C19.8763 24.7671 19.8763 24.7675 19.8763 24.768C19.8763 24.7684 19.8763 24.7688 19.8763 24.7693C19.8763 24.7697 19.8763 24.7702 19.8763 24.7706C19.8763 24.7711 19.8763 24.7715 19.8763 24.772C19.8763 24.7724 19.8763 24.7729 19.8763 24.7733C19.8763 24.7738 19.8763 24.7742 19.8763 24.7747C19.8763 24.7751 19.8763 24.7756 19.8763 24.776C19.8763 24.7765 19.8763 24.7769 19.8763 24.7774C19.8763 24.7778 19.8763 24.7783 19.8763 24.7787C19.8763 24.7792 19.8763 24.7796 19.8763 24.7801C19.8763 24.7805 19.8763 24.781 19.8763 24.7814C19.8763 24.7819 19.8763 24.7823 19.8763 24.7828C19.8763 24.7832 19.8763 24.7837 19.8763 24.7841C19.8763 24.7846 19.8763 24.785 19.8763 24.7855C19.8763 24.7859 19.8763 24.7864 19.8763 24.7868C19.8763 24.7873 19.8763 24.7878 19.8763 24.7882C19.8763 24.7887 19.8763 24.7891 19.8763 24.7896C19.8763 24.79 19.8763 24.7905 19.8763 24.7909C19.8763 24.7914 19.8763 24.7918 19.8763 24.7923C19.8763 24.7927 19.8763 24.7932 19.8763 24.7936C19.8763 24.7941 19.8763 24.7945 19.8763 24.795C19.8763 24.7954 19.8763 24.7959 19.8763 24.7964C19.8763 24.7968 19.8763 24.7973 19.8763 24.7977C19.8763 24.7982 19.8763 24.7986 19.8763 24.7991C19.8763 24.7995 19.8763 24.8 19.8763 24.8004C19.8763 24.8009 19.8763 24.8014 19.8763 24.8018C19.8763 24.8023 19.8763 24.8027 19.8763 24.8032C19.8763 24.8036 19.8763 24.8041 19.8763 24.8045C19.8763 24.805 19.8763 24.8054 19.8763 24.8059C19.8763 24.8064 19.8763 24.8068 19.8763 24.8073C19.8763 24.8077 19.8763 24.8082 19.8763 24.8086C19.8763 24.8091 19.8763 24.8096 19.8763 24.81C19.8763 24.8105 19.8763 24.8109 19.8763 24.8114C19.8763 24.8118 19.8763 24.8123 19.8763 24.8127C19.8763 24.8132 19.8763 24.8137 19.8763 24.8141C19.8763 24.8146 19.8763 24.815 19.8763 24.8155C19.8763 24.8159 19.8763 24.8164 19.8763 24.8169C19.8763 24.8173 19.8763 24.8178 19.8763 24.8182C19.8763 24.8187 19.8763 24.8192 19.8763 24.8196C19.8763 24.8201 19.8763 24.8205 19.8763 24.821C19.8763 24.8214 19.8763 24.8219 19.8763 24.8224C19.8763 24.8228 19.8763 24.8233 19.8763 24.8237C19.8763 24.8242 19.8763 24.8247 19.8763 24.8251C19.8763 24.8256 19.8763 24.826 19.8763 24.8265C19.8763 24.827 19.8763 24.8274 19.8763 24.8279C19.8763 24.8283 19.8763 24.8288 19.8763 24.8293C19.8763 24.8297 19.8763 24.8302 19.8763 24.8306C19.8763 24.8311 19.8763 24.8316 19.8763 24.832C19.8763 24.8325 19.8763 24.8329 19.8763 24.8334C19.8763 24.8339 19.8763 24.8343 19.8763 24.8348C19.8763 24.8353 19.8763 24.8357 19.8763 24.8362C19.8763 24.8366 19.8763 24.8371 19.8763 24.8376C19.8763 24.838 19.8763 24.8385 19.8763 24.8389C19.8763 24.8394 19.8763 24.8399 19.8763 24.8403C19.8763 24.8408 19.8763 24.8413 19.8763 24.8417C19.8763 24.8422 19.8763 24.8426 19.8763 24.8431C19.8763 24.8436 19.8763 24.844 19.8763 24.8445C19.8763 24.845 19.8763 24.8454 19.8763 24.8459C19.8763 24.8464 19.8763 24.8468 19.8763 24.8473C19.8763 24.8477 19.8763 24.8482 19.8763 24.8487C19.8763 24.8491 19.8763 24.8496 19.8763 24.8501C19.8763 24.8505 19.8763 24.851 19.8763 24.8515C19.8763 24.8519 19.8763 24.8524 19.8763 24.8529C19.8763 24.8533 19.8763 24.8538 19.8763 24.8543C19.8763 24.8547 19.8763 24.8552 19.8763 24.8556C19.8763 24.8561 19.8763 24.8566 19.8763 24.857C19.8763 24.8575 19.8763 24.858 19.8763 24.8584C19.8763 24.8589 19.8763 24.8594 19.8763 24.8598C19.8763 24.8603 19.8763 24.8608 19.8763 24.8612C19.8763 24.8617 19.8763 24.8622 19.8763 24.8626C19.8763 24.8631 19.8763 24.8636 19.8763 24.864C19.8763 24.8645 19.8763 24.865 19.8763 24.8654C19.8763 24.8659 19.8763 24.8664 19.8763 24.8668C19.8763 24.8673 19.8763 24.8678 19.8763 24.8683C19.8763 24.8687 19.8763 24.8692 19.8763 24.8697C19.8763 24.8701 19.8763 24.8706 19.8763 24.8711C19.8763 24.8715 19.8763 24.872 19.8763 24.8725C19.8763 24.8729 19.8763 24.8734 19.8763 24.8739C19.8763 24.8743 19.8763 24.8748 19.8763 24.8753C19.8763 24.8758 19.8763 24.8762 19.8763 24.8767C19.8763 24.8772 19.8763 24.8776 19.8763 24.8781C19.8763 24.8786 19.8763 24.879 19.8763 24.8795C19.8763 24.88 19.8763 24.8805 19.8763 24.8809C19.8763 24.8814 19.8763 24.8819 19.8763 24.8823C19.8763 24.8828 19.8763 24.8833 19.8763 24.8837C19.8763 24.8842 19.8763 24.8847 19.8763 24.8852C19.8763 24.8856 19.8763 24.8861 19.8763 24.8866C19.8763 24.887 19.8763 24.8875 19.8763 24.888C19.8763 24.8885 19.8763 24.8889 19.8763 24.8894C19.8763 24.8899 19.8763 24.8903 19.8763 24.8908C19.8763 24.8913 19.8763 24.8918 19.8763 24.8922C19.8763 24.8927 19.8763 24.8932 19.8763 24.8937C19.8763 24.8941 19.8763 24.8946 19.8763 24.8951C19.8763 24.8956 19.8763 24.896 19.8763 24.8965C19.8763 24.897 19.8763 24.8974 19.8763 24.8979C19.8763 24.8984 19.8763 24.8989 19.8763 24.8993C19.8763 24.8998 19.8763 24.9003 19.8763 24.9008C19.8763 24.9012 19.8763 24.9017 19.8763 24.9022C19.8763 24.9027 19.8763 24.9031 19.8763 24.9036C19.8763 24.9041 19.8763 24.9046 19.8763 24.905C19.8763 24.9055 19.8763 24.906 19.8763 24.9065C19.8763 24.9069 19.8763 24.9074 19.8763 24.9079C19.8763 24.9084 19.8763 24.9088 19.8763 24.9093C19.8763 24.9098 19.8763 24.9103 19.8763 24.9107C19.8763 24.9112 19.8763 24.9117 19.8763 24.9122C19.8763 24.9126 19.8763 24.9131 19.8763 24.9136C19.8763 24.9141 19.8763 24.9146 19.8763 24.915C19.8763 24.9155 19.8763 24.916 19.8763 24.9165C19.8763 24.9169 19.8763 24.9174 19.8763 24.9179C19.8763 24.9184 19.8763 24.9189 19.8763 24.9193C19.8763 24.9198 19.8763 24.9203 19.8763 24.9208C19.8763 24.9212 19.8763 24.9217 19.8763 24.9222C19.8763 24.9227 19.8763 24.9232 19.8763 24.9236C19.8763 24.9241 19.8763 24.9246 19.8763 24.9251C19.8763 24.9256 19.8763 24.926 19.8763 24.9265C19.8763 24.927 19.8763 24.9275 19.8763 24.9279C19.8763 24.9284 19.8763 24.9289 19.8763 24.9294C19.8763 24.9299 19.8763 24.9303 19.8763 24.9308C19.8763 24.9313 19.8763 24.9318 19.8763 24.9323C19.8763 24.9327 19.8763 24.9332 19.8763 24.9337C19.8763 24.9342 19.8763 24.9347 19.8763 24.9352C19.8763 24.9356 19.8763 24.9361 19.8763 24.9366C19.8763 24.9371 19.8763 24.9376 19.8763 24.938C19.8763 24.9385 19.8763 24.939 19.8763 24.9395C19.8763 24.94 19.8763 24.9404 19.8763 24.9409C19.8763 24.9414 19.8763 24.9419 19.8763 24.9424C19.8763 24.9429 19.8763 24.9433 19.8763 24.9438C19.8763 24.9443 19.8763 24.9448 19.8763 24.9453C19.8763 24.9458 19.8763 24.9462 19.8763 24.9467C19.8763 24.9472 19.8763 24.9477 19.8763 24.9482C19.8763 24.9487 19.8763 24.9491 19.8763 24.9496C19.8763 24.9501 19.8763 24.9506 19.8763 24.9511C19.8763 24.9516 19.8763 24.952 19.8763 24.9525C19.8763 24.953 19.8763 24.9535 19.8763 24.954C19.8763 24.9545 19.8763 24.9549 19.8763 24.9554C19.8763 24.9559 19.8763 24.9564 19.8763 24.9569C19.8763 24.9574 19.8763 24.9579 19.8763 24.9583C19.8763 24.9588 19.8763 24.9593 19.8763 24.9598C19.8763 24.9603 19.8763 24.9608 19.8763 24.9613C19.8763 24.9617 19.8763 24.9622 19.8763 24.9627C19.8763 24.9632 19.8763 24.9637 19.8763 24.9642C19.8763 24.9647 19.8763 24.9651 19.8763 24.9656C19.8763 24.9661 19.8763 24.9666 19.8763 24.9671C19.8763 24.9676 19.8763 24.9681 19.8763 24.9686C19.8763 24.969 19.8763 24.9695 19.8763 24.97C19.8763 24.9705 19.8763 24.971 19.8763 24.9715C19.8763 24.972 19.8763 24.9725 19.8763 24.9729C19.8763 24.9734 19.8763 24.9739 19.8763 24.9744C19.8763 24.9749 19.8763 24.9754 19.8763 24.9759C19.8763 24.9764 19.8763 24.9769 19.8763 24.9773C19.8763 24.9778 19.8763 24.9783 19.8763 24.9788C19.8763 24.9793 19.8763 24.9798 19.8763 24.9803C19.8763 24.9808 19.8763 24.9813 19.8763 24.9817C19.8763 24.9822 19.8763 24.9827 19.8763 24.9832C19.8763 24.9837 19.8763 24.9842 19.8763 24.9847C19.8763 24.9852 19.8763 24.9857 19.8763 24.9862C19.8763 24.9866 19.8763 24.9871 19.8763 24.9876C19.8763 24.9881 19.8763 24.9886 19.8763 24.9891C19.8763 24.9896 19.8763 24.9901 19.8763 24.9906C19.8763 24.9911 19.8763 24.9916 19.8763 24.992C19.8763 24.9925 19.8763 24.993 19.8763 24.9935C19.8763 24.994 19.8763 24.9945 19.8763 24.995C19.8763 24.9955 19.8763 24.996 19.8763 24.9965C19.8763 24.997 19.8763 24.9975 19.8763 24.998C19.8763 24.9984 19.8763 24.9989 19.8763 24.9994C19.8763 24.9999 19.8763 25.0004 19.8763 25.0009C19.8763 25.0014 19.8763 25.0019 19.8763 25.0024C19.8763 25.0029 19.8763 25.0034 19.8763 25.0039C19.8763 25.0044 19.8763 25.0049 19.8763 25.0054C19.8763 25.0058 19.8763 25.0063 19.8763 25.0068C19.8763 25.0073 19.8763 25.0078 19.8763 25.0083C19.8763 25.0088 19.8763 25.0093 19.8763 25.0098C19.8763 25.0103 19.8763 25.0108 19.8763 25.0113C19.8763 25.0118 19.8763 25.0123 19.8763 25.0128C19.8763 25.0133 19.8763 25.0138 19.8763 25.0143C19.8763 25.0148 19.8763 25.0153 19.8763 25.0158C19.8763 25.0162 19.8763 25.0167 19.8763 25.0172C19.8763 25.0177 19.8763 25.0182 19.8763 25.0187C19.8763 25.0192 19.8763 25.0197 19.8763 25.0202C19.8763 25.0207 19.8763 25.0212 19.8763 25.0217C19.8763 25.0222 19.8763 25.0227 19.8763 25.0232C19.8763 25.0237 19.8763 25.0242 19.8763 25.0247C19.8763 25.0252 19.8763 25.0257 19.8763 25.0262C19.8763 25.0267 19.8763 25.0272 19.8763 25.0277C19.8763 25.0282 19.8763 25.0287 19.8763 25.0292C19.8763 25.0297 19.8763 25.0302 19.8763 25.0307C19.8763 25.0312 19.8763 25.0317 19.8763 25.0322C19.8763 25.0327 19.8763 25.0332 19.8763 25.0337C19.8763 25.0342 19.8763 25.0347 19.8763 25.0352C19.8763 25.0357 19.8763 25.0362 19.8763 25.0367C19.8763 25.0372 19.8763 25.0377 19.8763 25.0382C19.8763 25.0387 19.8763 25.0392 19.8763 25.0397C19.8763 25.0402 19.8763 25.0407 19.8763 25.0412C19.8763 25.0417 19.8763 25.0422 19.8763 25.0427C19.8763 25.0432 19.8763 25.0437 19.8763 25.0442C19.8763 25.0447 19.8763 25.0452 19.8763 25.0457C19.8763 25.0462 19.8763 25.0467 19.8763 25.0472C19.8763 25.0477 19.8763 25.0482 19.8763 25.0487C19.8763 25.0492 19.8763 25.0497 19.8763 25.0502C19.8763 25.0507 19.8763 25.0512 19.8763 25.0517C19.8763 25.0522 19.8763 25.0527 19.8763 25.0532C19.8763 25.0537 19.8763 25.0542 19.8763 25.0547C19.8763 25.0552 19.8763 25.0557 19.8763 25.0562C19.8763 25.0567 19.8763 25.0572 19.8763 25.0577C19.8763 25.0582 19.8763 25.0587 19.8763 25.0593C19.8763 25.0598 19.8763 25.0603 19.8763 25.0608C19.8763 25.0613 19.8763 25.0618 19.8763 25.0623C19.8763 25.0628 19.8763 25.0633 19.8763 25.0638C19.8763 25.0643 19.8763 25.0648 19.8763 25.0653C19.8763 25.0658 19.8763 25.0663 19.8763 25.0668C19.8763 25.0673 19.8763 25.0678 19.8763 25.0683C19.8763 25.0688 19.8763 25.0694 19.8763 25.0699C19.8763 25.0704 19.8763 25.0709 19.8763 25.0714C19.8763 25.0719 19.8763 25.0724 19.8763 25.0729C19.8763 25.0734 19.8763 25.0739 19.8763 25.0744C19.8763 25.0749 19.8763 25.0754 19.8763 25.0759C19.8763 25.0764 19.8763 25.0769 19.8763 25.0775C19.8763 25.078 19.8763 25.0785 19.8763 25.079C19.8763 25.0795 19.8763 25.08 19.8763 25.0805C19.8763 25.081 19.8763 25.0815 19.8763 25.082C19.8763 25.0825 19.8763 25.083 19.8763 25.0836C19.8763 25.0841 19.8763 25.0846 19.8763 25.0851C19.8763 25.0856 19.8763 25.0861 19.8763 25.0866C19.8763 25.0871 19.8763 25.0876 19.8763 25.0881C19.8763 25.0886 19.8763 25.0891 19.8763 25.0897C19.8763 25.0902 19.8763 25.0907 19.8763 25.0912C19.8763 25.0917 19.8763 25.0922 19.8763 25.0927C19.8763 25.0932 19.8763 25.0937 19.8763 25.0942C19.8763 25.0948 19.8763 25.0953 19.8763 25.0958C19.8763 25.0963 19.8763 25.0968 19.8763 25.0973C19.8763 25.0978 19.8763 25.0983 19.8763 25.0988C19.8763 25.0994 19.8763 25.0999 19.8763 25.1004C19.8763 25.1009 19.8763 25.1014 19.8763 25.1019C19.8763 25.1024 19.8763 25.1029 19.8763 25.1034C19.8763 25.104 19.8763 25.1045 19.8763 25.105C19.8763 25.1055 19.8763 25.106 19.8763 25.1065C19.8763 25.107 19.8763 25.1075 19.8763 25.1081C19.8763 25.1086 19.8763 25.1091 19.8763 25.1096C19.8763 25.1101 19.8763 25.1106 19.8763 25.1111C19.8763 25.1117 19.8763 25.1122 19.8763 25.1127C19.8763 25.1132 19.8763 25.1137 19.8763 25.1142C19.8763 25.1147 19.8763 25.1152 19.8763 25.1158C19.8763 25.1163 19.8763 25.1168 19.8763 25.1173C19.8763 25.1178 19.8763 25.1183 19.8763 25.1188C19.8763 25.1194 19.8763 25.1199 19.8763 25.1204C19.8763 25.1209 19.8763 25.1214 19.8763 25.1219C19.8763 25.1225 19.8763 25.123 19.8763 25.1235C19.8763 25.124 19.8763 25.1245 19.8763 25.125C19.8763 25.1255 19.8763 25.1261 19.8763 25.1266C19.8763 25.1271 19.8763 25.1276 19.8763 25.1281C19.8763 25.1286 19.8763 25.1292 19.8763 25.1297C19.8763 25.1302 19.8763 25.1307 19.8763 25.1312C19.8763 25.1317 19.8763 25.1323 19.8763 25.1328C19.8763 25.1333 19.8763 25.1338 19.8763 25.1343C19.8763 25.1348 19.8763 25.1354 19.8763 25.1359C19.8763 25.1364 19.8763 25.1369 19.8763 25.1374C19.8763 25.138 19.8763 25.1385 19.8763 25.139C19.8763 25.1395 19.8763 25.14 19.8763 25.1405C19.8763 25.1411 19.8763 25.1416 19.8763 25.1421C19.8763 25.1426 19.8763 25.1431 19.8763 25.1437C19.8763 25.1442 19.8763 25.1447 19.8763 25.1452C19.8763 25.1457 19.8763 25.1463 19.8763 25.1468C19.8763 25.1473 19.8763 25.1478 19.8763 25.1483C19.8763 25.1489 19.8763 25.1494 19.8763 25.1499C19.8763 25.1504 19.8763 25.1509 19.8763 25.1515C19.8763 25.152 19.8763 25.1525 19.8763 25.153C19.8763 25.1535 19.8763 25.1541 19.8763 25.1546C19.8763 25.1551 19.8763 25.1556 19.8763 25.1561C19.8763 25.1567 19.8763 25.1572 19.8763 25.1577C19.8763 25.1582 19.8763 25.1588 19.8763 25.1593C19.8763 25.1598 19.8763 25.1603 19.8763 25.1608C19.8763 25.1614 19.8763 25.1619 19.8763 25.1624C19.8763 25.1629 19.8763 25.1635 19.8763 25.164C19.8763 25.1645 19.8763 25.165 19.8763 25.1655C19.8763 25.1661 19.8763 25.1666 19.8763 25.1671C19.8763 25.1676 19.8763 25.1682 19.8763 25.1687C19.8763 25.1692 19.8763 25.1697 19.8763 25.1703C19.8763 25.1708 19.8763 25.1713 19.8763 25.1718C19.8763 25.1723 19.8763 25.1729 19.8763 25.1734C19.8763 25.1739 19.8763 25.1744 19.8763 25.175C19.8763 25.1755 19.8763 25.176 19.8763 25.1765C19.8763 25.1771 19.8763 25.1776 19.8763 25.1781C19.8763 25.1786 19.8763 25.1792 19.8763 25.1797C19.8763 25.1802 19.8763 25.1807 19.8763 25.1813C19.8763 25.1818 19.8763 25.1823 19.8763 25.1828C19.8763 25.1834 19.8763 25.1839 19.8763 25.1844C19.8763 25.185 19.8763 25.1855 19.8763 25.186C19.8763 25.1865 19.8763 25.1871 19.8763 25.1876C19.8763 25.1881 19.8763 25.1886 19.8763 25.1892C19.8763 25.1897 19.8763 25.1902 19.8763 25.1907C19.8763 25.1913 19.8763 25.1918 19.8763 25.1923C19.8763 25.1929 19.8763 25.1934 19.8763 25.1939C19.8763 25.1944 19.8763 25.195 19.8763 25.1955C19.8763 25.196 19.8763 25.1966 19.8763 25.1971C19.8763 25.1976 19.8763 25.1981 19.8763 25.1987C19.8763 25.1992 19.8763 25.1997 19.8763 25.2003C19.8763 25.2008 19.8763 25.2013 19.8763 25.2018C19.8763 25.2024 19.8763 25.2029 19.8763 25.2034C19.8763 25.204 19.8763 25.2045 19.8763 25.205C19.8763 25.2056 19.8763 25.2061 19.8763 25.2066C19.8763 25.2071 19.8763 25.2077 19.8763 25.2082C19.8763 25.2087 19.8763 25.2093 19.8763 25.2098C19.8763 25.2103 19.8763 25.2109 19.8763 25.2114C19.8763 25.2119 19.8763 25.2124 19.8763 25.213C19.8763 25.2135 19.8763 25.214 19.8763 25.2146C19.8763 25.2151 19.8763 25.2156 19.8763 25.2162C19.8763 25.2167 19.8763 25.2172 19.8763 25.2178C19.8763 25.2183 19.8763 25.2188 19.8763 25.2194C19.8763 25.2199 19.8763 25.2204 19.8763 25.221C19.8763 25.2215 19.8763 25.222 19.8763 25.2226C19.8763 25.2231 19.8763 25.2236 19.8763 25.2242C19.8763 25.2247 19.8763 25.2252 19.8763 25.2258C19.8763 25.2263 19.8763 25.2268 19.8763 25.2274C19.8763 25.2279 19.8763 25.2284 19.8763 25.229C19.8763 25.2295 19.8763 25.23 19.8763 25.2306C19.8763 25.2311 19.8763 25.2316 19.8763 25.2322C19.8763 25.2327 19.8763 25.2332 19.8763 25.2338C19.8763 25.2343 19.8763 25.2348 19.8763 25.2354C19.8763 25.2359 19.8763 25.2364 19.8763 25.237C19.8763 25.2375 19.8763 25.238 19.8763 25.2386C19.8763 25.2391 19.8763 25.2397 19.8763 25.2402C19.8763 25.2407 19.8763 25.2413 19.8763 25.2418C19.8763 25.2423 19.8763 25.2429 19.8763 25.2434C19.8763 25.2439 19.8763 25.2445 19.8763 25.245C19.8763 25.2456 19.8763 25.2461 19.8763 25.2466C19.8763 25.2472 19.8763 25.2477 19.8763 25.2482C19.8763 25.2488 19.8763 25.2493 19.8763 25.2498C19.8763 25.2504 19.8763 25.2509 19.8763 25.2515C19.8763 25.252 19.8763 25.2525 19.8763 25.2531C19.8763 25.2536 19.8763 25.2542 19.8763 25.2547C19.8763 25.2552 19.8763 25.2558 19.8763 25.2563C19.8763 25.2568 19.8763 25.2574 19.8763 25.2579C19.8763 25.2585 19.8763 25.259 19.8763 25.2595C19.8763 25.2601 19.8763 25.2606 19.8763 25.2612C19.8763 25.2617 19.8763 25.2622 19.8763 25.2628C19.8763 25.2633 19.8763 25.2639 19.8763 25.2644C19.8763 25.2649 19.8763 25.2655 19.8763 25.266C19.8763 25.2666 19.8763 25.2671 19.8763 25.2676C19.8763 25.2682 19.8763 25.2687 19.8763 25.2693C19.8763 25.2698 19.8763 25.2703 19.8763 25.2709C19.8763 25.2714 19.8763 25.272 19.8763 25.2725C19.8763 25.273 19.8763 25.2736 19.8763 25.2741C19.8763 25.2747 19.8763 25.2752 19.8763 25.2758C19.8763 25.2763 19.8763 25.2768 19.8763 25.2774C19.8763 25.2779 19.8763 25.2785 19.8763 25.279C19.8763 25.2795 19.8763 25.2801 19.8763 25.2806C19.8763 25.2812 19.8763 25.2817 19.8763 25.2823C19.8763 25.2828 19.8763 25.2833 19.8763 25.2839C19.8763 25.2844 19.8763 25.285 19.8763 25.2855C19.8763 25.2861 19.8763 25.2866 19.8763 25.2872C19.8763 25.2877 19.8763 25.2882 19.8763 25.2888C19.8763 25.2893 19.8763 25.2899 19.8763 25.2904C19.8763 25.291 19.8763 25.2915 19.8763 25.2921C19.8763 25.2926 19.8763 25.2931 19.8763 25.2937C19.8763 25.2942 19.8763 25.2948 19.8763 25.2953C19.8763 25.2959 19.8763 25.2964 19.8763 25.297C19.8763 25.2975 19.8763 25.298 19.8763 25.2986C19.8763 25.2991 19.8763 25.2997 19.8763 25.3002C19.8763 25.3008 19.8763 25.3013 19.8763 25.3019C19.8763 25.3024 19.8763 25.303 19.8763 25.3035C19.8763 25.3041 19.8763 25.3046 19.8763 25.3052C19.8763 25.3057 19.8763 25.3062 19.8763 25.3068C19.8763 25.3073 19.8763 25.3079 19.8763 25.3084C19.8763 25.309 19.8763 25.3095 19.8763 25.3101C19.8763 25.3106 19.8763 25.3112 19.8763 25.3117C19.8763 25.3123 19.8763 25.3128 19.8763 25.3134C19.8763 25.3139 19.8763 25.3145 19.8763 25.315C19.8763 25.3156 19.8763 25.3161 19.8763 25.3167C19.8763 25.3172 19.8763 25.3178 19.8763 25.3183C19.8763 25.3189 19.8763 25.3194 19.8763 25.3199C19.8763 25.3205 19.8763 25.321 19.8763 25.3216C19.8763 25.3221 19.8763 25.3227 19.8763 25.3232C19.8763 25.3238 19.8763 25.3243 19.8763 25.3249C19.8763 25.3254 19.8763 25.326 19.8763 25.3265C19.8763 25.3271 19.8763 25.3276 19.8763 25.3282C19.8763 25.3287 19.8763 25.3293 19.8763 25.3299C19.8763 25.3304 19.8763 25.331 19.8763 25.3315C19.8763 25.3321 19.8763 25.3326 19.8763 25.3332C19.8763 25.3337 19.8763 25.3343 19.8763 25.3348C19.8763 25.3354 19.8763 25.3359 19.8763 25.3365C19.8763 25.337 19.8763 25.3376 19.8763 25.3381C19.8763 25.3387 19.8763 25.3392 19.8763 25.3398C19.8763 25.3403 19.8763 25.3409 19.8763 25.3414C19.8763 25.342 19.8763 25.3425 19.8763 25.3431C19.8763 25.3437 19.8763 25.3442 19.8763 25.3448C19.8763 25.3453 19.8763 25.3459 19.8763 25.3464C19.8763 25.347 19.8763 25.3475 19.8763 25.3481C19.8763 25.3486 19.8763 25.3492 19.8763 25.3497C19.8763 25.3503 19.8763 25.3509 19.8763 25.3514C19.8763 25.352 19.8763 25.3525 19.8763 25.3531C19.8763 25.3536 19.8763 25.3542 19.8763 25.3547C19.8763 25.3553 19.8763 25.3558 19.8763 25.3564C19.8763 25.357 19.8763 25.3575 19.8763 25.3581C19.8763 25.3586 19.8763 25.3592 19.8763 25.3597C19.8763 25.3603 19.8763 25.3608 19.8763 25.3614C19.8763 25.362 19.8763 25.3625 19.8763 25.3631C19.8763 25.3636 19.8763 25.3642 19.8763 25.3647C19.8763 25.3653 19.8763 25.3659 19.8763 25.3664C19.8763 25.367 19.8763 25.3675 19.8763 25.3681C19.8763 25.3686 19.8763 25.3692 19.8763 25.3698C19.8763 25.3703 19.8763 25.3709 19.8763 25.3714C19.8763 25.372 19.8763 25.3725 19.8763 25.3731C19.8763 25.3737 19.8763 25.3742 19.8763 25.3748C19.8763 25.3753 19.8763 25.3759 19.8763 25.3765C19.8763 25.377 19.8763 25.3776 19.8763 25.3781C19.8763 25.3787 19.8763 25.3792 19.8763 25.3798C19.8763 25.3804 19.8763 25.3809 19.8763 25.3815C19.8763 25.382 19.8763 25.3826 19.8763 25.3832C19.8763 25.3837 19.8763 25.3843 19.8763 25.3848C19.8763 25.3854 19.8763 25.386 19.8763 25.3865C19.8763 25.3871 19.8763 25.3876 19.8763 25.3882C19.8763 25.3888 19.8763 25.3893 19.8763 25.3899C19.8763 25.3905 19.8763 25.391 19.8763 25.3916C19.8763 25.3921 19.8763 25.3927 19.8763 25.3933C19.8763 25.3938 19.8763 25.3944 19.8763 25.3949C19.8763 25.3955 19.8763 25.3961 19.8763 25.3966C19.8763 25.3972 19.8763 25.3978 19.8763 25.3983C19.8763 25.3989 19.8763 25.3994 19.8763 25.4H35.8763ZM35.8763 24.644C35.8763 22.8068 35.7387 21.0006 35.4373 19.2423L19.6673 21.9457C19.7979 22.7074 19.8763 23.6012 19.8763 24.644H35.8763ZM35.4762 19.4935C35.1945 17.4649 34.6159 15.3955 33.5701 13.4532L19.4825 21.0388C19.4447 20.9685 19.5501 21.1311 19.6284 21.6945L35.4762 19.4935ZM33.7343 13.7755C32.6505 11.5245 30.9917 9.58367 28.7683 8.19402L20.2883 21.762C20.0708 21.6261 19.8578 21.4481 19.6729 21.2382C19.4902 21.0309 19.3788 20.8422 19.3183 20.7165L33.7343 13.7755ZM29.0968 8.41075C26.6269 6.69257 23.88 6.114 21.3963 6.114V22.114C21.4326 22.114 20.7737 22.1114 19.9598 21.5452L29.0968 8.41075ZM21.3963 6.114C19.2372 6.114 16.9118 6.56772 14.7272 7.81606L22.6654 21.7079C21.9928 22.0923 21.4674 22.114 21.3963 22.114V6.114ZM14.5803 7.90205C12.8859 8.91871 11.4391 10.271 10.3118 11.9185L23.5168 20.9535C23.4298 21.0805 23.3197 21.2118 23.1882 21.3353C23.057 21.4586 22.9266 21.5533 22.8123 21.6219L14.5803 7.90205ZM10.3118 11.9185C9.34494 13.3317 8.62322 14.8839 8.17019 16.5451L23.6064 20.7549C23.5978 20.7866 23.5842 20.8254 23.5653 20.8662C23.5464 20.9068 23.5283 20.9366 23.5168 20.9535L10.3118 11.9185ZM8.17019 16.5451C7.78303 17.9646 7.5643 19.4468 7.5643 20.972H23.5643C23.5643 20.9852 23.5616 20.9194 23.6064 20.7549L8.17019 16.5451ZM7.5643 20.972C7.5643 24.3151 8.35392 28.2687 11.2881 31.4053L22.9725 20.4747C23.3724 20.9023 23.5362 21.2989 23.5857 21.4559C23.6249 21.5803 23.5643 21.4596 23.5643 20.972H7.5643ZM11.3815 31.5034C14.5461 34.7735 18.7186 35.614 22.1523 35.614V19.614C21.6456 19.614 21.5522 19.5482 21.7256 19.606C21.9412 19.6779 22.4092 19.8911 22.8791 20.3766L11.3815 31.5034ZM23.9491 24.2835C23.6945 24.4001 23.3236 24.5315 22.7995 24.6399L26.0411 40.3081C27.6049 39.9845 29.1421 39.5039 30.6155 38.8285L23.9491 24.2835ZM22.7995 24.6399C22.2379 24.7561 21.7743 24.798 21.3963 24.798V40.798C22.9623 40.798 24.5147 40.6239 26.0411 40.3081L22.7995 24.6399ZM21.3963 24.798C19.812 24.798 18.8813 24.5884 18.4062 24.4157L12.9384 39.4523C15.6313 40.4316 18.5166 40.798 21.3963 40.798V24.798ZM18.6136 24.4943C17.9715 24.2405 17.7001 24.0036 17.5935 23.8932L6.08308 35.0068C7.99253 36.9844 10.2771 38.4035 12.731 39.3737L18.6136 24.4943ZM17.7847 24.0983C17.5624 23.8514 17.3945 23.5745 17.2678 23.1942L2.08883 28.2538C2.89806 30.6815 4.17015 32.8886 5.89194 34.8017L17.7847 24.0983ZM17.2678 23.1942C17.0962 22.6794 16.9763 22.0292 16.9763 21.188H0.976297C0.976297 23.5868 1.32443 25.9606 2.08883 28.2538L17.2678 23.1942ZM16.9763 21.188C16.9763 20.687 17.0578 20.0987 17.2866 19.3947L2.07002 14.4493C1.36283 16.6253 0.976297 18.881 0.976297 21.188H16.9763ZM17.3041 19.3399C17.4559 18.8613 17.6931 18.4125 18.0677 17.9577L5.71686 7.78634C4.07546 9.77946 2.83667 12.0307 2.05245 14.504L17.3041 19.3399ZM18.0677 17.9577C18.287 17.6914 18.6274 17.3883 19.237 17.0905L12.2156 2.71346C9.72923 3.92774 7.51359 5.60459 5.71686 7.78634L18.0677 17.9577ZM19.3701 17.024C19.5673 16.9231 20.1006 16.714 21.2343 16.714V0.713997C18.12 0.713997 14.9813 1.29688 12.0825 2.78001L19.3701 17.024ZM21.2343 16.714C23.7559 16.714 24.49 17.4259 24.877 17.9191L37.4636 8.04094C33.3866 2.8461 27.4966 0.713997 21.2343 0.713997V16.714ZM24.9468 18.0067C25.6635 18.894 26.5723 20.8329 26.5723 24.914H42.5723C42.5723 18.6991 41.2131 12.682 37.3938 7.9533L24.9468 18.0067ZM26.5723 24.914C26.5723 30.8741 25.054 34.0266 23.2994 35.7811L34.6132 47.0949C40.3466 41.3614 42.5723 33.4979 42.5723 24.914H26.5723ZM23.2994 35.7811C21.6156 37.465 18.2951 39.0774 11.6931 39.1081L11.7675 55.1079C20.6455 55.0666 28.809 52.899 34.6132 47.0949L23.2994 35.7811ZM19.7205 46.7124L19.4505 41.2584L3.47008 42.0496L3.74008 47.5036L19.7205 46.7124ZM11.4603 49.654C14.0517 49.654 16.5559 49.4392 18.9239 48.9458L15.6607 33.2822C14.5727 33.5088 13.1889 33.654 11.4603 33.654V49.654ZM18.892 48.9524C21.401 48.4404 23.8342 47.5687 26.0539 46.2123L17.7107 32.5597C17.3384 32.7873 16.7116 33.0676 15.6926 33.2756L18.892 48.9524ZM25.9709 46.2623C28.2547 44.9044 30.1955 43.1205 31.7402 40.9579L18.7204 31.6581C18.4651 32.0155 18.1739 32.2836 17.7937 32.5097L25.9709 46.2623ZM31.8013 40.8712C33.3612 38.6248 34.3913 36.1047 35.0434 33.4963L19.5212 29.6157C19.2373 30.7513 18.8994 31.3992 18.6593 31.7448L31.8013 40.8712Z" fill="white"/>
<path d="M22.1523 27.614C23.1963 27.614 24.2223 27.524 25.2303 27.344C26.2383 27.128 27.1023 26.822 27.8223 26.426C27.8583 26.03 27.8763 25.688 27.8763 25.4C27.8763 25.112 27.8763 24.86 27.8763 24.644C27.8763 23.204 27.7683 21.854 27.5523 20.594C27.3723 19.298 27.0303 18.182 26.5263 17.246C26.0583 16.274 25.3923 15.518 24.5283 14.978C23.7003 14.402 22.6563 14.114 21.3963 14.114C20.3523 14.114 19.4523 14.33 18.6963 14.762C17.9763 15.194 17.3823 15.752 16.9143 16.436C16.4463 17.12 16.1043 17.858 15.8883 18.65C15.6723 19.442 15.5643 20.216 15.5643 20.972C15.5643 23.168 16.0863 24.824 17.1303 25.94C18.2103 27.056 19.8843 27.614 22.1523 27.614ZM27.2823 31.556C26.4183 31.952 25.4643 32.258 24.4203 32.474C23.3763 32.69 22.3683 32.798 21.3963 32.798C19.1643 32.798 17.2563 32.51 15.6723 31.934C14.1243 31.322 12.8463 30.494 11.8383 29.45C10.8663 28.37 10.1463 27.128 9.6783 25.724C9.2103 24.32 8.9763 22.808 8.9763 21.188C8.9763 19.784 9.2103 18.362 9.6783 16.922C10.1463 15.446 10.8843 14.096 11.8923 12.872C12.9003 11.648 14.1783 10.658 15.7263 9.902C17.2743 9.11 19.1103 8.714 21.2343 8.714C25.6263 8.714 28.9383 10.136 31.1703 12.98C33.4383 15.788 34.5723 19.766 34.5723 24.914C34.5723 32.186 32.7003 37.694 28.9563 41.438C25.2123 45.182 19.4703 47.072 11.7303 47.108L11.4603 41.654C13.6203 41.654 15.5643 41.474 17.2923 41.114C19.0563 40.754 20.5863 40.178 21.8823 39.386C23.2143 38.594 24.3303 37.568 25.2303 36.308C26.1303 35.012 26.8143 33.428 27.2823 31.556Z" fill="#70C000"/>
</svg>
