<svg width="216" height="429" viewBox="0 0 216 429" fill="none" xmlns="http://www.w3.org/2000/svg">
<path d="M2 130.429V130.429C0.895431 130.429 0 131.324 0 132.429V156.429C0 157.533 0.895431 158.429 2 158.429V158.429V130.429Z" fill="#BBBBBB"/>
<path d="M2 94.4282V94.4282C0.895431 94.4282 0 95.3237 0 96.4282V120.428C0 121.533 0.895431 122.428 2 122.428V122.428V94.4282Z" fill="#BBBBBB"/>
<path d="M2 62.4282V62.4282C0.895431 62.4282 0 63.3237 0 64.4282V75.4282C0 76.5328 0.895431 77.4282 2 77.4282V77.4282V62.4282Z" fill="#BBBBBB"/>
<path d="M214 97.4282V97.4282C215.105 97.4282 216 98.3237 216 99.4282V151.428C216 152.533 215.105 153.428 214 153.428V153.428V97.4282Z" fill="#BBBBBB"/>
<path d="M2 36.7678C2 16.698 18.2051 0.428223 38.1951 0.428223H177.805C197.795 0.428223 214 16.698 214 36.7678V392.089C214 412.158 197.795 428.428 177.805 428.428H38.1951C18.2051 428.428 2 412.158 2 392.089V36.7678Z" fill="#A6A6A6"/>
<path d="M5 36.9634C5 18.3621 19.9873 3.28271 38.475 3.28271H177.525C196.013 3.28271 211 18.3621 211 36.9634V391.602C211 410.203 196.013 425.283 177.525 425.283H38.475C19.9873 425.283 5 410.203 5 391.602V36.9634Z" fill="black"/>
<rect x="14.131" y="12.396" width="187.738" height="403.774" rx="26" fill="#F9F9F9"/>
<path d="M161.314 13.3652C162.263 12.2239 164.007 12.4068 164.007 12.4068V10.3687H51.9934V12.4068C51.9934 12.4068 53.5768 12.3295 54.4919 13.4005C55.407 14.4716 55.2935 14.8223 55.3794 15.3887C55.4654 15.9551 54.4919 27.4462 68.0279 27.5419C81.5638 27.6376 134.946 27.5898 148.01 27.5419C161.075 27.494 160.14 16.2267 160.329 15.3975C160.519 14.5684 160.365 14.5065 161.314 13.3652Z" fill="black"/>
<path d="M75.7266 413.697L140.34 413.685" stroke="black" stroke-width="2.5" stroke-linecap="round" stroke-linejoin="round"/>
<rect x="184.388" y="384.82" width="9.17298" height="9.17578" stroke="#3478F7" stroke-width="0.5"/>
<rect x="183.712" y="386.895" width="7.73201" height="7.7295" fill="#F9F9F9"/>
<rect x="181.534" y="387.654" width="9.17298" height="9.17578" stroke="#3478F7" stroke-width="0.5"/>
<path d="M147.625 396.874C145.891 394.406 144.426 395.033 141.728 396.5V387.001C143.443 385.523 145.177 384.421 147.625 387.244M147.625 396.874C149.363 394.601 150.847 394.816 153.504 396.5V387.001C151.468 384.98 149.505 384.983 147.625 387.244M147.625 396.874V387.244" stroke="#3478F7" stroke-width="0.5" stroke-linejoin="round"/>
<path d="M14.131 377.668H201.869" stroke="#CCCCCC"/>
<path d="M14.131 59.2119H201.869" stroke="#CCCCCC"/>
<rect x="103.152" y="387.854" width="8.93882" height="9.00439" stroke="#3478F7" stroke-width="0.5"/>
<rect x="106.342" y="387.059" width="2.52012" height="1.69821" fill="#F7F8F9"/>
<path d="M107.602 392.069L107.602 384.015M107.602 384.015L109.622 385.981M107.602 384.015L105.566 385.981" stroke="#3478F7" stroke-width="0.5" stroke-linejoin="round"/>
<path d="M64.7579 386.925L68.96 391.039L64.7579 395.254" stroke="#DBDCDD" stroke-width="0.7" stroke-linejoin="round"/>
<path d="M27.0642 386.925L22.9178 391.039L27.0642 395.254" stroke="#357AF6" stroke-width="0.8" stroke-linejoin="round"/>
<rect x="18.7848" y="36.4722" width="178.087" height="17.9417" rx="5" fill="#E8E8EA"/>
<path d="M191.869 46.2913C191.61 48.2306 190.913 49.2874 188.631 49.2874C186.348 49.2874 185.494 47.6298 185.494 45.9725C185.494 44.3151 186.705 42.7721 188.631 42.7725C190.556 42.7728 189.179 42.7725 189.179 42.7725" stroke="black"/>
<path d="M189.126 43.7147V41.969L190.628 42.8408L189.126 43.7147Z" stroke="black"/>
<rect x="54.1324" y="44.6211" width="5.00298" height="3.97382" rx="0.5" fill="black"/>
<rect x="55.2744" y="42.1431" width="2.86985" height="3.73583" rx="1" stroke="black" stroke-width="0.5"/>
<path d="M34.4448 22.7245C34.4519 22.0901 35.0578 21.6055 35.8419 21.605C36.6261 21.6045 37.1892 22.0329 37.1892 22.5605C37.1892 23.0882 36.7846 23.5509 36.1698 23.8508M36.1698 23.8508H35.2788M36.1698 23.8508C36.9553 24.2177 37.3674 24.3924 37.3603 25.084C37.3531 25.7756 36.6688 26.2815 35.8419 26.2815C35.0151 26.2815 34.3778 25.8057 34.3806 25.2836" stroke="black" stroke-width="0.7"/>
<path d="M30.2207 22.5347C30.1516 22.0512 29.6216 21.5815 28.7236 21.5815C27.8257 21.5815 27.2084 22.6844 27.1615 24.4467M27.1615 24.4467C27.3375 25.8078 27.9551 26.3338 28.8254 26.3338C29.6957 26.3338 30.301 25.8591 30.3068 24.8075C30.336 23.8409 29.4471 23.5018 28.8254 23.5018C28.2038 23.5018 27.5948 24.1607 27.1615 24.4467Z" stroke="black" stroke-width="0.7"/>
<path d="M39.1183 25.3809C39.1874 25.8643 39.7174 26.334 40.6153 26.334C41.5133 26.334 42.1306 25.2311 42.1775 23.4688M42.1775 23.4688C42.0014 22.1077 41.3839 21.5817 40.5136 21.5817C39.6433 21.5817 39.038 22.0564 39.0321 23.108C39.003 24.0746 39.8919 24.4137 40.5136 24.4137C41.1352 24.4137 41.7441 23.7548 42.1775 23.4688Z" stroke="black" stroke-width="0.7"/>
<ellipse cx="32.3104" cy="22.7069" rx="0.562596" ry="0.533065" fill="black"/>
<ellipse cx="32.3104" cy="25.4471" rx="0.562596" ry="0.533065" fill="black"/>
<path d="M47.6525 24.0295H47.9025V23.7795H47.6525V24.0295ZM47.6525 25.981H47.4025L47.8786 26.0876L47.6525 25.981ZM49.3665 22.3452L49.5926 22.4518L49.8799 21.8425L49.2647 22.1169L49.3665 22.3452ZM45.5897 24.0295L45.4879 23.8012L45.5897 24.2795V24.0295ZM47.4025 24.0295V25.981H47.9025V24.0295H47.4025ZM47.8786 26.0876L49.5926 22.4518L49.1404 22.2386L47.4263 25.8744L47.8786 26.0876ZM49.2647 22.1169L45.4879 23.8012L45.6915 24.2578L49.4683 22.5735L49.2647 22.1169ZM45.5897 24.2795H47.6525V23.7795H45.5897V24.2795Z" fill="black"/>
<path d="M45.7123 23.8708L45.8692 24.1288H45.1169L45.7123 23.8708Z" stroke="black" stroke-width="0.3"/>
<path d="M47.8919 25.7027L47.5534 25.5179V26.4041L47.8919 25.7027Z" stroke="black" stroke-width="0.3"/>
<path d="M172.594 23.0821C174.22 21.0967 177.871 21.3638 179.343 23.0821" stroke="black"/>
<path d="M173.862 24.4729C174.842 23.2011 177.044 23.3721 177.932 24.4729" stroke="black"/>
<path d="M175.945 25.7015L175.752 25.5339C175.829 25.5048 175.892 25.4996 175.939 25.5025C175.989 25.5056 176.046 25.5188 176.11 25.5469L175.945 25.7015Z" stroke="black" stroke-width="1.1"/>
<path d="M161.824 25.2856L161.829 25.8675" stroke="black" stroke-width="1.5" stroke-linecap="round" stroke-linejoin="round"/>
<path d="M164.177 24.2593L164.167 25.8675" stroke="black" stroke-width="1.5" stroke-linecap="round" stroke-linejoin="round"/>
<path d="M166.515 23.126L166.512 25.8675" stroke="#C7C7C7" stroke-width="1.5" stroke-linecap="round" stroke-linejoin="round"/>
<path d="M168.853 21.9429L168.857 25.8675" stroke="#C7C7C7" stroke-width="1.5" stroke-linecap="round" stroke-linejoin="round"/>
<mask id="path-41-inside-1" fill="white">
<path d="M194.468 23.9065C194.468 23.1379 193.803 22.7603 193.803 22.7603L193.802 25.0437C193.802 25.0437 194.468 24.6751 194.468 23.9065Z"/>
</mask>
<path d="M193.803 22.7603L194.297 21.8908L192.804 21.0421L192.803 22.76L193.803 22.7603ZM193.802 25.0437L192.802 25.0435L192.802 26.7413L194.287 25.9184L193.802 25.0437ZM193.803 22.7603C193.309 23.6297 193.309 23.6295 193.308 23.6293C193.308 23.6292 193.308 23.629 193.308 23.6289C193.307 23.6286 193.307 23.6283 193.306 23.6281C193.305 23.6275 193.304 23.627 193.304 23.6265C193.302 23.6255 193.3 23.6246 193.299 23.6238C193.296 23.6221 193.294 23.6207 193.292 23.6196C193.288 23.6174 193.286 23.6162 193.286 23.6161C193.286 23.616 193.292 23.6197 193.301 23.6271C193.322 23.6427 193.352 23.6687 193.382 23.7025C193.44 23.7693 193.468 23.8316 193.468 23.9065H195.468C195.468 23.2129 195.163 22.702 194.889 22.3878C194.752 22.2311 194.617 22.1146 194.513 22.0355C194.46 21.9955 194.414 21.9637 194.377 21.9399C194.359 21.9279 194.343 21.9179 194.329 21.9098C194.323 21.9057 194.317 21.9021 194.311 21.8989C194.308 21.8973 194.306 21.8959 194.304 21.8945C194.302 21.8939 194.301 21.8932 194.3 21.8926C194.3 21.8923 194.299 21.892 194.299 21.8917C194.298 21.8915 194.298 21.8913 194.298 21.8912C194.298 21.891 194.297 21.8908 193.803 22.7603ZM193.468 23.9065C193.468 23.98 193.441 24.0384 193.386 24.1012C193.357 24.1334 193.328 24.158 193.308 24.1728C193.299 24.1798 193.294 24.1832 193.294 24.1828C193.294 24.1826 193.296 24.1814 193.3 24.1791C193.302 24.178 193.304 24.1766 193.307 24.1749C193.309 24.174 193.31 24.1731 193.312 24.1721C193.313 24.1717 193.314 24.1712 193.315 24.1706C193.315 24.1704 193.316 24.1701 193.316 24.1698C193.317 24.1697 193.317 24.1695 193.317 24.1694C193.317 24.1692 193.318 24.169 193.802 25.0437C194.287 25.9184 194.288 25.9182 194.288 25.918C194.288 25.9179 194.288 25.9177 194.289 25.9176C194.289 25.9173 194.29 25.917 194.29 25.9167C194.291 25.9161 194.293 25.9154 194.294 25.9148C194.296 25.9134 194.299 25.912 194.301 25.9104C194.307 25.9073 194.313 25.9037 194.32 25.8997C194.333 25.8916 194.35 25.8817 194.368 25.87C194.405 25.8465 194.452 25.815 194.505 25.7754C194.61 25.6971 194.747 25.5815 194.884 25.4255C195.162 25.1118 195.468 24.6017 195.468 23.9065H193.468ZM194.802 25.044L194.803 22.7605L192.803 22.76L192.802 25.0435L194.802 25.044Z" fill="#7C7C7C" mask="url(#path-41-inside-1)"/>
<rect x="183.285" y="22.0586" width="8.67821" height="3.70758" rx="0.4" fill="black"/>
<rect x="182.515" y="21.2983" width="10.4932" height="5.23851" rx="1" stroke="#7C7C7C" stroke-width="0.5"/>
<path d="M128.187 16.5788C128.187 15.4639 129.091 14.5601 130.206 14.5601C131.321 14.5601 132.224 15.4639 132.224 16.5788C132.224 17.6937 131.321 18.5975 130.206 18.5975C129.091 18.5975 128.187 17.6937 128.187 16.5788Z" fill="#262626"/>
<path d="M94.8554 15.0601H120.135C120.956 15.0601 121.631 15.7346 121.631 16.5789C121.631 17.4232 120.956 18.0978 120.135 18.0978H94.8554C94.0347 18.0978 93.3596 17.4232 93.3596 16.5789C93.3596 15.7346 94.0347 15.0601 94.8554 15.0601Z" fill="#262626" stroke="#333333"/>
</svg>
