<svg width="744" height="456" viewBox="0 0 744 456" fill="none" xmlns="http://www.w3.org/2000/svg">
<path d="M96 16.5H648C660.979 16.5 671.5 27.0213 671.5 40V415.5H72.5V40C72.5 27.0213 83.0213 16.5 96 16.5Z" fill="black" stroke="#A6A6A6"/>
<path fill-rule="evenodd" clip-rule="evenodd" d="M96 41V400H648V41H96Z" fill="white"/>
<path fill-rule="evenodd" clip-rule="evenodd" d="M372 31.7626C373.741 31.7626 375.152 30.3512 375.152 28.6101C375.152 26.869 373.741 25.4575 372 25.4575C370.259 25.4575 368.847 26.869 368.847 28.6101C368.847 30.3512 370.259 31.7626 372 31.7626Z" fill="#595959" fill-opacity="0.5"/>
<path fill-rule="evenodd" clip-rule="evenodd" d="M0.000195938 428.027C0.000195938 428.027 0.00829105 428.459 0.000195938 428.763C-0.0329438 430.007 4.116 436 28.9851 436C28.9851 436 687.039 436 713.898 436C740.756 436 743.964 429.531 744 428.763C743.964 428.311 744 428.732 744 428.027C744 428.027 533.84 427.967 428.733 428.027C393.01 428.047 357.211 428.006 321.488 428.027C285.765 428.047 250.058 428.006 214.334 428.027C142.888 428.068 0.000195938 428.027 0.000195938 428.027Z" fill="#737373"/>
<path fill-rule="evenodd" clip-rule="evenodd" d="M0 416.001V428.001H744V416.001H0Z" fill="#8C8C8C"/>
<path fill-rule="evenodd" clip-rule="evenodd" d="M322 416C322 416 322.42 423.881 327.81 423.881C327.81 423.881 392.838 423.873 416.89 423.881C418.695 423.882 421.791 422.223 422.881 416H322.68" fill="#A6A6A6"/>
<path fill-rule="evenodd" clip-rule="evenodd" d="M96 41V400H648V41H96Z" fill="#C4C4C4"/>
</svg>
