<svg width="744" height="420" viewBox="0 0 744 420" fill="none" xmlns="http://www.w3.org/2000/svg">
    <path d="M72.5 24C72.5 11.0213 83.0213 0.5 96 0.5H648C660.979 0.5 671.5 11.0213 671.5 24V399.5H72.5V24Z" fill="black" stroke="#A6A6A6"/>
    <path fill-rule="evenodd" clip-rule="evenodd" d="M96 25V384H648V25H96Z" fill="white"/>
    <path fill-rule="evenodd" clip-rule="evenodd" d="M372 15.7626C373.741 15.7626 375.152 14.3512 375.152 12.6101C375.152 10.869 373.741 9.45752 372 9.45752C370.259 9.45752 368.847 10.869 368.847 12.6101C368.847 14.3512 370.259 15.7626 372 15.7626Z" fill="#595959" fill-opacity="0.5"/>
    <path fill-rule="evenodd" clip-rule="evenodd" d="M0.000195938 412.027C0.000195938 412.027 0.00829105 412.459 0.000195938 412.763C-0.0329438 414.007 4.116 420 28.9851 420C28.9851 420 687.039 420 713.898 420C740.756 420 743.964 413.531 744 412.763C743.964 412.311 744 412.732 744 412.027C744 412.027 533.84 411.967 428.733 412.027C393.01 412.047 357.211 412.006 321.488 412.027C285.765 412.047 250.058 412.006 214.334 412.027C142.888 412.068 0.000195938 412.027 0.000195938 412.027Z" fill="#737373"/>
    <path fill-rule="evenodd" clip-rule="evenodd" d="M0 400.001V412.001H744V400.001H0Z" fill="#8C8C8C"/>
    <path fill-rule="evenodd" clip-rule="evenodd" d="M322 400C322 400 322.42 407.881 327.81 407.881C327.81 407.881 392.838 407.873 416.89 407.881C418.695 407.882 421.791 406.223 422.881 400H322.68" fill="#A6A6A6"/>
</svg>
