<svg width="212" height="420" viewBox="0 0 212 420" fill="none" xmlns="http://www.w3.org/2000/svg">
    <path d="M2 94C0.895431 94 0 94.8954 0 96V120C0 121.105 0.895431 122 2 122V94Z" fill="#BBBBBB"/>
    <path d="M2 126C0.895431 126 0 126.895 0 128V152C0 153.105 0.895431 154 2 154V126Z" fill="#BBBBBB"/>
    <path d="M2 60C1.5 60 1 60.5 1 61V75C1 75.5 1.5 76 2 76V60Z" fill="#BBBBBB"/>
    <path d="M210 96C211.105 96 212 96.8954 212 98V150C212 151.105 211.105 152 210 152V96Z" fill="#BBBBBB"/>
    <path fill-rule="evenodd" clip-rule="evenodd" d="M34 0C16.3269 0 2 14.3269 2 32V388C2 405.673 16.3269 420 34 420H178C195.673 420 210 405.673 210 388V32C210 14.3269 195.673 0 178 0H34ZM52 12C53.6569 12 55 13.3431 55 15C55 21.6274 60.3726 27 67 27H145C151.627 27 157 21.6274 157 15C157 13.3431 158.343 12 160 12H178C189.046 12 198 20.9543 198 32V388C198 399.046 189.046 408 178 408H34C22.9543 408 14 399.046 14 388V32C14 20.9543 22.9543 12 34 12H52Z" fill="black"/>
    <path fill-rule="evenodd" clip-rule="evenodd" d="M178 4H34C18.536 4 6 16.536 6 32V388C6 403.464 18.536 416 34 416H178C193.464 416 206 403.464 206 388V32C206 16.536 193.464 4 178 4ZM34 0C16.3269 0 2 14.3269 2 32V388C2 405.673 16.3269 420 34 420H178C195.673 420 210 405.673 210 388V32C210 14.3269 195.673 0 178 0H34Z" fill="#A6A6A6"/>
    <path d="M125 16C125 14.3431 126.343 13 128 13C129.657 13 131 14.3431 131 16C131 17.6569 129.657 19 128 19C126.343 19 125 17.6569 125 16Z" fill="#262626"/>
    <rect x="94" y="14" width="24" height="4" rx="2" fill="#262626"/>
    <path d="M78 404C78 403.448 78.4477 403 79 403H141C141.552 403 142 403.448 142 404C142 404.552 141.552 405 141 405H79C78.4477 405 78 404.552 78 404Z" fill="#333333"/>
</svg>
