<?xml version="1.0" standalone="no"?>
<!DOCTYPE svg PUBLIC "-//W3C//DTD SVG 20010904//EN"
 "http://www.w3.org/TR/2001/REC-SVG-20010904/DTD/svg10.dtd">
<svg version="1.0" xmlns="http://www.w3.org/2000/svg"
 width="700.000000pt" height="700.000000pt" viewBox="0 0 700.000000 700.000000"
 preserveAspectRatio="xMidYMid meet">
<metadata>
Created by potrace 1.11, written by Peter Selinger 2001-2013
</metadata>
<g transform="translate(0.000000,700.000000) scale(0.100000,-0.100000)"
fill="#000000" stroke="none">
<path d="M0 3500 l0 -3500 3500 0 3500 0 0 3500 0 3500 -3500 0 -3500 0 0
-3500z m4200 1860 l0 -230 -115 0 -115 0 0 143 0 142 51 18 c54 19 128 80 157
129 9 15 18 28 19 28 2 0 3 -103 3 -230z m-390 -95 l0 -135 -116 0 -117 0 6
45 c16 113 90 187 225 224 1 1 2 -60 2 -134z m-1940 -792 l-1 -508 -30 35
c-80 91 -142 202 -180 315 -21 64 -23 92 -27 328 l-4 257 -75 0 -75 0 4 -287
c5 -321 7 -333 80 -478 22 -44 76 -136 120 -203 44 -68 95 -157 114 -197 70
-152 67 -110 71 -1032 l4 -833 -315 0 -316 0 0 1548 c0 852 3 1552 7 1555 3 4
145 7 315 7 l308 0 0 -507z m770 212 c0 -253 -2 -295 -15 -295 -23 0 -120 -46
-170 -80 l-45 -31 0 311 0 310 -75 0 -75 0 0 -532 1 -533 29 64 c73 157 195
282 325 331 l25 10 0 -139 0 -139 -41 -7 c-67 -11 -174 -71 -219 -122 -48 -55
-94 -147 -109 -221 -7 -36 -11 -310 -11 -862 l0 -810 75 0 75 0 0 790 c0 798
2 856 37 924 33 64 140 156 183 156 7 0 10 -305 10 -970 l0 -970 -310 0 -310
0 0 1555 0 1555 310 0 310 0 0 -295z m778 -422 c-4 -694 -4 -720 -24 -778 -30
-87 -83 -187 -168 -319 -96 -147 -142 -239 -168 -335 -20 -71 -22 -107 -26
-518 l-4 -443 -114 0 -114 0 0 1555 0 1555 310 0 311 0 -3 -717z m782 422 c0
-274 -1 -295 -17 -295 -24 0 -140 -56 -180 -86 l-33 -25 0 310 0 311 -80 0
-80 0 0 -542 1 -543 28 65 c71 166 202 305 329 348 l33 11 -3 -136 -3 -137
-48 -12 c-115 -29 -227 -115 -276 -212 -56 -111 -55 -88 -59 -980 l-3 -823 78
3 78 3 5 825 c6 909 1 845 69 937 34 46 90 88 134 98 l27 7 0 -971 0 -971
-310 0 -310 0 0 1555 0 1555 310 0 310 0 0 -295z m777 160 c-13 -261 -54 -377
-187 -519 l-45 -49 112 57 c62 31 115 56 118 56 3 0 5 -567 5 -1260 l0 -1260
-310 0 -310 0 0 920 c0 894 1 922 20 959 30 60 97 109 188 136 l22 6 0 -975 0
-976 75 0 75 0 0 1110 0 1110 -39 -24 c-61 -39 -291 -126 -332 -126 -5 0 -9
56 -9 134 l0 134 47 11 c77 20 155 63 208 116 92 91 125 189 125 373 l0 122
-74 0 -74 0 -4 -122 c-5 -140 -20 -187 -83 -256 -34 -38 -106 -82 -133 -82 -9
0 -12 69 -12 270 l0 270 312 0 311 0 -6 -135z m781 -1422 l2 -1553 -120 0
-120 0 0 967 0 967 -46 -44 c-25 -25 -59 -67 -75 -95 l-29 -50 0 -872 0 -873
-120 0 -121 0 4 1028 c4 1155 -1 1084 81 1244 23 46 74 133 112 193 146 228
181 316 191 473 l6 92 -75 0 -75 0 -7 -70 c-9 -89 -37 -175 -87 -268 -37 -69
-118 -184 -139 -197 -7 -4 -10 105 -10 305 l0 310 313 -2 312 -3 3 -1552z
m-2338 -938 l0 -615 -115 0 -115 0 0 398 c0 429 3 459 58 584 33 76 150 248
168 248 2 0 4 -277 4 -615z"/>
<path d="M1481 3008 l-1 -1068 75 0 76 0 -3 893 -3 892 -33 95 c-18 52 -50
131 -72 175 l-38 80 -1 -1067z"/>
<path d="M3031 3968 l1 -933 49 102 c27 56 61 141 76 190 l28 88 3 743 3 742
-81 0 -80 0 1 -932z"/>
<path d="M5469 4360 c-80 -181 -91 -226 -96 -395 l-4 -150 50 53 c28 29 62 73
76 96 25 43 25 43 23 272 l-3 229 -46 -105z"/>
</g>
</svg>
