<svg width="40" height="52" viewBox="0 0 40 52" fill="none" xmlns="http://www.w3.org/2000/svg">
    <mask id="path-1-outside-1" maskUnits="userSpaceOnUse" x="0" y="0" width="41" height="52" fill="black">
        <rect fill="white" width="41" height="52"/>
        <path fill-rule="evenodd" clip-rule="evenodd" d="M14 8C10.688 8 8 10.688 8 14C8 17.312 10.688 20 14 20H20V8H14ZM8 26.0001C8 22.6881 10.688 20.0001 14 20.0001H20V32V32.0001V38C20 41.312 17.312 44 14 44C10.688 44 8 41.312 8 38C8 34.6937 10.6787 32.0093 13.9828 32C10.6787 31.9908 8 29.3063 8 26.0001ZM20 8H26.0001C29.3121 8 32.0001 10.688 32.0001 14C32.0001 17.312 29.3121 20 26.0001 20H20V8ZM26.0001 32.0001C29.3121 32.0001 32.0001 29.3121 32.0001 26.0001C32.0001 22.6881 29.3121 20.0001 26.0001 20.0001C22.6881 20.0001 20 22.6881 20 26.0001C20 29.3121 22.6881 32.0001 26.0001 32.0001Z"/>
    </mask>
    <path fill-rule="evenodd" clip-rule="evenodd" d="M14 8C10.688 8 8 10.688 8 14C8 17.312 10.688 20 14 20H20V8H14ZM8 26.0001C8 22.6881 10.688 20.0001 14 20.0001H20V32V32.0001V38C20 41.312 17.312 44 14 44C10.688 44 8 41.312 8 38C8 34.6937 10.6787 32.0093 13.9828 32C10.6787 31.9908 8 29.3063 8 26.0001ZM20 8H26.0001C29.3121 8 32.0001 10.688 32.0001 14C32.0001 17.312 29.3121 20 26.0001 20H20V8ZM26.0001 32.0001C29.3121 32.0001 32.0001 29.3121 32.0001 26.0001C32.0001 22.6881 29.3121 20.0001 26.0001 20.0001C22.6881 20.0001 20 22.6881 20 26.0001C20 29.3121 22.6881 32.0001 26.0001 32.0001Z" fill="#2BBDFB"/>
    <path d="M20 20V28H28V20H20ZM20 8H28V0H20V8ZM20 20.0001H28V12.0001H20V20.0001ZM13.9828 32L14.0053 40V24.0001L13.9828 32ZM20 8V0H12V8H20ZM20 20H12V28H20V20ZM16 14C16 15.1062 15.1063 16 14 16V0C6.26968 0 0 6.26976 0 14H16ZM14 12C15.1063 12 16 12.8938 16 14H0C0 21.7303 6.26968 28 14 28V12ZM20 12H14V28H20V12ZM12 8V20H28V8H12ZM14 16H20V0H14V16ZM14 12.0001C6.26971 12.0001 0 18.2698 0 26.0001H16C16 27.1064 15.1063 28.0001 14 28.0001V12.0001ZM20 12.0001H14V28.0001H20V12.0001ZM28 32V20.0001H12V32H28ZM28 32.0001V32H12V32.0001H28ZM28 38V32.0001H12V38H28ZM14 52C21.7302 52 28 45.7303 28 38H12C12 36.8937 12.8937 36 14 36V52ZM0 38C0 45.7303 6.26971 52 14 52V36C15.1063 36 16 36.8937 16 38H0ZM13.9603 24.0001C6.24803 24.0217 0 30.2829 0 38H16C16 39.1045 15.1094 39.9969 14.0053 40L13.9603 24.0001ZM0 26.0001C0 33.7171 6.24803 39.9784 13.9603 40L14.0053 24.0001C15.1094 24.0032 16 24.8955 16 26.0001H0ZM26.0001 0H20V16H26.0001V0ZM40.0001 14C40.0001 6.26969 33.7303 0 26.0001 0V16C24.8939 16 24.0001 15.1063 24.0001 14H40.0001ZM26.0001 28C33.7303 28 40.0001 21.7303 40.0001 14H24.0001C24.0001 12.8937 24.8939 12 26.0001 12V28ZM20 28H26.0001V12H20V28ZM12 8V20H28V8H12ZM24.0001 26.0001C24.0001 24.8937 24.8939 24.0001 26.0001 24.0001V40.0001C33.7303 40.0001 40.0001 33.7304 40.0001 26.0001H24.0001ZM26.0001 28.0001C24.8939 28.0001 24.0001 27.1064 24.0001 26.0001H40.0001C40.0001 18.2697 33.7303 12.0001 26.0001 12.0001V28.0001ZM28 26.0001C28 27.1064 27.1063 28.0001 26.0001 28.0001V12.0001C18.2698 12.0001 12 18.2697 12 26.0001H28ZM26.0001 24.0001C27.1063 24.0001 28 24.8937 28 26.0001H12C12 33.7304 18.2698 40.0001 26.0001 40.0001V24.0001Z" fill="white" mask="url(#path-1-outside-1)"/>
    <path d="M14 44C17.312 44 20 41.312 20 38V32H14C10.688 32 8 34.688 8 38C8 41.312 10.688 44 14 44Z" fill="#24CE85"/>
    <path d="M8 26.0001C8 22.6881 10.688 20.0001 14 20.0001H20V32.0001H14C10.688 32.0001 8 29.3121 8 26.0001Z" fill="#A160FB"/>
    <path d="M8 14C8 10.688 10.688 8 14 8H20V20H14C10.688 20 8 17.312 8 14Z" fill="#F04F2B"/>
    <path d="M20.0001 8H26.0002C29.3122 8 32.0002 10.688 32.0002 14C32.0002 17.312 29.3122 20 26.0002 20H20.0001V8Z" fill="#FD7366"/>
    <path d="M32.0002 26.0001C32.0002 29.3121 29.3122 32.0001 26.0002 32.0001C22.6881 32.0001 20.0001 29.3121 20.0001 26.0001C20.0001 22.6881 22.6881 20.0001 26.0002 20.0001C29.3122 20.0001 32.0002 22.6881 32.0002 26.0001Z" fill="#2BBDFB"/>
</svg>
