<svg width="56" height="51" viewBox="0 0 56 51" fill="none" xmlns="http://www.w3.org/2000/svg">
    <path d="M32.6192 4C31.1902 4 29.8697 4.76234 29.1552 5.99987L28 8.00052L26.8448 5.99987C26.1303 4.76234 24.8098 4 23.3808 4H8C6.57094 4 5.25044 4.76239 4.53591 5.99999C3.82137 7.23758 3.82136 8.76237 4.53588 9.99997L24.5359 44.6416C25.2504 45.8792 26.5709 46.6416 28 46.6416C29.4291 46.6416 30.7496 45.8792 31.4641 44.6416L51.4641 9.99997C52.1786 8.76237 52.1786 7.23758 51.4641 5.99999C50.7496 4.76239 49.4291 4 48 4H32.6192Z" fill="white" stroke="white" stroke-width="8" stroke-linejoin="round"/>
    <path d="M32.6192 8L28 16L23.3808 8H8L28 42.6416L48 8H32.6192Z" fill="#4DBA87"/>
    <path d="M32.6192 8L28 16L23.3808 8H16L28 28.784L40 8H32.6192Z" fill="#435466"/>
</svg>
