<svg width="56" height="54" viewBox="0 0 56 54" fill="none" xmlns="http://www.w3.org/2000/svg">
    <mask id="path-1-outside-1" maskUnits="userSpaceOnUse" x="-1" y="0" width="58" height="54" fill="black">
        <rect fill="white" x="-1" width="58" height="54"/>
        <path d="M18.983 34.3683C16.6104 38.086 12.6178 40.6695 8 41.124C8.61185 36.8736 11.0355 33.2088 14.4629 30.9375C15.7273 32.3533 17.2608 33.5237 18.983 34.3683Z"/>
        <path d="M15.1985 30.4805C16.3692 30.7834 17.5963 30.9462 18.8609 30.95C19.1867 32.3859 19.722 33.7422 20.4328 34.9852C18.1174 34.144 16.0722 32.7396 14.4629 30.9375C14.7033 30.7782 14.9486 30.6258 15.1985 30.4805Z"/>
        <path d="M32.6392 21.5969C30.8875 20.8636 28.9644 20.4586 26.9466 20.4586C20.7046 20.4586 15.368 24.3349 13.2127 29.8117C14.9644 30.545 16.8875 30.95 18.9053 30.95C25.1473 30.95 30.4839 27.0737 32.6392 21.5969Z"/>
        <path d="M33.2931 12.9179C33.2813 12.9179 33.2695 12.9179 33.2577 12.9179C26.9238 12.9179 21.5222 16.9092 19.4307 22.5138C21.6319 21.2082 24.2017 20.4586 26.9466 20.4586C28.9644 20.4586 30.8875 20.8636 32.6392 21.5969C33.2974 19.9244 33.6587 18.1026 33.6587 16.1964C33.6587 15.0696 33.5324 13.9723 33.2931 12.9179Z"/>
        <path d="M37.2093 13.4737C38.0271 14.1532 38.8619 14.8669 39.2546 15.8648C39.8757 17.4958 40.2159 19.2653 40.2159 21.1143C40.2159 29.2625 33.6105 35.8679 25.4623 35.8679C23.697 35.8679 22.0041 35.5579 20.4351 34.9893C19.7231 33.7452 19.187 32.3874 18.8609 30.95C18.8756 30.95 18.8905 30.95 18.9053 30.95C27.0535 30.95 33.6587 24.3446 33.6587 16.1964C33.6587 15.0696 33.5324 13.9723 33.2931 12.9179C34.6373 12.9218 35.9391 13.1056 37.1759 13.4462C37.187 13.4554 37.1981 13.4646 37.2093 13.4737Z"/>
        <path d="M34.7242 8C37.1054 8 39.1814 9.29776 40.33 11.1966C39.7343 12.1841 39.3962 13.3198 39.3962 14.5572C39.3962 14.992 39.4296 15.4164 39.5104 15.8276C39.4901 15.8347 39.4703 15.8418 39.4507 15.8487C39.3914 15.8699 39.3342 15.8903 39.2715 15.9095C38.8813 14.8745 38.0163 14.144 37.1759 13.4462C35.1227 11.7415 32.5996 10.5829 29.8298 10.1935C31.0306 8.84751 32.7785 8 34.7242 8Z"/>
        <path d="M29.8298 10.1935C28.9535 11.1757 28.3688 12.4231 28.2105 13.8005C29.7827 13.2292 31.4796 12.9177 33.2492 12.9177C34.609 12.9177 35.9256 13.1018 37.1759 13.4462C35.1227 11.7415 32.5996 10.5829 29.8298 10.1935Z"/>
        <path d="M39.5104 15.8276C39.4296 15.4164 39.3962 14.992 39.3962 14.5572C39.3962 13.3198 39.7343 12.1841 40.33 11.1966C41.2024 11.93 41.8856 12.865 42.2823 13.9568C41.5454 14.7985 40.5878 15.4495 39.5104 15.8276Z"/>
        <path d="M48 27.8468C47.3261 27.785 46.6434 27.7534 45.9534 27.7534C35.1931 27.7534 26.2264 35.433 24.2353 45.6102C24.9092 45.672 25.5919 45.7036 26.2819 45.7036C26.7097 45.7036 27.1346 45.6915 27.5563 45.6675C29.4409 37.2446 36.962 30.95 45.9534 30.95C46.3519 30.95 46.7476 30.9624 47.14 30.9868C47.5006 29.9722 47.7894 28.9234 48 27.8468Z"/>
    </mask>
    <path d="M34.1837 17.9071C31.9516 16.9727 29.504 16.4586 26.9466 16.4586V24.4586C28.4247 24.4586 29.8235 24.7545 31.0947 25.2867L34.1837 17.9071ZM29.3923 13.803C29.5661 14.569 29.6587 15.3695 29.6587 16.1964H37.6587C37.6587 14.7698 37.4987 13.3756 37.194 12.0328L29.3923 13.803ZM43.3962 14.5572C43.3962 14.0715 43.5232 13.6472 43.7551 13.2628L36.9049 9.13047C35.9454 10.7211 35.3962 12.5681 35.3962 14.5572H43.3962ZM43.4354 15.0567C43.4144 14.9499 43.3962 14.7902 43.3962 14.5572H35.3962C35.3962 15.1938 35.4448 15.883 35.5854 16.5985L43.4354 15.0567ZM39.7311 10.3687C37.124 8.20409 33.9137 6.72832 30.3866 6.23248L29.2729 14.1546C31.2856 14.4375 33.1214 15.2788 34.6207 16.5237L39.7311 10.3687ZM8 41.124L0.0816226 39.9841C-0.268601 42.417 0.519035 44.8759 2.21768 46.6525C3.91632 48.4291 6.33739 49.3263 8.78357 49.0855L8 41.124ZM18.983 34.3683L25.7267 38.6721C26.952 36.7522 27.3008 34.4011 26.6859 32.2082C26.0709 30.0152 24.5504 28.1883 22.5055 27.1855L18.983 34.3683ZM14.4629 30.9375L10.0438 24.2689L10.0438 24.2689L14.4629 30.9375ZM15.1985 30.4805L17.2025 22.7356C15.1636 22.208 12.9989 22.5057 11.1781 23.5642L15.1985 30.4805ZM18.8609 30.95L18.8853 22.95L18.8844 22.95L18.8609 30.95ZM20.4328 34.9852L17.7011 42.5044C20.8557 43.6505 24.3903 42.7056 26.5522 40.1383C28.7141 37.571 29.0436 33.9271 27.3774 31.0136L20.4328 34.9852ZM32.6392 21.5969L40.0835 24.5265L40.0835 24.5264L32.6392 21.5969ZM26.9466 28.4586C31.3649 28.4586 34.9466 24.8769 34.9466 20.4586C34.9466 16.0403 31.3649 12.4586 26.9466 12.4586V28.4586ZM13.2127 29.8117L5.76839 26.8821C4.17499 30.9311 6.10989 35.5111 10.1236 37.1913L13.2127 29.8117ZM33.2931 12.9179L33.3166 4.91793L33.3118 4.91792L33.2931 12.9179ZM19.4307 22.5138L11.9355 19.7169C10.7495 22.8952 11.697 26.4759 14.2997 28.6517C16.9024 30.8274 20.5943 31.1251 23.512 29.3945L19.4307 22.5138ZM41.6587 16.1964C41.6587 11.7782 38.077 8.19643 33.6587 8.19643C29.2404 8.19643 25.6587 11.7782 25.6587 16.1964H41.6587ZM37.2093 13.4737L42.3216 7.32036C42.3041 7.3058 42.2865 7.29132 42.2689 7.27692L37.2093 13.4737ZM39.2546 15.8648L46.7309 13.0177C46.7204 12.9901 46.7097 12.9626 46.6989 12.9351L39.2546 15.8648ZM20.4351 34.9893L13.4919 38.9631C14.4332 40.6078 15.9278 41.865 17.7095 42.5106L20.4351 34.9893ZM37.1759 13.4462L42.2863 7.29125C41.4128 6.56599 40.3949 6.03496 39.3003 5.73347L37.1759 13.4462ZM40.33 11.1966L33.485 15.3373C33.9383 16.0867 34.5116 16.7566 35.1821 17.3202L40.33 11.1966ZM39.5104 15.8276L42.1595 23.3763L42.1597 23.3762L39.5104 15.8276ZM39.4507 15.8487L36.7646 8.31318L36.7644 8.31325L39.4507 15.8487ZM39.2715 15.9095L31.7861 18.7322C33.2759 22.6829 37.5795 24.7957 41.6163 23.5582L39.2715 15.9095ZM29.8298 10.1935L23.8602 4.86769L23.8602 4.8677L29.8298 10.1935ZM28.2105 13.8005L20.2628 12.8875C19.9465 15.6409 21.0779 18.3619 23.2531 20.0793C25.4284 21.7968 28.3376 22.266 30.9425 21.3196L28.2105 13.8005ZM42.2823 13.9568L48.3013 19.2267C50.2227 17.0322 50.7975 13.9659 49.8013 11.2245L42.2823 13.9568ZM48 27.8468L55.8512 29.3828C56.2857 27.1618 55.7592 24.8606 54.402 23.0495C53.0449 21.2384 50.9842 20.0869 48.7305 19.8802L48 27.8468ZM24.2353 45.6102L16.3841 44.0742C15.9496 46.2952 16.4761 48.5964 17.8332 50.4075C19.1903 52.2186 21.251 53.3702 23.5047 53.5768L24.2353 45.6102ZM27.5563 45.6675L28.0098 53.6547C31.5802 53.452 34.5824 50.9042 35.3633 47.4143L27.5563 45.6675ZM47.14 30.9868L46.6441 38.9714C50.2055 39.1926 53.4829 37.0284 54.678 33.6661L47.14 30.9868ZM8.78357 49.0855C15.928 48.3824 22.0798 44.3865 25.7267 38.6721L12.2393 30.0645C11.141 31.7855 9.30752 32.9566 7.21643 33.1624L8.78357 49.0855ZM10.0438 24.2689C4.77556 27.76 1.02863 33.4055 0.0816226 39.9841L15.9184 42.2638C16.1951 40.3418 17.2954 38.6577 18.8821 37.6062L10.0438 24.2689ZM8.49596 36.2662C10.4405 38.4437 12.8015 40.2471 15.4606 41.5511L22.5055 27.1855C21.7201 26.8004 21.0142 26.263 20.4299 25.6088L8.49596 36.2662ZM13.1945 38.2254C15.0067 38.6944 16.899 38.9442 18.8374 38.9499L18.8844 22.95C18.2937 22.9483 17.7318 22.8725 17.2025 22.7356L13.1945 38.2254ZM27.3774 31.0136C27.0528 30.4461 26.8102 29.8303 26.6626 29.1797L11.0592 32.7202C11.5632 34.9415 12.3911 37.0384 13.4883 38.9569L27.3774 31.0136ZM8.49581 36.2661C10.9699 39.0367 14.1204 41.2035 17.7011 42.5044L23.1646 27.4661C22.1143 27.0845 21.1744 26.4425 20.4301 25.609L8.49581 36.2661ZM11.1781 23.5642C10.7924 23.7884 10.4141 24.0234 10.0438 24.2689L18.8821 37.6062C18.9924 37.5331 19.1048 37.4632 19.219 37.3969L11.1781 23.5642ZM26.9466 12.4586C17.3073 12.4586 9.08687 18.4496 5.76839 26.8821L20.657 32.7413C21.6491 30.2203 24.1019 28.4586 26.9466 28.4586V12.4586ZM10.1236 37.1913C12.8362 38.3268 15.8081 38.95 18.9053 38.95V22.95C17.9669 22.95 17.0925 22.7632 16.3017 22.4322L10.1236 37.1913ZM18.9053 38.95C28.5446 38.95 36.765 32.959 40.0835 24.5265L25.1949 18.6673C24.2028 21.1883 21.75 22.95 18.9053 22.95V38.95ZM33.2577 20.9179C33.2633 20.9179 33.269 20.9179 33.2745 20.9179L33.3118 4.91792C33.2937 4.91788 33.2756 4.91786 33.2577 4.91786V20.9179ZM26.9258 25.3108C27.8878 22.7328 30.3709 20.9179 33.2577 20.9179V4.91786C23.4767 4.91786 15.1565 11.0855 11.9355 19.7169L26.9258 25.3108ZM26.9466 12.4586C22.7263 12.4586 18.7517 13.6151 15.3494 15.6332L23.512 29.3945C24.512 28.8013 25.6771 28.4586 26.9466 28.4586V12.4586ZM25.6587 16.1964C25.6587 17.0841 25.4917 17.9131 25.1949 18.6673L40.0835 24.5264C41.103 21.9357 41.6587 19.1211 41.6587 16.1964H25.6587ZM32.097 19.6271C32.2982 19.7943 32.407 19.8866 32.4903 19.9609C32.5677 20.0301 32.5673 20.0348 32.5263 19.9905C32.4458 19.9037 32.0886 19.5013 31.8104 18.7946L46.6989 12.9351C45.4394 9.73495 42.9043 7.80446 42.3216 7.32036L32.097 19.6271ZM48.2159 21.1143C48.2159 18.2773 47.6929 15.5438 46.7309 13.0177L31.7784 18.712C32.0586 19.4478 32.2159 20.2534 32.2159 21.1143H48.2159ZM25.4623 43.8679C38.0287 43.8679 48.2159 33.6808 48.2159 21.1143H32.2159C32.2159 24.8442 29.1922 27.8679 25.4623 27.8679V43.8679ZM17.7095 42.5106C20.1397 43.3913 22.7542 43.8679 25.4623 43.8679V27.8679C24.6398 27.8679 23.8686 27.7244 23.1608 27.4679L17.7095 42.5106ZM11.0592 32.7202C11.5638 34.9439 12.3929 37.0429 13.4919 38.9631L27.3784 31.0155C27.0533 30.4474 26.8103 29.831 26.6626 29.1797L11.0592 32.7202ZM18.9053 22.95C18.8952 22.95 18.8891 22.95 18.8853 22.95L18.8365 38.9499C18.8622 38.95 18.8858 38.95 18.9053 38.95V22.95ZM25.6587 16.1964C25.6587 19.9264 22.6351 22.95 18.9053 22.95V38.95C31.4719 38.95 41.6587 28.7628 41.6587 16.1964H25.6587ZM39.3003 5.73347C37.3856 5.20608 35.3775 4.92398 33.3166 4.91793L33.2696 20.9179C33.8971 20.9197 34.4926 21.0051 35.0515 21.159L39.3003 5.73347ZM42.2689 7.27692C42.274 7.28106 42.2798 7.28584 42.2863 7.29125L32.0655 19.6012C32.0942 19.625 32.1223 19.6481 32.1498 19.6706L42.2689 7.27692ZM47.1751 7.05593C44.68 2.93132 40.0982 0 34.7242 0V16C34.1126 16 33.6827 15.6642 33.485 15.3373L47.1751 7.05593ZM42.1368 23.3843C42.1475 23.3805 42.1526 23.3787 42.1571 23.3771C42.161 23.3757 42.1613 23.3756 42.1595 23.3763L36.8613 8.27894C36.8194 8.29363 36.7812 8.30727 36.7646 8.31318L42.1368 23.3843ZM41.6163 23.5582C41.8769 23.4783 42.0979 23.3982 42.137 23.3842L36.7644 8.31325C36.7565 8.31606 36.7519 8.3177 36.7478 8.31917C36.7459 8.31983 36.7446 8.3203 36.7437 8.32062C36.7428 8.32094 36.7424 8.32108 36.7425 8.32107C36.7425 8.32106 36.7446 8.3203 36.7483 8.31901C36.7521 8.3177 36.7578 8.31572 36.765 8.31322C36.7943 8.30316 36.8516 8.28388 36.9268 8.26083L41.6163 23.5582ZM32.0655 19.6012C32.2802 19.7795 32.3941 19.8756 32.4844 19.9559C32.5675 20.0299 32.5678 20.0356 32.5256 19.9901C32.4418 19.8997 32.0666 19.4762 31.7861 18.7322L46.757 13.0868C45.5002 9.75371 42.844 7.75427 42.2863 7.29125L32.0655 19.6012ZM34.7242 0C30.4037 0 26.5147 1.89237 23.8602 4.86769L35.7993 15.5194C35.5466 15.8027 35.1532 16 34.7242 16V0ZM23.8602 4.8677C21.9209 7.04139 20.6155 9.81769 20.2628 12.8875L36.1583 14.7135C36.1221 15.0285 35.9861 15.31 35.7993 15.5194L23.8602 4.8677ZM33.2492 4.9177C30.5344 4.9177 27.9138 5.39662 25.4786 6.28141L30.9425 21.3196C31.6517 21.0619 32.4247 20.9177 33.2492 20.9177V4.9177ZM39.3003 5.73347C37.3653 5.20046 35.3344 4.9177 33.2492 4.9177V20.9177C33.8836 20.9177 34.4858 21.0032 35.0515 21.159L39.3003 5.73347ZM49.8013 11.2245C48.8904 8.71794 47.3435 6.64132 45.478 5.073L35.1821 17.3202C35.0613 17.2187 34.8808 17.012 34.7634 16.6891L49.8013 11.2245ZM42.1597 23.3762C44.5373 22.5417 46.6559 21.1061 48.3013 19.2267L36.2634 8.68691C36.435 8.49086 36.6383 8.35721 36.861 8.27902L42.1597 23.3762ZM48.7305 19.8802C47.8141 19.7962 46.8876 19.7534 45.9534 19.7534V35.7534C46.3992 35.7534 46.8381 35.7738 47.2695 35.8134L48.7305 19.8802ZM45.9534 19.7534C31.2942 19.7534 19.0958 30.2139 16.3841 44.0742L32.0864 47.1463C33.357 40.652 39.0919 35.7534 45.9534 35.7534V19.7534ZM26.2819 37.7036C25.8361 37.7036 25.3972 37.6832 24.9658 37.6437L23.5047 53.5768C24.4212 53.6609 25.3477 53.7036 26.2819 53.7036V37.7036ZM27.1028 37.6804C26.832 37.6958 26.5584 37.7036 26.2819 37.7036V53.7036C26.8609 53.7036 27.4371 53.6872 28.0098 53.6547L27.1028 37.6804ZM45.9534 22.95C33.1365 22.95 22.4341 31.922 19.7493 43.9207L35.3633 47.4143C36.4478 42.5673 40.7876 38.95 45.9534 38.95V22.95ZM47.6359 23.0022C47.0785 22.9675 46.5175 22.95 45.9534 22.95V38.95C46.1864 38.95 46.4166 38.9573 46.6441 38.9714L47.6359 23.0022ZM40.1488 26.3108C40.0148 26.996 39.8312 27.6626 39.602 28.3074L54.678 33.6661C55.1701 32.2817 55.5639 30.8509 55.8512 29.3828L40.1488 26.3108Z" fill="white" mask="url(#path-1-outside-1)"/>
    <path d="M18.983 34.4503C16.6104 38.168 12.6178 40.7515 8 41.206C8.61185 36.9556 11.0355 33.2908 14.4629 31.0195C15.7273 32.4354 17.2608 33.6057 18.983 34.4503Z" fill="black"/>
    <path d="M15.1985 30.5625C16.3692 30.8654 17.5963 31.0282 18.8609 31.0319C19.1867 32.4679 19.7219 33.8242 20.4328 35.0672C18.1174 34.226 16.0722 32.8215 14.463 31.0195C14.7033 30.8602 14.9486 30.7078 15.1985 30.5625Z" fill="#A6A6A6"/>
    <path d="M32.6391 21.6789C30.8875 20.9456 28.9643 20.5406 26.9465 20.5406C20.7046 20.5406 15.3679 24.417 13.2126 29.8937C14.9643 30.627 16.8875 31.032 18.9052 31.032C25.1472 31.032 30.4839 27.1557 32.6391 21.6789Z" fill="black"/>
    <path d="M33.2932 12.9999C33.2814 12.9999 33.2695 12.9999 33.2577 12.9999C26.9239 12.9999 21.5222 16.9912 19.4307 22.5959C21.6319 21.2902 24.2017 20.5406 26.9467 20.5406C28.9644 20.5406 30.8875 20.9456 32.6391 21.6788C33.2973 20.0064 33.6588 18.1846 33.6588 16.2785C33.6588 15.1516 33.5324 14.0543 33.2932 12.9999Z" fill="#8C8C8C"/>
    <path d="M37.2093 13.5558C38.0271 14.2352 38.8619 14.9489 39.2547 15.9469C39.8758 17.5778 40.2159 19.3473 40.2159 21.1963C40.2159 29.3445 33.6105 35.9499 25.4623 35.9499C23.697 35.9499 22.0041 35.6399 20.4352 35.0713C19.7231 33.8272 19.1871 32.4694 18.8609 31.032C18.8756 31.032 18.8904 31.032 18.9051 31.032C27.0533 31.032 33.6587 24.4266 33.6587 16.2784C33.6587 15.1516 33.5324 14.0543 33.2932 12.9999C34.6373 13.0039 35.9391 13.1876 37.1759 13.5282C37.187 13.5374 37.1981 13.5466 37.2093 13.5558Z" fill="#CC0000"/>
    <path d="M34.7243 8.08197C37.1054 8.08197 39.1814 9.37973 40.33 11.2786C39.7343 12.2661 39.3962 13.4018 39.3962 14.6391C39.3962 15.074 39.4296 15.4984 39.5104 15.9096C39.4901 15.9167 39.4703 15.9237 39.4507 15.9307C39.3914 15.9519 39.3342 15.9723 39.2716 15.9915C38.8813 14.9565 38.0163 14.226 37.1759 13.5282C35.1227 11.8234 32.5997 10.6649 29.8298 10.2755C31.0306 8.92948 32.7785 8.08197 34.7243 8.08197Z" fill="black"/>
    <path d="M29.83 10.2754C28.9538 11.2575 28.3687 12.5051 28.2105 13.8825C29.7827 13.3113 31.4795 12.9997 33.2491 12.9997C34.6089 12.9997 35.9258 13.1837 37.1761 13.5281C35.1229 11.8233 32.5999 10.6648 29.83 10.2754Z" fill="#A6A6A6"/>
    <path d="M39.5103 15.9096C39.4296 15.4984 39.3962 15.074 39.3962 14.6391C39.3962 13.4018 39.7343 12.2661 40.33 11.2786C41.2024 12.012 41.8856 12.9469 42.2823 14.0388C41.5454 14.8804 40.5877 15.5314 39.5103 15.9096Z" fill="#595959"/>
    <path d="M48 27.9288C47.326 27.867 46.6434 27.8354 45.9533 27.8354C35.193 27.8354 26.2264 35.515 24.2352 45.6923C24.9092 45.7541 25.5918 45.7856 26.2819 45.7856C26.7096 45.7856 27.1345 45.7735 27.5563 45.7496C29.4409 37.3267 36.962 31.0321 45.9533 31.0321C46.3519 31.0321 46.7476 31.0444 47.14 31.0688C47.5006 30.0542 47.7893 29.0055 48 27.9288Z" fill="#595959"/>
</svg>
