<svg width="56" height="56" viewBox="0 0 56 56" fill="none" xmlns="http://www.w3.org/2000/svg">
<path d="M27.2266 37.2188L32.8834 31.5619C29.7592 28.4377 24.6939 28.4377 21.5697 31.5619L27.2266 37.2188ZM19.2812 45.1641L20.6799 53.0408C22.2932 52.7544 23.7795 51.9795 24.9381 50.8209L19.2812 45.1641ZM11.7578 46.5V54.5C12.2267 54.5 12.6948 54.4588 13.1565 54.3768L11.7578 46.5ZM10 44.7422L2.12322 43.3435C2.10744 43.4324 2.09317 43.5215 2.0804 43.6108L10 44.7422ZM11.3359 37.2188L5.67908 31.5619C4.52051 32.7205 3.74562 34.2068 3.45916 35.8201L11.3359 37.2188ZM19.2812 29.2734L24.9381 34.9303C28.0623 31.8061 28.0623 26.7408 24.9381 23.6166L19.2812 29.2734ZM28.7734 19.7812L23.1166 25.4381C26.2408 28.5623 31.3061 28.5623 34.4303 25.4381L28.7734 19.7812ZM43.1172 11.8359L48.774 6.17908C48.6987 6.1037 48.6218 6.02982 48.5434 5.95751L43.1172 11.8359ZM44.6641 13.3828L50.5425 7.95657C50.4702 7.87823 50.3963 7.80135 50.3209 7.72596L44.6641 13.3828ZM36.7188 27.7266L31.0619 22.0697C27.9377 25.1939 27.9377 30.2592 31.0619 33.3834L36.7188 27.7266ZM39.1094 14.2266L44.711 19.9381C44.7295 19.9199 44.7479 19.9017 44.7662 19.8834L39.1094 14.2266ZM35.4531 17.8125L29.8515 12.101C28.3271 13.5961 27.4636 15.6385 27.4532 17.7737C27.4429 19.9088 28.2865 21.9595 29.7963 23.4694L35.4531 17.8125ZM38.6875 21.0469L33.0306 26.7037C34.5405 28.2135 36.5912 29.0571 38.7263 29.0468C40.8615 29.0364 42.9039 28.1729 44.399 26.6485L38.6875 21.0469ZM42.2734 17.3906L36.6166 11.7338C36.5983 11.7521 36.5801 11.7705 36.5619 11.789L42.2734 17.3906ZM42.2734 15.7734L48.6734 10.9734C48.4463 10.6706 48.198 10.3843 47.9303 10.1166L42.2734 15.7734ZM40.7266 14.2266L46.3834 8.56971C46.1157 8.30203 45.8294 8.05369 45.5266 7.82656L40.7266 14.2266ZM20.0547 25.2656L14.366 30.8904C14.3766 30.9011 14.3872 30.9118 14.3978 30.9225L20.0547 25.2656ZM21.6719 26.8828L16.015 32.5397C19.1392 35.6639 24.2045 35.6639 27.3287 32.5397L21.6719 26.8828ZM26.3828 22.1719L32.0397 27.8287C33.5527 26.3157 34.3965 24.2596 34.3826 22.1199C34.3688 19.9802 33.4983 17.9353 31.9657 16.442L26.3828 22.1719ZM23.6406 19.5L29.2235 13.7702C26.0881 10.7151 21.0793 10.7476 17.9838 13.8431L23.6406 19.5ZM20.5469 21.0469L27.2033 16.6093C26.9111 16.1709 26.5762 15.7625 26.2037 15.39L20.5469 21.0469ZM19.7031 20.2031L25.36 14.5463C24.9875 14.1738 24.5791 13.8389 24.1407 13.5467L19.7031 20.2031ZM21.25 17.1094L26.9069 22.7662C30.031 19.642 30.031 14.5767 26.9069 11.4525L21.25 17.1094ZM18.5078 14.3672L24.1647 8.71033C21.0405 5.58614 15.9752 5.58614 12.851 8.71033L18.5078 14.3672ZM13.8672 19.0078L8.21033 13.351C5.09861 16.4627 5.08437 21.5034 8.17846 24.6326L13.8672 19.0078ZM17.6641 42L19.0951 49.871C20.6911 49.5808 22.1611 48.8124 23.3102 47.6675L17.6641 42ZM36.2969 23.4375L41.943 29.105C43.448 27.6057 44.2949 25.5694 44.2969 23.4451C44.2989 21.3207 43.4559 19.2828 41.9537 17.7806L36.2969 23.4375ZM33.0625 20.2031L38.7194 14.5463C37.2172 13.0441 35.1793 12.2011 33.0549 12.2031C30.9306 12.2051 28.8943 13.052 27.395 14.557L33.0625 20.2031ZM14.5 38.8359L8.83246 33.1898C7.68765 34.3389 6.91921 35.8089 6.62904 37.4049L14.5 38.8359ZM13.7969 42.7031L5.92592 41.272C5.45631 43.8549 6.28375 46.5037 8.14002 48.36C9.99629 50.2162 12.6451 51.0437 15.228 50.5741L13.7969 42.7031ZM37.4922 42.6328L31.8608 48.315C34.989 51.4153 40.0347 51.404 43.149 48.2897L37.4922 42.6328ZM42.1328 37.9922L47.7897 43.649C50.9139 40.5248 50.9139 35.4595 47.7897 32.3353L42.1328 37.9922ZM39.3906 35.25L45.0475 29.5931C41.9233 26.469 36.858 26.469 33.7338 29.5931L39.3906 35.25ZM36.2969 36.7969L42.9533 32.3593C42.6611 31.9209 42.3262 31.5125 41.9537 31.14L36.2969 36.7969ZM35.4531 35.9531L41.11 30.2963C40.7375 29.9238 40.3291 29.5889 39.8907 29.2967L35.4531 35.9531ZM37 32.8594L42.6569 38.5162C45.7524 35.4207 45.7849 30.4119 42.7298 27.2765L37 32.8594ZM34.3281 30.1172L40.058 24.5343C38.5647 23.0017 36.5198 22.1313 34.3801 22.1174C32.2404 22.1035 30.1843 22.9473 28.6713 24.4603L34.3281 30.1172ZM29.6172 34.8281L23.9603 29.1713C22.4556 30.676 21.6124 32.7181 21.6172 34.8461C21.622 36.974 22.4743 39.0124 23.9858 40.5103L29.6172 34.8281ZM39.7103 42.0319C38.4466 40.7681 38 39.2038 38 37.9922H54C54 35.515 53.1316 32.8257 51.024 30.7181L39.7103 42.0319ZM38 37.9922C38 37.396 38.1045 36.62 38.4497 35.7859C38.7954 34.9503 39.2745 34.3181 39.7103 33.8822L51.024 45.1959C52.9491 43.2708 54 40.7426 54 37.9922H38ZM39.7103 33.8822L33.3822 40.2103L44.6959 51.524L51.024 45.1959L39.7103 33.8822ZM33.3822 40.2103C34.646 38.9466 36.2103 38.5 37.4219 38.5V54.5C39.8991 54.5 42.5884 53.6316 44.6959 51.524L33.3822 40.2103ZM37.4219 38.5C38.018 38.5 38.7941 38.6045 39.6282 38.9497C40.4638 39.2954 41.096 39.7745 41.5319 40.2103L30.2181 51.524C32.1432 53.4491 34.6715 54.5 37.4219 54.5V38.5ZM41.5319 40.2103L32.8834 31.5619L21.5697 42.8756L30.2181 51.524L41.5319 40.2103ZM21.5697 31.5619L13.6244 39.5072L24.9381 50.8209L32.8834 42.8756L21.5697 31.5619ZM17.8826 37.2873L10.3591 38.6232L13.1565 54.3768L20.6799 53.0408L17.8826 37.2873ZM11.7578 38.5H11.4766V54.5H11.7578V38.5ZM11.4766 38.5C11.9765 38.5 12.9058 38.5695 13.9863 39.0326C15.1345 39.5247 16.0045 40.2678 16.5985 41.0103L4.10461 51.0054C6.20854 53.6353 9.08735 54.5 11.4766 54.5V38.5ZM16.5985 41.0103C17.0324 41.5527 17.4593 42.2803 17.7239 43.1877C17.9928 44.1096 18.0398 45.0324 17.9196 45.8736L2.0804 43.6108C1.66979 46.4851 2.57239 49.0901 4.10461 51.0054L16.5985 41.0103ZM17.8768 46.1409L19.2127 38.6174L3.45916 35.8201L2.12322 43.3435L17.8768 46.1409ZM16.9928 42.8756L24.9381 34.9303L13.6244 23.6166L5.67908 31.5619L16.9928 42.8756ZM24.9381 23.6166L16.2897 14.9681L4.97596 26.2819L13.6244 34.9303L24.9381 23.6166ZM16.2897 14.9681C16.7255 15.404 17.2046 16.0362 17.5503 16.8718C17.8955 17.7059 18 18.482 18 19.0781H2C2 21.8285 3.05086 24.3568 4.97596 26.2819L16.2897 14.9681ZM18 19.0781C18 20.2897 17.5534 21.854 16.2897 23.1178L4.97596 11.8041C2.86844 13.9116 2 16.6009 2 19.0781H18ZM16.2897 23.1178L22.6178 16.7897L11.3041 5.47596L4.97596 11.8041L16.2897 23.1178ZM22.6178 16.7897C22.1819 17.2255 21.5497 17.7046 20.7141 18.0503C19.88 18.3955 19.104 18.5 18.5078 18.5V2.5C15.7574 2.5 13.2292 3.55086 11.3041 5.47596L22.6178 16.7897ZM18.5078 18.5C17.2962 18.5 15.7319 18.0534 14.4681 16.7897L25.7819 5.47596C23.6743 3.36844 20.985 2.5 18.5078 2.5V18.5ZM14.4681 16.7897L23.1166 25.4381L34.4303 14.1244L25.7819 5.47596L14.4681 16.7897ZM34.4303 25.4381L42.3756 17.4928L31.0619 6.17908L23.1166 14.1244L34.4303 25.4381ZM42.3756 17.4928C42.1629 17.7055 41.8155 17.9788 41.3234 18.192C40.82 18.4102 40.3147 18.5 39.8828 18.5V2.5C36.312 2.5 33.271 3.96995 31.0619 6.17908L42.3756 17.4928ZM39.8828 18.5C39.4423 18.5 38.955 18.407 38.495 18.2109C38.0566 18.0241 37.7922 17.8079 37.6909 17.7144L48.5434 5.95751C46.4155 3.9933 43.492 2.5 39.8828 2.5V18.5ZM37.4603 17.4928L39.0072 19.0397L50.3209 7.72596L48.774 6.17908L37.4603 17.4928ZM38.7856 18.8091C38.6921 18.7078 38.4759 18.4434 38.2891 18.005C38.093 17.545 38 17.0577 38 16.6172H54C54 13.008 52.5067 10.0845 50.5425 7.95657L38.7856 18.8091ZM38 16.6172C38 16.1853 38.0899 15.68 38.308 15.1766C38.5212 14.6845 38.7945 14.3371 39.0072 14.1244L50.3209 25.4381C52.53 23.229 54 20.188 54 16.6172H38ZM39.0072 14.1244L31.0619 22.0697L42.3756 33.3834L50.3209 25.4381L39.0072 14.1244ZM31.0619 33.3834L39.7103 42.0319L51.024 30.7181L42.3756 22.0697L31.0619 33.3834ZM33.5077 8.51506L29.8515 12.101L41.0548 23.524L44.711 19.9381L33.5077 8.51506ZM29.7963 23.4694L33.0306 26.7037L44.3444 15.39L41.11 12.1556L29.7963 23.4694ZM44.399 26.6485L47.9849 22.9923L36.5619 11.789L32.976 15.4452L44.399 26.6485ZM47.9303 23.0475C49.264 21.7138 50.625 19.5003 50.625 16.6172H34.625C34.625 14.2966 35.7048 12.6456 36.6166 11.7338L47.9303 23.0475ZM50.625 16.6172C50.625 13.7255 49.2291 11.7143 48.6734 10.9734L35.8734 20.5734C35.7436 20.4004 35.4611 20.0007 35.1991 19.4019C34.9291 18.7848 34.625 17.8269 34.625 16.6172H50.625ZM47.9303 10.1166L46.3834 8.56971L35.0697 19.8834L36.6166 21.4303L47.9303 10.1166ZM45.5266 7.82656C44.7857 7.27094 42.7745 5.875 39.8828 5.875V21.875C38.6731 21.875 37.7152 21.5709 37.0981 21.3009C36.4992 21.0389 36.0996 20.7564 35.9266 20.6266L45.5266 7.82656ZM39.8828 5.875C36.9997 5.875 34.7862 7.236 33.4525 8.56971L44.7662 19.8834C43.8544 20.7952 42.2034 21.875 39.8828 21.875V5.875ZM14.3978 30.9225L16.015 32.5397L27.3287 21.226L25.7115 19.6088L14.3978 30.9225ZM27.3287 32.5397L32.0397 27.8287L20.726 16.515L16.015 21.226L27.3287 32.5397ZM31.9657 16.442L29.2235 13.7702L18.0577 25.2298L20.7999 27.9017L31.9657 16.442ZM17.9838 13.8431L16.4369 15.39L27.7506 26.7037L29.2975 25.1569L17.9838 13.8431ZM16.4369 15.39C18.2554 13.5715 20.3684 13.3281 21.3203 13.3281V29.3281C22.8347 29.3281 25.5102 28.9441 27.7506 26.7037L16.4369 15.39ZM21.3203 13.3281C21.5883 13.3281 22.3821 13.3431 23.3843 13.6771C24.486 14.0444 26.0505 14.8802 27.2033 16.6093L13.8905 25.4845C16.4678 29.3505 20.661 29.3281 21.3203 29.3281V13.3281ZM26.2037 15.39L25.36 14.5463L14.0463 25.86L14.89 26.7037L26.2037 15.39ZM24.1407 13.5467C25.8698 14.6995 26.7056 16.264 27.0729 17.3657C27.4069 18.3679 27.4219 19.1617 27.4219 19.4297H11.4219C11.4219 20.089 11.3995 24.2822 15.2655 26.8595L24.1407 13.5467ZM27.4219 19.4297C27.4219 20.3816 27.1785 22.4946 25.36 24.3131L14.0463 12.9994C11.8059 15.2398 11.4219 17.9153 11.4219 19.4297H27.4219ZM25.36 24.3131L26.9069 22.7662L15.5931 11.4525L14.0463 12.9994L25.36 24.3131ZM26.9069 11.4525L24.1647 8.71033L12.851 20.024L15.5931 22.7662L26.9069 11.4525ZM12.851 8.71033L8.21033 13.351L19.524 24.6647L24.1647 20.024L12.851 8.71033ZM8.17846 24.6326L14.366 30.8904L25.7434 19.6408L19.5559 13.383L8.17846 24.6326ZM23.3102 47.6675L41.943 29.105L30.6507 17.77L12.0179 36.3325L23.3102 47.6675ZM41.9537 17.7806L38.7194 14.5463L27.4056 25.86L30.64 29.0944L41.9537 17.7806ZM27.395 14.557L8.83246 33.1898L20.1675 44.4821L38.73 25.8493L27.395 14.557ZM6.62904 37.4049L5.92592 41.272L21.6678 44.1342L22.371 40.267L6.62904 37.4049ZM15.228 50.5741L19.0951 49.871L16.233 34.129L12.3658 34.8322L15.228 50.5741ZM43.149 48.2897L47.7897 43.649L36.476 32.3353L31.8353 36.976L43.149 48.2897ZM47.7897 32.3353L45.0475 29.5931L33.7338 40.9069L36.476 43.649L47.7897 32.3353ZM33.7338 29.5931L32.1869 31.14L43.5006 42.4537L45.0475 40.9069L33.7338 29.5931ZM32.1869 31.14C34.0054 29.3215 36.1184 29.0781 37.0703 29.0781V45.0781C38.5847 45.0781 41.2602 44.6941 43.5006 42.4537L32.1869 31.14ZM37.0703 29.0781C37.3383 29.0781 38.1321 29.0931 39.1343 29.4271C40.236 29.7944 41.8005 30.6302 42.9533 32.3593L29.6405 41.2345C32.2178 45.1005 36.411 45.0781 37.0703 45.0781V29.0781ZM41.9537 31.14L41.11 30.2963L29.7963 41.61L30.64 42.4537L41.9537 31.14ZM39.8907 29.2967C41.6198 30.4495 42.4556 32.014 42.8229 33.1157C43.1569 34.1179 43.1719 34.9117 43.1719 35.1797H27.1719C27.1719 35.839 27.1495 40.0322 31.0155 42.6095L39.8907 29.2967ZM43.1719 35.1797C43.1719 36.1316 42.9285 38.2446 41.11 40.0631L29.7963 28.7494C27.5559 30.9898 27.1719 33.6653 27.1719 35.1797H43.1719ZM41.11 40.0631L42.6569 38.5162L31.3431 27.2025L29.7963 28.7494L41.11 40.0631ZM42.7298 27.2765L40.058 24.5343L28.5983 35.7001L31.2702 38.4423L42.7298 27.2765ZM28.6713 24.4603L23.9603 29.1713L35.274 40.485L39.985 35.774L28.6713 24.4603ZM23.9858 40.5103L31.8608 48.315L43.1236 36.9506L35.2486 29.146L23.9858 40.5103Z" fill="white"/>
<path d="M45.3672 36.375C45.7891 36.7969 46 37.3594 46 37.9922C46 38.625 45.7891 39.1172 45.3672 39.5391L39.0391 45.8672C38.6172 46.2891 38.0547 46.5 37.4219 46.5C36.7891 46.5 36.2969 46.2891 35.875 45.8672L27.2266 37.2188L19.2812 45.1641L11.7578 46.5H11.4766C10.9844 46.5 10.6328 46.3594 10.3516 46.0078C10.0703 45.6562 9.92969 45.2344 10 44.7422L11.3359 37.2188L19.2812 29.2734L10.6328 20.625C10.2109 20.2031 10 19.7109 10 19.0781C10 18.4453 10.2109 17.8828 10.6328 17.4609L16.9609 11.1328C17.3828 10.7109 17.875 10.5 18.5078 10.5C19.1406 10.5 19.7031 10.7109 20.125 11.1328L28.7734 19.7812L36.7188 11.8359C37.5625 10.9922 38.6172 10.5 39.8828 10.5C41.1484 10.5 42.2031 10.9922 43.1172 11.8359L44.6641 13.3828C45.5078 14.2969 46 15.3516 46 16.6172C46 17.8828 45.5078 18.9375 44.6641 19.7812L36.7188 27.7266L45.3672 36.375ZM39.1094 14.2266L35.4531 17.8125L38.6875 21.0469L42.2734 17.3906C42.4844 17.1797 42.625 16.8984 42.625 16.6172C42.625 16.3359 42.4844 16.0547 42.2734 15.7734L40.7266 14.2266C40.4453 14.0156 40.1641 13.875 39.8828 13.875C39.6016 13.875 39.3203 14.0156 39.1094 14.2266ZM20.0547 25.2656L21.6719 26.8828L26.3828 22.1719L23.6406 19.5L22.0938 21.0469C21.8828 21.2578 21.6016 21.3281 21.3203 21.3281C20.9688 21.3281 20.6875 21.2578 20.5469 21.0469L19.7031 20.2031C19.4922 20.0625 19.4219 19.7812 19.4219 19.4297C19.4219 19.1484 19.4922 18.8672 19.7031 18.6562L21.25 17.1094L18.5078 14.3672L13.8672 19.0078L20.0547 25.2656ZM17.6641 42L36.2969 23.4375L33.0625 20.2031L14.5 38.8359L13.7969 42.7031L17.6641 42ZM37.4922 42.6328L42.1328 37.9922L39.3906 35.25L37.8438 36.7969C37.6328 37.0078 37.3516 37.0781 37.0703 37.0781C36.7188 37.0781 36.4375 37.0078 36.2969 36.7969L35.4531 35.9531C35.2422 35.8125 35.1719 35.5312 35.1719 35.1797C35.1719 34.8984 35.2422 34.6172 35.4531 34.4062L37 32.8594L34.3281 30.1172L29.6172 34.8281L37.4922 42.6328Z" fill="#70C000"/>
</svg>
