<svg width="62" height="47" viewBox="0 0 62 47" fill="none" xmlns="http://www.w3.org/2000/svg">
    <path d="M53.3594 22.5156H53.2891C53.5703 22.8672 53.5 23.0781 53.0078 23.2188L46.8906 24.8359L52.4453 32.3594C52.5859 32.6406 52.6562 32.8516 52.5156 32.9922C52.375 33.1328 52.1641 33.2734 51.8828 33.4141L44.7109 36.0156C40.1406 37.6328 37.6797 38.4766 37.2578 38.6172H37.1875C36.5547 38.8984 36.1328 38.9688 35.8516 38.8984C35.5 38.8984 35.1484 38.6172 34.8672 38.125C34.375 37.5625 32.6875 34.5391 29.7344 29.1953C24.6719 30.5312 21.5781 31.3047 20.3125 31.5859C19.1875 31.8672 18.4141 31.5859 17.9922 30.6016L16.1641 26.5234C11.3828 16.3984 8.92188 10.9844 8.71094 10.3516C8.28906 9.4375 8.42969 8.94531 9.27344 8.80469L18.3438 8.10156C18.7656 8.10156 19.0469 8.17188 19.1875 8.24219C19.3281 8.38281 19.5391 8.52344 19.75 8.80469L30.6484 27.0156L44.2891 23.7812L39.7891 17.3828C39.4375 16.9609 39.6484 16.6797 40.4219 16.5391L46.75 15.4844C47.0312 15.4844 47.2422 15.4844 47.4531 15.5547C47.5938 15.625 47.875 15.8359 48.1562 16.1172L50.8984 19.4922C52.375 21.3906 53.2188 22.375 53.3594 22.5156ZM28.5391 27.5781C28.75 27.5781 28.75 27.3672 28.6094 27.0859L18.4141 9.50781C18.3438 9.4375 18.2734 9.36719 18.1328 9.36719L10.6797 10C10.6094 10 10.6094 10.0703 10.6094 10.1406C10.6094 10.2812 10.6094 10.3516 10.6797 10.4219L19.8906 29.4062C19.8906 29.5469 19.9609 29.5469 20.0312 29.5469C20.0312 29.5469 20.1719 29.5469 20.3828 29.4766L25.375 28.2812C27.4141 27.8594 28.4688 27.5781 28.5391 27.5781ZM50.0547 31.5859L45.5547 25.3984C45.4141 25.2578 45.3438 25.1875 45.2734 25.1875C45.2031 25.1875 45.1328 25.1875 44.9922 25.1875L31.6328 28.7031L36.0625 36.1562C36.2031 36.4375 36.2734 36.5781 36.4141 36.5781C36.4844 36.5781 36.625 36.5781 36.7656 36.5078L49.9141 32.0078C50.0547 32.0078 50.1953 31.9375 50.1953 31.8672C50.1953 31.8672 50.125 31.7969 50.125 31.7266L50.0547 31.5859ZM50.8984 22.1641C51.25 22.0938 51.3906 21.9531 51.3203 21.8125C49 19 47.7344 17.3828 47.4531 16.9609C47.3125 16.75 47.1016 16.6797 46.8906 16.6797L41.8281 17.5938C41.6172 17.6641 41.6172 17.8047 41.7578 17.9453L45.7656 23.4297C47.4531 23.0078 49.2109 22.5859 50.8984 22.1641Z" fill="#F05340"/>
    <path d="M53.3594 22.5156V30.5156C56.5951 30.5156 59.5122 28.5665 60.7504 25.5771C61.9887 22.5877 61.3042 19.1468 59.0162 16.8588L53.3594 22.5156ZM53.2891 22.5156V14.5156C50.2138 14.5156 47.4108 16.2784 46.0786 19.0501C44.7465 21.8218 45.121 25.1118 47.0421 27.5132L53.2891 22.5156ZM53.0078 23.2188L55.0525 30.953C55.1037 30.9395 55.1547 30.9255 55.2056 30.9109L53.0078 23.2188ZM46.8906 24.8359L44.8459 17.1016C42.2836 17.7791 40.2231 19.6815 39.3437 22.1818C38.4644 24.682 38.8805 27.4555 40.4547 29.5877L46.8906 24.8359ZM52.4453 32.3594L59.6007 28.7817C59.3951 28.3704 59.1544 27.9776 58.8812 27.6076L52.4453 32.3594ZM51.8828 33.4141L54.6108 40.9346C54.9009 40.8294 55.1846 40.7075 55.4605 40.5695L51.8828 33.4141ZM44.7109 36.0156L47.3796 43.5574C47.3994 43.5504 47.4192 43.5433 47.439 43.5361L44.7109 36.0156ZM37.2578 38.6172V46.6172C38.1177 46.6172 38.9719 46.4786 39.7876 46.2067L37.2578 38.6172ZM37.1875 38.6172V30.6172C36.0682 30.6172 34.9613 30.8521 33.9384 31.3067L37.1875 38.6172ZM35.8516 38.8984L37.7918 31.1373C37.1573 30.9787 36.5057 30.8984 35.8516 30.8984V38.8984ZM34.8672 38.125L41.8131 34.1559C41.5487 33.6932 41.2387 33.258 40.8878 32.857L34.8672 38.125ZM29.7344 29.1953L36.7363 25.3258C34.9634 22.1178 31.2372 20.5249 27.6931 21.4601L29.7344 29.1953ZM20.3125 31.5859L18.5771 23.7764C18.5086 23.7917 18.4403 23.8078 18.3722 23.8248L20.3125 31.5859ZM17.9922 30.6016L25.3453 27.4502C25.328 27.4097 25.3103 27.3693 25.2923 27.3291L17.9922 30.6016ZM16.1641 26.5234L23.4641 23.251C23.4426 23.2029 23.4206 23.155 23.3981 23.1074L16.1641 26.5234ZM8.71094 10.3516L16.3004 7.82174C16.2071 7.54173 16.0983 7.26709 15.9746 6.9991L8.71094 10.3516ZM9.27344 8.80469L8.65514 0.828617C8.42171 0.846712 8.18919 0.875046 7.95825 0.913536L9.27344 8.80469ZM18.3438 8.10156V0.101562C18.1374 0.101562 17.9312 0.109545 17.7255 0.125492L18.3438 8.10156ZM19.1875 8.24219L24.8444 2.58533C24.2363 1.97732 23.5343 1.47131 22.7652 1.08677L19.1875 8.24219ZM19.75 8.80469L26.6146 4.69652C26.4719 4.45799 26.3168 4.22707 26.15 4.00469L19.75 8.80469ZM30.6484 27.0156L23.7838 31.1238C25.5752 34.1172 29.0998 35.6046 32.4942 34.7998L30.6484 27.0156ZM44.2891 23.7812L46.1348 31.5654C48.7172 30.9531 50.8279 29.0999 51.7691 26.6183C52.7103 24.1368 52.3596 21.35 50.8328 19.1791L44.2891 23.7812ZM39.7891 17.3828L46.3328 12.7806C46.2073 12.6022 46.0745 12.4289 45.9348 12.2613L39.7891 17.3828ZM40.4219 16.5391L39.1067 8.64791C39.068 8.65436 39.0294 8.66109 38.9908 8.6681L40.4219 16.5391ZM46.75 15.4844V7.48438C46.3094 7.48438 45.8695 7.52078 45.4348 7.59322L46.75 15.4844ZM47.4531 15.5547L51.0308 8.39927C50.6922 8.22998 50.3421 8.08493 49.9829 7.96522L47.4531 15.5547ZM48.1562 16.1172L54.3652 11.0724C54.1918 10.8591 54.0075 10.6547 53.8131 10.4603L48.1562 16.1172ZM50.8984 19.4922L57.2133 14.5807C57.1784 14.5359 57.1431 14.4915 57.1073 14.4474L50.8984 19.4922ZM28.6094 27.0859L35.7648 23.5082C35.6909 23.3605 35.6125 23.2151 35.5296 23.0722L28.6094 27.0859ZM18.4141 9.50781L25.3343 5.49407C24.9862 4.8939 24.5615 4.34156 24.0709 3.85096L18.4141 9.50781ZM18.1328 9.36719V1.36719C17.9069 1.36719 17.6811 1.37676 17.456 1.39587L18.1328 9.36719ZM10.6797 10V18C10.9056 18 11.1314 17.9904 11.3565 17.9713L10.6797 10ZM10.6797 10.4219L17.8772 6.92972C17.4879 6.12732 16.9672 5.39566 16.3365 4.76502L10.6797 10.4219ZM19.8906 29.4062H27.8906C27.8906 28.1965 27.6163 27.0025 27.0882 25.9141L19.8906 29.4062ZM20.3828 29.4766L18.52 21.6965C18.295 21.7503 18.0725 21.8139 17.853 21.8871L20.3828 29.4766ZM25.375 28.2812L23.7542 20.4472C23.6732 20.4639 23.5925 20.4819 23.5122 20.5012L25.375 28.2812ZM50.0547 31.5859L57.2101 28.0082C57.013 27.6141 56.7838 27.2369 56.5246 26.8806L50.0547 31.5859ZM45.5547 25.3984L52.0246 20.6931C51.7788 20.3552 51.507 20.037 51.2115 19.7416L45.5547 25.3984ZM44.9922 25.1875V17.1875C44.305 17.1875 43.6208 17.276 42.9562 17.4509L44.9922 25.1875ZM31.6328 28.7031L29.5969 20.9665C27.1683 21.6056 25.1808 23.3479 24.2293 25.6719C23.2778 27.9958 23.4727 30.6317 24.7558 32.7904L31.6328 28.7031ZM36.0625 36.1562L43.2179 32.5785C43.1313 32.4054 43.0385 32.2354 42.9396 32.0689L36.0625 36.1562ZM36.7656 36.5078L34.1752 28.9388C33.8372 29.0545 33.5074 29.1927 33.1879 29.3524L36.7656 36.5078ZM49.9141 32.0078V24.0078C49.0327 24.0078 48.1575 24.1534 47.3236 24.4388L49.9141 32.0078ZM50.1953 31.8672H58.1953C58.1953 29.7455 57.3525 27.7106 55.8522 26.2103L50.1953 31.8672ZM50.125 31.7266H58.125C58.125 30.4846 57.8358 29.2597 57.2804 28.1489L50.125 31.7266ZM50.8984 22.1641L49.3295 14.3194C49.2051 14.3443 49.0813 14.3721 48.9582 14.4029L50.8984 22.1641ZM51.3203 21.8125L58.4757 18.2348C58.2057 17.6948 57.8755 17.1871 57.4913 16.7214L51.3203 21.8125ZM46.8906 16.6797V8.67969C46.414 8.67969 45.9382 8.72229 45.4692 8.80698L46.8906 16.6797ZM41.8281 17.5938L40.4067 9.72105C40.0309 9.78889 39.6605 9.88354 39.2983 10.0043L41.8281 17.5938ZM41.7578 17.9453L48.2169 13.2252C47.974 12.8928 47.7058 12.5796 47.4147 12.2885L41.7578 17.9453ZM45.7656 23.4297L39.3065 28.1498C41.227 30.7778 44.5482 31.9803 47.7059 31.1908L45.7656 23.4297ZM53.3594 14.5156H53.2891V30.5156H53.3594V14.5156ZM47.0421 27.5132C46.8315 27.2499 46.2833 26.5309 45.8912 25.4227C45.4557 24.1917 45.1422 22.2312 45.9717 20.0745C46.7639 18.0148 48.1839 16.8669 49.0309 16.3326C49.8524 15.8145 50.5555 15.5993 50.81 15.5266L55.2056 30.9109C55.7062 30.7679 56.6027 30.4736 57.567 29.8654C58.5568 29.241 60.0691 27.9921 60.9052 25.8181C62.6544 21.2703 59.7979 17.8454 59.536 17.5181L47.0421 27.5132ZM50.9631 15.4845L44.8459 17.1016L48.9353 32.5702L55.0525 30.953L50.9631 15.4845ZM40.4547 29.5877L46.0094 37.1111L58.8812 27.6076L53.3265 20.0842L40.4547 29.5877ZM45.2899 35.9371C45.2762 35.9096 45.1893 35.7367 45.0894 35.4823C44.9951 35.2423 44.8096 34.7327 44.6948 34.0437C44.5778 33.3417 44.4971 32.2351 44.8226 30.9333C45.1699 29.5442 45.888 28.3061 46.8588 27.3353L58.1725 38.649C60.5869 36.2346 60.7829 33.2481 60.4771 31.4133C60.2434 30.011 59.6811 28.9425 59.6007 28.7817L45.2899 35.9371ZM46.8588 27.3353C47.2461 26.948 47.5946 26.6932 47.8144 26.5467C48.0411 26.3956 48.2163 26.303 48.3051 26.2586L55.4605 40.5695C56.1182 40.2406 57.1762 39.6453 58.1725 38.649L46.8588 27.3353ZM49.1548 25.8936L41.9829 28.4951L47.439 43.5361L54.6108 40.9346L49.1548 25.8936ZM42.0423 28.4738C37.4757 30.0897 35.0746 30.9122 34.728 31.0277L39.7876 46.2067C40.2848 46.0409 42.8056 45.1759 47.3796 43.5574L42.0423 28.4738ZM37.2578 30.6172H37.1875V46.6172H37.2578V30.6172ZM33.9384 31.3067C33.9596 31.2973 34.2786 31.153 34.8188 31.045C35.3421 30.9403 36.4309 30.7971 37.7918 31.1373L33.9113 46.6596C36.9392 47.4166 39.4958 46.3458 40.4366 45.9277L33.9384 31.3067ZM35.8516 30.8984C37.8981 30.8984 39.4181 31.7287 40.2902 32.4172C41.1375 33.0861 41.5967 33.7771 41.8131 34.1559L27.9212 42.0941C28.6513 43.3717 31.0934 46.8984 35.8516 46.8984V30.8984ZM40.8878 32.857C41.282 33.3074 41.4202 33.5958 41.0924 33.0614C40.8849 32.723 40.5844 32.211 40.1721 31.4884C39.3516 30.0505 38.2188 28.0084 36.7363 25.3258L22.7324 33.0648C24.2031 35.726 25.3906 37.8675 26.2752 39.4178C26.7154 40.1894 27.1137 40.8727 27.4532 41.4264C27.6726 41.784 28.2063 42.6613 28.8466 43.393L40.8878 32.857ZM27.6931 21.4601C22.6137 22.8005 19.6664 23.5344 18.5771 23.7764L22.0479 39.3954C23.4898 39.075 26.73 38.262 31.7756 36.9305L27.6931 21.4601ZM18.3722 23.8248C18.718 23.7383 20.142 23.4375 21.9177 24.164C23.9163 24.9816 24.9381 26.5 25.3453 27.4502L10.639 33.7529C11.4681 35.6875 13.0876 37.8387 15.8596 38.9727C18.4088 40.0156 20.782 39.7148 22.2528 39.3471L18.3722 23.8248ZM25.2923 27.3291L23.4641 23.251L8.86399 29.7959L10.6921 33.874L25.2923 27.3291ZM23.3981 23.1074C21.0148 18.0605 19.2171 14.2031 17.9935 11.539C16.6186 8.5453 16.2272 7.60223 16.3004 7.82174L1.12147 12.8814C1.40558 13.7337 2.35017 15.8141 3.45373 18.2169C4.70867 20.9493 6.53205 24.8613 8.93007 29.9395L23.3981 23.1074ZM15.9746 6.9991C16.0306 7.12043 16.2364 7.5784 16.3668 8.27856C16.4973 8.97888 16.6251 10.317 16.0806 11.896C14.7375 15.7909 11.2644 16.5832 10.5886 16.6958L7.95825 0.913536C6.4387 1.16679 2.47344 2.27551 0.954595 6.68016C-0.223302 10.0961 1.12286 13.0012 1.44726 13.704L15.9746 6.9991ZM9.89174 16.7808L18.962 16.0776L17.7255 0.125492L8.65514 0.828617L9.89174 16.7808ZM18.3438 16.1016C18.1196 16.1016 17.7975 16.0836 17.3968 16.0085C17.0532 15.9441 16.3965 15.7909 15.6098 15.3976L22.7652 1.08677C21.1032 0.255741 19.4483 0.101562 18.3438 0.101562V16.1016ZM13.5306 13.899C13.6633 14.0317 13.7794 14.1396 13.862 14.2147C13.9433 14.2886 14.0129 14.3495 14.048 14.38C14.0657 14.3955 14.0841 14.4115 14.0916 14.418C14.1019 14.4269 14.105 14.4296 14.1062 14.4307C14.108 14.4322 14.0894 14.416 14.061 14.3902C14.0011 14.3357 13.8931 14.2347 13.7639 14.0972C13.6328 13.9577 13.4916 13.7935 13.35 13.6047L26.15 4.00469C25.6457 3.33224 25.1549 2.85218 24.8238 2.55118C24.7471 2.48146 24.6812 2.4235 24.6371 2.38496C24.6154 2.36593 24.5959 2.34898 24.584 2.33866C24.5693 2.32588 24.5659 2.32292 24.5621 2.31967C24.528 2.28988 24.6693 2.41026 24.8444 2.58533L13.5306 13.899ZM12.8854 12.9129L23.7838 31.1238L37.5131 22.9075L26.6146 4.69652L12.8854 12.9129ZM32.4942 34.7998L46.1348 31.5654L42.4433 15.9971L28.8027 19.2315L32.4942 34.7998ZM50.8328 19.1791L46.3328 12.7806L33.2454 21.985L37.7454 28.3834L50.8328 19.1791ZM45.9348 12.2613C46.2858 12.6825 47.1288 13.7901 47.4755 15.5238C47.8942 17.6173 47.4271 19.8642 46.0836 21.6555C44.9671 23.1442 43.6436 23.7905 43.0986 24.0241C42.4782 24.29 42.0029 24.3828 41.853 24.41L38.9908 8.6681C38.4541 8.76568 37.6625 8.94636 36.7959 9.31774C36.0049 9.65675 34.5056 10.4261 33.2836 12.0555C31.8347 13.9874 31.3324 16.3925 31.7862 18.6617C32.1681 20.5712 33.1165 21.8722 33.6433 22.5043L45.9348 12.2613ZM41.7371 24.4302L48.0652 23.3755L45.4348 7.59322L39.1067 8.64791L41.7371 24.4302ZM46.75 23.4844C46.8358 23.4844 46.829 23.4846 46.8085 23.4842C46.78 23.4837 46.6696 23.4815 46.5144 23.4696C46.1787 23.4438 45.6051 23.3714 44.9233 23.1442L49.9829 7.96522C49.0902 7.66765 48.3057 7.56013 47.7415 7.51673C47.2615 7.4798 46.8125 7.48438 46.75 7.48438V23.4844ZM43.8754 22.7101C43.4899 22.5174 43.2205 22.34 43.1119 22.2668C42.9752 22.1747 42.8742 22.0983 42.8094 22.0474C42.6823 21.9475 42.5844 21.859 42.4994 21.774L53.8131 10.4603C53.2809 9.92812 52.2899 9.02879 51.0308 8.39927L43.8754 22.7101ZM41.9473 21.1619L44.6895 24.5369L57.1073 14.4474L54.3652 11.0724L41.9473 21.1619ZM44.5836 24.4037C45.9831 26.2031 47.1417 27.6117 47.7025 28.1725L59.0162 16.8588C59.1095 16.9521 59.1752 17.0229 59.1934 17.0425C59.2197 17.0709 59.2356 17.0886 59.2377 17.091C59.2419 17.0957 59.2265 17.0785 59.1873 17.0329C59.1104 16.9436 58.9826 16.7924 58.8022 16.5736C58.4435 16.1386 57.9111 15.4779 57.2133 14.5807L44.5836 24.4037ZM28.5391 35.5781C29.8828 35.5781 32.0296 35.231 33.9438 33.5465C35.889 31.8347 36.5208 29.689 36.6664 28.2335C36.9087 25.8103 36.0023 23.9833 35.7648 23.5082L21.454 30.6636C21.357 30.4698 20.521 28.8889 20.7458 26.6415C20.8825 25.2739 21.4836 23.1985 23.3738 21.5351C25.2331 19.8989 27.3008 19.5781 28.5391 19.5781V35.5781ZM35.5296 23.0722L25.3343 5.49407L11.4938 13.5216L21.6891 31.0997L35.5296 23.0722ZM24.0709 3.85096C23.9166 3.6966 21.7909 1.36719 18.1328 1.36719V17.3672C16.7224 17.3672 15.3565 16.9747 14.1838 16.2711C13.2487 15.71 12.617 15.0245 12.7572 15.1647L24.0709 3.85096ZM17.456 1.39587L10.0029 2.02868L11.3565 17.9713L18.8096 17.3385L17.456 1.39587ZM10.6797 2C9.27873 2 7.42491 2.37707 5.72751 3.69727C4.09928 4.96367 3.35934 6.5222 3.0287 7.51412C2.71369 8.45915 2.64891 9.24606 2.62819 9.55684C2.61557 9.74623 2.61191 9.89964 2.61052 9.98743C2.60979 10.0337 2.60955 10.0718 2.60945 10.0961C2.60936 10.1188 2.60938 10.1389 2.60938 10.1406H18.6094C18.6094 10.0662 18.6126 10.3236 18.5928 10.6211C18.5742 10.899 18.5139 11.6551 18.2076 12.5738C17.8858 13.5393 17.159 15.0759 15.5506 16.3269C13.8729 17.6317 12.0455 18 10.6797 18V2ZM2.60938 10.1406C2.60938 10.1501 2.60932 10.2035 2.60983 10.261C2.61036 10.3214 2.61176 10.4261 2.61687 10.5538C2.62622 10.7877 2.65345 11.2762 2.77352 11.8765C3.08215 13.4197 3.83569 14.8916 5.02283 16.0787L16.3365 4.76502C16.8056 5.23409 17.2982 5.84835 17.7093 6.62494C18.1203 7.40111 18.3424 8.13667 18.4628 8.73869C18.5741 9.29509 18.5969 9.73523 18.6041 9.91426C18.6107 10.079 18.6094 10.2211 18.6094 10.1406H2.60938ZM3.48213 13.914L12.6931 32.8984L27.0882 25.9141L17.8772 6.92972L3.48213 13.914ZM11.8906 29.4062C11.8906 30.5331 12.1713 33.9686 15.497 36.1857C16.8877 37.1129 18.2193 37.3808 18.9223 37.4745C19.2873 37.5232 19.5834 37.5372 19.7512 37.5426C19.8392 37.5454 19.9111 37.5462 19.9553 37.5466C19.9781 37.5468 19.9968 37.5468 20.009 37.5469C20.0203 37.5469 20.0304 37.5469 20.0312 37.5469V21.5469C19.902 21.5469 20.4322 21.5342 21.0369 21.6149C21.707 21.7042 23.0078 21.9633 24.3722 22.8729C27.6451 25.0548 27.8906 28.42 27.8906 29.4062H11.8906ZM20.0312 29.5469C20.0312 37.5469 20.0332 37.5469 20.0352 37.5469C20.0358 37.5469 20.0378 37.5469 20.0391 37.5469C20.0417 37.5469 20.0443 37.5469 20.0469 37.5469C20.0522 37.5468 20.0574 37.5468 20.0627 37.5468C20.0733 37.5468 20.0839 37.5467 20.0947 37.5466C20.1161 37.5465 20.1378 37.5462 20.1598 37.5458C20.2039 37.5452 20.2492 37.5441 20.2956 37.5426C20.3885 37.5396 20.4863 37.5349 20.5887 37.5281C20.7932 37.5144 21.0177 37.4922 21.2593 37.4577C21.7412 37.3888 22.3022 37.2695 22.9126 37.066L17.853 21.8871C18.2525 21.7539 18.6377 21.6698 18.9966 21.6185C19.1767 21.5928 19.3528 21.5749 19.5244 21.5635C19.6103 21.5578 19.6954 21.5536 19.7798 21.5509C19.822 21.5495 19.864 21.5485 19.9059 21.5479C19.9269 21.5475 19.9478 21.5473 19.9687 21.5471C19.9791 21.547 19.9896 21.547 20 21.5469C20.0052 21.5469 20.0104 21.5469 20.0156 21.5469C20.0182 21.5469 20.0208 21.5469 20.0234 21.5469C20.0247 21.5469 20.0267 21.5469 20.0273 21.5469C20.0293 21.5469 20.0312 21.5469 20.0312 29.5469ZM22.2457 37.2567L27.2378 36.0613L23.5122 20.5012L18.52 21.6965L22.2457 37.2567ZM26.9958 36.1153C28.0954 35.8878 28.9362 35.6968 29.5131 35.5622C29.7427 35.5086 30.0711 35.4308 30.1273 35.4176C30.1974 35.4012 30.1891 35.4035 30.1502 35.4119C30.1357 35.415 30.0468 35.4342 29.9238 35.4563C29.8633 35.4671 29.7389 35.4887 29.5788 35.5098C29.4967 35.5207 29.3745 35.5356 29.2254 35.5485C29.0896 35.5603 28.8454 35.5781 28.5391 35.5781V19.5781C28 19.5781 27.5794 19.6349 27.4804 19.648C27.3121 19.6703 27.1775 19.6935 27.1049 19.7065C26.9577 19.7329 26.8369 19.7586 26.7829 19.7702C26.6649 19.7956 26.5468 19.8232 26.4762 19.8397C26.2512 19.8925 26.1752 19.9113 25.8775 19.9808C25.3998 20.0922 24.6936 20.2528 23.7542 20.4472L26.9958 36.1153ZM56.5246 26.8806L52.0246 20.6931L39.0848 30.1038L43.5848 36.2913L56.5246 26.8806ZM51.2115 19.7416C51.1936 19.7236 51.1001 19.6296 51.0016 19.5351C50.9084 19.4456 50.6839 19.2322 50.3853 18.9933C49.9577 18.6513 48.1124 17.1875 45.2734 17.1875V33.1875C42.5048 33.1875 40.7298 31.7589 40.3901 31.4872C40.0042 31.1784 39.6893 30.8468 39.8978 31.0553L51.2115 19.7416ZM45.2734 17.1875C45.2733 17.1875 45.2732 17.1875 45.273 17.1875C45.2729 17.1875 45.2728 17.1875 45.2726 17.1875C45.2725 17.1875 45.2723 17.1875 45.2722 17.1875C45.2721 17.1875 45.2719 17.1875 45.2718 17.1875C45.2717 17.1875 45.2715 17.1875 45.2714 17.1875C45.2712 17.1875 45.2711 17.1875 45.271 17.1875C45.2708 17.1875 45.2707 17.1875 45.2706 17.1875C45.2704 17.1875 45.2703 17.1875 45.2701 17.1875C45.27 17.1875 45.2699 17.1875 45.2697 17.1875C45.2696 17.1875 45.2695 17.1875 45.2693 17.1875C45.2692 17.1875 45.269 17.1875 45.2689 17.1875C45.2688 17.1875 45.2686 17.1875 45.2685 17.1875C45.2684 17.1875 45.2682 17.1875 45.2681 17.1875C45.2679 17.1875 45.2678 17.1875 45.2677 17.1875C45.2675 17.1875 45.2674 17.1875 45.2673 17.1875C45.2671 17.1875 45.267 17.1875 45.2668 17.1875C45.2667 17.1875 45.2666 17.1875 45.2664 17.1875C45.2663 17.1875 45.2662 17.1875 45.266 17.1875C45.2659 17.1875 45.2657 17.1875 45.2656 17.1875C45.2655 17.1875 45.2653 17.1875 45.2652 17.1875C45.2651 17.1875 45.2649 17.1875 45.2648 17.1875C45.2646 17.1875 45.2645 17.1875 45.2644 17.1875C45.2642 17.1875 45.2641 17.1875 45.264 17.1875C45.2638 17.1875 45.2637 17.1875 45.2635 17.1875C45.2634 17.1875 45.2633 17.1875 45.2631 17.1875C45.263 17.1875 45.2629 17.1875 45.2627 17.1875C45.2626 17.1875 45.2624 17.1875 45.2623 17.1875C45.2622 17.1875 45.262 17.1875 45.2619 17.1875C45.2618 17.1875 45.2616 17.1875 45.2615 17.1875C45.2613 17.1875 45.2612 17.1875 45.2611 17.1875C45.2609 17.1875 45.2608 17.1875 45.2607 17.1875C45.2605 17.1875 45.2604 17.1875 45.2602 17.1875C45.2601 17.1875 45.26 17.1875 45.2598 17.1875C45.2597 17.1875 45.2595 17.1875 45.2594 17.1875C45.2593 17.1875 45.2591 17.1875 45.259 17.1875C45.2589 17.1875 45.2587 17.1875 45.2586 17.1875C45.2584 17.1875 45.2583 17.1875 45.2582 17.1875C45.258 17.1875 45.2579 17.1875 45.2578 17.1875C45.2576 17.1875 45.2575 17.1875 45.2573 17.1875C45.2572 17.1875 45.2571 17.1875 45.2569 17.1875C45.2568 17.1875 45.2566 17.1875 45.2565 17.1875C45.2564 17.1875 45.2562 17.1875 45.2561 17.1875C45.256 17.1875 45.2558 17.1875 45.2557 17.1875C45.2555 17.1875 45.2554 17.1875 45.2553 17.1875C45.2551 17.1875 45.255 17.1875 45.2548 17.1875C45.2547 17.1875 45.2546 17.1875 45.2544 17.1875C45.2543 17.1875 45.2542 17.1875 45.254 17.1875C45.2539 17.1875 45.2537 17.1875 45.2536 17.1875C45.2535 17.1875 45.2533 17.1875 45.2532 17.1875C45.2531 17.1875 45.2529 17.1875 45.2528 17.1875C45.2526 17.1875 45.2525 17.1875 45.2524 17.1875C45.2522 17.1875 45.2521 17.1875 45.2519 17.1875C45.2518 17.1875 45.2517 17.1875 45.2515 17.1875C45.2514 17.1875 45.2512 17.1875 45.2511 17.1875C45.251 17.1875 45.2508 17.1875 45.2507 17.1875C45.2506 17.1875 45.2504 17.1875 45.2503 17.1875C45.2501 17.1875 45.25 17.1875 45.2499 17.1875C45.2497 17.1875 45.2496 17.1875 45.2494 17.1875C45.2493 17.1875 45.2492 17.1875 45.249 17.1875C45.2489 17.1875 45.2487 17.1875 45.2486 17.1875C45.2485 17.1875 45.2483 17.1875 45.2482 17.1875C45.248 17.1875 45.2479 17.1875 45.2478 17.1875C45.2476 17.1875 45.2475 17.1875 45.2474 17.1875C45.2472 17.1875 45.2471 17.1875 45.2469 17.1875C45.2468 17.1875 45.2467 17.1875 45.2465 17.1875C45.2464 17.1875 45.2462 17.1875 45.2461 17.1875C45.246 17.1875 45.2458 17.1875 45.2457 17.1875C45.2455 17.1875 45.2454 17.1875 45.2453 17.1875C45.2451 17.1875 45.245 17.1875 45.2448 17.1875C45.2447 17.1875 45.2446 17.1875 45.2444 17.1875C45.2443 17.1875 45.2441 17.1875 45.244 17.1875C45.2439 17.1875 45.2437 17.1875 45.2436 17.1875C45.2434 17.1875 45.2433 17.1875 45.2432 17.1875C45.243 17.1875 45.2429 17.1875 45.2427 17.1875C45.2426 17.1875 45.2425 17.1875 45.2423 17.1875C45.2422 17.1875 45.242 17.1875 45.2419 17.1875C45.2418 17.1875 45.2416 17.1875 45.2415 17.1875C45.2413 17.1875 45.2412 17.1875 45.2411 17.1875C45.2409 17.1875 45.2408 17.1875 45.2406 17.1875C45.2405 17.1875 45.2404 17.1875 45.2402 17.1875C45.2401 17.1875 45.2399 17.1875 45.2398 17.1875C45.2396 17.1875 45.2395 17.1875 45.2394 17.1875C45.2392 17.1875 45.2391 17.1875 45.2389 17.1875C45.2388 17.1875 45.2387 17.1875 45.2385 17.1875C45.2384 17.1875 45.2382 17.1875 45.2381 17.1875C45.238 17.1875 45.2378 17.1875 45.2377 17.1875C45.2375 17.1875 45.2374 17.1875 45.2373 17.1875C45.2371 17.1875 45.237 17.1875 45.2368 17.1875C45.2367 17.1875 45.2365 17.1875 45.2364 17.1875C45.2363 17.1875 45.2361 17.1875 45.236 17.1875C45.2358 17.1875 45.2357 17.1875 45.2356 17.1875C45.2354 17.1875 45.2353 17.1875 45.2351 17.1875C45.235 17.1875 45.2348 17.1875 45.2347 17.1875C45.2346 17.1875 45.2344 17.1875 45.2343 17.1875C45.2341 17.1875 45.234 17.1875 45.2338 17.1875C45.2337 17.1875 45.2336 17.1875 45.2334 17.1875C45.2333 17.1875 45.2331 17.1875 45.233 17.1875C45.2329 17.1875 45.2327 17.1875 45.2326 17.1875C45.2324 17.1875 45.2323 17.1875 45.2321 17.1875C45.232 17.1875 45.2319 17.1875 45.2317 17.1875C45.2316 17.1875 45.2314 17.1875 45.2313 17.1875C45.2311 17.1875 45.231 17.1875 45.2309 17.1875C45.2307 17.1875 45.2306 17.1875 45.2304 17.1875C45.2303 17.1875 45.2301 17.1875 45.23 17.1875C45.2299 17.1875 45.2297 17.1875 45.2296 17.1875C45.2294 17.1875 45.2293 17.1875 45.2291 17.1875C45.229 17.1875 45.2289 17.1875 45.2287 17.1875C45.2286 17.1875 45.2284 17.1875 45.2283 17.1875C45.2281 17.1875 45.228 17.1875 45.2279 17.1875C45.2277 17.1875 45.2276 17.1875 45.2274 17.1875C45.2273 17.1875 45.2271 17.1875 45.227 17.1875C45.2268 17.1875 45.2267 17.1875 45.2266 17.1875C45.2264 17.1875 45.2263 17.1875 45.2261 17.1875C45.226 17.1875 45.2258 17.1875 45.2257 17.1875C45.2256 17.1875 45.2254 17.1875 45.2253 17.1875C45.2251 17.1875 45.225 17.1875 45.2248 17.1875C45.2247 17.1875 45.2245 17.1875 45.2244 17.1875C45.2243 17.1875 45.2241 17.1875 45.224 17.1875C45.2238 17.1875 45.2237 17.1875 45.2235 17.1875C45.2234 17.1875 45.2232 17.1875 45.2231 17.1875C45.2229 17.1875 45.2228 17.1875 45.2227 17.1875C45.2225 17.1875 45.2224 17.1875 45.2222 17.1875C45.2221 17.1875 45.2219 17.1875 45.2218 17.1875C45.2216 17.1875 45.2215 17.1875 45.2214 17.1875C45.2212 17.1875 45.2211 17.1875 45.2209 17.1875C45.2208 17.1875 45.2206 17.1875 45.2205 17.1875C45.2203 17.1875 45.2202 17.1875 45.22 17.1875C45.2199 17.1875 45.2197 17.1875 45.2196 17.1875C45.2195 17.1875 45.2193 17.1875 45.2192 17.1875C45.219 17.1875 45.2189 17.1875 45.2187 17.1875C45.2186 17.1875 45.2184 17.1875 45.2183 17.1875C45.2181 17.1875 45.218 17.1875 45.2178 17.1875C45.2177 17.1875 45.2176 17.1875 45.2174 17.1875C45.2173 17.1875 45.2171 17.1875 45.217 17.1875C45.2168 17.1875 45.2167 17.1875 45.2165 17.1875C45.2164 17.1875 45.2162 17.1875 45.2161 17.1875C45.2159 17.1875 45.2158 17.1875 45.2156 17.1875C45.2155 17.1875 45.2154 17.1875 45.2152 17.1875C45.2151 17.1875 45.2149 17.1875 45.2148 17.1875C45.2146 17.1875 45.2145 17.1875 45.2143 17.1875C45.2142 17.1875 45.214 17.1875 45.2139 17.1875C45.2137 17.1875 45.2136 17.1875 45.2134 17.1875C45.2133 17.1875 45.2131 17.1875 45.213 17.1875C45.2128 17.1875 45.2127 17.1875 45.2125 17.1875C45.2124 17.1875 45.2122 17.1875 45.2121 17.1875C45.212 17.1875 45.2118 17.1875 45.2117 17.1875C45.2115 17.1875 45.2114 17.1875 45.2112 17.1875C45.2111 17.1875 45.2109 17.1875 45.2108 17.1875C45.2106 17.1875 45.2105 17.1875 45.2103 17.1875C45.2102 17.1875 45.21 17.1875 45.2099 17.1875C45.2097 17.1875 45.2096 17.1875 45.2094 17.1875C45.2093 17.1875 45.2091 17.1875 45.209 17.1875C45.2088 17.1875 45.2087 17.1875 45.2085 17.1875C45.2084 17.1875 45.2082 17.1875 45.2081 17.1875C45.2079 17.1875 45.2078 17.1875 45.2076 17.1875C45.2075 17.1875 45.2073 17.1875 45.2072 17.1875C45.207 17.1875 45.2069 17.1875 45.2067 17.1875C45.2066 17.1875 45.2064 17.1875 45.2063 17.1875C45.2061 17.1875 45.206 17.1875 45.2058 17.1875C45.2057 17.1875 45.2055 17.1875 45.2054 17.1875C45.2052 17.1875 45.2051 17.1875 45.2049 17.1875C45.2048 17.1875 45.2046 17.1875 45.2045 17.1875C45.2043 17.1875 45.2042 17.1875 45.204 17.1875C45.2039 17.1875 45.2037 17.1875 45.2036 17.1875C45.2034 17.1875 45.2033 17.1875 45.2031 17.1875C45.203 17.1875 45.2028 17.1875 45.2027 17.1875C45.2025 17.1875 45.2023 17.1875 45.2022 17.1875C45.202 17.1875 45.2019 17.1875 45.2017 17.1875C45.2016 17.1875 45.2014 17.1875 45.2013 17.1875C45.2011 17.1875 45.201 17.1875 45.2008 17.1875C45.2007 17.1875 45.2005 17.1875 45.2004 17.1875C45.2002 17.1875 45.2001 17.1875 45.1999 17.1875C45.1998 17.1875 45.1996 17.1875 45.1995 17.1875C45.1993 17.1875 45.1991 17.1875 45.199 17.1875C45.1988 17.1875 45.1987 17.1875 45.1985 17.1875C45.1984 17.1875 45.1982 17.1875 45.1981 17.1875C45.1979 17.1875 45.1978 17.1875 45.1976 17.1875C45.1975 17.1875 45.1973 17.1875 45.1971 17.1875C45.197 17.1875 45.1968 17.1875 45.1967 17.1875C45.1965 17.1875 45.1964 17.1875 45.1962 17.1875C45.1961 17.1875 45.1959 17.1875 45.1958 17.1875C45.1956 17.1875 45.1955 17.1875 45.1953 17.1875C45.1951 17.1875 45.195 17.1875 45.1948 17.1875C45.1947 17.1875 45.1945 17.1875 45.1944 17.1875C45.1942 17.1875 45.1941 17.1875 45.1939 17.1875C45.1937 17.1875 45.1936 17.1875 45.1934 17.1875C45.1933 17.1875 45.1931 17.1875 45.193 17.1875C45.1928 17.1875 45.1927 17.1875 45.1925 17.1875C45.1923 17.1875 45.1922 17.1875 45.192 17.1875C45.1919 17.1875 45.1917 17.1875 45.1916 17.1875C45.1914 17.1875 45.1913 17.1875 45.1911 17.1875C45.1909 17.1875 45.1908 17.1875 45.1906 17.1875C45.1905 17.1875 45.1903 17.1875 45.1902 17.1875C45.19 17.1875 45.1898 17.1875 45.1897 17.1875C45.1895 17.1875 45.1894 17.1875 45.1892 17.1875C45.1891 17.1875 45.1889 17.1875 45.1887 17.1875C45.1886 17.1875 45.1884 17.1875 45.1883 17.1875C45.1881 17.1875 45.188 17.1875 45.1878 17.1875C45.1876 17.1875 45.1875 17.1875 45.1873 17.1875C45.1872 17.1875 45.187 17.1875 45.1868 17.1875C45.1867 17.1875 45.1865 17.1875 45.1864 17.1875C45.1862 17.1875 45.1861 17.1875 45.1859 17.1875C45.1857 17.1875 45.1856 17.1875 45.1854 17.1875C45.1853 17.1875 45.1851 17.1875 45.1849 17.1875C45.1848 17.1875 45.1846 17.1875 45.1845 17.1875C45.1843 17.1875 45.1841 17.1875 45.184 17.1875C45.1838 17.1875 45.1837 17.1875 45.1835 17.1875C45.1833 17.1875 45.1832 17.1875 45.183 17.1875C45.1829 17.1875 45.1827 17.1875 45.1825 17.1875C45.1824 17.1875 45.1822 17.1875 45.1821 17.1875C45.1819 17.1875 45.1817 17.1875 45.1816 17.1875C45.1814 17.1875 45.1813 17.1875 45.1811 17.1875C45.1809 17.1875 45.1808 17.1875 45.1806 17.1875C45.1805 17.1875 45.1803 17.1875 45.1801 17.1875C45.18 17.1875 45.1798 17.1875 45.1797 17.1875C45.1795 17.1875 45.1793 17.1875 45.1792 17.1875C45.179 17.1875 45.1788 17.1875 45.1787 17.1875C45.1785 17.1875 45.1784 17.1875 45.1782 17.1875C45.178 17.1875 45.1779 17.1875 45.1777 17.1875C45.1775 17.1875 45.1774 17.1875 45.1772 17.1875C45.1771 17.1875 45.1769 17.1875 45.1767 17.1875C45.1766 17.1875 45.1764 17.1875 45.1762 17.1875C45.1761 17.1875 45.1759 17.1875 45.1758 17.1875C45.1756 17.1875 45.1754 17.1875 45.1753 17.1875C45.1751 17.1875 45.1749 17.1875 45.1748 17.1875C45.1746 17.1875 45.1744 17.1875 45.1743 17.1875C45.1741 17.1875 45.174 17.1875 45.1738 17.1875C45.1736 17.1875 45.1735 17.1875 45.1733 17.1875C45.1731 17.1875 45.173 17.1875 45.1728 17.1875C45.1726 17.1875 45.1725 17.1875 45.1723 17.1875C45.1721 17.1875 45.172 17.1875 45.1718 17.1875C45.1716 17.1875 45.1715 17.1875 45.1713 17.1875C45.1712 17.1875 45.171 17.1875 45.1708 17.1875C45.1707 17.1875 45.1705 17.1875 45.1703 17.1875C45.1702 17.1875 45.17 17.1875 45.1698 17.1875C45.1697 17.1875 45.1695 17.1875 45.1693 17.1875C45.1692 17.1875 45.169 17.1875 45.1688 17.1875C45.1687 17.1875 45.1685 17.1875 45.1683 17.1875C45.1682 17.1875 45.168 17.1875 45.1678 17.1875C45.1677 17.1875 45.1675 17.1875 45.1673 17.1875C45.1672 17.1875 45.167 17.1875 45.1668 17.1875C45.1666 17.1875 45.1665 17.1875 45.1663 17.1875C45.1661 17.1875 45.166 17.1875 45.1658 17.1875C45.1656 17.1875 45.1655 17.1875 45.1653 17.1875C45.1651 17.1875 45.165 17.1875 45.1648 17.1875C45.1646 17.1875 45.1645 17.1875 45.1643 17.1875C45.1641 17.1875 45.164 17.1875 45.1638 17.1875C45.1636 17.1875 45.1634 17.1875 45.1633 17.1875C45.1631 17.1875 45.1629 17.1875 45.1628 17.1875C45.1626 17.1875 45.1624 17.1875 45.1623 17.1875C45.1621 17.1875 45.1619 17.1875 45.1617 17.1875C45.1616 17.1875 45.1614 17.1875 45.1612 17.1875C45.1611 17.1875 45.1609 17.1875 45.1607 17.1875C45.1605 17.1875 45.1604 17.1875 45.1602 17.1875C45.16 17.1875 45.1599 17.1875 45.1597 17.1875C45.1595 17.1875 45.1594 17.1875 45.1592 17.1875C45.159 17.1875 45.1588 17.1875 45.1587 17.1875C45.1585 17.1875 45.1583 17.1875 45.1581 17.1875C45.158 17.1875 45.1578 17.1875 45.1576 17.1875C45.1575 17.1875 45.1573 17.1875 45.1571 17.1875C45.1569 17.1875 45.1568 17.1875 45.1566 17.1875C45.1564 17.1875 45.1562 17.1875 45.1561 17.1875C45.1559 17.1875 45.1557 17.1875 45.1556 17.1875C45.1554 17.1875 45.1552 17.1875 45.155 17.1875C45.1549 17.1875 45.1547 17.1875 45.1545 17.1875C45.1543 17.1875 45.1542 17.1875 45.154 17.1875C45.1538 17.1875 45.1536 17.1875 45.1535 17.1875C45.1533 17.1875 45.1531 17.1875 45.1529 17.1875C45.1528 17.1875 45.1526 17.1875 45.1524 17.1875C45.1522 17.1875 45.1521 17.1875 45.1519 17.1875C45.1517 17.1875 45.1515 17.1875 45.1514 17.1875C45.1512 17.1875 45.151 17.1875 45.1508 17.1875C45.1507 17.1875 45.1505 17.1875 45.1503 17.1875C45.1501 17.1875 45.15 17.1875 45.1498 17.1875C45.1496 17.1875 45.1494 17.1875 45.1492 17.1875C45.1491 17.1875 45.1489 17.1875 45.1487 17.1875C45.1485 17.1875 45.1484 17.1875 45.1482 17.1875C45.148 17.1875 45.1478 17.1875 45.1476 17.1875C45.1475 17.1875 45.1473 17.1875 45.1471 17.1875C45.1469 17.1875 45.1468 17.1875 45.1466 17.1875C45.1464 17.1875 45.1462 17.1875 45.146 17.1875C45.1459 17.1875 45.1457 17.1875 45.1455 17.1875C45.1453 17.1875 45.1451 17.1875 45.145 17.1875C45.1448 17.1875 45.1446 17.1875 45.1444 17.1875C45.1443 17.1875 45.1441 17.1875 45.1439 17.1875C45.1437 17.1875 45.1435 17.1875 45.1434 17.1875C45.1432 17.1875 45.143 17.1875 45.1428 17.1875C45.1426 17.1875 45.1425 17.1875 45.1423 17.1875C45.1421 17.1875 45.1419 17.1875 45.1417 17.1875C45.1415 17.1875 45.1414 17.1875 45.1412 17.1875C45.141 17.1875 45.1408 17.1875 45.1406 17.1875C45.1405 17.1875 45.1403 17.1875 45.1401 17.1875C45.1399 17.1875 45.1397 17.1875 45.1395 17.1875C45.1394 17.1875 45.1392 17.1875 45.139 17.1875C45.1388 17.1875 45.1386 17.1875 45.1385 17.1875C45.1383 17.1875 45.1381 17.1875 45.1379 17.1875C45.1377 17.1875 45.1375 17.1875 45.1374 17.1875C45.1372 17.1875 45.137 17.1875 45.1368 17.1875C45.1366 17.1875 45.1364 17.1875 45.1362 17.1875C45.1361 17.1875 45.1359 17.1875 45.1357 17.1875C45.1355 17.1875 45.1353 17.1875 45.1351 17.1875C45.135 17.1875 45.1348 17.1875 45.1346 17.1875C45.1344 17.1875 45.1342 17.1875 45.134 17.1875C45.1338 17.1875 45.1337 17.1875 45.1335 17.1875C45.1333 17.1875 45.1331 17.1875 45.1329 17.1875C45.1327 17.1875 45.1325 17.1875 45.1324 17.1875C45.1322 17.1875 45.132 17.1875 45.1318 17.1875C45.1316 17.1875 45.1314 17.1875 45.1312 17.1875C45.1311 17.1875 45.1309 17.1875 45.1307 17.1875C45.1305 17.1875 45.1303 17.1875 45.1301 17.1875C45.1299 17.1875 45.1297 17.1875 45.1296 17.1875C45.1294 17.1875 45.1292 17.1875 45.129 17.1875C45.1288 17.1875 45.1286 17.1875 45.1284 17.1875C45.1282 17.1875 45.128 17.1875 45.1279 17.1875C45.1277 17.1875 45.1275 17.1875 45.1273 17.1875C45.1271 17.1875 45.1269 17.1875 45.1267 17.1875C45.1265 17.1875 45.1263 17.1875 45.1261 17.1875C45.126 17.1875 45.1258 17.1875 45.1256 17.1875C45.1254 17.1875 45.1252 17.1875 45.125 17.1875C45.1248 17.1875 45.1246 17.1875 45.1244 17.1875C45.1242 17.1875 45.1241 17.1875 45.1239 17.1875C45.1237 17.1875 45.1235 17.1875 45.1233 17.1875C45.1231 17.1875 45.1229 17.1875 45.1227 17.1875C45.1225 17.1875 45.1223 17.1875 45.1221 17.1875C45.1219 17.1875 45.1217 17.1875 45.1216 17.1875C45.1214 17.1875 45.1212 17.1875 45.121 17.1875C45.1208 17.1875 45.1206 17.1875 45.1204 17.1875C45.1202 17.1875 45.12 17.1875 45.1198 17.1875C45.1196 17.1875 45.1194 17.1875 45.1192 17.1875C45.119 17.1875 45.1189 17.1875 45.1187 17.1875C45.1185 17.1875 45.1183 17.1875 45.1181 17.1875C45.1179 17.1875 45.1177 17.1875 45.1175 17.1875C45.1173 17.1875 45.1171 17.1875 45.1169 17.1875C45.1167 17.1875 45.1165 17.1875 45.1163 17.1875C45.1161 17.1875 45.1159 17.1875 45.1157 17.1875C45.1155 17.1875 45.1153 17.1875 45.1151 17.1875C45.1149 17.1875 45.1147 17.1875 45.1145 17.1875C45.1143 17.1875 45.1142 17.1875 45.114 17.1875C45.1138 17.1875 45.1136 17.1875 45.1134 17.1875C45.1132 17.1875 45.113 17.1875 45.1128 17.1875C45.1126 17.1875 45.1124 17.1875 45.1122 17.1875C45.112 17.1875 45.1118 17.1875 45.1116 17.1875C45.1114 17.1875 45.1112 17.1875 45.111 17.1875C45.1108 17.1875 45.1106 17.1875 45.1104 17.1875C45.1102 17.1875 45.11 17.1875 45.1098 17.1875C45.1096 17.1875 45.1094 17.1875 45.1092 17.1875C45.109 17.1875 45.1088 17.1875 45.1086 17.1875C45.1084 17.1875 45.1082 17.1875 45.108 17.1875C45.1078 17.1875 45.1076 17.1875 45.1074 17.1875C45.1072 17.1875 45.107 17.1875 45.1068 17.1875C45.1066 17.1875 45.1064 17.1875 45.1062 17.1875C45.106 17.1875 45.1058 17.1875 45.1056 17.1875C45.1054 17.1875 45.1052 17.1875 45.105 17.1875C45.1048 17.1875 45.1046 17.1875 45.1044 17.1875C45.1042 17.1875 45.1039 17.1875 45.1037 17.1875C45.1035 17.1875 45.1033 17.1875 45.1031 17.1875C45.1029 17.1875 45.1027 17.1875 45.1025 17.1875C45.1023 17.1875 45.1021 17.1875 45.1019 17.1875C45.1017 17.1875 45.1015 17.1875 45.1013 17.1875C45.1011 17.1875 45.1009 17.1875 45.1007 17.1875C45.1005 17.1875 45.1003 17.1875 45.1001 17.1875C45.0999 17.1875 45.0997 17.1875 45.0994 17.1875C45.0992 17.1875 45.099 17.1875 45.0988 17.1875C45.0986 17.1875 45.0984 17.1875 45.0982 17.1875C45.098 17.1875 45.0978 17.1875 45.0976 17.1875C45.0974 17.1875 45.0972 17.1875 45.097 17.1875C45.0968 17.1875 45.0965 17.1875 45.0963 17.1875C45.0961 17.1875 45.0959 17.1875 45.0957 17.1875C45.0955 17.1875 45.0953 17.1875 45.0951 17.1875C45.0949 17.1875 45.0947 17.1875 45.0945 17.1875C45.0943 17.1875 45.094 17.1875 45.0938 17.1875C45.0936 17.1875 45.0934 17.1875 45.0932 17.1875C45.093 17.1875 45.0928 17.1875 45.0926 17.1875C45.0924 17.1875 45.0922 17.1875 45.0919 17.1875C45.0917 17.1875 45.0915 17.1875 45.0913 17.1875C45.0911 17.1875 45.0909 17.1875 45.0907 17.1875C45.0905 17.1875 45.0903 17.1875 45.09 17.1875C45.0898 17.1875 45.0896 17.1875 45.0894 17.1875C45.0892 17.1875 45.089 17.1875 45.0888 17.1875C45.0886 17.1875 45.0883 17.1875 45.0881 17.1875C45.0879 17.1875 45.0877 17.1875 45.0875 17.1875C45.0873 17.1875 45.0871 17.1875 45.0869 17.1875C45.0866 17.1875 45.0864 17.1875 45.0862 17.1875C45.086 17.1875 45.0858 17.1875 45.0856 17.1875C45.0854 17.1875 45.0851 17.1875 45.0849 17.1875C45.0847 17.1875 45.0845 17.1875 45.0843 17.1875C45.0841 17.1875 45.0839 17.1875 45.0836 17.1875C45.0834 17.1875 45.0832 17.1875 45.083 17.1875C45.0828 17.1875 45.0826 17.1875 45.0823 17.1875C45.0821 17.1875 45.0819 17.1875 45.0817 17.1875C45.0815 17.1875 45.0813 17.1875 45.081 17.1875C45.0808 17.1875 45.0806 17.1875 45.0804 17.1875C45.0802 17.1875 45.0799 17.1875 45.0797 17.1875C45.0795 17.1875 45.0793 17.1875 45.0791 17.1875C45.0789 17.1875 45.0786 17.1875 45.0784 17.1875C45.0782 17.1875 45.078 17.1875 45.0778 17.1875C45.0775 17.1875 45.0773 17.1875 45.0771 17.1875C45.0769 17.1875 45.0767 17.1875 45.0764 17.1875C45.0762 17.1875 45.076 17.1875 45.0758 17.1875C45.0756 17.1875 45.0753 17.1875 45.0751 17.1875C45.0749 17.1875 45.0747 17.1875 45.0745 17.1875C45.0742 17.1875 45.074 17.1875 45.0738 17.1875C45.0736 17.1875 45.0733 17.1875 45.0731 17.1875C45.0729 17.1875 45.0727 17.1875 45.0725 17.1875C45.0722 17.1875 45.072 17.1875 45.0718 17.1875C45.0716 17.1875 45.0713 17.1875 45.0711 17.1875C45.0709 17.1875 45.0707 17.1875 45.0704 17.1875C45.0702 17.1875 45.07 17.1875 45.0698 17.1875C45.0695 17.1875 45.0693 17.1875 45.0691 17.1875C45.0689 17.1875 45.0686 17.1875 45.0684 17.1875C45.0682 17.1875 45.068 17.1875 45.0677 17.1875C45.0675 17.1875 45.0673 17.1875 45.0671 17.1875C45.0668 17.1875 45.0666 17.1875 45.0664 17.1875C45.0662 17.1875 45.0659 17.1875 45.0657 17.1875C45.0655 17.1875 45.0652 17.1875 45.065 17.1875C45.0648 17.1875 45.0646 17.1875 45.0643 17.1875C45.0641 17.1875 45.0639 17.1875 45.0637 17.1875C45.0634 17.1875 45.0632 17.1875 45.063 17.1875C45.0627 17.1875 45.0625 17.1875 45.0623 17.1875C45.062 17.1875 45.0618 17.1875 45.0616 17.1875C45.0614 17.1875 45.0611 17.1875 45.0609 17.1875C45.0607 17.1875 45.0604 17.1875 45.0602 17.1875C45.06 17.1875 45.0597 17.1875 45.0595 17.1875C45.0593 17.1875 45.0591 17.1875 45.0588 17.1875C45.0586 17.1875 45.0584 17.1875 45.0581 17.1875C45.0579 17.1875 45.0577 17.1875 45.0574 17.1875C45.0572 17.1875 45.057 17.1875 45.0567 17.1875C45.0565 17.1875 45.0563 17.1875 45.056 17.1875C45.0558 17.1875 45.0556 17.1875 45.0553 17.1875C45.0551 17.1875 45.0549 17.1875 45.0546 17.1875C45.0544 17.1875 45.0542 17.1875 45.0539 17.1875C45.0537 17.1875 45.0535 17.1875 45.0532 17.1875C45.053 17.1875 45.0528 17.1875 45.0525 17.1875C45.0523 17.1875 45.052 17.1875 45.0518 17.1875C45.0516 17.1875 45.0513 17.1875 45.0511 17.1875C45.0509 17.1875 45.0506 17.1875 45.0504 17.1875C45.0502 17.1875 45.0499 17.1875 45.0497 17.1875C45.0494 17.1875 45.0492 17.1875 45.049 17.1875C45.0487 17.1875 45.0485 17.1875 45.0483 17.1875C45.048 17.1875 45.0478 17.1875 45.0475 17.1875C45.0473 17.1875 45.0471 17.1875 45.0468 17.1875C45.0466 17.1875 45.0463 17.1875 45.0461 17.1875C45.0459 17.1875 45.0456 17.1875 45.0454 17.1875C45.0451 17.1875 45.0449 17.1875 45.0447 17.1875C45.0444 17.1875 45.0442 17.1875 45.0439 17.1875C45.0437 17.1875 45.0435 17.1875 45.0432 17.1875C45.043 17.1875 45.0427 17.1875 45.0425 17.1875C45.0422 17.1875 45.042 17.1875 45.0418 17.1875C45.0415 17.1875 45.0413 17.1875 45.041 17.1875C45.0408 17.1875 45.0406 17.1875 45.0403 17.1875C45.0401 17.1875 45.0398 17.1875 45.0396 17.1875C45.0393 17.1875 45.0391 17.1875 45.0388 17.1875C45.0386 17.1875 45.0384 17.1875 45.0381 17.1875C45.0379 17.1875 45.0376 17.1875 45.0374 17.1875C45.0371 17.1875 45.0369 17.1875 45.0366 17.1875C45.0364 17.1875 45.0361 17.1875 45.0359 17.1875C45.0357 17.1875 45.0354 17.1875 45.0352 17.1875C45.0349 17.1875 45.0347 17.1875 45.0344 17.1875C45.0342 17.1875 45.0339 17.1875 45.0337 17.1875C45.0334 17.1875 45.0332 17.1875 45.0329 17.1875C45.0327 17.1875 45.0324 17.1875 45.0322 17.1875C45.0319 17.1875 45.0317 17.1875 45.0314 17.1875C45.0312 17.1875 45.0309 17.1875 45.0307 17.1875C45.0304 17.1875 45.0302 17.1875 45.0299 17.1875C45.0297 17.1875 45.0294 17.1875 45.0292 17.1875C45.0289 17.1875 45.0287 17.1875 45.0284 17.1875C45.0282 17.1875 45.0279 17.1875 45.0277 17.1875C45.0274 17.1875 45.0272 17.1875 45.0269 17.1875C45.0267 17.1875 45.0264 17.1875 45.0262 17.1875C45.0259 17.1875 45.0257 17.1875 45.0254 17.1875C45.0252 17.1875 45.0249 17.1875 45.0247 17.1875C45.0244 17.1875 45.0241 17.1875 45.0239 17.1875C45.0236 17.1875 45.0234 17.1875 45.0231 17.1875C45.0229 17.1875 45.0226 17.1875 45.0224 17.1875C45.0221 17.1875 45.0219 17.1875 45.0216 17.1875C45.0213 17.1875 45.0211 17.1875 45.0208 17.1875C45.0206 17.1875 45.0203 17.1875 45.0201 17.1875C45.0198 17.1875 45.0196 17.1875 45.0193 17.1875C45.019 17.1875 45.0188 17.1875 45.0185 17.1875C45.0183 17.1875 45.018 17.1875 45.0177 17.1875C45.0175 17.1875 45.0172 17.1875 45.017 17.1875C45.0167 17.1875 45.0165 17.1875 45.0162 17.1875C45.0159 17.1875 45.0157 17.1875 45.0154 17.1875C45.0152 17.1875 45.0149 17.1875 45.0146 17.1875C45.0144 17.1875 45.0141 17.1875 45.0139 17.1875C45.0136 17.1875 45.0133 17.1875 45.0131 17.1875C45.0128 17.1875 45.0126 17.1875 45.0123 17.1875C45.012 17.1875 45.0118 17.1875 45.0115 17.1875C45.0112 17.1875 45.011 17.1875 45.0107 17.1875C45.0105 17.1875 45.0102 17.1875 45.0099 17.1875C45.0097 17.1875 45.0094 17.1875 45.0091 17.1875C45.0089 17.1875 45.0086 17.1875 45.0084 17.1875C45.0081 17.1875 45.0078 17.1875 45.0076 17.1875C45.0073 17.1875 45.007 17.1875 45.0068 17.1875C45.0065 17.1875 45.0062 17.1875 45.006 17.1875C45.0057 17.1875 45.0054 17.1875 45.0052 17.1875C45.0049 17.1875 45.0046 17.1875 45.0044 17.1875C45.0041 17.1875 45.0038 17.1875 45.0036 17.1875C45.0033 17.1875 45.003 17.1875 45.0028 17.1875C45.0025 17.1875 45.0022 17.1875 45.002 17.1875C45.0017 17.1875 45.0014 17.1875 45.0012 17.1875C45.0009 17.1875 45.0006 17.1875 45.0003 17.1875C45.0001 17.1875 44.9998 17.1875 44.9995 17.1875C44.9993 17.1875 44.999 17.1875 44.9987 17.1875C44.9985 17.1875 44.9982 17.1875 44.9979 17.1875C44.9976 17.1875 44.9974 17.1875 44.9971 17.1875C44.9968 17.1875 44.9966 17.1875 44.9963 17.1875C44.996 17.1875 44.9957 17.1875 44.9955 17.1875C44.9952 17.1875 44.9949 17.1875 44.9947 17.1875C44.9944 17.1875 44.9941 17.1875 44.9938 17.1875C44.9936 17.1875 44.9933 17.1875 44.993 17.1875C44.9927 17.1875 44.9925 17.1875 44.9922 17.1875V33.1875C44.9925 33.1875 44.9927 33.1875 44.993 33.1875C44.9933 33.1875 44.9936 33.1875 44.9938 33.1875C44.9941 33.1875 44.9944 33.1875 44.9947 33.1875C44.9949 33.1875 44.9952 33.1875 44.9955 33.1875C44.9957 33.1875 44.996 33.1875 44.9963 33.1875C44.9966 33.1875 44.9968 33.1875 44.9971 33.1875C44.9974 33.1875 44.9976 33.1875 44.9979 33.1875C44.9982 33.1875 44.9985 33.1875 44.9987 33.1875C44.999 33.1875 44.9993 33.1875 44.9995 33.1875C44.9998 33.1875 45.0001 33.1875 45.0003 33.1875C45.0006 33.1875 45.0009 33.1875 45.0012 33.1875C45.0014 33.1875 45.0017 33.1875 45.002 33.1875C45.0022 33.1875 45.0025 33.1875 45.0028 33.1875C45.003 33.1875 45.0033 33.1875 45.0036 33.1875C45.0038 33.1875 45.0041 33.1875 45.0044 33.1875C45.0046 33.1875 45.0049 33.1875 45.0052 33.1875C45.0054 33.1875 45.0057 33.1875 45.006 33.1875C45.0062 33.1875 45.0065 33.1875 45.0068 33.1875C45.007 33.1875 45.0073 33.1875 45.0076 33.1875C45.0078 33.1875 45.0081 33.1875 45.0084 33.1875C45.0086 33.1875 45.0089 33.1875 45.0091 33.1875C45.0094 33.1875 45.0097 33.1875 45.0099 33.1875C45.0102 33.1875 45.0105 33.1875 45.0107 33.1875C45.011 33.1875 45.0112 33.1875 45.0115 33.1875C45.0118 33.1875 45.012 33.1875 45.0123 33.1875C45.0126 33.1875 45.0128 33.1875 45.0131 33.1875C45.0133 33.1875 45.0136 33.1875 45.0139 33.1875C45.0141 33.1875 45.0144 33.1875 45.0146 33.1875C45.0149 33.1875 45.0152 33.1875 45.0154 33.1875C45.0157 33.1875 45.0159 33.1875 45.0162 33.1875C45.0165 33.1875 45.0167 33.1875 45.017 33.1875C45.0172 33.1875 45.0175 33.1875 45.0177 33.1875C45.018 33.1875 45.0183 33.1875 45.0185 33.1875C45.0188 33.1875 45.019 33.1875 45.0193 33.1875C45.0196 33.1875 45.0198 33.1875 45.0201 33.1875C45.0203 33.1875 45.0206 33.1875 45.0208 33.1875C45.0211 33.1875 45.0213 33.1875 45.0216 33.1875C45.0219 33.1875 45.0221 33.1875 45.0224 33.1875C45.0226 33.1875 45.0229 33.1875 45.0231 33.1875C45.0234 33.1875 45.0236 33.1875 45.0239 33.1875C45.0241 33.1875 45.0244 33.1875 45.0247 33.1875C45.0249 33.1875 45.0252 33.1875 45.0254 33.1875C45.0257 33.1875 45.0259 33.1875 45.0262 33.1875C45.0264 33.1875 45.0267 33.1875 45.0269 33.1875C45.0272 33.1875 45.0274 33.1875 45.0277 33.1875C45.0279 33.1875 45.0282 33.1875 45.0284 33.1875C45.0287 33.1875 45.0289 33.1875 45.0292 33.1875C45.0294 33.1875 45.0297 33.1875 45.0299 33.1875C45.0302 33.1875 45.0304 33.1875 45.0307 33.1875C45.0309 33.1875 45.0312 33.1875 45.0314 33.1875C45.0317 33.1875 45.0319 33.1875 45.0322 33.1875C45.0324 33.1875 45.0327 33.1875 45.0329 33.1875C45.0332 33.1875 45.0334 33.1875 45.0337 33.1875C45.0339 33.1875 45.0342 33.1875 45.0344 33.1875C45.0347 33.1875 45.0349 33.1875 45.0352 33.1875C45.0354 33.1875 45.0357 33.1875 45.0359 33.1875C45.0361 33.1875 45.0364 33.1875 45.0366 33.1875C45.0369 33.1875 45.0371 33.1875 45.0374 33.1875C45.0376 33.1875 45.0379 33.1875 45.0381 33.1875C45.0384 33.1875 45.0386 33.1875 45.0388 33.1875C45.0391 33.1875 45.0393 33.1875 45.0396 33.1875C45.0398 33.1875 45.0401 33.1875 45.0403 33.1875C45.0406 33.1875 45.0408 33.1875 45.041 33.1875C45.0413 33.1875 45.0415 33.1875 45.0418 33.1875C45.042 33.1875 45.0422 33.1875 45.0425 33.1875C45.0427 33.1875 45.043 33.1875 45.0432 33.1875C45.0435 33.1875 45.0437 33.1875 45.0439 33.1875C45.0442 33.1875 45.0444 33.1875 45.0447 33.1875C45.0449 33.1875 45.0451 33.1875 45.0454 33.1875C45.0456 33.1875 45.0459 33.1875 45.0461 33.1875C45.0463 33.1875 45.0466 33.1875 45.0468 33.1875C45.0471 33.1875 45.0473 33.1875 45.0475 33.1875C45.0478 33.1875 45.048 33.1875 45.0483 33.1875C45.0485 33.1875 45.0487 33.1875 45.049 33.1875C45.0492 33.1875 45.0494 33.1875 45.0497 33.1875C45.0499 33.1875 45.0502 33.1875 45.0504 33.1875C45.0506 33.1875 45.0509 33.1875 45.0511 33.1875C45.0513 33.1875 45.0516 33.1875 45.0518 33.1875C45.052 33.1875 45.0523 33.1875 45.0525 33.1875C45.0528 33.1875 45.053 33.1875 45.0532 33.1875C45.0535 33.1875 45.0537 33.1875 45.0539 33.1875C45.0542 33.1875 45.0544 33.1875 45.0546 33.1875C45.0549 33.1875 45.0551 33.1875 45.0553 33.1875C45.0556 33.1875 45.0558 33.1875 45.056 33.1875C45.0563 33.1875 45.0565 33.1875 45.0567 33.1875C45.057 33.1875 45.0572 33.1875 45.0574 33.1875C45.0577 33.1875 45.0579 33.1875 45.0581 33.1875C45.0584 33.1875 45.0586 33.1875 45.0588 33.1875C45.0591 33.1875 45.0593 33.1875 45.0595 33.1875C45.0597 33.1875 45.06 33.1875 45.0602 33.1875C45.0604 33.1875 45.0607 33.1875 45.0609 33.1875C45.0611 33.1875 45.0614 33.1875 45.0616 33.1875C45.0618 33.1875 45.062 33.1875 45.0623 33.1875C45.0625 33.1875 45.0627 33.1875 45.063 33.1875C45.0632 33.1875 45.0634 33.1875 45.0637 33.1875C45.0639 33.1875 45.0641 33.1875 45.0643 33.1875C45.0646 33.1875 45.0648 33.1875 45.065 33.1875C45.0652 33.1875 45.0655 33.1875 45.0657 33.1875C45.0659 33.1875 45.0662 33.1875 45.0664 33.1875C45.0666 33.1875 45.0668 33.1875 45.0671 33.1875C45.0673 33.1875 45.0675 33.1875 45.0677 33.1875C45.068 33.1875 45.0682 33.1875 45.0684 33.1875C45.0686 33.1875 45.0689 33.1875 45.0691 33.1875C45.0693 33.1875 45.0695 33.1875 45.0698 33.1875C45.07 33.1875 45.0702 33.1875 45.0704 33.1875C45.0707 33.1875 45.0709 33.1875 45.0711 33.1875C45.0713 33.1875 45.0716 33.1875 45.0718 33.1875C45.072 33.1875 45.0722 33.1875 45.0725 33.1875C45.0727 33.1875 45.0729 33.1875 45.0731 33.1875C45.0733 33.1875 45.0736 33.1875 45.0738 33.1875C45.074 33.1875 45.0742 33.1875 45.0745 33.1875C45.0747 33.1875 45.0749 33.1875 45.0751 33.1875C45.0753 33.1875 45.0756 33.1875 45.0758 33.1875C45.076 33.1875 45.0762 33.1875 45.0764 33.1875C45.0767 33.1875 45.0769 33.1875 45.0771 33.1875C45.0773 33.1875 45.0775 33.1875 45.0778 33.1875C45.078 33.1875 45.0782 33.1875 45.0784 33.1875C45.0786 33.1875 45.0789 33.1875 45.0791 33.1875C45.0793 33.1875 45.0795 33.1875 45.0797 33.1875C45.0799 33.1875 45.0802 33.1875 45.0804 33.1875C45.0806 33.1875 45.0808 33.1875 45.081 33.1875C45.0813 33.1875 45.0815 33.1875 45.0817 33.1875C45.0819 33.1875 45.0821 33.1875 45.0823 33.1875C45.0826 33.1875 45.0828 33.1875 45.083 33.1875C45.0832 33.1875 45.0834 33.1875 45.0836 33.1875C45.0839 33.1875 45.0841 33.1875 45.0843 33.1875C45.0845 33.1875 45.0847 33.1875 45.0849 33.1875C45.0851 33.1875 45.0854 33.1875 45.0856 33.1875C45.0858 33.1875 45.086 33.1875 45.0862 33.1875C45.0864 33.1875 45.0866 33.1875 45.0869 33.1875C45.0871 33.1875 45.0873 33.1875 45.0875 33.1875C45.0877 33.1875 45.0879 33.1875 45.0881 33.1875C45.0883 33.1875 45.0886 33.1875 45.0888 33.1875C45.089 33.1875 45.0892 33.1875 45.0894 33.1875C45.0896 33.1875 45.0898 33.1875 45.09 33.1875C45.0903 33.1875 45.0905 33.1875 45.0907 33.1875C45.0909 33.1875 45.0911 33.1875 45.0913 33.1875C45.0915 33.1875 45.0917 33.1875 45.0919 33.1875C45.0922 33.1875 45.0924 33.1875 45.0926 33.1875C45.0928 33.1875 45.093 33.1875 45.0932 33.1875C45.0934 33.1875 45.0936 33.1875 45.0938 33.1875C45.094 33.1875 45.0943 33.1875 45.0945 33.1875C45.0947 33.1875 45.0949 33.1875 45.0951 33.1875C45.0953 33.1875 45.0955 33.1875 45.0957 33.1875C45.0959 33.1875 45.0961 33.1875 45.0963 33.1875C45.0965 33.1875 45.0968 33.1875 45.097 33.1875C45.0972 33.1875 45.0974 33.1875 45.0976 33.1875C45.0978 33.1875 45.098 33.1875 45.0982 33.1875C45.0984 33.1875 45.0986 33.1875 45.0988 33.1875C45.099 33.1875 45.0992 33.1875 45.0994 33.1875C45.0997 33.1875 45.0999 33.1875 45.1001 33.1875C45.1003 33.1875 45.1005 33.1875 45.1007 33.1875C45.1009 33.1875 45.1011 33.1875 45.1013 33.1875C45.1015 33.1875 45.1017 33.1875 45.1019 33.1875C45.1021 33.1875 45.1023 33.1875 45.1025 33.1875C45.1027 33.1875 45.1029 33.1875 45.1031 33.1875C45.1033 33.1875 45.1035 33.1875 45.1037 33.1875C45.1039 33.1875 45.1042 33.1875 45.1044 33.1875C45.1046 33.1875 45.1048 33.1875 45.105 33.1875C45.1052 33.1875 45.1054 33.1875 45.1056 33.1875C45.1058 33.1875 45.106 33.1875 45.1062 33.1875C45.1064 33.1875 45.1066 33.1875 45.1068 33.1875C45.107 33.1875 45.1072 33.1875 45.1074 33.1875C45.1076 33.1875 45.1078 33.1875 45.108 33.1875C45.1082 33.1875 45.1084 33.1875 45.1086 33.1875C45.1088 33.1875 45.109 33.1875 45.1092 33.1875C45.1094 33.1875 45.1096 33.1875 45.1098 33.1875C45.11 33.1875 45.1102 33.1875 45.1104 33.1875C45.1106 33.1875 45.1108 33.1875 45.111 33.1875C45.1112 33.1875 45.1114 33.1875 45.1116 33.1875C45.1118 33.1875 45.112 33.1875 45.1122 33.1875C45.1124 33.1875 45.1126 33.1875 45.1128 33.1875C45.113 33.1875 45.1132 33.1875 45.1134 33.1875C45.1136 33.1875 45.1138 33.1875 45.114 33.1875C45.1142 33.1875 45.1143 33.1875 45.1145 33.1875C45.1147 33.1875 45.1149 33.1875 45.1151 33.1875C45.1153 33.1875 45.1155 33.1875 45.1157 33.1875C45.1159 33.1875 45.1161 33.1875 45.1163 33.1875C45.1165 33.1875 45.1167 33.1875 45.1169 33.1875C45.1171 33.1875 45.1173 33.1875 45.1175 33.1875C45.1177 33.1875 45.1179 33.1875 45.1181 33.1875C45.1183 33.1875 45.1185 33.1875 45.1187 33.1875C45.1189 33.1875 45.119 33.1875 45.1192 33.1875C45.1194 33.1875 45.1196 33.1875 45.1198 33.1875C45.12 33.1875 45.1202 33.1875 45.1204 33.1875C45.1206 33.1875 45.1208 33.1875 45.121 33.1875C45.1212 33.1875 45.1214 33.1875 45.1216 33.1875C45.1217 33.1875 45.1219 33.1875 45.1221 33.1875C45.1223 33.1875 45.1225 33.1875 45.1227 33.1875C45.1229 33.1875 45.1231 33.1875 45.1233 33.1875C45.1235 33.1875 45.1237 33.1875 45.1239 33.1875C45.1241 33.1875 45.1242 33.1875 45.1244 33.1875C45.1246 33.1875 45.1248 33.1875 45.125 33.1875C45.1252 33.1875 45.1254 33.1875 45.1256 33.1875C45.1258 33.1875 45.126 33.1875 45.1261 33.1875C45.1263 33.1875 45.1265 33.1875 45.1267 33.1875C45.1269 33.1875 45.1271 33.1875 45.1273 33.1875C45.1275 33.1875 45.1277 33.1875 45.1279 33.1875C45.128 33.1875 45.1282 33.1875 45.1284 33.1875C45.1286 33.1875 45.1288 33.1875 45.129 33.1875C45.1292 33.1875 45.1294 33.1875 45.1296 33.1875C45.1297 33.1875 45.1299 33.1875 45.1301 33.1875C45.1303 33.1875 45.1305 33.1875 45.1307 33.1875C45.1309 33.1875 45.1311 33.1875 45.1312 33.1875C45.1314 33.1875 45.1316 33.1875 45.1318 33.1875C45.132 33.1875 45.1322 33.1875 45.1324 33.1875C45.1325 33.1875 45.1327 33.1875 45.1329 33.1875C45.1331 33.1875 45.1333 33.1875 45.1335 33.1875C45.1337 33.1875 45.1338 33.1875 45.134 33.1875C45.1342 33.1875 45.1344 33.1875 45.1346 33.1875C45.1348 33.1875 45.135 33.1875 45.1351 33.1875C45.1353 33.1875 45.1355 33.1875 45.1357 33.1875C45.1359 33.1875 45.1361 33.1875 45.1362 33.1875C45.1364 33.1875 45.1366 33.1875 45.1368 33.1875C45.137 33.1875 45.1372 33.1875 45.1374 33.1875C45.1375 33.1875 45.1377 33.1875 45.1379 33.1875C45.1381 33.1875 45.1383 33.1875 45.1385 33.1875C45.1386 33.1875 45.1388 33.1875 45.139 33.1875C45.1392 33.1875 45.1394 33.1875 45.1395 33.1875C45.1397 33.1875 45.1399 33.1875 45.1401 33.1875C45.1403 33.1875 45.1405 33.1875 45.1406 33.1875C45.1408 33.1875 45.141 33.1875 45.1412 33.1875C45.1414 33.1875 45.1415 33.1875 45.1417 33.1875C45.1419 33.1875 45.1421 33.1875 45.1423 33.1875C45.1425 33.1875 45.1426 33.1875 45.1428 33.1875C45.143 33.1875 45.1432 33.1875 45.1434 33.1875C45.1435 33.1875 45.1437 33.1875 45.1439 33.1875C45.1441 33.1875 45.1443 33.1875 45.1444 33.1875C45.1446 33.1875 45.1448 33.1875 45.145 33.1875C45.1451 33.1875 45.1453 33.1875 45.1455 33.1875C45.1457 33.1875 45.1459 33.1875 45.146 33.1875C45.1462 33.1875 45.1464 33.1875 45.1466 33.1875C45.1468 33.1875 45.1469 33.1875 45.1471 33.1875C45.1473 33.1875 45.1475 33.1875 45.1476 33.1875C45.1478 33.1875 45.148 33.1875 45.1482 33.1875C45.1484 33.1875 45.1485 33.1875 45.1487 33.1875C45.1489 33.1875 45.1491 33.1875 45.1492 33.1875C45.1494 33.1875 45.1496 33.1875 45.1498 33.1875C45.15 33.1875 45.1501 33.1875 45.1503 33.1875C45.1505 33.1875 45.1507 33.1875 45.1508 33.1875C45.151 33.1875 45.1512 33.1875 45.1514 33.1875C45.1515 33.1875 45.1517 33.1875 45.1519 33.1875C45.1521 33.1875 45.1522 33.1875 45.1524 33.1875C45.1526 33.1875 45.1528 33.1875 45.1529 33.1875C45.1531 33.1875 45.1533 33.1875 45.1535 33.1875C45.1536 33.1875 45.1538 33.1875 45.154 33.1875C45.1542 33.1875 45.1543 33.1875 45.1545 33.1875C45.1547 33.1875 45.1549 33.1875 45.155 33.1875C45.1552 33.1875 45.1554 33.1875 45.1556 33.1875C45.1557 33.1875 45.1559 33.1875 45.1561 33.1875C45.1562 33.1875 45.1564 33.1875 45.1566 33.1875C45.1568 33.1875 45.1569 33.1875 45.1571 33.1875C45.1573 33.1875 45.1575 33.1875 45.1576 33.1875C45.1578 33.1875 45.158 33.1875 45.1581 33.1875C45.1583 33.1875 45.1585 33.1875 45.1587 33.1875C45.1588 33.1875 45.159 33.1875 45.1592 33.1875C45.1594 33.1875 45.1595 33.1875 45.1597 33.1875C45.1599 33.1875 45.16 33.1875 45.1602 33.1875C45.1604 33.1875 45.1605 33.1875 45.1607 33.1875C45.1609 33.1875 45.1611 33.1875 45.1612 33.1875C45.1614 33.1875 45.1616 33.1875 45.1617 33.1875C45.1619 33.1875 45.1621 33.1875 45.1623 33.1875C45.1624 33.1875 45.1626 33.1875 45.1628 33.1875C45.1629 33.1875 45.1631 33.1875 45.1633 33.1875C45.1634 33.1875 45.1636 33.1875 45.1638 33.1875C45.164 33.1875 45.1641 33.1875 45.1643 33.1875C45.1645 33.1875 45.1646 33.1875 45.1648 33.1875C45.165 33.1875 45.1651 33.1875 45.1653 33.1875C45.1655 33.1875 45.1656 33.1875 45.1658 33.1875C45.166 33.1875 45.1661 33.1875 45.1663 33.1875C45.1665 33.1875 45.1666 33.1875 45.1668 33.1875C45.167 33.1875 45.1672 33.1875 45.1673 33.1875C45.1675 33.1875 45.1677 33.1875 45.1678 33.1875C45.168 33.1875 45.1682 33.1875 45.1683 33.1875C45.1685 33.1875 45.1687 33.1875 45.1688 33.1875C45.169 33.1875 45.1692 33.1875 45.1693 33.1875C45.1695 33.1875 45.1697 33.1875 45.1698 33.1875C45.17 33.1875 45.1702 33.1875 45.1703 33.1875C45.1705 33.1875 45.1707 33.1875 45.1708 33.1875C45.171 33.1875 45.1712 33.1875 45.1713 33.1875C45.1715 33.1875 45.1716 33.1875 45.1718 33.1875C45.172 33.1875 45.1721 33.1875 45.1723 33.1875C45.1725 33.1875 45.1726 33.1875 45.1728 33.1875C45.173 33.1875 45.1731 33.1875 45.1733 33.1875C45.1735 33.1875 45.1736 33.1875 45.1738 33.1875C45.174 33.1875 45.1741 33.1875 45.1743 33.1875C45.1744 33.1875 45.1746 33.1875 45.1748 33.1875C45.1749 33.1875 45.1751 33.1875 45.1753 33.1875C45.1754 33.1875 45.1756 33.1875 45.1758 33.1875C45.1759 33.1875 45.1761 33.1875 45.1762 33.1875C45.1764 33.1875 45.1766 33.1875 45.1767 33.1875C45.1769 33.1875 45.1771 33.1875 45.1772 33.1875C45.1774 33.1875 45.1775 33.1875 45.1777 33.1875C45.1779 33.1875 45.178 33.1875 45.1782 33.1875C45.1784 33.1875 45.1785 33.1875 45.1787 33.1875C45.1788 33.1875 45.179 33.1875 45.1792 33.1875C45.1793 33.1875 45.1795 33.1875 45.1797 33.1875C45.1798 33.1875 45.18 33.1875 45.1801 33.1875C45.1803 33.1875 45.1805 33.1875 45.1806 33.1875C45.1808 33.1875 45.1809 33.1875 45.1811 33.1875C45.1813 33.1875 45.1814 33.1875 45.1816 33.1875C45.1817 33.1875 45.1819 33.1875 45.1821 33.1875C45.1822 33.1875 45.1824 33.1875 45.1825 33.1875C45.1827 33.1875 45.1829 33.1875 45.183 33.1875C45.1832 33.1875 45.1833 33.1875 45.1835 33.1875C45.1837 33.1875 45.1838 33.1875 45.184 33.1875C45.1841 33.1875 45.1843 33.1875 45.1845 33.1875C45.1846 33.1875 45.1848 33.1875 45.1849 33.1875C45.1851 33.1875 45.1853 33.1875 45.1854 33.1875C45.1856 33.1875 45.1857 33.1875 45.1859 33.1875C45.1861 33.1875 45.1862 33.1875 45.1864 33.1875C45.1865 33.1875 45.1867 33.1875 45.1868 33.1875C45.187 33.1875 45.1872 33.1875 45.1873 33.1875C45.1875 33.1875 45.1876 33.1875 45.1878 33.1875C45.188 33.1875 45.1881 33.1875 45.1883 33.1875C45.1884 33.1875 45.1886 33.1875 45.1887 33.1875C45.1889 33.1875 45.1891 33.1875 45.1892 33.1875C45.1894 33.1875 45.1895 33.1875 45.1897 33.1875C45.1898 33.1875 45.19 33.1875 45.1902 33.1875C45.1903 33.1875 45.1905 33.1875 45.1906 33.1875C45.1908 33.1875 45.1909 33.1875 45.1911 33.1875C45.1913 33.1875 45.1914 33.1875 45.1916 33.1875C45.1917 33.1875 45.1919 33.1875 45.192 33.1875C45.1922 33.1875 45.1923 33.1875 45.1925 33.1875C45.1927 33.1875 45.1928 33.1875 45.193 33.1875C45.1931 33.1875 45.1933 33.1875 45.1934 33.1875C45.1936 33.1875 45.1937 33.1875 45.1939 33.1875C45.1941 33.1875 45.1942 33.1875 45.1944 33.1875C45.1945 33.1875 45.1947 33.1875 45.1948 33.1875C45.195 33.1875 45.1951 33.1875 45.1953 33.1875C45.1955 33.1875 45.1956 33.1875 45.1958 33.1875C45.1959 33.1875 45.1961 33.1875 45.1962 33.1875C45.1964 33.1875 45.1965 33.1875 45.1967 33.1875C45.1968 33.1875 45.197 33.1875 45.1971 33.1875C45.1973 33.1875 45.1975 33.1875 45.1976 33.1875C45.1978 33.1875 45.1979 33.1875 45.1981 33.1875C45.1982 33.1875 45.1984 33.1875 45.1985 33.1875C45.1987 33.1875 45.1988 33.1875 45.199 33.1875C45.1991 33.1875 45.1993 33.1875 45.1995 33.1875C45.1996 33.1875 45.1998 33.1875 45.1999 33.1875C45.2001 33.1875 45.2002 33.1875 45.2004 33.1875C45.2005 33.1875 45.2007 33.1875 45.2008 33.1875C45.201 33.1875 45.2011 33.1875 45.2013 33.1875C45.2014 33.1875 45.2016 33.1875 45.2017 33.1875C45.2019 33.1875 45.202 33.1875 45.2022 33.1875C45.2023 33.1875 45.2025 33.1875 45.2027 33.1875C45.2028 33.1875 45.203 33.1875 45.2031 33.1875C45.2033 33.1875 45.2034 33.1875 45.2036 33.1875C45.2037 33.1875 45.2039 33.1875 45.204 33.1875C45.2042 33.1875 45.2043 33.1875 45.2045 33.1875C45.2046 33.1875 45.2048 33.1875 45.2049 33.1875C45.2051 33.1875 45.2052 33.1875 45.2054 33.1875C45.2055 33.1875 45.2057 33.1875 45.2058 33.1875C45.206 33.1875 45.2061 33.1875 45.2063 33.1875C45.2064 33.1875 45.2066 33.1875 45.2067 33.1875C45.2069 33.1875 45.207 33.1875 45.2072 33.1875C45.2073 33.1875 45.2075 33.1875 45.2076 33.1875C45.2078 33.1875 45.2079 33.1875 45.2081 33.1875C45.2082 33.1875 45.2084 33.1875 45.2085 33.1875C45.2087 33.1875 45.2088 33.1875 45.209 33.1875C45.2091 33.1875 45.2093 33.1875 45.2094 33.1875C45.2096 33.1875 45.2097 33.1875 45.2099 33.1875C45.21 33.1875 45.2102 33.1875 45.2103 33.1875C45.2105 33.1875 45.2106 33.1875 45.2108 33.1875C45.2109 33.1875 45.2111 33.1875 45.2112 33.1875C45.2114 33.1875 45.2115 33.1875 45.2117 33.1875C45.2118 33.1875 45.212 33.1875 45.2121 33.1875C45.2122 33.1875 45.2124 33.1875 45.2125 33.1875C45.2127 33.1875 45.2128 33.1875 45.213 33.1875C45.2131 33.1875 45.2133 33.1875 45.2134 33.1875C45.2136 33.1875 45.2137 33.1875 45.2139 33.1875C45.214 33.1875 45.2142 33.1875 45.2143 33.1875C45.2145 33.1875 45.2146 33.1875 45.2148 33.1875C45.2149 33.1875 45.2151 33.1875 45.2152 33.1875C45.2154 33.1875 45.2155 33.1875 45.2156 33.1875C45.2158 33.1875 45.2159 33.1875 45.2161 33.1875C45.2162 33.1875 45.2164 33.1875 45.2165 33.1875C45.2167 33.1875 45.2168 33.1875 45.217 33.1875C45.2171 33.1875 45.2173 33.1875 45.2174 33.1875C45.2176 33.1875 45.2177 33.1875 45.2178 33.1875C45.218 33.1875 45.2181 33.1875 45.2183 33.1875C45.2184 33.1875 45.2186 33.1875 45.2187 33.1875C45.2189 33.1875 45.219 33.1875 45.2192 33.1875C45.2193 33.1875 45.2195 33.1875 45.2196 33.1875C45.2197 33.1875 45.2199 33.1875 45.22 33.1875C45.2202 33.1875 45.2203 33.1875 45.2205 33.1875C45.2206 33.1875 45.2208 33.1875 45.2209 33.1875C45.2211 33.1875 45.2212 33.1875 45.2214 33.1875C45.2215 33.1875 45.2216 33.1875 45.2218 33.1875C45.2219 33.1875 45.2221 33.1875 45.2222 33.1875C45.2224 33.1875 45.2225 33.1875 45.2227 33.1875C45.2228 33.1875 45.2229 33.1875 45.2231 33.1875C45.2232 33.1875 45.2234 33.1875 45.2235 33.1875C45.2237 33.1875 45.2238 33.1875 45.224 33.1875C45.2241 33.1875 45.2243 33.1875 45.2244 33.1875C45.2245 33.1875 45.2247 33.1875 45.2248 33.1875C45.225 33.1875 45.2251 33.1875 45.2253 33.1875C45.2254 33.1875 45.2256 33.1875 45.2257 33.1875C45.2258 33.1875 45.226 33.1875 45.2261 33.1875C45.2263 33.1875 45.2264 33.1875 45.2266 33.1875C45.2267 33.1875 45.2268 33.1875 45.227 33.1875C45.2271 33.1875 45.2273 33.1875 45.2274 33.1875C45.2276 33.1875 45.2277 33.1875 45.2279 33.1875C45.228 33.1875 45.2281 33.1875 45.2283 33.1875C45.2284 33.1875 45.2286 33.1875 45.2287 33.1875C45.2289 33.1875 45.229 33.1875 45.2291 33.1875C45.2293 33.1875 45.2294 33.1875 45.2296 33.1875C45.2297 33.1875 45.2299 33.1875 45.23 33.1875C45.2301 33.1875 45.2303 33.1875 45.2304 33.1875C45.2306 33.1875 45.2307 33.1875 45.2309 33.1875C45.231 33.1875 45.2311 33.1875 45.2313 33.1875C45.2314 33.1875 45.2316 33.1875 45.2317 33.1875C45.2319 33.1875 45.232 33.1875 45.2321 33.1875C45.2323 33.1875 45.2324 33.1875 45.2326 33.1875C45.2327 33.1875 45.2329 33.1875 45.233 33.1875C45.2331 33.1875 45.2333 33.1875 45.2334 33.1875C45.2336 33.1875 45.2337 33.1875 45.2338 33.1875C45.234 33.1875 45.2341 33.1875 45.2343 33.1875C45.2344 33.1875 45.2346 33.1875 45.2347 33.1875C45.2348 33.1875 45.235 33.1875 45.2351 33.1875C45.2353 33.1875 45.2354 33.1875 45.2356 33.1875C45.2357 33.1875 45.2358 33.1875 45.236 33.1875C45.2361 33.1875 45.2363 33.1875 45.2364 33.1875C45.2365 33.1875 45.2367 33.1875 45.2368 33.1875C45.237 33.1875 45.2371 33.1875 45.2373 33.1875C45.2374 33.1875 45.2375 33.1875 45.2377 33.1875C45.2378 33.1875 45.238 33.1875 45.2381 33.1875C45.2382 33.1875 45.2384 33.1875 45.2385 33.1875C45.2387 33.1875 45.2388 33.1875 45.2389 33.1875C45.2391 33.1875 45.2392 33.1875 45.2394 33.1875C45.2395 33.1875 45.2396 33.1875 45.2398 33.1875C45.2399 33.1875 45.2401 33.1875 45.2402 33.1875C45.2404 33.1875 45.2405 33.1875 45.2406 33.1875C45.2408 33.1875 45.2409 33.1875 45.2411 33.1875C45.2412 33.1875 45.2413 33.1875 45.2415 33.1875C45.2416 33.1875 45.2418 33.1875 45.2419 33.1875C45.242 33.1875 45.2422 33.1875 45.2423 33.1875C45.2425 33.1875 45.2426 33.1875 45.2427 33.1875C45.2429 33.1875 45.243 33.1875 45.2432 33.1875C45.2433 33.1875 45.2434 33.1875 45.2436 33.1875C45.2437 33.1875 45.2439 33.1875 45.244 33.1875C45.2441 33.1875 45.2443 33.1875 45.2444 33.1875C45.2446 33.1875 45.2447 33.1875 45.2448 33.1875C45.245 33.1875 45.2451 33.1875 45.2453 33.1875C45.2454 33.1875 45.2455 33.1875 45.2457 33.1875C45.2458 33.1875 45.246 33.1875 45.2461 33.1875C45.2462 33.1875 45.2464 33.1875 45.2465 33.1875C45.2467 33.1875 45.2468 33.1875 45.2469 33.1875C45.2471 33.1875 45.2472 33.1875 45.2474 33.1875C45.2475 33.1875 45.2476 33.1875 45.2478 33.1875C45.2479 33.1875 45.248 33.1875 45.2482 33.1875C45.2483 33.1875 45.2485 33.1875 45.2486 33.1875C45.2487 33.1875 45.2489 33.1875 45.249 33.1875C45.2492 33.1875 45.2493 33.1875 45.2494 33.1875C45.2496 33.1875 45.2497 33.1875 45.2499 33.1875C45.25 33.1875 45.2501 33.1875 45.2503 33.1875C45.2504 33.1875 45.2506 33.1875 45.2507 33.1875C45.2508 33.1875 45.251 33.1875 45.2511 33.1875C45.2512 33.1875 45.2514 33.1875 45.2515 33.1875C45.2517 33.1875 45.2518 33.1875 45.2519 33.1875C45.2521 33.1875 45.2522 33.1875 45.2524 33.1875C45.2525 33.1875 45.2526 33.1875 45.2528 33.1875C45.2529 33.1875 45.2531 33.1875 45.2532 33.1875C45.2533 33.1875 45.2535 33.1875 45.2536 33.1875C45.2537 33.1875 45.2539 33.1875 45.254 33.1875C45.2542 33.1875 45.2543 33.1875 45.2544 33.1875C45.2546 33.1875 45.2547 33.1875 45.2548 33.1875C45.255 33.1875 45.2551 33.1875 45.2553 33.1875C45.2554 33.1875 45.2555 33.1875 45.2557 33.1875C45.2558 33.1875 45.256 33.1875 45.2561 33.1875C45.2562 33.1875 45.2564 33.1875 45.2565 33.1875C45.2566 33.1875 45.2568 33.1875 45.2569 33.1875C45.2571 33.1875 45.2572 33.1875 45.2573 33.1875C45.2575 33.1875 45.2576 33.1875 45.2578 33.1875C45.2579 33.1875 45.258 33.1875 45.2582 33.1875C45.2583 33.1875 45.2584 33.1875 45.2586 33.1875C45.2587 33.1875 45.2589 33.1875 45.259 33.1875C45.2591 33.1875 45.2593 33.1875 45.2594 33.1875C45.2595 33.1875 45.2597 33.1875 45.2598 33.1875C45.26 33.1875 45.2601 33.1875 45.2602 33.1875C45.2604 33.1875 45.2605 33.1875 45.2607 33.1875C45.2608 33.1875 45.2609 33.1875 45.2611 33.1875C45.2612 33.1875 45.2613 33.1875 45.2615 33.1875C45.2616 33.1875 45.2618 33.1875 45.2619 33.1875C45.262 33.1875 45.2622 33.1875 45.2623 33.1875C45.2624 33.1875 45.2626 33.1875 45.2627 33.1875C45.2629 33.1875 45.263 33.1875 45.2631 33.1875C45.2633 33.1875 45.2634 33.1875 45.2635 33.1875C45.2637 33.1875 45.2638 33.1875 45.264 33.1875C45.2641 33.1875 45.2642 33.1875 45.2644 33.1875C45.2645 33.1875 45.2646 33.1875 45.2648 33.1875C45.2649 33.1875 45.2651 33.1875 45.2652 33.1875C45.2653 33.1875 45.2655 33.1875 45.2656 33.1875C45.2657 33.1875 45.2659 33.1875 45.266 33.1875C45.2662 33.1875 45.2663 33.1875 45.2664 33.1875C45.2666 33.1875 45.2667 33.1875 45.2668 33.1875C45.267 33.1875 45.2671 33.1875 45.2673 33.1875C45.2674 33.1875 45.2675 33.1875 45.2677 33.1875C45.2678 33.1875 45.2679 33.1875 45.2681 33.1875C45.2682 33.1875 45.2684 33.1875 45.2685 33.1875C45.2686 33.1875 45.2688 33.1875 45.2689 33.1875C45.269 33.1875 45.2692 33.1875 45.2693 33.1875C45.2695 33.1875 45.2696 33.1875 45.2697 33.1875C45.2699 33.1875 45.27 33.1875 45.2701 33.1875C45.2703 33.1875 45.2704 33.1875 45.2706 33.1875C45.2707 33.1875 45.2708 33.1875 45.271 33.1875C45.2711 33.1875 45.2712 33.1875 45.2714 33.1875C45.2715 33.1875 45.2717 33.1875 45.2718 33.1875C45.2719 33.1875 45.2721 33.1875 45.2722 33.1875C45.2723 33.1875 45.2725 33.1875 45.2726 33.1875C45.2728 33.1875 45.2729 33.1875 45.273 33.1875C45.2732 33.1875 45.2733 33.1875 45.2734 33.1875V17.1875ZM42.9562 17.4509L29.5969 20.9665L33.6688 36.4397L47.0281 32.9241L42.9562 17.4509ZM24.7558 32.7904L29.1854 40.2436L42.9396 32.0689L38.5099 24.6158L24.7558 32.7904ZM28.9071 39.734C28.9246 39.769 29.0187 39.9591 29.1226 40.1511C29.2198 40.3304 29.4637 40.7732 29.8383 41.2727C30.7175 42.445 32.8698 44.5781 36.4141 44.5781V28.5781C37.8353 28.5781 39.2597 28.9676 40.5124 29.7385C41.6378 30.4311 42.3155 31.2423 42.6383 31.6727C42.9601 32.1018 43.1513 32.4567 43.1913 32.5306C43.2382 32.617 43.2707 32.6841 43.2179 32.5785L28.9071 39.734ZM36.4141 44.5781C36.5545 44.5781 38.3793 44.6452 40.3433 43.6632L33.1879 29.3524C34.8707 28.511 36.4143 28.5781 36.4141 28.5781V44.5781ZM39.3561 44.0768L52.5045 39.5768L47.3236 24.4388L34.1752 28.9388L39.3561 44.0768ZM49.9141 40.0078C51.1978 40.0078 52.4963 39.7137 53.6851 39.1193C54.2754 38.8242 55.1659 38.292 56.0196 37.3774C56.8314 36.5076 58.1953 34.6319 58.1953 31.8672H42.1953C42.1953 29.1376 43.5416 27.2971 44.3227 26.4603C45.1456 25.5786 45.9922 25.0772 46.5297 24.8084C47.6131 24.2668 48.771 24.0078 49.9141 24.0078V40.0078ZM50.1953 31.8672C55.8522 26.2103 55.8535 26.2117 55.8549 26.2131C55.8554 26.2136 55.8568 26.2149 55.8577 26.2159C55.8596 26.2177 55.8614 26.2196 55.8633 26.2214C55.867 26.2252 55.8707 26.2289 55.8744 26.2327C55.8819 26.2402 55.8894 26.2478 55.897 26.2556C55.9122 26.271 55.9277 26.2868 55.9433 26.303C55.9747 26.3354 56.0072 26.3695 56.0407 26.4055C56.1073 26.4769 56.1806 26.5581 56.2584 26.6488C56.4067 26.8218 56.6058 27.0695 56.8166 27.3856C57.0187 27.6888 57.309 28.17 57.5638 28.8071C57.8121 29.4279 58.125 30.4405 58.125 31.7266H42.125C42.125 34.1664 43.2205 35.836 43.5038 36.2608C43.7321 36.6034 43.9487 36.873 44.1103 37.0614C44.1946 37.1598 44.2734 37.2471 44.3438 37.3226C44.3793 37.3606 44.4134 37.3963 44.4457 37.4298C44.4619 37.4465 44.4777 37.4627 44.4932 37.4784C44.5009 37.4863 44.5085 37.494 44.5161 37.5016C44.5199 37.5054 44.5236 37.5092 44.5273 37.5129C44.5292 37.5148 44.5311 37.5166 44.5329 37.5185C44.5338 37.5194 44.5352 37.5208 44.5357 37.5213C44.5371 37.5227 44.5385 37.524 50.1953 31.8672ZM57.2804 28.1489L57.2101 28.0082L42.8993 35.1636L42.9696 35.3043L57.2804 28.1489ZM52.4674 30.0087C53.1796 29.8663 54.9178 29.4508 56.5356 28.0353C57.4287 27.2538 58.5651 25.91 59.0797 23.9159C59.6257 21.8002 59.2533 19.7899 58.4757 18.2348L44.1649 25.3902C43.4225 23.9054 43.0589 21.9654 43.5873 19.9178C44.0843 17.9918 45.1767 16.714 45.9995 15.994C47.4767 14.7015 48.9688 14.3916 49.3295 14.3194L52.4674 30.0087ZM57.4913 16.7214C56.3529 15.3416 55.4901 14.2753 54.8889 13.5176C54.5873 13.1376 54.3637 12.8504 54.21 12.649C54.019 12.3986 54.025 12.3965 54.1095 12.5233L40.7967 21.3985C41.3583 22.2409 42.9403 24.226 45.1493 26.9036L57.4913 16.7214ZM54.1095 12.5233C52.0771 9.47472 48.9459 8.67969 46.8906 8.67969V24.6797C46.1319 24.6797 45.057 24.5556 43.8878 24.0241C42.6504 23.4617 41.5695 22.5577 40.7967 21.3985L54.1095 12.5233ZM45.4692 8.80698L40.4067 9.72105L43.2496 25.4665L48.3121 24.5524L45.4692 8.80698ZM39.2983 10.0043C38.0451 10.422 34.3867 12.0956 33.7415 16.6118C33.1878 20.4878 35.4741 22.9753 36.101 23.6022L47.4147 12.2885C47.9009 12.7747 50.1169 15.1215 49.5807 18.8745C48.9531 23.2677 45.4002 24.8358 44.3579 25.1832L39.2983 10.0043ZM35.2987 22.6654L39.3065 28.1498L52.2248 18.7096L48.2169 13.2252L35.2987 22.6654ZM47.7059 31.1908C48.5278 30.9854 49.3703 30.779 50.235 30.5673C51.0929 30.3571 51.9731 30.1416 52.8387 29.9252L48.9582 14.4029C48.1363 14.6084 47.2938 14.8147 46.4291 15.0265C45.5711 15.2366 44.6909 15.4521 43.8253 15.6685L47.7059 31.1908Z" fill="white"/>
</svg>
