<svg width="42" height="54" viewBox="0 0 42 54" fill="none" xmlns="http://www.w3.org/2000/svg">
<path d="M13.9703 46L5.99511 45.3704C5.81952 47.5946 6.58075 49.7911 8.09505 51.4297C9.60936 53.0683 11.7391 54 13.9703 54V46ZM18.1823 28.558L10.7228 25.6674C10.7163 25.6842 10.7098 25.7011 10.7034 25.7179L18.1823 28.558ZM21.8003 20.512L14.7275 16.7735C14.7209 16.7862 14.7142 16.7988 14.7076 16.8115L21.8003 20.512ZM25.7423 14.194L32.0933 19.0586C33.9448 16.6414 34.2636 13.3828 32.9158 10.6526C31.5679 7.92239 28.7871 6.194 25.7423 6.194V14.194ZM8.5163 14.194H0.516297C0.516297 18.6123 4.09802 22.194 8.5163 22.194L8.5163 14.194ZM8.5163 8.578V0.577999C4.09802 0.577999 0.516297 4.15972 0.516297 8.578H8.5163ZM33.5183 8.578H41.5183C41.5183 4.15972 37.9366 0.577999 33.5183 0.577999V8.578ZM33.5183 13.546L39.4887 18.8709C40.7959 17.4052 41.5183 15.5099 41.5183 13.546H33.5183ZM29.6303 19L36.4618 23.163L36.4618 23.163L29.6303 19ZM25.6343 26.83L32.9636 30.0365C32.9684 30.0255 32.9732 30.0143 32.978 30.0032L25.6343 26.83ZM22.3403 36.118L14.6418 33.9423C14.6345 33.9682 14.6273 33.9942 14.6203 34.0202L22.3403 36.118ZM20.6663 46V54C24.8803 54 28.3717 50.7312 28.649 46.5263L20.6663 46ZM21.9455 46.6296C22.1223 44.3904 22.5268 41.9508 23.1894 39.3003L7.66716 35.4197C6.81779 38.8172 6.25033 42.1376 5.99511 45.3704L21.9455 46.6296ZM23.1894 39.3003C23.871 36.574 24.6956 33.9408 25.6612 31.3981L10.7034 25.7179C9.509 28.8632 8.49759 32.098 7.66716 35.4197L23.1894 39.3003ZM25.6418 31.4486C26.6614 28.8175 27.7473 26.4085 28.893 24.2125L14.7076 16.8115C13.2613 19.5835 11.9352 22.5385 10.7228 25.6674L25.6418 31.4486ZM28.8731 24.2505C30.0613 22.0025 31.142 20.3006 32.0933 19.0586L19.3913 9.32938C17.7506 11.4714 16.2033 13.9815 14.7275 16.7735L28.8731 24.2505ZM25.7423 6.194H8.5163V22.194H25.7423V6.194ZM16.5163 14.194V8.578H0.516297V14.194H16.5163ZM8.5163 16.578H33.5183V0.577999H8.5163V16.578ZM25.5183 8.578V13.546H41.5183V8.578H25.5183ZM27.5479 8.22108C25.92 10.0463 24.3406 12.3068 22.7988 14.837L36.4618 23.163C37.728 21.0852 38.7406 19.7097 39.4887 18.8709L27.5479 8.22108ZM22.7988 14.837C21.1709 17.5085 19.673 20.4574 18.2905 23.6568L32.978 30.0032C34.1156 27.3705 35.2817 25.0995 36.4618 23.163L22.7988 14.837ZM18.305 23.6234C16.8856 26.868 15.668 30.3114 14.6418 33.9423L30.0388 38.2937C30.8846 35.3006 31.863 32.552 32.9636 30.0365L18.305 23.6234ZM14.6203 34.0202C13.5869 37.8227 12.9362 41.6429 12.6836 45.4737L28.649 46.5263C28.8284 43.8051 29.2936 41.0373 30.0603 38.2158L14.6203 34.0202ZM20.6663 38H13.9703V54H20.6663V38Z" fill="white"/>
<path d="M13.9703 46C14.1863 43.264 14.6723 40.384 15.4283 37.36C16.1843 34.336 17.1023 31.402 18.1823 28.558C19.2983 25.678 20.5043 22.996 21.8003 20.512C23.1323 17.992 24.4463 15.886 25.7423 14.194H8.5163V8.578H33.5183V13.546C32.3303 14.878 31.0343 16.696 29.6303 19C28.2263 21.304 26.8943 23.914 25.6343 26.83C24.3743 29.71 23.2763 32.806 22.3403 36.118C21.4403 39.43 20.8823 42.724 20.6663 46H13.9703Z" fill="#70C000"/>
</svg>
