<svg width="42" height="56" viewBox="0 0 42 56" fill="none" xmlns="http://www.w3.org/2000/svg">
<path d="M32.9243 41.276L25.5104 38.2704L25.5104 38.2704L32.9243 41.276ZM26.4443 47L23.9145 39.4105C23.8973 39.4163 23.8801 39.4221 23.8629 39.4279L26.4443 47ZM14.8343 46.784L11.7225 54.154L14.8343 46.784ZM10.9463 44.192L16.8014 38.7407L16.8014 38.7407L10.9463 44.192ZM8.8403 40.844L1.22874 43.3066C1.25819 43.3976 1.28926 43.488 1.32195 43.5779L8.8403 40.844ZM8.6783 34.418L1.11841 31.8011C1.09787 31.8604 1.07804 31.92 1.0589 31.9798L8.6783 34.418ZM9.9743 31.88L16.4842 36.5299C16.518 36.4825 16.5513 36.4348 16.5841 36.3867L9.9743 31.88ZM11.8103 29.72L17.3123 35.5276L17.3123 35.5276L11.8103 29.72ZM13.9703 27.992L18.4079 34.6484C20.6102 33.1802 21.9437 30.7178 21.9699 28.0712C21.9961 25.4245 20.7116 22.9362 18.5388 21.4248L13.9703 27.992ZM10.2443 24.266L3.32089 28.2743C3.3628 28.3467 3.40585 28.4184 3.45001 28.4895L10.2443 24.266ZM9.8663 15.302L2.5558 12.0529C2.54137 12.0854 2.52714 12.118 2.51314 12.1506L9.8663 15.302ZM12.2963 11.9L6.84495 6.04485L6.84495 6.04485L12.2963 11.9ZM16.0763 9.578L18.9846 17.0306L18.9846 17.0306L16.0763 9.578ZM26.3903 9.632L23.3262 17.0219C23.347 17.0306 23.3679 17.0391 23.3888 17.0476L26.3903 9.632ZM30.0623 12.008L24.2997 17.5571C24.3346 17.5934 24.3699 17.6293 24.4055 17.6649L30.0623 12.008ZM32.1683 15.248L24.6499 17.9819L24.65 17.9819L32.1683 15.248ZM31.1963 23.996L37.7062 28.6459C37.7233 28.6218 37.7404 28.5977 37.7573 28.5735L31.1963 23.996ZM27.4703 27.614L23.153 20.879C20.7706 22.4061 19.3723 25.0783 19.4756 27.9062C19.579 30.7342 21.1687 33.2971 23.6562 34.6463L27.4703 27.614ZM32.1683 31.61L25.5119 36.0476C25.536 36.0838 25.5604 36.1197 25.5851 36.1555L32.1683 31.61ZM14.9963 39.008L7.45237 41.6706L7.45237 41.6706L14.9963 39.008ZM16.0763 40.682L10.4194 46.3389L10.4194 46.3389L16.0763 40.682ZM18.0203 41.978L14.7099 49.2609C14.8029 49.3032 14.8967 49.3437 14.9912 49.3824L18.0203 41.978ZM23.7983 42.032L26.5322 49.5503L26.5322 49.5503L23.7983 42.032ZM25.7423 40.898L31.1859 46.7603C31.2583 46.6932 31.3293 46.6247 31.3992 46.5549L25.7423 40.898ZM26.8763 39.224L34.2737 42.27C34.2937 42.2214 34.3133 42.1726 34.3323 42.1236L26.8763 39.224ZM26.6603 34.634L33.747 30.922L33.7469 30.9219L26.6603 34.634ZM24.9323 32.69L19.9347 38.937C20.0482 39.0277 20.1641 39.1154 20.2824 39.1999L24.9323 32.69ZM22.3403 31.232L19.1889 38.5852C19.2638 38.6173 19.3392 38.6482 19.4151 38.678L22.3403 31.232ZM18.9923 30.098L21.0394 22.3644C18.8758 21.7916 16.5712 22.1514 14.6852 23.3564L18.9923 30.098ZM15.8603 33.122L22.4526 37.6542C22.4742 37.6228 22.4956 37.5913 22.5167 37.5596L15.8603 33.122ZM26.1203 17.3L18.4845 19.6862C18.5462 19.8838 18.6156 20.0789 18.6925 20.2711L26.1203 17.3ZM25.1483 15.734L19.2699 21.1603C19.3422 21.2386 19.4161 21.3155 19.4914 21.3908L25.1483 15.734ZM18.4523 14.546L21.5567 21.9191C21.6165 21.8939 21.676 21.868 21.7352 21.8414L18.4523 14.546ZM16.7783 15.734L22.6567 21.1602C22.7233 21.0881 22.7885 21.0148 22.8524 20.9403L16.7783 15.734ZM15.8063 17.3L23.2341 20.2711C23.2556 20.2173 23.2766 20.1633 23.2969 20.109L15.8063 17.3ZM16.9943 22.808L10.8189 27.8937C10.8481 27.9292 10.8777 27.9645 10.9076 27.9996L16.9943 22.808ZM22.1783 25.724L19.89 33.3898C22.0853 34.045 24.4561 33.7278 26.4018 32.5183L22.1783 25.724ZM25.3103 22.916L31.7898 27.6081C31.8149 27.5735 31.8397 27.5387 31.8642 27.5037L25.3103 22.916ZM25.7343 36.956C25.7343 37.5538 25.6343 37.9646 25.5104 38.2704L40.3382 44.2816C41.2943 41.9234 41.7343 39.4542 41.7343 36.956H25.7343ZM25.5104 38.2704C25.4311 38.4658 25.3314 38.6157 25.1426 38.7856L35.846 50.6784C37.8172 48.9043 39.3375 46.7502 40.3382 44.2816L25.5104 38.2704ZM25.1426 38.7856C25.0108 38.9043 24.6715 39.1582 23.9145 39.4105L28.9741 54.5895C31.4571 53.7618 33.8178 52.5037 35.846 50.6784L25.1426 38.7856ZM23.8629 39.4279C23.2867 39.6244 22.3545 39.81 20.9363 39.81V55.81C23.6941 55.81 26.4339 55.4556 29.0257 54.5721L23.8629 39.4279ZM20.9363 39.81C19.1667 39.81 18.276 39.5533 17.9461 39.414L11.7225 54.154C14.6326 55.3827 17.8099 55.81 20.9363 55.81V39.81ZM17.9461 39.414C17.1298 39.0694 16.8474 38.79 16.8014 38.7407L5.09114 49.6433C6.98919 51.682 9.29878 53.1306 11.7225 54.154L17.9461 39.414ZM16.8014 38.7407C16.4668 38.3812 16.3798 38.1683 16.3586 38.1101L1.32195 43.5779C2.16477 45.8957 3.48183 47.9148 5.09115 49.6433L16.8014 38.7407ZM16.4519 38.3814C16.2655 37.8054 16.2463 37.4898 16.2463 37.388H0.246297C0.246297 39.4462 0.623106 41.4346 1.22874 43.3066L16.4519 38.3814ZM16.2463 37.388C16.2463 37.0194 16.295 36.8646 16.2977 36.8562L1.0589 31.9798C0.485584 33.7714 0.246297 35.5966 0.246297 37.388H16.2463ZM16.2382 37.0349C16.328 36.7755 16.4183 36.6221 16.4842 36.5299L3.46443 27.2301C2.45031 28.6499 1.67663 30.1885 1.11841 31.8011L16.2382 37.0349ZM16.5841 36.3867C16.8079 36.0584 17.0501 35.776 17.3123 35.5276L6.30834 23.9124C5.2025 24.96 4.22065 26.1176 3.36448 27.3733L16.5841 36.3867ZM17.3123 35.5276C17.6784 35.1808 18.0438 34.8911 18.4079 34.6484L9.5327 21.3356C8.38475 22.1009 7.3102 22.9632 6.30834 23.9124L17.3123 35.5276ZM18.5388 21.4248C17.5312 20.7238 17.1527 20.2261 17.0386 20.0425L3.45001 28.4895C4.99188 30.9699 7.09737 32.9562 9.40178 34.5592L18.5388 21.4248ZM17.1677 20.2577C17.2262 20.3587 17.0563 20.1558 17.0563 19.298H1.0563C1.0563 22.3282 1.67842 25.4373 3.32089 28.2743L17.1677 20.2577ZM17.0563 19.298C17.0563 18.9505 17.1167 18.6931 17.2195 18.4534L2.51314 12.1506C1.5359 14.4309 1.0563 16.8375 1.0563 19.298H17.0563ZM17.1768 18.5511C17.3124 18.246 17.4879 17.997 17.7476 17.7551L6.84495 6.04485C5.01668 7.74703 3.57221 9.76598 2.5558 12.0529L17.1768 18.5511ZM17.7476 17.7551C17.9748 17.5436 18.3455 17.2801 18.9846 17.0306L13.168 2.12538C10.8551 3.02794 8.70577 4.31236 6.84495 6.04485L17.7476 17.7551ZM18.9846 17.0306C19.4163 16.8622 20.0511 16.714 20.9903 16.714V0.713997C18.3295 0.713997 15.6883 1.14184 13.168 2.12538L18.9846 17.0306ZM20.9903 16.714C22.3904 16.714 23.0842 16.9216 23.3262 17.0219L29.4544 2.24206C26.7444 1.11839 23.8382 0.713997 20.9903 0.713997V16.714ZM23.3888 17.0476C24.0727 17.3244 24.2879 17.5449 24.2997 17.5571L35.8249 6.45887C33.9647 4.52714 31.7319 3.16359 29.3918 2.21642L23.3888 17.0476ZM24.4055 17.6649C24.5232 17.7826 24.5829 17.8648 24.6102 17.9069C24.6364 17.9472 24.6455 17.9697 24.6499 17.9819L39.6866 12.5141C38.8212 10.1341 37.4445 8.07646 35.7191 6.35114L24.4055 17.6649ZM24.65 17.9819C24.8051 18.4087 24.8163 18.6355 24.8163 18.704H40.8163C40.8163 16.5405 40.3955 14.4633 39.6866 12.5141L24.65 17.9819ZM24.8163 18.704C24.8163 19.1319 24.731 19.2813 24.6353 19.4185L37.7573 28.5735C39.8216 25.6147 40.8163 22.236 40.8163 18.704H24.8163ZM24.6864 19.3461C24.1306 20.1243 23.6076 20.5875 23.153 20.879L31.7876 34.349C34.141 32.8405 36.102 30.8917 37.7062 28.6459L24.6864 19.3461ZM23.6562 34.6463C24.9982 35.3741 25.4246 35.9167 25.5119 36.0476L38.8247 27.1724C36.896 24.2793 34.1904 22.1579 31.2844 20.5817L23.6562 34.6463ZM25.5851 36.1555C25.6003 36.1775 25.7343 36.3304 25.7343 36.956H41.7343C41.7343 33.4776 40.8243 30.0665 38.7515 27.0645L25.5851 36.1555ZM6.6723 37.28C6.6723 38.8891 6.99366 40.3709 7.45237 41.6706L22.5402 36.3454C22.5669 36.4211 22.6723 36.7509 22.6723 37.28H6.6723ZM7.45237 41.6706C8.10371 43.516 9.15482 45.0742 10.4194 46.3389L21.7332 35.0251C21.9898 35.2818 22.3209 35.724 22.5402 36.3454L7.45237 41.6706ZM10.4194 46.3389C11.733 47.6524 13.2311 48.5888 14.7099 49.2609L21.3307 34.6951C21.2255 34.6472 21.4276 34.7196 21.7331 35.0251L10.4194 46.3389ZM14.9912 49.3824C17.0401 50.2205 19.1391 50.464 20.9903 50.464V34.464C20.8743 34.464 20.7883 34.46 20.7298 34.4557C20.6712 34.4513 20.6455 34.447 20.6487 34.4475C20.6519 34.448 20.6896 34.4543 20.7564 34.4725C20.8233 34.4908 20.9234 34.5221 21.0494 34.5736L14.9912 49.3824ZM20.9903 50.464C22.7528 50.464 24.6564 50.2325 26.5322 49.5503L21.0644 34.5137C21.2163 34.4584 21.299 34.447 21.2858 34.449C21.28 34.4499 21.2532 34.4538 21.2033 34.4573C21.1534 34.4609 21.083 34.464 20.9903 34.464V50.464ZM26.5322 49.5503C28.1088 48.9771 29.7432 48.1 31.1859 46.7603L20.2987 35.0357C20.5146 34.8352 20.7088 34.7031 20.8473 34.6223C20.916 34.5822 20.9704 34.5551 21.0071 34.5381C21.0436 34.5212 21.0637 34.5139 21.0644 34.5137L26.5322 49.5503ZM31.3992 46.5549C32.592 45.362 33.5895 43.9318 34.2737 42.27L19.4789 36.178C19.6591 35.7402 19.9006 35.426 20.0854 35.2411L31.3992 46.5549ZM34.3323 42.1236C34.9174 40.6191 35.2543 38.9903 35.2543 37.28H19.2543C19.2543 36.8657 19.3392 36.5329 19.4203 36.3244L34.3323 42.1236ZM35.2543 37.28C35.2543 35.2127 34.8427 33.0138 33.747 30.922L19.5736 38.346C19.2699 37.7662 19.2543 37.3313 19.2543 37.28H35.2543ZM33.7469 30.9219C32.7188 28.9591 31.2663 27.3831 29.5822 26.1801L20.2824 39.1999C20.2085 39.1471 20.0883 39.0493 19.952 38.8959C19.8139 38.7405 19.6829 38.5546 19.5736 38.3461L33.7469 30.9219ZM29.9299 26.443C28.4849 25.2871 26.8937 24.4256 25.2655 23.786L19.4151 38.678C19.8029 38.8304 19.9397 38.9409 19.9347 38.937L29.9299 26.443ZM25.4917 23.8788C24.0756 23.272 22.5841 22.7732 21.0394 22.3644L16.9452 37.8316C17.8485 38.0708 18.589 38.328 19.1889 38.5852L25.4917 23.8788ZM14.6852 23.3564C12.5279 24.7347 10.6572 26.5045 9.20389 28.6844L22.5167 37.5596C22.6474 37.3635 22.8647 37.1173 23.2994 36.8396L14.6852 23.3564ZM9.26796 28.5898C7.4199 31.2779 6.6723 34.3062 6.6723 37.28H22.6723C22.6723 37.1228 22.6912 37.1194 22.6615 37.2233C22.6291 37.3366 22.5624 37.4946 22.4526 37.6542L9.26796 28.5898ZM34.4443 18.812C34.4443 17.1121 34.0535 15.5923 33.5481 14.3289L18.6925 20.2711C18.6191 20.0877 18.4443 19.5759 18.4443 18.812H34.4443ZM33.7561 14.9138C33.1541 12.9874 32.0972 11.3692 30.8052 10.0771L19.4914 21.3908C19.1354 21.0348 18.7265 20.4606 18.4845 19.6862L33.7561 14.9138ZM31.0267 10.3077C29.7822 8.9595 28.338 7.99772 26.899 7.3161L20.0496 21.7759C19.9786 21.7423 19.6504 21.5725 19.2699 21.1603L31.0267 10.3077ZM26.899 7.3161C24.8853 6.36226 22.822 6.06 20.9903 6.06V22.06C21.1026 22.06 20.6953 22.0817 20.0496 21.7759L26.899 7.3161ZM20.9903 6.06C19.1415 6.06 17.1312 6.36781 15.1694 7.25063L21.7352 21.8414C21.2134 22.0762 20.8951 22.06 20.9903 22.06V6.06ZM15.3479 7.17291C13.6558 7.88535 12.0357 8.97428 10.7042 10.5277L22.8524 20.9403C22.3849 21.4857 21.8808 21.7826 21.5567 21.9191L15.3479 7.17291ZM10.8999 10.3078C9.7916 11.5084 8.90768 12.9123 8.31566 14.491L23.2969 20.109C23.1369 20.5357 22.901 20.8956 22.6567 21.1602L10.8999 10.3078ZM8.37848 14.3289C7.81385 15.7405 7.4823 17.2861 7.4823 18.92H23.4823C23.4823 19.4739 23.3667 19.9395 23.2341 20.2711L8.37848 14.3289ZM7.4823 18.92C7.4823 22.432 8.82868 25.477 10.8189 27.8937L23.1697 17.7223C23.1315 17.6759 23.2205 17.772 23.3163 18.0184C23.4178 18.2793 23.4823 18.5955 23.4823 18.92H7.4823ZM10.9076 27.9996C13.3697 30.8861 16.7676 32.4577 19.89 33.3898L24.4666 18.0582C23.6848 17.8249 23.2255 17.6118 22.9954 17.4824C22.7681 17.3546 22.8684 17.3673 23.081 17.6164L10.9076 27.9996ZM26.4018 32.5183C28.4291 31.2581 30.3088 29.6533 31.7898 27.6081L18.8308 18.2239C18.7998 18.2667 18.5915 18.5339 17.9548 18.9297L26.4018 32.5183ZM31.8642 27.5037C33.7778 24.7699 34.4443 21.6867 34.4443 18.812H18.4443C18.4443 19.0367 18.4182 19.0634 18.4498 18.9493C18.485 18.8218 18.5728 18.5907 18.7564 18.3283L31.8642 27.5037Z" fill="white"/>
<path d="M33.7343 36.956C33.7343 38.504 33.4643 39.944 32.9243 41.276C32.3843 42.608 31.5743 43.76 30.4943 44.732C29.4143 45.704 28.0643 46.46 26.4443 47C24.8603 47.54 23.0243 47.81 20.9363 47.81C18.4883 47.81 16.4543 47.468 14.8343 46.784C13.2143 46.1 11.9183 45.236 10.9463 44.192C9.9743 43.148 9.2723 42.032 8.8403 40.844C8.4443 39.62 8.2463 38.468 8.2463 37.388C8.2463 36.308 8.3903 35.318 8.6783 34.418C9.0023 33.482 9.4343 32.636 9.9743 31.88C10.5143 31.088 11.1263 30.368 11.8103 29.72C12.4943 29.072 13.2143 28.496 13.9703 27.992C12.3143 26.84 11.0723 25.598 10.2443 24.266C9.4523 22.898 9.0563 21.242 9.0563 19.298C9.0563 17.894 9.3263 16.562 9.8663 15.302C10.4423 14.006 11.2523 12.872 12.2963 11.9C13.3403 10.928 14.6003 10.154 16.0763 9.578C17.5523 9.002 19.1903 8.714 20.9903 8.714C23.1143 8.714 24.9143 9.02 26.3903 9.632C27.9023 10.244 29.1263 11.036 30.0623 12.008C31.0343 12.98 31.7363 14.06 32.1683 15.248C32.6003 16.436 32.8163 17.588 32.8163 18.704C32.8163 20.684 32.2763 22.448 31.1963 23.996C30.1163 25.508 28.8743 26.714 27.4703 27.614C29.5943 28.766 31.1603 30.098 32.1683 31.61C33.2123 33.122 33.7343 34.904 33.7343 36.956ZM14.6723 37.28C14.6723 37.82 14.7803 38.396 14.9963 39.008C15.2123 39.62 15.5723 40.178 16.0763 40.682C16.5803 41.186 17.2283 41.618 18.0203 41.978C18.8123 42.302 19.8023 42.464 20.9903 42.464C22.0703 42.464 23.0063 42.32 23.7983 42.032C24.5903 41.744 25.2383 41.366 25.7423 40.898C26.2463 40.394 26.6243 39.836 26.8763 39.224C27.1283 38.576 27.2543 37.928 27.2543 37.28C27.2543 36.272 27.0563 35.39 26.6603 34.634C26.2643 33.878 25.6883 33.23 24.9323 32.69C24.2123 32.114 23.3483 31.628 22.3403 31.232C21.3323 30.8 20.2163 30.422 18.9923 30.098C17.6963 30.926 16.6523 31.934 15.8603 33.122C15.0683 34.274 14.6723 35.66 14.6723 37.28ZM26.4443 18.812C26.4443 18.344 26.3363 17.84 26.1203 17.3C25.9403 16.724 25.6163 16.202 25.1483 15.734C24.7163 15.266 24.1583 14.87 23.4743 14.546C22.7903 14.222 21.9623 14.06 20.9903 14.06C20.0183 14.06 19.1723 14.222 18.4523 14.546C17.7683 14.834 17.2103 15.23 16.7783 15.734C16.3463 16.202 16.0223 16.724 15.8063 17.3C15.5903 17.84 15.4823 18.38 15.4823 18.92C15.4823 20.288 15.9863 21.584 16.9943 22.808C18.0383 24.032 19.7663 25.004 22.1783 25.724C23.5103 24.896 24.5543 23.96 25.3103 22.916C26.0663 21.836 26.4443 20.468 26.4443 18.812Z" fill="#70C000"/>
</svg>
