<svg width="72" height="72" viewBox="0 0 72 72" fill="none" xmlns="http://www.w3.org/2000/svg">
<g style="mix-blend-mode:luminosity">
<rect width="72" height="72" fill="white"/>
<path d="M6.85718 39.8961C6.85718 39.3108 7.33164 38.8364 7.91692 38.8364H64.0832C64.6684 38.8364 65.1429 39.3108 65.1429 39.8961V47.3143C65.1429 47.8996 64.6684 48.374 64.0832 48.374H7.91692C7.33164 48.374 6.85718 47.8996 6.85718 47.3143V39.8961Z" fill="#1D4D76"/>
<path d="M6.85718 25.0597C6.85718 24.4745 7.33164 24 7.91692 24H19.5741C20.1593 24 20.6338 24.4745 20.6338 25.0597V36.7169C20.6338 37.3022 20.1593 37.7766 19.5741 37.7766H7.91692C7.33164 37.7766 6.85718 37.3022 6.85718 36.7169V25.0597Z" fill="#EFAF23"/>
<path d="M51.3663 25.0597C51.3663 24.4745 51.8407 24 52.426 24H64.0832C64.6684 24 65.1429 24.4745 65.1429 25.0597V36.7169C65.1429 37.3022 64.6684 37.7766 64.0832 37.7766H52.426C51.8407 37.7766 51.3663 37.3022 51.3663 36.7169V25.0597Z" fill="#EFAF23"/>
<path d="M21.6935 25.0597C21.6935 24.4745 22.168 24 22.7533 24H34.4104C34.9957 24 35.4702 24.4745 35.4702 25.0597V36.7169C35.4702 37.3022 34.9957 37.7766 34.4104 37.7766H22.7533C22.168 37.7766 21.6935 37.3022 21.6935 36.7169V25.0597Z" fill="#EFAF23"/>
<path d="M36.5299 25.0597C36.5299 24.4745 37.0044 24 37.5896 24H49.2468C49.8321 24 50.3065 24.4745 50.3065 25.0597V36.7169C50.3065 37.3022 49.8321 37.7766 49.2468 37.7766H37.5896C37.0044 37.7766 36.5299 37.3022 36.5299 36.7169V25.0597Z" fill="#EFAF23"/>
<path d="M8.58936 35.6571H10.4798L11.4454 33.2499H16.0286L17.0078 35.6571H18.8982L15.3078 27.1027C14.9678 26.3003 14.5598 26.0283 13.7438 26.0283C12.887 26.0283 12.5198 26.3003 12.1798 27.1027L8.58936 35.6571ZM13.4718 28.0955C13.5262 27.9595 13.6214 27.7011 13.7438 27.7011C13.8662 27.7011 13.9614 27.9595 14.0158 28.0955L15.5662 31.9715H11.9078L13.4718 28.0955Z" fill="white"/>
<path d="M8.58936 35.6571H10.4798L11.4454 33.2499H16.0286L17.0078 35.6571H18.8982L15.3078 27.1027C14.9678 26.3003 14.5598 26.0283 13.7438 26.0283C12.887 26.0283 12.5198 26.3003 12.1798 27.1027L8.58936 35.6571ZM13.4718 28.0955C13.5262 27.9595 13.6214 27.7011 13.7438 27.7011C13.8662 27.7011 13.9614 27.9595 14.0158 28.0955L15.5662 31.9715H11.9078L13.4718 28.0955Z" fill="white"/>
<path d="M8.58936 35.6571H10.4798L11.4454 33.2499H16.0286L17.0078 35.6571H18.8982L15.3078 27.1027C14.9678 26.3003 14.5598 26.0283 13.7438 26.0283C12.887 26.0283 12.5198 26.3003 12.1798 27.1027L8.58936 35.6571ZM13.4718 28.0955C13.5262 27.9595 13.6214 27.7011 13.7438 27.7011C13.8662 27.7011 13.9614 27.9595 14.0158 28.0955L15.5662 31.9715H11.9078L13.4718 28.0955Z" fill="white"/>
<path d="M25.7959 26.1371C25.4967 26.1371 25.0751 26.1915 24.7895 26.5315C24.5855 26.7763 24.4903 27.1571 24.4903 27.5107V34.3107C24.4903 34.8547 24.7215 35.1675 24.8167 35.2763C25.1975 35.7115 25.6327 35.6571 26.1087 35.6571H30.6647C31.2495 35.6571 31.8615 35.6571 32.4055 35.0451C32.9495 34.4331 32.9495 33.6715 32.9495 33.0459C32.9495 32.5155 32.9495 31.8355 32.5007 31.3459C32.2695 31.0875 31.9023 30.8835 31.4535 30.8427V30.7883C31.8071 30.7611 32.0791 30.6251 32.3511 30.2987C32.7727 29.7955 32.7999 29.2651 32.7999 28.7483C32.7999 28.1227 32.7319 27.2523 32.2015 26.7083C31.6983 26.1915 30.9911 26.1371 30.4743 26.1371H25.7959ZM26.2855 30.1355V28.0955C26.2855 27.9867 26.2991 27.7963 26.4079 27.6739C26.5167 27.5515 26.6663 27.5651 26.8159 27.5651H29.7535C30.0527 27.5651 30.3791 27.5651 30.6375 27.8099C30.9367 28.0955 30.9503 28.5715 30.9503 28.8299C30.9503 29.4827 30.8143 29.7139 30.7463 29.7955C30.5015 30.1355 30.1207 30.1355 29.7671 30.1355H26.2855ZM26.2855 31.5635H29.9303C30.5151 31.5635 30.7871 31.8083 30.8959 31.9579C31.0727 32.2163 31.0999 32.6515 31.0999 32.9235C31.0999 33.2227 31.0591 33.6443 30.8551 33.8891C30.5831 34.2155 30.0935 34.2291 29.8079 34.2291H26.9791C26.8431 34.2291 26.5439 34.2427 26.3943 34.0795C26.3263 33.9979 26.2855 33.8347 26.2855 33.5219V31.5635Z" fill="white"/>
<path d="M25.7959 26.1371C25.4967 26.1371 25.0751 26.1915 24.7895 26.5315C24.5855 26.7763 24.4903 27.1571 24.4903 27.5107V34.3107C24.4903 34.8547 24.7215 35.1675 24.8167 35.2763C25.1975 35.7115 25.6327 35.6571 26.1087 35.6571H30.6647C31.2495 35.6571 31.8615 35.6571 32.4055 35.0451C32.9495 34.4331 32.9495 33.6715 32.9495 33.0459C32.9495 32.5155 32.9495 31.8355 32.5007 31.3459C32.2695 31.0875 31.9023 30.8835 31.4535 30.8427V30.7883C31.8071 30.7611 32.0791 30.6251 32.3511 30.2987C32.7727 29.7955 32.7999 29.2651 32.7999 28.7483C32.7999 28.1227 32.7319 27.2523 32.2015 26.7083C31.6983 26.1915 30.9911 26.1371 30.4743 26.1371H25.7959ZM26.2855 30.1355V28.0955C26.2855 27.9867 26.2991 27.7963 26.4079 27.6739C26.5167 27.5515 26.6663 27.5651 26.8159 27.5651H29.7535C30.0527 27.5651 30.3791 27.5651 30.6375 27.8099C30.9367 28.0955 30.9503 28.5715 30.9503 28.8299C30.9503 29.4827 30.8143 29.7139 30.7463 29.7955C30.5015 30.1355 30.1207 30.1355 29.7671 30.1355H26.2855ZM26.2855 31.5635H29.9303C30.5151 31.5635 30.7871 31.8083 30.8959 31.9579C31.0727 32.2163 31.0999 32.6515 31.0999 32.9235C31.0999 33.2227 31.0591 33.6443 30.8551 33.8891C30.5831 34.2155 30.0935 34.2291 29.8079 34.2291H26.9791C26.8431 34.2291 26.5439 34.2427 26.3943 34.0795C26.3263 33.9979 26.2855 33.8347 26.2855 33.5219V31.5635Z" fill="white"/>
<path d="M25.7959 26.1371C25.4967 26.1371 25.0751 26.1915 24.7895 26.5315C24.5855 26.7763 24.4903 27.1571 24.4903 27.5107V34.3107C24.4903 34.8547 24.7215 35.1675 24.8167 35.2763C25.1975 35.7115 25.6327 35.6571 26.1087 35.6571H30.6647C31.2495 35.6571 31.8615 35.6571 32.4055 35.0451C32.9495 34.4331 32.9495 33.6715 32.9495 33.0459C32.9495 32.5155 32.9495 31.8355 32.5007 31.3459C32.2695 31.0875 31.9023 30.8835 31.4535 30.8427V30.7883C31.8071 30.7611 32.0791 30.6251 32.3511 30.2987C32.7727 29.7955 32.7999 29.2651 32.7999 28.7483C32.7999 28.1227 32.7319 27.2523 32.2015 26.7083C31.6983 26.1915 30.9911 26.1371 30.4743 26.1371H25.7959ZM26.2855 30.1355V28.0955C26.2855 27.9867 26.2991 27.7963 26.4079 27.6739C26.5167 27.5515 26.6663 27.5651 26.8159 27.5651H29.7535C30.0527 27.5651 30.3791 27.5651 30.6375 27.8099C30.9367 28.0955 30.9503 28.5715 30.9503 28.8299C30.9503 29.4827 30.8143 29.7139 30.7463 29.7955C30.5015 30.1355 30.1207 30.1355 29.7671 30.1355H26.2855ZM26.2855 31.5635H29.9303C30.5151 31.5635 30.7871 31.8083 30.8959 31.9579C31.0727 32.2163 31.0999 32.6515 31.0999 32.9235C31.0999 33.2227 31.0591 33.6443 30.8551 33.8891C30.5831 34.2155 30.0935 34.2291 29.8079 34.2291H26.9791C26.8431 34.2291 26.5439 34.2427 26.3943 34.0795C26.3263 33.9979 26.2855 33.8347 26.2855 33.5219V31.5635Z" fill="white"/>
<path d="M44.3077 35.6571V27.5651H48.0341V26.1371H38.7997V27.5651H42.5125V35.6571H44.3077Z" fill="white"/>
<path d="M44.3077 35.6571V27.5651H48.0341V26.1371H38.7997V27.5651H42.5125V35.6571H44.3077Z" fill="white"/>
<path d="M44.3077 35.6571V27.5651H48.0341V26.1371H38.7997V27.5651H42.5125V35.6571H44.3077Z" fill="white"/>
<path d="M58.2625 26.0283C57.1065 26.0283 55.5289 26.0283 54.4681 27.0347C53.4345 28.0139 53.3665 29.6051 53.3665 30.8971C53.3665 31.9715 53.3665 33.6987 54.4681 34.7595C55.5153 35.7659 57.1337 35.7659 58.2625 35.7659C59.3641 35.7659 61.0233 35.7659 62.0569 34.7595C63.0361 33.8075 63.1449 32.1483 63.1449 30.8971C63.1449 29.6459 63.0497 27.9867 62.0569 27.0347C61.0097 26.0283 59.3913 26.0283 58.2625 26.0283ZM55.2161 30.8971C55.2161 29.4419 55.4337 28.6939 55.8009 28.2315C56.3585 27.5379 57.2561 27.4563 58.2489 27.4563C59.2145 27.4563 60.1529 27.5379 60.7105 28.2315C61.0097 28.5987 61.2953 29.2515 61.2953 30.8971C61.2953 32.4339 61.0233 33.1547 60.7105 33.5491C60.1393 34.2699 59.2281 34.3379 58.2489 34.3379C57.2561 34.3379 56.3585 34.2699 55.8009 33.5491C55.4881 33.1547 55.2161 32.4475 55.2161 30.8971Z" fill="white"/>
<path d="M58.2625 26.0283C57.1065 26.0283 55.5289 26.0283 54.4681 27.0347C53.4345 28.0139 53.3665 29.6051 53.3665 30.8971C53.3665 31.9715 53.3665 33.6987 54.4681 34.7595C55.5153 35.7659 57.1337 35.7659 58.2625 35.7659C59.3641 35.7659 61.0233 35.7659 62.0569 34.7595C63.0361 33.8075 63.1449 32.1483 63.1449 30.8971C63.1449 29.6459 63.0497 27.9867 62.0569 27.0347C61.0097 26.0283 59.3913 26.0283 58.2625 26.0283ZM55.2161 30.8971C55.2161 29.4419 55.4337 28.6939 55.8009 28.2315C56.3585 27.5379 57.2561 27.4563 58.2489 27.4563C59.2145 27.4563 60.1529 27.5379 60.7105 28.2315C61.0097 28.5987 61.2953 29.2515 61.2953 30.8971C61.2953 32.4339 61.0233 33.1547 60.7105 33.5491C60.1393 34.2699 59.2281 34.3379 58.2489 34.3379C57.2561 34.3379 56.3585 34.2699 55.8009 33.5491C55.4881 33.1547 55.2161 32.4475 55.2161 30.8971Z" fill="white"/>
<path d="M58.2625 26.0283C57.1065 26.0283 55.5289 26.0283 54.4681 27.0347C53.4345 28.0139 53.3665 29.6051 53.3665 30.8971C53.3665 31.9715 53.3665 33.6987 54.4681 34.7595C55.5153 35.7659 57.1337 35.7659 58.2625 35.7659C59.3641 35.7659 61.0233 35.7659 62.0569 34.7595C63.0361 33.8075 63.1449 32.1483 63.1449 30.8971C63.1449 29.6459 63.0497 27.9867 62.0569 27.0347C61.0097 26.0283 59.3913 26.0283 58.2625 26.0283ZM55.2161 30.8971C55.2161 29.4419 55.4337 28.6939 55.8009 28.2315C56.3585 27.5379 57.2561 27.4563 58.2489 27.4563C59.2145 27.4563 60.1529 27.5379 60.7105 28.2315C61.0097 28.5987 61.2953 29.2515 61.2953 30.8971C61.2953 32.4339 61.0233 33.1547 60.7105 33.5491C60.1393 34.2699 59.2281 34.3379 58.2489 34.3379C57.2561 34.3379 56.3585 34.2699 55.8009 33.5491C55.4881 33.1547 55.2161 32.4475 55.2161 30.8971Z" fill="white"/>
<path d="M14.7519 46.961V45.9656H12.1437C11.2303 45.9656 10.526 45.8519 10.1298 45.3305C9.97577 45.1219 9.76668 44.7143 9.76668 43.7189C9.76668 42.733 9.96477 42.2306 10.1959 41.9367C10.6361 41.3679 11.3624 41.3205 12.2208 41.3205H14.6308V40.3252H11.5385C10.9882 40.3252 9.78869 40.382 9.01835 41.1594C8.36906 41.8135 8.27002 42.7899 8.27002 43.7379C8.27002 44.4678 8.32504 45.4822 9.05136 46.1837C9.76668 46.8757 10.7681 46.961 11.5054 46.961H14.7519Z" fill="white"/>
<path d="M15.7443 46.961H17.1969V40.3252H15.7443V46.961ZM23.1175 46.961L19.4749 44.1645C19.2548 43.9938 18.9797 43.7663 18.9797 43.5578C18.9797 43.4156 19.1338 43.2544 19.3869 43.0459L22.7104 40.3252H20.9166L18.0003 42.8089C17.6261 43.1312 17.5821 43.4251 17.5821 43.5578C17.5821 43.7284 17.6591 44.0507 18.1103 44.411L21.2797 46.961H23.1175Z" fill="white"/>
<path d="M22.4594 46.961H23.9891L24.7704 45.2831H28.4791L29.2714 46.961H30.8011L27.8958 40.9982C27.6207 40.4389 27.2905 40.2493 26.6302 40.2493C25.9369 40.2493 25.6398 40.4389 25.3647 40.9982L22.4594 46.961ZM26.4101 41.6903C26.4542 41.5955 26.5312 41.4153 26.6302 41.4153C26.7293 41.4153 26.8063 41.5955 26.8503 41.6903L28.1049 44.392H25.1446L26.4101 41.6903Z" fill="white"/>
<path d="M38.0449 40.3252H36.5923V43.0459H32.5865V40.3252H31.1339V46.961H32.5865V44.0412H36.5923V46.961H38.0449V40.3252Z" fill="white"/>
<path d="M45.5398 46.961V45.9656H41.424C41.1928 45.9656 41.0168 45.9562 40.9287 45.8803C40.8627 45.8329 40.8187 45.7286 40.8187 45.6244V44.0697H45.3857V43.0743H40.8187V41.7377C40.8187 41.6429 40.8187 41.5101 40.9397 41.4153C41.0498 41.33 41.2039 41.3205 41.3359 41.3205H45.4958V40.3252H40.5546C40.2574 40.3252 39.8833 40.3441 39.6302 40.5811C39.4651 40.7423 39.366 41.0077 39.366 41.2731V45.9751C39.366 46.2311 39.3881 46.5344 39.6522 46.7525C39.9053 46.961 40.2024 46.961 40.5326 46.961H45.5398Z" fill="white"/>
<path d="M47.9869 46.961V44.61H51.5965C52.0477 44.61 52.4879 44.4868 52.774 44.2877C53.3793 43.8611 53.4453 43.0079 53.4453 42.4676C53.4453 41.9083 53.3903 41.1594 52.862 40.7233C52.3888 40.3252 51.7395 40.3252 51.3324 40.3252H47.6677C47.4036 40.3252 47.0515 40.3631 46.7984 40.5811C46.5342 40.8086 46.5342 41.0741 46.5342 41.3205V46.961H47.9869ZM47.9869 43.6147V41.7187C47.9869 41.6049 47.9869 41.4912 48.0859 41.4059C48.196 41.3111 48.328 41.3205 48.4271 41.3205H50.7711C51.0132 41.3205 51.4204 41.33 51.6735 41.5481C51.9156 41.7661 51.9486 42.1642 51.9486 42.4581C51.9486 42.7141 51.9266 43.1407 51.6955 43.3682C51.4424 43.6147 51.0682 43.6147 50.7491 43.6147H47.9869Z" fill="white"/>
<path d="M54.5407 40.3252V45.9562C54.5407 46.2026 54.5737 46.4775 54.7828 46.6956C54.8709 46.7809 55.0799 46.961 55.4761 46.961H59.5699C60.5053 46.961 60.9455 46.5534 61.0886 46.3828C61.1436 46.3164 61.4408 45.9277 61.4408 44.9987C61.4408 44.5342 61.3637 44.0033 61.1546 43.681C60.7695 43.0838 60.0101 43.0459 59.647 43.0459H55.9933V40.3252H54.5407ZM55.9933 44.0412H58.8986C59.1627 44.0412 59.4269 44.0318 59.636 44.1645C59.9331 44.3541 59.9441 44.6669 59.9441 44.9608C59.9441 45.2357 59.9441 45.5864 59.669 45.7855C59.4269 45.9656 58.9316 45.9656 58.8216 45.9656H56.4776C56.3235 45.9656 56.1474 45.9656 56.0594 45.8614C55.9933 45.7855 55.9933 45.6149 55.9933 45.558V44.0412ZM63.7298 46.961V40.3252H62.2771V46.961H63.7298Z" fill="white"/>
</g>
</svg>
