<svg width="72" height="72" viewBox="0 0 72 72" fill="none" xmlns="http://www.w3.org/2000/svg">
<rect width="72" height="72" fill="white"/>
<rect width="72" height="72" fill="white"/>
<path d="M26.6227 56.518H27.9142C28.2882 56.518 28.5778 56.4189 28.7829 56.2214C28.9873 56.0239 29.0896 55.7522 29.0896 55.4061C29.0896 55.0601 28.9835 54.7832 28.7721 54.5749C28.56 54.3667 28.2673 54.2625 27.8933 54.2625H26.6227V56.518ZM25.2568 57.6933V50.1758H29.8731V51.3512H26.6227V53.0872H28.1263C28.8248 53.0872 29.3912 53.2974 29.8255 53.7177C30.2598 54.1374 30.477 54.7007 30.477 55.4061C30.477 56.0836 30.2611 56.6342 29.8306 57.0577C29.4001 57.4812 28.8425 57.6933 28.158 57.6933H25.2568Z" fill="#0A6B4F"/>
<path d="M32.6478 56.0839C32.6478 56.2744 32.7202 56.4401 32.865 56.5817C33.0091 56.7227 33.2091 56.7932 33.4631 56.7932C33.8232 56.7932 34.1197 56.6452 34.3527 56.3487C34.5851 56.0522 34.702 55.7277 34.702 55.3747V55.2261H34.4689C33.2548 55.2261 32.6478 55.5124 32.6478 56.0839ZM31.3137 56.2001C31.3137 55.8191 31.4179 55.4947 31.6261 55.2261C31.8344 54.9581 32.1093 54.7619 32.4522 54.6387C32.7945 54.5155 33.1259 54.4285 33.4472 54.379C33.7685 54.3301 34.1051 54.3054 34.4581 54.3054H34.6912V54.2311C34.6912 53.5954 34.3527 53.278 33.6752 53.278C33.1806 53.278 32.6796 53.4513 32.1716 53.7967L31.6738 52.8335C31.9068 52.65 32.2205 52.4931 32.6161 52.3623C33.011 52.2315 33.4028 52.1661 33.7914 52.1661C34.4969 52.1661 35.0474 52.3553 35.443 52.7325C35.8379 53.1103 36.036 53.638 36.036 54.3155V57.693H34.7864V57.2377L34.8182 56.8459H34.7972C34.6277 57.1354 34.3915 57.3704 34.0879 57.5501C33.7844 57.7304 33.4523 57.8199 33.0923 57.8199C32.5913 57.8199 32.1697 57.6701 31.8274 57.3704C31.4845 57.0707 31.3137 56.6802 31.3137 56.2001Z" fill="#0A6B4F"/>
<path d="M37.3728 57.6932V52.2933H38.717V54.3792H41.0258V52.2933H42.3701V57.6932H41.0258V55.512H38.717V57.6932H37.3728Z" fill="#0A6B4F"/>
<path d="M43.7219 57.6979V52.2981H45.0662V54.363H45.7227L47.0359 52.2981H48.5287L46.8136 54.871V54.892L48.7408 57.6979H47.1845L45.7653 55.506H45.0662V57.6979H43.7219Z" fill="#0A6B4F"/>
<path d="M30.249 16.6494V20.2491C31.7399 20.2491 32.9489 21.4581 32.9489 22.949C32.9489 24.4406 31.7399 25.649 30.249 25.649V29.2493C33.7281 29.2493 36.5486 26.4287 36.5486 22.949C36.5486 19.47 33.7281 16.6494 30.249 16.6494Z" fill="#F26C3A"/>
<path d="M38.3488 11.2496H30.249V14.8492H38.3488C41.3313 14.8492 43.7486 17.2672 43.7486 20.2491C43.7486 23.2316 41.3313 25.6489 38.3488 25.6489H37.449V29.2486H38.3488C43.3194 29.2486 47.3483 25.2197 47.3483 20.2491C47.3483 15.2791 43.3194 11.2496 38.3488 11.2496Z" fill="#F26C3A"/>
<path d="M29.7991 16.1994V19.799C31.29 19.799 32.499 21.008 32.499 22.499C32.499 23.9905 31.29 25.1989 29.7991 25.1989V28.7992C33.2781 28.7992 36.0987 25.9786 36.0987 22.499C36.0987 19.0199 33.2781 16.1994 29.7991 16.1994Z" fill="#FFDF31"/>
<path d="M37.8986 10.7996H29.7988V14.3993H37.8986C40.8811 14.3993 43.2984 16.8173 43.2984 19.7991C43.2984 22.7816 40.8811 25.199 37.8986 25.199H36.9988V28.7986H37.8986C42.8692 28.7986 46.8981 24.7697 46.8981 19.7991C46.8981 14.8292 42.8692 10.7996 37.8986 10.7996Z" fill="#FFDF31"/>
<path d="M12.1344 43.1721H16.6129V35.4216H13.5955V36.2636C13.5955 39.2918 13.1085 41.5948 12.1344 43.1721ZM8.87891 43.1721H10.0219C11.1128 41.5206 11.6582 39.1699 11.6582 36.1207V33.6589H18.662V43.1721H19.9167V47.1585H18.0899V44.9348H10.7686V47.1585H8.87891V43.1721Z" fill="#0A6B4F"/>
<path d="M23.2556 42.521C23.2556 42.8067 23.3642 43.0556 23.5813 43.2677C23.7979 43.4792 24.0976 43.5846 24.4786 43.5846C25.0183 43.5846 25.4634 43.363 25.8126 42.9179C26.1619 42.4734 26.3365 41.9863 26.3365 41.4568V41.2345H25.9873C24.1662 41.2345 23.2556 41.6631 23.2556 42.521ZM21.2542 42.6956C21.2542 42.1241 21.4104 41.6371 21.7228 41.2345C22.0352 40.832 22.4479 40.5386 22.9616 40.3532C23.4753 40.1678 23.9725 40.0382 24.4544 39.9639C24.9364 39.8897 25.4418 39.8528 25.9714 39.8528H26.3206V39.7417C26.3206 38.7886 25.8126 38.3124 24.7961 38.3124C24.055 38.3124 23.3032 38.5721 22.5412 39.0902L21.7945 37.645C22.1438 37.3701 22.6149 37.1345 23.208 36.9383C23.801 36.7427 24.3884 36.6449 24.9707 36.6449C26.0292 36.6449 26.8553 36.9281 27.4483 37.4939C28.0414 38.0609 28.3379 38.8521 28.3379 39.8687V44.9352H26.4635V44.2519L26.5118 43.664H26.4794C26.2254 44.0983 25.8704 44.4507 25.4158 44.7206C24.9605 44.9904 24.4627 45.1257 23.923 45.1257C23.1705 45.1257 22.5381 44.9003 22.0244 44.4507C21.5107 44.0005 21.2542 43.4157 21.2542 42.6956Z" fill="#0A6B4F"/>
<path d="M29.9155 45.0143V43.2357C30.4661 43.1614 30.8864 42.8357 31.1779 42.2591C31.4693 41.6819 31.6147 40.7212 31.6147 39.3763V36.8352H37.5225V44.9349H35.5059V38.4709H33.5362V39.3763C33.5362 41.2184 33.2555 42.6084 32.6948 43.5449C32.1335 44.4822 31.2071 44.9717 29.9155 45.0143Z" fill="#0A6B4F"/>
<path d="M41.3197 39.8844H44.8934C44.8826 39.3548 44.7264 38.937 44.4247 38.6297C44.1231 38.323 43.739 38.1693 43.2735 38.1693C42.7649 38.1693 42.3363 38.3255 41.9871 38.6379C41.6372 38.9503 41.4149 39.3662 41.3197 39.8844ZM39.1919 40.8851C39.1919 39.6361 39.5754 38.617 40.3431 37.8277C41.1108 37.0391 42.1033 36.6447 43.3212 36.6447C44.4432 36.6447 45.322 37.0073 45.9569 37.7325C46.5926 38.4576 46.91 39.3764 46.91 40.4883C46.91 40.668 46.8891 40.9277 46.8465 41.2661H41.2721C41.3356 41.9443 41.5953 42.4707 42.0506 42.8466C42.5052 43.2225 43.0564 43.4104 43.7021 43.4104C44.5067 43.4104 45.2794 43.1139 46.0211 42.5208L46.8148 43.966C46.4122 44.3261 45.9176 44.6093 45.3296 44.8156C44.7422 45.0226 44.1517 45.1255 43.5593 45.1255C42.2569 45.1255 41.2029 44.7153 40.3984 43.8949C39.5938 43.0745 39.1919 42.0713 39.1919 40.8851Z" fill="#0A6B4F"/>
<path d="M48.7773 44.9349V36.8352H50.794V39.9643H54.2566V36.8352H56.2732V44.9349H54.2566V41.6635H50.794V44.9349H48.7773Z" fill="#0A6B4F"/>
<path d="M60.0366 42.5281C60.0366 42.8138 60.1452 43.0627 60.3623 43.2748C60.5789 43.4863 60.8786 43.5917 61.2596 43.5917C61.7993 43.5917 62.2444 43.3701 62.5937 42.9249C62.9429 42.4805 63.1175 41.9934 63.1175 41.4639V41.2416H62.7683C60.9472 41.2416 60.0366 41.6702 60.0366 42.5281ZM58.0352 42.7027C58.0352 42.1312 58.1914 41.6442 58.5044 41.2416C58.8162 40.839 59.2289 40.5457 59.7426 40.3603C60.2563 40.1749 60.7535 40.0453 61.2354 39.971C61.7174 39.8967 62.2228 39.8599 62.7524 39.8599H63.1016V39.7488C63.1016 38.7957 62.5937 38.3195 61.5771 38.3195C60.836 38.3195 60.0842 38.5792 59.3223 39.0973L58.5755 37.6521C58.9248 37.3771 59.3959 37.1416 59.989 36.9454C60.582 36.7498 61.1694 36.652 61.7517 36.652C62.8102 36.652 63.6363 36.9352 64.2293 37.501C64.8224 38.068 65.119 38.8592 65.119 39.8758V44.9423H63.2445V44.259L63.2928 43.671H63.2604C63.0064 44.1054 62.6514 44.4578 62.1968 44.7276C61.7415 44.9975 61.2437 45.1328 60.704 45.1328C59.9515 45.1328 59.3191 44.9073 58.8054 44.4578C58.2917 44.0076 58.0352 43.4228 58.0352 42.7027Z" fill="#0A6B4F"/>
</svg>
