<svg width="72" height="72" viewBox="0 0 72 72" fill="none" xmlns="http://www.w3.org/2000/svg">
<path d="M16 14.7794C18.1216 14.7794 19.8917 13.2747 20.301 11.2744C20.2958 11.3001 20.2903 11.3258 20.2846 11.3514C23.3171 11.9749 25.2683 15.3891 25.7583 18.1936C25.9165 17.4873 26 16.7528 26 15.9987C26 10.4766 21.5228 6 16 6C13.5753 6 11.6097 7.96533 11.6097 10.3897C11.6097 12.8141 13.5753 14.7794 16 14.7794Z" fill="black"/>
<path d="M17.0763 16.6093C16.0155 18.4464 16.4338 20.7315 17.9616 22.0861C17.942 22.0687 17.9225 22.0511 17.9032 22.0334C15.8469 24.3475 11.9141 24.33 9.24 23.352C9.77265 23.8422 10.3671 24.2817 11.0202 24.6588C15.8031 27.4198 21.9191 25.7813 24.6805 20.999C25.8928 18.8994 25.1734 16.2147 23.0735 15.0025C20.9737 13.7903 18.2887 14.5097 17.0763 16.6093Z" fill="black"/>
<path d="M14.9456 16.6101C13.8848 14.773 11.6964 13.9926 9.75921 14.6383C9.78414 14.63 9.80912 14.6219 9.83413 14.6141C8.85792 11.6764 10.8395 8.27973 13.0236 6.45315C12.3327 6.6693 11.6548 6.96429 11.0017 7.3413C6.21874 10.1024 4.57999 16.2175 7.34142 20.9998C8.55375 23.0994 11.2388 23.8188 13.3386 22.6066C15.4384 21.3944 16.1579 18.7097 14.9456 16.6101Z" fill="black"/>
<path d="M4.68733 46.5421V46.3591L5.43715 46.176V38.3661L4.68733 38.183V38H8.24896V38.183L7.49915 38.3661V44.5286L10.4359 39.2813V38.3661L9.68611 38.183V38H13.2477V38.183L12.4979 38.3661V46.176L13.2477 46.3591V46.5421H9.68611V46.3591L10.4359 46.176V40.0135L7.49915 45.2608V46.176L8.24896 46.3591V46.5421H4.68733Z" fill="black"/>
<path d="M14.2495 48.7996L14.9993 48.6166V40.8067L14.2495 40.6236V40.4406H15.3742C15.8657 40.4406 16.2531 40.5952 16.5364 40.9043C16.6447 41.0263 16.7363 41.1768 16.8113 41.3558C16.9196 41.1443 17.0571 40.9613 17.2237 40.8067C17.5986 40.4406 18.0652 40.2576 18.6234 40.2576C19.1149 40.2576 19.5523 40.3837 19.9356 40.6358C20.3188 40.8799 20.6229 41.246 20.8478 41.7341C21.0728 42.2141 21.1853 42.7998 21.1853 43.4913C21.1853 44.5327 20.9353 45.334 20.4354 45.8953C19.9439 46.4485 19.2774 46.7251 18.4359 46.7251C18.036 46.7251 17.6861 46.6438 17.3862 46.4811C17.2612 46.4241 17.1321 46.3428 16.9988 46.237V48.6166L17.7486 48.7996V48.9827H14.2495V48.7996ZM17.9361 46.3591C18.2943 46.3591 18.5692 46.1557 18.7608 45.7489C18.9608 45.3421 19.0608 44.5896 19.0608 43.4913C19.0608 42.4419 18.9691 41.7138 18.7858 41.307C18.6109 40.8921 18.3901 40.6847 18.1235 40.6847C17.8069 40.6847 17.5237 40.8474 17.2737 41.1728C17.1654 41.3111 17.0738 41.4738 16.9988 41.6609V45.8709C17.1154 45.9848 17.2071 46.0662 17.2737 46.115C17.4987 46.2777 17.7194 46.3591 17.9361 46.3591Z" fill="black"/>
<path d="M22.185 46.5421V46.3591L22.9348 46.176V40.8067L22.185 40.6236V40.4406H25.6842V40.6236L24.9343 40.8067V44.8337L26.9339 41.4779V40.8067L26.184 40.6236V40.4406H29.6832V40.6236L28.9334 40.8067V46.176L29.6832 46.3591V46.5421H26.184V46.3591L26.9339 46.176V42.149L24.9343 45.5048V46.176L25.6842 46.3591V46.5421H22.185Z" fill="black"/>
<path d="M30.679 46.5421V46.3591L31.4288 46.176V40.8067L30.679 40.6236V40.4406H34.1782V40.6236L33.4284 40.8067V43.3083H35.3029V40.8067L34.5531 40.6236V40.4406H38.0522V40.6236L37.3024 40.8067V46.176L38.0522 46.3591V46.5421H34.5531V46.3591L35.3029 46.176V43.6134H33.4284V46.176L34.1782 46.3591V46.5421H30.679Z" fill="black"/>
<path d="M41.4879 46.7251C40.7464 46.7251 40.1757 46.5706 39.7758 46.2614C39.3759 45.9523 39.176 45.5577 39.176 45.0777C39.176 44.7605 39.2468 44.4472 39.3884 44.1381C39.4467 43.9917 39.5217 43.8574 39.6134 43.7354C39.955 43.6541 40.3257 43.5808 40.7256 43.5158C41.6254 43.3693 42.421 43.2798 43.1125 43.2473V42.8812C43.1125 41.9782 43 41.3558 42.7751 41.0141C42.5502 40.6725 42.2044 40.5016 41.7379 40.5016C41.5629 40.5016 41.4129 40.522 41.288 40.5626L41.113 40.6236V42.4541L40.9505 42.4907C40.8172 42.507 40.7048 42.5151 40.6131 42.5151C40.3299 42.5151 40.1008 42.4338 39.9258 42.271C39.7592 42.1002 39.6759 41.8765 39.6759 41.5999C39.6759 41.2257 39.8675 40.9084 40.2507 40.648C40.6423 40.3877 41.2213 40.2576 41.9878 40.2576C42.6376 40.2576 43.1958 40.3714 43.6624 40.5992C44.1373 40.8189 44.4955 41.128 44.7371 41.5267C44.9871 41.9172 45.112 42.3687 45.112 42.8812V46.176L45.8619 46.3591V46.5421H44.7371C44.2372 46.5421 43.8498 46.3916 43.5749 46.0906C43.4583 45.9686 43.3666 45.814 43.3 45.6269C43.1833 45.8303 43.0459 46.0133 42.8876 46.176C42.5127 46.5421 42.0461 46.7251 41.4879 46.7251ZM41.9878 46.298C42.2961 46.298 42.5752 46.1353 42.8251 45.8099C42.9167 45.6879 43.0125 45.5252 43.1125 45.3218V43.5524C42.7293 43.5524 42.3627 43.5727 42.0128 43.6134C41.7545 43.6459 41.5796 43.6663 41.4879 43.6744C41.4463 43.7639 41.4046 43.8859 41.3629 44.0405C41.2796 44.3496 41.238 44.6547 41.238 44.9557C41.238 45.4113 41.3088 45.7489 41.4504 45.9686C41.5921 46.1882 41.7712 46.298 41.9878 46.298Z" fill="black"/>
<path d="M4.24994 61.8035L5.24969 61.4374L7.37418 58.3744L4.62485 53.8105L4 53.6275V53.4444H5.81206C6.22862 53.4444 6.55771 53.5298 6.79932 53.7007C7.04926 53.8715 7.28253 54.1318 7.49915 54.4817L8.69885 56.483L10.4359 53.9935L9.49866 53.6275V53.4444H11.8731V53.6275L10.8733 53.9935L8.9113 56.8124L11.8106 61.6204L12.4354 61.8035V61.9865H10.6234C10.2151 61.9865 9.88606 61.9011 9.63612 61.7302C9.38618 61.5594 9.15291 61.2991 8.93629 60.9493L7.58662 58.7161L5.68709 61.4374L6.62436 61.8035V61.9865H4.24994V61.8035Z" fill="black"/>
<path d="M15.3102 62.1696C14.5687 62.1696 13.998 62.015 13.5981 61.7058C13.1982 61.3967 12.9983 61.0021 12.9983 60.5221C12.9983 60.2049 13.0691 59.8917 13.2107 59.5825C13.2691 59.4361 13.344 59.3018 13.4357 59.1798C13.7773 59.0985 14.148 59.0252 14.5479 58.9602C15.4477 58.8137 16.2433 58.7242 16.9348 58.6917V58.3256C16.9348 57.4226 16.8224 56.8002 16.5974 56.4586C16.3725 56.1169 16.0267 55.946 15.5602 55.946C15.3852 55.946 15.2352 55.9664 15.1103 56.007L14.9353 56.0681V57.8985L14.7729 57.9351C14.6396 57.9514 14.5271 57.9595 14.4354 57.9595C14.1522 57.9595 13.9231 57.8782 13.7481 57.7155C13.5815 57.5446 13.4982 57.3209 13.4982 57.0443C13.4982 56.6701 13.6898 56.3528 14.073 56.0925C14.4646 55.8321 15.0436 55.702 15.8101 55.702C16.4599 55.702 17.0181 55.8159 17.4847 56.0436C17.9596 56.2633 18.3178 56.5724 18.5594 56.9711C18.8094 57.3616 18.9343 57.8131 18.9343 58.3256V61.6204L19.6842 61.8035V61.9865H18.5594C18.0596 61.9865 17.6722 61.836 17.3972 61.535C17.2806 61.413 17.1889 61.2584 17.1223 61.0713C17.0056 61.2747 16.8682 61.4577 16.7099 61.6204C16.335 61.9865 15.8684 62.1696 15.3102 62.1696ZM15.8101 61.7424C16.1184 61.7424 16.3975 61.5797 16.6474 61.2543C16.739 61.1323 16.8349 60.9696 16.9348 60.7662V58.9968C16.5516 58.9968 16.185 59.0171 15.8351 59.0578C15.5768 59.0903 15.4019 59.1107 15.3102 59.1188C15.2686 59.2083 15.2269 59.3303 15.1853 59.4849C15.1019 59.794 15.0603 60.0991 15.0603 60.4001C15.0603 60.8557 15.1311 61.1933 15.2727 61.413C15.4144 61.6326 15.5935 61.7424 15.8101 61.7424Z" fill="black"/>
<path d="M20.4398 61.8035L21.1896 61.6204V56.2511L20.4398 56.0681V55.885H23.939V56.0681L23.1892 56.2511V58.6307H23.6266C23.8682 58.6307 24.0764 58.5575 24.2514 58.411C24.4264 58.2565 24.5513 58.0653 24.6263 57.8375L24.9387 56.7392C25.1387 56.0884 25.5136 55.763 26.0635 55.763C26.4384 55.763 26.73 55.8606 26.9382 56.0559C27.1465 56.2511 27.2507 56.5196 27.2507 56.8612C27.2507 57.1704 27.1632 57.4104 26.9882 57.5812C26.8216 57.7521 26.5967 57.8375 26.3134 57.8375C26.1968 57.8375 26.0801 57.8294 25.9635 57.8131L25.8135 57.7765V56.1291C25.5636 56.1942 25.397 56.3975 25.3136 56.7392L25.0012 57.8375C24.9179 58.1222 24.7804 58.35 24.5888 58.5209C24.5222 58.5859 24.4305 58.6429 24.3139 58.6917H24.6888C25.1803 58.6917 25.5636 58.7893 25.8385 58.9846C26.1218 59.1717 26.3217 59.4198 26.4384 59.729L27.0632 61.6204L27.6881 61.8035V61.9865H26.3759C25.9343 61.9865 25.5761 61.8889 25.3011 61.6936C25.0345 61.4984 24.8513 61.2503 24.7513 60.9493L24.0639 58.9358H23.1892V61.6204L23.939 61.8035V61.9865H20.4398V61.8035Z" fill="black"/>
<path d="M30.6873 62.1696C29.9458 62.1696 29.3752 62.015 28.9752 61.7058C28.5753 61.3967 28.3754 61.0021 28.3754 60.5221C28.3754 60.2049 28.4462 59.8917 28.5878 59.5825C28.6462 59.4361 28.7211 59.3018 28.8128 59.1798C29.1544 59.0985 29.5251 59.0252 29.925 58.9602C30.8248 58.8137 31.6204 58.7242 32.3119 58.6917V58.3256C32.3119 57.4226 32.1995 56.8002 31.9745 56.4586C31.7496 56.1169 31.4038 55.946 30.9373 55.946C30.7623 55.946 30.6123 55.9664 30.4874 56.007L30.3124 56.0681V57.8985L30.15 57.9351C30.0167 57.9514 29.9042 57.9595 29.8125 57.9595C29.5293 57.9595 29.3002 57.8782 29.1252 57.7155C28.9586 57.5446 28.8753 57.3209 28.8753 57.0443C28.8753 56.6701 29.0669 56.3528 29.4501 56.0925C29.8417 55.8321 30.4207 55.702 31.1872 55.702C31.837 55.702 32.3952 55.8159 32.8618 56.0436C33.3367 56.2633 33.6949 56.5724 33.9365 56.9711C34.1865 57.3616 34.3114 57.8131 34.3114 58.3256V61.6204L35.0613 61.8035V61.9865H33.9365C33.4367 61.9865 33.0493 61.836 32.7743 61.535C32.6577 61.413 32.566 61.2584 32.4994 61.0713C32.3827 61.2747 32.2453 61.4577 32.087 61.6204C31.7121 61.9865 31.2455 62.1696 30.6873 62.1696ZM31.1872 61.7424C31.4955 61.7424 31.7746 61.5797 32.0245 61.2543C32.1161 61.1323 32.212 60.9696 32.3119 60.7662V58.9968C31.9287 58.9968 31.5621 59.0171 31.2122 59.0578C30.9539 59.0903 30.779 59.1107 30.6873 59.1188C30.6457 59.2083 30.604 59.3303 30.5624 59.4849C30.479 59.794 30.4374 60.0991 30.4374 60.4001C30.4374 60.8557 30.5082 61.1933 30.6498 61.413C30.7915 61.6326 30.9706 61.7424 31.1872 61.7424Z" fill="black"/>
<path d="M36.9417 57.3494V61.4374L37.9414 61.8035V61.9865H35.567V61.8035L36.5668 61.4374V56.2511L35.692 56.0681V55.885H37.3791C37.7873 55.885 38.1164 55.9704 38.3663 56.1413C38.6163 56.3121 38.8287 56.5521 39.0037 56.8612L40.7032 59.8022L42.0654 56.8612C42.2237 56.5358 42.4237 56.2918 42.6653 56.1291C42.9069 55.9664 43.2485 55.885 43.69 55.885H44.9397V56.0681L44.1899 56.2511V61.6204L44.9397 61.8035V61.9865H41.4406V61.8035L42.1904 61.6204V57.3494L39.9909 62.1085H39.691L36.9417 57.3494Z" fill="black"/>
<path d="M48.371 62.1696C47.6295 62.1696 47.0588 62.015 46.6589 61.7058C46.259 61.3967 46.0591 61.0021 46.0591 60.5221C46.0591 60.2049 46.1299 59.8917 46.2715 59.5825C46.3298 59.4361 46.4048 59.3018 46.4965 59.1798C46.838 59.0985 47.2088 59.0252 47.6087 58.9602C48.5085 58.8137 49.3041 58.7242 49.9956 58.6917V58.3256C49.9956 57.4226 49.8831 56.8002 49.6582 56.4586C49.4332 56.1169 49.0875 55.946 48.6209 55.946C48.446 55.946 48.296 55.9664 48.171 56.007L47.9961 56.0681V57.8985L47.8336 57.9351C47.7003 57.9514 47.5879 57.9595 47.4962 57.9595C47.213 57.9595 46.9838 57.8782 46.8089 57.7155C46.6423 57.5446 46.5589 57.3209 46.5589 57.0443C46.5589 56.6701 46.7506 56.3528 47.1338 56.0925C47.5254 55.8321 48.1044 55.702 48.8709 55.702C49.5207 55.702 50.0789 55.8159 50.5455 56.0436C51.0204 56.2633 51.3786 56.5724 51.6202 56.9711C51.8701 57.3616 51.9951 57.8131 51.9951 58.3256V61.6204L52.7449 61.8035V61.9865H51.6202C51.1203 61.9865 50.7329 61.836 50.458 61.535C50.3414 61.413 50.2497 61.2584 50.1831 61.0713C50.0664 61.2747 49.929 61.4577 49.7707 61.6204C49.3958 61.9865 48.9292 62.1696 48.371 62.1696ZM48.8709 61.7424C49.1791 61.7424 49.4582 61.5797 49.7082 61.2543C49.7998 61.1323 49.8956 60.9696 49.9956 60.7662V58.9968C49.6124 58.9968 49.2458 59.0171 48.8959 59.0578C48.6376 59.0903 48.4626 59.1107 48.371 59.1188C48.3293 59.2083 48.2877 59.3303 48.246 59.4849C48.1627 59.794 48.1211 60.0991 48.1211 60.4001C48.1211 60.8557 48.1919 61.1933 48.3335 61.413C48.4751 61.6326 48.6543 61.7424 48.8709 61.7424Z" fill="black"/>
<path d="M52.8758 61.6814H53.8755C54.0088 61.5919 54.1546 61.4496 54.3129 61.2543C54.6045 60.8964 54.7711 60.4489 54.8128 59.912L55.0627 56.3121L54.1879 56.0681V55.885H60.124V56.0681L59.3742 56.2511V61.6814H60.4989V64H60.124C59.9074 63.8617 59.7283 63.6949 59.5866 63.4997C59.2367 63.0604 59.0618 62.556 59.0618 61.9865H54.3129C54.3129 62.5478 54.1338 63.0522 53.7755 63.4997C53.6339 63.6949 53.459 63.8617 53.2507 64H52.8758V61.6814ZM57.3747 61.6814V56.1901H55.4376L55.1877 59.912C55.146 60.4245 54.9877 60.872 54.7128 61.2543C54.5878 61.4252 54.4545 61.5675 54.3129 61.6814H57.3747Z" fill="black"/>
<path d="M63.6261 62.1696C62.8846 62.1696 62.3139 62.015 61.914 61.7058C61.5141 61.3967 61.3141 61.0021 61.3141 60.5221C61.3141 60.2049 61.3849 59.8917 61.5266 59.5825C61.5849 59.4361 61.6599 59.3018 61.7515 59.1798C62.0931 59.0985 62.4638 59.0252 62.8638 58.9602C63.7635 58.8137 64.5592 58.7242 65.2507 58.6917V58.3256C65.2507 57.4226 65.1382 56.8002 64.9132 56.4586C64.6883 56.1169 64.3426 55.946 63.876 55.946C63.701 55.946 63.5511 55.9664 63.4261 56.007L63.2512 56.0681V57.8985L63.0887 57.9351C62.9554 57.9514 62.8429 57.9595 62.7513 57.9595C62.468 57.9595 62.2389 57.8782 62.0639 57.7155C61.8973 57.5446 61.814 57.3209 61.814 57.0443C61.814 56.6701 62.0056 56.3528 62.3889 56.0925C62.7804 55.8321 63.3595 55.702 64.1259 55.702C64.7758 55.702 65.334 55.8159 65.8005 56.0436C66.2754 56.2633 66.6337 56.5724 66.8753 56.9711C67.1252 57.3616 67.2502 57.8131 67.2502 58.3256V61.6204L68 61.8035V61.9865H66.8753C66.3754 61.9865 65.988 61.836 65.7131 61.535C65.5964 61.413 65.5048 61.2584 65.4381 61.0713C65.3215 61.2747 65.184 61.4577 65.0257 61.6204C64.6508 61.9865 64.1843 62.1696 63.6261 62.1696ZM64.1259 61.7424C64.4342 61.7424 64.7133 61.5797 64.9632 61.2543C65.0549 61.1323 65.1507 60.9696 65.2507 60.7662V58.9968C64.8674 58.9968 64.5009 59.0171 64.1509 59.0578C63.8927 59.0903 63.7177 59.1107 63.6261 59.1188C63.5844 59.2083 63.5428 59.3303 63.5011 59.4849C63.4178 59.794 63.3761 60.0991 63.3761 60.4001C63.3761 60.8557 63.4469 61.1933 63.5886 61.413C63.7302 61.6326 63.9093 61.7424 64.1259 61.7424Z" fill="black"/>
</svg>
