<svg width="72" height="72" viewBox="0 0 72 72" fill="none" xmlns="http://www.w3.org/2000/svg">
<rect width="72" height="72" fill="white"/>
<path fill-rule="evenodd" clip-rule="evenodd" d="M55.6295 37.9937C55.6295 37.9937 55.6273 38.0367 55.624 38.101C55.6178 38.1651 55.6233 38.2522 55.6057 38.3366C55.5928 38.4215 55.5797 38.5064 55.5701 38.5701C55.5663 38.6022 55.5606 38.6284 55.555 38.6464C55.5504 38.6646 55.5476 38.675 55.5476 38.675L55.7265 38.7151C55.7265 38.7151 55.7295 38.7041 55.7344 38.6849C55.7401 38.666 55.7461 38.6383 55.7502 38.6046C55.7604 38.5375 55.7741 38.448 55.7877 38.3585C55.8059 38.2696 55.8007 38.1781 55.8071 38.1106C55.8106 38.0428 55.8129 37.9976 55.8129 37.9976L55.6295 37.9937Z" fill="black"/>
<path fill-rule="evenodd" clip-rule="evenodd" d="M55.8694 38.7472L56.0483 38.7872C56.0483 38.7872 56.0513 38.7752 56.0566 38.7543C56.0628 38.7335 56.0692 38.7034 56.0739 38.6666C56.0852 38.5934 56.1 38.4958 56.1149 38.3981C56.1342 38.3009 56.1296 38.2015 56.1363 38.1278C56.14 38.0539 56.1425 38.0047 56.1425 38.0047L55.9591 38.0007C55.9591 38.0007 55.9568 38.0477 55.9532 38.1183C55.9467 38.1885 55.9516 38.2835 55.9329 38.3762C55.9187 38.4693 55.9045 38.5624 55.8938 38.6322C55.8895 38.6673 55.8833 38.696 55.8774 38.7158C55.8722 38.7358 55.8694 38.7472 55.8694 38.7472Z" fill="black"/>
<path fill-rule="evenodd" clip-rule="evenodd" d="M55.5113 38.8148C55.5113 38.8148 55.5006 38.8564 55.4847 38.9188C55.4676 38.9809 55.4341 39.0603 55.4058 39.1413C55.3911 39.1816 55.3765 39.222 55.3627 39.2599C55.3451 39.2961 55.3288 39.3299 55.3147 39.3589C55.2867 39.417 55.2681 39.4557 55.2681 39.4557L55.4322 39.5377C55.4322 39.5377 55.4517 39.4969 55.4812 39.4357C55.496 39.4052 55.5132 39.3695 55.5315 39.3313C55.5462 39.2914 55.5616 39.2489 55.5772 39.2065C55.6071 39.1211 55.642 39.0373 55.6602 38.972C55.6771 38.9062 55.6884 38.8624 55.6884 38.8624L55.5113 38.8148Z" fill="black"/>
<path fill-rule="evenodd" clip-rule="evenodd" d="M55.5632 39.6031L55.7272 39.6851C55.7272 39.6851 55.7487 39.6406 55.7808 39.5739C55.7968 39.5405 55.8155 39.5015 55.8354 39.4597C55.8514 39.4163 55.8686 39.3699 55.8857 39.3236C55.9185 39.2305 55.9561 39.1388 55.976 39.0675C55.9947 38.9958 56.007 38.948 56.007 38.948L55.83 38.9003C55.83 38.9003 55.8181 38.946 55.8005 39.0144C55.7815 39.0824 55.7455 39.1697 55.7143 39.2585C55.698 39.3027 55.6819 39.3469 55.6666 39.3883C55.6475 39.4281 55.6297 39.4653 55.6143 39.4971C55.5837 39.5607 55.5632 39.6031 55.5632 39.6031Z" fill="black"/>
<path fill-rule="evenodd" clip-rule="evenodd" d="M55.2031 39.5845C55.2031 39.5845 55.1807 39.6212 55.1472 39.6762C55.1121 39.7302 55.0724 39.807 55.0215 39.8761C54.9699 39.945 54.9185 40.0138 54.8799 40.0654C54.843 40.1185 54.8118 40.1483 54.8118 40.1483L54.9514 40.2672C54.9514 40.2672 54.9842 40.2356 55.0231 40.1799C55.0638 40.1255 55.118 40.053 55.1722 39.9805C55.2259 39.9076 55.2679 39.827 55.3048 39.77C55.3401 39.712 55.3636 39.6733 55.3636 39.6733L55.2031 39.5845Z" fill="black"/>
<path fill-rule="evenodd" clip-rule="evenodd" d="M55.0637 40.3623L55.2034 40.4811C55.2034 40.4811 55.2388 40.4465 55.2816 40.3859C55.326 40.3266 55.3851 40.2475 55.4442 40.1685C55.5024 40.0888 55.5491 40.0012 55.5889 39.9389C55.6273 39.8755 55.6529 39.8333 55.6529 39.8333L55.4925 39.7445C55.4925 39.7445 55.468 39.7848 55.4313 39.8452C55.3932 39.9045 55.3491 39.9882 55.2934 40.0641C55.237 40.1395 55.1807 40.215 55.1384 40.2715C55.0976 40.3295 55.0637 40.3623 55.0637 40.3623Z" fill="black"/>
<path fill-rule="evenodd" clip-rule="evenodd" d="M54.7149 40.2552C54.7149 40.2552 54.686 40.2871 54.6428 40.3349C54.5986 40.3819 54.5321 40.4368 54.4695 40.4956C54.4376 40.5244 54.4058 40.5533 54.3759 40.5803C54.3436 40.6043 54.3134 40.6268 54.2875 40.6461C54.2359 40.6846 54.2014 40.7104 54.2014 40.7104L54.3088 40.859C54.3088 40.859 54.3451 40.8319 54.3994 40.7913C54.4267 40.771 54.4584 40.7473 54.4923 40.7219C54.5238 40.6934 54.5575 40.6631 54.5911 40.6328C54.6571 40.5711 54.727 40.5131 54.7734 40.4635C54.819 40.4133 54.8495 40.3798 54.8495 40.3798L54.7149 40.2552Z" fill="black"/>
<path fill-rule="evenodd" clip-rule="evenodd" d="M54.3945 40.9779L54.5018 41.1266C54.5018 41.1266 54.5413 41.097 54.6007 41.0527C54.6303 41.0304 54.6648 41.0045 54.7018 40.9767C54.7362 40.9458 54.7729 40.9128 54.8097 40.8798C54.8819 40.8127 54.9576 40.7489 55.0084 40.6951C55.0582 40.6404 55.0915 40.6039 55.0915 40.6039L54.9569 40.4794C54.9569 40.4794 54.9252 40.5142 54.8778 40.5665C54.8294 40.6178 54.7569 40.6785 54.6881 40.7426C54.6531 40.7741 54.6182 40.8056 54.5853 40.8351C54.55 40.8616 54.517 40.8863 54.4887 40.9074C54.4322 40.9497 54.3945 40.9779 54.3945 40.9779Z" fill="black"/>
<path fill-rule="evenodd" clip-rule="evenodd" d="M54.0839 40.7941C54.0839 40.7941 54.047 40.8163 53.9919 40.8497C53.9358 40.8811 53.8659 40.9322 53.7878 40.9684C53.7105 41.0057 53.6331 41.043 53.575 41.071C53.5461 41.0854 53.5218 41.0968 53.5038 41.1023C53.4861 41.1086 53.4761 41.1123 53.4761 41.1123L53.5446 41.2823C53.5446 41.2823 53.5553 41.2785 53.5738 41.2717C53.5929 41.2659 53.6186 41.2539 53.6489 41.2388C53.7101 41.2093 53.7915 41.17 53.8731 41.1308C53.9552 41.0924 54.0291 41.0391 54.0882 41.0058C54.1462 40.9706 54.1849 40.9471 54.1849 40.9471L54.0839 40.7941Z" fill="black"/>
<path fill-rule="evenodd" clip-rule="evenodd" d="M53.5996 41.4184L53.6682 41.5884C53.6682 41.5884 53.6799 41.5842 53.7 41.5767C53.7208 41.5702 53.7488 41.5573 53.7819 41.5408C53.8487 41.5087 53.9377 41.4658 54.0267 41.4229C54.116 41.3807 54.1971 41.3232 54.2615 41.2867C54.3247 41.2482 54.3668 41.2225 54.3668 41.2225L54.2658 41.0695C54.2658 41.0695 54.2256 41.094 54.1652 41.1306C54.1039 41.1654 54.0267 41.2206 53.9414 41.2606C53.8566 41.3015 53.7717 41.3423 53.7082 41.373C53.6765 41.3887 53.6498 41.4011 53.6301 41.4072C53.6107 41.4144 53.5996 41.4184 53.5996 41.4184Z" fill="black"/>
<path fill-rule="evenodd" clip-rule="evenodd" d="M53.3404 41.1618C53.3404 41.1618 53.3001 41.1767 53.2396 41.1989C53.1789 41.2203 53.0944 41.2375 53.0116 41.2601C52.97 41.2709 52.9286 41.2817 52.8896 41.2918C52.8498 41.298 52.8126 41.3038 52.7807 41.3087C52.7171 41.3184 52.6746 41.3249 52.6746 41.3249L52.7002 41.5065C52.7002 41.5065 52.7449 41.4996 52.812 41.4895C52.8456 41.4841 52.8847 41.478 52.9266 41.4714C52.9677 41.4608 53.0115 41.4495 53.0553 41.4383C53.1426 41.4144 53.2314 41.396 53.2956 41.3736C53.3592 41.3502 53.4017 41.3346 53.4017 41.3346L53.3404 41.1618Z" fill="black"/>
<path fill-rule="evenodd" clip-rule="evenodd" d="M52.7209 41.6517L52.7466 41.8333C52.7466 41.8333 52.7953 41.8258 52.8686 41.8146C52.905 41.8087 52.9477 41.802 52.9935 41.7946C53.0383 41.7832 53.0862 41.7709 53.134 41.7587C53.2294 41.733 53.3262 41.7122 53.3962 41.6879C53.4658 41.6625 53.5123 41.6456 53.5123 41.6456L53.451 41.4729C53.451 41.4729 53.4067 41.489 53.3403 41.5133C53.2737 41.5365 53.1813 41.556 53.0905 41.5807C53.0449 41.5924 52.9992 41.6041 52.9564 41.6151C52.9129 41.622 52.8722 41.6284 52.8372 41.6339C52.7675 41.6446 52.7209 41.6517 52.7209 41.6517Z" fill="black"/>
<path fill-rule="evenodd" clip-rule="evenodd" d="M52.5321 41.3459C52.5321 41.3459 52.3603 41.3545 52.1885 41.3631C52.0167 41.3544 51.8449 41.3457 51.8449 41.3457L51.8267 41.5282C51.8267 41.5282 52.0075 41.5373 52.1883 41.5464C52.3692 41.5374 52.55 41.5283 52.55 41.5283L52.5321 41.3459Z" fill="black"/>
<path fill-rule="evenodd" clip-rule="evenodd" d="M51.8123 41.6741L51.7942 41.8566C51.7942 41.8566 51.9912 41.8665 52.1883 41.8764C52.3854 41.8666 52.5825 41.8567 52.5825 41.8567L52.5645 41.6743C52.5645 41.6743 52.3765 41.6837 52.1884 41.6931C52.0003 41.6836 51.8123 41.6741 51.8123 41.6741Z" fill="black"/>
<path fill-rule="evenodd" clip-rule="evenodd" d="M51.7018 41.3244C51.7018 41.3244 51.6593 41.318 51.5956 41.3082C51.5638 41.303 51.5263 41.2988 51.4869 41.291C51.448 41.2809 51.4063 41.2701 51.3649 41.2594C51.2821 41.2364 51.1975 41.2198 51.1369 41.1978C51.0765 41.1755 51.0362 41.1607 51.0362 41.1607L50.9746 41.3335C50.9746 41.3335 51.0171 41.349 51.0808 41.3724C51.1446 41.3955 51.2338 41.4134 51.321 41.4374C51.3647 41.4487 51.4086 41.46 51.4497 41.4706C51.4912 41.4788 51.5306 41.4834 51.5641 41.4889C51.6313 41.4992 51.676 41.506 51.676 41.506L51.7018 41.3244Z" fill="black"/>
<path fill-rule="evenodd" clip-rule="evenodd" d="M50.9255 41.4715L50.864 41.6442C50.864 41.6442 50.9105 41.6611 50.9801 41.6865C51.0497 41.7115 51.1469 41.7317 51.2421 41.7577C51.29 41.7699 51.3378 41.7821 51.3827 41.7936C51.428 41.8026 51.4711 41.8078 51.5075 41.8139C51.5808 41.8251 51.6296 41.8326 51.6296 41.8326L51.6553 41.651C51.6553 41.651 51.6088 41.6439 51.5391 41.6333C51.5041 41.6276 51.4632 41.6226 51.42 41.6141C51.3772 41.6031 51.3316 41.5914 51.286 41.5796C51.1952 41.5548 51.1025 41.5359 51.0361 41.5119C50.9698 41.4877 50.9255 41.4715 50.9255 41.4715Z" fill="black"/>
<path fill-rule="evenodd" clip-rule="evenodd" d="M50.9006 41.1113C50.9006 41.1113 50.859 41.0998 50.8018 41.0696C50.7437 41.0416 50.6664 41.0043 50.589 40.967C50.5114 40.9303 50.4412 40.8796 50.385 40.848C50.3299 40.8147 50.2932 40.7924 50.2932 40.7924L50.1919 40.9454C50.1919 40.9454 50.2307 40.9688 50.2886 41.004C50.3477 41.0375 50.4218 41.0903 50.5035 41.1293C50.5851 41.1686 50.6666 41.2078 50.7277 41.2373C50.788 41.2689 50.8319 41.2812 50.8319 41.2812L50.9006 41.1113Z" fill="black"/>
<path fill-rule="evenodd" clip-rule="evenodd" d="M50.1112 41.0675L50.01 41.2204C50.01 41.2204 50.0521 41.2461 50.1153 41.2846C50.1796 41.3213 50.2609 41.3784 50.3499 41.4211C50.4389 41.464 50.5279 41.5069 50.5946 41.539C50.6606 41.5732 50.7083 41.587 50.7083 41.587L50.777 41.4171C50.777 41.4171 50.7314 41.404 50.6686 41.3713C50.6051 41.3406 50.5202 41.2998 50.4354 41.2589C50.3504 41.2183 50.273 41.1635 50.2117 41.1286C50.1513 41.0919 50.1112 41.0675 50.1112 41.0675Z" fill="black"/>
<path fill-rule="evenodd" clip-rule="evenodd" d="M50.176 40.7083C50.176 40.7083 50.1416 40.6826 50.0899 40.644C50.0642 40.6248 50.0339 40.6023 50.0017 40.5783C49.9717 40.5511 49.94 40.5222 49.9082 40.4933C49.8456 40.4344 49.7788 40.3799 49.7352 40.3324C49.6918 40.2845 49.6629 40.2527 49.6629 40.2527L49.5283 40.3771C49.5283 40.3771 49.5587 40.4106 49.6043 40.4609C49.6504 40.5108 49.7206 40.5685 49.7865 40.6304C49.8201 40.6608 49.8536 40.6912 49.885 40.7198C49.919 40.7451 49.9507 40.7688 49.9778 40.7891C50.0323 40.8298 50.0685 40.8569 50.0685 40.8569L50.176 40.7083Z" fill="black"/>
<path fill-rule="evenodd" clip-rule="evenodd" d="M49.4204 40.4766L49.2856 40.601C49.2856 40.601 49.319 40.6374 49.3687 40.6922C49.4191 40.7465 49.4951 40.8099 49.5672 40.8772C49.6039 40.9103 49.6405 40.9434 49.6749 40.9744C49.7119 41.0021 49.7464 41.0281 49.776 41.0503C49.8353 41.0946 49.8748 41.1242 49.8748 41.1242L49.9823 40.9757C49.9823 40.9757 49.9446 40.9475 49.888 40.9052C49.8598 40.884 49.8268 40.8594 49.7914 40.8329C49.7587 40.8032 49.7239 40.7716 49.6889 40.7401C49.6202 40.6758 49.5473 40.6156 49.4995 40.5637C49.452 40.5114 49.4204 40.4766 49.4204 40.4766Z" fill="black"/>
<path fill-rule="evenodd" clip-rule="evenodd" d="M49.5656 40.1459C49.5656 40.1459 49.5345 40.1158 49.4976 40.0629C49.4589 40.0112 49.4075 39.9424 49.356 39.8736C49.3055 39.804 49.2655 39.7275 49.2305 39.6734C49.1971 39.6184 49.1746 39.5817 49.1746 39.5817L49.0142 39.6704C49.0142 39.6704 49.0377 39.7091 49.073 39.767C49.1095 39.8241 49.152 39.9045 49.2051 39.9777C49.2593 40.0503 49.3135 40.1227 49.3542 40.1771C49.3932 40.2328 49.4257 40.2646 49.4257 40.2646L49.5656 40.1459Z" fill="black"/>
<path fill-rule="evenodd" clip-rule="evenodd" d="M48.8857 39.7412L48.7253 39.8298C48.7253 39.8298 48.7508 39.872 48.7892 39.9354C48.829 39.9978 48.876 40.0852 48.9336 40.1652C48.9927 40.2442 49.0518 40.3233 49.0962 40.3826C49.139 40.4431 49.1742 40.478 49.1742 40.478L49.3139 40.3594C49.3139 40.3594 49.2803 40.3262 49.2396 40.2684C49.1972 40.2118 49.1408 40.1364 49.0845 40.061C49.0294 39.9847 48.9848 39.9012 48.9468 39.8418C48.9102 39.7814 48.8857 39.7412 48.8857 39.7412Z" fill="black"/>
<path fill-rule="evenodd" clip-rule="evenodd" d="M49.1104 39.4526C49.1104 39.4526 49.0917 39.4139 49.0637 39.3558C49.0498 39.3268 49.0335 39.2929 49.0161 39.2567C49.0023 39.2188 48.9876 39.1784 48.973 39.1381C48.9448 39.057 48.9109 38.9778 48.8943 38.9155C48.8785 38.8531 48.8678 38.8115 48.8678 38.8115L48.6907 38.8589C48.6907 38.8589 48.7019 38.9027 48.7188 38.9684C48.7363 39.034 48.7717 39.1176 48.8015 39.203C48.817 39.2456 48.8326 39.2881 48.8471 39.3279C48.8654 39.3662 48.8825 39.4019 48.8971 39.4325C48.9266 39.4936 48.9463 39.5344 48.9463 39.5344L49.1104 39.4526Z" fill="black"/>
<path fill-rule="evenodd" clip-rule="evenodd" d="M48.549 38.8969L48.3718 38.9443C48.3718 38.9443 48.3843 38.9922 48.4028 39.0639C48.422 39.1354 48.4601 39.2269 48.4928 39.3201C48.5099 39.3664 48.5269 39.4128 48.5429 39.4562C48.5629 39.498 48.5814 39.5371 48.5972 39.5705C48.6294 39.6373 48.6509 39.6818 48.6509 39.6818L48.815 39.6C48.815 39.6 48.7945 39.5575 48.7639 39.4939C48.7486 39.462 48.7308 39.4248 48.7119 39.385C48.6966 39.3436 48.6805 39.2994 48.6642 39.2551C48.6332 39.1662 48.5965 39.0791 48.5783 39.0109C48.5607 38.9425 48.549 38.8969 48.549 38.8969Z" fill="black"/>
<path fill-rule="evenodd" clip-rule="evenodd" d="M48.8314 38.6718C48.8314 38.6718 48.8287 38.6613 48.824 38.6432C48.8182 38.6252 48.8135 38.5988 48.8093 38.5668C48.7996 38.5031 48.7867 38.4182 48.7736 38.3332C48.7565 38.2487 48.7619 38.1618 48.7557 38.0977C48.7523 38.0333 48.7502 37.9903 48.7502 37.9903L48.5669 37.9941C48.5669 37.9941 48.5691 38.0392 48.5725 38.107C48.579 38.1746 48.5739 38.266 48.5916 38.355C48.6053 38.4445 48.6189 38.5339 48.6291 38.601C48.6337 38.6348 48.6387 38.6626 48.6446 38.6815C48.6495 38.7007 48.6524 38.7116 48.6524 38.7116L48.8314 38.6718Z" fill="black"/>
<path fill-rule="evenodd" clip-rule="evenodd" d="M48.4207 37.997L48.2373 38.0007C48.2373 38.0007 48.2398 38.0499 48.2434 38.1239C48.2502 38.1975 48.2456 38.297 48.2644 38.3942C48.2794 38.4919 48.2942 38.5895 48.3054 38.6627C48.3105 38.6994 48.3161 38.7298 48.3223 38.7505C48.3276 38.7714 48.3308 38.7834 48.3308 38.7834L48.5097 38.7435C48.5097 38.7435 48.5067 38.7321 48.5017 38.7122C48.4956 38.6924 48.4903 38.6635 48.4855 38.6285C48.4749 38.5586 48.4606 38.4655 48.4464 38.3725C48.4282 38.2797 48.4331 38.1847 48.4266 38.1145C48.423 38.044 48.4207 37.997 48.4207 37.997Z" fill="black"/>
<path fill-rule="evenodd" clip-rule="evenodd" d="M48.7502 37.8459C48.7502 37.8459 48.7525 37.803 48.7557 37.7386C48.7619 37.6745 48.7563 37.5875 48.7741 37.5031C48.787 37.4181 48.8 37.3332 48.8096 37.2695C48.8135 37.2374 48.8191 37.2112 48.8246 37.1932C48.8293 37.175 48.8321 37.1647 48.8321 37.1647L48.6531 37.1246C48.6531 37.1246 48.6503 37.1355 48.6454 37.1547C48.6396 37.1737 48.6337 37.2013 48.6295 37.2351C48.6193 37.3022 48.6057 37.3916 48.5921 37.4811C48.5737 37.5701 48.579 37.6616 48.5727 37.729C48.5691 37.7969 48.5669 37.8421 48.5669 37.8421L48.7502 37.8459Z" fill="black"/>
<path fill-rule="evenodd" clip-rule="evenodd" d="M48.5104 37.0926L48.3315 37.0525C48.3315 37.0525 48.3285 37.0645 48.3232 37.0854C48.317 37.1062 48.3106 37.1364 48.3059 37.1731C48.2946 37.2464 48.2797 37.344 48.2649 37.4416C48.2456 37.5389 48.2502 37.6383 48.2435 37.7119C48.2398 37.7858 48.2373 37.8351 48.2373 37.8351L48.4207 37.839C48.4207 37.839 48.423 37.792 48.4266 37.7215C48.4331 37.6513 48.4281 37.5563 48.4469 37.4636C48.4611 37.3705 48.4753 37.2774 48.486 37.2076C48.4903 37.1725 48.4963 37.1437 48.5024 37.1239C48.5074 37.104 48.5104 37.0926 48.5104 37.0926Z" fill="black"/>
<path fill-rule="evenodd" clip-rule="evenodd" d="M48.8685 37.0249C48.8685 37.0249 48.8792 36.9833 48.895 36.9209C48.9122 36.8588 48.9457 36.7794 48.974 36.6984C48.9886 36.658 49.0033 36.6176 49.0171 36.5798C49.0347 36.5436 49.051 36.5097 49.0651 36.4807C49.0931 36.4227 49.1117 36.384 49.1117 36.384L48.9476 36.302C48.9476 36.302 48.9281 36.3428 48.8986 36.404C48.8838 36.4345 48.8666 36.4701 48.8482 36.5084C48.8336 36.5483 48.818 36.5907 48.8026 36.6332C48.7727 36.7186 48.7378 36.8024 48.7195 36.8677C48.7027 36.9334 48.6914 36.9773 48.6914 36.9773L48.8685 37.0249Z" fill="black"/>
<path fill-rule="evenodd" clip-rule="evenodd" d="M48.8165 36.2365L48.6524 36.1546C48.6524 36.1546 48.6311 36.199 48.599 36.2658C48.583 36.2992 48.5643 36.3381 48.5443 36.3799C48.5283 36.4233 48.5111 36.4697 48.4941 36.5161C48.4612 36.6092 48.4236 36.7009 48.4038 36.7721C48.3851 36.8439 48.3728 36.8917 48.3728 36.8917L48.5498 36.9393C48.5498 36.9393 48.5616 36.8937 48.5793 36.8253C48.5981 36.7573 48.6342 36.67 48.6655 36.5812C48.6817 36.537 48.6979 36.4928 48.7131 36.4513C48.7323 36.4115 48.75 36.3744 48.7654 36.3426C48.7961 36.2789 48.8165 36.2365 48.8165 36.2365Z" fill="black"/>
<path fill-rule="evenodd" clip-rule="evenodd" d="M49.1764 36.2552C49.1764 36.2552 49.1988 36.2184 49.2322 36.1634C49.2673 36.1094 49.3069 36.0327 49.358 35.9635C49.4095 35.8947 49.4609 35.8259 49.4996 35.7743C49.5365 35.7211 49.5677 35.6913 49.5677 35.6913L49.428 35.5725C49.428 35.5725 49.3953 35.6041 49.3562 35.6598C49.3156 35.7141 49.2614 35.7866 49.2072 35.8591C49.1536 35.932 49.1115 36.0127 49.0747 36.0696C49.0394 36.1277 49.0159 36.1663 49.0159 36.1663L49.1764 36.2552Z" fill="black"/>
<path fill-rule="evenodd" clip-rule="evenodd" d="M49.3165 35.4775L49.1768 35.3587C49.1768 35.3587 49.1414 35.3933 49.0986 35.4539C49.0542 35.5132 48.9951 35.5922 48.936 35.6713C48.8776 35.751 48.8311 35.8386 48.7913 35.9009C48.7529 35.9642 48.7273 36.0065 48.7273 36.0065L48.8877 36.0953C48.8877 36.0953 48.9121 36.0551 48.9489 35.9947C48.9869 35.9353 49.0311 35.8515 49.0867 35.7757C49.1432 35.7003 49.1994 35.6248 49.2418 35.5683C49.2824 35.5104 49.3165 35.4775 49.3165 35.4775Z" fill="black"/>
<path fill-rule="evenodd" clip-rule="evenodd" d="M49.6654 35.5844C49.6654 35.5844 49.6943 35.5525 49.7375 35.5047C49.7815 35.4577 49.8481 35.4029 49.9108 35.3441C49.9426 35.3153 49.9745 35.2864 50.0044 35.2594C50.0367 35.2353 50.0669 35.2129 50.0928 35.1936C50.1444 35.155 50.1789 35.1293 50.1789 35.1293L50.0715 34.9806C50.0715 34.9806 50.0352 35.0077 49.9808 35.0483C49.9536 35.0686 49.9219 35.0924 49.888 35.1178C49.8564 35.1462 49.8228 35.1765 49.7892 35.2068C49.7231 35.2686 49.6532 35.3266 49.6069 35.3761C49.5613 35.4264 49.5308 35.4598 49.5308 35.4598L49.6654 35.5844Z" fill="black"/>
<path fill-rule="evenodd" clip-rule="evenodd" d="M49.9853 34.8617L49.8779 34.7131C49.8779 34.7131 49.8385 34.7427 49.7791 34.787C49.7495 34.8092 49.715 34.8352 49.678 34.8629C49.6436 34.8939 49.6069 34.9268 49.5702 34.9598C49.4979 35.027 49.4222 35.0907 49.3714 35.1445C49.3217 35.1993 49.2883 35.2358 49.2883 35.2358L49.423 35.3603C49.423 35.3603 49.4547 35.3255 49.502 35.2732C49.5505 35.2218 49.6229 35.1612 49.6918 35.0971C49.7267 35.0655 49.7617 35.034 49.7946 35.0045C49.8298 34.978 49.8628 34.9533 49.8911 34.9322C49.9477 34.8899 49.9853 34.8617 49.9853 34.8617Z" fill="black"/>
<path fill-rule="evenodd" clip-rule="evenodd" d="M50.2961 35.0457C50.2961 35.0457 50.333 35.0234 50.388 34.9901C50.4442 34.9586 50.5141 34.9075 50.5921 34.8713C50.6694 34.834 50.7469 34.7967 50.805 34.7688C50.8337 34.7543 50.8581 34.743 50.8761 34.7375C50.8938 34.7311 50.9039 34.7274 50.9039 34.7274L50.8353 34.5573C50.8353 34.5573 50.8247 34.5613 50.8061 34.568C50.787 34.5739 50.7614 34.5858 50.7311 34.6009C50.6699 34.6304 50.5884 34.6697 50.5068 34.7089C50.4248 34.7472 50.3509 34.8006 50.2918 34.8339C50.2337 34.8691 50.1951 34.8926 50.1951 34.8926L50.2961 35.0457Z" fill="black"/>
<path fill-rule="evenodd" clip-rule="evenodd" d="M50.7805 34.4213L50.7119 34.2513C50.7119 34.2513 50.7002 34.2555 50.6801 34.2631C50.6594 34.2696 50.6314 34.2825 50.598 34.2989C50.5314 34.3311 50.4424 34.374 50.3534 34.4168C50.2641 34.4589 50.1831 34.5165 50.1186 34.553C50.0554 34.5916 50.0132 34.6172 50.0132 34.6172L50.1142 34.7703C50.1142 34.7703 50.1545 34.7458 50.2149 34.7091C50.2762 34.6743 50.3534 34.6192 50.4387 34.5791C50.5235 34.5383 50.6083 34.4974 50.6719 34.4667C50.7036 34.451 50.7303 34.4386 50.75 34.4325C50.7694 34.4254 50.7805 34.4213 50.7805 34.4213Z" fill="black"/>
<path fill-rule="evenodd" clip-rule="evenodd" d="M51.0393 34.678C51.0393 34.678 51.0796 34.6631 51.1401 34.6408C51.2009 34.6195 51.2853 34.6024 51.3681 34.5796C51.4098 34.5689 51.4512 34.5581 51.4902 34.548C51.53 34.5418 51.5672 34.536 51.599 34.531C51.6627 34.5214 51.7052 34.5149 51.7052 34.5149L51.6796 34.3333C51.6796 34.3333 51.6349 34.3401 51.5678 34.3503C51.5342 34.3556 51.4951 34.3617 51.4531 34.3683C51.4121 34.3789 51.3683 34.3903 51.3244 34.4016C51.2372 34.4254 51.1483 34.4438 51.0842 34.4662C51.0205 34.4895 50.978 34.5052 50.978 34.5052L51.0393 34.678Z" fill="black"/>
<path fill-rule="evenodd" clip-rule="evenodd" d="M51.659 34.188L51.6334 34.0065C51.6334 34.0065 51.5846 34.014 51.5113 34.0251C51.4749 34.031 51.4322 34.0378 51.3865 34.0451C51.3416 34.0565 51.2938 34.0688 51.2459 34.081C51.1506 34.1068 51.0537 34.1275 50.9838 34.1518C50.914 34.1772 50.8677 34.1941 50.8677 34.1941L50.929 34.3669C50.929 34.3669 50.9733 34.3507 51.0396 34.3264C51.1063 34.3032 51.1987 34.2837 51.2895 34.259C51.3351 34.2473 51.3807 34.2357 51.4235 34.2247C51.4671 34.2178 51.5078 34.2113 51.5427 34.2058C51.6125 34.1952 51.659 34.188 51.659 34.188Z" fill="black"/>
<path fill-rule="evenodd" clip-rule="evenodd" d="M51.8482 34.4939C51.8482 34.4939 52.02 34.4853 52.1918 34.4767C52.3636 34.4854 52.5354 34.4941 52.5354 34.4941L52.5537 34.3116C52.5537 34.3116 52.3728 34.3025 52.192 34.2933C52.0112 34.3023 51.8303 34.3114 51.8303 34.3114L51.8482 34.4939Z" fill="black"/>
<path fill-rule="evenodd" clip-rule="evenodd" d="M52.5679 34.1656L52.586 33.9832C52.586 33.9832 52.389 33.9732 52.1919 33.9633C51.9947 33.9731 51.7976 33.9829 51.7976 33.9829L51.8155 34.1654C51.8155 34.1654 52.0036 34.156 52.1917 34.1466C52.3798 34.1561 52.5679 34.1656 52.5679 34.1656Z" fill="black"/>
<path fill-rule="evenodd" clip-rule="evenodd" d="M52.678 34.5154C52.678 34.5154 52.7205 34.5219 52.7842 34.5316C52.816 34.5368 52.8533 34.541 52.8929 34.5489C52.9318 34.5589 52.9734 34.5697 53.0149 34.5805C53.0977 34.6034 53.1823 34.62 53.2428 34.6421C53.3033 34.6643 53.3436 34.6791 53.3436 34.6791L53.4052 34.5064C53.4052 34.5064 53.3627 34.4908 53.2988 34.4675C53.2351 34.4444 53.146 34.4264 53.0588 34.4024C53.0151 34.3911 52.9712 34.3799 52.9301 34.3693C52.8886 34.361 52.849 34.3564 52.8156 34.3509C52.7485 34.3407 52.7037 34.3339 52.7037 34.3339L52.678 34.5154Z" fill="black"/>
<path fill-rule="evenodd" clip-rule="evenodd" d="M53.4547 34.3682L53.5162 34.1955C53.5162 34.1955 53.4697 34.1786 53.4001 34.1532C53.3305 34.1282 53.2333 34.1079 53.1381 34.082C53.0902 34.0697 53.0424 34.0575 52.9975 34.0461C52.9522 34.0371 52.9091 34.0318 52.8727 34.0258C52.7993 34.0146 52.7506 34.0071 52.7506 34.0071L52.7249 34.1886C52.7249 34.1886 52.7714 34.1957 52.8411 34.2064C52.8761 34.2121 52.9169 34.217 52.9602 34.2256C53.003 34.2366 53.0486 34.2483 53.0942 34.26C53.185 34.2849 53.2776 34.3038 53.3441 34.3277C53.4104 34.352 53.4547 34.3682 53.4547 34.3682Z" fill="black"/>
<path fill-rule="evenodd" clip-rule="evenodd" d="M53.4795 34.7286C53.4795 34.7286 53.5211 34.7401 53.5783 34.7703C53.6363 34.7983 53.7136 34.8355 53.7911 34.8728C53.8687 34.9096 53.9389 34.9602 53.995 34.9918C54.0501 35.0252 54.0869 35.0475 54.0869 35.0475L54.1882 34.8945C54.1882 34.8945 54.1494 34.871 54.0915 34.8359C54.0324 34.8024 53.9583 34.7495 53.8766 34.7105C53.795 34.6713 53.7135 34.632 53.6523 34.6025C53.5921 34.571 53.5482 34.5586 53.5482 34.5586L53.4795 34.7286Z" fill="black"/>
<path fill-rule="evenodd" clip-rule="evenodd" d="M54.2687 34.7722L54.3698 34.6194C54.3698 34.6194 54.3278 34.5936 54.2645 34.5551C54.2002 34.5184 54.1189 34.4614 54.0299 34.4186C53.9409 34.3757 53.8519 34.3328 53.7851 34.3007C53.7192 34.2666 53.6715 34.2527 53.6715 34.2527L53.6028 34.4227C53.6028 34.4227 53.6484 34.4357 53.7112 34.4684C53.7747 34.499 53.8596 34.5399 53.9445 34.5808C54.0295 34.6214 54.1068 34.6762 54.1681 34.7111C54.2284 34.7478 54.2687 34.7722 54.2687 34.7722Z" fill="black"/>
<path fill-rule="evenodd" clip-rule="evenodd" d="M54.2041 35.1314C54.2041 35.1314 54.2385 35.1571 54.2901 35.1958C54.3159 35.215 54.3461 35.2374 54.3784 35.2615C54.4083 35.2886 54.44 35.3176 54.4719 35.3465C54.5345 35.4053 54.6013 35.4599 54.6449 35.5074C54.6883 35.5552 54.717 35.587 54.717 35.587L54.8518 35.4626C54.8518 35.4626 54.8214 35.4291 54.7756 35.3789C54.7297 35.3289 54.6595 35.2712 54.5936 35.2093C54.56 35.179 54.5265 35.1485 54.4951 35.12C54.4611 35.0946 54.4294 35.0709 54.4021 35.0506C54.3478 35.01 54.3116 34.9829 54.3116 34.9829L54.2041 35.1314Z" fill="black"/>
<path fill-rule="evenodd" clip-rule="evenodd" d="M54.9594 35.3632L55.0941 35.2388C55.0941 35.2388 55.0608 35.2023 55.0109 35.1476C54.9607 35.0932 54.8847 35.0299 54.8126 34.9625C54.7759 34.9294 54.7393 34.8964 54.7049 34.8654C54.6679 34.8376 54.6334 34.8117 54.6038 34.7894C54.5445 34.7451 54.505 34.7156 54.505 34.7156L54.3975 34.8641C54.3975 34.8641 54.4352 34.8922 54.4918 34.9346C54.5199 34.9557 54.553 34.9804 54.5884 35.0069C54.6211 35.0365 54.6559 35.068 54.6909 35.0996C54.7596 35.164 54.8323 35.2242 54.8803 35.2761C54.9277 35.3283 54.9594 35.3632 54.9594 35.3632Z" fill="black"/>
<path fill-rule="evenodd" clip-rule="evenodd" d="M54.8142 35.6938C54.8142 35.6938 54.8453 35.7239 54.8822 35.777C54.9208 35.8286 54.9722 35.8974 55.0238 35.9662C55.0741 36.0358 55.1143 36.1122 55.1492 36.1664C55.1827 36.2214 55.2051 36.2581 55.2051 36.2581L55.3656 36.1694C55.3656 36.1694 55.3421 36.1307 55.3068 36.0727C55.2702 36.0157 55.2277 35.9353 55.1747 35.862C55.1205 35.7895 55.0663 35.717 55.0256 35.6627C54.9866 35.6069 54.954 35.5752 54.954 35.5752L54.8142 35.6938Z" fill="black"/>
<path fill-rule="evenodd" clip-rule="evenodd" d="M55.4943 36.0985L55.6547 36.0099C55.6547 36.0099 55.6293 35.9676 55.5909 35.9042C55.5511 35.8419 55.5041 35.7545 55.4465 35.6745C55.3874 35.5954 55.3283 35.5163 55.2839 35.457C55.2411 35.3965 55.2058 35.3616 55.2058 35.3616L55.0662 35.4802C55.0662 35.4802 55.0998 35.5134 55.1405 35.5713C55.1829 35.6278 55.2393 35.7033 55.2956 35.7787C55.3507 35.8549 55.3952 35.9384 55.4332 35.9979C55.4699 36.0582 55.4943 36.0985 55.4943 36.0985Z" fill="black"/>
<path fill-rule="evenodd" clip-rule="evenodd" d="M55.2698 36.3871C55.2698 36.3871 55.2884 36.4258 55.3164 36.4838C55.3303 36.5128 55.3466 36.5467 55.3641 36.583C55.3779 36.6209 55.3926 36.6612 55.4072 36.7016C55.4354 36.7827 55.4693 36.8619 55.4857 36.9242C55.5017 36.9866 55.5124 37.0282 55.5124 37.0282L55.6895 36.9808C55.6895 36.9808 55.6782 36.937 55.6614 36.8712C55.6439 36.8056 55.6085 36.722 55.5787 36.6366C55.5632 36.5941 55.5476 36.5516 55.5331 36.5117C55.5147 36.4735 55.4977 36.4378 55.483 36.4072C55.4536 36.346 55.4339 36.3053 55.4339 36.3053L55.2698 36.3871Z" fill="black"/>
<path fill-rule="evenodd" clip-rule="evenodd" d="M55.8309 36.9429L56.0081 36.8954C56.0081 36.8954 55.9956 36.8477 55.9771 36.7759C55.9579 36.7044 55.9198 36.6129 55.8871 36.5197C55.87 36.4733 55.853 36.427 55.837 36.3836C55.817 36.3417 55.7985 36.3027 55.7827 36.2693C55.7505 36.2025 55.729 36.158 55.729 36.158L55.5649 36.2399C55.5649 36.2399 55.5854 36.2823 55.616 36.3459C55.6313 36.3778 55.6491 36.415 55.668 36.4548C55.6833 36.4962 55.6994 36.5404 55.7156 36.5847C55.7467 36.6735 55.7834 36.7606 55.8016 36.8288C55.8192 36.8973 55.8309 36.9429 55.8309 36.9429Z" fill="black"/>
<path fill-rule="evenodd" clip-rule="evenodd" d="M55.5486 37.168C55.5486 37.168 55.5512 37.1784 55.556 37.1966C55.5618 37.2145 55.5665 37.2409 55.5707 37.273C55.5804 37.3367 55.5933 37.4216 55.6063 37.5065C55.6235 37.591 55.618 37.678 55.6243 37.7421C55.6275 37.8065 55.6297 37.8494 55.6297 37.8494L55.8131 37.8457C55.8131 37.8457 55.8109 37.8006 55.8075 37.7327C55.801 37.6652 55.8061 37.5738 55.7884 37.4847C55.7747 37.3953 55.7611 37.3058 55.7507 37.2387C55.7463 37.205 55.7413 37.1772 55.7353 37.1583C55.7305 37.1391 55.7276 37.1281 55.7276 37.1281L55.5486 37.168Z" fill="black"/>
<path fill-rule="evenodd" clip-rule="evenodd" d="M55.9594 37.8427L56.1427 37.8389C56.1427 37.8389 56.1402 37.7897 56.1367 37.7158C56.1298 37.6421 56.1344 37.5427 56.1156 37.4454C56.1007 37.3478 56.0859 37.2501 56.0746 37.1769C56.0696 37.1402 56.0639 37.1099 56.0577 37.0891C56.0524 37.0682 56.0493 37.0563 56.0493 37.0563L55.8704 37.0961C55.8704 37.0961 55.8733 37.1075 55.8784 37.1275C55.8844 37.1472 55.8898 37.1761 55.8945 37.2112C55.9052 37.281 55.9194 37.3741 55.9336 37.4672C55.9518 37.5599 55.9469 37.6549 55.9534 37.7251C55.957 37.7956 55.9594 37.8427 55.9594 37.8427Z" fill="black"/>
<path fill-rule="evenodd" clip-rule="evenodd" d="M64.0712 37.9937C64.0712 37.9937 64.0689 38.0367 64.0657 38.101C64.0593 38.1651 64.0649 38.2522 64.0473 38.3366C64.0343 38.4215 64.0214 38.5064 64.0116 38.5701C64.0079 38.6022 64.0023 38.6284 63.9967 38.6464C63.9919 38.6646 63.9893 38.675 63.9893 38.675L64.1682 38.7151C64.1682 38.7151 64.171 38.7041 64.176 38.6849C64.1818 38.666 64.1877 38.6383 64.1917 38.6046C64.2021 38.5375 64.2157 38.448 64.2293 38.3585C64.2476 38.2696 64.2424 38.1781 64.2487 38.1106C64.2521 38.0428 64.2545 37.9976 64.2545 37.9976L64.0712 37.9937Z" fill="black"/>
<path fill-rule="evenodd" clip-rule="evenodd" d="M64.3115 38.7472L64.4904 38.7872C64.4904 38.7872 64.4935 38.7752 64.4989 38.7543C64.5051 38.7335 64.5115 38.7034 64.5162 38.6666C64.5273 38.5934 64.5423 38.4958 64.5572 38.3981C64.5765 38.3009 64.5717 38.2015 64.5786 38.1278C64.5823 38.0539 64.5846 38.0047 64.5846 38.0047L64.4014 38.0007C64.4014 38.0007 64.3991 38.0477 64.3955 38.1183C64.389 38.1885 64.3939 38.2835 64.3752 38.3762C64.361 38.4693 64.3468 38.5624 64.3361 38.6322C64.3317 38.6673 64.3256 38.696 64.3197 38.7158C64.3145 38.7358 64.3115 38.7472 64.3115 38.7472Z" fill="black"/>
<path fill-rule="evenodd" clip-rule="evenodd" d="M63.9536 38.8148C63.9536 38.8148 63.943 38.8564 63.927 38.9188C63.9099 38.9809 63.8763 39.0603 63.8482 39.1413C63.8334 39.1816 63.8187 39.222 63.8051 39.2599C63.7875 39.2961 63.771 39.3299 63.7571 39.3589C63.7291 39.417 63.7104 39.4557 63.7104 39.4557L63.8744 39.5377C63.8744 39.5377 63.8941 39.4969 63.9236 39.4357C63.9382 39.4052 63.9556 39.3695 63.9739 39.3313C63.9884 39.2914 64.004 39.2489 64.0195 39.2065C64.0495 39.1211 64.0844 39.0373 64.1025 38.972C64.1194 38.9062 64.1306 38.8624 64.1306 38.8624L63.9536 38.8148Z" fill="black"/>
<path fill-rule="evenodd" clip-rule="evenodd" d="M64.0054 39.6031L64.1693 39.6851C64.1693 39.6851 64.1908 39.6406 64.2229 39.5739C64.2389 39.5405 64.2576 39.5015 64.2776 39.4597C64.2936 39.4163 64.3106 39.3699 64.3278 39.3236C64.3605 39.2305 64.3981 39.1388 64.4181 39.0675C64.4367 38.9958 64.4491 38.948 64.4491 38.948L64.272 38.9003C64.272 38.9003 64.2603 38.946 64.2426 39.0144C64.2237 39.0824 64.1875 39.1697 64.1563 39.2585C64.1401 39.3027 64.1239 39.3469 64.1087 39.3883C64.0896 39.4281 64.0717 39.4653 64.0565 39.4971C64.0258 39.5607 64.0054 39.6031 64.0054 39.6031Z" fill="black"/>
<path fill-rule="evenodd" clip-rule="evenodd" d="M63.6453 39.5845C63.6453 39.5845 63.623 39.6212 63.5894 39.6762C63.5544 39.7302 63.5147 39.807 63.4638 39.8761C63.4122 39.945 63.3607 40.0138 63.3222 40.0654C63.2853 40.1185 63.2539 40.1483 63.2539 40.1483L63.3936 40.2672C63.3936 40.2672 63.4264 40.2356 63.4654 40.1799C63.5061 40.1255 63.5603 40.053 63.6145 39.9805C63.6682 39.9076 63.7102 39.827 63.7469 39.77C63.7822 39.712 63.8057 39.6733 63.8057 39.6733L63.6453 39.5845Z" fill="black"/>
<path fill-rule="evenodd" clip-rule="evenodd" d="M63.5054 40.3623L63.645 40.4811C63.645 40.4811 63.6806 40.4465 63.7234 40.3859C63.7677 40.3266 63.8268 40.2475 63.886 40.1685C63.9442 40.0888 63.9907 40.0012 64.0307 39.9389C64.0691 39.8755 64.0945 39.8333 64.0945 39.8333L63.9341 39.7445C63.9341 39.7445 63.9097 39.7848 63.8731 39.8452C63.8349 39.9045 63.7909 39.9882 63.7352 40.0641C63.6788 40.1395 63.6224 40.215 63.5802 40.2715C63.5394 40.3295 63.5054 40.3623 63.5054 40.3623Z" fill="black"/>
<path fill-rule="evenodd" clip-rule="evenodd" d="M63.1568 40.2551C63.1568 40.2551 63.1279 40.287 63.0847 40.3348C63.0405 40.3818 62.974 40.4367 62.9114 40.4955C62.8794 40.5243 62.8475 40.5532 62.8176 40.5802C62.7853 40.6043 62.7551 40.6267 62.7294 40.646C62.6777 40.6846 62.6433 40.7103 62.6433 40.7103L62.7507 40.8589C62.7507 40.8589 62.787 40.8319 62.8413 40.7912C62.8684 40.7709 62.9001 40.7472 62.9342 40.7218C62.9657 40.6934 62.9994 40.6631 63.0328 40.6327C63.099 40.571 63.1688 40.513 63.2153 40.4635C63.2609 40.4132 63.2913 40.3797 63.2913 40.3797L63.1568 40.2551Z" fill="black"/>
<path fill-rule="evenodd" clip-rule="evenodd" d="M62.8364 40.9779L62.9438 41.1266C62.9438 41.1266 62.9833 41.097 63.0426 41.0527C63.0722 41.0304 63.1069 41.0045 63.1437 40.9767C63.1782 40.9458 63.215 40.9128 63.2517 40.8798C63.3238 40.8127 63.3997 40.7489 63.4503 40.6951C63.5002 40.6404 63.5334 40.6039 63.5334 40.6039L63.3989 40.4794C63.3989 40.4794 63.3672 40.5142 63.3197 40.5665C63.2714 40.6178 63.199 40.6785 63.1301 40.7426C63.0952 40.7741 63.0601 40.8056 63.0273 40.8351C62.9919 40.8616 62.9591 40.8863 62.9308 40.9074C62.8742 40.9497 62.8364 40.9779 62.8364 40.9779Z" fill="black"/>
<path fill-rule="evenodd" clip-rule="evenodd" d="M62.5254 40.7941C62.5254 40.7941 62.4887 40.8163 62.4336 40.8497C62.3774 40.8811 62.3074 40.9322 62.2295 40.9684C62.152 41.0057 62.0747 41.043 62.0167 41.071C61.9878 41.0854 61.9635 41.0968 61.9454 41.1023C61.9278 41.1086 61.9177 41.1123 61.9177 41.1123L61.9863 41.2823C61.9863 41.2823 61.997 41.2785 62.0155 41.2717C62.0344 41.2659 62.0601 41.2539 62.0906 41.2388C62.1516 41.2093 62.2332 41.17 62.3146 41.1308C62.3968 41.0924 62.4706 41.0391 62.5297 41.0058C62.5877 40.9706 62.6264 40.9471 62.6264 40.9471L62.5254 40.7941Z" fill="black"/>
<path fill-rule="evenodd" clip-rule="evenodd" d="M62.0415 41.4184L62.1101 41.5884C62.1101 41.5884 62.1216 41.5842 62.1419 41.5767C62.1627 41.5702 62.1906 41.5573 62.2238 41.5408C62.2906 41.5087 62.3796 41.4658 62.4686 41.4229C62.5579 41.3807 62.639 41.3232 62.7032 41.2867C62.7665 41.2482 62.8087 41.2225 62.8087 41.2225L62.7077 41.0695C62.7077 41.0695 62.6674 41.094 62.6071 41.1306C62.5456 41.1654 62.4686 41.2206 62.3833 41.2606C62.2985 41.3015 62.2136 41.3423 62.1499 41.373C62.1184 41.3887 62.0917 41.4011 62.0719 41.4072C62.0526 41.4144 62.0415 41.4184 62.0415 41.4184Z" fill="black"/>
<path fill-rule="evenodd" clip-rule="evenodd" d="M61.7827 41.1618C61.7827 41.1618 61.7424 41.1767 61.682 41.1989C61.6212 41.2203 61.5368 41.2375 61.454 41.2601C61.4124 41.2709 61.3708 41.2817 61.3318 41.2918C61.2922 41.298 61.255 41.3038 61.2231 41.3087C61.1594 41.3184 61.1169 41.3249 61.1169 41.3249L61.1426 41.5065C61.1426 41.5065 61.1873 41.4996 61.2544 41.4895C61.2879 41.4841 61.327 41.478 61.3689 41.4714C61.41 41.4608 61.4539 41.4495 61.4976 41.4383C61.585 41.4144 61.6738 41.396 61.7378 41.3736C61.8016 41.3502 61.844 41.3346 61.844 41.3346L61.7827 41.1618Z" fill="black"/>
<path fill-rule="evenodd" clip-rule="evenodd" d="M61.1626 41.6517L61.1882 41.8333C61.1882 41.8333 61.2371 41.8258 61.3103 41.8146C61.3468 41.8087 61.3895 41.802 61.4353 41.7946C61.4801 41.7832 61.528 41.7709 61.5758 41.7587C61.6712 41.733 61.768 41.7122 61.838 41.6879C61.9076 41.6625 61.9539 41.6456 61.9539 41.6456L61.8928 41.4729C61.8928 41.4729 61.8485 41.489 61.7821 41.5133C61.7155 41.5365 61.6231 41.556 61.5321 41.5807C61.4865 41.5924 61.4409 41.6041 61.3981 41.6151C61.3545 41.622 61.3138 41.6284 61.279 41.6339C61.2093 41.6446 61.1626 41.6517 61.1626 41.6517Z" fill="black"/>
<path fill-rule="evenodd" clip-rule="evenodd" d="M60.974 41.3459C60.974 41.3459 60.8022 41.3545 60.6304 41.3631C60.4586 41.3544 60.2868 41.3457 60.2868 41.3457L60.2686 41.5282C60.2686 41.5282 60.4494 41.5373 60.6302 41.5464C60.8111 41.5374 60.9919 41.5283 60.9919 41.5283L60.974 41.3459Z" fill="black"/>
<path fill-rule="evenodd" clip-rule="evenodd" d="M60.2541 41.674L60.2358 41.8565C60.2358 41.8565 60.433 41.8664 60.6301 41.8763C60.8272 41.8665 61.0242 41.8567 61.0242 41.8567L61.0063 41.6743C61.0063 41.6743 60.8182 41.6836 60.6301 41.6931C60.4421 41.6835 60.2541 41.674 60.2541 41.674Z" fill="black"/>
<path fill-rule="evenodd" clip-rule="evenodd" d="M60.144 41.3244C60.144 41.3244 60.1017 41.318 60.038 41.3082C60.0061 41.303 59.9687 41.2988 59.9293 41.291C59.8903 41.2809 59.8487 41.2701 59.8071 41.2594C59.7245 41.2364 59.6397 41.2198 59.5792 41.1978C59.5187 41.1755 59.4785 41.1607 59.4785 41.1607L59.417 41.3335C59.417 41.3335 59.4595 41.349 59.5232 41.3724C59.587 41.3955 59.676 41.4134 59.7633 41.4374C59.8071 41.4487 59.8509 41.46 59.892 41.4706C59.9336 41.4788 59.973 41.4834 60.0064 41.4889C60.0735 41.4992 60.1183 41.506 60.1183 41.506L60.144 41.3244Z" fill="black"/>
<path fill-rule="evenodd" clip-rule="evenodd" d="M59.3679 41.4715L59.3064 41.6442C59.3064 41.6442 59.3528 41.6611 59.4224 41.6865C59.4921 41.7115 59.5891 41.7317 59.6845 41.7577C59.7323 41.7699 59.7802 41.7821 59.8251 41.7936C59.8704 41.8026 59.9133 41.8078 59.9499 41.8139C60.0231 41.8251 60.0719 41.8326 60.0719 41.8326L60.0977 41.651C60.0977 41.651 60.0512 41.6439 59.9813 41.6333C59.9465 41.6276 59.9055 41.6226 59.8622 41.6141C59.8196 41.6031 59.7738 41.5914 59.7282 41.5796C59.6376 41.5548 59.5448 41.5359 59.4785 41.5119C59.4121 41.4877 59.3679 41.4715 59.3679 41.4715Z" fill="black"/>
<path fill-rule="evenodd" clip-rule="evenodd" d="M59.3427 41.1113C59.3427 41.1113 59.3009 41.0998 59.2439 41.0696C59.1859 41.0416 59.1084 41.0043 59.0311 40.967C58.9533 40.9303 58.8831 40.8796 58.8272 40.848C58.7719 40.8147 58.7352 40.7924 58.7352 40.7924L58.634 40.9454C58.634 40.9454 58.6727 40.9688 58.7307 41.004C58.7897 41.0375 58.8639 41.0903 58.9456 41.1293C59.0271 41.1686 59.1087 41.2078 59.1699 41.2373C59.2302 41.2689 59.274 41.2812 59.274 41.2812L59.3427 41.1113Z" fill="black"/>
<path fill-rule="evenodd" clip-rule="evenodd" d="M58.5535 41.0675L58.4521 41.2204C58.4521 41.2204 58.4944 41.2461 58.5576 41.2846C58.6219 41.3213 58.7032 41.3784 58.7922 41.4211C58.8812 41.464 58.9702 41.5069 59.0369 41.539C59.1028 41.5732 59.1505 41.587 59.1505 41.587L59.2192 41.4171C59.2192 41.4171 59.1737 41.404 59.1109 41.3713C59.0472 41.3406 58.9624 41.2998 58.8777 41.2589C58.7926 41.2183 58.7153 41.1635 58.654 41.1286C58.5936 41.0919 58.5535 41.0675 58.5535 41.0675Z" fill="black"/>
<path fill-rule="evenodd" clip-rule="evenodd" d="M58.6176 40.7083C58.6176 40.7083 58.5831 40.6826 58.5316 40.644C58.5057 40.6248 58.4754 40.6023 58.4432 40.5783C58.4134 40.5511 58.3815 40.5222 58.3499 40.4933C58.2872 40.4344 58.2203 40.3799 58.1767 40.3324C58.1335 40.2845 58.1046 40.2527 58.1046 40.2527L57.97 40.3771C57.97 40.3771 58.0003 40.4106 58.0459 40.4609C58.0919 40.5108 58.1621 40.5685 58.2281 40.6304C58.2616 40.6608 58.2952 40.6912 58.3266 40.7198C58.3605 40.7451 58.3924 40.7688 58.4195 40.7891C58.4738 40.8298 58.5101 40.8569 58.5101 40.8569L58.6176 40.7083Z" fill="black"/>
<path fill-rule="evenodd" clip-rule="evenodd" d="M57.8624 40.4766L57.7278 40.601C57.7278 40.601 57.761 40.6374 57.8109 40.6922C57.8611 40.7465 57.9372 40.8099 58.0093 40.8772C58.0459 40.9103 58.0826 40.9434 58.117 40.9744C58.1539 41.0021 58.1885 41.0281 58.2182 41.0503C58.2774 41.0946 58.3169 41.1242 58.3169 41.1242L58.4245 40.9757C58.4245 40.9757 58.3867 40.9475 58.3301 40.9052C58.3018 40.884 58.2688 40.8594 58.2336 40.8329C58.2008 40.8032 58.1659 40.7716 58.1311 40.7401C58.0623 40.6758 57.9895 40.6156 57.9416 40.5637C57.8941 40.5114 57.8624 40.4766 57.8624 40.4766Z" fill="black"/>
<path fill-rule="evenodd" clip-rule="evenodd" d="M58.0077 40.1459C58.0077 40.1459 57.9767 40.1158 57.9399 40.0629C57.9012 40.0112 57.8497 39.9424 57.7983 39.8736C57.7478 39.804 57.7076 39.7275 57.6728 39.6734C57.6392 39.6184 57.6168 39.5817 57.6168 39.5817L57.4563 39.6704C57.4563 39.6704 57.4799 39.7091 57.5151 39.767C57.5518 39.8241 57.5943 39.9045 57.6474 39.9777C57.7016 40.0503 57.7558 40.1227 57.7965 40.1771C57.8354 40.2328 57.868 40.2646 57.868 40.2646L58.0077 40.1459Z" fill="black"/>
<path fill-rule="evenodd" clip-rule="evenodd" d="M57.328 39.7412L57.1675 39.8298C57.1675 39.8298 57.1931 39.872 57.2315 39.9354C57.2712 39.9978 57.3181 40.0852 57.3759 40.1652C57.435 40.2442 57.494 40.3233 57.5383 40.3826C57.5813 40.4431 57.6164 40.478 57.6164 40.478L57.7562 40.3594C57.7562 40.3594 57.7224 40.3262 57.6817 40.2684C57.6395 40.2118 57.5831 40.1364 57.5266 40.061C57.4715 39.9847 57.4271 39.9012 57.389 39.8418C57.3525 39.7814 57.328 39.7412 57.328 39.7412Z" fill="black"/>
<path fill-rule="evenodd" clip-rule="evenodd" d="M57.5524 39.4526C57.5524 39.4526 57.5337 39.4139 57.5059 39.3559C57.4918 39.3268 57.4757 39.293 57.4582 39.2567C57.4444 39.2189 57.4298 39.1785 57.4151 39.1381C57.387 39.0571 57.3529 38.9778 57.3365 38.9156C57.3206 38.8531 57.3099 38.8115 57.3099 38.8115L57.1328 38.8589C57.1328 38.8589 57.1441 38.9028 57.161 38.9685C57.1784 39.0341 57.2138 39.1177 57.2436 39.2031C57.2591 39.2456 57.2747 39.2881 57.2892 39.3279C57.3076 39.3662 57.3246 39.4019 57.3393 39.4325C57.3687 39.4937 57.3883 39.5345 57.3883 39.5345L57.5524 39.4526Z" fill="black"/>
<path fill-rule="evenodd" clip-rule="evenodd" d="M56.9911 38.8969L56.814 38.9443C56.814 38.9443 56.8263 38.9922 56.8449 39.0639C56.8642 39.1354 56.9022 39.2269 56.935 39.3201C56.952 39.3664 56.969 39.4128 56.985 39.4562C57.0049 39.498 57.0234 39.5371 57.0394 39.5705C57.0715 39.6373 57.093 39.6818 57.093 39.6818L57.2569 39.6C57.2569 39.6 57.2365 39.5575 57.2058 39.4939C57.1907 39.462 57.173 39.4248 57.154 39.385C57.1388 39.3436 57.1226 39.2994 57.1063 39.2551C57.0752 39.1662 57.0386 39.0791 57.0204 39.0109C57.0028 38.9425 56.9911 38.8969 56.9911 38.8969Z" fill="black"/>
<path fill-rule="evenodd" clip-rule="evenodd" d="M57.2735 38.6718C57.2735 38.6718 57.2709 38.6613 57.2661 38.6432C57.2605 38.6252 57.2556 38.5988 57.2515 38.5668C57.2419 38.5031 57.2288 38.4182 57.2159 38.3332C57.1988 38.2487 57.2042 38.1618 57.198 38.0977C57.1946 38.0333 57.1924 37.9903 57.1924 37.9903L57.009 37.9941C57.009 37.9941 57.0114 38.0392 57.0148 38.107C57.0212 38.1746 57.0161 38.266 57.0339 38.355C57.0475 38.4445 57.0612 38.5339 57.0714 38.601C57.0758 38.6348 57.081 38.6626 57.0869 38.6815C57.0918 38.7007 57.0946 38.7116 57.0946 38.7116L57.2735 38.6718Z" fill="black"/>
<path fill-rule="evenodd" clip-rule="evenodd" d="M56.8626 37.997L56.6794 38.0007C56.6794 38.0007 56.6818 38.0499 56.6855 38.1239C56.6922 38.1975 56.6877 38.297 56.7064 38.3942C56.7214 38.4919 56.7363 38.5895 56.7474 38.6627C56.7525 38.6994 56.7581 38.7298 56.7645 38.7505C56.7698 38.7714 56.7727 38.7834 56.7727 38.7834L56.9518 38.7435C56.9518 38.7435 56.9488 38.7321 56.9437 38.7122C56.9376 38.6924 56.9323 38.6635 56.9275 38.6285C56.9169 38.5586 56.9028 38.4655 56.8886 38.3725C56.8704 38.2797 56.8751 38.1847 56.8686 38.1145C56.865 38.044 56.8626 37.997 56.8626 37.997Z" fill="black"/>
<path fill-rule="evenodd" clip-rule="evenodd" d="M57.1925 37.8459C57.1925 37.8459 57.1947 37.803 57.1981 37.7386C57.2043 37.6745 57.1987 37.5875 57.2165 37.5031C57.2294 37.4181 57.2422 37.3332 57.252 37.2695C57.2559 37.2374 57.2613 37.2112 57.267 37.1932C57.2717 37.175 57.2744 37.1647 57.2744 37.1647L57.0955 37.1246C57.0955 37.1246 57.0927 37.1355 57.0878 37.1547C57.0818 37.1737 57.0761 37.2013 57.0719 37.2351C57.0617 37.3022 57.0479 37.3916 57.0343 37.4811C57.0161 37.5701 57.0214 37.6616 57.0149 37.729C57.0115 37.7969 57.0093 37.8421 57.0093 37.8421L57.1925 37.8459Z" fill="black"/>
<path fill-rule="evenodd" clip-rule="evenodd" d="M56.9528 37.0926L56.7739 37.0525C56.7739 37.0525 56.7708 37.0645 56.7654 37.0854C56.7592 37.1062 56.7529 37.1364 56.7481 37.1731C56.737 37.2464 56.722 37.344 56.7071 37.4416C56.6878 37.5389 56.6926 37.6383 56.6858 37.7119C56.6822 37.7858 56.6797 37.8351 56.6797 37.8351L56.863 37.839C56.863 37.839 56.8654 37.792 56.869 37.7215C56.8755 37.6513 56.8704 37.5563 56.8891 37.4636C56.9033 37.3705 56.9175 37.2774 56.9282 37.2076C56.9326 37.1725 56.9387 37.1437 56.9448 37.1239C56.9498 37.104 56.9528 37.0926 56.9528 37.0926Z" fill="black"/>
<path fill-rule="evenodd" clip-rule="evenodd" d="M57.3109 37.025C57.3109 37.025 57.3214 36.9834 57.3374 36.9209C57.3546 36.8589 57.3881 36.7795 57.4164 36.6984C57.431 36.6581 57.4457 36.6177 57.4595 36.5799C57.4769 36.5436 57.4934 36.5098 57.5075 36.4808C57.5354 36.4228 57.554 36.3841 57.554 36.3841L57.39 36.3021C57.39 36.3021 57.3703 36.3429 57.3408 36.404C57.3262 36.4346 57.309 36.4702 57.2905 36.5085C57.276 36.5483 57.2604 36.5908 57.2449 36.6333C57.2149 36.7186 57.18 36.8025 57.1619 36.8678C57.145 36.9335 57.1338 36.9773 57.1338 36.9773L57.3109 37.025Z" fill="black"/>
<path fill-rule="evenodd" clip-rule="evenodd" d="M57.2584 36.2364L57.0945 36.1545C57.0945 36.1545 57.073 36.199 57.0409 36.2657C57.0249 36.2991 57.0062 36.3381 56.9862 36.3798C56.9702 36.4233 56.9532 36.4697 56.9361 36.516C56.9033 36.6091 56.8656 36.7008 56.8456 36.7721C56.8271 36.8438 56.8147 36.8917 56.8147 36.8917L56.9918 36.9392C56.9918 36.9392 57.0035 36.8936 57.0212 36.8252C57.0401 36.7572 57.0762 36.67 57.1075 36.5812C57.1236 36.5369 57.1399 36.4927 57.155 36.4513C57.1741 36.4115 57.1921 36.3743 57.2073 36.3425C57.238 36.2789 57.2584 36.2364 57.2584 36.2364Z" fill="black"/>
<path fill-rule="evenodd" clip-rule="evenodd" d="M57.6186 36.2552C57.6186 36.2552 57.641 36.2184 57.6746 36.1634C57.7096 36.1094 57.7493 36.0327 57.8004 35.9635C57.8518 35.8947 57.9033 35.8259 57.942 35.7743C57.9787 35.7211 58.0101 35.6913 58.0101 35.6913L57.8704 35.5725C57.8704 35.5725 57.8375 35.6041 57.7986 35.6598C57.758 35.7141 57.7038 35.7866 57.6496 35.8591C57.596 35.932 57.5538 36.0127 57.517 36.0696C57.4818 36.1277 57.4583 36.1663 57.4583 36.1663L57.6186 36.2552Z" fill="black"/>
<path fill-rule="evenodd" clip-rule="evenodd" d="M57.7588 35.4775L57.6192 35.3587C57.6192 35.3587 57.5836 35.3933 57.5408 35.4539C57.4965 35.5132 57.4374 35.5922 57.3784 35.6713C57.32 35.751 57.2735 35.8386 57.2335 35.9009C57.1953 35.9642 57.1697 36.0065 57.1697 36.0065L57.3301 36.0953C57.3301 36.0953 57.3545 36.0551 57.3911 35.9947C57.4293 35.9353 57.4733 35.8515 57.529 35.7757C57.5854 35.7003 57.6418 35.6248 57.6842 35.5683C57.7248 35.5104 57.7588 35.4775 57.7588 35.4775Z" fill="black"/>
<path fill-rule="evenodd" clip-rule="evenodd" d="M58.1073 35.5844C58.1073 35.5844 58.136 35.5525 58.1794 35.5047C58.2234 35.4577 58.2899 35.4029 58.3527 35.3441C58.3845 35.3153 58.4164 35.2864 58.4463 35.2594C58.4786 35.2353 58.5088 35.2129 58.5346 35.1936C58.5862 35.155 58.6206 35.1293 58.6206 35.1293L58.5132 34.9806C58.5132 34.9806 58.4771 35.0077 58.4227 35.0483C58.3955 35.0686 58.3638 35.0924 58.3297 35.1178C58.2983 35.1462 58.2647 35.1765 58.2311 35.2068C58.1649 35.2686 58.0951 35.3266 58.0486 35.3761C58.003 35.4264 57.9727 35.4598 57.9727 35.4598L58.1073 35.5844Z" fill="black"/>
<path fill-rule="evenodd" clip-rule="evenodd" d="M58.4277 34.8617L58.3203 34.7131C58.3203 34.7131 58.2808 34.7427 58.2215 34.787C58.1919 34.8092 58.1574 34.8352 58.1204 34.8629C58.0859 34.8939 58.0493 34.9268 58.0126 34.9598C57.9403 35.027 57.8646 35.0907 57.8138 35.1445C57.7639 35.1993 57.7307 35.2358 57.7307 35.2358L57.8652 35.3603C57.8652 35.3603 57.8969 35.3255 57.9444 35.2732C57.9927 35.2218 58.0653 35.1612 58.134 35.0971C58.1691 35.0655 58.2041 35.034 58.2368 35.0045C58.2722 34.978 58.3051 34.9533 58.3333 34.9322C58.3899 34.8899 58.4277 34.8617 58.4277 34.8617Z" fill="black"/>
<path fill-rule="evenodd" clip-rule="evenodd" d="M58.7382 35.0457C58.7382 35.0457 58.7749 35.0234 58.83 34.9901C58.8863 34.9586 58.9562 34.9075 59.0341 34.8713C59.1116 34.834 59.189 34.7967 59.247 34.7688C59.2758 34.7543 59.3001 34.743 59.3182 34.7375C59.3358 34.7311 59.346 34.7274 59.346 34.7274L59.2775 34.5573C59.2775 34.5573 59.2668 34.5613 59.2481 34.568C59.2292 34.5739 59.2036 34.5858 59.1732 34.6009C59.112 34.6304 59.0304 34.6697 58.949 34.7089C58.8669 34.7472 58.793 34.8006 58.7339 34.8339C58.6759 34.8691 58.6372 34.8926 58.6372 34.8926L58.7382 35.0457Z" fill="black"/>
<path fill-rule="evenodd" clip-rule="evenodd" d="M59.2223 34.4213L59.1537 34.2513C59.1537 34.2513 59.1421 34.2555 59.1218 34.2631C59.1013 34.2696 59.0731 34.2825 59.0399 34.2989C58.9731 34.3311 58.8843 34.374 58.7953 34.4168C58.7058 34.4589 58.6248 34.5165 58.5605 34.553C58.4973 34.5916 58.4551 34.6172 58.4551 34.6172L58.5561 34.7703C58.5561 34.7703 58.5964 34.7458 58.6566 34.7091C58.7181 34.6743 58.7951 34.6192 58.8804 34.5791C58.9653 34.5383 59.0502 34.4974 59.1138 34.4667C59.1455 34.451 59.1722 34.4386 59.1919 34.4325C59.2113 34.4254 59.2223 34.4213 59.2223 34.4213Z" fill="black"/>
<path fill-rule="evenodd" clip-rule="evenodd" d="M59.4817 34.678C59.4817 34.678 59.522 34.6631 59.5824 34.6408C59.6432 34.6195 59.7277 34.6024 59.8105 34.5796C59.852 34.5689 59.8936 34.5581 59.9326 34.548C59.9724 34.5418 60.0094 34.536 60.0413 34.531C60.1051 34.5214 60.1475 34.5149 60.1475 34.5149L60.1218 34.3333C60.1218 34.3333 60.0771 34.3401 60.01 34.3503C59.9765 34.3556 59.9374 34.3617 59.8955 34.3683C59.8544 34.3789 59.8107 34.3903 59.7668 34.4016C59.6796 34.4254 59.5906 34.4438 59.5266 34.4662C59.4629 34.4895 59.4204 34.5052 59.4204 34.5052L59.4817 34.678Z" fill="black"/>
<path fill-rule="evenodd" clip-rule="evenodd" d="M60.1014 34.188L60.0758 34.0065C60.0758 34.0065 60.0269 34.014 59.9537 34.0251C59.9171 34.031 59.8745 34.0378 59.8289 34.0451C59.784 34.0565 59.736 34.0688 59.6882 34.081C59.5929 34.1068 59.4959 34.1275 59.426 34.1518C59.3564 34.1772 59.3101 34.1941 59.3101 34.1941L59.3714 34.3669C59.3714 34.3669 59.4155 34.3507 59.4819 34.3264C59.5485 34.3032 59.6411 34.2837 59.7319 34.259C59.7775 34.2473 59.8231 34.2357 59.8659 34.2247C59.9094 34.2178 59.9502 34.2113 59.985 34.2058C60.0549 34.1952 60.1014 34.188 60.1014 34.188Z" fill="black"/>
<path fill-rule="evenodd" clip-rule="evenodd" d="M60.2903 34.4938C60.2903 34.4938 60.4621 34.4852 60.6339 34.4766C60.8057 34.4853 60.9775 34.494 60.9775 34.494L60.9956 34.3115C60.9956 34.3115 60.8147 34.3024 60.6339 34.2933C60.4531 34.3023 60.2722 34.3114 60.2722 34.3114L60.2903 34.4938Z" fill="black"/>
<path fill-rule="evenodd" clip-rule="evenodd" d="M61.0099 34.1655L61.0281 33.9831C61.0281 33.9831 60.831 33.9732 60.6338 33.9632C60.4369 33.9731 60.2397 33.9829 60.2397 33.9829L60.2577 34.1653C60.2577 34.1653 60.4458 34.156 60.6338 34.1466C60.8219 34.156 61.0099 34.1655 61.0099 34.1655Z" fill="black"/>
<path fill-rule="evenodd" clip-rule="evenodd" d="M61.1201 34.5154C61.1201 34.5154 61.1626 34.5219 61.2263 34.5316C61.258 34.5368 61.2955 34.541 61.335 34.5489C61.374 34.5589 61.4154 34.5697 61.4571 34.5805C61.5398 34.6034 61.6244 34.62 61.685 34.6421C61.7454 34.6643 61.7857 34.6791 61.7857 34.6791L61.8472 34.5064C61.8472 34.5064 61.8047 34.4908 61.741 34.4675C61.6771 34.4444 61.5881 34.4264 61.5009 34.4024C61.4571 34.3911 61.4132 34.3799 61.3722 34.3693C61.3306 34.361 61.2912 34.3564 61.2577 34.3509C61.1906 34.3407 61.1459 34.3339 61.1459 34.3339L61.1201 34.5154Z" fill="black"/>
<path fill-rule="evenodd" clip-rule="evenodd" d="M61.8961 34.3682L61.9576 34.1955C61.9576 34.1955 61.9112 34.1786 61.8416 34.1532C61.7719 34.1282 61.6749 34.1079 61.5796 34.082C61.5318 34.0697 61.4838 34.0575 61.4389 34.0461C61.3936 34.0371 61.3506 34.0318 61.3141 34.0258C61.2409 34.0146 61.1922 34.0071 61.1922 34.0071L61.1663 34.1886C61.1663 34.1886 61.2129 34.1957 61.2827 34.2064C61.3175 34.2121 61.3585 34.217 61.4017 34.2256C61.4445 34.2366 61.4902 34.2483 61.5358 34.26C61.6266 34.2849 61.7191 34.3038 61.7856 34.3277C61.852 34.352 61.8961 34.3682 61.8961 34.3682Z" fill="black"/>
<path fill-rule="evenodd" clip-rule="evenodd" d="M61.9211 34.7286C61.9211 34.7286 61.9629 34.7401 62.0199 34.7703C62.078 34.7983 62.1554 34.8355 62.2329 34.8728C62.3105 34.9096 62.3807 34.9602 62.4368 34.9918C62.4919 35.0252 62.5287 35.0475 62.5287 35.0475L62.6298 34.8945C62.6298 34.8945 62.5912 34.871 62.5331 34.8359C62.4742 34.8024 62.4 34.7495 62.3182 34.7105C62.2368 34.6713 62.1551 34.632 62.094 34.6025C62.0339 34.571 61.99 34.5586 61.99 34.5586L61.9211 34.7286Z" fill="black"/>
<path fill-rule="evenodd" clip-rule="evenodd" d="M62.711 34.7722L62.8122 34.6194C62.8122 34.6194 62.77 34.5936 62.7067 34.5551C62.6425 34.5184 62.5613 34.4614 62.4722 34.4186C62.3833 34.3757 62.2943 34.3328 62.2275 34.3007C62.1616 34.2666 62.1139 34.2527 62.1139 34.2527L62.0452 34.4227C62.0452 34.4227 62.0906 34.4357 62.1534 34.4684C62.2171 34.499 62.302 34.5399 62.3868 34.5808C62.4717 34.6214 62.549 34.6762 62.6105 34.7111C62.6708 34.7478 62.711 34.7722 62.711 34.7722Z" fill="black"/>
<path fill-rule="evenodd" clip-rule="evenodd" d="M62.646 35.1313C62.646 35.1313 62.6805 35.1571 62.732 35.1957C62.758 35.2149 62.7882 35.2374 62.8205 35.2614C62.8502 35.2886 62.8821 35.3175 62.9139 35.3464C62.9764 35.4053 63.0434 35.4598 63.0869 35.5073C63.1301 35.5551 63.159 35.587 63.159 35.587L63.2938 35.4625C63.2938 35.4625 63.2633 35.429 63.2177 35.3788C63.1718 35.3288 63.1016 35.2712 63.0355 35.2093C63.002 35.1789 62.9686 35.1485 62.9372 35.1199C62.9031 35.0945 62.8714 35.0709 62.8442 35.0506C62.7898 35.0099 62.7535 34.9828 62.7535 34.9828L62.646 35.1313Z" fill="black"/>
<path fill-rule="evenodd" clip-rule="evenodd" d="M63.4015 35.3632L63.5361 35.2388C63.5361 35.2388 63.503 35.2023 63.453 35.1476C63.4028 35.0932 63.3267 35.0299 63.2546 34.9625C63.218 34.9294 63.1814 34.8964 63.1471 34.8654C63.11 34.8376 63.0755 34.8117 63.0459 34.7894C62.9865 34.7451 62.947 34.7156 62.947 34.7156L62.8396 34.8641C62.8396 34.8641 62.8772 34.8922 62.9338 34.9346C62.9621 34.9557 62.9951 34.9804 63.0304 35.0069C63.0631 35.0365 63.098 35.068 63.133 35.0996C63.2017 35.164 63.2744 35.2242 63.3223 35.2761C63.3698 35.3283 63.4015 35.3632 63.4015 35.3632Z" fill="black"/>
<path fill-rule="evenodd" clip-rule="evenodd" d="M63.2563 35.6938C63.2563 35.6938 63.2873 35.7239 63.3242 35.777C63.3628 35.8286 63.4144 35.8974 63.4659 35.9662C63.5163 36.0358 63.5564 36.1122 63.5912 36.1664C63.6248 36.2214 63.6472 36.2581 63.6472 36.2581L63.8077 36.1694C63.8077 36.1694 63.7842 36.1307 63.7489 36.0727C63.7124 36.0157 63.6697 35.9353 63.6167 35.862C63.5625 35.7895 63.5083 35.717 63.4677 35.6627C63.4286 35.6069 63.3962 35.5752 63.3962 35.5752L63.2563 35.6938Z" fill="black"/>
<path fill-rule="evenodd" clip-rule="evenodd" d="M63.9361 36.0985L64.0965 36.0099C64.0965 36.0099 64.0709 35.9676 64.0325 35.9042C63.9929 35.8419 63.9459 35.7545 63.8881 35.6745C63.829 35.5954 63.77 35.5163 63.7257 35.457C63.6827 35.3965 63.6476 35.3616 63.6476 35.3616L63.5078 35.4802C63.5078 35.4802 63.5416 35.5134 63.5823 35.5713C63.6245 35.6278 63.6809 35.7033 63.7374 35.7787C63.7925 35.8549 63.8369 35.9384 63.875 35.9979C63.9117 36.0582 63.9361 36.0985 63.9361 36.0985Z" fill="black"/>
<path fill-rule="evenodd" clip-rule="evenodd" d="M63.7119 36.3871C63.7119 36.3871 63.7306 36.4258 63.7586 36.4838C63.7725 36.5128 63.7888 36.5467 63.8063 36.583C63.8199 36.6209 63.8345 36.6612 63.8492 36.7016C63.8773 36.7827 63.9114 36.8619 63.9279 36.9242C63.9438 36.9866 63.9544 37.0282 63.9544 37.0282L64.1315 36.9808C64.1315 36.9808 64.1202 36.937 64.1034 36.8712C64.086 36.8056 64.0505 36.722 64.0207 36.6366C64.0052 36.5941 63.9898 36.5516 63.9751 36.5117C63.9569 36.4735 63.9397 36.4378 63.925 36.4072C63.8956 36.346 63.876 36.3053 63.876 36.3053L63.7119 36.3871Z" fill="black"/>
<path fill-rule="evenodd" clip-rule="evenodd" d="M64.2731 36.9429L64.4501 36.8954C64.4501 36.8954 64.4378 36.8477 64.4191 36.7759C64.4 36.7044 64.3619 36.6129 64.3292 36.5197C64.312 36.4733 64.295 36.427 64.279 36.3836C64.2592 36.3417 64.2406 36.3027 64.2246 36.2693C64.1925 36.2025 64.1712 36.158 64.1712 36.158L64.0071 36.2399C64.0071 36.2399 64.0275 36.2823 64.0582 36.3459C64.0734 36.3778 64.0911 36.415 64.1102 36.4548C64.1253 36.4962 64.1416 36.5404 64.1577 36.5847C64.1888 36.6735 64.2254 36.7606 64.2436 36.8288C64.2612 36.8973 64.2731 36.9429 64.2731 36.9429Z" fill="black"/>
<path fill-rule="evenodd" clip-rule="evenodd" d="M63.9902 37.168C63.9902 37.168 63.9929 37.1784 63.9976 37.1966C64.0033 37.2145 64.0082 37.2409 64.0123 37.273C64.0219 37.3367 64.035 37.4216 64.0478 37.5065C64.065 37.591 64.0597 37.678 64.0659 37.7421C64.0692 37.8065 64.0714 37.8494 64.0714 37.8494L64.2548 37.8457C64.2548 37.8457 64.2524 37.8006 64.249 37.7327C64.2426 37.6652 64.2476 37.5738 64.23 37.4847C64.2162 37.3953 64.2026 37.3058 64.1924 37.2387C64.188 37.205 64.1829 37.1772 64.177 37.1583C64.172 37.1391 64.1691 37.1281 64.1691 37.1281L63.9902 37.168Z" fill="black"/>
<path fill-rule="evenodd" clip-rule="evenodd" d="M64.4018 37.8427L64.585 37.8389C64.585 37.8389 64.5826 37.7897 64.5789 37.7158C64.5722 37.6421 64.5767 37.5427 64.558 37.4454C64.543 37.3478 64.5281 37.2501 64.517 37.1769C64.5119 37.1402 64.5063 37.1099 64.4999 37.0891C64.4946 37.0682 64.4917 37.0563 64.4917 37.0563L64.3127 37.0961C64.3127 37.0961 64.3156 37.1075 64.3207 37.1275C64.3268 37.1472 64.3322 37.1761 64.3369 37.2112C64.3476 37.281 64.3618 37.3741 64.376 37.4672C64.3942 37.5599 64.3893 37.6549 64.3958 37.7251C64.3994 37.7956 64.4018 37.8427 64.4018 37.8427Z" fill="black"/>
<path d="M3 42.0008H5.9858V33.996H3V42.0008ZM3 30.9108H5.9858V33.1501H3V30.9108Z" fill="black"/>
<path d="M7.72729 34.0032V38.4819C7.72729 39.4535 8.04994 40.283 8.69594 40.97C9.34151 41.6573 10.1915 42.0008 11.2462 42.0008L17.5549 41.9443V38.9987H10.7915V34.0138L7.72729 34.0032ZM17.5549 30.0775V33.1567H7.72729C7.72729 32.0313 7.90792 31.5949 8.45885 30.9846C9.00984 30.3744 9.87989 30.0775 10.9581 30.0775H17.5549Z" fill="black"/>
<path d="M27.4044 33.996C28.1865 33.996 28.7668 34.2067 29.1462 34.6279C29.4777 35.0026 29.6437 35.5292 29.6437 36.2079V42.0008H21.9484C21.0358 42.0008 20.3546 41.7555 19.9046 41.2651C19.5016 40.8214 19.3003 40.2141 19.3003 39.4434C19.3003 38.6845 19.5162 38.0802 19.949 37.6305C20.3813 37.1812 21.0478 36.9561 21.9484 36.9561H25.9116V39.0581H22.2861V39.7938H26.6581V36.2204H19.7268V33.996H27.4044Z" fill="black"/>
<path d="M36.4769 34.0645C37.2588 34.0645 37.8393 34.2706 38.2187 34.6829C38.5502 35.0495 38.7162 35.5648 38.7162 36.2289V36.9503H35.7304V36.2289H34.2199V42.0008H31.2341V34.0645H36.4769Z" fill="black"/>
<path d="M43.7077 30.0775L43.7187 33.996H47.3003V36.2204H43.7187L43.728 39.7615H47.3003V42.0008H43.728H42.9816C42.1996 42.0008 41.619 41.7875 41.2399 41.3609C40.9081 40.9819 40.7422 40.4487 40.7422 39.7615L40.7285 36.2204H39.978V33.996H40.7285L40.7457 30.0775H43.7077Z" fill="black"/>
<path d="M65.9971 30.0775H68.9962L69 42.0008H66.0144L65.9971 30.0775Z" fill="black"/>
<path d="M54.1566 40.0144C53.9853 40.1856 53.7051 40.1856 53.5339 40.0144L49.9675 36.4482C49.7963 36.2769 49.7963 35.9967 49.9675 35.8254C50.1389 35.6541 50.4191 35.6541 50.5903 35.8254L54.1566 39.3917C54.3278 39.5629 54.3278 39.8431 54.1566 40.0144Z" fill="black"/>
<path d="M54.1566 40.0144C53.9853 40.1856 53.7051 40.1856 53.5339 40.0144L49.9675 36.4482C49.7963 36.2769 49.7963 35.9967 49.9675 35.8254C50.1389 35.6541 50.4191 35.6541 50.5903 35.8254L54.1566 39.3917C54.3278 39.5629 54.3278 39.8431 54.1566 40.0144Z" fill="black" stroke="white" stroke-width="3.71182" stroke-miterlimit="10"/>
<path d="M62.7266 40.0144C62.5553 40.1856 62.2751 40.1856 62.1038 40.0144L58.5376 36.4482C58.3664 36.2769 58.3664 35.9967 58.5376 35.8254C58.7088 35.6541 58.9892 35.6541 59.1604 35.8254L62.7266 39.3917C62.8979 39.5629 62.8979 39.8431 62.7266 40.0144Z" fill="black"/>
<path d="M62.7266 40.0144C62.5553 40.1856 62.2751 40.1856 62.1038 40.0144L58.5376 36.4482C58.3664 36.2769 58.3664 35.9967 58.5376 35.8254C58.7088 35.6541 58.9892 35.6541 59.1604 35.8254L62.7266 39.3917C62.8979 39.5629 62.8979 39.8431 62.7266 40.0144Z" fill="black" stroke="white" stroke-width="3.71182" stroke-miterlimit="10"/>
</svg>
