<svg width="72" height="72" viewBox="0 0 72 72" fill="none" xmlns="http://www.w3.org/2000/svg">
<g style="mix-blend-mode:luminosity">
<rect width="72" height="72" fill="white"/>
<path d="M24.1843 37.6421V31.3187H27.1661V37.5252C27.1661 37.9127 27.3187 38.2842 27.5905 38.5581C27.8622 38.8321 28.2308 38.986 28.6151 38.986C28.9994 38.986 29.368 38.8321 29.6397 38.5581C29.9115 38.2842 30.0642 37.9127 30.0642 37.5252V31.3187H33.0459V37.6421C33.0459 39.7586 31.0624 41.4725 28.6151 41.4725C26.1679 41.4725 24.1843 39.7586 24.1843 37.6421Z" fill="#CC3336"/>
<path d="M16.733 39.7304L16.2859 41.1033H13.2922L17.0311 31.3187H19.7072L23.4461 41.1033H20.42L19.9793 39.7304H16.7394H16.733ZM17.381 37.6129H19.2601L18.3141 34.6665L17.381 37.6129Z" fill="#CC3336"/>
<path d="M43.5691 41.1033V31.3187H40.7617V36.7258L37.7838 31.3187H34.7075V41.1033H37.5214V35.6962L40.5649 41.1033H43.5691Z" fill="#CC3336"/>
<path d="M45.0459 36.3077C45.0459 34.3513 46.0267 31.1428 50.0544 31.1428C50.599 31.1075 51.1452 31.1797 51.6618 31.3554C52.1783 31.5311 52.655 31.8069 53.0644 32.1668C53.4739 32.5267 53.8081 32.9637 54.0478 33.4527C54.2875 33.9417 54.428 34.4732 54.4613 35.0165H51.5974C51.5474 34.6074 51.3475 34.2311 51.036 33.9602C50.7246 33.6894 50.3237 33.5429 49.9105 33.5492C48.4589 33.5492 48.0013 35.1143 48.0013 36.3077C48.0013 37.5011 48.4589 39.0662 49.9105 39.0662C51.362 39.0662 51.5974 37.4489 51.5974 37.4489H54.4613C54.4613 37.4489 54.2717 41.4726 50.0544 41.4726C46.0267 41.4726 45.0459 38.2706 45.0459 36.3077Z" fill="#CC3336"/>
<path d="M58.7268 37.1791V41.1033H55.7537V31.3187H58.7268V34.7378H61.6356V31.3187H64.6152V41.1033H61.6356V37.1791H58.7268Z" fill="#CC3336"/>
<path d="M5.53833 41.1033V31.3187H8.57481V38.6361H12.9229V41.1033H5.53833Z" fill="#CC3336"/>
<path d="M67.3843 27.614C67.679 27.614 67.9602 27.6944 68.2147 27.8417C68.4692 27.989 68.6701 28.1899 68.8174 28.4444C68.9647 28.6988 69.0451 28.9801 69.0451 29.2747C69.0451 29.5761 68.9647 29.8506 68.8174 30.1051C68.6701 30.3595 68.4692 30.5671 68.2147 30.7145C67.9602 30.8618 67.679 30.9354 67.3843 30.9354C67.083 30.9354 66.8085 30.8618 66.554 30.7145C66.2995 30.5671 66.0919 30.3595 65.9446 30.1051C65.7973 29.8506 65.7236 29.5761 65.7236 29.2747C65.7236 28.9801 65.7973 28.6988 65.9446 28.4444C66.0919 28.1899 66.2995 27.989 66.554 27.8417C66.8085 27.6944 67.083 27.614 67.3843 27.614ZM67.3843 30.614C67.6254 30.614 67.8464 30.5537 68.054 30.4332C68.2549 30.3127 68.4223 30.152 68.5428 29.9444C68.6634 29.7435 68.7236 29.5158 68.7236 29.2747C68.7236 29.0337 68.6634 28.8127 68.5428 28.6051C68.4223 28.4042 68.2549 28.2368 68.054 28.1162C67.8464 27.9957 67.6254 27.9354 67.3843 27.9354C67.1433 27.9354 66.9156 27.9957 66.7147 28.1162C66.5071 28.2368 66.3464 28.4042 66.2259 28.6051C66.1053 28.8127 66.0451 29.0337 66.0451 29.2747C66.0451 29.5158 66.1053 29.7435 66.2259 29.9444C66.3464 30.152 66.5071 30.3127 66.7147 30.4332C66.9156 30.5537 67.1433 30.614 67.3843 30.614ZM68.121 30.0649C68.1343 30.0917 68.1343 30.1185 68.121 30.1453C68.1076 30.172 68.0808 30.1854 68.054 30.1854H67.766C67.7326 30.1854 67.7125 30.172 67.6991 30.1453L67.3777 29.5426H67.1634V30.1051C67.1634 30.1319 67.15 30.152 67.1366 30.1654C67.1232 30.1787 67.1031 30.1854 67.083 30.1854H66.8218C66.8018 30.1854 66.7817 30.1787 66.7683 30.1654C66.7482 30.152 66.7415 30.1319 66.7415 30.1051V28.4444C66.7415 28.4243 66.7482 28.4042 66.7683 28.3908C66.7817 28.3774 66.8018 28.364 66.8218 28.364H67.3509C67.5785 28.364 67.7527 28.4176 67.8665 28.5113C67.9736 28.6118 68.0339 28.7524 68.0339 28.9332C68.0339 29.0404 68.0071 29.1408 67.9602 29.2279C67.9067 29.3149 67.8464 29.3819 67.766 29.422L67.9335 29.7167C68.0004 29.8506 68.0674 29.9712 68.121 30.0649ZM67.391 29.1676C67.458 29.1676 67.5116 29.1542 67.5518 29.114C67.5852 29.0738 67.6053 29.0203 67.6053 28.9466C67.6053 28.8796 67.5852 28.8261 67.5518 28.7926C67.5116 28.7591 67.4446 28.739 67.3442 28.739H67.1634V29.1676H67.391Z" fill="#CC3336"/>
</g>
</svg>
