<svg width="72" height="72" viewBox="0 0 72 72" fill="none" xmlns="http://www.w3.org/2000/svg">
<g style="mix-blend-mode:luminosity">
<rect width="72" height="72" fill="white"/>
<path d="M20 12H8V24H20V12Z" fill="#6BC6D9"/>
<path d="M32 12H20V24H32V12Z" fill="#7CE5FF"/>
<path d="M20 24H8V36H20V24Z" fill="#D5F6FF"/>
<path d="M32 24H20V36H32V24Z" fill="#0092B2"/>
<path d="M11.3499 44.4233V48.8677H10.3231V45.2314H9.03333V48.8677H8.00655V44.4233H11.3499Z" fill="#0092B2"/>
<path d="M13.5854 45.3532C14.0946 45.3532 14.4932 45.5135 14.7812 45.8342C15.0692 46.1506 15.2132 46.5952 15.2132 47.1682C15.2132 47.5316 15.1464 47.8501 15.0129 48.1237C14.8835 48.3931 14.6956 48.6026 14.4494 48.7522C14.2073 48.9019 13.9193 48.9767 13.5854 48.9767C13.0803 48.9767 12.6817 48.8185 12.3895 48.5021C12.1015 48.1815 11.9575 47.7347 11.9575 47.1617C11.9575 46.7983 12.0222 46.4819 12.1516 46.2126C12.2852 45.939 12.473 45.7273 12.7151 45.5777C12.9614 45.428 13.2515 45.3532 13.5854 45.3532ZM13.5854 46.0972C13.385 46.0972 13.2348 46.1848 13.1346 46.3601C13.0344 46.5311 12.9843 46.7983 12.9843 47.1617C12.9843 47.5337 13.0323 47.8052 13.1283 47.9762C13.2285 48.1472 13.3809 48.2328 13.5854 48.2328C13.7857 48.2328 13.936 48.1472 14.0362 47.9762C14.1363 47.8009 14.1864 47.5316 14.1864 47.1682C14.1864 46.7962 14.1363 46.5247 14.0362 46.3537C13.9402 46.1827 13.7899 46.0972 13.5854 46.0972Z" fill="#0092B2"/>
<path d="M18.5328 45.4622V48.8677H17.5436V46.2062H16.9113L16.8487 46.9309C16.8027 47.4311 16.7485 47.8052 16.6859 48.0532C16.6274 48.2969 16.5231 48.4893 16.3728 48.6304C16.2226 48.7715 15.993 48.8784 15.6841 48.951L15.44 48.2135C15.5777 48.1494 15.6737 48.0831 15.728 48.0147C15.7864 47.942 15.8302 47.8287 15.8594 47.6748C15.8887 47.5166 15.9158 47.2515 15.9408 46.8796L16.041 45.4622H18.5328Z" fill="#0092B2"/>
<path d="M22.235 48.8677H21.2958V47.6556C21.2958 47.4161 21.3084 47.1895 21.3334 46.9758C21.3584 46.762 21.3897 46.5824 21.4273 46.4371L20.3191 48.8677H19.3111V45.4622H20.2565V46.6936C20.2565 46.9202 20.2419 47.1425 20.2127 47.3606C20.1877 47.5786 20.1584 47.7582 20.125 47.8993L21.2207 45.4622H22.235V48.8677Z" fill="#0092B2"/>
<path d="M25.6147 45.4622L25.4957 46.2126H24.5942V48.8677H23.605V46.2126H22.6345V45.4622H25.6147Z" fill="#0092B2"/>
<path d="M27.2443 45.3532C27.7536 45.3532 28.1522 45.5135 28.4402 45.8342C28.7282 46.1506 28.8722 46.5952 28.8722 47.1682C28.8722 47.5316 28.8054 47.8501 28.6718 48.1237C28.5424 48.3931 28.3546 48.6026 28.1083 48.7522C27.8663 48.9019 27.5783 48.9767 27.2443 48.9767C26.7393 48.9767 26.3407 48.8185 26.0485 48.5021C25.7605 48.1815 25.6165 47.7347 25.6165 47.1617C25.6165 46.7983 25.6812 46.4819 25.8106 46.2126C25.9442 45.939 26.132 45.7273 26.3741 45.5777C26.6203 45.428 26.9104 45.3532 27.2443 45.3532ZM27.2443 46.0972C27.044 46.0972 26.8937 46.1848 26.7936 46.3601C26.6934 46.5311 26.6433 46.7983 26.6433 47.1617C26.6433 47.5337 26.6913 47.8052 26.7873 47.9762C26.8875 48.1472 27.0398 48.2328 27.2443 48.2328C27.4447 48.2328 27.5949 48.1472 27.6951 47.9762C27.7953 47.8009 27.8454 47.5316 27.8454 47.1682C27.8454 46.7962 27.7953 46.5247 27.6951 46.3537C27.5991 46.1827 27.4489 46.0972 27.2443 46.0972Z" fill="#0092B2"/>
<path d="M31.2136 45.6995C31.4474 45.6995 31.6582 45.7615 31.846 45.8855C32.038 46.0095 32.1882 46.1912 32.2968 46.4306C32.4053 46.6658 32.4595 46.948 32.4595 47.2772C32.4595 47.6235 32.3949 47.9249 32.2655 48.1815C32.1361 48.438 31.9503 48.6347 31.7082 48.7715C31.4703 48.9083 31.1928 48.9767 30.8755 48.9767C30.3789 48.9767 29.9865 48.8121 29.6985 48.4829C29.4147 48.1494 29.2728 47.6427 29.2728 46.9629C29.2728 46.467 29.3124 46.0608 29.3917 45.7444C29.4752 45.428 29.615 45.1694 29.8112 44.9684C30.0115 44.7632 30.2912 44.6029 30.6502 44.4874C30.9048 44.4062 31.1051 44.3335 31.2512 44.2694C31.3973 44.201 31.5642 44.1112 31.7521 44L32.1089 44.6478C31.9629 44.7461 31.8084 44.8316 31.6456 44.9043C31.487 44.977 31.2846 45.0518 31.0383 45.1288C30.8547 45.1886 30.7086 45.2592 30.6001 45.3404C30.4957 45.4174 30.4122 45.5264 30.3496 45.6675C30.287 45.8043 30.2432 45.9903 30.2182 46.2254C30.4561 45.8748 30.7879 45.6995 31.2136 45.6995ZM30.8693 48.2328C31.0488 48.2328 31.1886 48.1644 31.2888 48.0275C31.3889 47.8864 31.439 47.647 31.439 47.3093C31.439 46.9843 31.3973 46.7599 31.3138 46.6359C31.2303 46.5076 31.103 46.4435 30.9319 46.4435C30.8067 46.4435 30.6877 46.4798 30.575 46.5525C30.4623 46.6209 30.3705 46.7256 30.2995 46.8667V47.3028C30.2995 47.6192 30.3496 47.8544 30.4498 48.0083C30.55 48.1579 30.6898 48.2328 30.8693 48.2328Z" fill="#0092B2"/>
<path d="M34.9278 45.3532C35.3452 45.3532 35.6562 45.5114 35.8607 45.8278C36.0652 46.1442 36.1675 46.5867 36.1675 47.1553C36.1675 47.5059 36.1132 47.8202 36.0047 48.0981C35.9004 48.3717 35.748 48.5876 35.5477 48.7458C35.3473 48.8997 35.1136 48.9767 34.8465 48.9767C34.5125 48.9767 34.2433 48.8591 34.0388 48.624V50.1824L33.0496 50.2914V45.4622H33.9198L33.9699 45.8406C34.0993 45.6739 34.2475 45.552 34.4145 45.4751C34.5814 45.3938 34.7525 45.3532 34.9278 45.3532ZM34.5459 48.2328C34.9425 48.2328 35.1407 47.8779 35.1407 47.1682C35.1407 46.7663 35.0969 46.4884 35.0092 46.3344C34.9216 46.1762 34.7901 46.0972 34.6148 46.0972C34.5021 46.0972 34.3957 46.1314 34.2955 46.1998C34.1995 46.2682 34.1139 46.3665 34.0388 46.4948V47.9313C34.1724 48.1323 34.3414 48.2328 34.5459 48.2328Z" fill="#0092B2"/>
<path d="M39.3663 47.88C39.3663 48.0083 39.383 48.1024 39.4164 48.1622C39.4539 48.2221 39.5124 48.267 39.5917 48.2969L39.385 48.9575C39.1805 48.9404 39.0136 48.8955 38.8842 48.8228C38.7548 48.7458 38.6546 48.6261 38.5837 48.4636C38.3666 48.8057 38.0327 48.9767 37.5819 48.9767C37.2522 48.9767 36.9892 48.8784 36.793 48.6817C36.5969 48.485 36.4988 48.2285 36.4988 47.9121C36.4988 47.5401 36.6324 47.2558 36.8995 47.0591C37.1666 46.8625 37.5527 46.7641 38.0577 46.7641H38.3958V46.6166C38.3958 46.4157 38.3541 46.2789 38.2706 46.2062C38.1871 46.1292 38.041 46.0907 37.8323 46.0907C37.7238 46.0907 37.5924 46.1078 37.4379 46.142C37.2835 46.172 37.1249 46.2147 36.9621 46.2703L36.7367 45.6033C36.9454 45.5221 37.1583 45.4601 37.3753 45.4174C37.5965 45.3746 37.801 45.3532 37.9889 45.3532C38.4647 45.3532 38.8132 45.4537 39.0344 45.6546C39.2557 45.8556 39.3663 46.157 39.3663 46.5589V47.88ZM37.8699 48.252C38.0953 48.252 38.2706 48.143 38.3958 47.9249V47.3221H38.1517C37.9263 47.3221 37.7572 47.3627 37.6445 47.4439C37.536 47.5252 37.4817 47.6513 37.4817 47.8223C37.4817 47.9591 37.5151 48.066 37.5819 48.143C37.6529 48.2157 37.7489 48.252 37.8699 48.252Z" fill="#0092B2"/>
<path d="M41.2123 45.3532C41.5838 45.3532 41.8926 45.4387 42.1389 45.6097C42.3893 45.7765 42.5145 46.0052 42.5145 46.296C42.5145 46.6722 42.2725 46.9245 41.7883 47.0527C42.0846 47.0955 42.3059 47.1853 42.4519 47.3221C42.6022 47.4546 42.6773 47.6427 42.6773 47.8864C42.6773 48.2413 42.5354 48.5128 42.2516 48.7009C41.9719 48.8848 41.6005 48.9767 41.1372 48.9767C40.5987 48.9767 40.1479 48.8399 39.7848 48.5662L40.2481 48.0019C40.3984 48.0959 40.5382 48.1622 40.6676 48.2007C40.797 48.2349 40.9431 48.252 41.1059 48.252C41.4732 48.252 41.6568 48.1109 41.6568 47.8287C41.6568 47.5722 41.4648 47.4439 41.0808 47.4439H40.5612L40.6175 46.7898H41.0057C41.1685 46.7898 41.2937 46.7577 41.3813 46.6936C41.4732 46.6252 41.5191 46.5268 41.5191 46.3986C41.5191 46.2831 41.4773 46.1976 41.3939 46.142C41.3146 46.0822 41.2081 46.0523 41.0746 46.0523C40.9326 46.0523 40.8053 46.0715 40.6926 46.11C40.5799 46.1485 40.4631 46.2062 40.342 46.2831L39.885 45.7508C40.0728 45.6183 40.2732 45.52 40.486 45.4558C40.7031 45.3874 40.9452 45.3532 41.2123 45.3532Z" fill="#0092B2"/>
<path d="M44.6635 45.3532C45.1727 45.3532 45.5713 45.5135 45.8593 45.8342C46.1473 46.1506 46.2913 46.5952 46.2913 47.1682C46.2913 47.5316 46.2245 47.8501 46.091 48.1237C45.9616 48.3931 45.7738 48.6026 45.5275 48.7522C45.2854 48.9019 44.9974 48.9767 44.6635 48.9767C44.1585 48.9767 43.7598 48.8185 43.4677 48.5021C43.1797 48.1815 43.0357 47.7347 43.0357 47.1617C43.0357 46.7983 43.1004 46.4819 43.2298 46.2126C43.3633 45.939 43.5512 45.7273 43.7932 45.5777C44.0395 45.428 44.3296 45.3532 44.6635 45.3532ZM44.6635 46.0972C44.4631 46.0972 44.3129 46.1848 44.2127 46.3601C44.1125 46.5311 44.0625 46.7983 44.0625 47.1617C44.0625 47.5337 44.1105 47.8052 44.2065 47.9762C44.3066 48.1472 44.459 48.2328 44.6635 48.2328C44.8638 48.2328 45.0141 48.1472 45.1143 47.9762C45.2145 47.8009 45.2645 47.5316 45.2645 47.1682C45.2645 46.7962 45.2145 46.5247 45.1143 46.3537C45.0183 46.1827 44.868 46.0972 44.6635 46.0972Z" fill="#0092B2"/>
<path d="M48.9271 46.995C49.4905 47.0634 49.7723 47.3435 49.7723 47.8351C49.7723 48.1815 49.6387 48.4401 49.3716 48.6111C49.1086 48.7822 48.7476 48.8677 48.2884 48.8677H46.8797V45.4943C47.3764 45.4002 47.8147 45.3532 48.1945 45.3532C48.6453 45.3532 48.9959 45.4323 49.2464 45.5905C49.501 45.7444 49.6283 45.9732 49.6283 46.2767C49.6283 46.4691 49.5677 46.6273 49.4467 46.7513C49.3298 46.871 49.1566 46.9523 48.9271 46.995ZM48.1758 46.001C48.0464 46.001 47.9441 46.0052 47.869 46.0138V46.7962H48.2196C48.3573 46.7962 48.4638 46.7641 48.5389 46.7C48.614 46.6316 48.6516 46.529 48.6516 46.3922C48.6516 46.1314 48.493 46.001 48.1758 46.001ZM48.2571 48.2007C48.5911 48.2007 48.758 48.0489 48.758 47.7454C48.758 47.6043 48.7184 47.4995 48.6391 47.4311C48.5597 47.3627 48.4345 47.3285 48.2634 47.3285H47.869V48.2007H48.2571Z" fill="#0092B2"/>
<path d="M52.9457 47.88C52.9457 48.0083 52.9624 48.1024 52.9958 48.1622C53.0334 48.2221 53.0918 48.267 53.1711 48.2969L52.9645 48.9575C52.76 48.9404 52.5931 48.8955 52.4637 48.8228C52.3343 48.7458 52.2341 48.6261 52.1631 48.4636C51.9461 48.8057 51.6122 48.9767 51.1614 48.9767C50.8317 48.9767 50.5687 48.8784 50.3725 48.6817C50.1764 48.485 50.0783 48.2285 50.0783 47.9121C50.0783 47.5401 50.2118 47.2558 50.479 47.0591C50.7461 46.8625 51.1322 46.7641 51.6372 46.7641H51.9753V46.6166C51.9753 46.4157 51.9336 46.2789 51.8501 46.2062C51.7666 46.1292 51.6205 46.0907 51.4118 46.0907C51.3033 46.0907 51.1718 46.1078 51.0174 46.142C50.863 46.172 50.7044 46.2147 50.5416 46.2703L50.3162 45.6033C50.5249 45.5221 50.7377 45.4601 50.9548 45.4174C51.176 45.3746 51.3805 45.3532 51.5684 45.3532C52.0442 45.3532 52.3927 45.4537 52.6139 45.6546C52.8351 45.8556 52.9457 46.157 52.9457 46.5589V47.88ZM51.4494 48.252C51.6748 48.252 51.8501 48.143 51.9753 47.9249V47.3221H51.7311C51.5057 47.3221 51.3367 47.3627 51.224 47.4439C51.1155 47.5252 51.0612 47.6513 51.0612 47.8223C51.0612 47.9591 51.0946 48.066 51.1614 48.143C51.2324 48.2157 51.3284 48.252 51.4494 48.252Z" fill="#0092B2"/>
<path d="M55.637 48.8677V47.5145H54.7229V48.8677H53.7337V45.4622H54.7229V46.7641H55.637V45.4622H56.6262V48.8677H55.637Z" fill="#0092B2"/>
<path d="M60.326 48.8677H59.3869V47.6556C59.3869 47.4161 59.3994 47.1895 59.4244 46.9758C59.4495 46.762 59.4808 46.5824 59.5183 46.4371L58.4102 48.8677H57.4022V45.4622H58.3476V46.6936C58.3476 46.9202 58.3329 47.1425 58.3037 47.3606C58.2787 47.5786 58.2495 47.7582 58.2161 47.8993L59.3117 45.4622H60.326V48.8677Z" fill="#0092B2"/>
<path d="M64 47.0976C64 47.2387 63.9937 47.3606 63.9812 47.4632H61.9214C61.9548 47.7496 62.0341 47.9506 62.1593 48.066C62.2845 48.1815 62.4577 48.2392 62.679 48.2392C62.8125 48.2392 62.9419 48.2157 63.0671 48.1686C63.1923 48.1173 63.328 48.0404 63.4741 47.9377L63.881 48.5021C63.4929 48.8185 63.0609 48.9767 62.585 48.9767C62.0466 48.9767 61.6334 48.8142 61.3454 48.4893C61.0574 48.1644 60.9134 47.7283 60.9134 47.181C60.9134 46.8347 60.9739 46.5247 61.095 46.2511C61.216 45.9732 61.3934 45.7551 61.6271 45.5969C61.8609 45.4345 62.1405 45.3532 62.4661 45.3532C62.9461 45.3532 63.3217 45.5071 63.593 45.815C63.8643 46.1228 64 46.5504 64 47.0976ZM63.0296 46.809C63.0212 46.2874 62.8417 46.0266 62.4911 46.0266C62.32 46.0266 62.1864 46.0907 62.0904 46.219C61.9986 46.3473 61.9423 46.5589 61.9214 46.8539H63.0296V46.809Z" fill="#0092B2"/>
<path d="M9.92 55.2794H9.54017V54.2618C9.54017 54.0908 9.54574 53.9283 9.55687 53.7744C9.568 53.6205 9.57774 53.5193 9.58609 53.4709L8.66365 55.2794H8.2087V53.0262H8.58852V54.0438C8.58852 54.1949 8.58296 54.3516 8.57183 54.5141C8.5607 54.6737 8.55235 54.7763 8.54678 54.8219L9.4567 53.0262H9.92V55.2794Z" fill="#0092B2"/>
<path d="M12.0095 55.2794V54.2875H11.0954V55.2794H10.7114V53.0262H11.0954V53.9711H12.0095V53.0262H12.3935V55.2794H12.0095Z" fill="#0092B2"/>
<path d="M15.1891 52.9749C15.4562 52.9749 15.6468 53.0761 15.7609 53.2785C15.8778 53.4809 15.9362 53.7716 15.9362 54.1507C15.9362 54.5098 15.8694 54.7963 15.7359 55.01C15.6023 55.2238 15.4173 55.3307 15.1807 55.3307C14.972 55.3307 14.8037 55.2352 14.6757 55.0443V56.143L14.3084 56.1901V55.0443C14.2472 55.1355 14.1692 55.2067 14.0746 55.258C13.98 55.3065 13.8785 55.3307 13.7699 55.3307C13.5473 55.3307 13.3706 55.2238 13.2399 55.01C13.1119 54.7963 13.0479 54.5098 13.0479 54.1507C13.0479 53.7744 13.1035 53.4851 13.2148 53.2828C13.3289 53.0775 13.5153 52.9749 13.7741 52.9749C13.9995 52.9749 14.1776 53.0576 14.3084 53.2229V52.0728L14.6757 52.1198V53.2314C14.8037 53.0604 14.9748 52.9749 15.1891 52.9749ZM13.8576 55.0186C13.9466 55.0186 14.0287 54.9944 14.1039 54.9459C14.1818 54.8946 14.2499 54.8248 14.3084 54.7364V53.5436C14.1832 53.3725 14.0315 53.287 13.8534 53.287C13.7254 53.287 13.628 53.3597 13.5612 53.5051C13.4945 53.6476 13.4611 53.8628 13.4611 54.1507C13.4611 54.4386 13.4959 54.6552 13.5654 54.8005C13.635 54.9459 13.7324 55.0186 13.8576 55.0186ZM15.1098 55.0186C15.2406 55.0186 15.3421 54.9459 15.4145 54.8005C15.4868 54.6552 15.523 54.4386 15.523 54.1507C15.523 53.5749 15.3853 53.287 15.1098 53.287C14.9345 53.287 14.7898 53.3754 14.6757 53.5521V54.7407C14.7341 54.8319 14.7981 54.9017 14.8677 54.9502C14.9372 54.9958 15.0179 55.0186 15.1098 55.0186Z" fill="#0092B2"/>
<path d="M17.4196 52.9749C17.7285 52.9749 17.9678 53.0804 18.1376 53.2913C18.3101 53.5022 18.3963 53.7887 18.3963 54.1507C18.3963 54.3844 18.3574 54.591 18.2795 54.7706C18.2016 54.9473 18.0889 55.0856 17.9414 55.1853C17.7939 55.2823 17.6186 55.3307 17.4155 55.3307C17.1066 55.3307 16.8659 55.2252 16.6934 55.0143C16.5209 54.8034 16.4346 54.5169 16.4346 54.155C16.4346 53.9212 16.4736 53.716 16.5515 53.5393C16.6294 53.3597 16.7421 53.2215 16.8896 53.1246C17.037 53.0248 17.2137 52.9749 17.4196 52.9749ZM17.4196 53.2913C17.0384 53.2913 16.8478 53.5792 16.8478 54.155C16.8478 54.7279 17.037 55.0143 17.4155 55.0143C17.7939 55.0143 17.9831 54.7264 17.9831 54.1507C17.9831 53.5778 17.7953 53.2913 17.4196 53.2913Z" fill="#0092B2"/>
<path d="M20.0408 52.9749C20.3218 52.9749 20.5278 53.0775 20.6585 53.2828C20.7893 53.488 20.8547 53.7773 20.8547 54.1507C20.8547 54.5041 20.7796 54.7891 20.6293 55.0058C20.4791 55.2224 20.2662 55.3307 19.9907 55.3307C19.7458 55.3307 19.5538 55.2452 19.4147 55.0742V56.143L19.0307 56.1901V53.0262H19.3604L19.3897 53.3298C19.4704 53.2158 19.5677 53.1288 19.6818 53.069C19.7959 53.0063 19.9156 52.9749 20.0408 52.9749ZM19.8989 55.01C20.2606 55.01 20.4415 54.7236 20.4415 54.1507C20.4415 53.5749 20.2759 53.287 19.9448 53.287C19.8363 53.287 19.7375 53.3198 19.6484 53.3854C19.5594 53.4509 19.4815 53.535 19.4147 53.6376V54.7364C19.4704 54.8248 19.5399 54.8932 19.6234 54.9416C19.7069 54.9872 19.7987 55.01 19.8989 55.01Z" fill="#0092B2"/>
<path d="M23.6627 55.2794H23.2871L23.1869 54.2148C23.1757 54.1036 23.1688 53.9811 23.166 53.8471C23.1632 53.7103 23.1618 53.5635 23.1618 53.4067L22.661 55.0314H22.2978L21.8304 53.411C21.8304 53.7873 21.8248 54.0538 21.8137 54.2105L21.7344 55.2794H21.3629L21.5591 53.0262H22.0557L22.4857 54.6381L22.9573 53.0262H23.4624L23.6627 55.2794Z" fill="#0092B2"/>
<path d="M25.791 54.7535C25.791 54.8447 25.8063 54.9131 25.8369 54.9587C25.8675 55.0015 25.9134 55.0343 25.9746 55.0571L25.887 55.3307C25.7729 55.3165 25.6811 55.2837 25.6115 55.2324C25.5419 55.1811 25.4905 55.1013 25.4571 54.9929C25.3096 55.2181 25.0912 55.3307 24.8018 55.3307C24.5847 55.3307 24.4136 55.268 24.2884 55.1426C24.1632 55.0172 24.1005 54.8533 24.1005 54.6509C24.1005 54.4115 24.184 54.2276 24.351 54.0994C24.5207 53.9711 24.76 53.907 25.0689 53.907H25.407V53.7402C25.407 53.5806 25.3694 53.4666 25.2943 53.3982C25.2192 53.3298 25.1037 53.2956 24.9478 53.2956C24.7865 53.2956 24.5889 53.3355 24.3552 53.4153L24.2592 53.1288C24.5318 53.0262 24.7851 52.9749 25.0188 52.9749C25.2776 52.9749 25.471 53.0405 25.599 53.1716C25.727 53.2999 25.791 53.4837 25.791 53.7231V54.7535ZM24.8894 55.0357C25.1092 55.0357 25.2818 54.9188 25.407 54.6851V54.1678H25.119C24.7127 54.1678 24.5096 54.3217 24.5096 54.6295C24.5096 54.7635 24.5416 54.8647 24.6056 54.9331C24.6696 55.0015 24.7642 55.0357 24.8894 55.0357Z" fill="#0092B2"/>
<path d="M28.2283 54.963H28.5622V55.9207H28.2492L28.1866 55.2794H26.5796V53.0262H26.9636V54.9587H27.8443V53.0262H28.2283V54.963Z" fill="#0092B2"/>
<path d="M30.7325 55.2794H30.3527V54.2618C30.3527 54.0908 30.3582 53.9283 30.3694 53.7744C30.3805 53.6205 30.3902 53.5193 30.3986 53.4709L29.4762 55.2794H29.0212V53.0262H29.401V54.0438C29.401 54.1949 29.3955 54.3516 29.3843 54.5141C29.3732 54.6737 29.3648 54.7763 29.3593 54.8219L30.2692 53.0262H30.7325V55.2794Z" fill="#0092B2"/>
<path d="M32.3503 52.9749C32.6592 52.9749 32.8985 53.0804 33.0683 53.2913C33.2408 53.5022 33.327 53.7887 33.327 54.1507C33.327 54.3844 33.2881 54.591 33.2102 54.7706C33.1323 54.9473 33.0196 55.0856 32.8721 55.1853C32.7246 55.2823 32.5493 55.3307 32.3462 55.3307C32.0373 55.3307 31.7966 55.2252 31.6241 55.0143C31.4516 54.8034 31.3653 54.5169 31.3653 54.155C31.3653 53.9212 31.4043 53.716 31.4822 53.5393C31.5601 53.3597 31.6728 53.2215 31.8203 53.1246C31.9677 53.0248 32.1444 52.9749 32.3503 52.9749ZM32.3503 53.2913C31.9691 53.2913 31.7785 53.5792 31.7785 54.155C31.7785 54.7279 31.9677 55.0143 32.3462 55.0143C32.7246 55.0143 32.9138 54.7264 32.9138 54.1507C32.9138 53.5778 32.726 53.2913 32.3503 53.2913Z" fill="#0092B2"/>
<path d="M35.2595 55.2794V54.2875H34.3454V55.2794H33.9614V53.0262H34.3454V53.9711H35.2595V53.0262H35.6435V55.2794H35.2595Z" fill="#0092B2"/>
<path d="M37.7337 55.2794V54.2875H36.8196V55.2794H36.4356V53.0262H36.8196V53.9711H37.7337V53.0262H38.1177V55.2794H37.7337Z" fill="#0092B2"/>
<path d="M39.7362 52.9749C40.0451 52.9749 40.2844 53.0804 40.4541 53.2913C40.6267 53.5022 40.7129 53.7887 40.7129 54.1507C40.7129 54.3844 40.674 54.591 40.596 54.7706C40.5181 54.9473 40.4054 55.0856 40.258 55.1853C40.1105 55.2823 39.9352 55.3307 39.732 55.3307C39.4232 55.3307 39.1825 55.2252 39.01 55.0143C38.8374 54.8034 38.7512 54.5169 38.7512 54.155C38.7512 53.9212 38.7901 53.716 38.868 53.5393C38.946 53.3597 39.0586 53.2215 39.2061 53.1246C39.3536 53.0248 39.5303 52.9749 39.7362 52.9749ZM39.7362 53.2913C39.355 53.2913 39.1644 53.5792 39.1644 54.155C39.1644 54.7279 39.3536 55.0143 39.732 55.0143C40.1105 55.0143 40.2997 54.7264 40.2997 54.1507C40.2997 53.5778 40.1119 53.2913 39.7362 53.2913Z" fill="#0092B2"/>
<path d="M41.2012 54.1079V53.7744H42.3824V54.1079H41.2012Z" fill="#0092B2"/>
<path d="M9.69043 59.5634C9.69043 59.6546 9.70574 59.7231 9.73635 59.7687C9.76696 59.8114 9.81287 59.8442 9.87409 59.867L9.78643 60.1406C9.67235 60.1264 9.58052 60.0936 9.51096 60.0423C9.44139 59.991 9.38991 59.9112 9.35652 59.8029C9.20904 60.028 8.99061 60.1406 8.70122 60.1406C8.48417 60.1406 8.31304 60.0779 8.18783 59.9525C8.06261 59.8271 8 59.6632 8 59.4608C8 59.2214 8.08348 59.0376 8.25043 58.9093C8.42017 58.781 8.65948 58.7169 8.96835 58.7169H9.30643V58.5501C9.30643 58.3905 9.26887 58.2765 9.19374 58.2081C9.11861 58.1397 9.00313 58.1055 8.8473 58.1055C8.68591 58.1055 8.48835 58.1454 8.25461 58.2252L8.15861 57.9388C8.4313 57.8361 8.68452 57.7848 8.91826 57.7848C9.17704 57.7848 9.37043 57.8504 9.49843 57.9815C9.62643 58.1098 9.69043 58.2936 9.69043 58.533V59.5634ZM8.78887 59.8456C9.0087 59.8456 9.18122 59.7288 9.30643 59.495V58.9777H9.01843C8.61217 58.9777 8.40904 59.1316 8.40904 59.4394C8.40904 59.5734 8.44104 59.6746 8.50504 59.743C8.56904 59.8114 8.66365 59.8456 8.78887 59.8456Z" fill="#0092B2"/>
<path d="M11.7772 60.0893V59.0974H10.8631V60.0893H10.4791V57.8361H10.8631V58.781H11.7772V57.8361H12.1612V60.0893H11.7772Z" fill="#0092B2"/>
<path d="M14.435 59.5634C14.435 59.6546 14.4503 59.7231 14.4809 59.7687C14.5115 59.8114 14.5574 59.8442 14.6187 59.867L14.531 60.1406C14.4169 60.1264 14.3251 60.0936 14.2555 60.0423C14.186 59.991 14.1345 59.9112 14.1011 59.8029C13.9536 60.028 13.7352 60.1406 13.4458 60.1406C13.2287 60.1406 13.0576 60.0779 12.9324 59.9525C12.8072 59.8271 12.7446 59.6632 12.7446 59.4608C12.7446 59.2214 12.828 59.0376 12.995 58.9093C13.1647 58.781 13.404 58.7169 13.7129 58.7169H14.051V58.5501C14.051 58.3905 14.0134 58.2765 13.9383 58.2081C13.8632 58.1397 13.7477 58.1055 13.5919 58.1055C13.4305 58.1055 13.2329 58.1454 12.9992 58.2252L12.9032 57.9388C13.1759 57.8361 13.4291 57.7848 13.6628 57.7848C13.9216 57.7848 14.115 57.8504 14.243 57.9815C14.371 58.1098 14.435 58.2936 14.435 58.533V59.5634ZM13.5334 59.8456C13.7533 59.8456 13.9258 59.7288 14.051 59.495V58.9777H13.763C13.3567 58.9777 13.1536 59.1316 13.1536 59.4394C13.1536 59.5734 13.1856 59.6746 13.2496 59.743C13.3136 59.8114 13.4082 59.8456 13.5334 59.8456Z" fill="#0092B2"/>
<path d="M16.8348 57.8361V60.0893H16.4508V58.1568H15.7704L15.7078 58.9093C15.6828 59.2143 15.6508 59.4423 15.6118 59.5934C15.5756 59.7444 15.5172 59.8613 15.4365 59.944C15.3586 60.0238 15.2389 60.0893 15.0776 60.1406L14.9816 59.8285C15.0762 59.7943 15.1429 59.7501 15.1819 59.696C15.2209 59.6418 15.2501 59.5592 15.2696 59.448C15.289 59.3368 15.3099 59.143 15.3322 58.8665L15.4198 57.8361H16.8348Z" fill="#0092B2"/>
<path d="M19.3398 60.0893H18.96V59.0718C18.96 58.9007 18.9656 58.7383 18.9767 58.5843C18.9878 58.4304 18.9976 58.3292 19.0059 58.2808L18.0835 60.0893H17.6285V57.8361H18.0084V58.8537C18.0084 59.0048 18.0028 59.1615 17.9917 59.324C17.9805 59.4836 17.9722 59.5862 17.9666 59.6318L18.8765 57.8361H19.3398V60.0893Z" fill="#0092B2"/>
<path d="M21.6172 57.8361L21.5712 58.1568H20.8659V60.0893H20.4819V58.1568H19.7556V57.8361H21.6172Z" fill="#0092B2"/>
<path d="M23.7257 60.0893H23.3459V59.0718C23.3459 58.9007 23.3514 58.7383 23.3626 58.5843C23.3737 58.4304 23.3834 58.3292 23.3918 58.2808L22.4694 60.0893H22.0144V57.8361H22.3942V58.8537C22.3942 59.0048 22.3887 59.1615 22.3775 59.324C22.3664 59.4836 22.3581 59.5862 22.3525 59.6318L23.2624 57.8361H23.7257V60.0893Z" fill="#0092B2"/>
<path d="M26.0281 57.8361V60.0893H25.6441V59.1487C25.5634 59.2257 25.4632 59.287 25.3436 59.3326C25.2267 59.3753 25.1056 59.3967 24.9804 59.3967C24.7717 59.3967 24.6145 59.3397 24.5088 59.2257C24.403 59.1088 24.3502 58.9435 24.3502 58.7297V57.8361H24.7342V58.6827C24.7342 58.8252 24.762 58.9292 24.8176 58.9948C24.8761 59.0575 24.9651 59.0889 25.0848 59.0889C25.1822 59.0889 25.2837 59.0661 25.3895 59.0205C25.498 58.9748 25.5829 58.9164 25.6441 58.8452V57.8361H26.0281Z" fill="#0092B2"/>
<path d="M28.4813 58.8965C28.4813 58.962 28.4785 59.029 28.473 59.0974H27.0705C27.0872 59.3454 27.1485 59.5278 27.2542 59.6447C27.3599 59.7615 27.4963 59.82 27.6632 59.82C27.769 59.82 27.8664 59.8043 27.9554 59.7729C28.0445 59.7416 28.1377 59.6917 28.2351 59.6233L28.402 59.8584C28.1683 60.0466 27.9123 60.1406 27.634 60.1406C27.3279 60.1406 27.0886 60.038 26.9161 59.8328C26.7464 59.6276 26.6615 59.3454 26.6615 58.9862C26.6615 58.7525 26.6977 58.5459 26.77 58.3663C26.8452 58.1839 26.9509 58.0414 27.0872 57.9388C27.2264 57.8361 27.3892 57.7848 27.5756 57.7848C27.8678 57.7848 28.0918 57.8832 28.2476 58.0798C28.4034 58.2765 28.4813 58.5487 28.4813 58.8965ZM28.1015 58.781C28.1015 58.5587 28.0584 58.3891 27.9721 58.2722C27.8858 58.1554 27.7565 58.0969 27.5839 58.0969C27.2695 58.0969 27.0984 58.3335 27.0705 58.8067H28.1015V58.781Z" fill="#0092B2"/>
<path d="M29.896 57.7848C30.0267 57.7848 30.1464 57.8048 30.2549 57.8447C30.3634 57.8817 30.4678 57.943 30.568 58.0285L30.3843 58.2765C30.3064 58.2195 30.2299 58.1782 30.1547 58.1525C30.0824 58.124 30.0017 58.1098 29.9127 58.1098C29.7346 58.1098 29.5954 58.1825 29.4953 58.3278C29.3979 58.4732 29.3492 58.6884 29.3492 58.9734C29.3492 59.2585 29.3979 59.4694 29.4953 59.6062C29.5927 59.7402 29.7318 59.8071 29.9127 59.8071C29.9989 59.8071 30.0782 59.7943 30.1506 59.7687C30.2229 59.7402 30.3036 59.696 30.3927 59.6361L30.568 59.8927C30.3676 60.058 30.1436 60.1406 29.896 60.1406C29.5982 60.1406 29.3631 60.038 29.1906 59.8328C29.0208 59.6276 28.936 59.344 28.936 58.982C28.936 58.7425 28.9749 58.533 29.0528 58.3535C29.1307 58.1739 29.2407 58.0342 29.3826 57.9345C29.5273 57.8347 29.6984 57.7848 29.896 57.7848Z" fill="#0092B2"/>
<path d="M32.7365 57.8361L32.0686 58.8794L32.8158 60.0893H32.3608L31.7514 59.0504H31.4718V60.0893H31.0878V57.8361H31.4718V58.7425H31.7598L32.3149 57.8361H32.7365Z" fill="#0092B2"/>
<path d="M34.9635 60.0893H34.5837V59.0718C34.5837 58.9007 34.5892 58.7383 34.6003 58.5843C34.6115 58.4304 34.6212 58.3292 34.6296 58.2808L33.7071 60.0893H33.2522V57.8361H33.632V58.8537C33.632 59.0048 33.6264 59.1615 33.6153 59.324C33.6042 59.4836 33.5958 59.5862 33.5903 59.6318L34.5002 57.8361H34.9635V60.0893Z" fill="#0092B2"/>
<path d="M37.4662 60.0893H37.0864V59.0718C37.0864 58.9007 37.0919 58.7383 37.1031 58.5843C37.1142 58.4304 37.1239 58.3292 37.1323 58.2808L36.2098 60.0893H35.7549V57.8361H36.1347V58.8537C36.1347 59.0048 36.1292 59.1615 36.118 59.324C36.1069 59.4836 36.0985 59.5862 36.093 59.6318L37.0029 57.8361H37.4662V60.0893ZM36.6022 57.3402C36.4325 57.3402 36.2892 57.296 36.1723 57.2076C36.0582 57.1164 35.9928 56.9939 35.9761 56.84L36.2307 56.7844C36.2585 56.8756 36.3017 56.9411 36.3601 56.981C36.4213 57.0209 36.502 57.0409 36.6022 57.0409C36.7024 57.0409 36.7845 57.0209 36.8485 56.981C36.9125 56.9383 36.9584 56.8727 36.9862 56.7844L37.2408 56.84C37.2241 56.9939 37.1559 57.1164 37.0363 57.2076C36.9194 57.296 36.7747 57.3402 36.6022 57.3402Z" fill="#0092B2"/>
<path d="M41.804 57.8361L41.253 58.8922L41.8833 60.0893H41.4617L40.94 59.0675H40.6478V60.0893H40.2805V59.0675H39.9925L39.4666 60.0893H39.0492L39.6794 58.8922L39.1285 57.8361H39.5292L39.9883 58.7596H40.2805V57.8361H40.6478V58.7596H40.9441L41.4074 57.8361H41.804Z" fill="#0092B2"/>
<path d="M43.2429 60.1021C43.1567 60.3644 43.0356 60.571 42.8798 60.7221C42.7267 60.876 42.5069 60.9686 42.2203 61L42.1786 60.6922C42.3233 60.6665 42.4387 60.6295 42.525 60.581C42.6113 60.5325 42.6794 60.4698 42.7295 60.3929C42.7824 60.3188 42.8311 60.2176 42.8756 60.0893H42.7462L42.0074 57.8361H42.4165L43.005 59.8029L43.581 57.8361H43.9775L43.2429 60.1021Z" fill="#0092B2"/>
<path d="M45.4267 57.7848C45.7077 57.7848 45.9136 57.8874 46.0444 58.0927C46.1752 58.2979 46.2406 58.5872 46.2406 58.9606C46.2406 59.314 46.1654 59.5991 46.0152 59.8157C45.8649 60.0323 45.6521 60.1406 45.3766 60.1406C45.1317 60.1406 44.9397 60.0551 44.8006 59.8841V60.953L44.4166 61V57.8361H44.7463L44.7755 58.1397C44.8562 58.0257 44.9536 57.9388 45.0677 57.8789C45.1818 57.8162 45.3014 57.7848 45.4267 57.7848ZM45.2848 59.82C45.6465 59.82 45.8274 59.5335 45.8274 58.9606C45.8274 58.3848 45.6618 58.0969 45.3307 58.0969C45.2221 58.0969 45.1234 58.1297 45.0343 58.1953C44.9453 58.2608 44.8674 58.3449 44.8006 58.4475V59.5463C44.8562 59.6347 44.9258 59.7031 45.0093 59.7516C45.0928 59.7972 45.1846 59.82 45.2848 59.82Z" fill="#0092B2"/>
<path d="M48.1929 60.0893V59.0974H47.2788V60.0893H46.8948V57.8361H47.2788V58.781H48.1929V57.8361H48.5769V60.0893H48.1929Z" fill="#0092B2"/>
<path d="M50.8508 59.5634C50.8508 59.6546 50.8661 59.7231 50.8967 59.7687C50.9273 59.8114 50.9732 59.8442 51.0344 59.867L50.9468 60.1406C50.8327 60.1264 50.7409 60.0936 50.6713 60.0423C50.6017 59.991 50.5502 59.9112 50.5168 59.8029C50.3694 60.028 50.1509 60.1406 49.8615 60.1406C49.6445 60.1406 49.4734 60.0779 49.3482 59.9525C49.2229 59.8271 49.1603 59.6632 49.1603 59.4608C49.1603 59.2214 49.2438 59.0376 49.4108 58.9093C49.5805 58.781 49.8198 58.7169 50.1287 58.7169H50.4668V58.5501C50.4668 58.3905 50.4292 58.2765 50.3541 58.2081C50.2789 58.1397 50.1635 58.1055 50.0076 58.1055C49.8462 58.1055 49.6487 58.1454 49.4149 58.2252L49.3189 57.9388C49.5916 57.8361 49.8448 57.7848 50.0786 57.7848C50.3374 57.7848 50.5308 57.8504 50.6588 57.9815C50.7868 58.1098 50.8508 58.2936 50.8508 58.533V59.5634ZM49.9492 59.8456C50.169 59.8456 50.3415 59.7288 50.4668 59.495V58.9777H50.1788C49.7725 58.9777 49.5694 59.1316 49.5694 59.4394C49.5694 59.5734 49.6014 59.6746 49.6654 59.743C49.7294 59.8114 49.824 59.8456 49.9492 59.8456Z" fill="#0092B2"/>
<path d="M53.2505 57.8361V60.0893H52.8665V58.1568H52.1862L52.1236 58.9093C52.0985 59.2143 52.0665 59.4423 52.0276 59.5934C51.9914 59.7444 51.933 59.8613 51.8523 59.944C51.7744 60.0238 51.6547 60.0893 51.4933 60.1406L51.3973 59.8285C51.4919 59.7943 51.5587 59.7501 51.5977 59.696C51.6366 59.6418 51.6658 59.5592 51.6853 59.448C51.7048 59.3368 51.7257 59.143 51.7479 58.8665L51.8356 57.8361H53.2505Z" fill="#0092B2"/>
</g>
</svg>
