<svg width="72" height="72" viewBox="0 0 72 72" fill="none" xmlns="http://www.w3.org/2000/svg">
<circle cx="36" cy="36" r="27" fill="url(#paint0_radial)"/>
<path shape-rendering="geometricPrecision" d="M15.1787 17.3791L24.4249 10.8973L19.6075 22.4433L12.6169 21.7124L15.1787 17.3791Z" fill="#A74037"/>
<path shape-rendering="geometricPrecision" d="M8.03491 34.4892L14.6504 32.2301L12.6169 21.7124L9.69764 27.2448L8.03491 34.4892Z" fill="#A74037"/>
<path shape-rendering="geometricPrecision" d="M9.88828 48.1678L11.2187 43.0337L14.6504 32.2301L8.03491 34.4892L9.88828 48.1678Z" fill="#A74037"/>
<path shape-rendering="geometricPrecision" d="M17.4467 51.5495L26.9793 48.4538L21.9548 39.1601L17.4467 51.5495Z" fill="#A74037"/>
<path shape-rendering="geometricPrecision" d="M62.4539 28.1425L54.7508 28.6866L57.1676 18.237L62.4539 28.1425Z" fill="#A74037"/>
<path shape-rendering="geometricPrecision" d="M62.8216 43.4149L63.9655 39.0935L62.8216 28.0357L54.7508 28.6866L51.4482 44.8281L62.8216 43.4149Z" fill="#A74037"/>
<path shape-rendering="geometricPrecision" d="M57.7068 51.5495L51.4482 44.8281L62.8216 43.4149L57.7068 51.5495Z" fill="#A74037"/>
<path shape-rendering="geometricPrecision" d="M54.7508 57.5232L57.7068 51.5495L62.8216 43.4149L54.7508 57.5232Z" fill="#A74037"/>
<path shape-rendering="geometricPrecision" d="M42.4856 57.2691C43.2832 59.0541 45.1547 63.2428 45.1547 63.2428L57.7068 51.5495L42.4856 57.2691Z" fill="#A74037"/>
<path shape-rendering="geometricPrecision" d="M37.2454 42.0639L51.4482 44.8281L42.4856 57.2691L37.2454 42.0639Z" fill="#A74037"/>
<path shape-rendering="geometricPrecision" d="M43.2985 16.3783L54.7508 28.6866L43.3461 31.2893L43.2985 16.3783Z" fill="#A74037"/>
<path shape-rendering="geometricPrecision" d="M43.2985 16.3783L29.1083 17.8994V27.0507L43.2985 16.3783Z" fill="#A74037"/>
<path shape-rendering="geometricPrecision" d="M43.3461 31.2893C44.7559 30.9675 54.7508 28.6866 54.7508 28.6866L51.4482 44.8281L37.2454 42.0639L43.3461 31.2893Z" fill="#A74037"/>
<path shape-rendering="geometricPrecision" d="M29.14 27.0189L43.2985 16.3783L43.3461 31.2893L37.2454 42.0639L29.14 27.0189Z" fill="#A74037"/>
<path shape-rendering="geometricPrecision" d="M43.2985 16.3783L54.7508 28.6866L57.1676 18.237L43.2985 16.3783Z" fill="#A74037"/>
<path shape-rendering="geometricPrecision" d="M46.9206 9.41975L43.2985 16.3783L57.1676 18.237L46.9206 9.41975Z" fill="#A74037"/>
<path shape-rendering="geometricPrecision" d="M36.0005 9.89643L46.9206 9.41975L43.2985 16.3783L29.1083 17.8994L36.0005 9.89643Z" fill="#A74037"/>
<path shape-rendering="geometricPrecision" d="M33.0035 7.99994L46.9204 9.48329L24.4246 10.9131L33.0035 7.99994Z" fill="#A74037"/>
<path shape-rendering="geometricPrecision" d="M35.8022 10.1265L24.4249 10.8973L29.1083 17.8994L35.8022 10.1265Z" fill="#A74037"/>
<path shape-rendering="geometricPrecision" d="M19.6075 22.4433L29.1083 17.8994L24.4249 10.8973L19.6075 22.4433Z" fill="#A74037"/>
<path shape-rendering="geometricPrecision" d="M29.1083 17.8994L29.14 27.0189L19.5635 22.4591L29.1083 17.8994Z" fill="#A74037"/>
<path shape-rendering="geometricPrecision" d="M29.1483 26.9713L21.9548 39.1601L26.9793 48.4538L37.2454 42.0639L29.1483 26.9713Z" fill="#A74037"/>
<path shape-rendering="geometricPrecision" d="M37.2454 42.0639L26.9793 48.4538L30.1134 58.54L42.4856 57.2691L37.2454 42.0639Z" fill="#A74037"/>
<path shape-rendering="geometricPrecision" d="M14.6504 32.2301L19.6075 22.4433L29.14 27.0189L21.9548 39.1601L14.6504 32.2301Z" fill="#A74037"/>
<path shape-rendering="geometricPrecision" d="M11.2187 43.0337L14.6504 32.2301L21.9548 39.1601L17.4467 51.5495L11.2187 43.0337Z" fill="#A74037"/>
<path shape-rendering="geometricPrecision" d="M12.6169 21.7124L14.6504 32.2301L19.6075 22.4433L12.6169 21.7124Z" fill="#A74037"/>
<path shape-rendering="geometricPrecision" d="M51.4482 44.8281L57.7068 51.5495L42.4856 57.2691L51.4482 44.8281Z" fill="#A74037"/>
<path shape-rendering="geometricPrecision" d="M32.3173 63.9999L45.1547 63.2428L42.4856 57.2691L30.1134 58.54L32.3173 63.9999Z" fill="#A74037"/>
<path shape-rendering="geometricPrecision" d="M57.7068 51.5495L45.1547 63.2428L54.7508 57.5232L57.7068 51.5495Z" fill="#A74037"/>
<path shape-rendering="geometricPrecision" d="M17.4467 51.5495L26.9793 48.4538L30.1134 58.54L17.4467 51.5495Z" fill="#A74037"/>
<path shape-rendering="geometricPrecision" d="M17.4467 51.5495L20.2429 59.6839L32.3173 63.9999L30.1134 58.54L17.4467 51.5495Z" fill="#A74037"/>
<path shape-rendering="geometricPrecision" d="M9.88828 48.1678L11.2187 43.0337L17.4467 51.5495L20.2429 59.6839L9.88828 48.1678Z" fill="#A74037"/>
<path shape-rendering="geometricPrecision" d="M63.9655 28.0357L57.1676 18.237L62.4539 28.1425L63.9655 28.0357Z" fill="#A74037"/>
<path shape-rendering="geometricPrecision" d="M63.9655 28.0357L63.9655 39.0935L62.8216 28.0357L63.9655 28.0357Z" fill="#A74037"/>
<path shape-rendering="geometricPrecision" d="M23.8422 31.5192V35.9358C23.8422 37.9418 23.923 39.3494 26.6572 39.3494C29.3912 39.3494 29.4721 37.9904 29.4721 35.9358V31.5192C29.4721 29.3999 29.3912 28.1056 26.6572 28.1056C23.923 28.1056 23.8422 29.3513 23.8422 31.5192ZM23.0333 35.9843V31.4707C23.0333 28.6071 23.648 27.3614 26.6572 27.3614C29.6663 27.3614 30.281 28.6071 30.281 31.4868V35.9681C30.281 38.7831 29.6177 40.0936 26.6572 40.0936C23.6966 40.0936 23.0333 38.7831 23.0333 35.9843Z" fill="#A74037"/>
<path shape-rendering="geometricPrecision" d="M33.2414 28.2189V39.1876H35.4578C38.1919 39.1876 38.2728 38.0066 38.2728 35.855V31.6972C38.2728 29.5293 38.1919 28.2189 35.4578 28.2189H33.2414ZM32.4325 27.4909H35.4901C38.5316 27.4909 39.0817 28.7851 39.0817 31.7296V35.855C39.0817 38.7023 38.4183 39.9803 35.4578 39.9803H32.4325V27.4909Z" fill="#A74037"/>
<path shape-rendering="geometricPrecision" d="M41.9287 39.9803H41.0712V27.4909H41.9287V39.9803Z" fill="#A74037"/>
<path shape-rendering="geometricPrecision" d="M50.212 39.9642H49.2736L44.9541 29.3675H44.9217L45.035 33.2826V39.9642H44.1776V27.4909H45.035L49.4678 38.2007H49.5001L49.3545 33.7518V27.4909H50.212V39.9642Z" fill="#A74037"/>
<path shape-rendering="geometricPrecision" d="M23.2769 42.8511H23.5055L23.5303 43.0846C23.6843 42.876 23.9278 42.7965 24.2458 42.7965C24.673 42.7965 24.9214 42.9753 25.0258 43.2238C25.2642 42.861 25.5424 42.7965 25.8604 42.7965C26.5709 42.7965 26.7497 43.1741 26.7497 43.8597V45.7377H26.5013V43.8547C26.5013 43.2386 26.3821 43.025 25.8356 43.025C25.2941 43.025 25.135 43.3629 25.135 43.7802V45.7377H24.8866V43.8547C24.8866 43.3132 24.7674 43.025 24.2209 43.025C23.6794 43.025 23.5253 43.2784 23.5253 43.6858V45.7377H23.2769V42.8511Z" fill="#A74037"/>
<path shape-rendering="geometricPrecision" d="M29.9692 44.0982V43.8994C29.9692 43.343 29.8698 43.0052 29.2935 43.0052C28.7569 43.0052 28.6128 43.2734 28.6128 43.8845V44.0982H29.9692ZM30.153 44.9478C30.153 45.4744 29.8847 45.7526 29.2935 45.7526C28.6675 45.7526 28.3743 45.4645 28.3743 44.6745V43.8945C28.3743 43.0996 28.6675 42.7965 29.2935 42.7965C29.9642 42.7965 30.1878 43.1294 30.1878 43.8945V44.3267H28.6128V44.6546C28.6128 45.2458 28.7519 45.529 29.2935 45.529C29.8251 45.529 29.9294 45.2906 29.9294 44.9478H30.153Z" fill="#A74037"/>
<path shape-rendering="geometricPrecision" d="M32.6121 45.5191C33.1189 45.5092 33.3027 45.2359 33.3027 44.764V43.805C33.3077 43.2536 33.1686 43.025 32.632 43.025C32.0955 43.025 31.9613 43.2884 31.9613 43.7753V44.6993C31.9613 45.3502 32.1749 45.5191 32.6121 45.5191ZM31.7129 44.7043V43.7653C31.7129 43.0797 32.0557 42.7965 32.632 42.7965C32.9351 42.7965 33.1438 42.871 33.3027 43.0548V41.7035H33.5512V45.7377H33.3326L33.3077 45.4197C33.1686 45.6234 32.945 45.7526 32.5873 45.7526C31.9762 45.7526 31.7129 45.4645 31.7129 44.7043Z" fill="#A74037"/>
<path shape-rendering="geometricPrecision" d="M35.5532 45.7377H35.3097V42.8064H35.5532V45.7377ZM35.6078 42.0711C35.6078 42.3046 35.2402 42.3096 35.2402 42.0711C35.2402 41.8376 35.6078 41.8326 35.6078 42.0711Z" fill="#A74037"/>
<path shape-rendering="geometricPrecision" d="M38.7626 44.441C37.8137 44.3465 37.3715 44.4907 37.3715 44.9974C37.3715 45.37 37.5852 45.529 38.0224 45.529C38.5738 45.529 38.7626 45.1117 38.7626 44.8136V44.441ZM38.7925 45.7377L38.7875 45.3502C38.5888 45.6731 38.3205 45.7626 37.9329 45.7626C37.456 45.7626 37.1231 45.544 37.1231 44.9925C37.1231 44.272 37.7442 44.123 38.7626 44.2025V43.7851C38.7676 43.2685 38.5888 43.0499 38.1316 43.0499C37.7193 43.0499 37.5007 43.1791 37.5007 43.7305H37.2623C37.2623 43.1194 37.5057 42.8263 38.1316 42.8263C38.7179 42.8263 39.0012 43.1045 39.0012 43.7802V45.7377H38.7925Z" fill="#A74037"/>
<path shape-rendering="geometricPrecision" d="M23.5244 31.2967V35.7134C23.5244 37.7194 23.6052 39.1269 26.3394 39.1269C29.0734 39.1269 29.1543 37.768 29.1543 35.7134V31.2967C29.1543 29.1774 29.0734 27.8832 26.3394 27.8832C23.6052 27.8832 23.5244 29.1289 23.5244 31.2967ZM22.7155 35.7619V31.2482C22.7155 28.3847 23.3302 27.139 26.3394 27.139C29.3484 27.139 29.9632 28.3847 29.9632 31.2644V35.7457C29.9632 38.5607 29.2999 39.8711 26.3394 39.8711C23.3788 39.8711 22.7155 38.5607 22.7155 35.7619Z" fill="#A74037"/>
<path shape-rendering="geometricPrecision" d="M32.9238 27.9964V38.9652H35.1402C37.8743 38.9652 37.9552 37.7842 37.9552 35.6325V31.4747C37.9552 29.3068 37.8743 27.9964 35.1402 27.9964H32.9238ZM32.1149 27.2684H35.1726C38.2141 27.2684 38.7641 28.5626 38.7641 31.5071V35.6325C38.7641 38.4798 38.1008 39.7579 35.1402 39.7579H32.1149V27.2684Z" fill="#A74037"/>
<path shape-rendering="geometricPrecision" d="M41.6111 39.7579H40.7536V27.2684H41.6111V39.7579Z" fill="#A74037"/>
<path shape-rendering="geometricPrecision" d="M49.8941 39.7417H48.9558L44.6363 29.1451H44.6039L44.7171 33.0602V39.7417H43.8597V27.2684H44.7171L49.1499 37.9783H49.1823L49.0367 33.5293V27.2684H49.8941V39.7417Z" fill="#A74037"/>
<path shape-rendering="geometricPrecision" d="M22.9591 42.6287H23.1877L23.2125 42.8622C23.3665 42.6535 23.61 42.574 23.9279 42.574C24.3552 42.574 24.6036 42.7529 24.708 43.0013C24.9464 42.6386 25.2246 42.574 25.5426 42.574C26.2531 42.574 26.4319 42.9517 26.4319 43.6372V45.5152H26.1835V43.6323C26.1835 43.0162 26.0643 42.8026 25.5178 42.8026C24.9762 42.8026 24.8172 43.1404 24.8172 43.5577V45.5152H24.5688V43.6323C24.5688 43.0908 24.4496 42.8026 23.9031 42.8026C23.3615 42.8026 23.2075 43.056 23.2075 43.4634V45.5152H22.9591V42.6287Z" fill="#A74037"/>
<path shape-rendering="geometricPrecision" d="M29.6516 43.8758V43.677C29.6516 43.1206 29.5522 42.7827 28.9759 42.7827C28.4393 42.7827 28.2952 43.051 28.2952 43.6621V43.8758H29.6516ZM29.8354 44.7254C29.8354 45.252 29.5671 45.5302 28.9759 45.5302C28.3499 45.5302 28.0568 45.242 28.0568 44.4521V43.6721C28.0568 42.8772 28.3499 42.5741 28.9759 42.5741C29.6467 42.5741 29.8702 42.907 29.8702 43.6721V44.1043H28.2952V44.4322C28.2952 45.0234 28.4344 45.3066 28.9759 45.3066C29.5075 45.3066 29.6119 45.0682 29.6119 44.7254H29.8354Z" fill="#A74037"/>
<path shape-rendering="geometricPrecision" d="M32.2943 45.2966C32.8011 45.2867 32.9849 45.0134 32.9849 44.5415V43.5826C32.9899 43.0311 32.8508 42.8025 32.3142 42.8025C31.7777 42.8025 31.6435 43.0659 31.6435 43.5528V44.4768C31.6435 45.1277 31.8571 45.2966 32.2943 45.2966ZM31.3951 44.4818V43.5428C31.3951 42.8572 31.7379 42.574 32.3142 42.574C32.6173 42.574 32.826 42.6485 32.9849 42.8324V41.481H33.2333V45.5152H33.0147L32.9899 45.1973C32.8508 45.4009 32.6272 45.5301 32.2695 45.5301C31.6584 45.5301 31.3951 45.242 31.3951 44.4818Z" fill="#A74037"/>
<path shape-rendering="geometricPrecision" d="M35.2355 45.5152H34.992V42.5839H35.2355V45.5152ZM35.2902 41.8486C35.2902 42.0821 34.9225 42.0871 34.9225 41.8486C34.9225 41.6151 35.2902 41.6101 35.2902 41.8486Z" fill="#A74037"/>
<path shape-rendering="geometricPrecision" d="M38.4448 44.2185C37.4959 44.1241 37.0537 44.2682 37.0537 44.7749C37.0537 45.1476 37.2674 45.3066 37.7046 45.3066C38.256 45.3066 38.4448 44.8892 38.4448 44.5912V44.2185ZM38.4746 45.5152L38.4697 45.1277C38.2709 45.4507 38.0026 45.5401 37.6151 45.5401C37.1382 45.5401 36.8053 45.3215 36.8053 44.77C36.8053 44.0496 37.4263 43.9005 38.4448 43.98V43.5627C38.4498 43.046 38.2709 42.8274 37.8139 42.8274C37.4015 42.8274 37.1829 42.9566 37.1829 43.508H36.9444C36.9444 42.897 37.1879 42.6038 37.8139 42.6038C38.4001 42.6038 38.6833 42.882 38.6833 43.5577V45.5152H38.4746Z" fill="#A74037"/>
<path shape-rendering="geometricPrecision" d="M15.1788 17.3791L24.425 10.8973L19.6075 22.4433L12.6169 21.7124L15.1788 17.3791Z" fill="#8E3733"/>
<path shape-rendering="geometricPrecision" d="M8.03491 34.4893L14.6504 32.2301L12.6168 21.7125L9.69764 27.2448L8.03491 34.4893Z" fill="#612D2D"/>
<path shape-rendering="geometricPrecision" d="M9.88828 48.1678L11.2187 43.0337L14.6504 32.2301L8.03491 34.4893L9.88828 48.1678Z" fill="#5A2F2E"/>
<path shape-rendering="geometricPrecision" d="M17.4467 51.5496L26.9793 48.4539L21.9548 39.1602L17.4467 51.5496Z" fill="#883531"/>
<path shape-rendering="geometricPrecision" d="M62.454 28.1425L54.7509 28.6866L57.1676 18.237L62.454 28.1425Z" fill="#D95E39"/>
<path shape-rendering="geometricPrecision" d="M62.8217 43.415L63.9656 39.0935L62.8217 28.0357L54.7507 28.6866L51.4482 44.8281L62.8217 43.415Z" fill="#DC6039"/>
<path shape-rendering="geometricPrecision" d="M57.7069 51.5496L51.4482 44.8283L62.8216 43.4151L57.7069 51.5496Z" fill="#D3583A"/>
<path shape-rendering="geometricPrecision" d="M54.7509 57.5233L57.707 51.5496L62.8218 43.4151L54.7509 57.5233Z" fill="#8D3F35"/>
<path shape-rendering="geometricPrecision" d="M42.4857 57.2691C43.2833 59.0541 45.1548 63.2428 45.1548 63.2428L57.7071 51.5495L42.4857 57.2691Z" fill="#9B3A35"/>
<path shape-rendering="geometricPrecision" d="M37.2455 42.0639L51.4483 44.8282L42.4856 57.269L37.2455 42.0639Z" fill="#C64A3B"/>
<path shape-rendering="geometricPrecision" d="M43.2986 16.3783L54.7511 28.6866L43.3463 31.2893L43.2986 16.3783Z" fill="#F06D37"/>
<path shape-rendering="geometricPrecision" d="M43.2986 16.3783L29.1084 17.8994V27.0507L43.2986 16.3783Z" fill="#D75D39"/>
<path shape-rendering="geometricPrecision" d="M43.3461 31.2892C44.7558 30.9675 54.7508 28.6865 54.7508 28.6865L51.4484 44.8281L37.2455 42.0638L43.3461 31.2892Z" fill="#F26B36"/>
<path shape-rendering="geometricPrecision" d="M29.14 27.0189L43.2984 16.3782L43.3461 31.2893L37.2456 42.0638L29.14 27.0189Z" fill="#E16139"/>
<path shape-rendering="geometricPrecision" d="M43.2986 16.3782L54.7511 28.6866L57.1678 18.237L43.2986 16.3782Z" fill="#F4783B"/>
<path shape-rendering="geometricPrecision" d="M46.9208 9.41976L43.2986 16.3782L57.1678 18.2369L46.9208 9.41976Z" fill="#D05A3A"/>
<path shape-rendering="geometricPrecision" d="M36.0006 9.89644L46.9208 9.41984L43.2986 16.3783L29.1084 17.8995L36.0006 9.89644Z" fill="#C54F3A"/>
<path shape-rendering="geometricPrecision" d="M33.0036 7.99995L46.9205 9.48331L24.4247 10.9131L33.0036 7.99995Z" fill="#A33E37"/>
<path shape-rendering="geometricPrecision" d="M35.8023 10.1265L24.4249 10.8972L29.1083 17.8994L35.8023 10.1265Z" fill="#BE4839"/>
<path shape-rendering="geometricPrecision" d="M19.6074 22.4432L29.1082 17.8994L24.4248 10.8972L19.6074 22.4432Z" fill="#9C3B35"/>
<path shape-rendering="geometricPrecision" d="M29.1084 17.8994L29.1401 27.0189L19.5636 22.4591L29.1084 17.8994Z" fill="#B64738"/>
<path shape-rendering="geometricPrecision" d="M29.1485 26.9713L21.955 39.16L26.9794 48.4537L37.2456 42.0638L29.1485 26.9713Z" fill="#CC553A"/>
<path shape-rendering="geometricPrecision" d="M37.2455 42.0639L26.9792 48.4538L30.1135 58.54L42.4856 57.269L37.2455 42.0639Z" fill="#B54838"/>
<path shape-rendering="geometricPrecision" d="M14.6504 32.2301L19.6073 22.4433L29.1399 27.0189L21.9548 39.16L14.6504 32.2301Z" fill="#A74037"/>
<path shape-rendering="geometricPrecision" d="M11.219 43.0337L14.6507 32.2301L21.9551 39.1601L17.4469 51.5494L11.219 43.0337Z" fill="#78312F"/>
<path shape-rendering="geometricPrecision" d="M12.6168 21.7125L14.6504 32.2301L19.6074 22.4433L12.6168 21.7125Z" fill="#7E3230"/>
<path shape-rendering="geometricPrecision" d="M51.4485 44.8282L57.7071 51.5495L42.4857 57.269L51.4485 44.8282Z" fill="#BB4A39"/>
<path shape-rendering="geometricPrecision" d="M32.3174 64L45.1546 63.2428L42.4855 57.269L30.1134 58.5401L32.3174 64Z" fill="#722E2D"/>
<path shape-rendering="geometricPrecision" d="M57.7068 51.5495L45.1545 63.2428L54.7506 57.5232L57.7068 51.5495Z" fill="#803030"/>
<path shape-rendering="geometricPrecision" d="M17.4468 51.5495L26.9794 48.4538L30.1136 58.54L17.4468 51.5495Z" fill="#7E3030"/>
<path shape-rendering="geometricPrecision" d="M17.4468 51.5494L20.243 59.6839L32.3176 64L30.1136 58.54L17.4468 51.5494Z" fill="#722F2D"/>
<path shape-rendering="geometricPrecision" d="M9.88843 48.1679L11.2188 43.0337L17.4467 51.5495L20.243 59.684L9.88843 48.1679Z" fill="#6F2E2D"/>
<path shape-rendering="geometricPrecision" d="M63.9656 28.0357L57.1675 18.237L62.4538 28.1425L63.9656 28.0357Z" fill="#C54F3A"/>
<path shape-rendering="geometricPrecision" d="M63.9658 28.0358V39.0936L62.8219 28.0358H63.9658Z" fill="#BB4A39"/>
<path shape-rendering="geometricPrecision" d="M23.8422 31.5192V35.9358C23.8422 37.9418 23.9231 39.3494 26.6572 39.3494C29.3913 39.3494 29.4722 37.9904 29.4722 35.9358V31.5192C29.4722 29.3999 29.3913 28.1056 26.6572 28.1056C23.9231 28.1056 23.8422 29.3513 23.8422 31.5192ZM23.0333 35.9843V31.4707C23.0333 28.6071 23.6481 27.3614 26.6572 27.3614C29.6663 27.3614 30.2811 28.6071 30.2811 31.4868V35.9682C30.2811 38.7831 29.6178 40.0936 26.6572 40.0936C23.6966 40.0936 23.0333 38.7831 23.0333 35.9843" fill="#7E3230"/>
<path shape-rendering="geometricPrecision" d="M33.2415 28.2189V39.1876H35.4579C38.192 39.1876 38.2729 38.0067 38.2729 35.855V31.6972C38.2729 29.5293 38.192 28.2189 35.4579 28.2189H33.2415ZM32.4326 27.4909H35.4903C38.5318 27.4909 39.0818 28.7851 39.0818 31.7296V35.855C39.0818 38.7023 38.4185 39.9803 35.4579 39.9803H32.4326V27.4909Z" fill="#7E3230"/>
<path shape-rendering="geometricPrecision" d="M41.9287 39.9803H41.0713V27.4909H41.9287V39.9803Z" fill="#7E3230"/>
<path shape-rendering="geometricPrecision" d="M50.212 39.9642H49.2737L44.9541 29.3675H44.9218L45.035 33.2826V39.9642H44.1776V27.4909H45.035L49.4678 38.2008H49.5002L49.3546 33.7518V27.4909H50.212V39.9642Z" fill="#7E3230"/>
<path shape-rendering="geometricPrecision" d="M23.277 42.8511H23.5055L23.5304 43.0846C23.6844 42.876 23.9278 42.7965 24.2458 42.7965C24.6731 42.7965 24.9215 42.9753 25.0258 43.2238C25.2643 42.8611 25.5425 42.7965 25.8605 42.7965C26.5709 42.7965 26.7498 43.1741 26.7498 43.8597V45.7377H26.5014V43.8547C26.5014 43.2386 26.3821 43.025 25.8357 43.025C25.2941 43.025 25.1351 43.3629 25.1351 43.7802V45.7377H24.8867V43.8547C24.8867 43.3132 24.7675 43.025 24.221 43.025C23.6794 43.025 23.5254 43.2784 23.5254 43.6858V45.7377H23.277V42.8511Z" fill="#7E3230"/>
<path shape-rendering="geometricPrecision" d="M29.9692 44.0982V43.8995C29.9692 43.343 29.8699 43.0052 29.2935 43.0052C28.757 43.0052 28.6129 43.2735 28.6129 43.8845V44.0982H29.9692ZM30.1531 44.9478C30.1531 45.4744 29.8848 45.7526 29.2935 45.7526C28.6675 45.7526 28.3744 45.4645 28.3744 44.6745V43.8945C28.3744 43.0996 28.6675 42.7965 29.2935 42.7965C29.9643 42.7965 30.1878 43.1294 30.1878 43.8945V44.3267H28.6129V44.6546C28.6129 45.2459 28.752 45.529 29.2935 45.529C29.8251 45.529 29.9295 45.2906 29.9295 44.9478H30.1531Z" fill="#7E3230"/>
<path shape-rendering="geometricPrecision" d="M32.6121 45.5191C33.1189 45.5092 33.3027 45.2359 33.3027 44.764V43.805C33.3077 43.2536 33.1686 43.025 32.632 43.025C32.0955 43.025 31.9613 43.2884 31.9613 43.7753V44.6993C31.9613 45.3502 32.1749 45.5191 32.6121 45.5191ZM31.7129 44.7043V43.7653C31.7129 43.0797 32.0557 42.7965 32.632 42.7965C32.9351 42.7965 33.1438 42.871 33.3027 43.0549V41.7035H33.5512V45.7377H33.3326L33.3077 45.4197C33.1686 45.6234 32.945 45.7526 32.5873 45.7526C31.9762 45.7526 31.7129 45.4645 31.7129 44.7043" fill="#7E3230"/>
<path shape-rendering="geometricPrecision" d="M35.5533 45.7377H35.3098V42.8064H35.5533V45.7377ZM35.6079 42.0711C35.6079 42.3046 35.2402 42.3096 35.2402 42.0711C35.2402 41.8376 35.6079 41.8326 35.6079 42.0711Z" fill="#7E3230"/>
<path shape-rendering="geometricPrecision" d="M38.7627 44.441C37.8138 44.3466 37.3716 44.4907 37.3716 44.9974C37.3716 45.37 37.5852 45.5291 38.0225 45.5291C38.5739 45.5291 38.7627 45.1117 38.7627 44.8136V44.441ZM38.7925 45.7377L38.7876 45.3502C38.5888 45.6732 38.3205 45.7626 37.933 45.7626C37.4561 45.7626 37.1232 45.544 37.1232 44.9925C37.1232 44.2721 37.7442 44.123 38.7627 44.2025V43.7852C38.7676 43.2685 38.5888 43.0499 38.1317 43.0499C37.7194 43.0499 37.5008 43.1791 37.5008 43.7305H37.2623C37.2623 43.1194 37.5057 42.8263 38.1317 42.8263C38.718 42.8263 39.0012 43.1045 39.0012 43.7802V45.7377H38.7925Z" fill="#7E3230"/>
<path shape-rendering="geometricPrecision" d="M23.5245 31.2968V35.7134C23.5245 37.7194 23.6054 39.127 26.3395 39.127C29.0735 39.127 29.1544 37.768 29.1544 35.7134V31.2968C29.1544 29.1774 29.0735 27.8832 26.3395 27.8832C23.6054 27.8832 23.5245 29.1289 23.5245 31.2968ZM22.7156 35.7619V31.2482C22.7156 28.3847 23.3303 27.139 26.3395 27.139C29.3486 27.139 29.9633 28.3847 29.9633 31.2644V35.7457C29.9633 38.5607 29.3001 39.8712 26.3395 39.8712C23.3789 39.8712 22.7156 38.5607 22.7156 35.7619" fill="white"/>
<path shape-rendering="geometricPrecision" d="M32.9239 27.9964V38.9652H35.1403C37.8744 38.9652 37.9553 37.7842 37.9553 35.6325V31.4747C37.9553 29.3069 37.8744 27.9964 35.1403 27.9964H32.9239ZM32.115 27.2684H35.1726C38.2141 27.2684 38.7642 28.5627 38.7642 31.5071V35.6325C38.7642 38.4798 38.1008 39.7579 35.1403 39.7579H32.115V27.2684Z" fill="white"/>
<path shape-rendering="geometricPrecision" d="M41.6111 39.7579H40.7537V27.2684H41.6111V39.7579Z" fill="white"/>
<path shape-rendering="geometricPrecision" d="M49.8943 39.7418H48.9559L44.6364 29.1451H44.604L44.7173 33.0602V39.7418H43.8599V27.2684H44.7173L49.1501 37.9783H49.1824L49.0368 33.5294V27.2684H49.8943V39.7418Z" fill="white"/>
<path shape-rendering="geometricPrecision" d="M22.9592 42.6287H23.1878L23.2126 42.8622C23.3666 42.6536 23.6101 42.574 23.9281 42.574C24.3553 42.574 24.6038 42.7529 24.7081 43.0014C24.9465 42.6386 25.2247 42.574 25.5427 42.574C26.2532 42.574 26.4321 42.9517 26.4321 43.6373V45.5153H26.1836V43.6323C26.1836 43.0162 26.0644 42.8026 25.5179 42.8026C24.9764 42.8026 24.8174 43.1405 24.8174 43.5578V45.5153H24.5689V43.6323C24.5689 43.0908 24.4497 42.8026 23.9032 42.8026C23.3617 42.8026 23.2077 43.056 23.2077 43.4634V45.5153H22.9592V42.6287Z" fill="white"/>
<path shape-rendering="geometricPrecision" d="M29.6517 43.8758V43.677C29.6517 43.1206 29.5524 42.7828 28.976 42.7828C28.4395 42.7828 28.2954 43.051 28.2954 43.6621V43.8758H29.6517ZM29.8356 44.7254C29.8356 45.252 29.5673 45.5302 28.976 45.5302C28.35 45.5302 28.0569 45.2421 28.0569 44.4521V43.6721C28.0569 42.8772 28.35 42.5741 28.976 42.5741C29.6468 42.5741 29.8703 42.907 29.8703 43.6721V44.1043H28.2954V44.4322C28.2954 45.0235 28.4345 45.3067 28.976 45.3067C29.5076 45.3067 29.612 45.0682 29.612 44.7254H29.8356Z" fill="white"/>
<path shape-rendering="geometricPrecision" d="M32.2944 45.2966C32.8011 45.2867 32.985 45.0134 32.985 44.5415V43.5826C32.9899 43.0311 32.8508 42.8026 32.3142 42.8026C31.7777 42.8026 31.6436 43.0659 31.6436 43.5528V44.4769C31.6436 45.1277 31.8572 45.2966 32.2944 45.2966ZM31.3951 44.4819V43.5428C31.3951 42.8572 31.7379 42.574 32.3142 42.574C32.6173 42.574 32.826 42.6485 32.985 42.8324V41.481H33.2334V45.5152H33.0148L32.9899 45.1973C32.8508 45.401 32.6273 45.5302 32.2696 45.5302C31.6584 45.5302 31.3951 45.242 31.3951 44.4819" fill="white"/>
<path shape-rendering="geometricPrecision" d="M35.2356 45.5153H34.9921V42.584H35.2356V45.5153ZM35.2903 41.8486C35.2903 42.0821 34.9226 42.0872 34.9226 41.8486C34.9226 41.6152 35.2903 41.6102 35.2903 41.8486Z" fill="white"/>
<path shape-rendering="geometricPrecision" d="M38.4449 44.2185C37.496 44.1241 37.0538 44.2682 37.0538 44.775C37.0538 45.1476 37.2675 45.3066 37.7047 45.3066C38.2561 45.3066 38.4449 44.8892 38.4449 44.5912V44.2185ZM38.4748 45.5152L38.4698 45.1277C38.2711 45.4507 38.0028 45.5401 37.6152 45.5401C37.1383 45.5401 36.8054 45.3215 36.8054 44.77C36.8054 44.0496 37.4265 43.9005 38.4449 43.98V43.5627C38.4499 43.046 38.2711 42.8274 37.814 42.8274C37.4016 42.8274 37.183 42.9566 37.183 43.5081H36.9446C36.9446 42.897 37.188 42.6039 37.814 42.6039C38.4002 42.6039 38.6835 42.8821 38.6835 43.5577V45.5152H38.4748Z" fill="white"/>
<defs>
<radialGradient id="paint0_radial" cx="0" cy="0" r="1" gradientUnits="userSpaceOnUse" gradientTransform="translate(36 36) rotate(90) scale(27)">
<stop stop-color="#E16139"/>
<stop offset="1" stop-color="#883531"/>
</radialGradient>
</defs>
</svg>
