<svg width="72" height="72" viewBox="0 0 72 72" fill="none" xmlns="http://www.w3.org/2000/svg">
<path d="M6.53523 43.7576C5.16279 43.7576 4.06381 43.4981 3.23829 42.9792C2.41276 42.45 2 41.6457 2 40.5663C2 39.9956 2.09803 39.5597 2.29409 39.2587C2.49016 38.9577 2.77909 38.8073 3.16089 38.8073C3.43951 38.8073 3.66653 38.8799 3.84195 39.0252C4.01738 39.1705 4.10509 39.3573 4.10509 39.5856C4.10509 39.7932 4.08961 39.9748 4.05865 40.1305C4.05865 40.172 4.04833 40.2446 4.0277 40.3484C4.01738 40.4522 4.01222 40.5612 4.01222 40.6753C4.01222 41.1423 4.2444 41.49 4.70875 41.7183C5.18343 41.9466 5.84385 42.0608 6.69001 42.0608C7.56713 42.0608 8.25335 41.9051 8.74867 41.5938C9.24398 41.2721 9.49164 40.8258 9.49164 40.255C9.49164 39.9021 9.37813 39.6012 9.15111 39.3521C8.92409 39.0927 8.64032 38.8799 8.29979 38.7139C7.95926 38.5374 7.47942 38.3247 6.86028 38.0756C6.06571 37.7643 5.41561 37.4685 4.90998 37.1883C4.41466 36.9081 3.98642 36.5293 3.62525 36.0519C3.2744 35.5641 3.09898 34.9622 3.09898 34.2461C3.09898 33.4989 3.29504 32.8347 3.68717 32.2535C4.08961 31.6723 4.66232 31.2209 5.40529 30.8992C6.15858 30.5775 7.04086 30.4166 8.05213 30.4166C8.80542 30.4166 9.4968 30.5308 10.1263 30.7591C10.7557 30.977 11.2562 31.3143 11.6277 31.7709C12.0095 32.2276 12.2004 32.788 12.2004 33.4522C12.2004 34.106 12.1024 34.599 11.9063 34.9311C11.7102 35.2632 11.4213 35.4292 11.0395 35.4292C10.7712 35.4292 10.5442 35.3462 10.3584 35.1801C10.183 35.0141 10.0953 34.8169 10.0953 34.5886C10.0953 34.3914 10.1108 34.2098 10.1417 34.0437C10.1727 33.7324 10.1882 33.5352 10.1882 33.4522C10.1882 33.0163 9.97664 32.6842 9.55355 32.4559C9.13047 32.2276 8.6042 32.1134 7.97474 32.1134C7.0873 32.1134 6.40624 32.2795 5.93156 32.6116C5.46721 32.9333 5.23503 33.3899 5.23503 33.9815C5.23503 34.3758 5.3537 34.7131 5.59103 34.9933C5.83869 35.2735 6.1431 35.507 6.50427 35.6938C6.86544 35.8807 7.37107 36.1038 8.02117 36.3632C8.80542 36.685 9.43489 36.9755 9.90956 37.235C10.3842 37.4944 10.7867 37.8473 11.1169 38.2936C11.4574 38.7398 11.6277 39.2898 11.6277 39.9437C11.6277 41.1683 11.1633 42.1127 10.2346 42.7769C9.31622 43.4307 8.08309 43.7576 6.53523 43.7576Z" fill="#009196"/>
<path d="M21.6324 40.6442C21.8698 40.6442 21.9884 40.805 21.9884 41.1268C21.9884 41.5315 21.8956 41.848 21.7098 42.0764C21.5344 42.3047 21.2919 42.4188 20.9823 42.4188L20.4096 42.4033C20.3064 42.3929 20.1568 42.3877 19.9607 42.3877C20.002 42.9792 20.0226 43.5708 20.0226 44.1623C20.0226 45.7294 19.8163 47.0941 19.4035 48.2565C19.0011 49.4188 18.3664 50 17.4996 50C16.9115 50 16.4626 49.6575 16.153 48.9726C15.8537 48.298 15.7041 47.4729 15.7041 46.4974C15.7041 45.2832 15.8383 44.0845 16.1066 42.9014C15.7557 43.4411 15.2965 43.7109 14.729 43.7109C14.1614 43.7109 13.6867 43.4722 13.3049 42.9948C12.9334 42.5174 12.7477 41.8999 12.7477 41.1423C12.7477 40.3225 12.9386 39.5441 13.3204 38.8073C13.7125 38.0704 14.2285 37.4789 14.8683 37.0326C15.5184 36.576 16.2098 36.3477 16.9424 36.3477C17.1901 36.3477 17.381 36.4307 17.5151 36.5967C17.608 36.2646 17.7473 36.0415 17.933 35.9274C18.1188 35.8132 18.3768 35.7561 18.707 35.7561C19.0578 35.7561 19.29 35.808 19.4035 35.9118C19.5273 36.0156 19.5841 36.166 19.5738 36.3632C19.5738 36.4878 19.5067 36.7784 19.3725 37.235C19.2487 37.6812 19.1662 37.977 19.1249 38.1223C18.9598 38.7035 18.7792 39.3469 18.5831 40.0526C18.3974 40.7583 18.2478 41.4018 18.1343 41.9829C17.804 43.6434 17.6389 45.1119 17.6389 46.3884C17.6389 46.8658 17.6751 47.2706 17.7473 47.6027C17.8298 47.9451 17.933 48.1164 18.0569 48.1164C18.1601 48.1164 18.2684 47.94 18.3819 47.5871C18.5057 47.2342 18.6089 46.762 18.6915 46.1705C18.774 45.5789 18.8153 44.9511 18.8153 44.2869C18.8153 43.4981 18.7792 42.7976 18.707 42.1853C18.6966 42.1334 18.6915 42.0504 18.6915 41.9362C18.6915 41.5938 18.774 41.3084 18.9391 41.0801C19.1146 40.8517 19.3571 40.7376 19.6666 40.7376C19.7079 40.7376 20.1 40.722 20.843 40.6909C21.1526 40.6597 21.4157 40.6442 21.6324 40.6442ZM15.3481 42.1386C15.5854 42.1386 15.8125 41.9933 16.0292 41.7027C16.2459 41.4018 16.4007 41.0437 16.4935 40.6286L17.1591 37.7954C16.7051 37.8058 16.2871 37.9666 15.9053 38.278C15.5339 38.5893 15.2346 39.0044 15.0076 39.5234C14.7909 40.0319 14.6825 40.5715 14.6825 41.1423C14.6825 41.464 14.7393 41.7131 14.8528 41.8895C14.9766 42.0556 15.1417 42.1386 15.3481 42.1386Z" fill="#009196"/>
<path d="M22.267 43.7109C21.8027 43.7109 21.4209 43.4981 21.1216 43.0726C20.8327 42.6368 20.6882 42.0971 20.6882 41.4537C20.6882 40.6753 20.7398 39.9644 20.843 39.321C20.9462 38.6672 21.1165 37.977 21.3538 37.2506C21.457 36.9392 21.6015 36.7161 21.7872 36.5812C21.973 36.4463 22.267 36.3788 22.6695 36.3788C22.8965 36.3788 23.0513 36.4151 23.1338 36.4878C23.2267 36.5604 23.2732 36.6694 23.2732 36.8147C23.2732 36.8977 23.2164 37.1779 23.1029 37.6553C22.9997 38.0393 22.9171 38.387 22.8552 38.6983C22.6488 39.788 22.5457 40.5145 22.5457 40.8777C22.5457 41.0956 22.5715 41.2513 22.623 41.3447C22.6746 41.4277 22.7572 41.4692 22.8707 41.4692C23.0255 41.4692 23.2164 41.3136 23.4434 41.0022C23.6808 40.6909 23.9284 40.2187 24.1864 39.5856C24.4547 38.9526 24.7127 38.1742 24.9603 37.2506C25.0429 36.9392 25.1667 36.7161 25.3318 36.5812C25.5072 36.4463 25.7652 36.3788 26.1057 36.3788C26.3431 36.3788 26.5082 36.4099 26.601 36.4722C26.6939 36.5241 26.7404 36.6279 26.7404 36.7835C26.7404 37.043 26.6114 37.7539 26.3534 38.9162C26.0645 40.2446 25.92 41.0645 25.92 41.3758C25.92 41.573 25.9613 41.7287 26.0438 41.8428C26.1264 41.9466 26.2347 41.9985 26.3689 41.9985C26.5753 41.9985 26.8178 41.874 27.0964 41.6249C27.3853 41.3655 27.7671 40.9503 28.2418 40.3795C28.3656 40.2342 28.5049 40.1616 28.6597 40.1616C28.7938 40.1616 28.897 40.2239 28.9693 40.3484C29.0518 40.4729 29.0931 40.6442 29.0931 40.8621C29.0931 41.2772 28.9951 41.599 28.799 41.8273C28.3553 42.3773 27.8755 42.8288 27.3595 43.1816C26.8539 43.5345 26.276 43.7109 25.6259 43.7109C25.1306 43.7109 24.7643 43.5189 24.5269 43.1349C24.2999 42.7509 24.1864 42.2113 24.1864 41.5159C24.011 42.2216 23.7478 42.7665 23.397 43.1505C23.0461 43.5241 22.6695 43.7109 22.267 43.7109Z" fill="#009196"/>
<path d="M29.7419 43.7109C29.1021 43.7109 28.5913 43.4774 28.2095 43.0104C27.8277 42.5434 27.6368 41.9311 27.6368 41.1735C27.6368 40.3432 27.8277 39.5597 28.2095 38.8228C28.5913 38.0756 29.0969 37.4789 29.7264 37.0326C30.3662 36.576 31.0421 36.3477 31.7541 36.3477C31.9811 36.3477 32.1307 36.3944 32.203 36.4878C32.2855 36.5708 32.3526 36.7265 32.4042 36.9548C32.6209 36.9133 32.8479 36.8925 33.0852 36.8925C33.5909 36.8925 33.8437 37.0741 33.8437 37.4374C33.8437 37.6553 33.7663 38.1742 33.6115 38.9941C33.3742 40.1875 33.2555 41.0178 33.2555 41.4848C33.2555 41.6405 33.2916 41.765 33.3639 41.8584C33.4464 41.9518 33.5496 41.9985 33.6734 41.9985C33.8695 41.9985 34.1068 41.874 34.3855 41.6249C34.6641 41.3655 35.0407 40.9503 35.5154 40.3795C35.6392 40.2342 35.7785 40.1616 35.9333 40.1616C36.0675 40.1616 36.1707 40.2239 36.2429 40.3484C36.3254 40.4729 36.3667 40.6442 36.3667 40.8621C36.3667 41.2772 36.2687 41.599 36.0726 41.8273C35.6495 42.3566 35.2007 42.8028 34.726 43.166C34.2513 43.5293 33.7921 43.7109 33.3484 43.7109C33.0079 43.7109 32.6931 43.5967 32.4042 43.3684C32.1256 43.1297 31.914 42.808 31.7696 42.4033C31.233 43.275 30.5571 43.7109 29.7419 43.7109ZM30.2991 42.1386C30.5261 42.1386 30.7428 42.0037 30.9492 41.7339C31.1556 41.464 31.3052 41.106 31.3981 40.6597L31.9708 37.7954C31.5374 37.8058 31.1349 37.9718 30.7635 38.2936C30.4023 38.6049 30.1134 39.02 29.8967 39.5389C29.68 40.0578 29.5716 40.6079 29.5716 41.189C29.5716 41.5107 29.6335 41.7494 29.7574 41.9051C29.8915 42.0608 30.0721 42.1386 30.2991 42.1386Z" fill="#009196"/>
<path d="M43.9006 40.1616C44.0347 40.1616 44.1379 40.2239 44.2101 40.3484C44.2927 40.4729 44.334 40.6442 44.334 40.8621C44.334 41.2772 44.2359 41.599 44.0399 41.8273C43.6168 42.3462 43.1524 42.7924 42.6468 43.166C42.1412 43.5293 41.6407 43.7109 41.1454 43.7109C40.3611 43.7109 39.7626 43.2491 39.3498 42.3254C38.9164 42.8755 38.5346 43.2439 38.2044 43.4307C37.8845 43.6175 37.5079 43.7109 37.0745 43.7109C36.445 43.7109 35.9239 43.4774 35.5112 43.0104C35.1087 42.533 34.9075 41.9155 34.9075 41.1579C34.9075 40.3277 35.0829 39.5597 35.4338 38.854C35.7846 38.1379 36.2644 37.5567 36.8733 37.1105C37.4924 36.6538 38.1838 36.384 38.9474 36.301C39.1435 34.2876 39.515 32.5701 40.0619 31.1483C40.6191 29.7161 41.3466 29 42.2443 29C42.6881 29 43.0544 29.2024 43.3433 29.6071C43.6426 30.0119 43.7922 30.6242 43.7922 31.444C43.7922 32.6064 43.5084 33.9659 42.9409 35.5226C42.3733 37.0793 41.6149 38.6775 40.6655 40.3173C40.7068 40.9192 40.7945 41.3499 40.9287 41.6093C41.0731 41.8688 41.2537 41.9985 41.4704 41.9985C41.749 41.9985 42.0328 41.874 42.3217 41.6249C42.6107 41.3758 42.9976 40.9607 43.4826 40.3795C43.6065 40.2342 43.7458 40.1616 43.9006 40.1616ZM42.0741 30.5256C41.878 30.5256 41.682 30.8784 41.4859 31.5841C41.2898 32.2795 41.1196 33.1927 40.9751 34.3239C40.841 35.4552 40.7429 36.6382 40.681 37.8732C41.8367 35.341 42.4146 33.3069 42.4146 31.7709C42.4146 31.3766 42.3785 31.0704 42.3063 30.8525C42.2443 30.6345 42.167 30.5256 42.0741 30.5256ZM37.6162 42.1386C37.8123 42.1386 38.0084 42.0608 38.2044 41.9051C38.4005 41.7391 38.6482 41.4381 38.9474 41.0022C38.8442 40.4418 38.7926 39.8139 38.7926 39.1186C38.7926 38.8695 38.8029 38.4648 38.8236 37.9044C38.256 38.0808 37.7814 38.4648 37.3995 39.0563C37.0281 39.6375 36.8423 40.2861 36.8423 41.0022C36.8423 41.7598 37.1003 42.1386 37.6162 42.1386Z" fill="#009196"/>
<path d="M44.1737 43.7109C43.7816 43.7109 43.503 43.5033 43.3379 43.0882C43.1831 42.6731 43.1057 42.0089 43.1057 41.0956C43.1057 39.7465 43.2966 38.4648 43.6784 37.2506C43.7713 36.9496 43.9209 36.7317 44.1273 36.5967C44.344 36.4514 44.6432 36.3788 45.025 36.3788C45.2314 36.3788 45.3759 36.4047 45.4585 36.4566C45.541 36.5085 45.5823 36.6071 45.5823 36.7524C45.5823 36.9185 45.5049 37.2921 45.3501 37.8732C45.2469 38.2884 45.1644 38.6516 45.1024 38.9629C45.0405 39.2743 44.9889 39.6583 44.9477 40.1149C45.2882 39.2224 45.67 38.4959 46.0931 37.9355C46.5162 37.3751 46.9289 36.9755 47.3314 36.7368C47.7441 36.4981 48.1208 36.3788 48.4613 36.3788C49.132 36.3788 49.4674 36.7161 49.4674 37.3907C49.4674 37.5256 49.421 37.8525 49.3281 38.3714C49.2455 38.7865 49.2043 39.046 49.2043 39.1497C49.2043 39.513 49.3333 39.6946 49.5912 39.6946C49.8802 39.6946 50.2517 39.4663 50.7057 39.0096C50.8398 38.8747 50.9791 38.8073 51.1236 38.8073C51.2578 38.8073 51.361 38.8695 51.4332 38.9941C51.5157 39.1082 51.557 39.2639 51.557 39.4611C51.557 39.8451 51.4538 40.146 51.2474 40.364C50.9585 40.6649 50.618 40.9244 50.2259 41.1423C49.8441 41.3499 49.4364 41.4537 49.003 41.4537C48.4561 41.4537 48.0382 41.3136 47.7493 41.0334C47.4707 40.7531 47.3314 40.3744 47.3314 39.897C47.3314 39.7413 47.3468 39.5856 47.3778 39.4299C47.3984 39.2224 47.4088 39.0823 47.4088 39.0096C47.4088 38.8436 47.352 38.7606 47.2385 38.7606C47.0837 38.7606 46.8773 38.937 46.6193 39.2898C46.3717 39.6323 46.124 40.089 45.8764 40.6597C45.6287 41.2305 45.4275 41.8325 45.2727 42.4655C45.1592 42.9533 45.0251 43.2854 44.8703 43.4618C44.7258 43.6279 44.4936 43.7109 44.1737 43.7109Z" fill="#009196"/>
<path d="M52.1464 35.3514C51.713 35.3514 51.388 35.2528 51.1713 35.0556C50.9546 34.848 50.8462 34.5626 50.8462 34.1994C50.8462 33.8362 50.9855 33.5352 51.2641 33.2965C51.5531 33.0474 51.9091 32.9229 52.3322 32.9229C52.714 32.9229 53.0235 33.0163 53.2609 33.2031C53.4982 33.3899 53.6169 33.6546 53.6169 33.997C53.6169 34.4122 53.4827 34.7443 53.2144 34.9933C52.9461 35.232 52.5901 35.3514 52.1464 35.3514ZM52.0226 43.7109C51.3518 43.7109 50.8617 43.4722 50.5521 42.9948C50.2529 42.5174 50.1032 41.8844 50.1032 41.0956C50.1032 40.6286 50.16 40.0319 50.2735 39.3054C50.3973 38.5686 50.5521 37.8836 50.7379 37.2506C50.8307 36.9185 50.9546 36.6901 51.1093 36.5656C51.2641 36.4411 51.5118 36.3788 51.8523 36.3788C52.3786 36.3788 52.6417 36.5552 52.6417 36.9081C52.6417 37.1675 52.5437 37.7695 52.3476 38.7139C52.1 39.8554 51.9761 40.6286 51.9761 41.0334C51.9761 41.3447 52.0174 41.5834 52.1 41.7494C52.1825 41.9155 52.3218 41.9985 52.5179 41.9985C52.7036 41.9985 52.9358 41.8688 53.2144 41.6093C53.4931 41.3499 53.8645 40.94 54.3289 40.3795C54.4527 40.2342 54.592 40.1616 54.7468 40.1616C54.881 40.1616 54.9842 40.2239 55.0564 40.3484C55.1389 40.4729 55.1802 40.6442 55.1802 40.8621C55.1802 41.2772 55.0822 41.599 54.8861 41.8273C53.8645 43.083 52.91 43.7109 52.0226 43.7109Z" fill="#009196"/>
<path d="M59.7943 40.1616C59.9284 40.1616 60.0316 40.2239 60.1039 40.3484C60.1864 40.4729 60.2277 40.6442 60.2277 40.8621C60.2277 41.2772 60.1297 41.599 59.9336 41.8273C59.4899 42.3773 59.0049 42.8288 58.4786 43.1816C57.9627 43.5345 57.3745 43.7109 56.7141 43.7109C55.806 43.7109 55.1301 43.2958 54.6864 42.4655C54.253 41.6353 54.0363 40.5612 54.0363 39.2431C54.0363 37.977 54.1962 36.5345 54.5161 34.9155C54.8463 33.2965 55.3261 31.9059 55.9556 30.7435C56.5954 29.5812 57.3538 29 58.231 29C58.7263 29 59.1132 29.2335 59.3918 29.7005C59.6808 30.1572 59.8252 30.8162 59.8252 31.6775C59.8252 32.9125 59.4847 34.3447 58.8037 35.9741C58.1226 37.6034 57.199 39.2172 56.033 40.8154C56.1052 41.2409 56.2239 41.5471 56.389 41.7339C56.5541 41.9103 56.7708 41.9985 57.0391 41.9985C57.4622 41.9985 57.8337 41.8792 58.1536 41.6405C58.4734 41.3914 58.8811 40.9711 59.3764 40.3795C59.5002 40.2342 59.6395 40.1616 59.7943 40.1616ZM57.8904 30.5411C57.6531 30.5411 57.3848 30.9718 57.0855 31.8332C56.7863 32.6946 56.5231 33.7635 56.2961 35.04C56.0691 36.3165 55.9453 37.5411 55.9246 38.7139C56.6573 37.4996 57.2403 36.2854 57.6737 35.0712C58.1071 33.8466 58.3238 32.7309 58.3238 31.7242C58.3238 30.9355 58.1794 30.5411 57.8904 30.5411Z" fill="#009196"/>
<path d="M64.843 40.1616C64.9771 40.1616 65.0803 40.2239 65.1525 40.3484C65.2351 40.4729 65.2764 40.6442 65.2764 40.8621C65.2764 41.2772 65.1783 41.599 64.9823 41.8273C64.5386 42.3773 64.0536 42.8288 63.5273 43.1816C63.0113 43.5345 62.4231 43.7109 61.7627 43.7109C60.8547 43.7109 60.1788 43.2958 59.735 42.4655C59.3016 41.6353 59.0849 40.5612 59.0849 39.2431C59.0849 37.977 59.2449 36.5345 59.5648 34.9155C59.895 33.2965 60.3748 31.9059 61.0043 30.7435C61.6441 29.5812 62.4025 29 63.2796 29C63.7749 29 64.1619 29.2335 64.4405 29.7005C64.7295 30.1572 64.8739 30.8162 64.8739 31.6775C64.8739 32.9125 64.5334 34.3447 63.8523 35.9741C63.1713 37.6034 62.2477 39.2172 61.0817 40.8154C61.1539 41.2409 61.2726 41.5471 61.4377 41.7339C61.6028 41.9103 61.8195 41.9985 62.0878 41.9985C62.5109 41.9985 62.8824 41.8792 63.2022 41.6405C63.5221 41.3914 63.9297 40.9711 64.425 40.3795C64.5489 40.2342 64.6882 40.1616 64.843 40.1616ZM62.9391 30.5411C62.7018 30.5411 62.4335 30.9718 62.1342 31.8332C61.835 32.6946 61.5718 33.7635 61.3448 35.04C61.1178 36.3165 60.994 37.5411 60.9733 38.7139C61.706 37.4996 62.289 36.2854 62.7224 35.0712C63.1558 33.8466 63.3725 32.7309 63.3725 31.7242C63.3725 30.9355 63.228 30.5411 62.9391 30.5411Z" fill="#009196"/>
<path d="M69.5666 40.6286C69.7008 40.6286 69.8039 40.6909 69.8762 40.8154C69.9587 40.94 70 41.1112 70 41.3291C70 41.7027 69.9123 42.0245 69.7369 42.2943C69.4479 42.7405 69.0661 43.0882 68.5915 43.3373C68.1271 43.5864 67.5699 43.7109 66.9198 43.7109C65.9291 43.7109 65.1604 43.4151 64.6135 42.8236C64.0665 42.2216 63.7931 41.4122 63.7931 40.3951C63.7931 39.679 63.9427 39.0148 64.242 38.4025C64.5412 37.7798 64.954 37.2869 65.4803 36.9236C66.0169 36.5604 66.6205 36.3788 67.2913 36.3788C67.8898 36.3788 68.3696 36.5604 68.7308 36.9236C69.0919 37.2765 69.2725 37.7591 69.2725 38.3714C69.2725 39.0875 69.0145 39.705 68.4986 40.2239C67.9929 40.7324 67.1261 41.1371 65.8982 41.4381C66.1458 41.9155 66.5638 42.1542 67.1519 42.1542C67.575 42.1542 67.9207 42.0556 68.189 41.8584C68.4676 41.6612 68.7875 41.3291 69.1487 40.8621C69.2725 40.7064 69.4118 40.6286 69.5666 40.6286ZM67.0281 37.9044C66.6463 37.9044 66.3213 38.1275 66.053 38.5738C65.795 39.02 65.666 39.5597 65.666 40.1927V40.2239C66.2748 40.0786 66.7547 39.8606 67.1055 39.5701C67.4564 39.2795 67.6318 38.9422 67.6318 38.5582C67.6318 38.361 67.575 38.2053 67.4615 38.0912C67.3583 37.9666 67.2139 37.9044 67.0281 37.9044Z" fill="#009196"/>
<path d="M6.53523 42.7576C5.16279 42.7576 4.06381 42.4981 3.23829 41.9792C2.41276 41.45 2 40.6457 2 39.5663C2 38.9956 2.09803 38.5597 2.29409 38.2587C2.49016 37.9577 2.77909 37.8073 3.16089 37.8073C3.43951 37.8073 3.66653 37.8799 3.84195 38.0252C4.01738 38.1705 4.10509 38.3573 4.10509 38.5856C4.10509 38.7932 4.08961 38.9748 4.05865 39.1305C4.05865 39.172 4.04833 39.2446 4.0277 39.3484C4.01738 39.4522 4.01222 39.5612 4.01222 39.6753C4.01222 40.1423 4.2444 40.49 4.70875 40.7183C5.18343 40.9466 5.84385 41.0608 6.69001 41.0608C7.56713 41.0608 8.25335 40.9051 8.74867 40.5938C9.24398 40.2721 9.49164 39.8258 9.49164 39.255C9.49164 38.9021 9.37813 38.6012 9.15111 38.3521C8.92409 38.0927 8.64032 37.8799 8.29979 37.7139C7.95926 37.5374 7.47942 37.3247 6.86028 37.0756C6.06571 36.7643 5.41561 36.4685 4.90998 36.1883C4.41466 35.9081 3.98642 35.5293 3.62525 35.0519C3.2744 34.5641 3.09898 33.9622 3.09898 33.2461C3.09898 32.4989 3.29504 31.8347 3.68717 31.2535C4.08961 30.6723 4.66232 30.2209 5.40529 29.8992C6.15858 29.5775 7.04086 29.4166 8.05213 29.4166C8.80542 29.4166 9.4968 29.5308 10.1263 29.7591C10.7557 29.977 11.2562 30.3143 11.6277 30.7709C12.0095 31.2276 12.2004 31.788 12.2004 32.4522C12.2004 33.106 12.1024 33.599 11.9063 33.9311C11.7102 34.2632 11.4213 34.4292 11.0395 34.4292C10.7712 34.4292 10.5442 34.3462 10.3584 34.1801C10.183 34.0141 10.0953 33.8169 10.0953 33.5886C10.0953 33.3914 10.1108 33.2098 10.1417 33.0437C10.1727 32.7324 10.1882 32.5352 10.1882 32.4522C10.1882 32.0163 9.97664 31.6842 9.55355 31.4559C9.13047 31.2276 8.6042 31.1134 7.97474 31.1134C7.0873 31.1134 6.40624 31.2795 5.93156 31.6116C5.46721 31.9333 5.23503 32.3899 5.23503 32.9815C5.23503 33.3758 5.3537 33.7131 5.59103 33.9933C5.83869 34.2735 6.1431 34.507 6.50427 34.6938C6.86544 34.8807 7.37107 35.1038 8.02117 35.3632C8.80542 35.685 9.43489 35.9755 9.90956 36.235C10.3842 36.4944 10.7867 36.8473 11.1169 37.2936C11.4574 37.7398 11.6277 38.2898 11.6277 38.9437C11.6277 40.1683 11.1633 41.1127 10.2346 41.7769C9.31622 42.4307 8.08309 42.7576 6.53523 42.7576Z" fill="#00E5E2"/>
<path d="M21.6324 39.6442C21.8698 39.6442 21.9884 39.805 21.9884 40.1268C21.9884 40.5315 21.8956 40.848 21.7098 41.0764C21.5344 41.3047 21.2919 41.4188 20.9823 41.4188L20.4096 41.4033C20.3064 41.3929 20.1568 41.3877 19.9607 41.3877C20.002 41.9792 20.0226 42.5708 20.0226 43.1623C20.0226 44.7294 19.8163 46.0941 19.4035 47.2565C19.0011 48.4188 18.3664 49 17.4996 49C16.9115 49 16.4626 48.6575 16.153 47.9726C15.8537 47.298 15.7041 46.4729 15.7041 45.4974C15.7041 44.2832 15.8383 43.0845 16.1066 41.9014C15.7557 42.4411 15.2965 42.7109 14.729 42.7109C14.1614 42.7109 13.6867 42.4722 13.3049 41.9948C12.9334 41.5174 12.7477 40.8999 12.7477 40.1423C12.7477 39.3225 12.9386 38.5441 13.3204 37.8073C13.7125 37.0704 14.2285 36.4789 14.8683 36.0326C15.5184 35.576 16.2098 35.3477 16.9424 35.3477C17.1901 35.3477 17.381 35.4307 17.5151 35.5967C17.608 35.2646 17.7473 35.0415 17.933 34.9274C18.1188 34.8132 18.3768 34.7561 18.707 34.7561C19.0578 34.7561 19.29 34.808 19.4035 34.9118C19.5273 35.0156 19.5841 35.166 19.5738 35.3632C19.5738 35.4878 19.5067 35.7784 19.3725 36.235C19.2487 36.6812 19.1662 36.977 19.1249 37.1223C18.9598 37.7035 18.7792 38.3469 18.5831 39.0526C18.3974 39.7583 18.2478 40.4018 18.1343 40.9829C17.804 42.6434 17.6389 44.1119 17.6389 45.3884C17.6389 45.8658 17.6751 46.2706 17.7473 46.6027C17.8298 46.9451 17.933 47.1164 18.0569 47.1164C18.1601 47.1164 18.2684 46.94 18.3819 46.5871C18.5057 46.2342 18.6089 45.762 18.6915 45.1705C18.774 44.5789 18.8153 43.9511 18.8153 43.2869C18.8153 42.4981 18.7792 41.7976 18.707 41.1853C18.6966 41.1334 18.6915 41.0504 18.6915 40.9362C18.6915 40.5938 18.774 40.3084 18.9391 40.0801C19.1146 39.8517 19.3571 39.7376 19.6666 39.7376C19.7079 39.7376 20.1 39.722 20.843 39.6909C21.1526 39.6597 21.4157 39.6442 21.6324 39.6442ZM15.3481 41.1386C15.5854 41.1386 15.8125 40.9933 16.0292 40.7027C16.2459 40.4018 16.4007 40.0437 16.4935 39.6286L17.1591 36.7954C16.7051 36.8058 16.2871 36.9666 15.9053 37.278C15.5339 37.5893 15.2346 38.0044 15.0076 38.5234C14.7909 39.0319 14.6825 39.5715 14.6825 40.1423C14.6825 40.464 14.7393 40.7131 14.8528 40.8895C14.9766 41.0556 15.1417 41.1386 15.3481 41.1386Z" fill="#00E5E2"/>
<path d="M22.267 42.7109C21.8027 42.7109 21.4209 42.4981 21.1216 42.0726C20.8327 41.6368 20.6882 41.0971 20.6882 40.4537C20.6882 39.6753 20.7398 38.9644 20.843 38.321C20.9462 37.6672 21.1165 36.977 21.3538 36.2506C21.457 35.9392 21.6015 35.7161 21.7872 35.5812C21.973 35.4463 22.267 35.3788 22.6695 35.3788C22.8965 35.3788 23.0513 35.4151 23.1338 35.4878C23.2267 35.5604 23.2732 35.6694 23.2732 35.8147C23.2732 35.8977 23.2164 36.1779 23.1029 36.6553C22.9997 37.0393 22.9171 37.387 22.8552 37.6983C22.6488 38.788 22.5457 39.5145 22.5457 39.8777C22.5457 40.0956 22.5715 40.2513 22.623 40.3447C22.6746 40.4277 22.7572 40.4692 22.8707 40.4692C23.0255 40.4692 23.2164 40.3136 23.4434 40.0022C23.6808 39.6909 23.9284 39.2187 24.1864 38.5856C24.4547 37.9526 24.7127 37.1742 24.9603 36.2506C25.0429 35.9392 25.1667 35.7161 25.3318 35.5812C25.5072 35.4463 25.7652 35.3788 26.1057 35.3788C26.3431 35.3788 26.5082 35.4099 26.601 35.4722C26.6939 35.5241 26.7404 35.6279 26.7404 35.7835C26.7404 36.043 26.6114 36.7539 26.3534 37.9162C26.0645 39.2446 25.92 40.0645 25.92 40.3758C25.92 40.573 25.9613 40.7287 26.0438 40.8428C26.1264 40.9466 26.2347 40.9985 26.3689 40.9985C26.5753 40.9985 26.8178 40.874 27.0964 40.6249C27.3853 40.3655 27.7671 39.9503 28.2418 39.3795C28.3656 39.2342 28.5049 39.1616 28.6597 39.1616C28.7938 39.1616 28.897 39.2239 28.9693 39.3484C29.0518 39.4729 29.0931 39.6442 29.0931 39.8621C29.0931 40.2772 28.9951 40.599 28.799 40.8273C28.3553 41.3773 27.8755 41.8288 27.3595 42.1816C26.8539 42.5345 26.276 42.7109 25.6259 42.7109C25.1306 42.7109 24.7643 42.5189 24.5269 42.1349C24.2999 41.7509 24.1864 41.2113 24.1864 40.5159C24.011 41.2216 23.7478 41.7665 23.397 42.1505C23.0461 42.5241 22.6695 42.7109 22.267 42.7109Z" fill="#00E5E2"/>
<path d="M29.7419 42.7109C29.1021 42.7109 28.5913 42.4774 28.2095 42.0104C27.8277 41.5434 27.6368 40.9311 27.6368 40.1735C27.6368 39.3432 27.8277 38.5597 28.2095 37.8228C28.5913 37.0756 29.0969 36.4789 29.7264 36.0326C30.3662 35.576 31.0421 35.3477 31.7541 35.3477C31.9811 35.3477 32.1307 35.3944 32.203 35.4878C32.2855 35.5708 32.3526 35.7265 32.4042 35.9548C32.6209 35.9133 32.8479 35.8925 33.0852 35.8925C33.5909 35.8925 33.8437 36.0741 33.8437 36.4374C33.8437 36.6553 33.7663 37.1742 33.6115 37.9941C33.3742 39.1875 33.2555 40.0178 33.2555 40.4848C33.2555 40.6405 33.2916 40.765 33.3639 40.8584C33.4464 40.9518 33.5496 40.9985 33.6734 40.9985C33.8695 40.9985 34.1068 40.874 34.3855 40.6249C34.6641 40.3655 35.0407 39.9503 35.5154 39.3795C35.6392 39.2342 35.7785 39.1616 35.9333 39.1616C36.0675 39.1616 36.1707 39.2239 36.2429 39.3484C36.3254 39.4729 36.3667 39.6442 36.3667 39.8621C36.3667 40.2772 36.2687 40.599 36.0726 40.8273C35.6495 41.3566 35.2007 41.8028 34.726 42.166C34.2513 42.5293 33.7921 42.7109 33.3484 42.7109C33.0079 42.7109 32.6931 42.5967 32.4042 42.3684C32.1256 42.1297 31.914 41.808 31.7696 41.4033C31.233 42.275 30.5571 42.7109 29.7419 42.7109ZM30.2991 41.1386C30.5261 41.1386 30.7428 41.0037 30.9492 40.7339C31.1556 40.464 31.3052 40.106 31.3981 39.6597L31.9708 36.7954C31.5374 36.8058 31.1349 36.9718 30.7635 37.2936C30.4023 37.6049 30.1134 38.02 29.8967 38.5389C29.68 39.0578 29.5716 39.6079 29.5716 40.189C29.5716 40.5107 29.6335 40.7494 29.7574 40.9051C29.8915 41.0608 30.0721 41.1386 30.2991 41.1386Z" fill="#00E5E2"/>
<path d="M43.9006 39.1616C44.0347 39.1616 44.1379 39.2239 44.2101 39.3484C44.2927 39.4729 44.334 39.6442 44.334 39.8621C44.334 40.2772 44.2359 40.599 44.0399 40.8273C43.6168 41.3462 43.1524 41.7924 42.6468 42.166C42.1412 42.5293 41.6407 42.7109 41.1454 42.7109C40.3611 42.7109 39.7626 42.2491 39.3498 41.3254C38.9164 41.8755 38.5346 42.2439 38.2044 42.4307C37.8845 42.6175 37.5079 42.7109 37.0745 42.7109C36.445 42.7109 35.9239 42.4774 35.5112 42.0104C35.1087 41.533 34.9075 40.9155 34.9075 40.1579C34.9075 39.3277 35.0829 38.5597 35.4338 37.854C35.7846 37.1379 36.2644 36.5567 36.8733 36.1105C37.4924 35.6538 38.1838 35.384 38.9474 35.301C39.1435 33.2876 39.515 31.5701 40.0619 30.1483C40.6191 28.7161 41.3466 28 42.2443 28C42.6881 28 43.0544 28.2024 43.3433 28.6071C43.6426 29.0119 43.7922 29.6242 43.7922 30.444C43.7922 31.6064 43.5084 32.9659 42.9409 34.5226C42.3733 36.0793 41.6149 37.6775 40.6655 39.3173C40.7068 39.9192 40.7945 40.3499 40.9287 40.6093C41.0731 40.8688 41.2537 40.9985 41.4704 40.9985C41.749 40.9985 42.0328 40.874 42.3217 40.6249C42.6107 40.3758 42.9976 39.9607 43.4826 39.3795C43.6065 39.2342 43.7458 39.1616 43.9006 39.1616ZM42.0741 29.5256C41.878 29.5256 41.682 29.8784 41.4859 30.5841C41.2898 31.2795 41.1196 32.1927 40.9751 33.3239C40.841 34.4552 40.7429 35.6382 40.681 36.8732C41.8367 34.341 42.4146 32.3069 42.4146 30.7709C42.4146 30.3766 42.3785 30.0704 42.3063 29.8525C42.2443 29.6345 42.167 29.5256 42.0741 29.5256ZM37.6162 41.1386C37.8123 41.1386 38.0084 41.0608 38.2044 40.9051C38.4005 40.7391 38.6482 40.4381 38.9474 40.0022C38.8442 39.4418 38.7926 38.8139 38.7926 38.1186C38.7926 37.8695 38.8029 37.4648 38.8236 36.9044C38.256 37.0808 37.7814 37.4648 37.3995 38.0563C37.0281 38.6375 36.8423 39.2861 36.8423 40.0022C36.8423 40.7598 37.1003 41.1386 37.6162 41.1386Z" fill="#00E5E2"/>
<path d="M44.1737 42.7109C43.7816 42.7109 43.503 42.5033 43.3379 42.0882C43.1831 41.6731 43.1057 41.0089 43.1057 40.0956C43.1057 38.7465 43.2966 37.4648 43.6784 36.2506C43.7713 35.9496 43.9209 35.7317 44.1273 35.5967C44.344 35.4514 44.6432 35.3788 45.025 35.3788C45.2314 35.3788 45.3759 35.4047 45.4585 35.4566C45.541 35.5085 45.5823 35.6071 45.5823 35.7524C45.5823 35.9185 45.5049 36.2921 45.3501 36.8732C45.2469 37.2884 45.1644 37.6516 45.1024 37.9629C45.0405 38.2743 44.9889 38.6583 44.9477 39.1149C45.2882 38.2224 45.67 37.4959 46.0931 36.9355C46.5162 36.3751 46.9289 35.9755 47.3314 35.7368C47.7441 35.4981 48.1208 35.3788 48.4613 35.3788C49.132 35.3788 49.4674 35.7161 49.4674 36.3907C49.4674 36.5256 49.421 36.8525 49.3281 37.3714C49.2455 37.7865 49.2043 38.046 49.2043 38.1497C49.2043 38.513 49.3333 38.6946 49.5912 38.6946C49.8802 38.6946 50.2517 38.4663 50.7057 38.0096C50.8398 37.8747 50.9791 37.8073 51.1236 37.8073C51.2578 37.8073 51.361 37.8695 51.4332 37.9941C51.5157 38.1082 51.557 38.2639 51.557 38.4611C51.557 38.8451 51.4538 39.146 51.2474 39.364C50.9585 39.6649 50.618 39.9244 50.2259 40.1423C49.8441 40.3499 49.4364 40.4537 49.003 40.4537C48.4561 40.4537 48.0382 40.3136 47.7493 40.0334C47.4707 39.7531 47.3314 39.3744 47.3314 38.897C47.3314 38.7413 47.3468 38.5856 47.3778 38.4299C47.3984 38.2224 47.4088 38.0823 47.4088 38.0096C47.4088 37.8436 47.352 37.7606 47.2385 37.7606C47.0837 37.7606 46.8773 37.937 46.6193 38.2898C46.3717 38.6323 46.124 39.089 45.8764 39.6597C45.6287 40.2305 45.4275 40.8325 45.2727 41.4655C45.1592 41.9533 45.0251 42.2854 44.8703 42.4618C44.7258 42.6279 44.4936 42.7109 44.1737 42.7109Z" fill="#00E5E2"/>
<path d="M52.1464 34.3514C51.713 34.3514 51.388 34.2528 51.1713 34.0556C50.9546 33.848 50.8462 33.5626 50.8462 33.1994C50.8462 32.8362 50.9855 32.5352 51.2641 32.2965C51.5531 32.0474 51.9091 31.9229 52.3322 31.9229C52.714 31.9229 53.0235 32.0163 53.2609 32.2031C53.4982 32.3899 53.6169 32.6546 53.6169 32.997C53.6169 33.4122 53.4827 33.7443 53.2144 33.9933C52.9461 34.232 52.5901 34.3514 52.1464 34.3514ZM52.0226 42.7109C51.3518 42.7109 50.8617 42.4722 50.5521 41.9948C50.2529 41.5174 50.1032 40.8844 50.1032 40.0956C50.1032 39.6286 50.16 39.0319 50.2735 38.3054C50.3973 37.5686 50.5521 36.8836 50.7379 36.2506C50.8307 35.9185 50.9546 35.6901 51.1093 35.5656C51.2641 35.4411 51.5118 35.3788 51.8523 35.3788C52.3786 35.3788 52.6417 35.5552 52.6417 35.9081C52.6417 36.1675 52.5437 36.7695 52.3476 37.7139C52.1 38.8554 51.9761 39.6286 51.9761 40.0334C51.9761 40.3447 52.0174 40.5834 52.1 40.7494C52.1825 40.9155 52.3218 40.9985 52.5179 40.9985C52.7036 40.9985 52.9358 40.8688 53.2144 40.6093C53.4931 40.3499 53.8645 39.94 54.3289 39.3795C54.4527 39.2342 54.592 39.1616 54.7468 39.1616C54.881 39.1616 54.9842 39.2239 55.0564 39.3484C55.1389 39.4729 55.1802 39.6442 55.1802 39.8621C55.1802 40.2772 55.0822 40.599 54.8861 40.8273C53.8645 42.083 52.91 42.7109 52.0226 42.7109Z" fill="#00E5E2"/>
<path d="M59.7943 39.1616C59.9284 39.1616 60.0316 39.2239 60.1039 39.3484C60.1864 39.4729 60.2277 39.6442 60.2277 39.8621C60.2277 40.2772 60.1297 40.599 59.9336 40.8273C59.4899 41.3773 59.0049 41.8288 58.4786 42.1816C57.9627 42.5345 57.3745 42.7109 56.7141 42.7109C55.806 42.7109 55.1301 42.2958 54.6864 41.4655C54.253 40.6353 54.0363 39.5612 54.0363 38.2431C54.0363 36.977 54.1962 35.5345 54.5161 33.9155C54.8463 32.2965 55.3261 30.9059 55.9556 29.7435C56.5954 28.5812 57.3538 28 58.231 28C58.7263 28 59.1132 28.2335 59.3918 28.7005C59.6808 29.1572 59.8252 29.8162 59.8252 30.6775C59.8252 31.9125 59.4847 33.3447 58.8037 34.9741C58.1226 36.6034 57.199 38.2172 56.033 39.8154C56.1052 40.2409 56.2239 40.5471 56.389 40.7339C56.5541 40.9103 56.7708 40.9985 57.0391 40.9985C57.4622 40.9985 57.8337 40.8792 58.1536 40.6405C58.4734 40.3914 58.8811 39.9711 59.3764 39.3795C59.5002 39.2342 59.6395 39.1616 59.7943 39.1616ZM57.8904 29.5411C57.6531 29.5411 57.3848 29.9718 57.0855 30.8332C56.7863 31.6946 56.5231 32.7635 56.2961 34.04C56.0691 35.3165 55.9453 36.5411 55.9246 37.7139C56.6573 36.4996 57.2403 35.2854 57.6737 34.0712C58.1071 32.8466 58.3238 31.7309 58.3238 30.7242C58.3238 29.9355 58.1794 29.5411 57.8904 29.5411Z" fill="#00E5E2"/>
<path d="M64.843 39.1616C64.9771 39.1616 65.0803 39.2239 65.1525 39.3484C65.2351 39.4729 65.2764 39.6442 65.2764 39.8621C65.2764 40.2772 65.1783 40.599 64.9823 40.8273C64.5386 41.3773 64.0536 41.8288 63.5273 42.1816C63.0113 42.5345 62.4231 42.7109 61.7627 42.7109C60.8547 42.7109 60.1788 42.2958 59.735 41.4655C59.3016 40.6353 59.0849 39.5612 59.0849 38.2431C59.0849 36.977 59.2449 35.5345 59.5648 33.9155C59.895 32.2965 60.3748 30.9059 61.0043 29.7435C61.6441 28.5812 62.4025 28 63.2796 28C63.7749 28 64.1619 28.2335 64.4405 28.7005C64.7295 29.1572 64.8739 29.8162 64.8739 30.6775C64.8739 31.9125 64.5334 33.3447 63.8523 34.9741C63.1713 36.6034 62.2477 38.2172 61.0817 39.8154C61.1539 40.2409 61.2726 40.5471 61.4377 40.7339C61.6028 40.9103 61.8195 40.9985 62.0878 40.9985C62.5109 40.9985 62.8824 40.8792 63.2022 40.6405C63.5221 40.3914 63.9297 39.9711 64.425 39.3795C64.5489 39.2342 64.6882 39.1616 64.843 39.1616ZM62.9391 29.5411C62.7018 29.5411 62.4335 29.9718 62.1342 30.8332C61.835 31.6946 61.5718 32.7635 61.3448 34.04C61.1178 35.3165 60.994 36.5411 60.9733 37.7139C61.706 36.4996 62.289 35.2854 62.7224 34.0712C63.1558 32.8466 63.3725 31.7309 63.3725 30.7242C63.3725 29.9355 63.228 29.5411 62.9391 29.5411Z" fill="#00E5E2"/>
<path d="M69.5666 39.6286C69.7008 39.6286 69.8039 39.6909 69.8762 39.8154C69.9587 39.94 70 40.1112 70 40.3291C70 40.7027 69.9123 41.0245 69.7369 41.2943C69.4479 41.7405 69.0661 42.0882 68.5915 42.3373C68.1271 42.5864 67.5699 42.7109 66.9198 42.7109C65.9291 42.7109 65.1604 42.4151 64.6135 41.8236C64.0665 41.2216 63.7931 40.4122 63.7931 39.3951C63.7931 38.679 63.9427 38.0148 64.242 37.4025C64.5412 36.7798 64.954 36.2869 65.4803 35.9236C66.0169 35.5604 66.6205 35.3788 67.2913 35.3788C67.8898 35.3788 68.3696 35.5604 68.7308 35.9236C69.0919 36.2765 69.2725 36.7591 69.2725 37.3714C69.2725 38.0875 69.0145 38.705 68.4986 39.2239C67.9929 39.7324 67.1261 40.1371 65.8982 40.4381C66.1458 40.9155 66.5638 41.1542 67.1519 41.1542C67.575 41.1542 67.9207 41.0556 68.189 40.8584C68.4676 40.6612 68.7875 40.3291 69.1487 39.8621C69.2725 39.7064 69.4118 39.6286 69.5666 39.6286ZM67.0281 36.9044C66.6463 36.9044 66.3213 37.1275 66.053 37.5738C65.795 38.02 65.666 38.5597 65.666 39.1927V39.2239C66.2748 39.0786 66.7547 38.8606 67.1055 38.5701C67.4564 38.2795 67.6318 37.9422 67.6318 37.5582C67.6318 37.361 67.575 37.2053 67.4615 37.0912C67.3583 36.9666 67.2139 36.9044 67.0281 36.9044Z" fill="#00E5E2"/>
</svg>
