<svg width="72" height="72" viewBox="0 0 72 72" fill="none" xmlns="http://www.w3.org/2000/svg">
<rect width="72" height="72" fill="white"/>
<path d="M28.6029 42.1938V43.6922H28.3444V42.4061H27.5752V43.6922H27.3198V42.1938H28.6029Z" fill="#4E4F50"/>
<path d="M29.305 42.1938L29.3266 42.4338C29.4086 42.3476 29.505 42.2799 29.6158 42.2307C29.7286 42.1815 29.8394 42.1569 29.9481 42.1569C30.1286 42.1569 30.2599 42.2225 30.342 42.3538C30.424 42.4851 30.465 42.684 30.465 42.9507C30.465 43.2338 30.4199 43.4348 30.3297 43.5538C30.2394 43.6707 30.0958 43.7292 29.8989 43.7292C29.6979 43.7292 29.5132 43.6779 29.345 43.5753C29.3532 43.6615 29.3553 43.762 29.3512 43.8769V44.3107H29.0927V42.1938H29.305ZM29.3512 42.6153V43.4092C29.5604 43.4707 29.7204 43.5015 29.8312 43.5015C29.9666 43.5015 30.0609 43.4635 30.1143 43.3876C30.1676 43.3117 30.1943 43.1661 30.1943 42.9507C30.1943 42.7415 30.1686 42.5948 30.1173 42.5107C30.0681 42.4266 29.984 42.3846 29.865 42.3846C29.7276 42.3846 29.5563 42.4615 29.3512 42.6153Z" fill="#4E4F50"/>
<path d="M31.5204 42.1569C31.7769 42.1569 31.9584 42.2163 32.0651 42.3353C32.1717 42.4543 32.2251 42.6574 32.2251 42.9446C32.2251 43.2317 32.1717 43.4348 32.0651 43.5538C31.9584 43.6728 31.7769 43.7322 31.5204 43.7322C31.262 43.7322 31.0794 43.6728 30.9728 43.5538C30.8661 43.4348 30.8128 43.2317 30.8128 42.9446C30.8128 42.6574 30.8661 42.4543 30.9728 42.3353C31.0794 42.2163 31.262 42.1569 31.5204 42.1569ZM31.5204 42.3784C31.3543 42.3784 31.2404 42.4184 31.1789 42.4984C31.1174 42.5784 31.0866 42.7271 31.0866 42.9446C31.0866 43.162 31.1174 43.3107 31.1789 43.3907C31.2404 43.4707 31.3543 43.5107 31.5204 43.5107C31.6846 43.5107 31.7974 43.4707 31.8589 43.3907C31.9204 43.3107 31.9512 43.162 31.9512 42.9446C31.9512 42.7271 31.9204 42.5784 31.8589 42.4984C31.7974 42.4184 31.6846 42.3784 31.5204 42.3784Z" fill="#4E4F50"/>
<path d="M33.9583 43.6922H33.7213V42.6984C33.7213 42.6738 33.7224 42.6379 33.7244 42.5907C33.7285 42.5415 33.7306 42.5107 33.7306 42.4984H33.7244C33.7019 42.5538 33.667 42.6122 33.6198 42.6738L32.8567 43.6922H32.6413V42.1938H32.8783V43.1876C32.8783 43.2471 32.8752 43.3138 32.869 43.3876H32.8752C32.908 43.3199 32.9439 43.2625 32.9829 43.2153L33.746 42.1938H33.9583V43.6922Z" fill="#4E4F50"/>
<path d="M34.3888 42.4153L34.3703 42.2153C34.4975 42.1846 34.6513 42.1692 34.8318 42.1692C35.0862 42.1692 35.2616 42.1969 35.358 42.2522C35.4565 42.3056 35.5057 42.4112 35.5057 42.5692C35.5057 42.6799 35.4821 42.763 35.4349 42.8184C35.3877 42.8738 35.3067 42.9066 35.1918 42.9169V42.9261C35.3211 42.9363 35.4144 42.9733 35.4718 43.0369C35.5313 43.1005 35.5611 43.1958 35.5611 43.323C35.5611 43.4769 35.5129 43.5815 35.4165 43.6369C35.32 43.6922 35.1539 43.7199 34.918 43.7199C34.6903 43.7199 34.4913 43.7046 34.3211 43.6738L34.3426 43.4738C34.5272 43.4902 34.7129 43.4984 34.8995 43.4984C35.0513 43.4984 35.1539 43.483 35.2072 43.4522C35.2626 43.4194 35.2903 43.3579 35.2903 43.2676C35.2903 43.1753 35.2616 43.1117 35.2042 43.0769C35.1488 43.042 35.0483 43.0246 34.9026 43.0246H34.5457V42.8307H34.9026C35.0359 42.8307 35.1262 42.8153 35.1734 42.7846C35.2226 42.7517 35.2472 42.6912 35.2472 42.603C35.2472 42.5169 35.2185 42.4605 35.1611 42.4338C35.1057 42.4051 34.997 42.3907 34.8349 42.3907C34.6585 42.3907 34.5098 42.3989 34.3888 42.4153Z" fill="#4E4F50"/>
<path d="M36.8906 42.9169V42.9261C37.026 42.9363 37.1224 42.9743 37.1798 43.0399C37.2373 43.1035 37.266 43.1979 37.266 43.323C37.266 43.4728 37.2208 43.5753 37.1306 43.6307C37.0424 43.6861 36.8875 43.7138 36.666 43.7138C36.3747 43.7138 36.1439 43.7076 35.9737 43.6953V42.1969C36.1234 42.1846 36.3265 42.1784 36.5829 42.1784C36.8208 42.1784 36.985 42.2061 37.0752 42.2615C37.1675 42.3169 37.2137 42.4225 37.2137 42.5784C37.2137 42.6851 37.188 42.7661 37.1367 42.8215C37.0855 42.8769 37.0034 42.9087 36.8906 42.9169ZM36.2198 42.8276H36.6137C36.745 42.8276 36.8362 42.8122 36.8875 42.7815C36.9388 42.7487 36.9644 42.6881 36.9644 42.5999C36.9644 42.5158 36.9357 42.4594 36.8783 42.4307C36.8229 42.3999 36.7214 42.3846 36.5737 42.3846C36.4321 42.3825 36.3142 42.3825 36.2198 42.3846V42.8276ZM36.2198 43.0153V43.5046C36.2506 43.5046 36.3121 43.5056 36.4044 43.5076C36.4967 43.5076 36.5716 43.5076 36.6291 43.5076C36.7706 43.5076 36.868 43.4912 36.9214 43.4584C36.9767 43.4256 37.0044 43.362 37.0044 43.2676C37.0044 43.1733 36.9757 43.1076 36.9183 43.0707C36.8608 43.0338 36.7593 43.0153 36.6137 43.0153H36.2198Z" fill="#4E4F50"/>
<path d="M38.3143 42.1569C38.5707 42.1569 38.7523 42.2163 38.8589 42.3353C38.9656 42.4543 39.0189 42.6574 39.0189 42.9446C39.0189 43.2317 38.9656 43.4348 38.8589 43.5538C38.7523 43.6728 38.5707 43.7322 38.3143 43.7322C38.0559 43.7322 37.8733 43.6728 37.7666 43.5538C37.66 43.4348 37.6066 43.2317 37.6066 42.9446C37.6066 42.6574 37.66 42.4543 37.7666 42.3353C37.8733 42.2163 38.0559 42.1569 38.3143 42.1569ZM38.3143 42.3784C38.1482 42.3784 38.0343 42.4184 37.9728 42.4984C37.9112 42.5784 37.8805 42.7271 37.8805 42.9446C37.8805 43.162 37.9112 43.3107 37.9728 43.3907C38.0343 43.4707 38.1482 43.5107 38.3143 43.5107C38.4784 43.5107 38.5912 43.4707 38.6528 43.3907C38.7143 43.3107 38.7451 43.162 38.7451 42.9446C38.7451 42.7271 38.7143 42.5784 38.6528 42.4984C38.5912 42.4184 38.4784 42.3784 38.3143 42.3784Z" fill="#4E4F50"/>
<path d="M40.8423 43.483V44.1353H40.67L40.6485 43.6922H39.4361L39.4115 44.1353H39.2423V43.483H39.4146C39.5397 43.2307 39.6146 42.9158 39.6392 42.5384C39.6556 42.3087 39.7828 42.1938 40.0208 42.1938H40.6361V43.483H40.8423ZM40.3869 43.483V42.3999H40.0638C39.949 42.3999 39.8864 42.4605 39.8761 42.5815C39.8495 42.9548 39.7746 43.2553 39.6515 43.483H40.3869Z" fill="#4E4F50"/>
<path d="M42.3282 43.4769L42.3528 43.6522C42.2072 43.7035 42.0369 43.7292 41.842 43.7292C41.5815 43.7292 41.3979 43.6707 41.2913 43.5538C41.1846 43.4348 41.1313 43.2307 41.1313 42.9415C41.1313 42.6543 41.1846 42.4522 41.2913 42.3353C41.4 42.2163 41.5836 42.1569 41.842 42.1569C42.039 42.1569 42.2 42.1805 42.3251 42.2276L42.2913 42.3969C42.1559 42.3846 42.0205 42.3784 41.8851 42.3784C41.7067 42.3784 41.5815 42.4184 41.5097 42.4984C41.44 42.5784 41.4051 42.7261 41.4051 42.9415C41.4051 43.1589 41.44 43.3076 41.5097 43.3876C41.5795 43.4676 41.7046 43.5076 41.8851 43.5076C42.0513 43.5076 42.199 43.4974 42.3282 43.4769Z" fill="#4E4F50"/>
<path d="M43.9011 42.4092H43.3595V43.6922H43.098V42.4092H42.5534V42.1938H43.9011V42.4092Z" fill="#4E4F50"/>
<path d="M45.1418 42.9169V42.9261C45.2772 42.9363 45.3736 42.9743 45.431 43.0399C45.4885 43.1035 45.5172 43.1979 45.5172 43.323C45.5172 43.4728 45.472 43.5753 45.3818 43.6307C45.2936 43.6861 45.1387 43.7138 44.9172 43.7138C44.6259 43.7138 44.3951 43.7076 44.2249 43.6953V42.1969C44.3746 42.1846 44.5777 42.1784 44.8341 42.1784C45.0721 42.1784 45.2362 42.2061 45.3264 42.2615C45.4187 42.3169 45.4649 42.4225 45.4649 42.5784C45.4649 42.6851 45.4392 42.7661 45.3879 42.8215C45.3367 42.8769 45.2546 42.9087 45.1418 42.9169ZM44.471 42.8276H44.8649C44.9962 42.8276 45.0874 42.8122 45.1387 42.7815C45.19 42.7487 45.2156 42.6881 45.2156 42.5999C45.2156 42.5158 45.1869 42.4594 45.1295 42.4307C45.0741 42.3999 44.9726 42.3846 44.8249 42.3846C44.6833 42.3825 44.5654 42.3825 44.471 42.3846V42.8276ZM44.471 43.0153V43.5046C44.5018 43.5046 44.5633 43.5056 44.6556 43.5076C44.7479 43.5076 44.8228 43.5076 44.8803 43.5076C45.0218 43.5076 45.1192 43.4912 45.1726 43.4584C45.2279 43.4256 45.2556 43.362 45.2556 43.2676C45.2556 43.1733 45.2269 43.1076 45.1695 43.0707C45.1121 43.0338 45.0105 43.0153 44.8649 43.0153H44.471Z" fill="#4E4F50"/>
<path d="M46.5655 42.1569C46.8219 42.1569 47.0035 42.2163 47.1101 42.3353C47.2168 42.4543 47.2701 42.6574 47.2701 42.9446C47.2701 43.2317 47.2168 43.4348 47.1101 43.5538C47.0035 43.6728 46.8219 43.7322 46.5655 43.7322C46.3071 43.7322 46.1245 43.6728 46.0178 43.5538C45.9112 43.4348 45.8578 43.2317 45.8578 42.9446C45.8578 42.6574 45.9112 42.4543 46.0178 42.3353C46.1245 42.2163 46.3071 42.1569 46.5655 42.1569ZM46.5655 42.3784C46.3994 42.3784 46.2855 42.4184 46.224 42.4984C46.1624 42.5784 46.1317 42.7271 46.1317 42.9446C46.1317 43.162 46.1624 43.3107 46.224 43.3907C46.2855 43.4707 46.3994 43.5107 46.5655 43.5107C46.7296 43.5107 46.8424 43.4707 46.904 43.3907C46.9655 43.3107 46.9963 43.162 46.9963 42.9446C46.9963 42.7271 46.9655 42.5784 46.904 42.4984C46.8424 42.4184 46.7296 42.3784 46.5655 42.3784Z" fill="#4E4F50"/>
<path d="M49.6546 42.1938V43.6922H49.3961V42.4061H48.6269V43.6922H48.3715V42.1938H49.6546Z" fill="#4E4F50"/>
<path d="M50.3567 42.1938L50.3783 42.4338C50.4603 42.3476 50.5567 42.2799 50.6675 42.2307C50.7803 42.1815 50.8911 42.1569 50.9998 42.1569C51.1803 42.1569 51.3116 42.2225 51.3936 42.3538C51.4757 42.4851 51.5167 42.684 51.5167 42.9507C51.5167 43.2338 51.4716 43.4348 51.3813 43.5538C51.2911 43.6707 51.1475 43.7292 50.9506 43.7292C50.7495 43.7292 50.5649 43.6779 50.3967 43.5753C50.4049 43.6615 50.407 43.762 50.4029 43.8769V44.3107H50.1444V42.1938H50.3567ZM50.4029 42.6153V43.4092C50.6121 43.4707 50.7721 43.5015 50.8829 43.5015C51.0183 43.5015 51.1126 43.4635 51.166 43.3876C51.2193 43.3117 51.246 43.1661 51.246 42.9507C51.246 42.7415 51.2203 42.5948 51.169 42.5107C51.1198 42.4266 51.0357 42.3846 50.9167 42.3846C50.7793 42.3846 50.608 42.4615 50.4029 42.6153Z" fill="#4E4F50"/>
<path d="M52.5721 42.1569C52.8285 42.1569 53.0101 42.2163 53.1167 42.3353C53.2234 42.4543 53.2767 42.6574 53.2767 42.9446C53.2767 43.2317 53.2234 43.4348 53.1167 43.5538C53.0101 43.6728 52.8285 43.7322 52.5721 43.7322C52.3137 43.7322 52.1311 43.6728 52.0244 43.5538C51.9178 43.4348 51.8644 43.2317 51.8644 42.9446C51.8644 42.6574 51.9178 42.4543 52.0244 42.3353C52.1311 42.2163 52.3137 42.1569 52.5721 42.1569ZM52.5721 42.3784C52.406 42.3784 52.2921 42.4184 52.2306 42.4984C52.1691 42.5784 52.1383 42.7271 52.1383 42.9446C52.1383 43.162 52.1691 43.3107 52.2306 43.3907C52.2921 43.4707 52.406 43.5107 52.5721 43.5107C52.7362 43.5107 52.8491 43.4707 52.9106 43.3907C52.9721 43.3107 53.0029 43.162 53.0029 42.9446C53.0029 42.7271 52.9721 42.5784 52.9106 42.4984C52.8491 42.4184 52.7362 42.3784 52.5721 42.3784Z" fill="#4E4F50"/>
<path d="M55.1023 42.1938H55.3761C55.4417 42.1938 55.4746 42.2266 55.4746 42.2922L55.5392 43.6922H55.2961L55.2376 42.3938H55.1853L54.8038 43.443C54.7853 43.5005 54.7505 43.5292 54.6992 43.5292H54.4961C54.4448 43.5292 54.4099 43.5005 54.3915 43.443L54.0099 42.3938H53.9576L53.9023 43.6922H53.6623L53.7238 42.2922C53.7238 42.2266 53.7576 42.1938 53.8253 42.1938H54.0961C54.1474 42.1938 54.1812 42.2225 54.1976 42.2799L54.5084 43.1415C54.5289 43.1989 54.5505 43.2707 54.573 43.3569H54.6222C54.651 43.2563 54.6725 43.1846 54.6869 43.1415L54.9976 42.2799C55.0161 42.2225 55.051 42.1938 55.1023 42.1938Z" fill="#4E4F50"/>
<path d="M56.2501 42.7753H56.6039C56.8255 42.7753 56.9783 42.8092 57.0624 42.8769C57.1465 42.9446 57.1885 43.0666 57.1885 43.243C57.1885 43.4215 57.1475 43.5446 57.0655 43.6122C56.9834 43.6779 56.8429 43.7107 56.6439 43.7107C56.3752 43.7107 56.1619 43.7046 56.0039 43.6922H55.9947V42.1938H56.2501V42.7753ZM57.727 42.1938V43.6922H57.4624V42.1938H57.727ZM56.2501 43.5015L56.6039 43.5046C56.725 43.5046 56.808 43.4871 56.8532 43.4522C56.9003 43.4153 56.9239 43.3425 56.9239 43.2338C56.9239 43.1333 56.9014 43.0646 56.8562 43.0276C56.8111 42.9887 56.727 42.9692 56.6039 42.9692H56.2501V43.5015Z" fill="#4E4F50"/>
<path d="M60.203 42.1938V43.6922H58.2122V42.1938H58.4676V43.483H59.0892V42.1938H59.3261V43.483H59.9507V42.1938H60.203Z" fill="#4E4F50"/>
<path d="M61.9312 42.1938V43.6922H61.6697V42.3999H61.3435C61.2799 42.3999 61.2338 42.4143 61.2051 42.443C61.1784 42.4697 61.1599 42.5179 61.1497 42.5876C61.1004 42.9856 61.0522 43.2481 61.0051 43.3753C60.9292 43.5948 60.7722 43.7056 60.5343 43.7076L60.5066 43.5076C60.5866 43.4892 60.6451 43.4646 60.682 43.4338C60.7189 43.401 60.7487 43.3558 60.7712 43.2984C60.8204 43.1733 60.8646 42.922 60.9035 42.5446C60.9179 42.4256 60.9558 42.3374 61.0174 42.2799C61.0789 42.2225 61.1712 42.1938 61.2943 42.1938H61.9312Z" fill="#4E4F50"/>
<path d="M63.3236 43.0707H62.6251C62.6395 43.243 62.6815 43.3589 62.7513 43.4184C62.821 43.4779 62.9359 43.5076 63.0959 43.5076C63.2682 43.5076 63.4426 43.4953 63.619 43.4707L63.6436 43.6461C63.5123 43.7015 63.3185 43.7292 63.0621 43.7292C62.8036 43.7292 62.62 43.6697 62.5113 43.5507C62.4026 43.4297 62.3482 43.2256 62.3482 42.9384C62.3482 42.6492 62.4015 42.4471 62.5082 42.3322C62.6149 42.2153 62.7903 42.1569 63.0344 42.1569C63.258 42.1569 63.421 42.1979 63.5236 42.2799C63.6262 42.3599 63.6785 42.482 63.6805 42.6461C63.6805 42.9292 63.5615 43.0707 63.3236 43.0707ZM62.6221 42.8676H63.2559C63.3667 42.8676 63.42 42.7938 63.4159 42.6461C63.4159 42.5497 63.3882 42.481 63.3328 42.4399C63.2774 42.3989 63.1821 42.3784 63.0467 42.3784C62.8887 42.3784 62.779 42.4133 62.7174 42.483C62.6559 42.5528 62.6241 42.681 62.6221 42.8676Z" fill="#4E4F50"/>
<path d="M65.3853 42.1938V43.6922H65.1268V42.9969H64.3391V43.6922H64.0806V42.1938H64.3391V42.7969H65.1268V42.1938H65.3853Z" fill="#4E4F50"/>
<path d="M67.1761 42.1938V43.6922H66.9177V42.9969H66.13V43.6922H65.8715V42.1938H66.13V42.7969H66.9177V42.1938H67.1761Z" fill="#4E4F50"/>
<path d="M67.9178 42.7753H68.2716C68.4931 42.7753 68.646 42.8092 68.7301 42.8769C68.8142 42.9446 68.8562 43.0666 68.8562 43.243C68.8562 43.4215 68.8152 43.5446 68.7331 43.6122C68.6511 43.6779 68.5106 43.7107 68.3116 43.7107C68.0429 43.7107 67.8295 43.7046 67.6716 43.6922H67.6624V42.1938H67.9178V42.7753ZM69.3947 42.1938V43.6922H69.1301V42.1938H69.3947ZM67.9178 43.5015L68.2716 43.5046C68.3926 43.5046 68.4757 43.4871 68.5208 43.4522C68.568 43.4153 68.5916 43.3425 68.5916 43.2338C68.5916 43.1333 68.569 43.0646 68.5239 43.0276C68.4788 42.9887 68.3947 42.9692 68.2716 42.9692H67.9178V43.5015Z" fill="#4E4F50"/>
<path d="M70.4861 43.0153H70.4245L69.9968 43.6922H69.7107L70.2122 42.9199L69.7507 42.1938H70.0338L70.4184 42.8122H70.4891L70.8768 42.1938H71.1599L70.6953 42.9199L71.1968 43.6922H70.9107L70.4861 43.0153Z" fill="#4E4F50"/>
<path d="M28.2367 46.6092V46.6184C28.3721 46.6287 28.4685 46.6666 28.526 46.7322C28.5834 46.7958 28.6121 46.8902 28.6121 47.0153C28.6121 47.1651 28.567 47.2676 28.4767 47.323C28.3885 47.3784 28.2337 47.4061 28.0121 47.4061C27.7208 47.4061 27.4901 47.3999 27.3198 47.3876V45.8892C27.4696 45.8769 27.6726 45.8707 27.9291 45.8707C28.167 45.8707 28.3311 45.8984 28.4214 45.9538C28.5137 46.0092 28.5598 46.1148 28.5598 46.2707C28.5598 46.3774 28.5342 46.4584 28.4829 46.5138C28.4316 46.5692 28.3496 46.601 28.2367 46.6092ZM27.566 46.5199H27.9598C28.0911 46.5199 28.1824 46.5046 28.2337 46.4738C28.285 46.441 28.3106 46.3804 28.3106 46.2922C28.3106 46.2081 28.2819 46.1517 28.2244 46.123C28.1691 46.0922 28.0675 46.0769 27.9198 46.0769C27.7783 46.0748 27.6603 46.0748 27.566 46.0769V46.5199ZM27.566 46.7076V47.1969C27.5967 47.1969 27.6583 47.1979 27.7506 47.1999C27.8429 47.1999 27.9178 47.1999 27.9752 47.1999C28.1167 47.1999 28.2142 47.1835 28.2675 47.1507C28.3229 47.1179 28.3506 47.0543 28.3506 46.9599C28.3506 46.8656 28.3219 46.7999 28.2644 46.763C28.207 46.7261 28.1055 46.7076 27.9598 46.7076H27.566Z" fill="#4E4F50"/>
<path d="M29.6605 45.8492C29.9169 45.8492 30.0984 45.9087 30.2051 46.0276C30.3118 46.1466 30.3651 46.3497 30.3651 46.6369C30.3651 46.924 30.3118 47.1271 30.2051 47.2461C30.0984 47.3651 29.9169 47.4246 29.6605 47.4246C29.402 47.4246 29.2194 47.3651 29.1128 47.2461C29.0061 47.1271 28.9528 46.924 28.9528 46.6369C28.9528 46.3497 29.0061 46.1466 29.1128 46.0276C29.2194 45.9087 29.402 45.8492 29.6605 45.8492ZM29.6605 46.0707C29.4943 46.0707 29.3805 46.1107 29.3189 46.1907C29.2574 46.2707 29.2266 46.4194 29.2266 46.6369C29.2266 46.8543 29.2574 47.003 29.3189 47.083C29.3805 47.163 29.4943 47.203 29.6605 47.203C29.8246 47.203 29.9374 47.163 29.9989 47.083C30.0605 47.003 30.0912 46.8543 30.0912 46.6369C30.0912 46.4194 30.0605 46.2707 29.9989 46.1907C29.9374 46.1107 29.8246 46.0707 29.6605 46.0707Z" fill="#4E4F50"/>
<path d="M30.7049 46.1076L30.6864 45.9076C30.8136 45.8769 30.9674 45.8615 31.1479 45.8615C31.4023 45.8615 31.5777 45.8892 31.6741 45.9446C31.7726 45.9979 31.8218 46.1035 31.8218 46.2615C31.8218 46.3722 31.7982 46.4553 31.751 46.5107C31.7038 46.5661 31.6228 46.5989 31.5079 46.6092V46.6184C31.6372 46.6287 31.7305 46.6656 31.7879 46.7292C31.8474 46.7928 31.8772 46.8881 31.8772 47.0153C31.8772 47.1692 31.829 47.2738 31.7326 47.3292C31.6362 47.3846 31.47 47.4122 31.2341 47.4122C31.0064 47.4122 30.8074 47.3969 30.6372 47.3661L30.6587 47.1661C30.8433 47.1825 31.029 47.1907 31.2156 47.1907C31.3674 47.1907 31.47 47.1753 31.5233 47.1446C31.5787 47.1117 31.6064 47.0502 31.6064 46.9599C31.6064 46.8676 31.5777 46.804 31.5203 46.7692C31.4649 46.7343 31.3644 46.7169 31.2187 46.7169H30.8618V46.523H31.2187C31.3521 46.523 31.4423 46.5076 31.4895 46.4769C31.5387 46.444 31.5633 46.3835 31.5633 46.2953C31.5633 46.2092 31.5346 46.1528 31.4772 46.1261C31.4218 46.0974 31.3131 46.083 31.151 46.083C30.9746 46.083 30.8259 46.0912 30.7049 46.1076Z" fill="#4E4F50"/>
<path d="M33.7209 47.1753V47.8276H33.5486L33.5271 47.3846H32.3148L32.2901 47.8276H32.1209V47.1753H32.2932C32.4183 46.923 32.4932 46.6081 32.5178 46.2307C32.5342 46.001 32.6614 45.8861 32.8994 45.8861H33.5148V47.1753H33.7209ZM33.2655 47.1753V46.0922H32.9424C32.8276 46.0922 32.765 46.1528 32.7548 46.2738C32.7281 46.6471 32.6532 46.9476 32.5301 47.1753H33.2655Z" fill="#4E4F50"/>
<path d="M35.3798 45.8861L34.7829 47.4676C34.7029 47.6769 34.6085 47.8225 34.4998 47.9046C34.3685 48.003 34.1829 48.0358 33.9429 48.003L33.9675 47.8215C34.1296 47.8297 34.2496 47.8071 34.3275 47.7538C34.4116 47.6943 34.4814 47.5928 34.5367 47.4492L34.5644 47.3846H34.506C34.4588 47.3846 34.427 47.362 34.4106 47.3169L33.8691 45.8861H34.1491L34.546 47.003C34.5685 47.0707 34.587 47.1312 34.6014 47.1846H34.6444C34.6588 47.1435 34.6793 47.083 34.706 47.003L35.0998 45.8861H35.3798Z" fill="#4E4F50"/>
<path d="M36.2944 46.7076H36.2328L35.8051 47.3846H35.519L36.0205 46.6122L35.559 45.8861H35.8421L36.2267 46.5046H36.2974L36.6851 45.8861H36.9682L36.5036 46.6122L37.0051 47.3846H36.719L36.2944 46.7076Z" fill="#4E4F50"/>
<path d="M37.9267 45.8492C38.1831 45.8492 38.3646 45.9087 38.4713 46.0276C38.578 46.1466 38.6313 46.3497 38.6313 46.6369C38.6313 46.924 38.578 47.1271 38.4713 47.2461C38.3646 47.3651 38.1831 47.4246 37.9267 47.4246C37.6682 47.4246 37.4857 47.3651 37.379 47.2461C37.2723 47.1271 37.219 46.924 37.219 46.6369C37.219 46.3497 37.2723 46.1466 37.379 46.0276C37.4857 45.9087 37.6682 45.8492 37.9267 45.8492ZM37.9267 46.0707C37.7605 46.0707 37.6467 46.1107 37.5852 46.1907C37.5236 46.2707 37.4929 46.4194 37.4929 46.6369C37.4929 46.8543 37.5236 47.003 37.5852 47.083C37.6467 47.163 37.7605 47.203 37.9267 47.203C38.0908 47.203 38.2036 47.163 38.2652 47.083C38.3267 47.003 38.3575 46.8543 38.3575 46.6369C38.3575 46.4194 38.3267 46.2707 38.2652 46.1907C38.2036 46.1107 38.0908 46.0707 37.9267 46.0707Z" fill="#4E4F50"/>
<path d="M39.9645 46.6092V46.6184C40.0999 46.6287 40.1963 46.6666 40.2537 46.7322C40.3112 46.7958 40.3399 46.8902 40.3399 47.0153C40.3399 47.1651 40.2948 47.2676 40.2045 47.323C40.1163 47.3784 39.9614 47.4061 39.7399 47.4061C39.4486 47.4061 39.2178 47.3999 39.0476 47.3876V45.8892C39.1973 45.8769 39.4004 45.8707 39.6568 45.8707C39.8948 45.8707 40.0589 45.8984 40.1491 45.9538C40.2414 46.0092 40.2876 46.1148 40.2876 46.2707C40.2876 46.3774 40.2619 46.4584 40.2107 46.5138C40.1594 46.5692 40.0773 46.601 39.9645 46.6092ZM39.2937 46.5199H39.6876C39.8189 46.5199 39.9102 46.5046 39.9614 46.4738C40.0127 46.441 40.0384 46.3804 40.0384 46.2922C40.0384 46.2081 40.0096 46.1517 39.9522 46.123C39.8968 46.0922 39.7953 46.0769 39.6476 46.0769C39.5061 46.0748 39.3881 46.0748 39.2937 46.0769V46.5199ZM39.2937 46.7076V47.1969C39.3245 47.1969 39.3861 47.1979 39.4784 47.1999C39.5707 47.1999 39.6455 47.1999 39.703 47.1999C39.8445 47.1999 39.9419 47.1835 39.9953 47.1507C40.0507 47.1179 40.0784 47.0543 40.0784 46.9599C40.0784 46.8656 40.0496 46.7999 39.9922 46.763C39.9348 46.7261 39.8332 46.7076 39.6876 46.7076H39.2937Z" fill="#4E4F50"/>
<path d="M41.3882 45.8492C41.6446 45.8492 41.8262 45.9087 41.9329 46.0276C42.0395 46.1466 42.0929 46.3497 42.0929 46.6369C42.0929 46.924 42.0395 47.1271 41.9329 47.2461C41.8262 47.3651 41.6446 47.4246 41.3882 47.4246C41.1298 47.4246 40.9472 47.3651 40.8405 47.2461C40.7339 47.1271 40.6805 46.924 40.6805 46.6369C40.6805 46.3497 40.7339 46.1466 40.8405 46.0276C40.9472 45.9087 41.1298 45.8492 41.3882 45.8492ZM41.3882 46.0707C41.2221 46.0707 41.1082 46.1107 41.0467 46.1907C40.9852 46.2707 40.9544 46.4194 40.9544 46.6369C40.9544 46.8543 40.9852 47.003 41.0467 47.083C41.1082 47.163 41.2221 47.203 41.3882 47.203C41.5523 47.203 41.6652 47.163 41.7267 47.083C41.7882 47.003 41.819 46.8543 41.819 46.6369C41.819 46.4194 41.7882 46.2707 41.7267 46.1907C41.6652 46.1107 41.5523 46.0707 41.3882 46.0707Z" fill="#4E4F50"/>
<path d="M43.9162 47.1753V47.8276H43.7439L43.7224 47.3846H42.5101L42.4854 47.8276H42.3162V47.1753H42.4885C42.6137 46.923 42.6885 46.6081 42.7131 46.2307C42.7296 46.001 42.8567 45.8861 43.0947 45.8861H43.7101V47.1753H43.9162ZM43.4608 47.1753V46.0922H43.1378C43.0229 46.0922 42.9603 46.1528 42.9501 46.2738C42.9234 46.6471 42.8485 46.9476 42.7254 47.1753H43.4608Z" fill="#4E4F50"/>
<path d="M44.9129 45.8492C45.1693 45.8492 45.3508 45.9087 45.4575 46.0276C45.5642 46.1466 45.6175 46.3497 45.6175 46.6369C45.6175 46.924 45.5642 47.1271 45.4575 47.2461C45.3508 47.3651 45.1693 47.4246 44.9129 47.4246C44.6544 47.4246 44.4719 47.3651 44.3652 47.2461C44.2585 47.1271 44.2052 46.924 44.2052 46.6369C44.2052 46.3497 44.2585 46.1466 44.3652 46.0276C44.4719 45.9087 44.6544 45.8492 44.9129 45.8492ZM44.9129 46.0707C44.7467 46.0707 44.6329 46.1107 44.5713 46.1907C44.5098 46.2707 44.479 46.4194 44.479 46.6369C44.479 46.8543 44.5098 47.003 44.5713 47.083C44.6329 47.163 44.7467 47.203 44.9129 47.203C45.077 47.203 45.1898 47.163 45.2513 47.083C45.3129 47.003 45.3436 46.8543 45.3436 46.6369C45.3436 46.4194 45.3129 46.2707 45.2513 46.1907C45.1898 46.1107 45.077 46.0707 44.9129 46.0707Z" fill="#4E4F50"/>
<path d="M46.9507 46.6092V46.6184C47.0861 46.6287 47.1825 46.6666 47.2399 46.7322C47.2974 46.7958 47.3261 46.8902 47.3261 47.0153C47.3261 47.1651 47.2809 47.2676 47.1907 47.323C47.1025 47.3784 46.9476 47.4061 46.7261 47.4061C46.4348 47.4061 46.204 47.3999 46.0338 47.3876V45.8892C46.1835 45.8769 46.3866 45.8707 46.643 45.8707C46.8809 45.8707 47.045 45.8984 47.1353 45.9538C47.2276 46.0092 47.2738 46.1148 47.2738 46.2707C47.2738 46.3774 47.2481 46.4584 47.1968 46.5138C47.1456 46.5692 47.0635 46.601 46.9507 46.6092ZM46.2799 46.5199H46.6738C46.805 46.5199 46.8963 46.5046 46.9476 46.4738C46.9989 46.441 47.0245 46.3804 47.0245 46.2922C47.0245 46.2081 46.9958 46.1517 46.9384 46.123C46.883 46.0922 46.7815 46.0769 46.6338 46.0769C46.4922 46.0748 46.3743 46.0748 46.2799 46.0769V46.5199ZM46.2799 46.7076V47.1969C46.3107 47.1969 46.3722 47.1979 46.4645 47.1999C46.5568 47.1999 46.6317 47.1999 46.6891 47.1999C46.8307 47.1999 46.9281 47.1835 46.9815 47.1507C47.0368 47.1179 47.0645 47.0543 47.0645 46.9599C47.0645 46.8656 47.0358 46.7999 46.9784 46.763C46.9209 46.7261 46.8194 46.7076 46.6738 46.7076H46.2799Z" fill="#4E4F50"/>
<path d="M49.7395 47.3846H49.5026V46.3907C49.5026 46.3661 49.5036 46.3302 49.5057 46.283C49.5098 46.2338 49.5118 46.203 49.5118 46.1907H49.5057C49.4831 46.2461 49.4482 46.3046 49.401 46.3661L48.638 47.3846H48.4226V45.8861H48.6595V46.8799C48.6595 46.9394 48.6564 47.0061 48.6503 47.0799H48.6564C48.6893 47.0122 48.7252 46.9548 48.7641 46.9076L49.5272 45.8861H49.7395V47.3846Z" fill="#4E4F50"/>
<path d="M52.9043 45.8861V47.3846H50.9136V45.8861H51.169V47.1753H51.7905V45.8861H52.0274V47.1753H52.652V45.8861H52.9043Z" fill="#4E4F50"/>
<path d="M54.6325 45.8861V47.3846H54.371V46.0922H54.0448C53.9813 46.0922 53.9351 46.1066 53.9064 46.1353C53.8797 46.162 53.8613 46.2102 53.851 46.2799C53.8018 46.6779 53.7536 46.9404 53.7064 47.0676C53.6305 47.2871 53.4736 47.3979 53.2356 47.3999L53.2079 47.1999C53.2879 47.1815 53.3464 47.1569 53.3833 47.1261C53.4202 47.0933 53.45 47.0481 53.4725 46.9907C53.5218 46.8656 53.5659 46.6143 53.6048 46.2369C53.6192 46.1179 53.6572 46.0297 53.7187 45.9722C53.7802 45.9148 53.8725 45.8861 53.9956 45.8861H54.6325Z" fill="#4E4F50"/>
<path d="M55.1295 46.1107L55.1049 45.9169C55.3839 45.8717 55.6259 45.8492 55.8311 45.8492C56.0054 45.8492 56.1336 45.8861 56.2157 45.9599C56.2998 46.0317 56.3418 46.1548 56.3418 46.3292V47.3846H56.1357L56.1049 47.1384C56.0331 47.2122 55.9429 47.2769 55.8341 47.3322C55.7275 47.3856 55.6116 47.4122 55.4865 47.4122C55.349 47.4122 55.2403 47.3763 55.1603 47.3046C55.0803 47.2307 55.0403 47.1271 55.0403 46.9938V46.8307C55.0403 46.7138 55.0762 46.6235 55.148 46.5599C55.2218 46.4943 55.3244 46.4615 55.4557 46.4615H56.0803V46.3292C56.0783 46.2348 56.0557 46.1681 56.0126 46.1292C55.9695 46.0902 55.8906 46.0707 55.7757 46.0707C55.63 46.0707 55.4147 46.084 55.1295 46.1107ZM55.3049 46.8676V46.963C55.3049 47.041 55.3234 47.0984 55.3603 47.1353C55.3993 47.1702 55.4588 47.1876 55.5388 47.1876C55.6188 47.1897 55.708 47.1712 55.8065 47.1322C55.9049 47.0933 55.9962 47.0369 56.0803 46.963V46.6615H55.5018C55.3706 46.6676 55.3049 46.7363 55.3049 46.8676Z" fill="#4E4F50"/>
<path d="M58.1226 45.8861V47.3846H57.8642V46.6892H57.0765V47.3846H56.818V45.8861H57.0765V46.4892H57.8642V45.8861H58.1226Z" fill="#4E4F50"/>
<path d="M58.6027 47.3846V46.2061C58.6027 45.9887 58.7135 45.8799 58.935 45.8799C59.294 45.8799 59.5556 45.8881 59.7197 45.9046L59.7104 46.0892H59.0427C58.9791 46.0892 58.933 46.1046 58.9043 46.1353C58.8756 46.164 58.8612 46.2102 58.8612 46.2738V47.3846H58.6027Z" fill="#4E4F50"/>
<path d="M60.64 45.8492C60.8965 45.8492 61.078 45.9087 61.1847 46.0276C61.2913 46.1466 61.3447 46.3497 61.3447 46.6369C61.3447 46.924 61.2913 47.1271 61.1847 47.2461C61.078 47.3651 60.8965 47.4246 60.64 47.4246C60.3816 47.4246 60.199 47.3651 60.0923 47.2461C59.9857 47.1271 59.9323 46.924 59.9323 46.6369C59.9323 46.3497 59.9857 46.1466 60.0923 46.0276C60.199 45.9087 60.3816 45.8492 60.64 45.8492ZM60.64 46.0707C60.4739 46.0707 60.36 46.1107 60.2985 46.1907C60.237 46.2707 60.2062 46.4194 60.2062 46.6369C60.2062 46.8543 60.237 47.003 60.2985 47.083C60.36 47.163 60.4739 47.203 60.64 47.203C60.8041 47.203 60.917 47.163 60.9785 47.083C61.04 47.003 61.0708 46.8543 61.0708 46.6369C61.0708 46.4194 61.04 46.2707 60.9785 46.1907C60.917 46.1107 60.8041 46.0707 60.64 46.0707Z" fill="#4E4F50"/>
<path d="M62.6779 46.6092V46.6184C62.8132 46.6287 62.9096 46.6666 62.9671 46.7322C63.0245 46.7958 63.0532 46.8902 63.0532 47.0153C63.0532 47.1651 63.0081 47.2676 62.9179 47.323C62.8296 47.3784 62.6748 47.4061 62.4532 47.4061C62.162 47.4061 61.9312 47.3999 61.7609 47.3876V45.8892C61.9107 45.8769 62.1138 45.8707 62.3702 45.8707C62.6081 45.8707 62.7722 45.8984 62.8625 45.9538C62.9548 46.0092 63.0009 46.1148 63.0009 46.2707C63.0009 46.3774 62.9753 46.4584 62.924 46.5138C62.8727 46.5692 62.7907 46.601 62.6779 46.6092ZM62.0071 46.5199H62.4009C62.5322 46.5199 62.6235 46.5046 62.6748 46.4738C62.7261 46.441 62.7517 46.3804 62.7517 46.2922C62.7517 46.2081 62.723 46.1517 62.6655 46.123C62.6102 46.0922 62.5086 46.0769 62.3609 46.0769C62.2194 46.0748 62.1014 46.0748 62.0071 46.0769V46.5199ZM62.0071 46.7076V47.1969C62.0379 47.1969 62.0994 47.1979 62.1917 47.1999C62.284 47.1999 62.3589 47.1999 62.4163 47.1999C62.5578 47.1999 62.6553 47.1835 62.7086 47.1507C62.764 47.1179 62.7917 47.0543 62.7917 46.9599C62.7917 46.8656 62.763 46.7999 62.7055 46.763C62.6481 46.7261 62.5466 46.7076 62.4009 46.7076H62.0071Z" fill="#4E4F50"/>
<path d="M17.8462 38.1538C15.1272 38.1538 12.9231 35.9497 12.9231 33.2308H8.61538C8.61538 38.3288 12.7481 42.4615 17.8462 42.4615V38.1538Z" fill="#C4252F"/>
<path d="M17.2308 33.2308C17.2308 30.5118 19.4349 28.3077 22.1538 28.3077V24C17.0558 24 12.9231 28.1328 12.9231 33.2308H17.2308Z" fill="#C4252F"/>
<path d="M9.23077 38.1538C6.51183 38.1538 4.30769 35.9497 4.30769 33.2308H0C0 38.3288 4.13276 42.4615 9.23077 42.4615V38.1538Z" fill="#C4252F"/>
<path d="M8.61538 33.2308C8.61538 30.5118 10.8195 28.3077 13.5385 28.3077V24C8.44045 24 4.30769 28.1328 4.30769 33.2308H8.61538Z" fill="#C4252F"/>
<path d="M47.9252 30.0792C47.579 29.733 47.1094 29.5385 46.6198 29.5385H22.1537V30.1538C22.1537 31.1734 22.9802 32 23.9998 32H27.0768V37.5385C27.0768 38.5581 27.9033 39.3846 28.9229 39.3846H29.5383V32H45.389C45.8786 32 46.3482 32.1945 46.6944 32.5407L48.6152 34.4615L46.6944 36.3823C46.3482 36.7286 45.8786 36.9231 45.389 36.9231H33.846V37.5385C33.846 38.5581 34.6725 39.3846 35.6921 39.3846H46.6198C47.1094 39.3846 47.579 39.1901 47.9252 38.8439L50.4614 36.3077L52.9976 38.8439C53.3438 39.1901 53.8134 39.3846 54.303 39.3846H59.0768V38.7692C59.0768 37.7496 58.2502 36.9231 57.2306 36.9231H55.5338C55.0441 36.9231 54.5746 36.7286 54.2283 36.3823L52.3075 34.4615L54.2283 32.5407C54.5746 32.1945 55.0441 32 55.5338 32H57.2306C58.2502 32 59.0768 31.1734 59.0768 30.1538V29.5385H54.303C53.8134 29.5385 53.3438 29.733 52.9976 30.0792L50.4614 32.6154L47.9252 30.0792Z" fill="#4E4F50"/>
<path d="M41.2306 33.2308H33.846V35.6923H39.3845C40.4041 35.6923 41.2306 34.8657 41.2306 33.8461V33.2308Z" fill="#4E4F50"/>
</svg>
